<?xml version="1.0" encoding="iso-8859-1"?>
<!-- Generator: Adobe Illustrator 21.0.0, SVG Export Plug-In . SVG Version: 6.00 Build 0)  -->
<svg xmlns="http://www.w3.org/2000/svg" xmlns:xlink="http://www.w3.org/1999/xlink" version="1.1" id="Capa_1" x="0px" y="0px" viewBox="0 0 512 512" style="enable-background:new 0 0 512 512;" xml:space="preserve" width="512" height="512">
<g>
	<path d="M256,152c-57.9,0-105,47.1-105,105s47.1,105,105,105s105-47.1,105-105S313.9,152,256,152z M256,152   c-57.9,0-105,47.1-105,105s47.1,105,105,105s105-47.1,105-105S313.9,152,256,152z M437,0H75C33.6,0,0,33.6,0,75v362   c0,41.4,33.6,75,75,75h362c41.4,0,75-33.6,75-75V75C512,33.6,478.4,0,437,0z M256,392c-74.399,0-135-60.601-135-135   c0-74.401,60.601-135,135-135s135,60.599,135,135C391,331.399,330.399,392,256,392z M421,122c-16.5,0-30-13.5-30-30s13.5-30,30-30   s30,13.5,30,30S437.5,122,421,122z M256,152c-57.9,0-105,47.1-105,105s47.1,105,105,105s105-47.1,105-105S313.9,152,256,152z    M256,152c-57.9,0-105,47.1-105,105s47.1,105,105,105s105-47.1,105-105S313.9,152,256,152z M256,152c-57.9,0-105,47.1-105,105   s47.1,105,105,105s105-47.1,105-105S313.9,152,256,152z"/>
</g>















</svg>
