<?xml version="1.0" encoding="utf-8"?>
<!-- Generator: Adobe Illustrator 25.2.3, SVG Export Plug-In . SVG Version: 6.00 Build 0)  -->
<svg version="1.1" id="Layer_1" xmlns="http://www.w3.org/2000/svg" xmlns:xlink="http://www.w3.org/1999/xlink" x="0px" y="0px"
	 viewBox="0 0 300 300" style="enable-background:new 0 0 300 300;" xml:space="preserve">
<style type="text/css">
	.st0{fill:#FCC659;}
	.st1{fill:#EAA936;}
	.st2{fill:#073856;}
	.st3{fill:#008E8E;}
	.st4{fill:#00ACB5;}
	.st5{fill:#FFFFFF;}
	.st6{fill:#BDDBE0;}
	.st7{fill:#394447;}
	.st8{fill:#6F1F22;}
	.st9{fill:#984A4F;}
	.st10{fill:#1A5370;}
	.st11{fill:#FF9F1E;}
	.st12{fill:#FFBD6E;}
</style>
<g>
	<g>
		<g>
			<polygon class="st0" points="177.3,73.6 184.1,69.6 191.6,69.6 190.5,70.5 193.1,70.9 188.6,77.5 184.8,77.5 176.9,79.8 			"/>
			<g>
				<polygon class="st1" points="97.6,48.7 97.6,35.1 109.4,37.9 110.8,53.2 				"/>
				<g>
					<polygon class="st2" points="116.2,288.5 113.1,297.2 149.4,297.2 123.1,288.5 					"/>
					<polygon class="st3" points="133.9,130.1 130.9,208 129.7,289.4 113.4,290.2 113.4,203.5 112.3,145.9 					"/>
					<polygon class="st2" points="80.5,288.5 83.7,297.2 66.1,297.2 73.7,288.5 					"/>
					<polygon class="st4" points="91.4,124.8 90.6,148.7 69,290.7 83,289.6 115.7,157.8 128.5,130.1 					"/>
					<polygon class="st5" points="125.8,59.5 122,73.6 153,98.4 180.6,80.1 177,72 151.9,86 					"/>
					<polygon class="st6" points="127.9,72.8 153,98.4 128.7,79 					"/>
					<polygon class="st5" points="79.8,62.6 96.5,48.9 108.9,52.5 125.8,59.5 134.2,93.5 137.4,151.8 135,225.3 119,225.6 
						113.4,197.2 106.4,226.1 76.7,220.6 91.9,122.2 93.6,100.6 					"/>
					<polygon class="st6" points="77,218.6 91.3,146.1 101.5,144.3 91.3,133.8 93.6,124.8 96.4,100.6 91.3,76.1 87.1,82.7 
						93.6,100.6 91.9,122.2 					"/>
					<g>
						<polygon class="st5" points="80.2,105.5 91.3,76.1 79.8,62.6 66.8,107.5 84.7,135.3 90.3,129.4 						"/>
					</g>
					<g>
						<polygon class="st6" points="93.6,51 97.3,46.1 108.9,52.5 110.5,49.7 112.3,53.9 112.8,59.1 109,54.7 105.6,59.9 						"/>
					</g>
				</g>
				<polygon class="st0" points="90.3,129.4 86.6,133.6 88.6,136.5 94.4,138.8 98.6,143 101.5,139.8 98.5,133.5 				"/>
				<g>
					<path class="st7" d="M110.9,61.9c-0.1,0-0.2,0-0.2,0c-0.4,0-0.7-0.4-0.7-0.8c0-0.4,0.4-0.7,0.8-0.7c0.1,0,2.5,0.1,5.1-2.4
						c3.1-3,6.7-10,6.4-26.3c0-0.4,0.3-0.8,0.8-0.8c0,0,0,0,0,0c0.4,0,0.8,0.3,0.8,0.8c0.3,17-3.6,24.4-6.9,27.5
						C114.2,61.7,111.6,61.9,110.9,61.9z"/>
				</g>
				<polygon class="st0" points="125.2,19 122.2,37 112,46.7 107.2,46.7 97.1,37 93.6,19 98.8,6.4 119.5,6.4 				"/>
				<polygon class="st1" points="116.2,35.3 112.8,35.1 114.8,36.3 				"/>
				<polygon class="st5" points="115.5,40.4 108.5,40.2 112.4,42.5 				"/>
				<polygon class="st6" points="75.7,105.5 80.6,106.5 80.2,105.5 80.5,104.6 				"/>
				<polygon class="st8" points="107.6,15 118.5,22.8 126.9,26.6 126.9,16.3 119.4,5.2 107.6,2 95.5,6.4 91.3,18.2 94.2,38.1 
					98.5,41 98,34.1 97.2,32.4 96.4,27 98.5,25.6 101.1,28.9 102.5,21.1 				"/>
				<polygon class="st9" points="107.6,2 95.5,6.4 91.3,18.2 94.2,38.1 96,39.3 92.8,19.3 97.6,11.4 100.6,15.8 99.8,10 108.4,7 
					117.2,13.2 110.8,6.4 117.7,7.7 122.7,10 122.7,10 119.4,5.2 				"/>
			</g>
		</g>
		<g>
			<path class="st5" d="M110.7,54.4c-8.7,0-11.6-7.6-11.6-7.7c-0.1-0.4,0.1-0.8,0.5-1c0.4-0.1,0.8,0.1,1,0.5
				c0.1,0.3,2.6,6.7,10.2,6.7c7.3,0,10.5-6.9,10.6-7c0.2-0.4,0.6-0.6,1-0.4c0.4,0.2,0.6,0.6,0.4,1C122.5,46.8,119,54.4,110.7,54.4z"
				/>
		</g>
		<g>
			<path class="st7" d="M110.8,61.9C110.8,61.9,110.8,61.9,110.8,61.9c-2.5,0-4.8-1.1-6.6-3c-7.3-7.8-6.3-28.2-6.3-29
				c0-0.4,0.4-0.8,0.8-0.7c0.4,0,0.8,0.4,0.7,0.8c0,0.2-1,20.6,5.8,27.9c1.6,1.7,3.3,2.5,5.5,2.5c0.4,0,0.8,0.4,0.8,0.8
				C111.6,61.5,111.2,61.9,110.8,61.9z"/>
		</g>
		<g>
			<path class="st7" d="M142.2,97.3c-3.3,0-6.5-0.4-9.7-1.2c-14.3-3.8-22.3-16.3-22.5-35c0-0.4,0.3-0.8,0.8-0.8c0,0,0,0,0,0
				c0.4,0,0.8,0.3,0.8,0.8c0.2,23,11.8,30.9,21.4,33.5c15.5,4.2,34.4-3.3,39.7-12.2c5.7-9.6,15.4-10.4,15.9-10.4
				c0.4,0,0.8,0.3,0.8,0.7c0,0.4-0.3,0.8-0.7,0.8c-0.1,0-9.4,0.7-14.6,9.6C169.5,90.8,155.8,97.3,142.2,97.3z"/>
		</g>
		<path class="st7" d="M195,72.8c0,3.3-1.8,6-4,6c-2.2,0-4-2.7-4-6s1.8-6,4-6C193.2,66.8,195,69.5,195,72.8z"/>
		<path class="st5" d="M100.4,45h-1.6c0.1,0.9,0.3,1.9,0.5,2.8h1.6C100.7,46.8,100.5,45.9,100.4,45z"/>
		<path class="st5" d="M122.5,47.8c0.2-0.9,0.4-1.8,0.5-2.8h-1.6c-0.2,1-0.4,1.9-0.6,2.8H122.5z"/>
	</g>
	<g>
		<g>
			<polygon class="st0" points="210.9,131.9 215.5,136.8 212.5,138.8 206.8,141.1 202.7,145.3 199.9,142.1 202.8,135.8 			"/>
			<polygon class="st0" points="204.2,52.4 203.7,38.9 192,41.7 190.7,56.8 			"/>
			<g>
				<g>
					<polygon class="st0" points="220.9,108.3 209.9,79.3 221.2,64.2 234,110.3 215.5,136.8 210.9,131.9 					"/>
				</g>
				<polygon class="st1" points="213.2,88.1 215.6,81.4 224.3,105.5 209.9,133.8 220.9,108.3 				"/>
				<polygon class="st2" points="185.3,288.6 188.5,297.2 152.7,297.2 178.6,288.6 				"/>
				<polygon class="st2" points="220.5,288.6 217.4,297.2 234.7,297.2 227.3,288.6 				"/>
				<g>
					<polygon class="st5" points="159.1,296.2 160.8,296.2 173.2,291.3 					"/>
				</g>
				<polygon class="st2" points="207.2,135 210.6,150.9 231.9,290.8 218,289.7 185.9,159.8 180.2,149.4 178.2,136.7 182,136.5 
					181.9,135.8 190.7,135.8 				"/>
				<polygon class="st10" points="170.4,135 167.6,153 170.8,209.3 172.1,289.5 188.1,290.3 188.1,204.9 193.1,135.1 				"/>
				<polygon class="st2" points="167.6,153 191.8,152.8 207.2,135 170.4,135 				"/>
				<polygon class="st0" points="221.2,64.2 218.8,61.5 204.2,52.4 192.5,56 175.7,61.8 173.3,64.2 170.4,135 207.2,135 
					207.7,124.8 207.6,103.4 				"/>
				<polygon class="st1" points="195,66.8 195,78.8 191,85.6 197.5,78.8 				"/>
				<polygon class="st1" points="208.4,66.7 208.4,78.7 210.8,84.3 209.7,78.7 				"/>
				<polygon class="st1" points="197.5,123.8 197.5,102.9 201.7,79.8 199.6,103.1 				"/>
				<polygon class="st0" points="158.8,148.3 158.8,148.3 165.3,146.4 164.4,152.2 165.3,162.1 163.8,162.2 161.7,156.6 160,162.1 
					160.9,168.8 158.4,168.8 156.3,161.7 				"/>
				<polygon class="st1" points="171.3,112.8 170.4,135 172.8,135 177.2,116.2 181.6,83.4 173.3,64.2 171.3,112.7 				"/>
				<polygon class="st0" points="173.3,64.2 181.6,83.4 175.9,114 164.4,152.2 158.8,148.3 166.6,112 				"/>
			</g>
			<polygon class="st0" points="179.4,23.1 180.8,42.4 186.9,50.4 194.2,50.4 204.2,40.8 207.6,23.1 202.5,10.7 185.3,10.7 			"/>
			<polygon class="st11" points="181.6,21.4 178,23.7 176.4,24.7 176.4,17.1 187.1,7.8 198.7,7.9 209,15.5 209.9,30.3 206.9,43.9 
				202.5,45.6 192.9,45.9 187.5,40 188.3,38.3 189.2,32.9 187.1,31.5 184.5,34.8 184.6,26.3 			"/>
			<polygon class="st12" points="198.7,7.9 209,15.5 209.9,30.3 206.9,43.9 205.2,44.5 208.2,31.8 203.7,17.3 197.2,12.1 186.9,12 
				176.4,17.1 187.1,7.8 			"/>
		</g>
	</g>
</g>
</svg>
