<?xml version="1.0" encoding="utf-8"?>
<!-- Generator: Adobe Illustrator 25.2.3, SVG Export Plug-In . SVG Version: 6.00 Build 0)  -->
<svg version="1.1" id="Layer_1" xmlns="http://www.w3.org/2000/svg" xmlns:xlink="http://www.w3.org/1999/xlink" x="0px" y="0px"
	 viewBox="0 0 300 300" style="enable-background:new 0 0 300 300;" xml:space="preserve">
<style type="text/css">
	.st0{fill:#FFFFFE;}
	.st1{fill:#00B1C1;}
	.st2{fill:#C5E7F6;}
	.st3{fill:#005975;}
	.st4{fill:#EFEFEF;}
</style>
<g>
	<rect x="64.1" y="72.3" class="st0" width="172.6" height="199.2"/>
	<rect x="16.3" y="146.3" class="st1" width="47.8" height="125.2"/>
	<rect x="236.7" y="146.3" class="st1" width="47.8" height="125.2"/>
	<g>
		<rect x="90.3" y="101.1" class="st2" width="24.7" height="39.9"/>
		<rect x="122.2" y="101.1" class="st2" width="24.7" height="39.9"/>
		<rect x="153.9" y="101.1" class="st2" width="24.7" height="39.9"/>
		<rect x="185.9" y="101.1" class="st2" width="24.7" height="39.9"/>
	</g>
	<g>
		<rect x="90.2" y="146.3" class="st2" width="24.7" height="39.9"/>
		<rect x="122.2" y="146.3" class="st2" width="24.7" height="39.9"/>
		<rect x="153.9" y="146.3" class="st2" width="24.7" height="39.9"/>
		<rect x="185.8" y="146.3" class="st2" width="24.7" height="39.9"/>
	</g>
	<rect x="31.6" y="177" class="st2" width="24.7" height="39.9"/>
	<rect x="246.2" y="177" class="st2" width="24.7" height="39.9"/>
	<rect x="51.7" y="50" class="st2" width="194.5" height="22.3"/>
	<rect x="88.8" y="27.7" class="st2" width="121.8" height="22.3"/>
	<rect x="236.7" y="124" class="st2" width="56.6" height="22.3"/>
	<rect x="7.5" y="124" class="st2" width="56.6" height="22.3"/>
	<rect x="122.2" y="215.6" class="st3" width="56.4" height="55.9"/>
	<rect x="108.4" y="260.8" class="st2" width="85.2" height="10.8"/>
	<rect x="122.2" y="200.4" class="st4" width="56.4" height="10.8"/>
	<rect x="148.8" y="214.4" class="st0" width="3.7" height="46.4"/>
	<rect x="7.5" y="135.2" class="st0" width="56.6" height="5.8"/>
	<rect x="31.6" y="221.6" class="st0" width="24.7" height="5.8"/>
	<rect x="31.6" y="166.3" class="st0" width="24.7" height="5.8"/>
	<rect x="246.2" y="221.6" class="st0" width="24.7" height="5.8"/>
	<rect x="246.2" y="166.3" class="st0" width="24.7" height="5.8"/>
	<rect x="236.7" y="135.2" class="st0" width="56.6" height="5.8"/>
	<rect x="51.7" y="60.5" class="st0" width="194.5" height="5.8"/>
	<path class="st3" d="M172.8,50.2c0,12.3-9.9,22.2-22.2,22.2c-12.3,0-22.2-9.9-22.2-22.2S138.4,28,150.7,28
		C162.9,28,172.8,37.9,172.8,50.2z"/>
	<polygon class="st0" points="162.7,47.4 153.5,47.4 153.5,38.1 148,38.1 148,47.4 138.6,47.4 138.6,52.9 148,52.9 148,62.2 
		153.5,62.2 153.5,52.9 162.7,52.9 	"/>
</g>
</svg>
