<?xml version="1.0" encoding="utf-8"?>
<!-- Generator: Adobe Illustrator 24.1.0, SVG Export Plug-In . SVG Version: 6.00 Build 0)  -->
<svg version="1.1" id="Capa_1" xmlns="http://www.w3.org/2000/svg" xmlns:xlink="http://www.w3.org/1999/xlink" x="0px" y="0px"
	 viewBox="0 0 512 512" style="enable-background:new 0 0 512 512;" xml:space="preserve">
<style type="text/css">
	.st0{opacity:0.5;}
	.st1{fill:#FFFFFF;}
</style>
<g class="st0">
	<g>
		<path class="st1" d="M316,451H196c-24.8,0-45,20.2-45,45v16h210v-16C361,471.2,340.8,451,316,451z"/>
	</g>
</g>
<g>
	<g>
		<path class="st1" d="M87.2,30C81,12.6,64.5,0,45,0C20.2,0,0,20.2,0,45s20.2,45,45,45c19.5,0,36-12.6,42.2-30h65.4
			c-52.1,32.6-86.7,89.5-90.8,153.5C44,219.5,31,236.2,31,256c0,24.8,20.2,45,45,45s45-20.2,45-45c0-19.2-12.2-35.5-29.2-42
			c4.2-58.4,38.7-109.5,89.2-135.1V30H87.2z"/>
	</g>
</g>
<g>
	<g>
		<path class="st1" d="M467,90c24.8,0,45-20.2,45-45S491.8,0,467,0c-19.5,0-36,12.6-42.2,30H331v48.9
			c50.5,25.6,84.9,76.7,89.2,135.1c-17,6.4-29.2,22.8-29.2,42c0,24.8,20.2,45,45,45s45-20.2,45-45c0-19.8-13-36.5-30.8-42.5
			c-4.1-64-38.7-121-90.8-153.5h65.4C431,77.4,447.5,90,467,90z"/>
	</g>
</g>
<g class="st0">
	<g>
		<path class="st1" d="M286,0h-60c-8.3,0-15,6.7-15,15c0,21.5,0,36.9,0,60c0,8.3,6.7,15,15,15h60c8.3,0,15-6.7,15-15
			c0-30.1,0-29,0-60C301,6.7,294.3,0,286,0z"/>
	</g>
</g>
<g class="st0">
	<g>
		<path class="st1" d="M389,338.6l-120-210c-5.3-9.3-20.7-9.3-26,0l-120,210c-2.8,4.9-2.6,11,0.5,15.8L168,421h73v-62.8
			c-17.4-6.2-30-22.7-30-42.2c0-24.8,20.2-45,45-45s45,20.2,45,45c0,19.5-12.6,36-30,42.2V421h73l44.5-66.7
			C391.6,349.6,391.9,343.5,389,338.6z"/>
	</g>
</g>
<g>
	<g>
		<path class="st1" d="M256,301c-8.3,0-15,6.7-15,15s6.7,15,15,15s15-6.7,15-15S264.3,301,256,301z"/>
	</g>
</g>
</svg>
