<?xml version="1.0" encoding="utf-8"?>
<!-- Generator: Adobe Illustrator 24.1.0, SVG Export Plug-In . SVG Version: 6.00 Build 0)  -->
<svg version="1.1" id="Capa_1" xmlns="http://www.w3.org/2000/svg" xmlns:xlink="http://www.w3.org/1999/xlink" x="0px" y="0px"
	 viewBox="0 0 512 512" style="enable-background:new 0 0 512 512;" xml:space="preserve">
<style type="text/css">
	.st0{opacity:0.5;fill:#FFFFFF;}
	.st1{fill:#FFFFFF;}
</style>
<path class="st0" d="M149.3,0H64C28.7,0,0,28.7,0,64v85.3c0,35.3,28.7,64,64,64h85.3c35.3,0,64-28.7,64-64V64
	C213.3,28.7,184.6,0,149.3,0z"/>
<path class="st1" d="M448,0h-85.3c-35.3,0-64,28.7-64,64v85.3c0,35.3,28.7,64,64,64H448c35.3,0,64-28.7,64-64V64
	C512,28.7,483.3,0,448,0z"/>
<path class="st1" d="M149.3,298.7H64c-35.3,0-64,28.7-64,64V448c0,35.3,28.7,64,64,64h85.3c35.3,0,64-28.7,64-64v-85.3
	C213.3,327.4,184.6,298.7,149.3,298.7z"/>
<path class="st0" d="M490.7,384h-64v-64c0-11.8-9.5-21.3-21.3-21.3c-11.8,0-21.3,9.6-21.3,21.3v64h-64c-11.8,0-21.3,9.6-21.3,21.3
	s9.5,21.3,21.3,21.3h64v64c0,11.8,9.5,21.3,21.3,21.3s21.3-9.6,21.3-21.3v-64h64c11.8,0,21.3-9.6,21.3-21.3S502.5,384,490.7,384z"/>
</svg>
