<?xml version="1.0" encoding="utf-8"?>
<!-- Generator: Adobe Illustrator 24.1.0, SVG Export Plug-In . SVG Version: 6.00 Build 0)  -->
<svg version="1.1" id="Layer_1" xmlns="http://www.w3.org/2000/svg" xmlns:xlink="http://www.w3.org/1999/xlink" x="0px" y="0px"
	 viewBox="0 0 512 512" style="enable-background:new 0 0 512 512;" xml:space="preserve">
<style type="text/css">
	.st0{opacity:0.5;fill:#FFFFFF;}
	.st1{fill:#FFFFFF;}
</style>
<path class="st0" d="M330.8,96.1h-11V63.7C319.7,28.6,291.2,0,256,0s-63.7,28.6-63.7,63.7v32.4h-11c-11.6,0-21,9.4-21,21v74.8
	c0,52.8,43,95.8,95.8,95.8s95.8-43,95.8-95.8v-74.8C351.8,105.5,342.4,96.1,330.8,96.1z M234.3,63.7c0-12,9.7-21.7,21.7-21.7
	c12,0,21.7,9.7,21.7,21.7v32.4h-43.4V63.7z"/>
<path class="st1" d="M416.2,320.4H95.8C43,320.4,0,363.4,0,416.2S43,512,95.8,512h320.4c52.8,0,95.8-43,95.8-95.8
	S469,320.4,416.2,320.4z M127.8,437.6c-11.8,0-21.4-9.6-21.4-21.4c0-11.8,9.6-21.4,21.4-21.4s21.4,9.6,21.4,21.4
	C149.2,428,139.6,437.6,127.8,437.6z M213.3,437.6c-11.8,0-21.4-9.6-21.4-21.4c0-11.8,9.6-21.4,21.4-21.4c11.8,0,21.4,9.6,21.4,21.4
	C234.6,428,225.1,437.6,213.3,437.6z M298.7,437.6c-11.8,0-21.4-9.6-21.4-21.4c0-11.8,9.6-21.4,21.4-21.4s21.4,9.6,21.4,21.4
	C320.1,428,310.5,437.6,298.7,437.6z M384.2,437.6c-11.8,0-21.4-9.6-21.4-21.4c0-11.8,9.6-21.4,21.4-21.4s21.4,9.6,21.4,21.4
	C405.5,428,396,437.6,384.2,437.6z"/>
</svg>
