<?xml version="1.0" encoding="utf-8"?>
<!-- Generator: Adobe Illustrator 24.1.0, SVG Export Plug-In . SVG Version: 6.00 Build 0)  -->
<svg version="1.1" id="Capa_1" xmlns="http://www.w3.org/2000/svg" xmlns:xlink="http://www.w3.org/1999/xlink" x="0px" y="0px"
	 viewBox="0 0 512.4 512.4" style="enable-background:new 0 0 512.4 512.4;" xml:space="preserve">
<style type="text/css">
	.st0{fill:#FFFFFF;}
	.st1{opacity:0.5;}
</style>
<g>
	<g>
		<path class="st0" d="M424.1,324.1L188.3,89.4c-4.1-4.1-10.9-4.1-15.1,0l-42.1,42.1c-4.2,4.2-4.2,10.9,0,15.1l13.8,13.8l-66.4,66.4
			c-42.9,42.9-45,110.8-7.5,156.8l-68,68c-4.2,4.2-4.2,10.9,0,15.1l42.7,42.7c2.1,2.1,4.8,3.1,7.6,3.1s5.5-1,7.6-3.1l68-68
			c21.5,17.5,47.5,26.9,73.8,26.9c30,0,60.1-11.4,83-34.3l66.4-66.4l13.8,13.8c4.1,4.1,10.8,4.2,15,0.1l43.2-42.1
			c2-2,3.2-4.7,3.2-7.6C427.2,328.9,426.1,326.1,424.1,324.1z"/>
	</g>
</g>
<g class="st1">
	<g>
		<path class="st0" d="M372.4,11.9C356.5-4,330.6-4,314.8,11.9l-86.8,86.8l57.9,57.6l86.7-86.7c7.7-7.7,11.9-17.9,11.9-28.8
			C384.4,30,380.2,19.7,372.4,11.9z"/>
	</g>
</g>
<g class="st1">
	<g>
		<path class="st0" d="M500.4,139.9c-15.9-15.9-41.7-15.9-57.6,0l-86.5,86.5l57.9,57.6l86.4-86.4c7.7-7.7,11.9-17.9,11.9-28.8
			S508.2,147.7,500.4,139.9z"/>
	</g>
</g>
</svg>
