<?xml version="1.0" encoding="utf-8"?>
<!-- Generator: Adobe Illustrator 24.1.0, SVG Export Plug-In . SVG Version: 6.00 Build 0)  -->
<svg version="1.1" id="Capa_1" xmlns="http://www.w3.org/2000/svg" xmlns:xlink="http://www.w3.org/1999/xlink" x="0px" y="0px"
	 viewBox="0 0 512 512" style="enable-background:new 0 0 512 512;" xml:space="preserve">
<style type="text/css">
	.st0{fill:#FFFFFF;}
	.st1{opacity:0.5;fill:#FFFFFF;}
</style>
<path class="st0" d="M274.9,319c55.6,0,100.9-45.3,100.9-100.9c0-55.6-45.3-100.9-100.9-100.9c-55.6,0-100.9,45.3-100.9,100.9
	C174,273.7,219.3,319,274.9,319z M274.9,137.9c44.2,0,80.2,36,80.2,80.2s-36,80.2-80.2,80.2c-44.2,0-80.2-36-80.2-80.2
	S230.7,137.9,274.9,137.9z"/>
<circle class="st0" cx="81.2" cy="300.4" r="72.4"/>
<circle class="st0" cx="372.6" cy="409" r="56.9"/>
<circle class="st0" cx="211.2" cy="411.6" r="64.7"/>
<circle class="st1" cx="456.7" cy="290" r="46.6"/>
<circle class="st1" cx="453.4" cy="176.7" r="36.2"/>
<circle class="st1" cx="403.6" cy="103" r="25.9"/>
<circle class="st1" cx="327.3" cy="61.6" r="25.9"/>
<circle class="st1" cx="251.2" cy="56.4" r="20.7"/>
<circle class="st1" cx="195.6" cy="82.3" r="15.5"/>
<circle class="st1" cx="153.6" cy="123.7" r="10.3"/>
<circle class="st1" cx="134.4" cy="163.8" r="5.2"/>
</svg>
