<?xml version="1.0" encoding="utf-8"?>
<!-- Generator: Adobe Illustrator 24.1.0, SVG Export Plug-In . SVG Version: 6.00 Build 0)  -->
<svg version="1.1" id="Capa_1" xmlns="http://www.w3.org/2000/svg" xmlns:xlink="http://www.w3.org/1999/xlink" x="0px" y="0px"
	 viewBox="0 0 512 512" style="enable-background:new 0 0 512 512;" xml:space="preserve">
<style type="text/css">
	.st0{opacity:0.5;fill:#FFFFFF;}
	.st1{fill:#FFFFFF;}
</style>
<path class="st0" d="M142.5,383.5h34.3v34.3h-34.3L142.5,383.5z"/>
<path class="st0" d="M360.4,128.5H455L335.3,8.8v94.6C335.3,117.2,346.6,128.5,360.4,128.5z"/>
<path class="st0" d="M142.5,254.9h34.3v34.3h-34.3L142.5,254.9z"/>
<path class="st1" d="M360.4,158.5c-30.4,0-55.2-24.7-55.2-55.2V0H103.4C72.9,0,48.2,24.7,48.2,55.2v401.7
	c0,30.4,24.7,55.2,55.2,55.2h305.3c30.4,0,55.2-24.7,55.2-55.2V158.5L360.4,158.5z M320.3,224.9c8.3,0,15,6.7,15,15s-6.7,15-15,15
	H256c-8.3,0-15-6.7-15-15s6.7-15,15-15H320.3z M127.5,80.3h80.3c8.3,0,15,6.7,15,15s-6.7,15-15,15h-80.3c-8.3,0-15-6.7-15-15
	S119.2,80.3,127.5,80.3z M127.5,144.6H256c8.3,0,15,6.7,15,15s-6.7,15-15,15H127.5c-8.3,0-15-6.7-15-15S119.2,144.6,127.5,144.6
	L127.5,144.6z M206.7,432.7c0,8.3-6.7,15-15,15h-64.3c-8.3,0-15-6.7-15-15v-64.3c0-8.3,6.7-15,15-15h64.3c8.3,0,15,6.7,15,15V432.7z
	 M206.7,304.2c0,8.3-6.7,15-15,15h-64.3c-8.3,0-15-6.7-15-15v-64.3c0-8.3,6.7-15,15-15h64.3c8.3,0,15,6.7,15,15V304.2z M384.5,447.7
	H256c-8.3,0-15-6.7-15-15s6.7-15,15-15h128.5c8.3,0,15,6.7,15,15S392.8,447.7,384.5,447.7z M241,368.5c0-8.3,6.7-15,15-15h64.3
	c8.3,0,15,6.7,15,15s-6.7,15-15,15H256C247.7,383.5,241,376.8,241,368.5L241,368.5z M384.5,319.2H256c-8.3,0-15-6.7-15-15
	s6.7-15,15-15h128.5c8.3,0,15,6.7,15,15S392.8,319.2,384.5,319.2z"/>
</svg>
