<?xml version="1.0" encoding="utf-8"?>
<!-- Generator: Adobe Illustrator 24.1.0, SVG Export Plug-In . SVG Version: 6.00 Build 0)  -->
<svg version="1.1" id="Capa_1" xmlns="http://www.w3.org/2000/svg" xmlns:xlink="http://www.w3.org/1999/xlink" x="0px" y="0px"
	 viewBox="0 0 412.8 412.8" style="enable-background:new 0 0 412.8 412.8;" xml:space="preserve">
<style type="text/css">
	.st0{opacity:0.5;fill:#FFFFFF;}
	.st1{fill:#FFFFFF;}
</style>
<path class="st0" d="M47.7,274.6C21.4,274.6,0,295.9,0,322.3C0,348.6,21.4,370,47.7,370c26.3,0,47.7-21.4,47.7-47.7
	C95.4,295.9,74,274.6,47.7,274.6z M398.7,283.1H166.8c-7.8,0-14.1,6.3-14.1,14.1s6.3,14.1,14.1,14.1h231.9c7.8,0,14.1-6.3,14.1-14.1
	S406.4,283.1,398.7,283.1z M317.2,352H166.8c-7.8,0-14.1,6.3-14.1,14.1c0,7.8,6.3,14.1,14.1,14.1h150.4c7.8,0,14.1-6.3,14.1-14.1
	S325,352,317.2,352z"/>
<path class="st1" d="M95.4,80.2c0,26.3-21.4,47.7-47.7,47.7C21.4,127.9,0,106.5,0,80.2c0-26.3,21.4-47.7,47.7-47.7
	C74,32.5,95.4,53.9,95.4,80.2z"/>
<path class="st1" d="M166.8,65.3h231.9c7.8,0,14.1-6.3,14.1-14.1c0-7.8-6.3-14.1-14.1-14.1H166.8c-7.8,0-14.1,6.3-14.1,14.1
	C152.7,59,159,65.3,166.8,65.3z"/>
<path class="st1" d="M166.8,134.3h150.4c7.8,0,14.1-6.3,14.1-14.1c0-7.8-6.3-14.1-14.1-14.1H166.8c-7.8,0-14.1,6.3-14.1,14.1
	C152.7,127.9,159,134.3,166.8,134.3z"/>
</svg>
