<?xml version="1.0" encoding="utf-8"?>
<!-- Generator: Adobe Illustrator 24.1.0, SVG Export Plug-In . SVG Version: 6.00 Build 0)  -->
<svg version="1.1" id="Layer_1" xmlns="http://www.w3.org/2000/svg" xmlns:xlink="http://www.w3.org/1999/xlink" x="0px" y="0px"
	 viewBox="0 0 512 512" style="enable-background:new 0 0 512 512;" xml:space="preserve">
<style type="text/css">
	.st0{fill:#FFFFFF;}
	.st1{opacity:0.5;fill:#FFFFFF;}
</style>
<path class="st0" d="M284.4,271h-22.5l-39.8,35.1l96.9,198.1c23.5-6,45.7-15.2,66.1-27.1L284.4,271z"/>
<path class="st1" d="M54.7,413.7l189.7-167.3L371,27.1C335.6,9.3,296.2,0,256.2,0C115.1,0,0.2,114.8,0.2,256
	C0.2,315.4,20.6,370.2,54.7,413.7L54.7,413.7z"/>
<path class="st0" d="M429,271l53,105.7C499,344.9,509.6,309,511.8,271H429z"/>
<path class="st0" d="M395.4,271h-77.6l92.6,189.3c20.2-15.3,38-33.4,52.9-53.9L395.4,271z"/>
<path class="st0" d="M169.2,496.8L120,396.1l-45.4,40.1C101,462.9,133.3,483.7,169.2,496.8z"/>
<path class="st0" d="M288.5,510l-89.7-183.3l-55.5,48.9l64.5,131.8c15.7,3,31.8,4.6,48.4,4.6C267.1,512,277.9,511.3,288.5,510
	L288.5,510z"/>
<path class="st0" d="M397,42.1L282.2,241h229.6C507,160.6,464.3,86.5,397,42.1z"/>
</svg>
