<?xml version="1.0" encoding="utf-8"?>
<!-- Generator: Adobe Illustrator 24.1.0, SVG Export Plug-In . SVG Version: 6.00 Build 0)  -->
<svg version="1.1" id="Capa_1" xmlns="http://www.w3.org/2000/svg" xmlns:xlink="http://www.w3.org/1999/xlink" x="0px" y="0px"
	 viewBox="0 0 469.3 469.3" style="enable-background:new 0 0 469.3 469.3;" xml:space="preserve">
<style type="text/css">
	.st0{fill:#FFFFFF;}
	.st1{opacity:0.5;fill:#FFFFFF;}
</style>
<path class="st0" d="M347.9,151.4c-4-4-11.1-4-15.1,0L129.9,354.4c-2.4,2.4-3.5,5.9-3,9.3c0.6,3.4,2.7,6.3,5.8,7.8l16.7,8.3v28
	l-51,14.6l-51.5-51.6l14.6-51.1h28l8.3,16.7c1.5,3.1,4.4,5.2,7.8,5.8c0.6,0.1,1.1,0.1,1.7,0.1c2.8,0,5.5-1.1,7.5-3.1l202.9-203.1
	c2-2,3.1-4.7,3.1-7.5s-1.1-5.5-3.1-7.5l-39.2-39.3c-2-2-4.7-3.1-7.5-3.1h0c-2.8,0-5.6,1.1-7.6,3.2L45.8,301.7
	c-0.1,0.1-0.1,0.3-0.2,0.4c-1.1,1.2-2,2.5-2.5,4.2l-18.5,64.9L0.4,455.7c-1.1,3.7,0,7.7,2.7,10.5c2,2,4.8,3.1,7.5,3.1
	c1,0,2-0.1,2.9-0.4l84.5-24.2l64.8-18.5c0.2-0.1,0.3-0.2,0.5-0.3c0.7-0.2,1.3-0.6,1.9-1c0.6-0.4,1.2-0.7,1.7-1.1
	c0.1-0.1,0.3-0.2,0.5-0.3l219.6-217.8c2-2,3.1-4.7,3.2-7.6c0-2.8-1.1-5.6-3.1-7.6L347.9,151.4z"/>
<path class="st1" d="M456.8,76.2l-64-64.1c-16.1-16.1-44.2-16.2-60.4,0l-39.1,39.5c-4.1,4.2-4.1,10.9,0,15.1l108.9,109
	c2.1,2.1,4.8,3.1,7.5,3.1c2.7,0,5.4-1,7.5-3.1l39.5-39.1c8.1-8.1,12.5-18.8,12.5-30.2S464.9,84.2,456.8,76.2z"/>
</svg>
