<?xml version="1.0" encoding="utf-8"?>
<!-- Generator: Adobe Illustrator 24.1.0, SVG Export Plug-In . SVG Version: 6.00 Build 0)  -->
<svg version="1.1" id="Layer_1" xmlns="http://www.w3.org/2000/svg" xmlns:xlink="http://www.w3.org/1999/xlink" x="0px" y="0px"
	 viewBox="0 0 512 512" style="enable-background:new 0 0 512 512;" xml:space="preserve">
<style type="text/css">
	.st0{fill:#FFFFFF;}
	.st1{opacity:0.5;fill:#FFFFFF;}
</style>
<path class="st0" d="M456.6,178.5c-7.4-4.8-17.3-2.6-22.1,4.8c-7.2,11.2-19,24.6-34.5,24.6c-12.9,0-27.1-7.2-37.3-24H384
	c8.8,0,16-7.2,16-16c0-8.8-7.2-16-16-16h-31.6c-0.5-5.4-0.5-10.3,0-16H384c8.8,0,16-7.2,16-16s-7.2-16-16-16h-21.3
	c10.2-16.8,24.4-24,37.3-24c15.5,0,27.3,13.4,34.5,24.6c4.8,7.4,14.7,9.6,22.1,4.8c7.4-4.8,9.6-14.7,4.8-22.1
	C420.1,22.9,349.9,44.2,327.2,104H320c-8.8,0-16,7.2-16,16c0,8.5,6.7,16,16.3,16c-0.4,5.6-0.4,10.2,0,16c-9.6,0-16.3,7.5-16.3,16
	c0,8.8,7.2,16,16,16h7.2c22.7,59.8,92.9,81.2,134.3,16.6C466.2,193.2,464.1,183.3,456.6,178.5L456.6,178.5z"/>
<path class="st1" d="M184,368h-7.6c-7.1,0-13.6-4.4-15.7-11.2c-2.6-8.2,1.7-16.7,9.5-19.7l120-46.2c8.4-3.2,12.5-12.8,9-21.1
	c-47.3-113.5-59.2-253.4-59.3-255.1c-1.2-15.1-20.8-20.2-29.3-7.6l-23.1,34.7l-34.7-23.1c-9.2-6.1-21.7-1.3-24.4,9.4l-10.5,42
	L88.9,50.7c-9.2-6.1-21.7-1.3-24.4,9.4l-10.5,42L24.9,82.7C13.8,75.3-1,84,0.1,97.2c0.3,4.1,8.2,102.9,38.2,203.3
	c17.9,59.8,40,107.8,65.7,142.4c18,24.3,45.7,37,73.6,37h5.6c30.7,0,56.4-24.4,56.8-55.1C240.5,393.6,215.2,368,184,368L184,368z
	 M81.1,197.9c-3.3-8.2,0.7-17.5,8.9-20.8l80-32c8.2-3.3,17.5,0.7,20.8,8.9c3.3,8.2-0.7,17.5-8.9,20.8C95.3,209.5,100.4,208,96,208
	C89.7,208,83.7,204.2,81.1,197.9z M117.9,270.9c-8.1,3.2-17.5-0.6-20.8-8.9c-3.3-8.2,0.7-17.5,8.9-20.8l80-32
	c8.2-3.3,17.5,0.7,20.8,8.9c3.3,8.2-0.7,17.5-8.9,20.8L117.9,270.9z M432,272c-4.2,0,4.1-2.7-111.6,41.8
	c-0.1-0.2-77.4,29.6-77.3,29.5c-5.7,2.2-6.9,9.6-2.3,13.6c48.7,41.3,38.6,118.9-19,146.5c-4.3,2.1-2.9,8.6,1.9,8.6
	c13.3,0,26-3.2,37.2-9c0,0,225.8-92.4,228.9-95.8C538.2,356.5,502,272,432,272L432,272z"/>
</svg>
