<?xml version="1.0" encoding="utf-8"?>
<!-- Generator: Adobe Illustrator 24.1.0, SVG Export Plug-In . SVG Version: 6.00 Build 0)  -->
<svg version="1.1" id="Capa_1" xmlns="http://www.w3.org/2000/svg" xmlns:xlink="http://www.w3.org/1999/xlink" x="0px" y="0px"
	 viewBox="0 0 512 512" style="enable-background:new 0 0 512 512;" xml:space="preserve">
<style type="text/css">
	.st0{opacity:0.5;fill:#FFFFFF;}
	.st1{fill:#FFFFFF;}
</style>
<path class="st0" d="M468.3,359c-7.3-4-16.4-1.3-20.4,5.9c-4,7.3-1.3,16.4,5.9,20.4c17.9,9.8,28.1,20.7,28.1,29.9
	c0,11.2-15.9,28.6-60.4,43.7c-44,15-102.8,23.2-165.6,23.2s-121.6-8.2-165.6-23.2C45.9,443.7,30,426.3,30,415.1
	c0-9.2,10.2-20,28.1-29.9c7.3-4,9.9-13.1,5.9-20.4c-4-7.3-13.1-9.9-20.4-5.9C23.7,369.9,0,388.5,0,415.1c0,20.4,14,49.4,80.8,72.1
	c47,16,109.3,24.8,175.2,24.8s128.2-8.8,175.2-24.8c66.8-22.7,80.8-51.7,80.8-72.1C512,388.5,488.3,369.9,468.3,359z"/>
<path class="st0" d="M142.8,437.1c30.4,8.6,70.7,13.3,113.2,13.3s82.8-4.7,113.2-13.3c37.3-10.5,56.1-25.8,56.1-45.3
	c0-19.5-18.9-34.8-56.1-45.3c-8.3-2.3-17.3-4.4-26.8-6.1c-5.2,9-10.6,18.2-16.3,27.7c10.6,1.6,20.5,3.5,29.5,5.8
	c27.4,7,37.4,14.8,39.5,17.9c-2.1,3-12.1,10.9-39.5,17.9c-25.9,6.6-59.3,10.4-94.5,10.7c-1.7,0.1-3.4,0.2-5.1,0.2
	c-1.7,0-3.4-0.1-5.1-0.2c-35.2-0.3-68.5-4.1-94.5-10.7c-27.4-7-37.4-14.8-39.5-17.9c2.1-3,12.1-10.9,39.5-17.9
	c9-2.3,19-4.2,29.5-5.8c-5.7-9.5-11.1-18.7-16.3-27.7c-9.6,1.7-18.6,3.8-26.8,6.1c-37.3,10.5-56.1,25.8-56.1,45.3
	C86.6,411.4,105.5,426.6,142.8,437.1z"/>
<path class="st1" d="M256,390.6c13.4,0,25.5-6.8,32.4-18.2c48.8-79.9,107-185.1,107-233C395.4,62.6,332.9,0,256,0
	S116.6,62.6,116.6,139.4c0,47.9,58.2,153.1,107,233C230.5,383.8,242.6,390.6,256,390.6z M200,129.9c0-30.9,25.1-56,56-56
	s56,25.1,56,56c0,30.9-25.1,56-56,56S200,160.8,200,129.9z"/>
</svg>
