<?xml version="1.0" encoding="utf-8"?>
<!-- Generator: Adobe Illustrator 24.1.0, SVG Export Plug-In . SVG Version: 6.00 Build 0)  -->
<svg version="1.1" id="Layer_1" xmlns="http://www.w3.org/2000/svg" xmlns:xlink="http://www.w3.org/1999/xlink" x="0px" y="0px"
	 viewBox="0 0 512 512" style="enable-background:new 0 0 512 512;" xml:space="preserve">
<style type="text/css">
	.st0{fill:#FFFFFF;}
	.st1{opacity:0.5;fill:#FFFFFF;}
</style>
<path class="st0" d="M358.9,67.6v376.7c0,25.7-20.9,46.6-46.7,46.6H157.7c-9.1,0-16.5-7.4-16.5-16.5c0-14.7,0-44.1,0-103.9
	c0-11.4-9.3-20.7-20.7-20.7c-59.8,0-89.2-0.1-103.9,0c-9.1,0-16.5-7.4-16.5-16.5V67.6C0,41.8,20.9,21,46.7,21h265.6
	C338,21,358.9,41.9,358.9,67.6L358.9,67.6z"/>
<path class="st1" d="M465.3,21c-9.1,0-16.5,7.4-16.5,16.5c0,9.1,7.4,16.5,16.5,16.5c7.5,0,13.6,6.1,13.6,13.6v376.7
	c0,7.5-6.1,13.6-13.6,13.6c-9.1,0-16.5,7.4-16.5,16.5c0,9.1,7.4,16.5,16.5,16.5c25.7,0,46.7-20.9,46.7-46.6V67.6
	C512,41.9,491.1,21,465.3,21L465.3,21z"/>
<path class="st1" d="M388.8,21c-9.1,0-16.5,7.4-16.5,16.5c0,9.1,7.4,16.5,16.5,16.5c7.5,0,13.6,6.1,13.6,13.6v376.7
	c0,7.5-6.1,13.6-13.6,13.6c-9.1,0-16.5,7.4-16.5,16.5c0,9.1,7.4,16.5,16.5,16.5c25.7,0,46.7-20.9,46.7-46.6V67.6
	C435.5,41.9,414.5,21,388.8,21L388.8,21z"/>
<path class="st1" d="M125.3,382.2v92.3c0,14.4-17.4,22.2-28.2,11.7C-2.5,386.5,1.6,392.2,0.3,385.4c-2-10.1,5.7-19.7,16.2-19.7h92.3
	C117.9,365.7,125.3,373.1,125.3,382.2L125.3,382.2z"/>
</svg>
