<?xml version="1.0" encoding="utf-8"?>
<!-- Generator: Adobe Illustrator 24.1.0, SVG Export Plug-In . SVG Version: 6.00 Build 0)  -->
<svg version="1.1" id="Layer_1" xmlns="http://www.w3.org/2000/svg" xmlns:xlink="http://www.w3.org/1999/xlink" x="0px" y="0px"
	 viewBox="0 0 512 512" style="enable-background:new 0 0 512 512;" xml:space="preserve">
<style type="text/css">
	.st0{fill:#FFFFFF;}
	.st1{opacity:0.5;fill:#FFFFFF;}
</style>
<path class="st0" d="M497,126h-60c-8.3,0-15,6.7-15,15v300c0,8.3,6.7,15,15,15h60c8.3,0,15-6.7,15-15V141
	C512,132.7,505.3,126,497,126z"/>
<path class="st1" d="M215.7,207h-15v-45c0-8.3-6.7-15-15-15c-8.3,0-15,6.7-15,15v45h-15c-8.3,0-15,6.7-15,15v200c0,8.3,6.7,15,15,15
	h60c8.3,0,15-6.7,15-15V222C230.7,213.7,223.9,207,215.7,207z"/>
<path class="st1" d="M356.3,116h-15V71c0-8.3-6.7-15-15-15c-8.3,0-15,6.7-15,15v45h-15c-8.3,0-15,6.7-15,15v60c0,8.3,6.7,15,15,15
	h15v45c0,8.3,6.7,15,15,15c8.3,0,15-6.7,15-15v-45h15c8.3,0,15-6.7,15-15v-60C371.3,122.7,364.6,116,356.3,116z"/>
<path class="st0" d="M75,76H15C6.7,76,0,82.7,0,91v200c0,8.3,6.7,15,15,15h15v105c0,8.3,6.7,15,15,15s15-6.7,15-15V306h15
	c8.3,0,15-6.7,15-15V91C90,82.7,83.3,76,75,76z"/>
</svg>
