<svg width="20" height="20" viewBox="0 0 20 20" fill="none" xmlns="http://www.w3.org/2000/svg">
<path d="M6.66602 4.7915C6.32435 4.7915 6.04102 4.50817 6.04102 4.1665V1.6665C6.04102 1.32484 6.32435 1.0415 6.66602 1.0415C7.00768 1.0415 7.29102 1.32484 7.29102 1.6665V4.1665C7.29102 4.50817 7.00768 4.7915 6.66602 4.7915Z" fill="#55527C"/>
<path d="M13.334 4.7915C12.9923 4.7915 12.709 4.50817 12.709 4.1665V1.6665C12.709 1.32484 12.9923 1.0415 13.334 1.0415C13.6757 1.0415 13.959 1.32484 13.959 1.6665V4.1665C13.959 4.50817 13.6757 4.7915 13.334 4.7915Z" fill="#55527C"/>
<path d="M17.0827 8.2002H2.91602C2.57435 8.2002 2.29102 7.91686 2.29102 7.5752C2.29102 7.23353 2.57435 6.9502 2.91602 6.9502H17.0827C17.4243 6.9502 17.7077 7.23353 17.7077 7.5752C17.7077 7.91686 17.4243 8.2002 17.0827 8.2002Z" fill="#55527C"/>
<path d="M13.3333 18.9584H6.66667C3.625 18.9584 1.875 17.2084 1.875 14.1667V7.08335C1.875 4.04169 3.625 2.29169 6.66667 2.29169H13.3333C16.375 2.29169 18.125 4.04169 18.125 7.08335V14.1667C18.125 17.2084 16.375 18.9584 13.3333 18.9584ZM6.66667 3.54169C4.28333 3.54169 3.125 4.70002 3.125 7.08335V14.1667C3.125 16.55 4.28333 17.7084 6.66667 17.7084H13.3333C15.7167 17.7084 16.875 16.55 16.875 14.1667V7.08335C16.875 4.70002 15.7167 3.54169 13.3333 3.54169H6.66667Z" fill="#55527C"/>
<path d="M7.08333 12.0834C6.975 12.0834 6.86666 12.0584 6.76666 12.0167C6.66666 11.975 6.57501 11.9167 6.49167 11.8417C6.41667 11.7584 6.35832 11.6667 6.31666 11.5667C6.27499 11.4667 6.25 11.3584 6.25 11.25C6.25 11.0334 6.34167 10.8167 6.49167 10.6584C6.57501 10.5834 6.66666 10.525 6.76666 10.4834C6.91666 10.4167 7.08334 10.4 7.25001 10.4334C7.30001 10.4417 7.35 10.4584 7.4 10.4834C7.45 10.5 7.5 10.525 7.55 10.5584C7.59166 10.5917 7.63333 10.625 7.67499 10.6584C7.70833 10.7 7.74999 10.7417 7.77499 10.7834C7.80832 10.8334 7.83334 10.8834 7.85001 10.9334C7.87501 10.9834 7.89168 11.0334 7.90001 11.0834C7.90834 11.1417 7.91667 11.1917 7.91667 11.25C7.91667 11.4667 7.82499 11.6834 7.67499 11.8417C7.51666 11.9917 7.3 12.0834 7.08333 12.0834Z" fill="#55527C"/>
<path d="M9.99935 12.0832C9.78268 12.0832 9.56602 11.9916 9.40769 11.8416C9.37436 11.7999 9.34103 11.7582 9.30769 11.7166C9.27436 11.6666 9.24934 11.6166 9.23267 11.5666C9.20767 11.5166 9.19101 11.4666 9.18267 11.4166C9.17434 11.3582 9.16602 11.3082 9.16602 11.2499C9.16602 11.1416 9.191 11.0332 9.23267 10.9332C9.27434 10.8332 9.33269 10.7416 9.40769 10.6582C9.64102 10.4249 10.016 10.3499 10.316 10.4832C10.4244 10.5249 10.5077 10.5832 10.591 10.6582C10.741 10.8166 10.8327 11.0332 10.8327 11.2499C10.8327 11.3082 10.8244 11.3582 10.816 11.4166C10.8077 11.4666 10.791 11.5166 10.766 11.5666C10.7494 11.6166 10.7243 11.6666 10.691 11.7166C10.6577 11.7582 10.6243 11.7999 10.591 11.8416C10.5077 11.9166 10.4244 11.9749 10.316 12.0166C10.216 12.0582 10.1077 12.0832 9.99935 12.0832Z" fill="#55527C"/>
<path d="M7.08333 15C6.975 15 6.86666 14.975 6.76666 14.9333C6.66666 14.8917 6.57501 14.8333 6.49167 14.7583C6.41667 14.675 6.35832 14.5916 6.31666 14.4833C6.27499 14.3833 6.25 14.275 6.25 14.1666C6.25 13.95 6.34167 13.7333 6.49167 13.575C6.57501 13.5 6.66666 13.4416 6.76666 13.4C7.075 13.2666 7.44166 13.3416 7.67499 13.575C7.70833 13.6166 7.74999 13.6583 7.77499 13.7C7.80832 13.75 7.83334 13.8 7.85001 13.85C7.87501 13.9 7.89168 13.95 7.90001 14.0083C7.90834 14.0583 7.91667 14.1166 7.91667 14.1666C7.91667 14.3833 7.82499 14.6 7.67499 14.7583C7.51666 14.9083 7.3 15 7.08333 15Z" fill="#55527C"/>
</svg>
