<svg width="5" height="8" viewBox="0 0 5 8" fill="none" xmlns="http://www.w3.org/2000/svg">
<path d="M0.536858 0.177166L0.177307 0.5366C0.0591135 0.661157 -2.91168e-07 0.806632 -2.83909e-07 0.972691C-2.76501e-07 1.14217 0.0591135 1.28592 0.177307 1.40417L2.50697 3.73376L0.177375 6.06333C0.0591808 6.18156 6.71968e-05 6.32534 6.72042e-05 6.49476C6.72115e-05 6.6609 0.0591808 6.80634 0.177375 6.93092L0.536925 7.28563C0.658292 7.40708 0.803734 7.46777 0.973118 7.46777C1.14566 7.46777 1.28945 7.40701 1.40447 7.28565L4.52494 4.1652C4.64632 4.05011 4.70707 3.90638 4.70707 3.73377C4.70707 3.56441 4.64634 3.41898 4.52494 3.29765L1.40447 0.177183C1.28621 0.0589389 1.14243 -0.00022464 0.973117 -0.000224633C0.80689 -0.000241315 0.661532 0.0589223 0.536858 0.177166Z" fill=""/>
</svg>
