<svg width="5" height="8" viewBox="0 0 5 8" fill="none" xmlns="http://www.w3.org/2000/svg">
<path d="M4.17374 0.177653L4.53352 0.537184C4.65179 0.661774 4.71094 0.807288 4.71094 0.973392C4.71094 1.14292 4.65179 1.28671 4.53352 1.40498L2.20241 3.7352L4.53345 6.0654C4.65172 6.18366 4.71087 6.32748 4.71087 6.49694C4.71087 6.66312 4.65172 6.80861 4.53345 6.93321L4.17368 7.28802C4.05223 7.40951 3.9067 7.47021 3.73721 7.47021C3.56457 7.47021 3.42068 7.40944 3.30559 7.28804L0.183176 4.16675C0.0617164 4.05164 0.000937306 3.90787 0.000937299 3.73522C0.000937291 3.5658 0.0616997 3.42034 0.183176 3.29897L3.30559 0.177671C3.42392 0.0593949 3.56779 0.000215104 3.73721 0.000215096C3.90354 0.0001984 4.04899 0.0593777 4.17374 0.177653Z" fill=""/>
</svg>
