<svg id="Capa_1" enable-background="new 0 0 510 510" height="512" viewBox="0 0 510 510" width="512" xmlns="http://www.w3.org/2000/svg" xmlns:xlink="http://www.w3.org/1999/xlink"><linearGradient id="lg1"><stop offset="0" stop-color="#7faef4"/><stop offset="1" stop-color="#4c8df1"/></linearGradient><linearGradient id="SVGID_1_" gradientUnits="userSpaceOnUse" x1="163.361" x2="411.374" xlink:href="#lg1" y1="146.695" y2="394.708"/><linearGradient id="SVGID_2_" gradientUnits="userSpaceOnUse" x1="361.508" x2="130.909" xlink:href="#lg1" y1="344.842" y2="114.243"/><linearGradient id="lg2"><stop offset="0" stop-color="#4c8df1" stop-opacity="0"/><stop offset=".5631" stop-color="#466cc8" stop-opacity=".563"/><stop offset="1" stop-color="#4256ac"/></linearGradient><linearGradient id="SVGID_3_" gradientUnits="userSpaceOnUse" x1="280.015" x2="107.196" xlink:href="#lg2" y1="283.255" y2="197.334"/><linearGradient id="SVGID_4_" gradientUnits="userSpaceOnUse" x1="420.926" x2="291.934" xlink:href="#lg2" y1="350.052" y2="287.844"/><linearGradient id="lg3"><stop offset="0" stop-color="#ffd833"/><stop offset="1" stop-color="#f2b631"/></linearGradient><linearGradient id="SVGID_5_" gradientUnits="userSpaceOnUse" x1="250.203" x2="332.448" xlink:href="#lg3" y1="401.652" y2="483.897"/><linearGradient id="SVGID_6_" gradientUnits="userSpaceOnUse" x1="294.777" x2="240.495" y1="431.425" y2="308.574"><stop offset="0" stop-color="#f9a126" stop-opacity="0"/><stop offset="1" stop-color="#ec4437"/></linearGradient><linearGradient id="SVGID_7_" gradientUnits="userSpaceOnUse" x1="204.91" x2="383.449" xlink:href="#lg3" y1="188.281" y2="366.819"/><linearGradient id="SVGID_8_" gradientUnits="userSpaceOnUse" x1="330.906" x2="128.485" xlink:href="#lg3" y1="283.879" y2="81.458"/><g><path d="m493.334 281.103v-85.537c0-12.075-9.788-21.863-21.863-21.863h-6.752c-8.909 0-16.859-5.434-20.266-13.666-.038-.091-.075-.182-.113-.272-3.423-8.238-1.652-17.715 4.656-24.023l4.774-4.774c8.538-8.538 8.538-22.381 0-30.919l-60.484-60.484c-8.538-8.538-22.381-8.538-30.919 0l-4.774 4.774c-6.308 6.308-15.785 8.079-24.023 4.656-.091-.038-.182-.075-.272-.113-8.232-3.407-13.666-11.357-13.666-20.266v-6.752c0-12.076-9.789-21.864-21.864-21.864h-85.537c-12.075 0-21.863 9.788-21.863 21.863v6.752c0 8.909-5.434 16.859-13.666 20.266-.091.038-.182.075-.272.113-8.238 3.423-17.715 1.652-24.023-4.656l-4.774-4.774c-8.538-8.538-22.381-8.538-30.919 0l-60.484 60.484c-8.538 8.538-8.538 22.381 0 30.919l4.774 4.774c6.308 6.308 8.079 15.785 4.656 24.023-.038.091-.075.182-.113.272-3.407 8.232-11.357 13.666-20.266 13.666h-6.752c-12.075 0-21.863 9.788-21.863 21.863v85.537c0 12.075 9.788 21.863 21.863 21.863h6.752c8.909 0 16.859 5.434 20.266 13.666.038.091.075.182.113.272 3.423 8.238 1.652 17.715-4.656 24.023l-4.774 4.774c-8.538 8.538-8.538 22.381 0 30.919l60.484 60.484c8.538 8.538 22.381 8.538 30.919 0l4.774-4.774c6.308-6.308 15.785-8.079 24.023-4.656.091.038.182.075.272.113 8.232 3.407 13.666 11.357 13.666 20.266v6.752c0 12.075 9.788 21.863 21.863 21.863h85.537c12.075 0 21.863-9.788 21.863-21.863v-6.752c0-8.909 5.434-16.859 13.666-20.266.091-.038.182-.075.272-.113 8.238-3.423 17.715-1.652 24.023 4.656l4.774 4.774c8.538 8.538 22.381 8.538 30.919 0l60.484-60.484c8.538-8.538 8.538-22.381 0-30.919l-4.774-4.774c-6.308-6.308-8.079-15.785-4.656-24.023.038-.091.075-.182.113-.272 3.407-8.232 11.357-13.666 20.266-13.666h6.752c12.076.001 21.864-9.788 21.864-21.862z" fill="url(#SVGID_1_)"/><circle cx="255" cy="238.334" fill="url(#SVGID_2_)" r="165.931"/><path d="m493.214 283.339c-1.119 11.026-10.43 19.624-21.744 19.624h-6.754c-8.906 0-16.854 5.433-20.263 13.669-.043.096-.075.181-.117.277-3.42 8.235-1.651 17.706 4.656 24.024l4.783 4.773c8.534 8.534 8.534 22.372 0 30.917l-60.491 60.48c-8.534 8.544-22.383 8.544-30.917 0l-4.773-4.773c-6.307-6.307-15.789-8.075-24.024-4.656-.096.043-.181.075-.277.117-8.225 3.398-13.658 11.357-13.658 20.263v6.754c0 11.357-8.661 20.689-19.741 21.755l-137.868-137.932c-26.858-24.897-41.549-60.47-41.623-100.048-.085-45.97 20.391-84.536 55.122-109.391 4.304-3.079 9.769-4.027 12.72-.469.98 1.193 118.713 118.723 120.044 120.002 7.106-5.774 11.346-14.489 11.346-23.811v-90.257c0-7.585 8.587-12.06 14.766-7.649 7.649 5.476 14.713 11.708 21.073 18.601z" fill="url(#SVGID_3_)"/><path d="m453.769 345.701-4.774-4.774c-6.308-6.308-8.079-15.785-4.656-24.023.038-.091.075-.182.113-.272 3.407-8.232 11.357-13.666 20.266-13.666h6.752c11.314 0 20.621-8.595 21.748-19.612l-137.744-137.745c-2.919-3.164-5.977-6.179-9.183-9.034 21.637 24.184 34.784 56.112 34.784 91.109 0 52.128-29.18 97.448-72.093 120.513v125.351c6.372-3.82 10.65-10.773 10.65-18.743v-6.752c0-8.909 5.434-16.859 13.666-20.266.091-.038.182-.075.272-.113 8.238-3.423 17.715-1.652 24.023 4.656l4.774 4.774c8.538 8.538 22.381 8.538 30.919 0l60.484-60.484c8.538-8.538 8.538-22.381-.001-30.919z" fill="url(#SVGID_4_)"/><path d="m316.68 486.109c2.909-16.283 4.372-32.781 4.372-49.311v-112.88h-132.104v112.881c0 16.53 1.463 33.028 4.372 49.311 2.467 13.812 14.724 23.89 29.054 23.89h65.252c14.33 0 26.587-10.078 29.054-23.891z" fill="url(#SVGID_5_)"/><path d="m188.948 358.888 128.054 125.3c2.686-15.659 4.05-31.509 4.05-47.389v-112.881h-132.104z" fill="url(#SVGID_6_)"/><path d="m391.728 238.334c0 75.512-61.215 136.727-136.726 136.728-75.512.001-136.594-60.966-136.729-136.478-.082-45.972 22.523-86.672 57.254-111.52 6.207-4.44 14.839-.03 14.839 7.601v90.246c0 10.976 5.855 21.118 15.36 26.606l33.913 19.581c9.506 5.489 21.218 5.489 30.724 0l33.913-19.581c9.505-5.488 15.36-15.63 15.36-26.606v-90.249c0-7.592 8.589-12.063 14.767-7.65 34.708 24.798 57.325 65.421 57.325 111.322z" fill="url(#SVGID_7_)"/><path d="m153.815 249.851c0 17.182 9.166 33.059 24.046 41.651l53.09 30.653c14.881 8.592 33.216 8.592 48.097 0l53.09-30.653c14.88-8.591 24.046-24.468 24.046-41.651v-103.458c-6.547-7.201-13.844-13.709-21.783-19.38-6.177-4.414-14.767.058-14.767 7.65v90.249c0 10.976-5.855 21.118-15.36 26.606l-33.913 19.581c-9.506 5.489-21.218 5.489-30.724 0l-33.913-19.581c-9.505-5.488-15.36-15.63-15.36-26.606v-90.246c0-7.632-8.632-12.042-14.839-7.601-7.91 5.659-15.183 12.149-21.711 19.328v103.458z" fill="url(#SVGID_8_)"/></g></svg>