<svg height="512" viewBox="0 0 512 512" width="512" xmlns="http://www.w3.org/2000/svg"><g id="flat"><g fill="#ea9d2d"><path d="m296 341.859 147.7 73.853a60 60 0 0 1 32.612 45.488l3.688 26.8h-448l3.688-26.8a60 60 0 0 1 32.612-45.488l147.7-73.853z"/><path d="m68.29 415.71 11.71-5.85v78.14h-48l3.69-26.8a60.034 60.034 0 0 1 32.6-45.49z"/><path d="m480 488h-48v-78.14l11.71 5.85a60.034 60.034 0 0 1 32.6 45.49z"/><path d="m358.2 372.96-102.2 83.04-102.2-83.04 34.42-17.21 27.78-13.89h80l32.42 16.21z"/></g><path d="m312 349.859-16-8v-32h-80v32l-16 8 56 24z" fill="#f6bb92"/><path d="m296 309.86v11.64c-.08.06-.17.11-.25.17a70.9 70.9 0 0 1 -79.75-.17v-11.64z" fill="#f6bb92"/><path d="m296 309.86v11.64c-.08.06-.17.11-.25.17a70.9 70.9 0 0 1 -79.75-.17v-11.64z" fill="#e6af89"/><path d="m80 409.86v78.14h-48l3.69-26.8a60.034 60.034 0 0 1 32.6-45.49z" fill="#cbcbcb"/><path d="m480 488h-48v-78.14l11.71 5.85a60.034 60.034 0 0 1 32.6 45.49z" fill="#cbcbcb"/><path d="m256 325.859a70.9 70.9 0 0 1 -65.827-44.566 198.16 198.16 0 0 1 -14.173-73.593v-63.7a80 80 0 0 1 80-80 80 80 0 0 1 80 80v63.7a198.16 198.16 0 0 1 -14.173 73.6 70.9 70.9 0 0 1 -65.827 44.559z" fill="#f6bb92"/><path d="m304 184h-24a8 8 0 0 1 0-16h24a8 8 0 0 1 0 16z" fill="#683b0d"/><circle cx="290" cy="199.859" fill="#683b0d" r="10"/><path d="m232 184h-24a8 8 0 0 1 0-16h24a8 8 0 0 1 0 16z" fill="#683b0d"/><circle cx="222" cy="199.859" fill="#683b0d" r="10"/><path d="m264 248h-16a8 8 0 0 1 -8-8v-13.859a8 8 0 1 1 16 0v5.859h8a8 8 0 0 1 0 16z" fill="#e6af89"/><path d="m179 173.859h-14.056a20.944 20.944 0 0 0 -20.944 20.941v14.111a20.948 20.948 0 0 0 2.211 9.367 20.945 20.945 0 0 0 18.733 11.577h15.056z" fill="#f6bb92"/><path d="m333 173.859h14.056a20.944 20.944 0 0 1 20.944 20.941v14.111a20.948 20.948 0 0 1 -2.211 9.367 20.945 20.945 0 0 1 -18.733 11.577h-15.056z" fill="#f6bb92"/><path d="m248 240h16a32 32 0 0 1 32 32 0 0 0 0 1 0 0h-80a0 0 0 0 1 0 0 32 32 0 0 1 32-32z" fill="#683b0d"/><path d="m336 184-1-4.017a74.61 74.61 0 0 0 -31-43.983l-.2.079a224.666 224.666 0 0 1 -82.67 16.068l-34.175.117a43.2 43.2 0 0 1 -38.778-23.83l-.778-1.55a42.472 42.472 0 0 1 3.492-43.855l.574-.8a82.325 82.325 0 0 1 66.875-34.247c9.23.006 18.882.01 27.737.012a81.947 81.947 0 0 1 57.923 24.006l3.238-.009a33.435 33.435 0 0 1 30 18.482l.3.611a87.214 87.214 0 0 1 6.635 60.248c-4.059 16.211-8.173 32.668-8.173 32.668z" fill="#683b0d"/><path d="m224 392 32 24 32-24-32-18.141z" fill="#cbcbcb"/><path d="m358.2 372.96-102.2 83.04-102.2-83.04 34.42-17.21 67.78 60.25 72.42-57.93z" fill="#c38325"/><path d="m208 336 48 37.859-64 50.141-8-66.141z" fill="#eaeae8"/><path d="m304 336-48 37.859 64 50.141 8-66.141z" fill="#eaeae8"/></g></svg>