<svg id="Capa_1" enable-background="new 0 0 512 512" height="512" viewBox="0 0 512 512" width="512" xmlns="http://www.w3.org/2000/svg"><g><g><g><g><path d="m383.035 350.532h-373.029c-5.526 0-10.006-4.479-10.006-10.005v-199.57l5.003-14.352h383.035l5.003 14.352v199.569c0 5.527-4.48 10.006-10.006 10.006z" fill="#d3effb"/></g><g><path d="m388.038 126.606h-32.621v176.297c0 5.526-4.48 10.006-10.006 10.006h-345.411v27.618c0 5.526 4.48 10.006 10.006 10.006h373.03c5.526 0 10.006-4.48 10.006-10.006v-199.57z" fill="#b1e4f9"/></g><g><path d="m393.041 140.957h-393.041v-89.055c0-5.523 4.477-10 10-10h373.041c5.523 0 10 4.477 10 10z" fill="#5766cb"/></g><g><path d="m383.035 41.902h-27.618v99.055h37.624v-89.05c0-5.525-4.48-10.005-10.006-10.005z" fill="#3d4fc3"/></g><g><circle cx="47.964" cy="91.148" fill="#dd636e" r="14.633"/></g><g><circle cx="92.465" cy="91.148" fill="#ffd064" r="14.633"/></g><g><circle cx="136.965" cy="91.148" fill="#b1e4f9" r="14.633"/></g></g><g><path d="m119.087 274.315h-71.412c-7.922 0-14.344-6.422-14.344-14.344v-71.412c0-7.922 6.422-14.344 14.344-14.344h70.756c8.284 0 15 6.716 15 15v70.756c0 7.922-6.422 14.344-14.344 14.344z" fill="#90d8f9"/></g><g><g><path d="m224.117 186.785h-55.193c-4.144 0-7.504-3.36-7.504-7.504s3.36-7.504 7.504-7.504h55.193c4.144 0 7.504 3.36 7.504 7.504s-3.36 7.504-7.504 7.504z" fill="#90d8f9"/></g><g><path d="m224.117 221.491h-55.193c-4.144 0-7.504-3.36-7.504-7.504s3.36-7.504 7.504-7.504h55.193c4.144 0 7.504 3.36 7.504 7.504s-3.36 7.504-7.504 7.504z" fill="#90d8f9"/></g></g></g><g><g><path d="m427.176 209.536 2.205-5.155c1.343-3.14-1.61-6.411-4.871-5.395l-45.007 14.028c-2.35.732-3.488 3.393-2.395 5.598l20.933 42.24c1.516 3.06 5.922 2.937 7.266-.203l2.453-5.734c.422-.986 1.552-1.478 2.552-1.09 24.178 9.383 44.031 29.27 52.33 55.897 13.866 44.486-9.465 91.836-52.323 108.381-3.105 1.199-4.733 4.615-3.743 7.793l9.733 31.227c1.086 3.483 4.87 5.319 8.295 4.062 66.242-24.321 102.563-96.856 81.336-164.959-12.388-39.744-41.766-69.585-77.664-84.05-1.041-.42-1.543-1.605-1.1-2.64z" fill="#78d090"/></g><g><path d="m332.47 210.689c-66.243 24.321-102.564 96.857-81.337 164.959 12.086 38.777 40.349 68.121 75.058 82.961 1.019.436 1.5 1.605 1.064 2.624l-1.404 3.281c-1.343 3.14 1.61 6.411 4.871 5.395l45.007-14.028c2.35-.732 3.488-3.393 2.395-5.598l-20.933-42.24c-1.517-3.06-5.922-2.937-7.266.203l-3.266 7.634c-.432 1.009-1.601 1.495-2.611 1.065-22.943-9.787-41.628-29.169-49.615-54.793-13.866-44.486 9.465-91.836 52.323-108.381 3.105-1.199 4.733-4.615 3.743-7.793l-9.733-31.227c-1.087-3.483-4.871-5.32-8.296-4.062z" fill="#78d090"/></g><g><path d="m428.278 212.176c-1.044-.42-1.545-1.606-1.103-2.64l2.205-5.155c1.343-3.14-1.61-6.411-4.871-5.395l-19.343 6.029c3.26-1.016 6.214 2.255 4.871 5.395l-2.205 5.155c-.443 1.035.059 2.22 1.103 2.64 35.897 14.465 65.276 44.306 77.664 84.05 19.637 63-9.979 129.789-66.968 158.698 1.5.717 3.281.854 4.975.232 66.242-24.321 102.563-96.857 81.336-164.959-12.388-39.744-41.767-69.585-77.664-84.05z" fill="#6ec186"/></g><g><g><path d="m357.19 408.043c-1.517-3.06-5.922-2.937-7.266.203l-3.266 7.634c-.432 1.009-1.601 1.495-2.611 1.065-22.943-9.787-41.628-29.169-49.615-54.793-9.482-30.421-1.562-62.175 18.094-84.508-31.328 21.219-46.572 61.229-34.746 99.171 7.987 25.624 26.672 45.006 49.615 54.793 1.009.431 2.179-.056 2.611-1.065l3.266-7.634c1.343-3.14 5.749-3.263 7.266-.203l18.95 38.237 16.241-5.062c2.35-.733 3.488-3.393 2.395-5.598z" fill="#6ec186"/></g></g></g></g></svg>