<?xml version="1.0" encoding="utf-8"?>
<!-- Generator: Adobe Illustrator 24.2.1, SVG Export Plug-In . SVG Version: 6.00 Build 0)  -->
<svg version="1.1" id="Слой_1" xmlns="http://www.w3.org/2000/svg" xmlns:xlink="http://www.w3.org/1999/xlink" x="0px" y="0px"
	 viewBox="0 0 2964.3 1625.6" style="enable-background:new 0 0 2964.3 1625.6;" xml:space="preserve">
<style type="text/css">
	.st0{opacity:0.15;fill-rule:evenodd;clip-rule:evenodd;fill:#FFFFFF;}
	.st1{opacity:0.8;fill-rule:evenodd;clip-rule:evenodd;fill:#FFFFFF;}
	.st2{fill-rule:evenodd;clip-rule:evenodd;fill:#93D2FF;}
	.st3{fill-rule:evenodd;clip-rule:evenodd;fill:#FFFFFF;}
	.st4{fill-rule:evenodd;clip-rule:evenodd;fill:#5DBCFF;}
	.st5{fill-rule:evenodd;clip-rule:evenodd;fill:#FFC7C0;}
	.st6{fill-rule:evenodd;clip-rule:evenodd;fill:#EC8D81;}
	.st7{fill-rule:evenodd;clip-rule:evenodd;fill:#FFE4E0;}
	.st8{fill-rule:evenodd;clip-rule:evenodd;fill:#331F5C;}
	.st9{fill-rule:evenodd;clip-rule:evenodd;fill:#CCCCCC;}
	.st10{clip-path:url(#SVGID_2_);}
	
		.st11{fill-rule:evenodd;clip-rule:evenodd;fill:none;stroke:#FFFFFF;stroke-width:9.0255;stroke-linecap:round;stroke-linejoin:round;stroke-miterlimit:22.9256;}
	.st12{clip-path:url(#SVGID_4_);fill-rule:evenodd;clip-rule:evenodd;fill:#E6E6E6;}
	.st13{clip-path:url(#SVGID_6_);}
	.st14{fill-rule:evenodd;clip-rule:evenodd;fill:#281849;}
	.st15{fill-rule:evenodd;clip-rule:evenodd;fill:#FA6062;}
	.st16{fill-rule:evenodd;clip-rule:evenodd;fill:#FFDB4F;}
	.st17{fill-rule:evenodd;clip-rule:evenodd;fill:#FECE6C;}
	.st18{fill-rule:evenodd;clip-rule:evenodd;fill:#FFD787;}
	.st19{fill-rule:evenodd;clip-rule:evenodd;fill:#FFB642;}
	.st20{fill-rule:evenodd;clip-rule:evenodd;fill:#E6E6E6;}
	.st21{fill-rule:evenodd;clip-rule:evenodd;fill:#8983FF;}
	.st22{fill-rule:evenodd;clip-rule:evenodd;fill:#201140;}
	.st23{fill-rule:evenodd;clip-rule:evenodd;fill:#452B78;}
	.st24{fill-rule:evenodd;clip-rule:evenodd;fill:#FACE6D;}
	.st25{fill-rule:evenodd;clip-rule:evenodd;fill:#29183F;}
	.st26{fill-rule:evenodd;clip-rule:evenodd;fill:#382157;}
	
		.st27{fill-rule:evenodd;clip-rule:evenodd;fill:none;stroke:#EC8D81;stroke-width:3.6091;stroke-linecap:round;stroke-linejoin:round;stroke-miterlimit:22.9256;}
	
		.st28{fill-rule:evenodd;clip-rule:evenodd;fill:none;stroke:#29183F;stroke-width:3.6091;stroke-linecap:round;stroke-miterlimit:22.9256;}
	.st29{clip-path:url(#SVGID_8_);}
	.st30{fill:#E95F63;}
	.st31{fill:#FDFDFD;}
	.st32{fill:#FDD950;}
	.st33{fill:#32334F;}
	.st34{fill:#28293D;}
	.st35{fill:#ECF4FB;}
	.st36{fill:#D9EAF8;}
	.st37{fill:#E2EFF9;}
	.st38{fill:#F9FBFD;}
	.st39{fill:#C9E1F4;}
	.st40{fill:#D1E6F6;}
	.st41{fill:#B7D8F1;}
	.st42{fill:#C0DDF3;}
	.st43{fill:#A6D0EF;}
	.st44{fill:#9BCBED;}
	.st45{fill:#82C0E9;}
	.st46{fill:#F3F8FC;}
	.st47{fill:#AFD4F0;}
	.st48{fill:#8FC6EB;}
	.st49{fill:#75BBE7;}
</style>
<g>
	<g>
		<path class="st0" d="M2091.7-56.4h902.8v270.1c-90.6,127.8-238.1,211-404.7,211C2323,424.7,2105.2,211.6,2091.7-56.4z"/>
		<path class="st1" d="M2286-56.4h607.4c-13.3,158.9-144.2,283.7-303.7,283.7C2430.1,227.3,2299.2,102.5,2286-56.4z"/>
	</g>
	<g>
		<g>
			<path class="st2" d="M2994.4,420.7v1255.2H688.2c95.7-50.5,230.5-105.9,386.6-125.2c0,0,170.2-336.8,605-279.1
				c0,0,0-269.5,179.6-298.3c0,0,47.3-125.1,160.7-48.1c0,0,73-126,249.2-63c-38-233.8,157.3-206.4,299.1-139.1
				c0,0,47.3-77,113.4-48.1C2681.9,674.9,2666.2,402.2,2994.4,420.7z"/>
			<path class="st3" d="M2994.4,420.7v51.9c-291.9,4.2-265.2,221.6-265.2,221.6c-128.3-9.8-141.8,77-141.8,77
				c-175.2-75.7-270.4-42.1-319.9,0.2c23.2-133.6,181.2-105.2,301-48.3c0,0,47.3-77,113.4-48.1
				C2681.9,674.9,2666.2,402.2,2994.4,420.7L2994.4,420.7z M1074.8,1550.7c0,0,170.2-336.8,605-279.1c0,0,0-269.5,179.6-298.3
				c0,0,37.9-100.3,127.2-66c-98.9,11.6-98.9,94.9-98.9,94.9c-210,57.7-170.2,317.6-170.2,317.6
				C1263.9,1281.2,1074.8,1550.7,1074.8,1550.7L1074.8,1550.7z M2035.8,904.8c24.2-26.7,77.6-68.9,166.6-58.8
				C2174.8,862.5,2114.1,898.2,2035.8,904.8z"/>
		</g>
		<g>
			<path class="st4" d="M2994.4,682.2v993.7h-481h-907c0,0,92.2-201.9,338-134.8c0,0,28.4-134.7,170.2-77
				c-41.3-263.5,364-360.9,463.2-259.8c0,0,0-182.9,179.6-182.9c0,0-37.8-48.1,18.9-86.6C2776.5,934.8,2669.9,682.2,2994.4,682.2z"
				/>
			<path class="st3" d="M2994.4,682.2v42.5c-283.1,1.7-199.1,210-199.1,210c-56.7,57.7,9.5,115.5,9.5,115.5
				c-208,0-179.6,221.3-179.6,221.3s-47.3-48.1-263.5-27.4c-216.2,20.7-209.2,248.8-209.2,248.8c-170.2-38.5-160.7,96.2-160.7,96.2
				c-244.6-82.4-345.5,28.9-355,40.2c44.4-55.1,140.5-133.9,307.8-88.3c0,0,28.4-134.7,170.2-77c-41.3-263.5,364-360.9,463.2-259.8
				c0,0,0-182.9,179.6-182.9c0,0-37.8-48.1,18.9-86.6C2776.5,934.8,2669.9,682.2,2994.4,682.2z"/>
		</g>
	</g>
	<g>
		<path class="st3" d="M2399.1,1194.6c-50.6,40.9-63.5,115-27.8,171.5c20.1,32,51.7,51.9,85.8,57.9
			C2354.9,1380.6,2337.9,1261.2,2399.1,1194.6z"/>
		<path class="st3" d="M1951.3,463.9c-119.1,25.8-206.8,106.6-227.1,224.4c-20.3,117.8,50,238.5,167.1,295.1
			C1650.1,827.7,1713.4,554.9,1951.3,463.9z"/>
		<path class="st3" d="M1608.8,376.6c-46.8,25.1-72.1,69.7-56.9,103.4c8.5,19,28.3,30.7,52.8,33.9
			C1536.5,488.8,1548.6,417.2,1608.8,376.6z"/>
	</g>
	<g>
		<g>
			<g>
				<path class="st5" d="M1683.5,573.8c0,0-125.2-139-153.3-165.3c0,0-34.1-4.4-37.9-20.3c-3.7-15.9,11.4-11.2,11.4-11.2
					s-12.8-6.4-14.6-15.7c-1.7-9.3,10.4-12.6,10.4-12.6s-6.9-7-3.6-14.9c3.3-8,13.8-6,13.8-6s-5.3-10.6,3.3-17.2
					c8.6-6.6,32.7,13.3,32.7,13.3s15.6-19,29.4-3.4c10.1,11.4,16.4,43.9,16.4,43.9l146.8,127.1
					C1684.1,532.1,1683.5,573.8,1683.5,573.8z"/>
				<path class="st6" d="M1683.5,573.8l-7.8-8.6c7.2-20.6,23.9-51,62.6-73.7C1684.1,532.1,1683.5,573.8,1683.5,573.8z"/>
			</g>
			<g>
				<path class="st6" d="M1582.9,334.3c5.5,13.6,8.7,30.1,8.7,30.1c-20.5,11.2-28.5-2.3-28.5-2.3s-4.7,2.8-17.1,2.6
					c-12.4-0.2-17.1-9.9-17.1-9.9l6.8-2.5c0,0,17.4-22.1,18.5-22.3c1.1-0.2,23.6,0.9,23.6,0.9L1582.9,334.3z"/>
				<path class="st5" d="M1553.3,317.5c5.8-3.6,14.2-5.8,21.9,3c10.1,11.4,16.4,43.9,16.4,43.9c-16.2,5.5-25.5-2-31-20
					c0,0,0,0-7.5,8.5c-7.5,8.5-24.8,7.8-24.2,2c0.6-5.8,16.9-30.8,16.9-30.8L1553.3,317.5z"/>
				<path class="st7" d="M1529.1,353.7c1.1-4.1,6.3-13.2,10.6-20.2c0,0,4.8,13.6,1,17.7C1538.7,353.4,1533.5,353.8,1529.1,353.7z"/>
			</g>
		</g>
		<g>
			<g>
				<g>
					<path class="st8" d="M2047.5,1033c41.4,52.8,97.8,136.5,151.7,173.5C2285,1265.6,2521,1377,2521,1377
						c15.5-15.3,18.6-37.6,18.9-51.2c-0.3-0.3-0.4-0.4-0.4-0.4l-18.5-13c-1.1,1.4-2.3,2.8-3.5,4.2c0,0-217.3-109-261.3-140.2
						c-38.6-27.4-80.3-109.2-115.8-181.4l-1,0.8l-1.6,1.3l-0.9,0.7c-0.6,0.5-1.3,1-1.9,1.4l-0.6,0.4c-0.8,0.5-1.5,1.1-2.3,1.6
						l-0.4,0.3c-0.8,0.5-1.5,1-2.3,1.6l-0.2,0.2l-0.1,0.1c-0.8,0.5-1.7,1.1-2.6,1.6l-0.2,0.1l-0.2,0.1c-0.9,0.5-1.7,1-2.6,1.6
						l-0.1,0.1l-0.1,0.1c-0.9,0.5-1.9,1.1-2.9,1.6l-0.1,0c-1,0.5-2.1,1.1-3.1,1.6l-1.3,0.6C2094.4,1021,2068.7,1029.4,2047.5,1033z"
						/>
					<path class="st9" d="M2242.3,1233.6C2345.7,1294.3,2521,1377,2521,1377c15.5-15.3,18.6-37.6,18.9-51.2
						c-0.3-0.3-0.4-0.4-0.4-0.4l-18.5-13c-1.1,1.4-2.3,2.8-3.5,4.2c0,0-217.3-109-261.3-140.2c-38.6-27.4-80.3-109.2-115.8-181.4
						C2140.3,995,2180.9,1176.3,2242.3,1233.6z"/>
					<path class="st8" d="M2346,1094.6c47.2,48.7,192.3,142.5,195.9,153.8c4,12.6,15.5,40.8-13.8,75.3c0,0-230.7-118.1-272-147.4
						c-41.3-29.3-80.3-109.2-115.8-181.4c44.7-36.4,63.2-98.6,105.7-115.3c1-0.2,2-0.4,2.9-0.6h0c15.4,23.6,26.5,54.5,37,86.2
						C2296.5,997,2346,1094.6,2346,1094.6z"/>
					<g>
						<defs>
							<path id="SVGID_1_" d="M2346,1094.6c47.2,48.7,192.3,142.5,195.9,153.8c4,12.6,15.5,40.8-13.8,75.3
								c0,0-230.7-118.1-272-147.4c-41.3-29.3-80.3-109.2-115.8-181.4c44.7-36.4,63.2-98.6,105.7-115.3c1-0.2,2-0.4,2.9-0.6h0
								c15.4,23.6,26.5,54.5,37,86.2C2296.5,997,2346,1094.6,2346,1094.6z"/>
						</defs>
						<clipPath id="SVGID_2_">
							<use xlink:href="#SVGID_1_"  style="overflow:visible;"/>
						</clipPath>
						<g class="st10">
							<path class="st11" d="M2209.2,915.5c0,0,8,54.6,60.7,41.7"/>
						</g>
					</g>
				</g>
				<g>
					<defs>
						<path id="SVGID_3_" d="M2346,1094.6c27.1,28,86.6,70.9,133,104.5c0,0-118.5-42.9-137.4-52.6c-18.9-9.6-68.1-158.8-68.1-158.8
							l22,1.6C2313.5,1030.4,2346,1094.6,2346,1094.6z"/>
					</defs>
					<clipPath id="SVGID_4_">
						<use xlink:href="#SVGID_3_"  style="overflow:visible;"/>
					</clipPath>
					<rect x="2273.5" y="987.7" class="st12" width="205.5" height="211.4"/>
				</g>
				<g>
					<defs>
						<path id="SVGID_5_" d="M2346,1094.6c27.1,28,86.6,70.9,133,104.5c0,0-118.5-42.9-137.4-52.6c-18.9-9.6-68.1-158.8-68.1-158.8
							l22,1.6C2313.5,1030.4,2346,1094.6,2346,1094.6z"/>
					</defs>
					<clipPath id="SVGID_6_">
						<use xlink:href="#SVGID_5_"  style="overflow:visible;"/>
					</clipPath>
					<g class="st13">
						<path class="st11" d="M2209.2,915.5c0,0,8,54.6,60.7,41.7"/>
					</g>
				</g>
			</g>
			<path class="st6" d="M2525.8,1371.6l13.8,7.6l10.7,5.9c7.3,3.5,14,3.2,18.9-2.4c-1.3-2.2-2.7-4.4-4-6.7
				c-6.4-10.7-14.7-24.4-20.5-34c-2.3-3.9-4.1-8.8-4.9-13.1C2539.2,1340.9,2536.2,1358,2525.8,1371.6L2525.8,1371.6z M2540.6,1326.5
				c-0.2-0.5-0.4-0.9-0.6-1.4c-0.1,0-0.1-0.1-0.2-0.1l0,0.8C2540.1,1326,2540.3,1326.2,2540.6,1326.5z"/>
			<g>
				<path class="st5" d="M2531.4,1319.7l8,5.7c0,0,23.6,23.1,37,17c14.1-6.4,14.3-51.5-1.7-63.6l-6.2-4.5l-23.8-17
					C2548.6,1271.3,2551.6,1293.5,2531.4,1319.7z"/>
				<path class="st6" d="M2531.4,1319.7l8,5.7c0,0,4.5,4.4,10.7,8.9c0.6,0.4,1.1,0.7,1.4,1c8.5-11.5,7.2-40.5-6.9-78
					C2548.6,1271.3,2551.6,1293.5,2531.4,1319.7z"/>
			</g>
			<g>
				<path class="st14" d="M2607.6,1476.4c-10-12.1-39.9-56.2-52.8-75.5c-3.6-5.4-5.8-11.1-6.7-17.1l2.2,1.2c7.3,3.5,14,3.2,18.9-2.4
					l-0.2-0.3c7,11.6,13.4,22.1,19.3,31.1c0.9,1.3,1.8,2.6,2.7,3.8l0,0c0.4,0.6,0.9,1.2,1.3,1.7l0,0c0.4,0.6,0.9,1.1,1.3,1.6
					l0.1,0.1c0.4,0.5,0.9,1,1.3,1.5l0.1,0.1c0.4,0.5,0.8,0.9,1.3,1.4l0.2,0.2c0.4,0.4,0.8,0.8,1.2,1.2l0.3,0.2
					c0.4,0.4,0.7,0.7,1.1,1l0.4,0.3c0.3,0.3,0.7,0.6,1,0.9l0.4,0.4c0.3,0.3,0.6,0.5,0.9,0.8c0.2,0.2,0.4,0.3,0.6,0.5h0l0,0
					c0.3,0.2,0.5,0.5,0.8,0.7l0.2,0.2c0.3,0.2,0.5,0.5,0.8,0.7l0.1,0.1c0.3,0.2,0.5,0.4,0.8,0.6l0.2,0.2c0.3,0.2,0.6,0.4,0.8,0.6
					l0.2,0.1c0.2,0.2,0.5,0.3,0.7,0.5l0.2,0.2c0.3,0.2,0.6,0.4,0.9,0.5l0.3,0.2c0.2,0.1,0.5,0.3,0.7,0.4l0.2,0.1
					c0.3,0.2,0.6,0.3,0.9,0.5l0.3,0.2c0.3,0.1,0.5,0.3,0.8,0.4l0.2,0.1c0.3,0.1,0.6,0.3,0.9,0.4l0.3,0.1c0.3,0.1,0.5,0.2,0.8,0.3
					l0.3,0.1c0.3,0.1,0.6,0.2,0.8,0.3l0.4,0.1c0.3,0.1,0.6,0.2,0.8,0.3l0.4,0.1c0.2,0.1,0.5,0.1,0.7,0.2l0.4,0.1
					c0.3,0.1,0.6,0.2,0.9,0.3c0.1,0,0.3,0.1,0.4,0.1l0.6,0.1l0.5,0.1c0.3,0.1,0.6,0.1,0.9,0.2l0.5,0.1l0.5,0.1
					c0.3,0,0.5,0.1,0.8,0.1l0.6,0.1l0.5,0.1l0.4,0c0.4,0,0.7,0.1,1.1,0.1l0.2,0c0.2,0,0.4,0,0.7,0l0.3,0c0.4,0,0.8,0,1.2,0h0.2
					c0.2,0,0.5,0,0.7,0h0c0.5,0,0.9,0,1.4-0.1l0.2,0c0.8-0.1,1.5-0.1,2.2-0.2l0,0c0.8-0.1,1.5-0.2,2.2-0.4l0,0
					c5-1.1,9.6-3.4,13.2-7.2c2.1,6,4.7,13.9,6.8,20.2C2668,1492.2,2623.9,1496.1,2607.6,1476.4z"/>
				<path class="st3" d="M2640.3,1436.2c2.8-1.3,5.3-3,7.5-5.3c2.1,6,4.7,13.9,6.8,20.2c11.3,34.6-18.3,42.8-37.6,32.8
					c7.2,2.1,13.7,1.9,19,0c6.4-2.3,11-7.2,13-13.5C2651.9,1460.7,2640.3,1436.2,2640.3,1436.2z"/>
			</g>
			<g>
				<path class="st8" d="M2568.5,1274.3c0,0,25.6-2.1,37.7,18.6c5.9,10.6,8.4,26,14.5,39.1c10.4,22.2,23.8,43.2,27.6,63.2
					c8.1,42.2-31.9,60.6-60,18.3c-7-10.6-14.7-23.3-23.2-37.5c-6.4-10.7-14.7-24.4-20.5-34c-3-5-5.1-11.7-5.2-16.6
					c0,0,23.6,23.1,37,17c14.1-6.4,14.3-51.5-1.7-63.6L2568.5,1274.3z"/>
				<path class="st3" d="M2602.4,1429.2c18.9,17.7,59.9,13.5,52.6-31.1c-4.2-25.5-21.8-54.7-29.1-75.1c-7.3-20.3-9.1-47.5-48-48.2
					l0,0c8.5,1.3,20.9,5.5,28.2,18.1c5.9,10.6,8.4,26,14.5,39.1c10.4,22.2,23.8,43.2,27.6,63.2
					C2655.1,1430.6,2628,1449.2,2602.4,1429.2L2602.4,1429.2z"/>
			</g>
			<g>
				<path class="st15" d="M2611.3,1305.2c-0.1-0.4-0.3-0.8-0.4-1.1C2611.1,1304.4,2611.2,1304.8,2611.3,1305.2L2611.3,1305.2z
					 M2638.6,1351.8c5.2,11.6,22.2,16,72.3,22.1c0,0-38.9-64.1-92.1-72.5c2.8,7.1,4.7,14.7,7.1,21.6
					C2628.9,1331.4,2633.7,1341.3,2638.6,1351.8z"/>
				<path class="st16" d="M2621.5,1309.1c9.7,2.9,35,12.8,58,42.4c0,0-20.9,10.7-45.1-8.9c-3.3-7.1-6.3-13.7-8.4-19.6
					C2624.3,1318.6,2623,1313.8,2621.5,1309.1L2621.5,1309.1z M2617.8,1325.1L2617.8,1325.1L2617.8,1325.1L2617.8,1325.1
					L2617.8,1325.1z M2616.1,1320.3c0.2,0.4,0.3,0.9,0.4,1.3C2616.4,1321.1,2616.3,1320.7,2616.1,1320.3z"/>
				<path class="st3" d="M2631.9,1337.4c-2.3-5.1-4.4-10-6-14.4c-0.6-1.8-1.2-3.6-1.8-5.5c7.1,3.4,16.4,9.3,27.5,19.5
					C2651.6,1337,2642.9,1338.1,2631.9,1337.4L2631.9,1337.4z M2617.8,1325L2617.8,1325L2617.8,1325L2617.8,1325L2617.8,1325z
					 M2616.1,1320.3c0.1,0.4,0.3,0.9,0.4,1.3C2616.4,1321.1,2616.3,1320.7,2616.1,1320.3z"/>
			</g>
			<g>
				<path class="st15" d="M2652.9,1388.3c8.4,3.7,19.8,6,37.6,26.5c17.8,20.5,63.6,85.7,63.6,85.7c-28.3-7.2-71.7-18.7-97.5-41.3
					c-0.4-2.5-1-5.2-2-8.1c-2-6.3-4.7-14.1-6.8-20.2c6.4-6.5,9.8-17.2,7.2-32.9C2654.5,1394.9,2653.8,1391.6,2652.9,1388.3z"/>
				<path class="st16" d="M2709,1466.5c-4.3-6-8.7-12-13.1-18c-9.2-12.6-19-26.1-29.2-37.9c-3.5-4-7.3-8-11.5-11.5
					c2.2,15.1-1.2,25.5-7.4,31.8c0.7,1.9,1.4,4,2.1,6.2C2665,1450.4,2687.9,1459.8,2709,1466.5z"/>
				<path class="st3" d="M2655.9,1408.4c-0.1,9.9-3,17.1-7.6,22c6.5,4.3,15.9,9.1,26.2,9.6C2674.5,1440,2668.7,1422,2655.9,1408.4z"
					/>
			</g>
			<g>
				<path class="st15" d="M2712.9,1488.7c-20.4-7-41.3-16.3-56.3-29.5c3,18.5-7.8,27.4-20.6,28.5c13.1,32.7,102.6,61.9,131,62.9
					C2767,1550.7,2726.5,1500.3,2712.9,1488.7L2712.9,1488.7z M2654.6,1451.1c0.1,0.4,0.2,0.7,0.3,1.1
					C2654.8,1451.9,2654.7,1451.5,2654.6,1451.1L2654.6,1451.1z M2654.9,1452.3c0.1,0.3,0.2,0.6,0.3,1
					C2655.1,1452.9,2655,1452.6,2654.9,1452.3z"/>
				<path class="st16" d="M2656.5,1459c2.4,14.6-3.7,23.2-12.6,26.9c9.1,6.8,18.7,12.7,25.2,16.3c12.2,6.8,25.2,13,38.3,17.7
					c1.1,0.4,2.5,0.9,3.9,1.4c0,0,0-0.1,0-0.1c-5-9-13.8-26.4-22.8-42.1c-11.9-5.5-23-12-32-19.9L2656.5,1459z"/>
				<path class="st3" d="M2656.5,1459c1.3,8.1,0,14.4-2.9,19c4,3.7,12.3,9.4,28.3,14.9c0,0-1.3-9.5-5.7-20.1
					c-7.2-4-13.9-8.6-19.7-13.6L2656.5,1459z"/>
			</g>
		</g>
		<g>
			<g>
				<path class="st17" d="M2276.8,975.2l131-142.9c3.7-4,10-4.3,13.9-0.5l63.1,60.1l33.2,31.6c4,3.8,4.2,10.1,0.5,14.2l-131,142.9
					c-3.7,4-10,4.3-13.9,0.5l-96.2-91.7C2273.3,985.6,2273.1,979.2,2276.8,975.2z"/>
				<path class="st18" d="M2404.9,835.4l2.8-3.1c3.7-4,10-4.3,13.9-0.5l63.1,60.1l33.2,31.6c4,3.8,4.2,10.1,0.5,14.2l-131,142.9
					c-3.7,4-10,4.3-13.9,0.5l-6.1-5.8c12.3-5.4,29.9-18.1,47.1-48c31.1-54,2.2-92.1,16.6-118.4
					C2441.5,889.9,2418.6,854.1,2404.9,835.4z"/>
				<path class="st19" d="M2275,978.1L2275,978.1c-1.6,3.8-0.8,8.4,2.3,11.3l88.3,83.9l-20.8,22.7c-3.7,4-11.3,5.3-13.9,0.5
					l-55.4-104.2C2272.9,987.4,2271.3,982.1,2275,978.1L2275,978.1z M2381.1,861.4L2381.1,861.4l0.1-0.1L2381.1,861.4z"/>
				<polygon class="st20" points="2277.3,989.4 2343.8,1101.1 2367.2,1075.1 				"/>
				<polygon class="st3" points="2279.5,991.5 2357.3,1100.1 2373.4,1080.9 				"/>
			</g>
			<path class="st21" d="M1923.8,579.6c0,0,116.5-27,172.8,7.5c56.3,34.5,120.7,104.7,120.7,104.7s6.4,49.4-44.5,69l-50-38.1
				c0,0,14.3,27.4,57.6,66.3c43.3,39,89.7,84.9,75.8,87.7c-57.4,11.5-72.4,100.5-139.2,133.4c-38.3,18.8-91,31.4-106.4,21
				c-9.3-6.3-20-64.2-56.9-116.2c-40.5-57-95.5-118.4-120.6-163c-48-85.4-149.7-178-149.7-178s0.6-41.7,54.8-82.3l51.4,46.4
				C1801.6,556.6,1900,586.9,1923.8,579.6z"/>
			<path class="st20" d="M1801.9,704.2c-13.6-18.3-28.3-36.2-42.6-52.4c3.6-30.3,15.8-52.1,19.1-74.2c3.3-21.8-0.7-41.7-4-53.6
				l15.3,13.8c4.6,7.3,22.4,16.4,43.8,24.4c2.8,12,5.1,22,5.1,22l-3.3,14c-1.2,0.1-2.3,0.2-3.5,0.3c-1,0.1-2.1,0-3.2-0.1
				C1805.3,617.5,1796,662.4,1801.9,704.2L1801.9,704.2z M1835.2,598.9c-1.5,3.8-2.8,8.6-3.5,14.5L1835.2,598.9z"/>
			<path class="st20" d="M2122.9,722.7c0.2,0.4,14.6,27.7,57.6,66.3c43.3,39,89.7,84.9,75.8,87.7c-51.3,10.2-68.7,82.4-119.5,121.1
				v0c31.6-33.3,54-63.2,25.1-111.1c-14.1-23.4-18.9-42.3-22.7-60.9c-65.5-12.8-103.4-60.8-103.4-60.8c-3.8,2.4-8.8,1.3-11.1-2.6
				l-21.6-34.8c-2.4-3.8-1.2-8.9,2.5-11.3l41-26.3c3.8-2.4,8.8-1.3,11.1,2.6l21.6,34.8c2.4,3.8,1.2,8.9-2.5,11.3l-23.8,15.3
				l77.4,33.2c-2.2-7.1-4.9-14.5-8.6-22.5c-21.1-45-54.5-89.7-54.5-89.7L2122.9,722.7L2122.9,722.7z"/>
			<path class="st3" d="M1913.6,572.8c0,0,10.7-4.6,22.1,18c11.4,22.6-0.3,65.6-10,86.6c0,0-19.1-35-40.1-29.4
				c0,0-19.2,14.6-13.4,40.7c5.8,26.1-36.4-22.3-40.3-56.4c-1.8-15.8,0.5-26.9,3.6-34.2c1.1-0.1,2.2-0.3,3.3-0.5l-0.2,0
				c2.3,26,10.4,57.8,39.7,52.9c29.3-4.9,39.3-69.3,39.3-69.3C1916.1,578.6,1914.8,575.8,1913.6,572.8z"/>
			<path class="st8" d="M1900.9,697.7c3.3-0.4,6.4,2,6.8,5.3c0.4,3.4-1.9,6.5-5.2,6.9c-3.3,0.4-6.4-2-6.8-5.3
				C1895.3,701.2,1897.6,698.1,1900.9,697.7z"/>
			<path class="st8" d="M1916.4,733.1c3.3-0.4,6.4,2,6.8,5.3c0.4,3.4-1.9,6.5-5.2,6.9c-3.3,0.4-6.4-2-6.8-5.3
				C1910.7,736.6,1913,733.5,1916.4,733.1z"/>
			<path class="st8" d="M1936.4,767.4c3.3-0.4,6.4,2,6.8,5.3c0.4,3.4-1.9,6.5-5.2,6.9c-3.3,0.4-6.4-2-6.8-5.3
				C1930.7,771,1933.1,767.9,1936.4,767.4z"/>
			<g>
				<path class="st8" d="M1910.4,564c8.1-7.7,21.4-16.9,42.9-25.3c22.8-8.9,42.2-13.5,61-13c22.7,0.7,44.5,8.9,70.3,26.2
					c30.9,20.9,110.8,113.5,162.6,174c27,31.5,46.9,53.7,47.1,54l-77-88.2c0,0-75.1-75.5-120.7-104.7
					c-40.8-26.1-146.9-11.5-168.8-8.1c-8-8.7-14.2-6.1-14.2-6.1C1912.4,569.9,1911.3,566.9,1910.4,564L1910.4,564z M2258.4,835
					c-45.8-44-85.5-74.2-85.5-74.2l-50-38.1c0,0,14.3,27.4,57.6,66.3c22.4,20.2,45.2,41,60.3,57.4
					C2247.3,843.4,2253.2,839.4,2258.4,835z"/>
				<path class="st22" d="M2069.5,576.7c-48.8-10.9-123.6-0.5-141.6,2.3c-3.4-3.7-6.5-5.4-8.9-6.1c11.8-5.8,29.8-11.9,55.9-15.7
					C2011.2,552,2047.5,565.7,2069.5,576.7z"/>
				<path class="st23" d="M2016.3,525.8c9.9-8.2,30-22.7,47.6-22.9c24.6-0.3,86.8,69.8,85.3,74.8c-1.6,5-7.7,14.5-17.8,17.6
					c-19.4-20-36-36.1-46.7-43.4C2059.6,535.1,2038.3,526.9,2016.3,525.8z"/>
				<path class="st23" d="M2148.5,613.7c5.4-7.6,17.1-18.8,36.4-16.2c0,0,55.5,70.5,60.1,87.5c4.6,17,4,29.4,2.5,41.4
					C2219,693,2148.5,613.7,2148.5,613.7z"/>
				<path class="st22" d="M2258.4,835c-5.2,4.5-11.1,8.4-17.6,11.4c-15.1-16.4-37.9-37.3-60.3-57.4c-43.3-39-57.6-66.3-57.6-66.3
					l50,38.1C2172.9,760.8,2212.6,791,2258.4,835z"/>
				<path class="st24" d="M2184.9,635.3l11.2-8c0,0,34,45.9,29.3,49.5C2220.7,680.4,2184.9,635.3,2184.9,635.3z"/>
			</g>
			<path class="st20" d="M2335.5,911.6c0,0,22.8,37.8,20.6,61.1c80.1-28.3,21.8-107.7,21.8-107.7L2335.5,911.6z"/>
			<path class="st5" d="M2172.9,760.8c0,0,72.1,61.5,129,118.6l17.7,49.2l16-17c0,0,13.2,9.4,20.7,32c8.4,25.3,17.8,7.2,17.8,2.2
				c0,0,11.9,2.5,12.1-10.4c12.2-2.4,7.5-10.2,2.5-24.8c0,0,7.4,4.8,10.6-1.1c3.2-5.9-11.4-34.1-23-46.4
				c-11.6-12.3-31.3-25.3-31.3-25.3l-127.6-146.1C2217.3,691.8,2223.7,741.2,2172.9,760.8z"/>
			<path class="st6" d="M2172.9,760.8c0,0,4.8,4.1,13,11.2l0.7-0.4c48.3-29.9,30.8-79.8,30.8-79.8S2223.7,741.2,2172.9,760.8z"/>
			<path class="st6" d="M2388.6,910.6c0,0,2.7,1.8,5.6,1.8c-6.5-11.2-15.8-24.9-25.5-32.9C2368.7,879.6,2378.4,890.7,2388.6,910.6z"
				/>
			<path class="st6" d="M2386.1,935.4c1.3-0.3,2.5-0.6,3.4-1c-4.5-11-12.1-25.6-24.4-39.8C2365.1,894.6,2378.8,916.6,2386.1,935.4z"
				/>
			<path class="st6" d="M2374,945.8c0,0,1.9,0.4,4.2,0.1c-7.3-26.2-25.6-46.4-25.6-46.4C2362,911.6,2374,945.8,2374,945.8z"/>
			<path class="st8" d="M1836.6,650.1c1.1,2.9-4.4,10.9-6.5,28.5c-4.8,39.5,10.4,82.6,27.5,110.3c-67.1-23.3-73.5-154-29-190.6
				c1.1,0.1,2.2,0.2,3.2,0.1c1.2-0.1,2.4-0.2,3.6-0.3c-3,7.3-5.4,18.4-3.6,34.2C1832.6,638.1,1836.6,650.1,1836.6,650.1z"/>
			<path class="st6" d="M2321.9,926c0,0-2-36.5-1.1-34.5c0.8,2,14.6,20,14.6,20S2321.9,926,2321.9,926z"/>
			<path class="st9" d="M1885.6,648.1c0,0,17.7-5,36.9,41.7c0,0,20.8-20.6,17.8-78.5l0,0c1,22.6-7.4,50.6-14.7,66.3
				C1925.7,677.5,1906.6,642.5,1885.6,648.1z"/>
			<path class="st9" d="M1885.4,648.2c-1.9,1.6-16.1,15.5-4.1,59.3c0,0-23.8-10.8-38.7-44.4h0c13.4,25,33.7,44.3,29.5,25.6
				C1866.7,664.3,1883.3,649.9,1885.4,648.2z"/>
			<path class="st9" d="M1857.6,789c0,0-21-40.2-22.3-76.5c-0.9-25.1,4-41.8,7.2-49.8c-2.2-4.1-4.2-8.3-5.8-12.6l0,0
				c1.1,2.9-4.4,10.9-6.5,28.5C1825.3,718.1,1840.5,761.2,1857.6,789z"/>
			<path class="st8" d="M2178.6,787.3c-51.8,5.2-89.4-29.5-113.6-66.7c-7.2-11.1-12.2-19.5-16.3-27.7c-5.9-11.8-9.9-23.2-15.7-41.5
				c-19.3-60.7-1.3-81.4-1.3-81.4c-7.5-13.6-38.6-12.5-49.9,1c0,0-10.4,28.8,3.2,75.6c8.6,29.4,27.2,71,46.1,95.7
				c41.1,53.8,103.2,88.7,173.9,69C2205,811.3,2199.6,789.4,2178.6,787.3z"/>
			<path class="st24" d="M2004,706.5l40.9-26.3c3.8-2.4,8.8-1.3,11.2,2.5l21.6,34.8c2.4,3.8,1.2,8.9-2.6,11.4l-40.9,26.3
				c-3.8,2.4-8.8,1.3-11.2-2.5l-21.6-34.8C1999,714,2000.2,708.9,2004,706.5z"/>
			<path class="st8" d="M2013.7,714.9c2.9,5.2,8.1,15.2,17.4,27.4c11.3-7.2,22.6-14.5,33.9-21.7c-5.8-9.1-11.5-18.2-16.3-27.7
				C2037.3,700.2,2024.9,707.7,2013.7,714.9z"/>
		</g>
		<g>
			<path class="st6" d="M1905.1,542.2c2,11,5.7,26.2,12.5,39.2c0,0-10,64.4-39.3,69.3c-29.3,4.9-37.5-26.9-39.7-52.9
				C1866.6,593.1,1896.2,569.5,1905.1,542.2z"/>
			<path class="st5" d="M1850.1,444.3L1850.1,444.3c35.9-2,66.9,26.3,68.9,62.9l1.9,35.5c4.8-6,15.5-7.1,18.9,1.1
				c2.5,5.9,1.8,16.2-5.8,26.5c-3,4.1-10.5,5.7-14.7,5.3c-8.6,29.1-39,53.8-73.4,55.7c-18.2,1-38.9-21.4-46.7-44.6
				c-8.3-24.7-9.8-53.9-10.8-72.3C1786.3,477.8,1814.1,446.3,1850.1,444.3z"/>
			<path class="st6" d="M1788.7,522.9c-0.2-3-0.3-5.9-0.5-8.5l-0.1-1.5c26.6,10.9,62.4,13.7,86.4,8.1
				C1837.6,530.9,1805.4,526.6,1788.7,522.9L1788.7,522.9z M1882.4,518.8L1882.4,518.8L1882.4,518.8L1882.4,518.8z"/>
			<path class="st25" d="M1897,509.6c-20,24.8-120,17.1-140.4-21.4c-16.1-30.5-8.1-78.3,37.7-78.3c-50,19.7-31.7,60.1-31.7,60.1l0,0
				c-9.9-63.1,81.4-55.4,96.4-31.1c17.1-6.2,30.5,1.6,37.2,19.6c1,2.8,11.8-1.1,15.7,22.4c0,0,11.4-7.2,18.9,12.2
				c7.5,19.5,2.4,34.9,2.6,45.1c-4.4-1.2-9.7,0.7-12.7,4.4c0,0-5.7,8.7-8.9,12.4C1907.1,560.8,1894.6,519.2,1897,509.6z"/>
			<path class="st26" d="M1778.7,429.2c25-15.6,70.2-6.8,80.4,9.6c17.1-6.2,30.5,1.6,37.2,19.6c1,2.8,11.8-1.1,15.7,22.4
				c0,0,11.4-7.2,18.9,12.2c3.2,8.2,4.1,15.7,4.1,22.3c-5.1-42.2-27.6-29.1-27.6-29.1c0-18.8-14.6-19.3-14.6-19.3
				c1.9-8.5-17-28.7-36.9-15.7C1854.8,424.1,1805.7,414.8,1778.7,429.2z"/>
			<path class="st27" d="M1831.1,540.5c0,0-1.4,18.7-5.9,23.8c0,0,0.9,6.8,10.6,3.7"/>
			<path class="st28" d="M1846.8,540.3c0,0,0.7-5.3,6.6-5.8c5.8-0.4,7.9,4.5,7.9,4.5"/>
			<path class="st3" d="M1863.4,573.4c-6.8,15.1-24.7,10.8-24.7,10.8s6.1,12.2,18,8.1C1868.6,588.1,1863.4,573.4,1863.4,573.4z"/>
			<path class="st28" d="M1805.1,541.6c0,0,0.7-5.3,6.6-5.8c5.8-0.4,7.9,4.5,7.9,4.5"/>
			<path class="st27" d="M1918.9,565.3c0,0,0.8-19,14.4-18.9"/>
		</g>
		<g>
			<g>
				<defs>
					<path id="SVGID_7_" d="M3043.5,1623.2l-393-242.7l0,0c-2.3-6.9-5.2-13.8-8.3-20.6l0,0L3043.5,1623.2z"/>
				</defs>
				<clipPath id="SVGID_8_">
					<use xlink:href="#SVGID_7_"  style="overflow:visible;"/>
				</clipPath>
				<g class="st29">
					<path class="st30" d="M2691.6,1415c17.6,22.6,35.7,44.9,52.4,68.1c3.2,4.4,12.8,9.3,7.3,15.8c-4.3,5-12.2,2.1-18.2-1.4
						c-1.6-0.9-4.3-0.1-11-0.1c17,19.3,36.4,33.2,47.2,55.4c-47.1-7.3-90-21.5-126.3-51.8c0-4.3,0-8.7,0-13
						c11.6-4.7,19.1,4.6,27.4,9c8.3,4.3,16.6,8,28.7,12.5c-6.7-12.6-9-24-21.7-28.2c-13.8-8.7-29.4-16.3-27-36.5
						c18.2-9.3,28.4,10.6,43.1,10.6c-11.7-18.6-28-35.3-42.1-53.6c-2.8-13.5,6.2-15,15.2-12.1
						C2678.7,1393.6,2690.7,1399.5,2691.6,1415z"/>
					<path class="st31" d="M2691.6,1415c-9.6-7.3-18.6-15.7-29.1-21.5c-6.6-3.6-11-0.1-5.6,7.7c5.6,9,12.8,17,18.6,25.9
						c3.4,5.3,8.9,10.4,3.8,17.1c-5.2,6.8-11.3,4-17.1,0.4c-3.2-2-6.5-3-9.7,0.1c4.3,15.7,16.5,24,30.2,31c3.7,6.5,11.8,13.1,5,20.7
						c-7.7,8.6-16.1,1.3-23.4-2.5c-7-3.6-14.5-6.2-21.3-10.3c0-1.4,0-2.9,0-4.3c3.5-10.1,3.5-20.3,0-30.4c0-7.2,0-14.5,0-21.7
						c4.6-13,3.5-26,0-39.1c2.6-8.5-5.2-18.7,4.4-26c5.1,5.5,17.2,2.5,17.7,13.7c12.6,10.9,29.1,16.6,40.3,29.4
						c0.4,4.2-0.8,7.6-5,9.5C2697.4,1414.9,2694.5,1414.9,2691.6,1415z"/>
					<path class="st32" d="M2642.9,1483.7c17-6.9,26.3,11.7,41.6,11.9c4.3-7-4.5-13.1-1.8-19.9c16.8,9.9,22.5,27,31.8,45.6
						c-29.9-3-49.4-21-71.6-33.2C2642.9,1486.6,2642.9,1485.2,2642.9,1483.7z"/>
					<path class="st30" d="M2665,1375.9c-5.5-5-15.1-5-17.7-13.7c19.2,0,38.3,0,57.5,0c2.7,5.6,5.5,11.3,8.6,17.6
						C2696.5,1382,2680.9,1376.6,2665,1375.9z"/>
					<path class="st33" d="M2642.9,1388.2c7,13,9.8,26,0,39.1C2642.9,1414.3,2642.9,1401.2,2642.9,1388.2z"/>
					<path class="st34" d="M2642.9,1449c7.3,10.1,7.3,20.3,0,30.4C2642.9,1469.2,2642.9,1459.1,2642.9,1449z"/>
					<path class="st35" d="M2744.2,1440.6c-8.9-1.9-17.1-4.8-22.2-13c1.8-4.4,4.6-6.9,9.8-4.8c9.6,0.7,14.6,8.9,22.1,13.1
						C2752.1,1440.2,2749.3,1442.5,2744.2,1440.6z"/>
					<path class="st36" d="M2784.3,1466.8c-7.5-4.4-15-8.8-22.4-13.2c0.5-5.4,4.5-7.1,9.1-8.2c6.1,4,12.1,8,18.2,12
						C2791.1,1462.2,2788.8,1465,2784.3,1466.8z"/>
					<path class="st37" d="M2771,1445.3c-3,2.7-6,5.5-9.1,8.2c-5.9-4.3-14.2-5.4-17.7-13c3.2-1.6,6.5-3.2,9.7-4.7
						C2759.6,1439,2765.3,1442.2,2771,1445.3z"/>
					<path class="st38" d="M2700.3,1414.8c1.7-3.2,3.4-6.3,5-9.5c6.3,0,10.3,3.3,13.1,8.5c2.5,5.2-0.4,7.8-4.8,9.6
						C2707.4,1423,2702.9,1420.2,2700.3,1414.8z"/>
					<path class="st39" d="M2802.3,1465.9c6,4.2,14.1,5.8,17.7,13.1c2.5,3.2,2.3,6.4-0.2,9.5c-7.5-4.4-15-8.8-22.5-13.1
						C2797.6,1471.4,2798,1467.7,2802.3,1465.9z"/>
					<path class="st40" d="M2802.3,1465.9c-1.7,3.1-3.3,6.3-5,9.4c-4.3-2.8-8.7-5.7-13-8.5c1.6-3.1,3.2-6.3,4.8-9.5
						C2793.5,1460.2,2797.9,1463,2802.3,1465.9z"/>
					<path class="st41" d="M2837.3,1488.6c6,4.1,12.1,8.2,18.1,12.2c1.1,4.3-0.5,5.9-4.9,4.8c-7.5-0.1-11.6-6.2-17.4-9.4
						C2831.3,1492,2833.7,1490,2837.3,1488.6z"/>
					<path class="st42" d="M2837.3,1488.6c-1.4,2.6-2.8,5.1-4.1,7.7c-4.5-2.6-8.9-5.2-13.4-7.8c0.1-3.2,0.2-6.3,0.2-9.5
						C2827.5,1479.2,2831.6,1485.2,2837.3,1488.6z"/>
					<path class="st43" d="M2886.2,1527.3c-9.2-1.5-15.5-7.7-22.4-13c0.5-2.8,2.1-4.4,4.9-4.8c6.3,3.8,14,5.8,17.6,13.1
						c1.1,1.1,1.4,2.2,1,3.2C2887,1526.8,2886.6,1527.3,2886.2,1527.3z"/>
					<path class="st44" d="M2886.2,1527.3c0.1-1.6,0.1-3.2,0.2-4.8c9.2,1.5,15.4,7.7,22.1,13.2c-0.2,2.7-2.8,3-4.6,4.1
						C2897.3,1536.7,2889.8,1534.7,2886.2,1527.3z"/>
					<path class="st45" d="M2943.7,1561.9c-9.2-1.3-15.6-7.4-22.2-12.9c0.1-2.8,2.7-3.2,4.4-4.4c7.6,5.5,17.1,8.7,22.2,17.3
						C2946.7,1563.8,2945.2,1563.9,2943.7,1561.9z"/>
					<path class="st46" d="M2713.5,1423.4c1.6-3.2,3.2-6.4,4.8-9.6c6.3,0.3,10.7,3.5,13.5,8.9c-3.3,1.6-6.5,3.2-9.8,4.8
						C2718.7,1427.1,2715.2,1427.1,2713.5,1423.4z"/>
					<path class="st47" d="M2868.7,1509.5c-1.6,1.6-3.3,3.2-4.9,4.8c-6.1-0.5-10.4-3.4-13.2-8.7c1.6-1.6,3.2-3.2,4.9-4.8
						C2859.9,1503.7,2864.3,1506.6,2868.7,1509.5z"/>
					<path class="st48" d="M2925.9,1544.6c-1.5,1.5-3,2.9-4.4,4.4c-7.3-0.3-11.8-5.9-17.6-9c1.5-1.4,3-2.8,4.6-4.1
						C2914.3,1538.7,2920.1,1541.6,2925.9,1544.6z"/>
					<path class="st49" d="M2943.7,1561.9c1.5,0,3,0,4.4,0c5.3,0.6,9.8,2.1,11.6,8.4C2951,1572.6,2947.4,1567.2,2943.7,1561.9z"/>
					<path class="st32" d="M2652.5,1444.7c2.3-13.4,8.8-2.1,13-1.7c3.5,0.4,7.2,2.5,10.1,0c4.8-4.1-0.4-7.6-1.8-11.1
						c-4.4-10.8-16.4-17.7-16.9-30.7c22,18.9,36.9,43.3,56.5,67.7C2688.2,1467.1,2672,1451.9,2652.5,1444.7z"/>
				</g>
			</g>
			<g>
				<defs>
					<path id="SVGID_9_" d="M2520.2,926.7l445.4,393l-454.1-374.4l7-7.6C2521.2,934.7,2521.7,930.3,2520.2,926.7z"/>
				</defs>
				<use xlink:href="#SVGID_9_"  style="overflow:visible;fill-rule:evenodd;clip-rule:evenodd;fill:#FFFFFF;"/>
				<clipPath id="SVGID_10_">
					<use xlink:href="#SVGID_9_"  style="overflow:visible;"/>
				</clipPath>
			</g>
			<g>
				<defs>
					<polygon id="SVGID_11_" points="2481.6,977.9 2691.4,1165.7 2469.4,991.1 					"/>
				</defs>
				<use xlink:href="#SVGID_11_"  style="overflow:visible;fill-rule:evenodd;clip-rule:evenodd;fill:#FFFFFF;"/>
				<clipPath id="SVGID_12_">
					<use xlink:href="#SVGID_11_"  style="overflow:visible;"/>
				</clipPath>
			</g>
		</g>
	</g>
	<g>
		<path class="st3" d="M2559,1132.2c64.6,0.1,119.9,49.9,126.6,116.7c3.8,37.8-8.8,73.4-31.9,99.6
			C2707.2,1249.9,2647.6,1145.7,2559,1132.2z"/>
		<g>
			<path class="st3" d="M2166.2,441.6c26.9,15.2,74.1,56.3,74,56.2l218.9,169.5l-173.7-112.2L2166.2,441.6L2166.2,441.6z
				 M2285.4,555.1l-119.2-113.5c201.3,157.9,172.6,463.9-86.1,518.1c128.3-19.3,229.7-109.9,244.6-232.4
				C2332.2,666.4,2317.1,606.7,2285.4,555.1L2285.4,555.1z M2681.9,828.9c-29.4-21.4-207.9-145.3-211.3-153.3
				C2473.2,671,2673.2,822.3,2681.9,828.9z"/>
		</g>
		<path class="st3" d="M1626.5,351.6c59.8,11.8,102,52.1,96,93.9c-3.4,23.6-21.5,43-47.6,54.7C1742.2,450,1706,375.8,1626.5,351.6z"
			/>
	</g>
</g>
</svg>
