<?xml version="1.0" encoding="utf-8"?>
<!-- Generator: Adobe Illustrator 24.2.0, SVG Export Plug-In . SVG Version: 6.00 Build 0)  -->
<svg version="1.1" id="Layer_1" xmlns="http://www.w3.org/2000/svg" xmlns:xlink="http://www.w3.org/1999/xlink" x="0px" y="0px"
	 viewBox="0 0 152 334" style="enable-background:new 0 0 152 334;" xml:space="preserve">
<style type="text/css">
	.st0{fill:#424773;}
	.st1{fill:#8B92DB;}
	.st2{fill:#E3E3E3;}
	.st3{fill:#D88A51;}
	.st4{fill:#EEA886;}
	.st5{fill:#323657;}
	.st6{fill:#979FF0;}
	.st7{fill:#D44040;}
	.st8{fill:#EEA987;}
	.st9{fill:#A77860;}
	.st10{fill:#E8734D;}
</style>
<g>
	<g>
		<g>
			<path class="st0" d="M50,331.8c0,0,3.7,6.8,4.2,7.9c0.5,1,11.3-4.9,11.3-4.9l-2.3-8.9C63.3,325.8,51.1,330.2,50,331.8z"/>
		</g>
	</g>
	<g>
		<g>
			<path class="st1" d="M53.8,338.8c0,0-2,5.7-4.8,8.9c-2.8,3.2-15.1,9.5-16.5,12.3c-1,2-1.3,8.6,18.9,0.5
				c14.4-5.8,21.9-7.1,22.6-10.1c0.7-2.9-8.7-16.4-8.7-16.4S62.7,336.5,53.8,338.8z"/>
		</g>
	</g>
	<g>
		<path class="st1" d="M159.1,368.6c0,0,3,10.6,3.8,14.1c0.8,3.6-0.4,12.9,0.4,16.5c0.8,3.6,2.9,4.6,4.6,4.1
			c1.7-0.5,5.9-1.9,9.5-6.1c3.6-4.3,2.2-12.1,2.6-17.1c0.4-4.7,2.5-7.2-1.6-11.1c-5.2-5-5.9-7.9-5.9-7.9L159.1,368.6z"/>
	</g>
	<g>
		<path class="st2" d="M85.6,221c0,0,1.8,20.6,3.7,33c1.7,11.4,11.2,47.4,14.5,52.1c6.1,8.6,19.9,23,22.7,26.8
			c4.7,6.2,32.4,43,32.4,43s7.8-1.7,18-11.4c0,0-28.9-32.7-33.2-42.4c-3.3-7.4-17.4-28.6-17.4-32c0.1-5.7-3.9-69-9.7-80.3
			C110.8,198.3,85.6,221,85.6,221z"/>
	</g>
	<g>
		<path class="st2" d="M68.1,208.7c0,0-36,32.6-40.4,40.1c-4.4,7.4-7.3,8.4-5.4,16.2c1.9,7.9,29.3,71.5,29.8,73.5
			c0.5,2.2,14.5-4.4,15.8-4.6c1.3-0.2-5.9-19.2-8.6-26.9c-2.7-7.7-10.9-34.1-13.1-38.1C44,265,90.6,240.9,95.5,235
			C100.3,229.2,93.3,202.1,68.1,208.7z"/>
	</g>
	<path class="st3" d="M65.6,211.8c0,0,23.2,25.6,61.3,39.3l-6-22.7L65.6,211.8z"/>
	<g>
		<path class="st4" d="M34.6,80.5c-3.7-7.8-13.6-44-13.6-44l7.9-1c0,0,5.2,9,11.3,25.4c1.8,4.9,9.2,14,9.6,14.8
			c0.4,0.8,14.6,18.4,20.2,21.6c2.6,1.5,8.4,5.3,12.1,10c3.7,4.6,1.1,10.2,1.1,10.2c-10,10.3-24.6-6.1-24.6-6.1S41.2,94.6,34.6,80.5
			z"/>
	</g>
	<path class="st5" d="M63.3,156.7c0,0,0.7,5.1,4.1,6.9l3-5.6L63.3,156.7z"/>
	<path class="st5" d="M114.7,179.7c0.5,8.8,2.4,18,6.4,27.5c0,0,12.5,5.1,18.5-2.7c2.4-3.1,4.4-13.4,5.3-26.6
		c1.3-20.3-0.1-47.3-7.7-65C137.1,112.9,112.6,141.8,114.7,179.7z"/>
	<path class="st6" d="M114.7,179.7c0.5,8.8,2.4,18,6.4,27.5c0,0,12.5,5.1,18.5-2.7c2.4-3.1,4.4-13.4,5.3-26.6L114.7,179.7z"/>
	<path class="st4" d="M12.1,15.1c0.7,0,4.1,6,5.5,8.6c0,0,0.1-0.1,0.1-0.1c-1.3-3.3-4.8-12.2-5.1-13.1c-0.4-1.1,0.8-1.8,1.5-1.5
		c0.6,0.3,5,9.7,6.6,13.1c0,0,0.1,0,0.1,0C19.3,18.4,15.3,8,15.2,7.4c-0.1-0.7,1.3-1.2,1.7-0.8c0.6,0.6,5.5,11.2,7.1,14.5
		c0.1,0,0.2,0,0.2,0c-0.7-2.9-2.6-10.9-2.8-11.9c-0.3-1.3,0.4-1.6,1.4-0.9c0.9,0.6,3.8,11.4,4.4,13.6c0.8,1.9,1.3,6.9,2.2,5.9
		c1-1.1,4.9-7.1,6.4-6.5c1.5,0.6-1.6,4-2.1,5.3c-0.4,1-1.8,4.1-3.5,5.5c-2.1,1.7-1.2,6.2-1.2,6.2l-7.2,0.9c0,0-0.6-2.2-1.1-3.2
		c-0.3-0.7-3.8-4.8-4.7-9.2c0-0.1,0-0.1,0-0.2h0c0,0-2.8-6.2-4.3-8.7C10.3,15.5,11.5,15.1,12.1,15.1z"/>
	<g>
		<path class="st4" d="M190.5,218.7c0,0,6.5,12.2,6.2,13.3c-0.3,1.1-1,1.4-1.7,0.3c-0.7-1.1-6.6-11.6-6.6-11.6s5.1,15.6,5.1,16.5
			c0,0.6-1.4,1.2-1.8,0.6c-0.4-0.6-6.4-15.7-6.4-15.7s4.8,14.5,4.5,15.3c-0.2,0.7-1.6,1-2.1-0.1c-0.4-1.1-5.6-14.3-5.6-14.3
			s2.8,10.8,2.1,11.3c-0.4,0.3-1.5,0.9-2.2-1.9c-0.6-2.8-2.8-9.3-2.8-9.3L190.5,218.7z"/>
	</g>
	<g>
		<g>
			<path class="st4" d="M180.7,205.8c0,0,2.4,3.9,5.1,3.7c2.3-0.1,5.4,1.2,6.4,1.6c1.3,0.6,5.9,0.9,5.2,2.4s-7.6-0.3-9.1-0.4
				c-1.5-0.1,2.6,5.1,2.6,6.5c0,1.5-9.3,7.1-11.7,3.3c-2.4-3.8-2.3-9.3-2.8-9.9c-0.6-0.6-1.9-2.7-1.9-2.7L180.7,205.8z"/>
		</g>
	</g>
	<path class="st7" d="M93.8,101.4c0,0-13.3,2.6-19.2-1c-2.3,1.6-7.1,22.8-7.8,27.7c-0.7,4.9-0.8,25.5,0.5,33.3
		c1.2,7.8-6,43.7-2.8,49.4c0,0,27.1,23.6,59.3,22.9c0,0,0.3-44.8,2.6-55.1c3.1-13.2,10.3-43.5,10.3-43.5s3.4-20.3,0-22
		c-7.2-3.6-26.4-10.6-26.4-10.6L93.8,101.4z"/>
	<path class="st8" d="M90.2,105.2c0,0,4.4,2.5,20.1-2.5c0,0,0.7-10.4,4.7-19.7c4-9.3-21.6,10.7-21.6,10.7c0.2,0.2,0.2,1.2-0.1,2.5
		c-0.2,1.1-0.6,2.5-1.2,3.9C91,103.2,91.3,102.7,90.2,105.2z"/>
	<path class="st9" d="M92.2,100.1c15.2-0.9,18.3-9.2,18.4-9.3C104,97.7,93.4,96,93.4,96C93.2,97.2,92.7,98.7,92.2,100.1z"/>
	<g>
		<path class="st4" d="M143.3,175.6c5.8,6.3,32.1,36.2,32.1,36.2l6-5.2c0,0-7.7-14-18.5-29.5c-3-4.3-6.9-14.4-7.5-15.1
			c-0.6-0.7-9.4-21.3-10.4-27.7c-0.4-2.5-2.8-10.1-4.4-16.5c-1.8-7.2-18.3-10.7-18.3-10.7c-13.7,4.3,5,31.2,5,31.2
			S135.2,166.8,143.3,175.6z"/>
	</g>
	<path class="st7" d="M126.6,141.4l20.5-3.6c0,0-0.4-21.2-14.7-28.1c-14.3-6.9-22.1-7-22.1-7L126.6,141.4z"/>
	<g>
		<path class="st5" d="M127.4,175.3l3.2-3.1c-11.9-14-15.7-28.7-11.4-43.8c3.2-11.3,11.2-19.7,11.2-19.7l-4.4-1.9
			c-0.3,0.3-7.7,8.1-11.2,20.4c-2.1,7.3-2.4,14.6-1,21.8C115.6,158,120.3,167,127.4,175.3z"/>
	</g>
	<path class="st7" d="M66.2,94.4l-9.6,18.6c0,0,7.6,6.1,10.3,21.8c2.2,13.1,13.9-32.6,13.9-32.6S75.5,101.7,66.2,94.4z"/>
	<g>
		<path class="st5" d="M63.3,156.7l3.6,1.9c-1.8-23.6,1.3-35.2,4-43.3c2.9-8.7,7.5-13.7,7.6-13.7l-4.3-1.9
			C73.6,100.4,58.7,113.5,63.3,156.7z"/>
	</g>
	<path class="st8" d="M88.4,102.2c0,0-15,19.9-2.4,24.7c16.4,6.3,30-23.3,30-23.3S106.5,99.7,88.4,102.2z"/>
	<g>
		<path class="st4" d="M97.6,51.6c0,0-12.7,1.4-13.6,24.4c-1,25.4,17.9,21.8,23.2,18c5.3-3.8,10.5-13.2,12-20.7
			C120.6,65.8,122.7,45.4,97.6,51.6z"/>
	</g>
	<g>
		<path class="st5" d="M84.8,66.2c0,0,1.8-8.2,11.8-4.8c10,3.5,18.5,13.2,16.4,26c0,0,18.2-20.8,8.6-32.4
			C112,43.5,88.6,43.6,84.8,66.2z"/>
	</g>
	<g>
		<path class="st10" d="M99.1,62.4c0,0-12.9,8.7-16,8.5C83.1,70.9,84,55.2,99.1,62.4z"/>
	</g>
	<path class="st4" d="M112,75.8c1.1-2.1,4.2-4.7,4.8-1.2c0.6,3.6-4,10.6-5.2,9.3C110.3,82.7,110,79.8,112,75.8z"/>
	<path class="st5" d="M130.4,108.7c0,0-1.9-1.6-4.4-1.9C126.1,106.8,128.6,108.7,130.4,108.7z"/>
</g>
</svg>
