<?xml version="1.0" encoding="utf-8"?>
<!-- Generator: Adobe Illustrator 25.4.1, SVG Export Plug-In . SVG Version: 6.00 Build 0)  -->
<svg version="1.1" id="Layer_1" xmlns="http://www.w3.org/2000/svg" xmlns:xlink="http://www.w3.org/1999/xlink" x="0px" y="0px"
	 viewBox="0 0 2068.2 2115" style="enable-background:new 0 0 2068.2 2115;" xml:space="preserve">
<style type="text/css">
	.st0{clip-path:url(#SVGID_00000072280666457703641720000003870288165933565869_);}
	.st1{fill:#403E43;}
	.st2{filter:url(#Adobe_OpacityMaskFilter);}
	.st3{fill:#FFFFFF;}
	
		.st4{mask:url(#SVGID_00000044855974174667461270000005091612696143446673_);fill:url(#SVGID_00000119815228999092462870000011560961399488831885_);}
	.st5{fill:url(#SVGID_00000090977344619328275760000014173740794155004294_);}
	.st6{fill:#829300;}
	.st7{fill:url(#SVGID_00000139269611814254717210000006063548957454080640_);}
	.st8{clip-path:url(#SVGID_00000111875241132437856490000013818484677848220087_);}
	.st9{fill:url(#SVGID_00000095338055274328925480000014242157599366160287_);}
	.st10{fill:url(#SVGID_00000036962331437952128430000017155123696525627295_);}
	.st11{filter:url(#Adobe_OpacityMaskFilter_00000038381942530923244010000015038995482231032764_);}
	.st12{fill:url(#SVGID_00000058558501743082328540000000377780382208422553_);}
	
		.st13{mask:url(#SVGID_00000134933503730525474920000012100196310271364744_);fill:url(#SVGID_00000130639990934809025390000008420950789989488554_);}
	.st14{fill:url(#SVGID_00000110446089401849106010000016635737499381887887_);}
	.st15{fill:url(#SVGID_00000177463773183183217580000009734162022380164487_);}
	.st16{fill:url(#SVGID_00000131367385971604794590000013178631823793403817_);}
	.st17{fill:url(#SVGID_00000049900773393738578870000009839803648233062824_);}
	.st18{fill:url(#SVGID_00000078033948317719144730000014099252501018432424_);}
	.st19{fill:url(#SVGID_00000126288382005578845940000017073349010184036758_);}
	.st20{fill:url(#SVGID_00000098913898947234581180000008475831573111514529_);}
	.st21{fill:url(#SVGID_00000100364676095739176360000010862746736588733114_);}
	.st22{fill:url(#SVGID_00000070813491215433737990000005652203087770090893_);}
	.st23{fill:url(#SVGID_00000002379216969273278590000014390375234501318326_);}
	.st24{fill:url(#SVGID_00000049925571906671689560000013110661017786914980_);}
	.st25{fill:url(#SVGID_00000000923244825340901910000001534988607694730905_);}
	.st26{fill:url(#SVGID_00000147935612422515969750000011093552986172403620_);}
	.st27{fill:url(#SVGID_00000000185777994492185230000013878703162674893446_);}
	.st28{fill:url(#SVGID_00000083774917633119182670000004449768357422419111_);}
	.st29{fill:url(#SVGID_00000147187691510349409380000002414626294899723392_);}
	.st30{fill:url(#SVGID_00000012472497962356264950000005850841402981924227_);}
	.st31{fill:url(#SVGID_00000067920875963150312060000002431182164885426365_);}
	.st32{fill:url(#SVGID_00000049210906802687247320000006907915592290711711_);}
	.st33{fill:url(#SVGID_00000054232588872585297050000011254546533304059311_);}
	.st34{fill:url(#SVGID_00000044895096590502184670000003687066732593924255_);}
	.st35{fill:#9E9E9E;}
</style>
<g id="Background">
</g>
<g>
	<defs>
		<rect id="SVGID_1_" x="236.6" y="259.3" width="1593.9" height="1593.9"/>
	</defs>
	<clipPath id="SVGID_00000016034319422600003180000000030669172348084653_">
		<use xlink:href="#SVGID_1_"  style="overflow:visible;"/>
	</clipPath>
	<g style="clip-path:url(#SVGID_00000016034319422600003180000000030669172348084653_);">
		<path class="st1" d="M872.4,1118.2l-55.5,26.8c-0.1,0-0.1,0.1-0.2,0.1c-0.1,0-0.1,0.1-0.2,0.1l-55.5,26.8l4.1,8.5l49.6,102.9
			l236.8,490.5c-16.6,17.2-21.7,43.6-10.7,66.4l25.6,53l106-51.2l-25.6-53c-11-22.8-34.8-35.2-58.7-32.9l-236.8-490.5l19-9.2
			c0,0,0,0,0,0c30.7-14.8,43.7-51.8,28.8-82.6c0-0.1-0.1-0.1-0.1-0.2L872.4,1118.2z"/>
		<path class="st1" d="M1772.6,938.3c-22.8,11-35.2,34.8-32.9,58.7l-490.5,236.8l-9.2-19c0,0,0,0,0,0
			c-14.8-30.7-51.8-43.6-82.6-28.8c-0.1,0-0.1,0.1-0.2,0.1l-55.5,26.8l26.8,55.5c0,0.1,0.1,0.1,0.1,0.2c0,0,0.1,0.1,0.1,0.2
			l26.8,55.5l8.5-4.1l102.9-49.7l490.5-236.7c17.2,16.6,43.6,21.7,66.4,10.7l53-25.6l-51.2-106L1772.6,938.3z"/>
		<path class="st1" d="M1195,986.3l55.5-26.8c0,0,0.1,0,0.2-0.1c0.1,0,0.1-0.1,0.2-0.1l55.5-26.8l-4.1-8.5l-49.6-102.9l-236.8-490.5
			c16.6-17.2,21.7-43.6,10.7-66.4l-25.6-53l-106,51.2l25.6,53c11,22.8,34.8,35.2,58.7,32.9L1216,838.9l-19,9.2c0,0,0,0,0,0
			c-30.8,14.8-43.7,51.8-28.8,82.6c0,0.1,0.1,0.1,0.1,0.2L1195,986.3z"/>
		<path class="st1" d="M930.3,840.7c0-0.1,0-0.1-0.1-0.2c0-0.1-0.1-0.1-0.1-0.2l-26.8-55.5l-8.5,4.1L792,838.6l-490.5,236.8
			c-17.2-16.6-43.6-21.7-66.4-10.7l-53,25.6l51.2,106l53-25.6c22.8-11,35.2-34.8,32.9-58.7l490.5-236.8l9.2,19c0,0,0,0,0,0
			c14.8,30.8,51.8,43.6,82.6,28.8c0.1,0,0.1-0.1,0.2-0.1l55.5-26.8L930.3,840.7z"/>
	</g>
</g>
<g>
	<g>
		<image style="overflow:visible;" width="556" height="513" xlink:href="657CC19C.png"  transform="matrix(1 0 0 1 289 791)">
		</image>
		<image style="overflow:visible;" width="541" height="615" xlink:href="657CC19D.png"  transform="matrix(1 0 0 1 401 1140)">
		</image>
		<image style="overflow:visible;" width="509" height="552" xlink:href="657CC19B.png"  transform="matrix(1 0 0 1 920 1249)">
		</image>
		<image style="overflow:visible;" width="613" height="486" xlink:href="657CC1A4.png"  transform="matrix(1 0 0 1 1161 1103)">
		</image>
		<image style="overflow:visible;" width="572" height="535" xlink:href="657CC1A7.png"  transform="matrix(1 0 0 1 1204 531)">
		</image>
		<image style="overflow:visible;" width="497" height="584" xlink:href="657CC1A5.png"  transform="matrix(1 0 0 1 948 309)">
		</image>
		<image style="overflow:visible;" width="589" height="569" xlink:href="657CC1AB.png"  transform="matrix(1 0 0 1 408 351)">
		</image>
	</g>
	<defs>
		<filter id="Adobe_OpacityMaskFilter" filterUnits="userSpaceOnUse" x="290" y="309.9" width="1490" height="1490">
			<feColorMatrix  type="matrix" values="1 0 0 0 0  0 1 0 0 0  0 0 1 0 0  0 0 0 1 0"/>
		</filter>
	</defs>
	
		<mask maskUnits="userSpaceOnUse" x="290" y="309.9" width="1490" height="1490" id="SVGID_00000059284683709033866560000004104932079771037368_">
		<g class="st2">
			<g>
				<path class="st3" d="M346.1,1303.6c13-1.8,17.8-6.5,32.2-17c177.1-130.6,445.6-181,445.6-181c0.5-3.9,1.1-7.7,1.6-11.6
					c3.1-22.6,6.2-45.1,9.3-67.7c3.3-24,6.6-47.9,9.8-71.9c-184.4-98.7-354.7-142.1-457.8-160.8c-17.4-3.2-28.3-3.2-39,2.3
					c-9.4,6.1-15.6,12.6-19.4,23.9c-23.2,69-36.6,142.6-38.5,219c-2,81.7,9.3,163.6,33.7,241.6c0.6,1.8,1.1,3.6,1.7,5.4
					C329,1297.2,337.6,1303.6,346.1,1303.6z"/>
				<path class="st3" d="M798.2,1747.6c6.7-11.2,6-18,6.7-35.8c8.3-219.9,136.4-461.2,136.4-461.2c-2.7-2.8-5.4-5.6-8.1-8.4
					c-15.7-16.5-31.4-33-47.1-49.5c-16.7-17.5-33.4-35-50.1-52.5c-192.2,82.6-332.3,188.7-411.2,257.6
					c-13.3,11.6-20.1,20.1-22.5,31.9c-1.1,11.1,0.1,20,6.6,30.1c39.5,61.2,88.6,117.5,147.2,166.6c62.6,52.5,133.7,94.7,209.9,124.3
					c1.8,0.7,3.5,1.4,5.3,2C782.5,1757,792.9,1754.4,798.2,1747.6z"/>
				<path class="st3" d="M1428.1,1671.6c-4.6-12.2-10.3-15.9-23.8-27.6c-166.7-143.7-275.5-394.2-275.5-394.2
					c-3.9,0.4-7.8,0.7-11.6,1c-22.7,2-45.4,4-68.1,6c-24.1,2.1-48.2,4.3-72.3,6.4c-55.3,201.7-59.7,377.4-55.1,482.1
					c0.8,17.6,3.2,28.3,10.9,37.5c8,7.8,15.7,12.4,27.7,13.6c72.5,7.3,147.2,4,222.1-11.1c80.1-16.2,157.4-45.5,228-86.6
					c1.6-0.9,3.3-1.9,4.9-2.9C1425.7,1689.8,1430.1,1680,1428.1,1671.6z"/>
				<path class="st3" d="M1762.4,1132.1c-12.4-4-18.9-1.9-36.4,1.4c-216.3,40.7-480-30.5-480-30.5c-2.1,3.2-4.3,6.5-6.4,9.7
					c-12.6,19-25.2,38-37.8,57c-13.4,20.2-26.7,40.3-40.1,60.5c123.2,169,257.8,282,342.5,343.7c14.3,10.4,24.1,15.1,36.1,14.9
					c11.1-1.4,19.5-4.5,27.9-13.1c50.9-52.1,94.9-112.5,129.8-180.5c37.3-72.7,62.6-151.4,74.5-232.2c0.3-1.9,0.5-3.7,0.8-5.6
					C1775,1145.3,1770.1,1135.8,1762.4,1132.1z"/>
				<path class="st3" d="M1549.5,532.9c-10.9,7.2-13.3,13.6-21.6,29.3c-103,194.4-323.2,356.2-323.2,356.2c1.2,3.7,2.4,7.4,3.6,11.1
					c7,21.7,14,43.4,21,65.1c7.4,23,14.9,46,22.3,69.1c209,9.1,381.2-25.6,482.3-53.4c17-4.7,26.8-9.4,34.2-19
					c5.8-9.6,8.6-18.1,7.1-30c-9-72.3-28.8-144.4-60.2-214c-33.6-74.5-79.3-143.4-135.1-203.1c-1.3-1.4-2.6-2.7-3.9-4.1
					C1567.7,531.3,1557.2,529.2,1549.5,532.9z"/>
				<path class="st3" d="M948.4,328.5c-1.2,13,2.3,18.8,9.4,35.2c87.8,201.8,77,474.8,77,474.8c3.6,1.4,7.3,2.7,10.9,4.1
					c21.3,8,42.6,16.1,63.9,24.2c22.6,8.5,45.3,17.1,67.9,25.6c137.4-157.7,217.7-314,259-410.3c6.9-16.2,9.4-26.8,6.5-38.5
					c-3.8-10.5-8.8-18-19-24.3c-62.1-38.1-130.8-67.5-204.9-86.4c-79.2-20.2-161.5-27.4-243-21.1c-1.9,0.1-3.8,0.3-5.6,0.5
					C958.5,313.2,950.3,320.1,948.4,328.5z"/>
				<path class="st3" d="M412.6,669.5c9.4,9.1,16.2,9.9,33.4,14.5C658.4,741.3,865.1,920,865.1,920c3.4-2,6.7-4,10-6
					c19.6-11.6,39.2-23.3,58.8-34.9c20.8-12.4,41.6-24.7,62.4-37.1C958.7,636.2,886.6,476,837,383.7c-8.4-15.6-15.1-24.1-26.1-29.1
					c-10.6-3.6-19.6-4.4-30.8-0.3c-68.5,24.8-134.4,60.2-195.3,106.3c-65.2,49.3-122.2,109.2-168,176.8c-1.1,1.6-2.1,3.1-3.2,4.7
					C407,652.2,407.2,662.8,412.6,669.5z"/>
			</g>
		</g>
	</mask>
	
		<radialGradient id="SVGID_00000052806648051839804050000004015522306463495811_" cx="999.4736" cy="1054.8606" r="745" gradientTransform="matrix(1 0 0 1 35.5469 0)" gradientUnits="userSpaceOnUse">
		<stop  offset="0.3596" style="stop-color:#83930F"/>
		<stop  offset="0.3897" style="stop-color:#96A811"/>
		<stop  offset="0.4394" style="stop-color:#AEC313"/>
		<stop  offset="0.4933" style="stop-color:#C2D815"/>
		<stop  offset="0.553" style="stop-color:#CFE717"/>
		<stop  offset="0.6228" style="stop-color:#D8F018"/>
		<stop  offset="0.7274" style="stop-color:#DAF318"/>
		<stop  offset="0.7975" style="stop-color:#D7F018"/>
		<stop  offset="0.8503" style="stop-color:#CFE617"/>
		<stop  offset="0.8973" style="stop-color:#C0D615"/>
		<stop  offset="0.9411" style="stop-color:#ABBF13"/>
		<stop  offset="0.9821" style="stop-color:#91A210"/>
		<stop  offset="1" style="stop-color:#83930F"/>
	</radialGradient>
	
		<circle style="mask:url(#SVGID_00000059284683709033866560000004104932079771037368_);fill:url(#SVGID_00000052806648051839804050000004015522306463495811_);" cx="1035" cy="1054.9" r="745"/>
</g>
<g>
	
		<linearGradient id="SVGID_00000018221432819691818620000016105263189394513813_" gradientUnits="userSpaceOnUse" x1="809.5152" y1="818.2957" x2="1190.2859" y2="1292.4955" gradientTransform="matrix(1 0 0 1 35.5469 0)">
		<stop  offset="0" style="stop-color:#A1B22E"/>
		<stop  offset="1" style="stop-color:#798522"/>
	</linearGradient>
	
		<ellipse style="fill:url(#SVGID_00000018221432819691818620000016105263189394513813_);" cx="1035" cy="1054.9" rx="298.2" ry="298.2"/>
	<path class="st6" d="M1299.7,1054.9c0,146.2-118.5,264.7-264.7,264.7c-146.2,0-264.7-118.5-264.7-264.7S888.8,790.2,1035,790.2
		C1181.2,790.2,1299.7,908.7,1299.7,1054.9z"/>
	
		<radialGradient id="SVGID_00000086660997117231557960000016254130140673525689_" cx="999.4704" cy="1054.8606" r="298.1889" gradientTransform="matrix(1 0 0 1 35.5469 0)" gradientUnits="userSpaceOnUse">
		<stop  offset="0.8882" style="stop-color:#D6EA3D"/>
		<stop  offset="0.9092" style="stop-color:#D2E53C"/>
		<stop  offset="0.9329" style="stop-color:#C5D838"/>
		<stop  offset="0.9581" style="stop-color:#B0C132"/>
		<stop  offset="0.984" style="stop-color:#93A12A"/>
		<stop  offset="1" style="stop-color:#7D8A24"/>
	</radialGradient>
	<path style="fill:url(#SVGID_00000086660997117231557960000016254130140673525689_);" d="M1035,756.7
		c-164.7,0-298.2,133.5-298.2,298.2c0,164.7,133.5,298.2,298.2,298.2c164.7,0,298.2-133.5,298.2-298.2
		C1333.2,890.2,1199.7,756.7,1035,756.7z M1035,1319.6c-146.2,0-264.7-118.5-264.7-264.7S888.8,790.2,1035,790.2
		c146.2,0,264.7,118.5,264.7,264.7S1181.2,1319.6,1035,1319.6z"/>
</g>
<g>
	<defs>
		<rect id="SVGID_00000075883164639476621500000005022829200174723002_" x="239.5" y="259.3" width="1591.1" height="1591.1"/>
	</defs>
	<clipPath id="SVGID_00000183248087912656483430000005539234542946687912_">
		<use xlink:href="#SVGID_00000075883164639476621500000005022829200174723002_"  style="overflow:visible;"/>
	</clipPath>
	<g style="clip-path:url(#SVGID_00000183248087912656483430000005539234542946687912_);">
		
			<linearGradient id="SVGID_00000031174959220484848860000008359204846841764486_" gradientUnits="userSpaceOnUse" x1="434.3771" y1="324.5017" x2="1555.5275" y2="1773.532" gradientTransform="matrix(1 0 0 1 35.5469 0)">
			<stop  offset="0" style="stop-color:#312A2C"/>
			<stop  offset="1" style="stop-color:#89888D"/>
		</linearGradient>
		<path style="fill:url(#SVGID_00000031174959220484848860000008359204846841764486_);" d="M1035,142.9
			c-503.6,0-911.9,408.3-911.9,911.9c0,503.7,408.3,911.9,911.9,911.9c503.7,0,911.9-408.3,911.9-911.9
			C1946.9,551.2,1538.7,142.9,1035,142.9z M1035,1850.4c-439.4,0-795.6-356.2-795.6-795.6c0-439.4,356.2-795.6,795.6-795.6
			c439.4,0,795.6,356.2,795.6,795.6C1830.6,1494.3,1474.4,1850.4,1035,1850.4z"/>
		
			<radialGradient id="SVGID_00000036939757918034293840000001531675721468167811_" cx="999.4736" cy="1054.8584" r="911.9258" gradientTransform="matrix(1 0 0 1 35.5469 0)" gradientUnits="userSpaceOnUse">
			<stop  offset="0.8517" style="stop-color:#3B3B3B"/>
			<stop  offset="1" style="stop-color:#FFFFFF"/>
		</radialGradient>
		<path style="fill:url(#SVGID_00000036939757918034293840000001531675721468167811_);" d="M1035,142.9
			c-503.6,0-911.9,408.3-911.9,911.9c0,503.7,408.3,911.9,911.9,911.9c503.7,0,911.9-408.3,911.9-911.9
			C1946.9,551.2,1538.7,142.9,1035,142.9z M1035,1850.4c-439.4,0-795.6-356.2-795.6-795.6c0-439.4,356.2-795.6,795.6-795.6
			c439.4,0,795.6,356.2,795.6,795.6C1830.6,1494.3,1474.4,1850.4,1035,1850.4z"/>
		<defs>
			
				<filter id="Adobe_OpacityMaskFilter_00000003076976967008423740000000551282264697271224_" filterUnits="userSpaceOnUse" x="123.1" y="142.9" width="1823.8" height="1823.9">
				<feColorMatrix  type="matrix" values="1 0 0 0 0  0 1 0 0 0  0 0 1 0 0  0 0 0 1 0"/>
			</filter>
		</defs>
		
			<mask maskUnits="userSpaceOnUse" x="123.1" y="142.9" width="1823.8" height="1823.9" id="SVGID_00000090258451578388995810000006165240113281568134_">
			<g style="filter:url(#Adobe_OpacityMaskFilter_00000003076976967008423740000000551282264697271224_);">
				
					<linearGradient id="SVGID_00000125573090969610394920000005053369783754399619_" gradientUnits="userSpaceOnUse" x1="1618.2472" y1="1724.7544" x2="380.7092" y2="384.9756" gradientTransform="matrix(1 0 0 1 35.5469 0)">
					<stop  offset="0" style="stop-color:#FFFFFF"/>
					<stop  offset="1" style="stop-color:#000000"/>
				</linearGradient>
				<path style="fill:url(#SVGID_00000125573090969610394920000005053369783754399619_);" d="M1035,142.9
					c-503.6,0-911.9,408.3-911.9,911.9c0,503.7,408.3,911.9,911.9,911.9c503.7,0,911.9-408.3,911.9-911.9
					C1946.9,551.2,1538.7,142.9,1035,142.9z M1035,1850.4c-439.4,0-795.6-356.2-795.6-795.6c0-439.4,356.2-795.6,795.6-795.6
					c439.4,0,795.6,356.2,795.6,795.6C1830.6,1494.3,1474.4,1850.4,1035,1850.4z"/>
			</g>
		</mask>
		
			<radialGradient id="SVGID_00000016776237067887993770000001243686576119164082_" cx="999.4736" cy="1054.8584" r="911.9258" gradientTransform="matrix(1 0 0 1 35.5469 0)" gradientUnits="userSpaceOnUse">
			<stop  offset="0.8517" style="stop-color:#000000"/>
			<stop  offset="0.9162" style="stop-color:#020202"/>
			<stop  offset="0.9411" style="stop-color:#090909"/>
			<stop  offset="0.9592" style="stop-color:#151515"/>
			<stop  offset="0.9739" style="stop-color:#262626"/>
			<stop  offset="0.9866" style="stop-color:#3D3D3D"/>
			<stop  offset="0.9978" style="stop-color:#585858"/>
			<stop  offset="1" style="stop-color:#5E5E5E"/>
		</radialGradient>
		
			<path style="mask:url(#SVGID_00000090258451578388995810000006165240113281568134_);fill:url(#SVGID_00000016776237067887993770000001243686576119164082_);" d="
			M1035,142.9c-503.6,0-911.9,408.3-911.9,911.9c0,503.7,408.3,911.9,911.9,911.9c503.7,0,911.9-408.3,911.9-911.9
			C1946.9,551.2,1538.7,142.9,1035,142.9z M1035,1850.4c-439.4,0-795.6-356.2-795.6-795.6c0-439.4,356.2-795.6,795.6-795.6
			c439.4,0,795.6,356.2,795.6,795.6C1830.6,1494.3,1474.4,1850.4,1035,1850.4z"/>
	</g>
</g>
<g>
	
		<linearGradient id="SVGID_00000109710992664633247930000018053250639378052747_" gradientUnits="userSpaceOnUse" x1="190.4386" y1="254.4499" x2="1803.3083" y2="1850.1274" gradientTransform="matrix(1 0 0 1 35.5469 0)">
		<stop  offset="0" style="stop-color:#5C5D65"/>
		<stop  offset="1" style="stop-color:#505153"/>
	</linearGradient>
	<path style="fill:url(#SVGID_00000109710992664633247930000018053250639378052747_);" d="M1788.6,232.5H281.4
		c-37.8,0-68.7,30.9-68.7,68.7v1507.2c0,37.8,30.9,68.8,68.7,68.8h1507.2c37.8,0,68.8-30.9,68.8-68.8V301.3
		C1857.4,263.4,1826.4,232.5,1788.6,232.5z M1773.9,270.3c21.8,0,39.5,17.7,39.5,39.5c0,21.8-17.7,39.5-39.5,39.5
		c-21.8,0-39.5-17.7-39.5-39.5C1734.3,288,1752,270.3,1773.9,270.3z M290,270.3c21.8,0,39.5,17.7,39.5,39.5
		c0,21.8-17.7,39.5-39.5,39.5c-21.8,0-39.5-17.7-39.5-39.5C250.5,288,268.2,270.3,290,270.3z M290,1833.2
		c-21.8,0-39.5-17.7-39.5-39.5c0-21.8,17.7-39.5,39.5-39.5c21.8,0,39.5,17.7,39.5,39.5C329.6,1815.5,311.9,1833.2,290,1833.2z
		 M1773.9,1833.2c-21.8,0-39.5-17.7-39.5-39.5c0-21.8,17.7-39.5,39.5-39.5c21.8,0,39.5,17.7,39.5,39.5
		C1813.4,1815.5,1795.7,1833.2,1773.9,1833.2z M1830.6,1500.8c-82.1,146.2-203.3,267.4-349.6,349.6H589
		c-146.2-82.1-267.4-203.3-349.6-349.6V608.9C321.6,462.7,442.9,341.4,589,259.3h892c146.2,82.1,267.4,203.3,349.6,349.6V1500.8z"/>
	<g>
		<image style="overflow:visible;" width="1656" height="1656" xlink:href="657CC1AC.png"  transform="matrix(1 0 0 1 207 227)">
		</image>
	</g>
</g>
<g id="ScrewDots">
	<g>
		
			<linearGradient id="SVGID_00000181776611455791521810000013215160551741004945_" gradientUnits="userSpaceOnUse" x1="280.6702" y1="1825.1268" x2="227.7851" y2="1761.6647" gradientTransform="matrix(1 0 0 1 35.5469 0)">
			<stop  offset="0" style="stop-color:#807D80"/>
			<stop  offset="1" style="stop-color:#282325"/>
		</linearGradient>
		<path style="fill:url(#SVGID_00000181776611455791521810000013215160551741004945_);" d="M290,1835.9c-23.3,0-42.2-18.9-42.2-42.2
			c0-23.3,18.9-42.2,42.2-42.2c23.3,0,42.2,18.9,42.2,42.2C332.2,1817,313.3,1835.9,290,1835.9z M290,1756.8
			c-20.3,0-36.9,16.5-36.9,36.9c0,20.3,16.5,36.9,36.9,36.9c20.3,0,36.9-16.5,36.9-36.9C326.9,1773.3,310.4,1756.8,290,1756.8z"/>
	</g>
	<g>
		
			<radialGradient id="SVGID_00000080186977799866593600000002098177211684547712_" cx="258.7501" cy="1712.9656" r="61.9985" gradientTransform="matrix(1 0 0 1 35.5469 0)" gradientUnits="userSpaceOnUse">
			<stop  offset="0" style="stop-color:#E6E6E6"/>
			<stop  offset="1" style="stop-color:#B8B8B8"/>
		</radialGradient>
		<path style="fill:url(#SVGID_00000080186977799866593600000002098177211684547712_);" d="M307.8,1688.5
			c0,18.1-14.6,32.7-32.7,32.7c-18.1,0-32.7-14.7-32.7-32.7c0-18.1,14.6-32.7,32.7-32.7C293.2,1655.8,307.8,1670.4,307.8,1688.5z"/>
		<g>
			
				<linearGradient id="SVGID_00000179628284197018329380000004624263350030591403_" gradientUnits="userSpaceOnUse" x1="265.7784" y1="1719.9318" x2="212.8911" y2="1656.4672" gradientTransform="matrix(1 0 0 1 35.5469 0)">
				<stop  offset="0" style="stop-color:#807D80"/>
				<stop  offset="1" style="stop-color:#282325"/>
			</linearGradient>
			<path style="fill:url(#SVGID_00000179628284197018329380000004624263350030591403_);" d="M275.1,1730.7
				c-23.3,0-42.2-18.9-42.2-42.2c0-23.3,18.9-42.2,42.2-42.2c23.3,0,42.2,18.9,42.2,42.2C317.3,1711.8,298.4,1730.7,275.1,1730.7z
				 M275.1,1657.4c-17.2,0-31.1,13.9-31.1,31.1c0,17.1,14,31.1,31.1,31.1c17.1,0,31.1-14,31.1-31.1
				C306.2,1671.3,292.3,1657.4,275.1,1657.4z"/>
		</g>
	</g>
	<g>
		
			<radialGradient id="SVGID_00000006702314266412183250000006023956402784756611_" cx="258.7501" cy="447.0058" r="61.9976" gradientTransform="matrix(1 0 0 1 35.5469 0)" gradientUnits="userSpaceOnUse">
			<stop  offset="0" style="stop-color:#E6E6E6"/>
			<stop  offset="1" style="stop-color:#B8B8B8"/>
		</radialGradient>
		<path style="fill:url(#SVGID_00000006702314266412183250000006023956402784756611_);" d="M307.8,422.5c0,18.1-14.6,32.7-32.7,32.7
			c-18.1,0-32.7-14.6-32.7-32.7c0-18.1,14.6-32.7,32.7-32.7C293.2,389.8,307.8,404.5,307.8,422.5z"/>
		<g>
			
				<linearGradient id="SVGID_00000165945887487040940740000014033373743771171770_" gradientUnits="userSpaceOnUse" x1="265.7779" y1="453.9733" x2="212.8916" y2="390.5099" gradientTransform="matrix(1 0 0 1 35.5469 0)">
				<stop  offset="0" style="stop-color:#807D80"/>
				<stop  offset="1" style="stop-color:#282325"/>
			</linearGradient>
			<path style="fill:url(#SVGID_00000165945887487040940740000014033373743771171770_);" d="M275.1,464.7
				c-23.3,0-42.2-18.9-42.2-42.2s18.9-42.2,42.2-42.2c23.3,0,42.2,18.9,42.2,42.2S298.4,464.7,275.1,464.7z M275.1,391.4
				c-17.2,0-31.1,13.9-31.1,31.1c0,17.2,14,31.1,31.1,31.1c17.1,0,31.1-14,31.1-31.1C306.2,405.4,292.3,391.4,275.1,391.4z"/>
		</g>
	</g>
	<g>
		
			<radialGradient id="SVGID_00000152233261220192485960000013643440606084022203_" cx="385.6741" cy="319.4206" r="62.0031" gradientTransform="matrix(1 0 0 1 35.5469 0)" gradientUnits="userSpaceOnUse">
			<stop  offset="0" style="stop-color:#E6E6E6"/>
			<stop  offset="1" style="stop-color:#B8B8B8"/>
		</radialGradient>
		<path style="fill:url(#SVGID_00000152233261220192485960000013643440606084022203_);" d="M434.8,294.9c0,18.1-14.7,32.7-32.7,32.7
			c-18.1,0-32.7-14.6-32.7-32.7c0-18.1,14.7-32.7,32.7-32.7C420.1,262.2,434.8,276.9,434.8,294.9z"/>
		<g>
			
				<linearGradient id="SVGID_00000007429285469323268400000015487004493932628613_" gradientUnits="userSpaceOnUse" x1="392.696" y1="326.3881" x2="339.8126" y2="262.9281" gradientTransform="matrix(1 0 0 1 35.5469 0)">
				<stop  offset="0" style="stop-color:#807D80"/>
				<stop  offset="1" style="stop-color:#282325"/>
			</linearGradient>
			<path style="fill:url(#SVGID_00000007429285469323268400000015487004493932628613_);" d="M402.1,337.1
				c-23.3,0-42.2-18.9-42.2-42.2c0-23.3,18.9-42.2,42.2-42.2c23.3,0,42.2,18.9,42.2,42.2C444.2,318.2,425.3,337.1,402.1,337.1z
				 M402.1,263.8c-17.1,0-31.1,14-31.1,31.1c0,17.2,14,31.1,31.1,31.1c17.1,0,31.1-13.9,31.1-31.1
				C433.2,277.8,419.2,263.8,402.1,263.8z"/>
		</g>
	</g>
	<g>
		
			<radialGradient id="SVGID_00000104685385464887055700000017252660009922525568_" cx="372.8925" cy="1833.7211" r="62.0041" gradientTransform="matrix(1 0 0 1 35.5469 0)" gradientUnits="userSpaceOnUse">
			<stop  offset="0" style="stop-color:#E6E6E6"/>
			<stop  offset="1" style="stop-color:#B8B8B8"/>
		</radialGradient>
		<path style="fill:url(#SVGID_00000104685385464887055700000017252660009922525568_);" d="M422,1809.2c0,18.1-14.7,32.7-32.7,32.7
			c-18.1,0-32.7-14.7-32.7-32.7c0-18.1,14.7-32.7,32.7-32.7C407.3,1776.5,422,1791.2,422,1809.2z"/>
		<g>
			
				<linearGradient id="SVGID_00000013878584698282227750000008287114472287501485_" gradientUnits="userSpaceOnUse" x1="379.9155" y1="1840.6868" x2="327.0294" y2="1777.2235" gradientTransform="matrix(1 0 0 1 35.5469 0)">
				<stop  offset="0" style="stop-color:#807D80"/>
				<stop  offset="1" style="stop-color:#282325"/>
			</linearGradient>
			<path style="fill:url(#SVGID_00000013878584698282227750000008287114472287501485_);" d="M389.3,1851.4
				c-23.3,0-42.2-18.9-42.2-42.2c0-23.3,18.9-42.2,42.2-42.2c23.3,0,42.2,18.9,42.2,42.2C431.4,1832.5,412.5,1851.4,389.3,1851.4z
				 M389.3,1778.1c-17.1,0-31.1,14-31.1,31.1c0,17.2,14,31.1,31.1,31.1c17.1,0,31.1-13.9,31.1-31.1
				C420.4,1792.1,406.4,1778.1,389.3,1778.1z"/>
		</g>
	</g>
	<g>
		
			<radialGradient id="SVGID_00000112609127219740086360000002133052512901526455_" cx="1771.9385" cy="1712.9583" r="61.999" gradientTransform="matrix(1 0 0 1 35.5469 0)" gradientUnits="userSpaceOnUse">
			<stop  offset="0" style="stop-color:#E6E6E6"/>
			<stop  offset="1" style="stop-color:#B8B8B8"/>
		</radialGradient>
		<path style="fill:url(#SVGID_00000112609127219740086360000002133052512901526455_);" d="M1821,1688.5c0,18.1-14.6,32.7-32.7,32.7
			c-18.1,0-32.7-14.6-32.7-32.7c0-18.1,14.6-32.7,32.7-32.7C1806.4,1655.8,1821,1670.4,1821,1688.5z"/>
		<g>
			
				<linearGradient id="SVGID_00000163760551852902036260000000546003179761323708_" gradientUnits="userSpaceOnUse" x1="1778.9685" y1="1719.9276" x2="1726.0835" y2="1656.4656" gradientTransform="matrix(1 0 0 1 35.5469 0)">
				<stop  offset="0" style="stop-color:#807D80"/>
				<stop  offset="1" style="stop-color:#282325"/>
			</linearGradient>
			<path style="fill:url(#SVGID_00000163760551852902036260000000546003179761323708_);" d="M1788.3,1730.7
				c-23.3,0-42.2-18.9-42.2-42.2c0-23.3,18.9-42.2,42.2-42.2c23.3,0,42.2,18.9,42.2,42.2C1830.5,1711.8,1811.6,1730.7,1788.3,1730.7
				z M1788.3,1657.4c-17.2,0-31.1,14-31.1,31.1c0,17.2,14,31.1,31.1,31.1c17.1,0,31.1-13.9,31.1-31.1
				C1819.4,1671.3,1805.5,1657.4,1788.3,1657.4z"/>
		</g>
	</g>
	<g>
		
			<radialGradient id="SVGID_00000067206648771221825730000007941617477601834942_" cx="1771.9385" cy="442.5973" r="61.9979" gradientTransform="matrix(1 0 0 1 35.5469 0)" gradientUnits="userSpaceOnUse">
			<stop  offset="0" style="stop-color:#E6E6E6"/>
			<stop  offset="1" style="stop-color:#B8B8B8"/>
		</radialGradient>
		<path style="fill:url(#SVGID_00000067206648771221825730000007941617477601834942_);" d="M1821,418.1c0,18.1-14.6,32.7-32.7,32.7
			c-18.1,0-32.7-14.6-32.7-32.7c0-18.1,14.6-32.7,32.7-32.7C1806.4,385.4,1821,400.1,1821,418.1z"/>
		<g>
			
				<linearGradient id="SVGID_00000150096684268744349940000000870871722275189165_" gradientUnits="userSpaceOnUse" x1="1778.969" y1="449.565" x2="1726.083" y2="386.1019" gradientTransform="matrix(1 0 0 1 35.5469 0)">
				<stop  offset="0" style="stop-color:#807D80"/>
				<stop  offset="1" style="stop-color:#282325"/>
			</linearGradient>
			<path style="fill:url(#SVGID_00000150096684268744349940000000870871722275189165_);" d="M1788.3,460.3
				c-23.3,0-42.2-18.9-42.2-42.2c0-23.3,18.9-42.2,42.2-42.2c23.3,0,42.2,18.9,42.2,42.2C1830.5,441.4,1811.6,460.3,1788.3,460.3z
				 M1788.3,387c-17.2,0-31.1,13.9-31.1,31.1c0,17.2,14,31.1,31.1,31.1c17.1,0,31.1-14,31.1-31.1C1819.4,401,1805.5,387,1788.3,387z
				"/>
		</g>
	</g>
	<g>
		
			<radialGradient id="SVGID_00000068652076048055987600000001527674702941306303_" cx="1647.6591" cy="317.99" r="61.9985" gradientTransform="matrix(1 0 0 1 35.5469 0)" gradientUnits="userSpaceOnUse">
			<stop  offset="0" style="stop-color:#E6E6E6"/>
			<stop  offset="1" style="stop-color:#B8B8B8"/>
		</radialGradient>
		<path style="fill:url(#SVGID_00000068652076048055987600000001527674702941306303_);" d="M1696.8,293.5
			c0,18.1-14.6,32.7-32.7,32.7c-18.1,0-32.7-14.6-32.7-32.7c0-18.1,14.6-32.7,32.7-32.7C1682.1,260.8,1696.8,275.4,1696.8,293.5z"/>
		<g>
			
				<linearGradient id="SVGID_00000047752942440767565940000002898066642563711393_" gradientUnits="userSpaceOnUse" x1="1654.6891" y1="324.9561" x2="1601.8041" y2="261.4942" gradientTransform="matrix(1 0 0 1 35.5469 0)">
				<stop  offset="0" style="stop-color:#807D80"/>
				<stop  offset="1" style="stop-color:#282325"/>
			</linearGradient>
			<path style="fill:url(#SVGID_00000047752942440767565940000002898066642563711393_);" d="M1664,335.7
				c-23.3,0-42.2-18.9-42.2-42.2c0-23.3,18.9-42.2,42.2-42.2c23.3,0,42.2,18.9,42.2,42.2C1706.2,316.8,1687.3,335.7,1664,335.7z
				 M1664,262.4c-17.2,0-31.1,14-31.1,31.1c0,17.2,14,31.1,31.1,31.1c17.1,0,31.1-13.9,31.1-31.1
				C1695.1,276.4,1681.2,262.4,1664,262.4z"/>
		</g>
	</g>
	<g>
		
			<radialGradient id="SVGID_00000147192328584561861080000009568930751492184216_" cx="1653.2784" cy="1833.7211" r="62.0041" gradientTransform="matrix(1 0 0 1 35.5469 0)" gradientUnits="userSpaceOnUse">
			<stop  offset="0" style="stop-color:#E6E6E6"/>
			<stop  offset="1" style="stop-color:#B8B8B8"/>
		</radialGradient>
		<path style="fill:url(#SVGID_00000147192328584561861080000009568930751492184216_);" d="M1702.4,1809.2
			c0,18.1-14.7,32.7-32.7,32.7c-18.1,0-32.7-14.7-32.7-32.7c0-18.1,14.7-32.7,32.7-32.7C1687.7,1776.5,1702.4,1791.2,1702.4,1809.2z
			"/>
		<g>
			
				<linearGradient id="SVGID_00000027605721798687814730000000901540661312108212_" gradientUnits="userSpaceOnUse" x1="1660.3019" y1="1840.6853" x2="1607.417" y2="1777.2236" gradientTransform="matrix(1 0 0 1 35.5469 0)">
				<stop  offset="0" style="stop-color:#807D80"/>
				<stop  offset="1" style="stop-color:#282325"/>
			</linearGradient>
			<path style="fill:url(#SVGID_00000027605721798687814730000000901540661312108212_);" d="M1669.7,1851.4
				c-23.3,0-42.2-18.9-42.2-42.2c0-23.3,18.9-42.2,42.2-42.2c23.3,0,42.2,18.9,42.2,42.2C1711.8,1832.5,1692.9,1851.4,1669.7,1851.4
				z M1669.7,1778.1c-17.1,0-31.1,14-31.1,31.1c0,17.2,14,31.1,31.1,31.1c17.2,0,31.1-13.9,31.1-31.1
				C1700.8,1792.1,1686.8,1778.1,1669.7,1778.1z"/>
		</g>
	</g>
	<g>
		
			<linearGradient id="SVGID_00000096023607864541725860000017044471580898247842_" gradientUnits="userSpaceOnUse" x1="1764.2935" y1="1825.126" x2="1711.4094" y2="1761.6653" gradientTransform="matrix(1 0 0 1 35.5469 0)">
			<stop  offset="0" style="stop-color:#807D80"/>
			<stop  offset="1" style="stop-color:#282325"/>
		</linearGradient>
		<path style="fill:url(#SVGID_00000096023607864541725860000017044471580898247842_);" d="M1773.6,1835.9
			c-23.3,0-42.2-18.9-42.2-42.2c0-23.3,18.9-42.2,42.2-42.2c23.3,0,42.2,18.9,42.2,42.2C1815.8,1817,1796.9,1835.9,1773.6,1835.9z
			 M1773.6,1756.8c-20.3,0-36.9,16.5-36.9,36.9c0,20.3,16.5,36.9,36.9,36.9c20.3,0,36.9-16.5,36.9-36.9
			C1810.5,1773.3,1794,1756.8,1773.6,1756.8z"/>
	</g>
	<g>
		
			<linearGradient id="SVGID_00000036224392631862518610000006924958075105225894_" gradientUnits="userSpaceOnUse" x1="280.6707" y1="341.2988" x2="227.7845" y2="277.8354" gradientTransform="matrix(1 0 0 1 35.5469 0)">
			<stop  offset="0" style="stop-color:#807D80"/>
			<stop  offset="1" style="stop-color:#282325"/>
		</linearGradient>
		<path style="fill:url(#SVGID_00000036224392631862518610000006924958075105225894_);" d="M290,352c-23.3,0-42.2-18.9-42.2-42.2
			c0-23.3,18.9-42.2,42.2-42.2c23.3,0,42.2,18.9,42.2,42.2C332.2,333.1,313.3,352,290,352z M290,273c-20.3,0-36.9,16.5-36.9,36.9
			c0,20.3,16.5,36.9,36.9,36.9c20.3,0,36.9-16.5,36.9-36.9C326.9,289.5,310.4,273,290,273z"/>
	</g>
	<g>
		
			<linearGradient id="SVGID_00000029004550338687344500000010435816717115007121_" gradientUnits="userSpaceOnUse" x1="1764.2939" y1="341.2979" x2="1711.4089" y2="277.8359" gradientTransform="matrix(1 0 0 1 35.5469 0)">
			<stop  offset="0" style="stop-color:#807D80"/>
			<stop  offset="1" style="stop-color:#282325"/>
		</linearGradient>
		<path style="fill:url(#SVGID_00000029004550338687344500000010435816717115007121_);" d="M1773.6,352c-23.3,0-42.2-18.9-42.2-42.2
			c0-23.3,18.9-42.2,42.2-42.2c23.3,0,42.2,18.9,42.2,42.2C1815.8,333.1,1796.9,352,1773.6,352z M1773.6,273
			c-20.3,0-36.9,16.5-36.9,36.9c0,20.3,16.5,36.9,36.9,36.9c20.3,0,36.9-16.5,36.9-36.9C1810.5,289.5,1794,273,1773.6,273z"/>
	</g>
</g>
<g>
	<path class="st35" d="M1347.1,900.8l37.9,41.5l0.8-56.3l9.4-3.6l-1.2,70.9l-8.6,3.3l-47.7-52.3L1347.1,900.8z"/>
	<path class="st35" d="M1427.6,869.6c14.5-5.5,24.1-7.6,31.8,12.8c3.4,8.9,0.6,15.9-10.5,20.2l-26,9.9c5.5,14.5,9.6,17,18.6,13.6
		c10.7-4.1,20.3-7.6,28.5-12.2l2.5,6.5c-8.4,6.2-18.1,10.6-27.7,14.2c-15.6,6-23.1,0.2-32.3-23.9
		C1402.1,883.3,1408.6,876.9,1427.6,869.6z M1445.7,894.2c5.1-1.9,6.6-4.6,5.1-8.5c-4.6-12.2-7.3-12.3-19.8-7.6
		c-13.1,5-18.4,7.1-11.2,25.9L1445.7,894.2z"/>
	<path class="st35" d="M1481.8,848.8c6-2.3,18.9-5.5,27.6-7.1l2.4,6.2c0,0-16.3,5.5-26.6,9.4c-6.9,2.6-11.2,5.7-2.9,27.6
		c6.7,17.7,11.9,21.1,20.2,17.9c10.7-4.1,26.7-11.6,26.7-11.6l2.5,6.5c-8.4,6.2-16.4,10-25.9,13.7c-11.5,4.4-21.9,3.4-32.2-23.6
		C1463.2,861,1470,853.3,1481.8,848.8z"/>
	<path class="st35" d="M1516.9,838.4l10.7-6.5l-4.5-17.9l6.5-2.5l6.5,17.1l17.9-6.8l3.3,8.6l-17.9,6.8l11.8,31.1
		c3.9,10.1,7.4,11.4,11.7,10.8c0,0,10.4-1.2,11.2-1.5l2.3,6.1l-10.2,3.9c-8.9,3.4-17.4,0.3-23.6-16.1l-11.8-31.1l-11.5,4.4
		L1516.9,838.4z"/>
	<path class="st35" d="M1590.2,807.5c20.7-7.9,30.1-2.6,39.4,21.9c8.7,22.8,5.2,32.9-15.5,40.8c-20.7,7.9-30.3,1.9-38.7-20.1
		C1565.8,824.9,1570.1,815.2,1590.2,807.5z M1610.9,861.6c12.5-4.8,17.9-8.7,10.2-29c-8.4-22-14-21.7-27.5-16.5
		c-13,4.9-18,8.6-9.5,30.7C1591.8,867.3,1598.9,866.1,1610.9,861.6z"/>
	<path class="st35" d="M1630.3,792.9l6-2.3l5.5,6.8c5.5-6.7,10.2-13.6,19.7-17.2c3.4-1.3,7.3-2.5,8.9-2.4l3.2,8.4
		c-1.5,0.2-5.5,1.3-8.8,2.6c-9.2,3.5-13.1,7.8-20.4,15.5l17.8,46.8l-8.6,3.3L1630.3,792.9z"/>
</g>
<g>
	<path class="st35" d="M1009.1,942.3c-3.3-9.7-8.1-10.2-12.1-8.9l-18.5,6.1l8,24.1l18.5-6.1C1010,955.8,1012.4,952.2,1009.1,942.3z"
		/>
	<path class="st35" d="M970.2,863.3c-105.7,35-163,149.1-128,254.8c35,105.7,149.1,163,254.8,128c105.7-35,163-149.1,128-254.8
		C1189.9,885.6,1075.9,828.3,970.2,863.3z M1036.9,1202l-19.1,6.3l-43.6-131.7l-30,21.2l-4.4-13.2l27.6-28.6l19.1-6.3L1036.9,1202z
		 M954.1,948.5l-32.6,10.8c-5.8,1.9-4.8,5.2-3.8,8.2l4.3,12.9l33.7-9.8l4.3,13l-33,12.1l4.3,12.9c2,6,5.6,4.7,8.9,3.6l31.5-10.4
		l4.3,12.9c-6.1,3-34.5,13.6-34.5,13.6c-7.3,2.8-19.5,5-24.5-10.3l-16.3-49.2c-4.7-14.3,4.4-20.6,12.3-23.1c0,0,29.3-8.8,36.9-10.3
		L954.1,948.5z M1001.3,1008l-15.8,5.2l-27.3-82.5l35.5-11.8c10.3-3.4,24-4.4,31.3,17.9c8.3,25.2-4.5,31.5-14.1,34.2
		c-4.6,1.3-19.8,4.4-20.4,4.3L1001.3,1008z M1160.4,1122.7c8.2,24.8-2.6,39.3-23.9,46.3l-34.1,11.3c-20.1,6.7-39.6,2.4-47.9-22.6
		l-27.4-82.7c-7.7-23.1,4.2-40.1,24.9-47l34.1-11.3c26.1-8.6,40.7,4.5,46.8,22.9L1160.4,1122.7z M1103.3,950.6
		c6.2,18.7-4.3,26.1-15.5,29.8c-14.1,4.7-23.6,6.8-33,7.2l-4.1-12.4c4.6-1.1,18.7-4.8,29.2-8.3c4.8-1.6,9.9-4.1,7.8-10.5l-1.5-4.5
		c-1.6-4.7-4-7.2-10-5.2l-12.7,4.2c-19.9,6.6-26.2-7.6-28.5-14.8l-2.4-7.1c-5.4-16.3,2.7-24.3,15.3-28.7c11.8-4.2,25.8-7.1,33-7.3
		l4.1,12.4c-7.4,1.7-23.8,6.6-27.9,8c-6.9,2.1-10.8,3.9-8.2,11.6l1.3,4c2.2,6.6,5.1,7.1,11.5,5l13-4.3c16.2-5.4,23.7,6.3,26.8,15.4
		L1103.3,950.6z"/>
	<path class="st35" d="M1090.5,1035.9l-30.8,10.2c-14,4.6-16.1,14.7-13.1,23.6l26.6,80.5c4.5,13.6,15.7,14.1,24.9,11.1l30.3-10
		c12.4-4.1,16.2-12.2,12.4-23.4l-26.7-80.5C1111,1037.7,1104.4,1031.3,1090.5,1035.9z"/>
</g>
</svg>
