<?xml version="1.0" encoding="utf-8"?>
<!-- Generator: Adobe Illustrator 24.2.0, SVG Export Plug-In . SVG Version: 6.00 Build 0)  -->
<svg version="1.1" id="Layer_1" xmlns="http://www.w3.org/2000/svg" xmlns:xlink="http://www.w3.org/1999/xlink" x="0px" y="0px"
	 viewBox="0 0 366 433" style="enable-background:new 0 0 366 433;" xml:space="preserve">
<style type="text/css">
	.st0{opacity:0.1;}
	.st1{opacity:0.7;fill-rule:evenodd;clip-rule:evenodd;fill:#69A1AC;enable-background:new    ;}
	.st2{opacity:0.7;fill-rule:evenodd;clip-rule:evenodd;fill:#89C5CC;enable-background:new    ;}
	.st3{opacity:4.000000e-02;}
	.st4{fill-rule:evenodd;clip-rule:evenodd;fill:#F2F2F2;}
	.st5{fill-rule:evenodd;clip-rule:evenodd;fill:#FFA800;}
	.st6{fill:#E49963;}
	.st7{fill:#163560;}
	.st8{fill:#ED7D2B;}
	.st9{fill:#599DAD;}
	.st10{fill:#6BB7BF;}
	.st11{fill:#5AA9AD;}
	.st12{fill:#F99746;}
	.st13{fill:#D68D5D;}
	.st14{fill:#4A75CB;}
	.st15{fill:#2B478B;}
</style>
<g class="st0">
	<path class="st1" d="M23.9,191c12.1-0.6,27,6.4,28.3,19.5c0.9,9.5,0.6,19,2.1,28.5c1.2,7.6,3.6,14.9,7,21.8
		c3.2,6.7,9.9,12.3,11.6,19.4c1.1,4.5,0.5,10.9-1,15.3c-1.9,5.4-0.9,5,2.8,9.5c7.2,8.9,13.8,18,18.4,28.5c6.6,15.3,11,33.1,8.5,49.8
		c-0.3,2.1-0.7,9.7-3.6,10.3c-3.3,0.6-1.7-3.8-1.6-5.2c1.1-9,2.1-16.8,0.8-25.9c-5.2-35.1-30.4-58.3-46.9-88.1
		c-0.9-1.5-2.8-5.2-4.1-7.6c-2.1-3.8-4.2-11.1-7-13.9c-5.3-5.3-0.4,5.4,0.6,7.4c1.3,2.6,2.8,5.3,4.1,7.6c6.2,10.5,13.1,22,19.4,32.8
		c-27.6,6.3-47-26.8-54.4-48.6C2.8,234.4-4.5,192.5,23.9,191z"/>
	<path class="st2" d="M185.8,157.7c-20.2,1.6-33.2,14.9-39.2,33.5c-3.3,10-3.6,20.3-5.4,30.6c-2.7,15.5-8.6,27.3-20,38.3
		c-3.5,3.4-6.2,6.9-8,10.7c-3.7,3.8-6.9,8-9.2,13.2c-3,6.6-3.9,14.6-0.4,21.2c0.9,1.8,3.3,5.3,5.7,7c-9,19.2-14,40.3-13.5,61.3
		c0.3,12.7,1,25.4,1.7,38.1c0.2,3.4,1.3,9,3,3.3c1.5-5.2-0.4-13.4-0.6-18.9c-0.9-26.6-1.6-50.8,9.4-75.6c1.1-2.6,2.4-5.2,3.6-7.7
		c0.1,0,0.1-0.1,0.2-0.1c0,0,0.1,0.1,0.1,0.1c0.1-0.1,0.2-0.3,0.3-0.5c0.4-0.4,0.7-0.8,1-1.4c1-1.3,2.1-2.9,2.1-3.8c0,0,0,0,0,0
		c6.8-11.1,14.6-21.5,22.5-31.7c-0.1,0.1,8.6-11.7,7.3-5.2c-0.6,3.1-7,9.1-9.6,12.4c-5.7,7.4-12.4,16.8-17.9,25.8
		c-0.7,0.4-1.8,2.5-2.6,4.1c-0.4,0.8-0.8,1.6-1.2,2.3c19.7,6.5,35-6.6,45.5-21.8c0,0,0,0,0-0.1c3.2-4.2,6.4-8.4,10.5-11.7
		c6.8-5.5,14.1-6.5,22.1-9.3c21.8-7.4,31.1-35.7,34.1-56.6C230.5,191.6,214.2,155.4,185.8,157.7z"/>
	<path class="st2" d="M145.9,91.5c-20.7,21.5-30.8,51.4-38.7,79.5c-8.9,31.4-14.7,63.2-14.9,95.9c-0.1,21.4-0.7,43,0.5,64.4
		c0.4,7.6,1.2,15.2,2.4,22.7c0.1,0.6,2.8,17.4,5.4,13.5c1.5-2.2-2.8-17.4-3.1-20c-1.8-14.3-2.2-28.6-2.1-43
		c0.1-23.6-0.6-47.2,1.8-70.7c0.4-3.5,0.6-7.2,1.5-10.7c0.9-3.7-0.2-2.1,2.7-3.5c2.8-1.4,6.3-1.2,9.2-3c11.6-7,17.5-25,22.1-36.8
		c5.3-13.5,8.5-27.9,11-42.1c1.9-10.4,3.2-20.8,4-31.4c0.2-3.3,0.3-6.8,0.9-10.1c0.2-0.9,1.1-2.4,1-3.2c-0.1-1.7-1.1-2.6-1.2-4
		C147.6,89.9,146.8,90.7,145.9,91.5z"/>
	<path class="st2" d="M32.9,378.5c0,35.6,28.9,64.5,64.6,64.5c35.7,0,64.6-28.9,64.6-64.5"/>
	<path class="st1" d="M102.7,378.7h-3.4c0.2-4.3,0.5-8.5,1.3-12.8c2.7-16.2,11.3-39.9,30.1-42.6c0.7-0.1,3.2-0.1,6.3,0.1
		c1.5-0.8,3.1-1.3,4.8-1.4c16-1.2,33.9,11.7,41.6,25.1c6.2,10.8,5.2,25,1.3,36.5c-2.6,7.7-8.2,18.6-17.5,18.8
		c-11.7,0.1-12.3-14.3-12.5-22.8c-0.3-11.2-1.7-21-10.6-28.7c-2.1-1.8-4.3-3.4-6.4-5.1c-3.3-2.8-6.9-5.6-7.3-10.1
		c-0.6-6.3,3-7.4,8.4-6.2c0.9,0.2,10.2,4.4,8.9,1.1c-0.4-1-2-1.8-3.9-2.4c-5-0.5-11-1.2-12.7-0.8c-18.6,4.1-25.8,29.8-27.7,46.1
		C103,375.2,102.8,376.9,102.7,378.7z"/>
</g>
<g class="st3">
	<path class="st4" d="M311.4,150.5c-3.9-1.9-9,0.3-6.9,5.4c2.3,5.4,10.8,5.5,15.6,5.4c-0.5,0-2-5-2.6-5.7
		C316.1,153.3,313.8,151.7,311.4,150.5z M355.9,247.5C356.9,248.3,356,247.6,355.9,247.5L355.9,247.5z M307.7,175
		c-2.3,1.7-2.4,4.8-0.5,6.8c2.2,2.5,6.2,2.4,9.2,2.1c1.4-0.1,8.6-0.7,6.9-1.9c0.1,0.1,0.4,0.2,0.7,0.3c0.2,0.6,0.3,1.2,0.5,1.7
		c0,0-0.1,0.1-0.1,0.1c0,0,0.1,0,0.1-0.1c1.7,5.7,4.2,11.2,7.5,16.3c-1.2-0.5-2.5-0.8-3.7-1c-3.8-0.5-11.7,2.5-7.5,7.5
		c4,4.8,10.3-0.4,14.9-1.1c4.5,6.2,9.4,12.2,14.5,17.9c-0.3,0.1-0.6,0.3-0.8,0.6c-2.1-1-4.2-2.5-6.1-2.9c-2.8-0.6-8.4-0.9-10.5,1.5
		c-2.6,3,0.2,5.5,3.2,6.1c4.4,0.8,10.1-1.3,14.4-2.7c0.5,0.1,1-0.1,1.3-0.4c0.1,0,0.2-0.1,0.3-0.1c5.2,5.7,10.6,11.3,16,16.7
		c-0.1,0-0.1,0-0.2,0c-1.4-0.9-2.9-1.7-4.5-2.1c-3.8-0.9-8.2-0.9-11.3,1.8c-3.1,2.7-4.1,7.5-1,10.5c6.3,6.1,15.6-7.8,18.8-8.4
		c5.5,5.4,11.2,10.5,17.1,15.5c-0.7-0.2-1.4-0.4-2.1-0.4c-5.8-0.6-19.3,6.5-12.2,13.4c6.2,6,13.3-5.6,18.2-9.7
		c5.5,4.6,11.1,9.3,16.5,14c-2.9-0.8-5.8-0.9-9,0.1c-3.3,1-8.5,3.5-6.5,7.9c2.1,4.5,8.4,2.4,11.7,1c1.8-0.8,5.4-3.4,8.6-4.5
		c8.6,8.1,16.1,17.1,21.8,27.6c3.5,6.6,6.2,13.6,8.1,20.9c1.2,4.6,3.6,12.4,3.1,18.4c2.3-12-1.8-26.5-6.2-37.2
		c-4.1-9.9-10.1-18.6-17.2-26.4c1.8-5.4,16.8-13.1,7.8-18.1c-4.8-2.6-9.6,1.7-10.7,6.4c-0.7,3.2,0.4,7.2,1.5,10.3
		c-2.2-2.4-4.6-4.7-7-6.9c-3.3-3.1-6.7-6.1-10.1-9c5.6-5.3,11-20.4,3.4-22.9c-11.2-3.6-5.8,17-5,20.8c0.2,0,0.4-0.1,0.5-0.2
		c-0.1,0.4-0.1,0.7-0.2,1.1c-6.5-5.6-13.2-11.1-19.6-16.9c0.6-0.4,1.5-2.1,2.2-2.9c1.6-2,3.2-4,4.3-6.3c1.8-3.6,3.5-9.4-1.2-11.5
		c-5.2-2.3-7.7,4.2-7.7,8.1c0,2.7,0.7,5.3,1.1,7.9c0.1,0.8-0.3,4.5,0.8,2.9c-0.1,0.6-0.1,1,0,1.3c-1.2-1-2.3-2.1-3.4-3.1
		c0.1-0.1,0.1-0.3,0.1-0.4c0.1-1.2-1.1-1.6-1.9-1.3c-1.5-1.4-3-2.9-4.4-4.3c-3.1-3.1-6.2-6.3-9.4-9.6c0.7-0.6,0.4-1.4,1-2
		c0.6-0.6,1.9-1,2.6-1.5c1.9-1.4,3.4-3.5,4.5-5.6c1.8-3.4,4.2-10.5-1.2-12.2c-5.6-1.7-8.4,5.2-8.8,9.5c-0.1,0.8,0.6,8.3,1,11.1
		c-5.8-6.1-11.4-12.4-16.6-18.8c1.6,0,6-3.2,6.9-4.1c2.2-2.1,5.6-6.8,1.8-9.3c-3.4-2.2-7.6,1-9,4.1c-0.2,0.5-1.1,5.3-1.1,7.4
		c-2.1-2.7-4.2-5.5-6-8.2c-1.3-1.8-2.4-3.7-3.5-5.6c0.3-0.1,0.5-0.4,0.8-0.7c5.7-1,12.9-9.8,6.2-12.9c-3.2-1.5-6.6,1.6-8.2,4
		c-0.3,0.5-0.8,3-1.3,5c-3.2-6.3-5.6-13.1-7.4-19.9c0.5-0.1,0.9-0.5,1-1.1c2.8-1.6,4.9-2.9,6.8-5.9c1.2-1.9,3.3-6.1-0.2-7.2
		c-4.6-1.3-7.4,5.6-7.8,9c0,0.4,0,1.6,0,2.6c-0.2,0-0.3,0-0.5,0c-1-4.3-1.9-8.6-2.5-12.9c2.5-0.8,2.9-13.9,1.3-15.7
		c-3.7-4.2-6.3,1.8-6.1,5c0.2,3.7,1.9,7.2,4,10.2c0.2,0.3,0.2,0.3,0.2-0.1c0,0.2,0.1,0.4,0.2,0.5c-0.1,2-0.3,4-0.2,5.7
		c0.3,5,0.9,10,1.7,15c0.2,1.2,0.4,2.4,0.7,3.6c-2-1.7-4.7-3.2-5.8-3.7C314.7,174.2,310.4,172.9,307.7,175z M445.6,348.5
		c-0.1,1.7-0.4,3.3-1,4.7C445,351.7,445.3,350.1,445.6,348.5z"/>
	<path class="st4" d="M385.5,91.8c-2.3-7.8-7.8-13.9-13.6-19.5c-11.1-10.9-17.1-17.6-21.1-33.6c-2.3-9.4-4.7-19.3-12.1-26.1
		c-5.4-4.9-14.6-9.1-21.8-5.6c-11.1,6.6-14,20.1-12.9,32.2c1.4,15,8.4,24.3,21.9,29.8c7.6,3.1,12.7,7.2,16.8,14.4
		c3.3,5.7,5.2,12.9,9.4,18.1c6.2,7.8,14,11.2,23.5,9.9c-9-16.5-19.4-33.1-32.1-47c-1.2-1.4-8.2-6.7-6.8-9.1c1.6-2.6,8.7,7.2,8.7,7.2
		c3.7,4.2,7.1,8.7,10.4,13.2c0,0,0,0,0,0c3.4,4.6,6.8,9.3,10.2,14.1c1.4,2,2.7,4.1,3.9,6.1c1.8,3.1,4.8,11.8,7.8,13.7
		c0.6,0.4,1.2,0.6,1.8,0.7c2.1,3.4,4.1,6.8,6,10.2c5,9,9.3,18.5,11.2,28.6c0.6,3,0.2,14,2.2,16.2c3.7,3.9,2.6-3.6,2.4-5.9
		c-1.8-18.8-8.6-34.9-18.4-50.7C386,105,386.5,95,385.5,91.8z"/>
	<path class="st4" d="M258.7,100.9c3.9-4.6,13.3-5.4,19-5.1c7.1,0.4,14.4,2.1,21.1,4.2c11.1,3.4,21.9,9.7,31.7,15.8
		c1.2,0.7,15.7,9.5,14.4,11c-1.3,1.5-15.6-8.9-18.7-10.6c-6.8-3.8-13-8.3-20.5-10.9c-7.8-2.6-16-3.6-24.1-3.6c-1,0-4.5-0.7-4.5,0.8
		c-0.1,1.5,5.6,0.7,6.6,0.7c4.1,0,8.3,0.4,12.3,1.1c7.6,1.3,14.7,4,21.2,8.1c-1.8,4.2-6.2,6.2-10.7,5.1c-3.9-0.9-7.8-3.2-11.7-3.8
		c-2.7-0.4-5.3-0.2-7.9,0.6c-6.8,2-10.7,6-18.2,3.2C262.9,115.5,253.1,107.5,258.7,100.9z"/>
	<path class="st4" d="M263.1,57.5h1.8c-0.1-2.3-0.3-4.7-0.7-7c-1.5-8.7-6.1-21.4-16.3-22.8c-0.4-0.1-1.8-0.1-3.4,0
		c-0.8-0.4-1.7-0.7-2.6-0.8c-8.7-0.6-18.3,6.3-22.5,13.5c-3.4,5.8-2.8,13.4-0.7,19.6c1.4,4.1,4.4,10,9.5,10.1
		c6.3,0.1,6.7-7.7,6.8-12.2c0.2-6,0.9-11.3,5.7-15.4c1.1-1,2.3-1.8,3.5-2.7c1.8-1.5,3.7-3,4-5.4c0.3-3.4-1.6-4-4.6-3.3
		c-0.5,0.1-5.5,2.3-4.8,0.6c0.2-0.5,1.1-1,2.1-1.3c2.7-0.3,6-0.6,6.9-0.4c10.1,2.2,14,16,15,24.7C263,55.5,263,56.5,263.1,57.5
		L263.1,57.5z"/>
</g>
<path class="st5" d="M359,313H244c-8.8,0-16,7.2-16,16v92c0,8.8,7.2,16,16,16h115c8.8,0,16-7.2,16-16v-92
	C375,320.2,367.8,313,359,313z M343,341c2.2,0,4,1.8,4,4v60c0,2.2-1.8,4-4,4h-83c-2.2,0-4-1.8-4-4v-60c0-2.2,1.8-4,4-4H343z"/>
<g>
	<path class="st6" d="M221.2,188.5c0,0-11,6.2-14.1,6.2c-3.1,0-15.1-2.3-18.5-0.6c-3.4,1.7-9.5,8.6-10.6,10.9
		c-2.1,4.1,8.3,2.3,13.1-1.2c0.7-0.5,1.6-0.7,2.4-0.5c2.5,0.6,7.8,1.5,10.3,0.6c3.4-1.3,21.4-2.7,21.4-2.7L221.2,188.5z"/>
	<path class="st7" d="M208.8,413.9c0,0-1.2,19.1-4.9,19.3c-0.5,0-18.7,0-18.7,0l-23.3-0.1c0,0,0.2-5.6,6.9-6.8
		c6.8-1.2,18.2-6,22.3-14.9C195.5,402,208.8,413.9,208.8,413.9z"/>
	<path class="st8" d="M304.7,103.4c0,0-11.4,80.9-30.2,88.1c-9.3,3.6-50.4,11.7-62.6,12.5c0,0-3-2.4-2.3-12.3
		c0,0,43.1-15.8,49.2-24.4c9.1-12.8-5.7-52.3,5.8-64.3C276.1,91.1,295.3,85.9,304.7,103.4z"/>
	<path class="st9" d="M300.9,273.9c-3.3,5.6-7.2,10.9-11.1,15.9c-12.2,15.4-25.5,28.2-27.9,40.2c-0.5,2.4-1.2,5-2.2,7.7
		c-1,2.8-2.2,5.7-3.5,8.7c-5.2,11.3-13,23.9-20.7,35.4c-13.4,19.9-26,36.4-26,36.4l-23.1-1c0.9-2.3,11-29.7,24.5-63.2
		c5.5-13.6,11.3-28.1,16.9-42c0.7-1.9,1.5-3.7,2.2-5.6c1.7-4.3,3.4-8.5,5.1-12.6c12.7-31.5,22.7-56.5,22.7-56.5s50.6-19.2,55.8-6.7
		C318,240.8,314.5,250.8,300.9,273.9z"/>
	<path class="st7" d="M262.3,359.5c0,0,16.1,10.3,14.5,13.7c-0.2,0.4-9.1,16.4-9.1,16.4l-11.5,20.2c0,0-4.8-2.9-2.5-9.4
		c2.3-6.5,3.7-18.8-2.2-26.8C245.4,365.2,262.3,359.5,262.3,359.5z"/>
	<path class="st10" d="M254.4,377.6c0,0,10-8.9,11.8-15.4c0,0-41.4-49.6-50.4-60.7c-0.4-0.5-0.3-1.1,0.2-1.7
		c6.8-7.6,82.1-23.2,91.9-38.5c3.4-5.3,5.3-10.3,6.4-14.7c2.2-9.3,0.5-15.8,0.5-15.8l-75.2-2.2c0,0-62.6,39-69.7,65.6
		C162.9,320.9,254.4,377.6,254.4,377.6z"/>
	<path class="st11" d="M216.1,299.9c6.8-7.6,82.1-23.2,91.9-38.5c3.4-5.3,5.3-10.3,6.4-14.7v-9.5l-32-5c0,0-9.1,27.9-35.9,38.3
		C221.4,280.3,216.6,297.7,216.1,299.9z"/>
	<path class="st6" d="M260.3,98.3c15.2,3.9,40.4-10.2,40.4-10.2s-9.8-6.6-13.4-21c-0.2-0.7-0.3-1.5-0.5-2.2c-1.6-0.3-4.6-1-7.8-1.7
		l-11.6,10.4c0,0,0.3,4.3,1.7,11.8c0.3,1.3,0.5,2.7,0.9,4.2C263.7,93.4,260.3,98.3,260.3,98.3z"/>
	<path class="st12" d="M316.8,161.4c-2.2,29.3,0.7,73.9-1.8,81.6c-2.1,6.7-26.4,2.7-36.1,0.5c-3.6-0.8-7.9-2-12.4-3.4
		c-12.5-3.9-26.2-9.4-27.7-13.5c-0.1-0.2-0.1-0.3-0.1-0.5c-0.1-0.6-0.1-1.2,0-1.7c0.5-2.1,2.4-4.4,2.6-9.6c0.2-5.8,0.2-12.6,0.4-20
		c0-0.8,0-1.7,0.1-2.6l0-0.3c0-0.2,0-0.3,0-0.5c0.2-8.2,0.6-16.8,1.1-25.3c0.3-5.4,0.7-10.7,1.1-15.8c1.1-13.1,2.6-24.8,4.5-32.2
		c3.2-12,10.2-19.9,16.6-25.6l4.6-4c5.2,1.1,11.3,0.4,16.8-2.2c6-2.8,8-4.9,9.1-4.1C309.4,93,319.4,125.6,316.8,161.4z"/>
	<path class="st8" d="M266.4,240.1c-12.5-3.9-26.2-9.4-27.7-13.5c-0.1-0.2-0.1-0.3-0.1-0.5c0-0.6,0-1.1,0-1.7
		c0.5-2.1,2.4-4.4,2.6-9.6c0.2-5.8,0.2-12.6,0.4-20c0-0.8,0-1.7,0.1-2.6l0-0.3c0-0.2,0-0.3,0-0.5l50.7-64.5
		C292.5,127,326.5,197.9,266.4,240.1z"/>
	<path class="st13" d="M267.3,73.7c0,0,0.3,4.3,1.7,11.8c11.3-3.7,16.5-13.9,18.2-18.3c-0.2-0.7-0.3-1.5-0.5-2.2
		c-1.6-0.3-4.6-1-7.8-1.7L267.3,73.7z"/>
	<path class="st6" d="M265.8,80.2c0,0,24.7-4.1,21.9-19.5c-2.8-15.4-1.5-26.3-17.4-24.3c-15.9,2-17.9,8.4-18.2,13.8
		C251.8,55.6,259.3,80.9,265.8,80.2z"/>
	<g>
		
			<rect x="156.9" y="153.5" transform="matrix(0.9511 -0.309 0.309 0.9511 -48.9726 57.8172)" class="st14" width="2.3" height="60.1"/>
		
			<rect x="166.2" y="208" transform="matrix(0.9998 -2.135566e-02 2.135566e-02 0.9998 -4.4368 4.2698)" class="st14" width="63" height="3.8"/>
	</g>
	<path class="st6" d="M228,214.1c0,0-20.3,5.3-27.8,4.8c-7.6-0.6-13.9-4.2-14.9-6.1c-1-1.9-3-5.2,2.2-4.6c5.2,0.6,12.2,1.7,12.4,0.7
		c0.2-1-4.2-0.9-4.2-0.9s-1.3-1.9,0.3-2c1.7-0.1,6.6-1.4,8.4-0.5c1.8,0.9,3.5,4.3,4.9,4.1c1.3-0.1,16.9-7,16.9-7L228,214.1z"/>
	<path class="st12" d="M299.7,106.8c0,0-2.4,81.7-20.3,90.9c-8.8,4.6-48.8,17.2-60.8,19.3c0,0-3.2-2.1-3.6-11.9
		c0,0,41.1-20.5,46.2-29.7c7.6-13.7-11.4-51.3-1.4-64.5C269.9,97.7,288.4,90.4,299.7,106.8z"/>
	<path class="st15" d="M287.3,67.1c0,0,0.3-5.3-3-8.3c0,0,1.1-5.3-1-6.2s-2.5,3.6-3.5,2.9c-1-0.7-5.2-4-7.1-8.9
		c-1.8-4.9-18.6,1-20.5,1.9c-2,0.9-8.2-2.3-9.4-5c0,0,3.5-2.8,5.1-4.9c1.6-2.1,12.6-16.2,27.9-12.2c15.3,4,17.4,11.3,16.6,17.6
		C291.4,50.4,293.5,65,287.3,67.1z"/>
</g>
</svg>
