<?xml version="1.0" encoding="utf-8"?>
<!-- Generator: Adobe Illustrator 24.2.0, SVG Export Plug-In . SVG Version: 6.00 Build 0)  -->
<svg version="1.1" id="Layer_1" xmlns="http://www.w3.org/2000/svg" xmlns:xlink="http://www.w3.org/1999/xlink" x="0px" y="0px"
	 viewBox="0 0 298 233" style="enable-background:new 0 0 298 233;" xml:space="preserve">
<style type="text/css">
	.st0{opacity:0.5045;}
	.st1{opacity:0.5045;fill-rule:evenodd;clip-rule:evenodd;fill:#F2F2F2;enable-background:new    ;}
	.st2{fill-rule:evenodd;clip-rule:evenodd;fill:#E1E9D9;}
	.st3{opacity:0.2;fill-rule:evenodd;clip-rule:evenodd;fill:#C1DEE2;enable-background:new    ;}
	.st4{opacity:0.7;}
	.st5{opacity:0.7;fill-rule:evenodd;clip-rule:evenodd;fill:#69A1AC;enable-background:new    ;}
	.st6{opacity:0.7;fill-rule:evenodd;clip-rule:evenodd;fill:#89C5CC;enable-background:new    ;}
	.st7{opacity:0.5;}
	.st8{opacity:0.5;fill-rule:evenodd;clip-rule:evenodd;fill:#69A1AC;enable-background:new    ;}
	.st9{opacity:0.5;fill-rule:evenodd;clip-rule:evenodd;fill:#C1DEE2;enable-background:new    ;}
	.st10{opacity:0.5;fill-rule:evenodd;clip-rule:evenodd;fill:#89C5CC;enable-background:new    ;}
	.st11{fill-rule:evenodd;clip-rule:evenodd;fill:#F2F2F2;}
	.st12{fill-rule:evenodd;clip-rule:evenodd;fill:#D9DFD1;}
	.st13{fill-rule:evenodd;clip-rule:evenodd;fill:#FDC2A4;}
	.st14{fill-rule:evenodd;clip-rule:evenodd;fill:#F5B290;}
	.st15{fill-rule:evenodd;clip-rule:evenodd;fill:#102775;}
	.st16{fill-rule:evenodd;clip-rule:evenodd;fill:#FFC9B1;}
	.st17{fill-rule:evenodd;clip-rule:evenodd;fill:#193387;}
	.st18{fill-rule:evenodd;clip-rule:evenodd;fill:#0C2063;}
	.st19{fill-rule:evenodd;clip-rule:evenodd;fill:#00B1BF;}
	.st20{fill-rule:evenodd;clip-rule:evenodd;fill:#0399AA;}
	.st21{fill-rule:evenodd;clip-rule:evenodd;fill:#008594;}
	.st22{fill-rule:evenodd;clip-rule:evenodd;fill:#FFD6C4;}
	.st23{fill-rule:evenodd;clip-rule:evenodd;fill:#FF6600;}
	.st24{fill-rule:evenodd;clip-rule:evenodd;fill:#60CCBC;}
	.st25{fill-rule:evenodd;clip-rule:evenodd;fill:#FC7361;}
</style>
<g class="st0">
	<path class="st1" d="M274.2,169.9c4,29.8-92.7,49.3-175.9,35.7C15.1,192-23.1,139,16.6,110.8C56.3,82.5,270.2,140.1,274.2,169.9z"
		/>
</g>
<path class="st2" d="M156.7,32.1c-2.1-1.1-5,0.2-3.8,3c1.3,3,6,3,8.6,3c-0.3,0-1.1-2.8-1.4-3.2C159.2,33.7,158,32.8,156.7,32.1z
	 M181.2,85.8C181.8,86.2,181.3,85.8,181.2,85.8L181.2,85.8z M154.6,45.7c-1.2,1-1.3,2.6-0.3,3.8c1.2,1.4,3.4,1.3,5.1,1.2
	c0.7-0.1,4.7-0.4,3.8-1c0.1,0,0.2,0.1,0.4,0.2c0.1,0.3,0.2,0.6,0.3,1c0,0,0,0-0.1,0c0,0,0,0,0.1,0c1,3.2,2.3,6.2,4.1,9
	c-0.7-0.3-1.4-0.5-2.1-0.6c-2.1-0.3-6.5,1.4-4.1,4.1c2.2,2.7,5.7-0.2,8.3-0.6c2.5,3.4,5.2,6.7,8,9.9c-0.2,0.1-0.3,0.2-0.4,0.3
	c-1.1-0.6-2.3-1.4-3.4-1.6c-1.5-0.3-4.6-0.5-5.8,0.8c-1.4,1.7,0.1,3,1.8,3.4c2.4,0.5,5.6-0.7,7.9-1.5c0.3,0,0.6,0,0.7-0.2
	c0.1,0,0.1,0,0.2,0c2.9,3.2,5.9,6.2,8.8,9.2c0,0-0.1,0-0.1,0c-0.8-0.5-1.6-0.9-2.5-1.1c-2.1-0.5-4.5-0.5-6.2,1
	c-1.7,1.5-2.3,4.1-0.5,5.8c3.5,3.4,8.6-4.3,10.4-4.6c3,3,6.2,5.8,9.5,8.6c-0.4-0.1-0.7-0.2-1.1-0.2c-3.2-0.3-10.6,3.6-6.7,7.4
	c3.4,3.3,7.3-3.1,10.1-5.3c3.1,2.6,6.1,5.1,9.1,7.8c-1.6-0.4-3.2-0.5-4.9,0c-1.8,0.5-4.7,1.9-3.6,4.4c1.2,2.5,4.7,1.4,6.5,0.6
	c1-0.4,3-1.9,4.7-2.5c4.8,4.5,8.9,9.5,12,15.3c2,3.6,3.4,7.5,4.5,11.5c0.7,2.6,2,6.8,1.7,10.2c1.3-6.7-1-14.7-3.4-20.6
	c-2.2-5.5-5.6-10.3-9.5-14.6c1-3,9.3-7.2,4.3-10c-2.6-1.5-5.3,1-5.9,3.5c-0.4,1.8,0.2,4,0.8,5.7c-1.2-1.3-2.5-2.6-3.8-3.8
	c-1.8-1.7-3.7-3.4-5.6-5c3.1-2.9,6.1-11.3,1.9-12.7c-6.2-2-3.2,9.4-2.8,11.5c0.1,0,0.2,0,0.3-0.1c0,0.2-0.1,0.4-0.1,0.6
	c-3.6-3.1-7.3-6.2-10.8-9.3c0.3-0.2,0.8-1.1,1.2-1.6c0.9-1.1,1.8-2.2,2.4-3.5c1-2,2-5.2-0.7-6.4c-2.9-1.3-4.2,2.3-4.3,4.5
	c0,1.5,0.4,2.9,0.6,4.4c0.1,0.5-0.2,2.5,0.4,1.6c0,0.3,0,0.6,0,0.7c-0.6-0.6-1.3-1.2-1.9-1.7c0-0.1,0.1-0.2,0.1-0.2
	c0-0.6-0.6-0.9-1.1-0.7c-0.8-0.8-1.7-1.6-2.5-2.4c-1.7-1.7-3.4-3.5-5.2-5.3c0.4-0.3,0.2-0.8,0.6-1.1c0.3-0.3,1-0.5,1.4-0.8
	c1-0.8,1.9-2,2.5-3.1c1-1.9,2.3-5.8-0.6-6.7c-3.1-0.9-4.6,2.9-4.8,5.3c0,0.5,0.3,4.6,0.6,6.1c-3.2-3.4-6.3-6.9-9.2-10.4
	c0.9,0,3.3-1.8,3.8-2.3c1.2-1.2,3.1-3.8,1-5.1c-1.9-1.2-4.2,0.5-5,2.3c-0.1,0.3-0.6,2.9-0.6,4.1c-1.2-1.5-2.3-3-3.3-4.5
	c-0.7-1-1.3-2-2-3.1c0.1-0.1,0.3-0.2,0.4-0.4c3.1-0.5,7.1-5.4,3.4-7.1c-1.8-0.8-3.7,0.9-4.5,2.2c-0.2,0.3-0.5,1.7-0.7,2.8
	c-1.8-3.5-3.1-7.2-4.1-11c0.3-0.1,0.5-0.3,0.5-0.6c1.5-0.9,2.7-1.6,3.8-3.3c0.7-1,1.8-3.4-0.1-4c-2.5-0.7-4.1,3.1-4.3,5
	c0,0.2,0,0.9,0,1.4c-0.1,0-0.2,0-0.3,0c-0.6-2.4-1-4.8-1.4-7.1c1.4-0.4,1.6-7.7,0.7-8.7c-2-2.3-3.5,1-3.4,2.8c0.1,2.1,1.1,4,2.2,5.6
	c0.1,0.2,0.1,0.2,0.1-0.1c0,0.1,0.1,0.2,0.1,0.3c-0.1,1.1-0.2,2.2-0.1,3.2c0.2,2.8,0.5,5.5,0.9,8.3c0.1,0.7,0.2,1.3,0.4,2
	c-1.1-0.9-2.6-1.8-3.2-2C158.5,45.2,156.1,44.5,154.6,45.7z M230.8,141.7c-0.1,1-0.2,1.8-0.6,2.6
	C230.5,143.4,230.6,142.6,230.8,141.7z"/>
<path class="st3" d="M77.7-25.9c1.5-0.8,3.6,0.1,2.7,2.1c-0.9,2.1-4.3,2.2-6.2,2.1c0.2,0,0.8-2,1-2.3C75.9-24.8,76.8-25.4,77.7-25.9
	z M60.2,13.1C59.7,13.5,60.2,13.1,60.2,13.1L60.2,13.1z M79.5-16c0.9,0.7,1,1.9,0.2,2.7c-0.9,1-2.5,0.9-3.7,0.9
	c-0.5,0-3.5-0.3-2.8-0.7c-0.1,0-0.2,0.1-0.3,0.1c-0.1,0.2-0.1,0.5-0.2,0.7c0,0,0,0,0.1,0c0,0,0,0-0.1,0C72-10,71-7.8,69.7-5.8
	c0.5-0.2,1-0.3,1.5-0.4c1.5-0.2,4.7,1,3,3c-1.6,1.9-4.2-0.1-6-0.4c-1.8,2.5-3.8,4.9-5.9,7.2c0.1,0,0.2,0.1,0.3,0.2
	c0.8-0.4,1.7-1,2.5-1.2c1.1-0.2,3.4-0.4,4.2,0.6c1,1.2-0.1,2.2-1.3,2.4C66.3,6,64,5.2,62.3,4.6c-0.2,0-0.4,0-0.5-0.2
	c0,0-0.1,0-0.1,0c-2.1,2.3-4.3,4.5-6.5,6.7c0,0,0,0,0.1,0c0.6-0.4,1.2-0.7,1.8-0.8c1.5-0.4,3.3-0.4,4.5,0.7c1.2,1.1,1.7,3,0.4,4.2
	c-2.5,2.4-6.3-3.1-7.6-3.4C52.2,14,49.9,16,47.5,18c0.3-0.1,0.5-0.1,0.8-0.2c2.3-0.2,7.8,2.6,4.9,5.4c-2.5,2.4-5.4-2.2-7.4-3.9
	c-2.2,1.9-4.5,3.7-6.7,5.6c1.2-0.3,2.3-0.4,3.6,0c1.3,0.4,3.4,1.4,2.6,3.1c-0.8,1.8-3.4,1-4.7,0.4c-0.7-0.3-2.2-1.4-3.5-1.8
	c-3.5,3.3-6.5,6.8-8.8,11.1c-1.4,2.6-2.5,5.5-3.3,8.3c-0.5,1.8-1.4,5-1.3,7.4c-0.9-4.8,0.7-10.6,2.5-14.9c1.6-4,4.1-7.4,7-10.6
	c-0.7-2.1-6.8-5.2-3.2-7.2c1.9-1.1,3.9,0.7,4.3,2.5c0.3,1.3-0.2,2.9-0.6,4.1c0.9-1,1.8-1.9,2.8-2.8c1.3-1.2,2.7-2.4,4.1-3.6
	c-2.3-2.1-4.4-8.2-1.4-9.2c4.5-1.5,2.3,6.8,2,8.3c-0.1,0-0.2,0-0.2-0.1c0,0.1,0.1,0.3,0.1,0.4c2.6-2.3,5.3-4.5,7.9-6.8
	c-0.2-0.2-0.6-0.8-0.9-1.2c-0.7-0.8-1.3-1.6-1.7-2.5c-0.7-1.4-1.4-3.8,0.5-4.6c2.1-0.9,3.1,1.7,3.1,3.2c0,1.1-0.3,2.1-0.4,3.2
	c0,0.3,0.1,1.8-0.3,1.2c0,0.2,0,0.4,0,0.5c0.5-0.4,0.9-0.8,1.4-1.3c0-0.1,0-0.1,0-0.2c0-0.5,0.4-0.6,0.8-0.5
	c0.6-0.6,1.2-1.1,1.8-1.7c1.2-1.2,2.5-2.5,3.8-3.8c-0.3-0.2-0.2-0.6-0.4-0.8c-0.3-0.2-0.8-0.4-1.1-0.6C55,4.2,54.4,3.3,54,2.5
	c-0.7-1.4-1.7-4.2,0.5-4.9C56.7-3,57.8-0.3,58,1.4c0,0.3-0.2,3.3-0.4,4.4c2.3-2.4,4.6-5,6.7-7.5c-0.6,0-2.4-1.3-2.8-1.6
	C60.6-4.1,59.2-6,60.7-7c1.4-0.9,3.1,0.4,3.6,1.6c0.1,0.2,0.4,2.1,0.5,3c0.9-1.1,1.7-2.2,2.4-3.3c0.5-0.7,1-1.5,1.4-2.2
	c-0.1-0.1-0.2-0.2-0.3-0.3c-2.3-0.4-5.2-3.9-2.5-5.1c1.3-0.6,2.7,0.6,3.3,1.6c0.1,0.2,0.3,1.2,0.5,2c1.3-2.5,2.3-5.2,3-8
	c-0.2,0-0.4-0.2-0.4-0.5c-1.1-0.6-2-1.1-2.8-2.4c-0.5-0.7-1.3-2.5,0.1-2.9c1.8-0.5,3,2.2,3.1,3.6c0,0.2,0,0.6,0,1c0.1,0,0.1,0,0.2,0
	c0.4-1.7,0.8-3.4,1-5.2c-1-0.3-1.2-5.5-0.5-6.3c1.5-1.7,2.5,0.7,2.5,2c-0.1,1.5-0.8,2.9-1.6,4.1c-0.1,0.1-0.1,0.1-0.1-0.1
	c0,0.1,0,0.2-0.1,0.2c0,0.8,0.1,1.6,0.1,2.3c-0.1,2-0.4,4-0.7,6c-0.1,0.5-0.2,1-0.3,1.4c0.8-0.7,1.9-1.3,2.3-1.5
	C76.7-16.3,78.4-16.8,79.5-16z M23.8,53.3c0.1,0.6,0.2,1.2,0.5,1.7C24.1,54.5,23.9,53.9,23.8,53.3z"/>
<g class="st4">
	<path class="st5" d="M198.2,97.5c5.9-0.3,13.2,3.1,13.9,9.6c0.5,4.7,0.3,9.3,1,14c0.6,3.7,1.8,7.3,3.4,10.7
		c1.6,3.3,4.8,6.1,5.7,9.5c0.5,2.2,0.2,5.4-0.5,7.5c-0.9,2.6-0.4,2.4,1.4,4.7c3.5,4.4,6.7,8.8,9,14c3.3,7.5,5.4,16.2,4.2,24.4
		c-0.2,1-0.3,4.8-1.8,5c-1.6,0.3-0.9-1.8-0.8-2.5c0.5-4.4,1-8.3,0.4-12.7c-2.5-17.3-14.9-28.6-23-43.3c-0.4-0.8-1.4-2.6-2-3.7
		c-1-1.9-2.1-5.4-3.4-6.8c-2.6-2.6-0.2,2.6,0.3,3.6c0.6,1.3,1.4,2.6,2,3.7c3,5.2,6.4,10.8,9.5,16.1c-13.5,3.1-23-13.2-26.6-23.8
		C187.8,118.8,184.2,98.2,198.2,97.5z"/>
	<path class="st6" d="M277.5,81.1c-9.9,0.8-16.3,7.3-19.2,16.5c-1.6,4.9-1.8,10-2.7,15c-1.3,7.6-4.2,13.4-9.8,18.8
		c-1.7,1.7-3,3.4-3.9,5.3c-1.8,1.8-3.4,3.9-4.5,6.5c-1.5,3.3-1.9,7.2-0.2,10.4c0.5,0.9,1.6,2.6,2.8,3.4c-4.4,9.4-6.9,19.8-6.6,30.1
		c0.2,6.2,0.5,12.5,0.8,18.7c0.1,1.7,0.6,4.4,1.5,1.6c0.7-2.6-0.2-6.6-0.3-9.3c-0.4-13-0.8-24.9,4.6-37.1c0.6-1.3,1.2-2.5,1.8-3.8
		c0,0,0.1,0,0.1-0.1c0,0,0,0,0.1,0.1c0-0.1,0.1-0.2,0.2-0.2c0.2-0.2,0.3-0.4,0.5-0.7c0.5-0.7,1-1.4,1-1.9c0,0,0,0,0,0
		c3.3-5.4,7.1-10.6,11-15.6c0,0,4.2-5.7,3.6-2.6c-0.3,1.5-3.4,4.5-4.7,6.1c-2.8,3.6-6.1,8.2-8.8,12.7c-0.4,0.2-0.9,1.2-1.3,2
		c-0.2,0.4-0.4,0.8-0.6,1.1c9.7,3.2,17.2-3.2,22.3-10.7c0,0,0,0,0,0c1.6-2.1,3.2-4.1,5.1-5.7c3.3-2.7,6.9-3.2,10.8-4.5
		c10.7-3.7,15.2-17.5,16.7-27.8C299.4,97.8,291.4,80,277.5,81.1z"/>
	<path class="st6" d="M258,48.6c-10.2,10.6-15.1,25.2-19,39c-4.3,15.4-7.2,31-7.3,47.1c-0.1,10.5-0.4,21.1,0.3,31.6
		c0.2,3.7,0.6,7.5,1.2,11.2c0,0.3,1.4,8.5,2.6,6.6c0.7-1.1-1.4-8.6-1.5-9.8c-0.9-7-1.1-14-1-21.1c0.1-11.6-0.3-23.2,0.9-34.7
		c0.2-1.7,0.3-3.5,0.7-5.2c0.4-1.8-0.1-1,1.3-1.7c1.4-0.7,3.1-0.6,4.5-1.5c5.7-3.4,8.6-12.3,10.8-18.1c2.6-6.6,4.2-13.7,5.4-20.7
		c0.9-5.1,1.6-10.2,2-15.4c0.1-1.6,0.1-3.3,0.4-5c0.1-0.4,0.5-1.2,0.5-1.6c0-0.8-0.5-1.3-0.6-2C258.8,47.8,258.4,48.2,258,48.6z"/>
	<path class="st6" d="M202.6,189.5c0,17.5,14.2,31.7,31.7,31.7s31.7-14.2,31.7-31.7"/>
	<path class="st5" d="M236.8,189.6h-1.7c0.1-2.1,0.3-4.2,0.6-6.3c1.3-7.9,5.5-19.6,14.7-20.9c0.3,0,1.6-0.1,3.1,0
		c0.7-0.4,1.5-0.6,2.4-0.7c7.8-0.6,16.6,5.7,20.4,12.3c3,5.3,2.5,12.3,0.7,17.9c-1.3,3.8-4,9.2-8.6,9.2c-5.7,0.1-6-7-6.1-11.2
		c-0.1-5.5-0.8-10.3-5.2-14.1c-1-0.9-2.1-1.6-3.1-2.5c-1.6-1.4-3.4-2.7-3.6-5c-0.3-3.1,1.5-3.6,4.1-3.1c0.5,0.1,5,2.1,4.3,0.5
		c-0.2-0.5-1-0.9-1.9-1.2c-2.5-0.3-5.4-0.6-6.2-0.4c-9.1,2-12.7,14.6-13.6,22.6C236.9,187.9,236.8,188.8,236.8,189.6z"/>
</g>
<g class="st7">
	<path class="st8" d="M63.9,39.6c1.8-2.6,5.2-9.2,7.8-10.1c1.7-0.6,1.2,5.6,1.2,6.8c0.1,4.6-0.4,9.1-0.9,13.6
		c-1,8.2-4.2,15.4-8.7,22.4c-2.3,3.6-5,7.2-8.7,9.4c-1.7,1-3.8,1.2-5.4,2.1c-2,1-0.9,0.2-1.8,2.2c-1.2,2.8-1.6,6.5-2.2,9.5
		c-2.6,13.9-8.9,87.4-7.8,101.6c0.1,1.3-1.7,1.6-1.7,0c-0.5-8.1,3.6-64.3,5.6-82.7c2-18.4,4.1-34.6,6.1-41c2.5-7.7,7-17,10.7-24.2
		C59.8,45.9,61.7,42.7,63.9,39.6z"/>
	<path class="st9" d="M77.4,129.8c4.7-3.5,9.9,3.1,5.6,6.6c-2.4,1.9-4.9,1.2-6.3-0.4c-0.9,1.1-1.8,2.3-2.6,3.2c-2.5,3-4.8,6-7.1,9.1
		c-4.7,6.5-8.7,13.3-12.8,20c-4.1,6.6-8.2,13.3-11.9,20.1c-3.2,5.8-7.4,12.5-8.5,18.8c1.6-13.4,7.9-26.3,15.3-38
		c7.4-11.7,15.8-24.5,27.2-33.7C75.2,133.8,75.2,131.4,77.4,129.8z"/>
	<path class="st8" d="M-12.6,97.1c2.7,0.5,7,6.5,9.2,8.8c2.6,2.7,5,5.6,7.2,8.7c4.8,6.5,9.1,13.5,12.7,20.7
		c5.9,11.8,10.7,23.9,14.1,36.8c2.1,7.9,3.5,16,4.3,24.1c0.2,1.5,1.8,13.3-0.6,13.6c-2.1,0.3-1.4-8.9-1.5-10.2
		c-1.1-14.2-4.5-28-9.2-41.3c-1-2.9-2-6.5-3.6-9.1c-1.2-1.9,0-1.2-2.1-1.9c-1.8-0.6-3.8-0.5-5.7-1.2c-4-1.6-7.2-4.8-9.9-8
		c-5.4-6.2-9.7-12.9-12-20.8c-1.2-4.4-2.4-8.8-3-13.3C-12.9,102.9-14.3,96.8-12.6,97.1z"/>
	<path class="st10" d="M-2.2-2.8c10,17.3,18.2,36.4,23.5,55.7c3.2,11.7,5.5,23.7,7.7,35.6c3.5,18.4,6.7,36.9,7.7,55.6
		c0.9,18.9,2.8,40.6-3.4,58.8c3.1-18.5,0.1-38.1-0.4-56.7c-0.2-8.9-1-17.6-1.9-26.5c-0.9-8.6-2.4-17.1-3.8-25.5
		c-0.7-4.1-1.4-8.3-2.1-12.4c-0.2-1.2-0.3-4.9-1.1-5.7c-0.8-0.8-4.8-1.2-6-1.8c-2.5-1.3-4.9-3-7-4.9c-4-3.6-7.6-8.3-10.3-12.9
		c-6.4-10.7-9-23.8-8.9-36.2c0-2.4,3.9-28.4,2.3-28.7c0.1-0.1,0.2-0.2,0.3-0.3C-4.5-6.8-3.3-4.8-2.2-2.8z"/>
	<path class="st10" d="M105.8,59.8c0.2-0.2,1.2-1.8,0.7-1.7c1-0.2-1.4,1.7,1.1,0.5c-1.2,1.2-0.5,2.6-0.5,4.2c0,2.5-0.4,5-0.9,7.5
		c-0.7,3.9-1.9,7.7-3.5,11.3C99.2,89.5,93.2,97,86.1,102c-3.5,2.4-6.9,3.3-10.9,4.4c-2.5,0.7-2.7,2-4.1,4.5
		c-2.8,5.1-5.5,10.2-8,15.5c-2.9,6.3-5.8,12.6-8.5,19c-9.1,21.6-16.5,44-20.3,67.2c-0.1-13.7,3.1-27.7,7-40.7
		c2.9-9.5,6.7-18.6,10.7-27.7c1-2.2,2.5-5,2.9-7.4c0.3-1.7-0.6-3.3-1-5.1c-1.6-7-1.5-14.8-0.1-21.7c1.5-7.7,6-11.3,13.5-12.4
		C70,97,73.5,97.2,76,96c2.7-1.3,3.9-5.5,5.4-8.2c4.2-7.2,9.2-14.2,14.9-20.2c1.6-1.7,3.3-3.2,5.1-4.7C102.6,62,105,60.9,105.8,59.8
		z"/>
	<path class="st9" d="M21.6,197.8h26.6c1.2,0,2.2,1,2.2,2.2c0,0.1,0,0.2,0,0.3l-2.1,14c-0.6,4.3-4.3,7.4-8.6,7.4h-9.6
		c-4.3,0-8-3.2-8.6-7.4l-2.1-14c-0.2-1.2,0.6-2.3,1.8-2.5C21.4,197.8,21.5,197.8,21.6,197.8z"/>
</g>
<path class="st11" d="M-2.4,204.9c0,9.2,0.7,16.7,10.5,16.7c9.8,0,10.5-7.5,10.5-16.7"/>
<path class="st11" d="M11,199.1c-0.4,0.6-0.7,1.3-1,1.9c0-1.3,0.1-2.7,0.3-4c0.3-2.3,0.9-4.6,1.4-6.9c0.4-1.7,0.3-4.6,1.7-5.9
	c0.4-0.3,0.5,0.3,0.5,0.5c0,0.1,0-1-0.4-0.8c-2.1,1.1-2.8,4.5-3.5,6.2c-1,2.5-1.8,5.1-2.2,7.7c-0.1,0.7-0.1,1.3-0.1,2
	c-0.1-0.2-0.1-0.4-0.2-0.5c-1.2-2.9-2.9-5.7-4.9-8.2c-0.5-0.6-6.9-6.9-7.4-5.9c0,0.1,0.2,0.3,0.3,0.3c0,0,0,0,0,0
	c0.4,0.6,1.4,1.5,1.8,2.1c0.8,1.3,1.5,2.7,2.1,4.1c1.4,2.9,2.7,5.9,3.9,8.8c0.3,0.7,0.6,1.4,0.9,2.1c-3.2-4.6-7.4-8.8-13.3-11.2
	c2,1,3.3,2.9,4.7,4.4c1.6,1.8,3.3,3.5,5,5.2c1.9,2.1,4.2,4.3,6,6.6c1.8,3.8,3.5,7.5,4.6,11.5c-0.4-1.4,0-3.3-0.1-4.7
	c-0.1-1.1-0.2-2.3-0.4-3.4c0.2,0.5,0.4,1,0.5,1.5c-0.1-0.8-0.2-1.6-0.3-2.4c0.3-0.7,0.5-1.4,0.7-2c0.9-2.9,1.9-5.8,3.3-8.5
	c1.3-2.6,2.8-5.1,4.4-7.6c0.8-1.1,1.5-2.3,2.3-3.4c0.5-0.8,1-1.9,1.7-2.7C18.8,190,13.9,194.2,11,199.1z"/>
<path class="st2" d="M284.8,10.7c-1.3-4.3-4.3-7.7-7.5-10.8c-6.1-6-9.4-9.8-11.6-18.6c-1.3-5.2-2.6-10.7-6.7-14.4
	c-3-2.7-8.1-5-12.1-3.1c-6.1,3.7-7.8,11.1-7.1,17.8c0.8,8.3,4.6,13.4,12.1,16.5c4.2,1.7,7,4,9.3,8c1.8,3.2,2.9,7.1,5.2,10
	c3.4,4.3,7.7,6.2,13,5.5c-5-9.1-10.7-18.3-17.7-26c-0.7-0.8-4.5-3.7-3.7-5c0.9-1.4,4.8,4,4.8,4c2,2.3,3.9,4.8,5.7,7.3c0,0,0,0,0,0
	c1.9,2.6,3.8,5.2,5.6,7.8c0.7,1.1,1.5,2.2,2.2,3.4c1,1.7,2.6,6.5,4.3,7.6c0.4,0.2,0.7,0.3,1,0.4c1.1,1.9,2.3,3.7,3.3,5.7
	c2.8,5,5.1,10.2,6.2,15.8c0.3,1.6,0.1,7.8,1.2,9c2,2.2,1.4-2,1.3-3.3c-1-10.4-4.8-19.3-10.2-28.1C285.1,18,285.4,12.5,284.8,10.7z"
	/>
<path class="st12" d="M214.8,15.8c2.2-2.5,7.3-3,10.5-2.8c3.9,0.2,8,1.2,11.7,2.3c6.1,1.9,12.1,5.4,17.5,8.7c0.7,0.4,8.7,5.2,8,6.1
	c-0.7,0.8-8.6-4.9-10.4-5.9c-3.8-2.1-7.2-4.6-11.3-6c-4.3-1.4-8.8-2-13.3-2c-0.6,0-2.5-0.4-2.5,0.5c0,0.8,3.1,0.4,3.6,0.4
	c2.3,0,4.6,0.2,6.8,0.6c4.2,0.7,8.1,2.2,11.7,4.5c-1,2.3-3.4,3.4-5.9,2.8c-2.2-0.5-4.3-1.7-6.4-2.1c-1.5-0.2-2.9-0.1-4.4,0.3
	c-3.8,1.1-5.9,3.3-10.1,1.8C217.1,23.8,211.7,19.4,214.8,15.8z"/>
<g>
	<path class="st13" d="M87.6,155.5c-1,29.3-1.7,52.5,6.2,81.3c3.2,11.8,9.8,10.2,19.6,6.5c-0.4-33.9,1-65.4,2.6-99.2
		C107.6,144.2,88.1,141.7,87.6,155.5z"/>
	<path class="st13" d="M116.6,249.6c-9.1,3.7-17.3,1.9-19.7-3.2c-2.3-5-2.4-10.8,0.3-12.9c3.2-2.4,7.8,1,12.6-1.8
		c25.1-18.2,45.2-7,69.6-14.8c3.8-1.1,5.6-4.8,9-5.2c6.4-0.8,4.1,4.3,6.4,10.3c2.3,5.9,8.1,6.6,10.3,10.6c1.9,3.5,5.4,9.7,3.4,10.5
		c-8.4-4.5-14.8-13.4-28.9-13.5C162.5,229.3,127.4,245.2,116.6,249.6z"/>
	<path class="st14" d="M99.1,249.1c-1-0.8-1.7-1.7-2.2-2.8c-2.3-5-0.1-10.8,2.6-12.9c3.2-2.4,5.5,1,10.4-1.8
		c25.1-18.2,45.2-7,69.6-14.8c3.8-1.1,5.6-4.8,9-5.2c4.9-0.6,4.7,2.3,5.4,6.3l-4.5,0.2c-16.2,7.3-40.5,6-54.9,9.9
		C123.5,231.1,118,236.8,99.1,249.1z"/>
	<path class="st15" d="M182.4,215c1.7-3.6,4.8-5.5,8.9-3.7c2.8,1.3,1.8,5.4,3.7,10.3c2.3,6,8.1,6.6,10.3,10.6
		c1.9,3.5,5.2,10.3,3.3,11.1l-7.6-5.2c-1.9-2.8-6.5-9.9-10.6-14.2C187.6,221.1,185.3,218.3,182.4,215z"/>
	<path class="st16" d="M110.2,254.4c-3.2-1-6-2.2-8.4-3.3c-2.1-0.6-4.1-1.7-5.3-3.5c-0.9-2.3-1.3-5.5-1.1-9.3
		c6.2-22.8,11.1-46,16.6-69.1l14.2-41.6l15.9,4.6l1.4,30.9c1.1,12.9,2.7,10.5-4.3,24.4c-3.2,6.2-18.3,34.5-24.5,48.4
		c0.6,0.2,1.2,0.4,1.9,0.6c30.9,2.3,39.1,23.8,62.7,33.5c3.6,1.6,7.3,0,10.2,1.8c5.4,3.5,0.3,6-1.7,12c-2,6,1.9,10.3,1.1,14.7
		c-0.8,3.9-2.2,10.9-4.1,10.2c-3.5-8.9-2.7-19.8-13.4-28.9C158.4,268.5,121.3,258.1,110.2,254.4z"/>
	<path class="st13" d="M123.5,135.6l2.7-8l15.9,4.6l1.4,30.9c1.1,12.9,2.7,10.5-4.3,24.4c-3.2,6.2-18.3,34.5-24.5,48.4
		c0.6,0.2,1.2,0.4,1.9,0.6c30.9,2.3,39.1,23.8,62.7,33.5c3.6,1.6,7.3,0,10.2,1.8c0.5,0.3,1,0.7,1.3,1l-5.9,3.1l-45.4-24.4
		c-15.3-8.2-15.5-8.6-32.7-10.8c8.6-24.7,18.8-42.5,31.2-65.5l-3.6-18.2l-6.3-22.6L123.5,135.6L123.5,135.6z M187.5,289.8
		c0.6,3.2,2,5.9,1.4,8.7c-0.8,3.9-2.2,10.9-4.1,10.2c-2-5-2.6-10.7-4.7-16.4c2.1-0.3,3.5-0.5,3.7-0.6
		C184.2,291.4,185.6,290.7,187.5,289.8z"/>
	<path class="st17" d="M182.8,270.4c3.6-1.6,7.2-1.1,9.1,2.9c1.3,2.8-2.1,5.3-3.8,10.2c-2.1,6.1,2,10.3,1.1,14.8
		c-0.8,3.9-2.6,11.3-4.6,10.6l-2.5-8.9c0.4-3.4,1.4-11.7,1-17.7C182.9,278.5,182.9,274.8,182.8,270.4z"/>
	<path class="st17" d="M75,48.9c8.7,4.4,15,8.6,25.3,13.5c2.4,1.1,6.2,1.1,10.8,1.7c3.5,0.5,5,2.3,7.9,1.8
		c1.4,13.4-10.6,27.5-12,23.1c-1.7-5.3-14-11.7-20.7-17.3c-7.5-6.2-13.7-9.1-20.1-15.3C58,48.5,61.2,42,75,48.9z"/>
	<path class="st15" d="M181.8,52.2c-7.6,6.1-13.1,10.3-23,16c-3.3,1.9-7.8,5.1-7.3,8.9c-12.7-4.4-18.3-15.5-13.9-16.8
		c3.3-1.2,3.4-3.1,7.5-5.8c4.1-2.6,10.7-3.2,15.9-5.6c8.8-4.2,9.1-5.2,17.4-8.4c5.9-2.3,9.1-0.4,9.6,2.3
		C188.4,45.1,187.2,47.9,181.8,52.2z"/>
	<path class="st18" d="M175.2,57.3c-4.8,3.7-9.6,6.9-16.5,10.9c-2.7,1.6-6.3,4.1-7.1,7.1c-5.7-5.4,2.7-8,10.1-11.3L175.2,57.3z"/>
	<path class="st19" d="M87.1,191.4c-0.6-8.8-1.1-17.8-1.6-27.1c-0.5-10.9,0-17.3,11.3-25.9l17.1-14.1l22.6,6.3
		c-12.8,32.6-5.4,47.4-13.8,68.4l-16.2-7.6H87.1z"/>
	<path class="st20" d="M131.1,202.9c2.7-5.1,5.4-10.2,8.1-15.4c7-13.9,5.4-11.4,4.3-24.4l-1.4-30.9l-15.9-4.6L112,169.2l-5.2,22.3
		L131.1,202.9z"/>
	<path class="st21" d="M131.1,202.9c2.7-5.1,5.4-10.2,8.1-15.4c7-13.9,5.4-11.4,4.3-24.4l-1.4-30.9l-15.9-4.6l-2.7,8l4.7-1.2
		l6.3,22.6l3.6,18.2c-4.7,8.8-9.1,16.8-13.2,24.7L131.1,202.9z"/>
	<g>
		<path class="st13" d="M115.9,51.2c2.1,6,2.7,11.6,1.3,15l-10.3,4.4c-4.2,6.1,14.8,21,25.4,21.1l7-3.1c5.3-4.2-0.3-27.1-0.5-27.1
			c-5.7-0.2-7.2-4.5-7.5-14.1L115.9,51.2z"/>
		<path class="st16" d="M115.6,50.2c2.1,6,3,12.6,1.6,16l-10.3,4.4c-4.2,6.1,14.8,21,25.4,21.1l2.6-1.2c-3.3-7.9-5.9-16.6-8.7-26.2
			c-0.9-3.2-1.3-4.8-1.9-7.9c-0.2-2.6-0.4-5-0.5-7.3L115.6,50.2z"/>
	</g>
	<path class="st17" d="M116.3,86.1c-4.7,1.4-7.7,2.1-9.6,2.3c2.5-7.2,0.2-4.6-4.1-8.5c-3.9-3.5-7.9-2.9-3.1-7.7
		c4.1-4,10.6-3.7,19-6.4L116.3,86.1z"/>
	<polygon class="st17" points="108.8,82.8 115.1,66.7 138.2,60 154.6,79.1 156.3,84.4 155.3,95.4 142.5,131.2 137.4,160 
		119.5,154.8 87.9,143.6 113.4,124.2 109.8,101.5 	"/>
	<path class="st15" d="M155.3,94.9l0,0.4l-3.3,9.3c-18.8,14.8-29.2,19-51,29l12.4-9.4l-3.6-22.2c7,2.8,13.7,1.7,22.5-1.2
		C144.3,100.8,150.7,100.5,155.3,94.9z"/>
	<path class="st15" d="M125.8,63.6l12.4-3.6l13.1,15.2c4.3,2.1,7.2,6.6,7.2,11.7c0,3.3-1.3,6.4-3.3,8.7l-12.7,35.6l3,32.2l-28.3-9.4
		c5.1-11,11.1-23.7,13.2-33.5c3.7-17.7,0.3-34.8-4.3-55.5C126,64.5,125.9,64,125.8,63.6z"/>
	<path class="st18" d="M157.8,91.2c-0.6,1.6-1.5,3.1-2.6,4.4l-3.3,9.2c-8.1,6.4-14.7,10.8-21.3,14.6c1.2-6.1,1.5-12.2,1.3-18.4
		l0.4-0.1C146.6,100.8,152.9,100.3,157.8,91.2z"/>
	<circle class="st17" cx="118.2" cy="91.4" r="13"/>
	<g>
		<path class="st22" d="M139.7,29.7c1.3-1.3,2.6,0.2,2.1,2.5c-0.4,2.1-1.4,4.6-2,7c-0.4,1.6-0.9,2.8-2.3,2.6
			c-0.8,2.6-1.7,4.6-3.1,6.7c-1.4,2-2.6,3.4-4,4.7c-3,2.6-4.6,3.7-6.2,3.7c-1.7,0-3.4-1.2-6.1-3.5c-1.8-1.6-3.1-3.1-4.8-5.8
			c-1.2-2-2-3.5-2.6-5.7c-1.4,0.3-2-0.9-2.4-2.5c-0.5-2.4-1.5-4.9-2-7c-0.5-2.6,1.2-4.1,2.6-1.9c-0.1-2.3-0.1-4.5,0.3-6.6
			c1.4-7.8,6.5-13.8,14.9-13.8c9.2,0,13.7,3.7,15.1,12.5C139.7,25.2,139.8,27.5,139.7,29.7z"/>
		<path class="st16" d="M139.7,29.7c1.3-1.3,2.6,0.2,2.1,2.5c-0.4,2.1-1.4,4.6-2,7c-0.4,1.6-0.9,2.8-2.3,2.6
			c-0.8,2.6-1.7,4.6-3.1,6.7c-1.4,2-2.6,3.4-4,4.7c-3,2.6-4.6,3.7-6.2,3.7l-0.1,0V9.9c9.2,0,13.7,3.7,15.1,12.5
			C139.7,25.2,139.8,27.5,139.7,29.7z"/>
	</g>
	<path class="st23" d="M114.6,19.2c6.9,14.8,35.1,3.1,16.7,37.4c12.1-9.4,17.4-27.7,9.1-41c-8.6-13.8-41-10.9-29.5,22.3
		C109.8,27.4,111.1,23.9,114.6,19.2z"/>
	<g>
		<g>
			<polygon class="st13" points="148.4,3.6 140.4,0 130.6,3.5 136.9,10 135.1,11.5 140.1,15 150.9,16.2 155.6,10.7 			"/>
			<path class="st16" d="M139.2,11.1c-3.5-1.6-5.2-3.5-8-1.3l8.3,5.1L139.2,11.1z"/>
			<path class="st22" d="M142.7,2l-1.8-1.9c-0.9-0.3-1.3-0.7-2-0.4l-7,2.8c-0.9,0.3-1.7,0.9-1.1,1.8c0.7,1,3.3,2.5,4.5,3.3
				C136.2,7.6,142.8,4.2,142.7,2z"/>
		</g>
		<path class="st13" d="M174.7,43.9l-24.1-27.8l4.1-6.3l29.2,25.6c3.5,3.2,6.2,7.5,3.7,11.1C184.7,49.6,179.1,48.3,174.7,43.9z"/>
	</g>
	<g>
		<g>
			<g>
				<polygon class="st13" points="74.6,-2.3 79.4,-9.6 89.5,-12 87.8,-3.2 90.1,-2.9 87.9,2.8 79.5,9.7 72.5,7.6 				"/>
				<path class="st16" d="M86.4-1c2-3.3,2.5-5.8,6-5.4l-4.2,8.8L86.4-1z"/>
				<path class="st22" d="M78.5-6.7l0.5-2.6c0.6-0.7,0.7-1.3,1.5-1.5l7.3-1.5c0.9-0.3,1.9-0.2,1.9,0.9c0,1.2-1.4,3.9-2,5.3
					C87-5.6,79.7-4.8,78.5-6.7z"/>
			</g>
			<path class="st13" d="M74.7,45.9l5-36.4l-6.9-3L62.4,43.8c-1.2,4.6-1.1,9.7,3,11.3C69.4,56.2,73.4,51.9,74.7,45.9z"/>
		</g>
		<path class="st24" d="M70.3,13.2l9.1,1c1.7,0.2,2.9,1.7,2.7,3.4l0,0c-0.2,1.7-1.7,2.9-3.4,2.7l-9.1-1c-1.7-0.2-2.9-1.7-2.7-3.4
			l0,0C67.1,14.2,68.6,13,70.3,13.2z"/>
		<path class="st25" d="M69.4,20l8.5,3.4c3.8,1.5,3.1,4.1-0.7,2.6l-8.5-3.4C64.9,21.1,65.6,18.5,69.4,20z"/>
	</g>
	<path class="st15" d="M105.6,86.5c-3.7-4.7-13.2-9.9-19-14.6l0.3,0l13.2,5.6c7.3,3.1,10.4,1.9,6,8.3L105.6,86.5z"/>
</g>
</svg>
