<?xml version="1.0" encoding="utf-8"?>
<!-- Generator: Adobe Illustrator 25.4.1, SVG Export Plug-In . SVG Version: 6.00 Build 0)  -->
<svg version="1.1" id="Layer_1" xmlns="http://www.w3.org/2000/svg" xmlns:xlink="http://www.w3.org/1999/xlink" x="0px" y="0px"
	 viewBox="0 0 2895.8 2794.7" style="enable-background:new 0 0 2895.8 2794.7;" xml:space="preserve">
<style type="text/css">
	.st0{opacity:0.7;fill:#CEDBF4;}
	.st1{fill:#B3C6DE;}
	.st2{fill:#35324C;}
	.st3{fill:#FFB096;}
	.st4{fill:#F35C5C;}
	.st5{fill:#F88D72;}
	.st6{fill:#6072BA;}
	.st7{fill:#DFB04B;}
	.st8{fill:#F2D188;}
	.st9{fill:#FFFFFF;}
	.st10{fill:#7583E5;}
	.st11{fill:#524E64;}
	.st12{fill:#943D49;}
	.st13{fill:#3C57A3;}
	.st14{fill:#DF5452;}
	.st15{fill:#443036;}
	.st16{fill:#70203E;}
	.st17{fill:#9092EE;}
	.st18{fill:#EDF1F6;}
	.st19{fill:#CD3D3D;}
	.st20{fill:#E79A48;}
	.st21{fill:#A0616B;}
	.st22{fill:#752B19;}
	.st23{fill:none;stroke:#752B19;stroke-width:5.8835;stroke-miterlimit:10;}
	.st24{fill:#CE8741;}
	.st25{fill:#C6772E;}
	.st26{fill:#783D1E;}
	.st27{fill:#00B59A;}
	.st28{fill:#BDBACF;}
	.st29{fill:#BD5C00;}
	.st30{fill:#F2785B;}
</style>
<g id="Background">
</g>
<path class="st0" d="M2684.8,2053.4c89.3-183.7,139.4-389.9,139.4-607.8c0-768.9-623.3-1392.2-1392.2-1392.2S39.7,676.8,39.7,1445.7
	c0,217.9,50.1,424.1,139.4,607.8H2684.8z"/>
<ellipse class="st1" cx="509.2" cy="2659" rx="470.7" ry="94.1"/>
<ellipse class="st1" cx="1293.6" cy="2659" rx="470.7" ry="94.1"/>
<ellipse class="st1" cx="1976.1" cy="2659" rx="470.7" ry="94.1"/>
<ellipse class="st1" cx="2388" cy="2659" rx="470.7" ry="94.1"/>
<g>
	<path class="st2" d="M1024.6,963c0,0-73.1,87.5-86,163c-12.9,75.5-40.9,294.2-12.9,333.9c28,39.8,60.2,39.8,68.8,39.8
		c8.6,0,406.4,27.8,404.3-35.8c-2.2-63.6-40.9-483-40.9-483S1185.9,891.5,1024.6,963z"/>
	<path class="st3" d="M1432.7,1060.4c0,0,46.3,334.4,49.7,384c3.3,49.7-9.9,278.1-9.9,278.1l-46.3-3.3l-96.5-620.1L1432.7,1060.4z"
		/>
	<path class="st4" d="M1333.6,931.5c-28.5-7-120.4-20.2-186.9-20.9l0-0.3c0,0-0.7,0-2,0.1c-1.3-0.1-2-0.1-2-0.1l0,0.3
		c-24.7,1.9-113.4,0.6-141.8,47.9c-31.3,52.1-47.3,476.7-47.3,476.7h394.8C1348.5,1435.2,1345.1,934.4,1333.6,931.5z"/>
	<path class="st5" d="M995.6,943.4c0,0-181.5,250.3-201,312c-19.6,61.9-25.7,80.3,20,102.4c50.4,24.4,81.2-35.1,92.4-77.4
		c18.1-67.9,64-175,66.8-183.6C977.8,1084.7,995.6,943.4,995.6,943.4z"/>
	<polygon class="st3" points="1264.8,2336.4 1267.3,2543 1276.9,2565.9 1336.9,2580.9 1332.6,2292 	"/>
	<polygon class="st3" points="1088.9,2366.5 1076.6,2544 1029.5,2536.1 1018,2355.9 	"/>
	<path class="st6" d="M953.7,1435.2l64.5,962.2l69.1,3l26-873.7l78.4,2.6c0,0,44.5,520.4,41.8,528.2s28.9,344.2,28.9,344.2l78.6-2.9
		l20.6-349.2l-13.1-614.5H953.7z"/>
	<g>
		<path class="st7" d="M1327.1,2548.8c0,0-11.3-26.2,3.5-28.3c14.9-2.1,22.6,7.1,22.6,7.1l35.4,41.1l18.4,29.7l-28.3-13.4
			L1327.1,2548.8z"/>
		<path class="st8" d="M1269.7,2535.4c0,0,11.6,29.1,24.1,24.1c7.1-2.8,19.8-26.2,29-22.6c9.2,3.5,44.6,30.4,58,37.5
			c13.4,7.1-27.6-46.7-27.6-46.7s34.7,36.8,46.7,43.2c12,6.4,114,33.3,116.1,65.1l-1.8,20.5c0,0-33.6,30.4-112.2,3.5
			c-78.6-26.9-123.2-31.9-137.3-37.5C1250.6,2616.7,1258.4,2536.1,1269.7,2535.4z"/>
		<path class="st9" d="M1418.4,2649.3c-37.5-6.4-99.8-34-123.9-36.8c-13.9-1.6-27.7-6.5-37-10.4c0.8,10.6,3.1,18.7,7.2,20.3
			c14.2,5.7,58.7,10.6,137.3,37.5c78.6,26.9,112.2-3.5,112.2-3.5l1.8-20.5C1506.8,2652.1,1455.9,2655.7,1418.4,2649.3z"/>
		<g>
			<path class="st9" d="M1347.6,2569.7c-0.6,0-1.3-0.2-1.9-0.5c-1.9-1-2.6-3.4-1.5-5.3c0.4-0.7,9.5-16.9,21.9-19.3
				c5-1,10,0.4,14.4,4c1.7,1.4,1.9,3.8,0.6,5.5c-1.4,1.7-3.8,1.9-5.5,0.6c-2.6-2.1-5.2-2.9-7.9-2.4c-7.4,1.4-14.5,11.6-16.6,15.4
				C1350.3,2569,1349,2569.7,1347.6,2569.7z"/>
		</g>
		<g>
			<path class="st9" d="M1359.6,2581c-0.6,0-1.3-0.2-1.9-0.5c-1.9-1-2.6-3.4-1.5-5.3c0.4-0.7,9.5-16.9,21.9-19.3c5-1,10,0.4,14.4,4
				c1.7,1.4,1.9,3.8,0.6,5.5c-1.4,1.7-3.8,1.9-5.5,0.6c-2.6-2.1-5.2-2.9-7.9-2.4c-7.4,1.4-14.5,11.6-16.6,15.4
				C1362.3,2580.3,1361,2581,1359.6,2581z"/>
		</g>
		<g>
			<path class="st9" d="M1374.5,2588.8c-0.6,0-1.3-0.2-1.9-0.5c-1.9-1-2.6-3.4-1.5-5.3c0.4-0.7,9.5-16.9,21.9-19.3
				c5-1,10,0.4,14.4,4c1.7,1.4,1.9,3.8,0.6,5.5c-1.4,1.7-3.8,1.9-5.5,0.6c-2.6-2.1-5.2-2.9-7.9-2.4c-7.4,1.4-14.5,11.6-16.6,15.4
				C1377.2,2588.1,1375.9,2588.8,1374.5,2588.8z"/>
		</g>
		<g>
			<path class="st9" d="M1390,2595.9c-0.6,0-1.3-0.2-1.9-0.5c-1.9-1-2.6-3.4-1.5-5.3c0.4-0.7,9.5-16.9,21.9-19.3c5-1,10,0.4,14.4,4
				c1.7,1.4,1.9,3.8,0.6,5.5c-1.4,1.7-3.8,1.9-5.5,0.6c-2.6-2.1-5.2-2.9-7.9-2.4c-7.4,1.4-14.5,11.6-16.6,15.4
				C1392.8,2595.2,1391.4,2595.9,1390,2595.9z"/>
		</g>
	</g>
	<path class="st4" d="M882.8,1084l93.8,117.3l90.5-281.5c0,0-100.6,0-122.3,35.2C926.8,984.1,891.7,1032.2,882.8,1084z"/>
	<polygon class="st10" points="1246.9,2357.9 1351.2,2358.1 1347.4,2403.5 1253.7,2402.9 	"/>
	<polygon class="st10" points="1002.1,2356.5 1107.9,2356.7 1104.1,2402.2 1008.9,2401.6 	"/>
	<path class="st11" d="M954.6,1313.2c22.7-15.8,61.5-184.3,69.2-210.8c16.2-55.8,22.7-124.1,22.2-182.2c-19.8-7.9-41.8-1.8-61.7,5.9
		c-20.7,77.4-58.7,297.4-56.1,377.5C935.2,1310,945.1,1313.2,954.6,1313.2z"/>
	<path class="st3" d="M1020.6,1090c0,26.8-21.8,48.6-48.6,48.6c-26.8,0-48.6-21.8-48.6-48.6c0-26.8,21.8-48.6,48.6-48.6
		C998.8,1041.4,1020.6,1063.2,1020.6,1090z"/>
	<path class="st3" d="M936.8,1114.1L798.4,1270c0,0-59.6,80.3-1.4,108.9c41.8,20.6,76.1-22.8,97.8-49.5
		c3.8-4.7,74.6-188.9,74.6-188.9L936.8,1114.1z"/>
	<path class="st3" d="M1244.1,919.2c-27.9-4.4-61.5-8.2-97.5-8.6l0-0.3c0,0-0.7,0-2,0.1c-1.3-0.1-2-0.1-2-0.1l0,0.3
		c-13,1-43.8,1.2-74.2,8c-1.1,16,85.7,111.8,85.7,111.8S1240.3,944.6,1244.1,919.2z"/>
	<path class="st3" d="M1146.7,818.1L1146.7,818.1c-21.6,0-39.1,17.5-39.1,39.1v73c0,21.6,17.5,39.1,39.1,39.1l0,0
		c21.6,0,39.1-17.5,39.1-39.1v-73C1185.8,835.6,1168.2,818.1,1146.7,818.1z"/>
	<path class="st5" d="M1146.7,794.6L1146.7,794.6c-21.6,0-39.1,17.5-39.1,39.1v50.2c12.4,3.7,25.5,5.8,39.1,5.8
		c13.6,0,26.7-2.1,39.1-5.8v-50.2C1185.8,812.1,1168.2,794.6,1146.7,794.6z"/>
	
		<ellipse transform="matrix(0.1593 -0.9872 0.9872 0.1593 241.4272 1747.2982)" class="st3" cx="1146.7" cy="731.9" rx="136.1" ry="136.1"/>
	<circle class="st3" cx="1015.8" cy="739.7" r="40.9"/>
	<path class="st3" d="M1314.6,739.7c0,22.6-18.3,40.9-40.9,40.9c-22.6,0-40.9-18.3-40.9-40.9s18.3-40.9,40.9-40.9
		C1296.3,698.8,1314.6,717.1,1314.6,739.7z"/>
	<path class="st2" d="M1108.4,745.4c0,5.5-4.5,10-10.1,10c-5.6,0-10.1-4.5-10.1-10c0-5.5,4.5-10,10.1-10
		C1103.8,735.4,1108.4,739.9,1108.4,745.4z"/>
	<path class="st2" d="M1203.2,745.4c0,5.5-4.5,10-10.1,10c-5.6,0-10.1-4.5-10.1-10c0-5.5,4.5-10,10.1-10
		C1198.7,735.4,1203.2,739.9,1203.2,745.4z"/>
	<g>
		<path class="st2" d="M1067,718.1l-5.7-5.4c20.2-21.6,46.8-16.6,47.9-16.3l-1.5,7.7C1106.7,703.9,1084.1,699.8,1067,718.1z"/>
	</g>
	<g>
		<path class="st2" d="M1223.1,718.1c-17.2-18.3-39.7-14.2-40.6-14l-1.5-7.7c1.1-0.2,27.7-5.2,47.9,16.3L1223.1,718.1z"/>
	</g>
	<g>
		<path class="st9" d="M986.1,2681.2c0,0-5.8,21.6-2.7,33.4c3.1,11.9,15.4,33.2,45.2,34.2c29.8,0.9,68.6,2.8,66.2-80.4L986.1,2681.2
			z"/>
		<path class="st7" d="M1030,2548.5c2.6-4.7-5.8-39.9,18.8-38.7c24.6,1.2,27.4,12.9,25.6,30.2c-1.8,17.3-13.2,87.9-13.2,87.9
			l-34.5,3.1L1030,2548.5z"/>
		<path class="st8" d="M1024.8,2524c0,0-10.5,60.8-11.6,63.2c-1.1,2.4-32.5,96-28,110.8c3.3,10.6,21.6,25.8,60.9,24.3
			c30.2-1.1,52.5-28.8,48-58.7c-4-26.5-9-76.7-8.9-77.4c0.1-1.4-4.9-63.1-4.9-63.1s-28.8,43.2-31.1,96.3l-10.6-0.6
			C1038.7,2618.8,1041.4,2521,1024.8,2524z"/>
		<g>
			<path class="st9" d="M1070.8,2554.6c-1,0-2-0.4-2.8-1.2c-16.9-17.2-34.8-2.6-35.5-1.9c-1.6,1.4-4.1,1.2-5.5-0.5
				c-1.4-1.7-1.2-4.1,0.4-5.5c8.3-7,28.5-15.6,46.2,2.4c1.5,1.5,1.5,4-0.1,5.5C1072.8,2554.2,1071.8,2554.6,1070.8,2554.6z"/>
		</g>
		<g>
			<path class="st9" d="M1068.2,2574.7c-1,0-2-0.4-2.8-1.2c-16.9-17.2-34.8-2.6-35.5-1.9c-1.6,1.4-4.1,1.2-5.5-0.5
				c-1.4-1.7-1.2-4.1,0.4-5.5c8.2-7,28.5-15.6,46.2,2.4c1.5,1.5,1.5,4-0.1,5.5C1070.2,2574.3,1069.2,2574.7,1068.2,2574.7z"/>
		</g>
		<g>
			<path class="st9" d="M1065.6,2594.8c-1,0-2-0.4-2.8-1.2c-16.9-17.2-34.8-2.6-35.5-1.9c-1.6,1.4-4.1,1.2-5.5-0.5
				c-1.4-1.7-1.2-4.1,0.4-5.5c8.2-7,28.5-15.6,46.2,2.4c1.5,1.5,1.5,4-0.1,5.5C1067.6,2594.4,1066.6,2594.8,1065.6,2594.8z"/>
		</g>
		<g>
			<path class="st9" d="M1063.1,2614.9c-1,0-2-0.4-2.8-1.2c-16.9-17.2-34.8-2.6-35.5-1.9c-1.6,1.4-4.1,1.2-5.5-0.5
				c-1.4-1.7-1.2-4.1,0.4-5.5c8.2-7,28.5-15.6,46.2,2.4c1.5,1.5,1.5,4-0.1,5.5C1065,2614.5,1064,2614.9,1063.1,2614.9z"/>
		</g>
	</g>
	<path class="st4" d="M1448.7,1087.4l-93.8,117.3l-90.5-281.5c0,0,100.6,0,122.3,35.2C1404.7,987.4,1439.8,1035.5,1448.7,1087.4z"/>
	<path class="st11" d="M1341.9,1313.2c-22.7-15.8-61.5-184.3-69.2-210.8c-16.2-55.8-22.7-124.1-22.2-182.2
		c19.8-7.9,41.8-1.8,61.7,5.9c20.7,77.4,58.7,297.4,56.1,377.5C1361.3,1310,1351.4,1313.2,1341.9,1313.2z"/>
	<path class="st2" d="M1208.6,635.6c-13.4,11.9-41.7,13.3-58.7,12.4c-12.9-0.7-25.8-2.3-38.5-4.9c-11.4-2.3-22.9-5.5-32.9-12.2
		c-15.4-10.4-25.9-29-29.8-48.9c-3.9-19.9-1.6-64.1,4.3-83.4c41.6,43.2,92.1,33.4,132.6,53.4c8.5,4.2,17.1,11.2,19,21.5
		c5.3-7.9,16-2.6,23.8,1.8c16.8,9.6,34.1,20.6,44.1,38.7c5.7,10.2,8.7,22.1,9.8,34.1c2.2,24.8,0.2,56-13,75.9
		c-5.5-23.1-8.5-41.3-17.4-58C1242.8,649.5,1225.7,635,1208.6,635.6z"/>
	<path class="st2" d="M1022.7,714.6c-7.1-10.1-14.5-20.7-16.8-33.2c-2.3-12.3,0.6-24.9,4.3-36.7c4.8-15.1,10.9-29.6,18.4-43.3
		c4.2-7.7,9.3-15.6,16.7-19.3c11.6-5.8,25.9,0.6,30.4,13.7c4.2,12.4-6.1,26.8-11.4,37.4C1050.6,660.5,1031.8,684.8,1022.7,714.6z"/>
	<g>
		<path class="st12" d="M1101.7,787.6c3.5,22.4,22.8,39.5,46.1,39.5c23.4,0,42.6-17.1,46.1-39.5H1101.7z"/>
		<path class="st9" d="M1101.7,787.6c0.8,5.4,2.6,10.4,5.1,15h63.6c6,0,10.9-4.9,10.9-10.9v-4.2H1101.7z"/>
	</g>
	<path class="st13" d="M960,1528.9l0.9-0.3c38.5-14.2,62.8-52.4,59.3-93.4l0,0h-66.4L960,1528.9z"/>
	<path class="st13" d="M1348.5,1435.2h-81.8l15.2,47.2c6,18.7,17.1,35.4,31.8,48.3c12.6,11,27.6,23.7,37.4,30.5L1348.5,1435.2z"/>
	<path class="st14" d="M1313.9,1737.8l1.3,170.6l1.6,4.6c7.7,22.3,38,25.6,50.4,5.5l2.6-4.3l8.6-179.1L1313.9,1737.8z"/>
	<path class="st14" d="M1530.3,1732.7l-152,2.4l-34.4,196.7l160.7-16.4c20-1.6,35-18.9,33.9-38.9L1530.3,1732.7z"/>
	<path class="st9" d="M1321.6,1736.4l2.2,159.9c0,0-0.7,17.2,15.7,17.6c16.4,0.3,13.7-20.3,13.7-20.3l5-158.3L1321.6,1736.4z"/>
	<path class="st3" d="M1484.1,1748.8c0,26.8-21.8,48.6-48.6,48.6c-26.8,0-48.6-21.8-48.6-48.6s21.8-48.6,48.6-48.6
		C1462.3,1700.2,1484.1,1722,1484.1,1748.8z"/>
</g>
<g>
	<path class="st15" d="M682.2,966.6c-7.2-9.5-17.4-16.1-28.9-19c-28.5-7-87.3-19.1-153.9-19.8l0-0.3c0,0-0.7,0-2,0.1
		c-1.3-0.1-2-0.1-2-0.1l0,0.3c-24.7,1.9-113.4,0.6-141.8,47.9c-31.3,52.1-47.3,476.7-47.3,476.7h394.8c0,0-7.5-191.4-21.8-333
		c37.4,69,87.4,158.3,87.4,162.2c0,6.1,50.6,89.1,50.6,89.1s61.3-4.4,90.8-24.1C946.4,1321.1,733.2,1034,682.2,966.6z"/>
	<path class="st16" d="M348.2,945.4c0,0-31.7,98.3-37.4,141.3c-5.7,43-70.4,355.8-70.4,355.8H264c0,0,63.1-343.6,67.1-359
		c4.1-15.4,40.7-123.4,40.7-123.4L348.2,945.4z"/>
	<polygon class="st14" points="467.5,1099.6 494.6,1075.4 686.7,1050 733.3,1322.5 532.4,1347.3 	"/>
	<path class="st9" d="M476.9,1104.4c0,0,16-19.5,17.7-19.5c1.8,0,185.6-26,185.6-26l43.7,258.3l-23.6,18.9l-183.8,12.4L476.9,1104.4
		z"/>
	
		<rect x="485.7" y="1083.8" transform="matrix(0.9899 -0.1415 0.1415 0.9899 -166.7485 95.5142)" class="st14" width="204.7" height="272.3"/>
	<polygon class="st17" points="428.4,1142.9 455.5,1118.7 647.6,1093.3 694.3,1365.8 493.3,1390.6 	"/>
	<path class="st9" d="M437.8,1147.7c0,0,16-19.5,17.7-19.5c1.8,0,185.6-26,185.6-26l43.7,258.3l-23.6,18.9l-183.8,12.4L437.8,1147.7
		z"/>
	
		<rect x="446.6" y="1127" transform="matrix(0.9899 -0.1415 0.1415 0.9899 -173.2694 90.4193)" class="st17" width="204.7" height="272.3"/>
	<circle class="st3" cx="467.6" cy="1294.1" r="52.3"/>
	<path class="st15" d="M348.4,960.5c0,0-193.1,247.1-212.6,308.9c-19.6,61.9-21.4,104.6,24.4,126.7c50.4,24.4,102.9-45.9,114.2-88.3
		c18.1-67.9,49.4-185.2,52.3-193.8C330.6,1101.8,348.4,960.5,348.4,960.5z"/>
	<polygon class="st3" points="705.7,2436.9 720.9,2576.9 741.7,2609.1 787.1,2590.1 768.1,2503.1 751.1,2419.9 	"/>
	<polygon class="st3" points="465.2,2422.9 469.5,2563.6 453.4,2598.4 405.8,2585.9 412.5,2497.1 417.9,2412.3 	"/>
	<path class="st4" d="M306.5,1452.3l41.8,606.7l60.1,405.3h62.8l-2.6-418.4l36.6-502.1l23.5,2.6c0,0,107.2,520.4,104.6,528.2
		c-2.6,7.8,72,428.4,72,428.4h62.8l-6.7-436.3l-60.1-614.5H306.5z"/>
	<g>
		<path class="st2" d="M774.5,2560.3c0,0-11.3-26.2,3.5-28.3c14.9-2.1,22.6,7.1,22.6,7.1l35.4,41.1l18.4,29.7l-28.3-13.4
			L774.5,2560.3z"/>
		<path class="st11" d="M717.1,2546.9c0,0,11.6,29.1,24.1,24.1c7.1-2.8,19.8-26.2,29-22.6c9.2,3.5,44.6,30.4,58,37.5
			c13.4,7.1-27.6-46.7-27.6-46.7s34.7,36.8,46.7,43.2c12,6.4,114,33.3,116.1,65.1l-1.8,20.5c0,0-33.6,30.4-112.2,3.5
			c-78.6-26.9-123.2-31.9-137.3-37.5C698,2628.3,705.8,2547.6,717.1,2546.9z"/>
		<path class="st9" d="M865.8,2660.8c-37.5-6.4-99.8-34-123.9-36.8c-13.9-1.6-27.7-6.5-37-10.4c0.8,10.6,3.1,18.7,7.2,20.3
			c14.2,5.7,58.7,10.6,137.3,37.5c78.6,26.9,112.2-3.5,112.2-3.5l1.8-20.5C954.2,2663.7,903.3,2667.2,865.8,2660.8z"/>
		<g>
			<path class="st18" d="M795,2581.2c-0.6,0-1.3-0.2-1.9-0.5c-1.9-1-2.6-3.4-1.5-5.3c0.4-0.7,9.5-16.9,21.9-19.3c5-1,10,0.4,14.4,4
				c1.7,1.4,1.9,3.8,0.6,5.5c-1.4,1.7-3.8,1.9-5.5,0.6c-2.6-2.1-5.2-2.9-8-2.4c-7.4,1.4-14.5,11.6-16.6,15.4
				C797.7,2580.5,796.4,2581.2,795,2581.2z"/>
		</g>
		<g>
			<path class="st18" d="M807,2592.6c-0.6,0-1.3-0.2-1.9-0.5c-1.9-1-2.6-3.4-1.5-5.3c0.4-0.7,9.5-16.9,21.9-19.3c5-1,10,0.4,14.4,4
				c1.7,1.4,1.9,3.8,0.6,5.5c-1.4,1.7-3.8,1.9-5.5,0.6c-2.6-2.1-5.2-2.9-8-2.4c-7.4,1.4-14.5,11.6-16.6,15.4
				C809.7,2591.8,808.4,2592.6,807,2592.6z"/>
		</g>
		<g>
			<path class="st18" d="M821.9,2600.4c-0.6,0-1.3-0.2-1.9-0.5c-1.9-1-2.6-3.4-1.5-5.3c0.4-0.7,9.5-16.9,21.9-19.3
				c5-1,10,0.4,14.4,4c1.7,1.4,1.9,3.8,0.5,5.5c-1.4,1.7-3.8,1.9-5.5,0.6c-2.6-2.1-5.2-2.9-7.9-2.4c-7.4,1.4-14.5,11.6-16.6,15.4
				C824.6,2599.6,823.3,2600.4,821.9,2600.4z"/>
		</g>
		<g>
			<path class="st18" d="M837.5,2607.4c-0.6,0-1.3-0.2-1.9-0.5c-1.9-1-2.6-3.4-1.5-5.3c0.4-0.7,9.5-16.9,21.9-19.3
				c5-1,10,0.4,14.4,4c1.7,1.4,1.9,3.8,0.6,5.5c-1.4,1.7-3.8,1.9-5.5,0.6c-2.6-2.1-5.2-2.9-8-2.4c-7.4,1.4-14.5,11.6-16.6,15.4
				C840.2,2606.7,838.8,2607.4,837.5,2607.4z"/>
		</g>
	</g>
	<g>
		<path class="st2" d="M416.9,2553.8c0,0,11.3-26.2-3.5-28.3c-14.9-2.1-22.6,7.1-22.6,7.1l-35.4,41.1l-18.4,29.7l28.3-13.4
			L416.9,2553.8z"/>
		<path class="st11" d="M474.3,2540.4c0,0-11.6,29.1-24.1,24.1c-7.1-2.8-19.8-26.2-29-22.6c-9.2,3.5-44.6,30.4-58,37.5
			c-13.4,7.1,27.6-46.7,27.6-46.7s-34.7,36.8-46.7,43.2c-12,6.4-114,33.3-116.1,65.1l1.8,20.5c0,0,33.6,30.4,112.2,3.5
			c78.6-26.9,123.2-31.9,137.3-37.5C493.4,2621.8,485.6,2541.1,474.3,2540.4z"/>
		<path class="st9" d="M325.6,2654.3c37.5-6.4,99.8-34,123.9-36.8c13.9-1.6,27.7-6.5,37-10.4c-0.8,10.6-3.1,18.7-7.2,20.3
			c-14.2,5.7-58.7,10.6-137.3,37.5c-78.6,26.9-112.2-3.5-112.2-3.5l-1.8-20.5C237.2,2657.1,288.1,2660.7,325.6,2654.3z"/>
		<g>
			<path class="st18" d="M396.4,2574.7c-1.4,0-2.7-0.7-3.4-2c-2.1-3.8-9.2-14-16.6-15.4c-2.8-0.5-5.3,0.3-7.9,2.4
				c-1.7,1.4-4.1,1.1-5.5-0.6c-1.4-1.7-1.1-4.1,0.6-5.5c4.4-3.6,9.4-5,14.4-4c12.5,2.4,21.6,18.6,21.9,19.3c1,1.9,0.4,4.3-1.5,5.3
				C397.7,2574.6,397.1,2574.7,396.4,2574.7z"/>
		</g>
		<g>
			<path class="st18" d="M384.4,2586c-1.4,0-2.7-0.7-3.4-2c-2.1-3.8-9.2-14-16.6-15.4c-2.8-0.5-5.3,0.3-7.9,2.4
				c-1.7,1.4-4.1,1.1-5.5-0.6c-1.4-1.7-1.1-4.1,0.6-5.5c4.4-3.6,9.4-5,14.4-4c12.5,2.4,21.6,18.6,21.9,19.3c1,1.9,0.4,4.3-1.5,5.3
				C385.7,2585.9,385,2586,384.4,2586z"/>
		</g>
		<g>
			<path class="st18" d="M369.5,2593.8c-1.4,0-2.7-0.7-3.4-2c-2.1-3.8-9.2-14-16.6-15.4c-2.8-0.5-5.3,0.3-7.9,2.4
				c-1.7,1.4-4.2,1.1-5.5-0.6c-1.4-1.7-1.1-4.1,0.6-5.5c4.4-3.6,9.4-5,14.4-4c12.5,2.4,21.6,18.6,21.9,19.3c1,1.9,0.4,4.3-1.5,5.3
				C370.8,2593.7,370.2,2593.8,369.5,2593.8z"/>
		</g>
		<g>
			<path class="st18" d="M353.9,2600.9c-1.4,0-2.7-0.7-3.4-2c-2.1-3.8-9.2-14-16.6-15.4c-2.8-0.5-5.4,0.3-7.9,2.4
				c-1.7,1.4-4.1,1.1-5.5-0.6c-1.4-1.7-1.1-4.1,0.6-5.5c4.4-3.6,9.4-5,14.4-4c12.5,2.4,21.6,18.6,21.9,19.3c1,1.9,0.4,4.3-1.5,5.3
				C355.2,2600.7,354.6,2600.9,353.9,2600.9z"/>
		</g>
	</g>
	<polygon class="st19" points="695.3,2474.5 777.6,2474.7 773.8,2520.1 702.1,2519.6 	"/>
	<polygon class="st19" points="398.9,2455 481.2,2455.2 477.4,2500.6 405.7,2500 	"/>
	<path class="st3" d="M493.5,1285.6c0,0,318.7-28.4,333.7-2c29.1,51.4,24.8,74.9-9.7,87.1c-34.4,12.2-346.3-40.5-346.3-40.5
		L493.5,1285.6z"/>
	<path class="st20" d="M335.5,1189.5c22.7-15.8,33.4-43.4,41.1-69.9c16.2-55.8,24.1-113.9,23.6-172c-19.8-7.9-43.2-11.9-63.1-4.3
		c-20.7,77.4-30.6,156.5-28,236.6C316.1,1186.3,326,1189.5,335.5,1189.5z"/>
	<path class="st3" d="M580.8,1004c6.2-7.4,12.3-42.2,16.1-67.7c-27.9-4.4-61.5-8.2-97.5-8.6l0-0.3c0,0-0.7,0-2,0.1
		c-1.3-0.1-2-0.1-2-0.1l0,0.3c-13,1-43.8,1.2-74.2,8c-1.1,16-2.1,48.5,6.7,60.3C440,1011.9,570.9,1015.9,580.8,1004z"/>
	<polygon class="st19" points="505.2,1543.9 413.4,1542 468.6,2045.9 	"/>
	<path class="st3" d="M499.5,835.3L499.5,835.3c-21.6,0-39.1,17.5-39.1,39.1v73c0,21.6,17.5,39.1,39.1,39.1h0
		c21.6,0,39.1-17.5,39.1-39.1v-73C538.6,852.8,521,835.3,499.5,835.3z"/>
	<path class="st5" d="M499.5,819.6L499.5,819.6c-21.6,0-39.1,17.5-39.1,39.1v50.2c12.4,3.7,25.5,5.8,39.1,5.8
		c13.6,0,26.7-2.1,39.1-5.8v-50.2C538.6,837.1,521,819.6,499.5,819.6z"/>
	
		<ellipse transform="matrix(0.7071 -0.7071 0.7071 0.7071 -261.3205 522.0067)" class="st21" cx="499.5" cy="576.4" rx="91.6" ry="91.6"/>
	
		<ellipse transform="matrix(0.7071 -0.7071 0.7071 0.7071 -366.7208 565.6649)" class="st4" cx="499.5" cy="725.5" rx="136.1" ry="136.1"/>
	<circle class="st3" cx="499.5" cy="756.9" r="136.1"/>
	<circle class="st3" cx="368.6" cy="764.7" r="40.9"/>
	<circle class="st3" cx="626.5" cy="764.7" r="40.9"/>
	<path class="st21" d="M365,732.8c0,0,97.4-116.9,211.9-89.1c0,0-67.3-67.5-136-32.5C357.6,653.7,365,732.8,365,732.8z"/>
	<path class="st22" d="M461.2,754.7c0,5.5-4.5,10-10.1,10c-5.6,0-10.1-4.5-10.1-10c0-5.5,4.5-10,10.1-10
		C456.6,744.7,461.2,749.2,461.2,754.7z"/>
	<path class="st22" d="M556,754.7c0,5.5-4.5,10-10.1,10c-5.6,0-10.1-4.5-10.1-10c0-5.5,4.5-10,10.1-10
		C551.5,744.7,556,749.2,556,754.7z"/>
	<path class="st23" d="M461.2,709.5c0,0-25.3-5.1-44.3,15.2"/>
	<path class="st23" d="M534.5,709.5c0,0,25.3-5.1,44.3,15.2"/>
	<path class="st23" d="M559.6,807.3c0,0-26.6,27.2-66.4,18.3"/>
	<path class="st20" d="M130.2,1564.2c-10,21.9-17.4,46-14,69.8c3.8,27.2,21.4,50.8,42.9,68c12.3,9.9,26.8,18.2,42.6,18.7
		c20.4,0.6,39.3-12.5,50.9-29.3c43.1-62,62.8-184.1,14.5-249.1c-16.1-21.6-35.5-33.5-57.8-13.5c-16.9,15.2-27.2,45.6-39,64.9
		C156,1516.8,141.4,1539.6,130.2,1564.2z"/>
	<path class="st24" d="M137.6,1674.4c20.5-41.8,41-83.7,61.6-125.5c16-32.6,34.5-70.1,40.5-105.8c18.6-13.5,45.8-10.7,64.3,3
		c18.5,13.6,28.9,36.1,32.6,58.7c3.7,22.7,1.2,45.8-1.7,68.6c-7.7,59.4-19.4,120.2-51.7,170.6c-36.9,14.4-79,12.3-112.3-9.2
		C151.7,1722.4,140.6,1697.1,137.6,1674.4z"/>
	<path class="st25" d="M279.1,1424c-18-14.2-42.1-22.7-64.3-16.6c-9.7,2.7-18.4,7.9-26.9,13.3c-24.3,15.7-47.3,33.5-68.4,53.2
		c-3.7,3.4-7.5,7.2-8.3,12.2c-0.6,3.7,0.6,7.5,2,11c5.1,13.4,12.1,26,20.8,37.3c4.3,5.7,9.3,11.2,15.8,14.1
		c6.9,3.1,14.9,2.8,22.4,1.4c20.6-4,38.5-16.4,55.6-28.4C268.7,1493,338,1470.6,279.1,1424z"/>
	<g>
		<path class="st8" d="M289.1,1557.4c-19.8,0-36-16.1-36-36c0-19.8,16.1-36,36-36c19.8,0,36,16.1,36,36
			C325.1,1541.2,308.9,1557.4,289.1,1557.4z M289.1,1493.2c-15.5,0-28.2,12.6-28.2,28.2s12.6,28.2,28.2,28.2
			c15.5,0,28.2-12.6,28.2-28.2S304.6,1493.2,289.1,1493.2z"/>
	</g>
	<path class="st16" d="M141.4,1489.7c0,0-18,31.4-11.3,74.5l6.2,5.2c0,0,6.5-67.8,15-69L141.4,1489.7z"/>
	<polygon class="st26" points="382.3,941.5 305.2,1511.2 273.8,1507.3 358.3,939.7 	"/>
	<circle class="st3" cx="324.8" cy="1111.8" r="48.6"/>
	<path class="st3" d="M289.6,1131.3l-138.4,155.9c0,0-51.8,63.7,7.9,89c59.7,25.4,51.9,7.4,73.6-19.3c3.8-4.7,89.5-199.3,89.5-199.3
		L289.6,1131.3z"/>
	<path class="st21" d="M576.4,659.5c9.6,20.3,23.1,38.5,36.5,56.6c2.6,3.5,5.2,7.1,8.7,9.7c3.1,2.4,6.9,3.9,10.8,4.5
		c1.3-14.3-7.8-27.2-14.7-39.9c-5.1-9.4-9.2-19.5-16.2-27.6c-6.1-7.1-14-12.4-22.1-17c-4.1-2.3-6.4-4.7-7.5,0.3
		C571.2,649.9,574.9,656.3,576.4,659.5z"/>
</g>
<g>
	<path class="st21" d="M1648.7,855.5c-11.5,15.9-25.9,31.1-28.5,50.6c-1.6,12.1,1.9,24.4,6.8,35.7c19.8,45.4,63.2,77.8,110.5,92.7
		c47.3,14.8,98.3,13.8,147.3,6.3c33.8-5.1,68.9-14.2,93.2-38.2c8.1-8,15-18.1,15.6-29.5c0.3-5.5-0.9-11-2.5-16.3
		c-7.8-25.8-24.4-47.9-34.7-72.8c-13.1-31.9-15.3-67-21.2-100.9c-5.9-33.9-16.8-69.1-42.5-92c-24.3-21.6-59.3-29.1-91.3-23.2
		c-44.2,8.1-85.7,39.8-106.8,79.2C1675.6,782.3,1673.1,821.7,1648.7,855.5z"/>
	<path class="st4" d="M1665.4,1021c0,0-73.1,87.5-86,163c-12.9,75.5-40.9,294.2-12.9,333.9c28,39.8,60.2,39.8,68.8,39.8
		c8.6,0,406.4,27.8,404.3-35.8c-2.2-63.6-40.9-483-40.9-483S1826.7,949.4,1665.4,1021z"/>
	<path class="st8" d="M2048,1124.5c-20.2-38.2-38.6-72.4-49.8-92.9c-6.9-12.7-18.8-22-32.8-25.5c-37.5-9.6-114.2-27.6-159.6-28.4
		c-61.9-1-128.2,16.8-156.7,23.8c-11.6,2.8-21.7,9.5-28.9,19c-50.9,67.5-264.1,354.5-226.1,380c29.5,19.7,90.8,24.1,90.8,24.1
		s50.6-83,50.6-89.1c0-3.8,50-93.2,87.4-162.2c-14.4,141.6-20.7,276.7-20.7,276.7h387c0,0,0.6-104-11.3-239.7
		c2.9,10.7,8.7,24.3,15.8,39.1"/>
	<path class="st3" d="M1613.8,1581.3c0,0,36.6,457.6,49.7,504.7c13.1,47.1,67.9,458.8,67.9,458.8s26.2,4.1,36.7,1.5
		c10.5-2.6,34-373.9,7.8-462.8c-11.3-38.4-2.6-462.8-2.6-462.8l60.1-2.6l5.2,447.1c0,0-7,124.6-5.2,156.9
		c5.2,94.1,41.8,324.2,41.8,324.2s34,10.5,36.6-5.2c2.6-15.7,34-457.6,34-457.6l34-580.5l-334.7,15.7L1613.8,1581.3z"/>
	<g>
		<path class="st3" d="M2044.4,1124.5c77.3,108.7,177.5,293.9,146.5,297c-73.8,7.4-90.9-8.3-90.9-8.3s-16.1-57.1-34.9-84.8
			c-7.2-10.6-52.1-65.7-85.3-126.4C2014.1,1187.4,2036.4,1143,2044.4,1124.5z"/>
	</g>
	<path class="st15" d="M1602.2,1450.3l-57.5,386.8c0,0,65.2,52.2,291.4,52.2s252.2-60.9,252.2-60.9l-99.2-378.1H1602.2z"/>
	<g>
		<path class="st19" d="M1728.6,2527.7c0,0,10.6-24.6-3.3-26.6c-14-2-21.3,6.7-21.3,6.7l-33.3,38.6l-17.3,27.9l26.6-12.6
			L1728.6,2527.7z"/>
		<path class="st4" d="M1782.5,2515c0,0-10.9,27.3-22.6,22.6c-6.7-2.7-18.6-24.6-27.3-21.3c-8.6,3.3-41.9,28.6-54.5,35.3
			c-12.6,6.7,25.9-43.9,25.9-43.9s-32.6,34.6-43.9,40.6c-11.3,6-107.1,31.3-109.1,61.2l1.6,19.3c0,0,31.6,28.6,105.4,3.3
			c73.8-25.3,115.7-29.9,129-35.3C1800.4,2591.5,1793.1,2515.7,1782.5,2515z"/>
		<path class="st9" d="M1642.8,2622.1c35.3-6,93.8-31.9,116.4-34.6c13-1.5,26-6.2,34.7-9.8c-0.8,10-2.9,17.6-6.8,19.1
			c-13.3,5.3-55.2,10-129,35.3c-73.8,25.3-105.4-3.3-105.4-3.3l-1.6-19.3C1559.6,2624.8,1607.5,2628.1,1642.8,2622.1z"/>
		<g>
			<path class="st18" d="M1709.3,2547.3c-1.3,0-2.6-0.7-3.2-1.9c-2-3.6-8.7-13.1-15.6-14.5c-2.6-0.5-5,0.2-7.5,2.2
				c-1.6,1.3-3.9,1.1-5.2-0.5c-1.3-1.6-1.1-3.9,0.5-5.2c4.1-3.4,8.8-4.7,13.5-3.8c11.7,2.3,20.3,17.5,20.6,18.1c1,1.8,0.3,4-1.4,5
				C1710.5,2547.2,1709.9,2547.3,1709.3,2547.3z"/>
		</g>
		<g>
			<path class="st18" d="M1698,2557.9c-1.3,0-2.6-0.7-3.2-1.9c-2-3.6-8.7-13.1-15.6-14.5c-2.6-0.5-5,0.2-7.5,2.2
				c-1.6,1.3-3.9,1.1-5.2-0.5c-1.3-1.6-1.1-3.9,0.5-5.2c4.1-3.4,8.8-4.7,13.5-3.8c11.7,2.3,20.3,17.5,20.6,18.1c1,1.8,0.3,4-1.4,5
				C1699.2,2557.8,1698.6,2557.9,1698,2557.9z"/>
		</g>
		<g>
			<path class="st18" d="M1684,2565.3c-1.3,0-2.6-0.7-3.2-1.9c-2-3.6-8.7-13.1-15.6-14.5c-2.6-0.5-5,0.2-7.5,2.2
				c-1.6,1.3-3.9,1.1-5.2-0.5c-1.3-1.6-1.1-3.9,0.5-5.2c4.1-3.4,8.8-4.7,13.5-3.8c11.7,2.3,20.3,17.5,20.6,18.1c1,1.8,0.3,4-1.4,5
				C1685.2,2565.1,1684.6,2565.3,1684,2565.3z"/>
		</g>
		<g>
			<path class="st18" d="M1669.4,2571.9c-1.3,0-2.6-0.7-3.2-1.9c-2-3.6-8.7-13.1-15.6-14.5c-2.6-0.5-5,0.2-7.5,2.2
				c-1.6,1.3-3.9,1.1-5.2-0.5c-1.3-1.6-1.1-3.9,0.5-5.2c4.1-3.4,8.8-4.7,13.5-3.8c11.7,2.3,20.3,17.5,20.6,18.1c1,1.8,0.3,4-1.4,5
				C1670.6,2571.8,1670,2571.9,1669.4,2571.9z"/>
		</g>
	</g>
	<g>
		<path class="st19" d="M1944.1,2527.5c-3.8-7.2-11.4-11.6-19.4-11.1c-4.5,0.3-9.3,1-12.8,2.4c-8.6,3.6-8.6,23-5.7,26.5
			c2.9,3.6,40.9,66.7,40.9,66.7s37.3-12.2,36.6-17.2c-0.7-5-31.6-50.2-31.6-50.2S1948.3,2535.6,1944.1,2527.5z"/>
		<path class="st4" d="M1873.4,2537c0,0-12.3,44.8-8,67.7c0,0-0.7,6.3,22.2,16.4c23,10.1,37,51.1,102.2,44.7
			c65.3-6.5,58.1-15.8,58.1-15.8s7.8-49.3-53.4-70c-29.8-10.1-45.1-48-45.1-48s-10.8-4.8-8.7,4.5c2.2,9.3,36.8,51.3,36.8,51.3
			l-10.8,2.1c0,0-29-54.1-41.2-55.5c-12.2-1.4-28.7,16.5-38.7,13.6C1876.9,2545.2,1873.4,2537,1873.4,2537z"/>
		<path class="st9" d="M1989.9,2665.9c65.3-6.5,58.1-15.8,58.1-15.8s1.1-7.5-1-17.9c-6.7,4.9-27.2,16.6-69.7,16.9
			c-53.8,0.4-55-30.6-78.2-38c-15.8-5.1-28.1-13.9-34.5-19.1c-0.1,4.6,0.2,9,0.9,12.7c0,0-0.7,6.3,22.2,16.4
			C1910.6,2631.3,1924.6,2672.3,1989.9,2665.9z"/>
		<g>
			<path class="st9" d="M1924.7,2555.9c-1,0-2-0.3-2.9-1c-1.9-1.6-2.1-4.4-0.5-6.2c0.4-0.5,11-12.9,23.1-13.4
				c5.2-0.2,10.1,1.7,14,5.7c1.7,1.7,1.7,4.5,0,6.3c-1.7,1.7-4.5,1.7-6.3,0c-2.2-2.2-4.8-3.3-7.3-3.1c-6.9,0.3-14.4,7.5-16.8,10.3
				C1927.2,2555.4,1926,2555.9,1924.7,2555.9z"/>
		</g>
		<g>
			<path class="st9" d="M1933.8,2570.8c-1,0-2-0.3-2.9-1c-1.9-1.6-2.1-4.4-0.5-6.2c0.4-0.5,11-12.9,23.1-13.4c5.2-0.2,10,1.8,14,5.7
				c1.7,1.7,1.7,4.5,0,6.3c-1.7,1.7-4.5,1.7-6.3,0c-2.2-2.2-4.5-3.1-7.3-3.1c-6.8,0.3-14.4,7.5-16.8,10.3
				C1936.3,2570.3,1935,2570.8,1933.8,2570.8z"/>
		</g>
		<g>
			<path class="st9" d="M1947,2583.2c-1,0-2-0.3-2.8-1c-1.9-1.6-2.1-4.4-0.5-6.2c0.4-0.5,11-12.9,23.1-13.4c5.2-0.2,10,1.8,14,5.7
				c1.7,1.7,1.7,4.5,0,6.3c-1.7,1.7-4.5,1.7-6.3,0c-2.2-2.2-4.7-3.2-7.3-3.1c-6.9,0.3-14.4,7.5-16.7,10.3
				C1949.5,2582.7,1948.3,2583.2,1947,2583.2z"/>
		</g>
		<g>
			<path class="st9" d="M1958.2,2596.9c-1,0-2-0.3-2.9-1c-1.9-1.6-2.1-4.4-0.5-6.2c0.4-0.5,11-12.9,23.1-13.4c5.2-0.2,10,1.8,14,5.7
				c1.7,1.7,1.7,4.5,0,6.3c-1.7,1.7-4.5,1.7-6.3,0c-2.2-2.2-4.6-3.1-7.3-3.1c-6.9,0.3-14.4,7.5-16.8,10.3
				C1960.7,2596.4,1959.4,2596.9,1958.2,2596.9z"/>
		</g>
	</g>
	<path class="st2" d="M1982.7,1371.2c-22.7-15.8-61.5-184.3-69.2-210.8c-16.2-55.8-22.7-124.1-22.2-182.2
		c19.8-7.9,41.8-1.8,61.7,5.9c20.7,77.4,58.7,297.4,56.1,377.5C2002.1,1368,1992.1,1371.2,1982.7,1371.2z"/>
	<g>
		<polygon class="st27" points="1908.8,1158.6 1881.6,1134.5 1689.6,1109 1642.9,1381.5 1843.8,1406.3 		"/>
		<path class="st9" d="M1899.4,1163.4c0,0-16-19.5-17.7-19.5s-185.6-26-185.6-26l-43.7,258.3l23.6,18.9l183.8,12.4L1899.4,1163.4z"
			/>
		
			<rect x="1685.8" y="1142.8" transform="matrix(-0.9899 -0.1415 0.1415 -0.9899 3377.3423 2798.0542)" class="st27" width="204.7" height="272.3"/>
		<polygon class="st4" points="1947.8,1201.9 1920.7,1177.7 1728.6,1152.3 1682,1424.8 1882.9,1449.6 		"/>
		<path class="st9" d="M1938.4,1206.7c0,0-16-19.5-17.7-19.5c-1.8,0-185.6-26-185.6-26l-43.7,258.3l23.6,18.9l183.8,12.4
			L1938.4,1206.7z"/>
		
			<rect x="1724.9" y="1186.1" transform="matrix(-0.9899 -0.1415 0.1415 -0.9899 3448.97 2889.7295)" class="st4" width="204.7" height="272.3"/>
	</g>
	<path class="st3" d="M1802.9,889.1L1802.9,889.1c21.6,0,39.1,17.5,39.1,39.1v73c0,21.6-17.5,39.1-39.1,39.1l0,0
		c-21.6,0-39.1-17.5-39.1-39.1v-73C1763.8,906.6,1781.3,889.1,1802.9,889.1z"/>
	<path class="st5" d="M1802.9,873.5L1802.9,873.5c21.6,0,39.1,17.5,39.1,39.1v50.2c-12.4,3.7-25.5,5.8-39.1,5.8
		c-13.6,0-26.7-2.1-39.1-5.8v-50.2C1763.8,891,1781.3,873.5,1802.9,873.5z"/>
	<circle class="st21" cx="1802.9" cy="779.4" r="136.1"/>
	
		<ellipse transform="matrix(0.9872 -0.1593 0.1593 0.9872 -106.1404 297.6011)" class="st3" cx="1802.9" cy="810.7" rx="136.1" ry="136.1"/>
	<path class="st3" d="M1892.9,818.6c0,22.6,18.3,40.9,40.9,40.9c22.6,0,40.9-18.3,40.9-40.9c0-22.6-18.3-40.9-40.9-40.9
		C1911.2,777.7,1892.9,796,1892.9,818.6z"/>
	<circle class="st3" cx="1675.9" cy="818.6" r="40.9"/>
	<path class="st2" d="M1841.2,808.6c0,5.5,4.5,10,10.1,10c5.6,0,10.1-4.5,10.1-10c0-5.5-4.5-10-10.1-10
		C1845.8,798.6,1841.2,803.1,1841.2,808.6z"/>
	<path class="st2" d="M1746.4,808.6c0,5.5,4.5,10,10.1,10c5.6,0,10.1-4.5,10.1-10c0-5.5-4.5-10-10.1-10
		C1750.9,798.6,1746.4,803.1,1746.4,808.6z"/>
	<g>
		<path class="st21" d="M1883.3,780.6c-17.6-18.8-41.3-14.4-41.5-14.3l-1.1-5.8c1.1-0.2,27.1-5.1,47,16L1883.3,780.6z"/>
	</g>
	<g>
		<path class="st21" d="M1725.8,780.6l-4.3-4c19.9-21.2,45.9-16.3,47-16l-1.1,5.8C1766.4,766.1,1743.3,761.9,1725.8,780.6z"/>
	</g>
	<path class="st3" d="M1802,1265.6c12.3,23.9,41.6,33.3,65.5,21c23.9-12.3,33.3-41.6,21-65.5c-12.3-23.9-41.6-33.3-65.5-21
		C1799.1,1212.4,1789.7,1241.7,1802,1265.6z"/>
	<g>
		<path class="st3" d="M1538.9,1131.3c-77.3,108.7-171.2,251.5-144.9,269.1c29.5,19.7,90.8,24.1,90.8,24.1s50.6-83,50.6-89.1
			c0-3.2,34.8-65.9,68.1-126.6C1569.2,1194.2,1546.9,1149.8,1538.9,1131.3z"/>
	</g>
	<path class="st2" d="M1595.3,1371.2c22.7-15.8,61.5-184.3,69.2-210.8c16.2-55.8,22.7-124.1,22.2-182.2c-19.8-7.9-41.8-1.8-61.7,5.9
		c-20.7,77.4-58.7,297.4-56.1,377.5C1575.9,1368,1585.9,1371.2,1595.3,1371.2z"/>
	<path class="st3" d="M1808.9,1339.4c0,0-318.7-28.4-333.7-2c-29.1,51.4-24.8,74.9,9.7,87.1c34.4,12.2,346.3-40.5,346.3-40.5
		L1808.9,1339.4z"/>
	<circle class="st3" cx="1787.7" cy="1357.6" r="52.3"/>
	<path class="st3" d="M1837,1222.9c0,0,307.7,87.8,312.2,117.9c8.8,58.4-3.8,78.8-40.3,77.8c-36.5-1-308.7-162.1-308.7-162.1
		L1837,1222.9z"/>
	<path class="st21" d="M1808.4,709.7c-8.6,14.3-20.7,26.2-33.4,37c-30.4,25.8-68.7,47.3-108.2,42c1.2-18.2,2.6-36.7,9.6-53.5
		c10.7-25.8,33.6-45.3,59.2-56.5c17.7-7.8,52.9-21.1,72.4-15.3C1830,669.9,1816.9,695.5,1808.4,709.7z"/>
	<g>
		<path class="st12" d="M1758.4,857.8c3.5,22.4,22.8,39.5,46.1,39.5c23.4,0,42.6-17.1,46.1-39.5H1758.4z"/>
		<path class="st9" d="M1758.4,857.8c0.8,5.4,2.6,10.4,5.1,15.1h63.6c6,0,10.9-4.9,10.9-10.9v-4.2H1758.4z"/>
	</g>
</g>
<g>
	<polygon class="st3" points="2275.4,2362.8 2276.1,2569.4 2266.9,2592.5 2207.1,2608.4 2207,2319.5 	"/>
	<polygon class="st3" points="2451.8,2390.2 2466.8,2567.4 2513.8,2558.8 2522.5,2378.5 	"/>
	<path class="st2" d="M2572.5,1456.9l-49.5,963.1l-69,4.1l-39.6-873.2l-78.4,3.8c0,0-36.4,521-33.6,528.8
		c2.7,7.8-23.6,344.6-23.6,344.6l-78.7-1.7l-26-348.8l3.5-614.6L2572.5,1456.9z"/>
	<polygon class="st28" points="2293.7,2384 2189.4,2385.8 2193.9,2431.2 2287.6,2429.1 	"/>
	<polygon class="st28" points="2538.4,2378.9 2432.6,2380.7 2437.1,2426 2532.4,2424 	"/>
	<path class="st28" d="M2567.7,1550.6l-0.9-0.3c-38.8-13.6-63.6-51.5-60.7-92.4l0,0l66.4-1L2567.7,1550.6z"/>
	<path class="st28" d="M2177.7,1463l81.8-1.3l4.1,78.4c-5.7,18.8-16.5,35.6-31.1,48.8c-12.4,11.2-42,20.2-55.6,0.1L2177.7,1463z"/>
	<path class="st13" d="M2738.7,1567.7c10,21.9,17.4,46,14,69.8c-3.8,27.2-21.4,50.8-42.9,68c-12.3,9.9-26.8,18.2-42.6,18.7
		c-20.4,0.6-39.3-12.5-50.9-29.3c-43.1-62-62.8-184.1-14.5-249.1c16.1-21.6,35.5-33.5,57.8-13.5c16.9,15.2,27.2,45.6,39,64.9
		C2712.8,1520.3,2727.4,1543,2738.7,1567.7z"/>
	<path class="st6" d="M2731.2,1677.9c-20.5-41.8-41-83.7-61.6-125.5c-16-32.6-34.4-70.1-40.5-105.8c-18.6-13.5-45.8-10.7-64.3,3
		c-18.5,13.6-28.9,36.1-32.6,58.7c-3.7,22.7-1.2,45.8,1.7,68.6c7.7,59.4,19.4,120.2,51.7,170.6c36.9,14.4,79,12.3,112.3-9.2
		C2717.1,1725.8,2728.2,1700.5,2731.2,1677.9z"/>
	<path class="st10" d="M2589.7,1427.5c18-14.2,42.1-22.7,64.3-16.6c9.7,2.7,18.4,7.9,26.9,13.3c24.3,15.7,47.3,33.5,68.4,53.2
		c3.7,3.4,7.5,7.2,8.3,12.2c0.6,3.7-0.6,7.5-2,11c-5.1,13.4-12.1,26-20.8,37.3c-4.3,5.7-9.3,11.2-15.8,14.1
		c-6.9,3.1-14.9,2.8-22.4,1.4c-20.6-4-38.5-16.4-55.6-28.4C2600.1,1496.4,2530.8,1474,2589.7,1427.5z"/>
	<g>
		<path class="st18" d="M2543.7,1524.8c0-19.8,16.1-36,36-36c19.8,0,36,16.1,36,36c0,19.9-16.1,36-36,36
			C2559.9,1560.8,2543.7,1544.7,2543.7,1524.8z M2551.6,1524.8c0,15.5,12.6,28.2,28.2,28.2s28.2-12.6,28.2-28.2
			s-12.6-28.2-28.2-28.2S2551.6,1509.3,2551.6,1524.8z"/>
	</g>
	<path class="st2" d="M2727.4,1493.2c0,0,18,31.4,11.3,74.5l-6.2,5.2c0,0-6.5-67.8-15-69L2727.4,1493.2z"/>
	<path class="st9" d="M2184.8,959.2c28.4-7.4,120.1-22,186.6-23.8l0-0.3c0,0,0.7,0,2,0.1c1.3-0.1,2-0.2,2-0.2l0,0.3
		c24.7,1.5,113.4-1.1,142.5,45.7c32.1,51.6,54.6,475.9,54.6,475.9l-394.8,6.1C2177.7,1463,2173.3,962.2,2184.8,959.2z"/>
	<path class="st5" d="M2523,965.8c0,0,185.4,247.4,205.8,308.9c20.5,61.6,27,79.9-18.4,102.7c-50,25.1-81.7-33.8-93.6-76
		c-19.1-67.6-66.7-173.9-69.7-182.5C2542.9,1106.8,2523,965.8,2523,965.8z"/>
	<path class="st4" d="M2638,1104.7l-92,118.8l-94.9-280.1c0,0,100.5-1.6,122.9,33.3C2592.4,1005.4,2628.3,1053,2638,1104.7z"/>
	<path class="st3" d="M2274.1,945.4c27.8-4.9,61.4-9.1,97.3-10.1l0-0.3c0,0,0.7,0,2,0.1c1.3-0.1,2-0.2,2-0.2l0,0.3
		c13,0.8,43.9,0.5,74.4,6.8c0.2,2.8-2.2,8.2-6.5,15.2c-37.4,61.1-127.6,61.8-163.9,0.1C2276.4,952.7,2274.6,948.6,2274.1,945.4z"/>
	<path class="st3" d="M2370,842.9L2370,842.9c21.6-0.3,39.4,16.9,39.7,38.5l1.1,73c0.3,21.6-16.9,39.4-38.5,39.7h0
		c-21.6,0.3-39.4-16.9-39.7-38.5l-1.1-73C2331.2,861,2348.4,843.2,2370,842.9z"/>
	<path class="st5" d="M2369.6,819.3L2369.6,819.3c21.6-0.3,39.4,16.9,39.7,38.5l0.8,50.2c-12.3,3.9-25.4,6.2-39,6.4
		s-26.7-1.6-39.2-5.2l-0.8-50.2C2330.8,837.4,2348,819.7,2369.6,819.3z"/>
	
		<ellipse transform="matrix(0.7071 -0.7071 0.7071 0.7071 158.7335 1896.4952)" class="st3" cx="2368.6" cy="756.6" rx="136.1" ry="136.1"/>
	<path class="st3" d="M2458.7,763.1c0.4,22.6,19,40.6,41.5,40.3c22.6-0.4,40.6-19,40.3-41.5c-0.4-22.6-19-40.6-41.5-40.3
		C2476.4,721.9,2458.4,740.5,2458.7,763.1z"/>
	<path class="st3" d="M2200.8,767.1c0.4,22.6,19,40.6,41.5,40.3c22.6-0.4,40.6-19,40.3-41.5c-0.4-22.6-19-40.6-41.5-40.3
		C2218.5,725.9,2200.5,744.5,2200.8,767.1z"/>
	<path class="st2" d="M2407.1,769.6c0.1,5.5,4.7,10,10.3,9.9c5.6-0.1,10-4.7,10-10.2c-0.1-5.5-4.7-10-10.3-9.9
		C2411.5,759.5,2407.1,764,2407.1,769.6z"/>
	<path class="st2" d="M2312.3,771.1c0.1,5.5,4.7,10,10.3,9.9c5.6-0.1,10-4.7,10-10.2c-0.1-5.5-4.7-10-10.3-9.9
		C2316.7,760.9,2312.2,765.5,2312.3,771.1z"/>
	<g>
		<path class="st29" d="M2448.1,741.6l5.6-5.5c-20.6-21.3-47-15.8-48.1-15.6l1.6,7.7C2408.2,728,2430.6,723.6,2448.1,741.6z"/>
	</g>
	<g>
		<path class="st29" d="M2292,744c16.9-18.6,39.5-14.8,40.4-14.6l1.4-7.7c-1.1-0.2-27.7-4.8-47.6,17.1L2292,744z"/>
	</g>
	<path class="st4" d="M2072.2,1116.8l95.7,115.8l86.1-282.9c0,0-100.5,1.6-121.8,37.1C2114.6,1016.1,2080.3,1064.8,2072.2,1116.8z"
		/>
	<polygon class="st2" points="2486.5,938.6 2563.6,1514.6 2595,1510.7 2510.4,939.3 	"/>
	<path class="st3" d="M2500.2,1112.8c0.4,26.8,22.5,48.3,49.4,47.9c26.8-0.4,48.3-22.5,47.9-49.4c-0.4-26.8-22.5-48.3-49.4-47.8
		C2521.2,1063.8,2499.8,1085.9,2500.2,1112.8z"/>
	<path class="st3" d="M2584.4,1135.6l140.8,153.7c0,0,60.8,79.3,3.1,108.9c-41.5,21.3-76.4-21.7-98.6-48
		c-3.9-4.6-77.5-187.8-77.5-187.8L2584.4,1135.6z"/>
	<path class="st3" d="M2079.8,1123.7c0,0-44.5,156-47,205.7c-2.5,49.7,157.8,268.3,157.8,268.3l0,0c29.8,13.3,63.8-7,66.2-39.6
		l0.1-1.1l-113.6-192.9l40.3-203.4L2079.8,1123.7z"/>
	<g>
		<path class="st2" d="M2522.3,2557.2c0,0-11.8-26,3-28.4c14.8-2.4,22.8,6.7,22.8,6.7l36.1,40.4l18.9,29.4l-28.5-13L2522.3,2557.2z"
			/>
		<path class="st11" d="M2464.7,2544.8c0,0,12.1,28.9,24.5,23.6c7-3,19.4-26.5,28.6-23.2c9.3,3.4,45.1,29.6,58.7,36.5
			c13.6,6.8-28.4-46.2-28.4-46.2s35.3,36.2,47.5,42.4c12.1,6.2,114.5,31.3,117.2,63.1l-1.4,20.6c0,0-33.1,31-112.1,5.5
			c-79-25.5-123.7-29.7-137.9-35.1C2447,2626.5,2453.4,2545.7,2464.7,2544.8z"/>
		<path class="st9" d="M2615.3,2656.1c-37.6-5.7-100.4-32.2-124.5-34.6c-13.9-1.4-27.8-6.1-37.1-9.8c1,10.6,3.4,18.6,7.6,20.2
			c14.3,5.4,58.9,9.6,137.9,35.1c79,25.5,112.1-5.5,112.1-5.5l1.4-20.6C2703.8,2657.4,2653,2661.8,2615.3,2656.1z"/>
		<g>
			<path class="st18" d="M2543.2,2577.8c-0.6,0-1.3-0.1-1.9-0.5c-1.9-1-2.6-3.4-1.6-5.3c0.4-0.7,9.2-17.1,21.6-19.7
				c5-1.1,10,0.2,14.5,3.8c1.7,1.3,2,3.8,0.7,5.5c-1.3,1.7-3.8,2-5.5,0.6c-2.6-2.1-5.3-2.8-8-2.2c-7.4,1.6-14.3,11.9-16.3,15.7
				C2545.9,2577,2544.6,2577.8,2543.2,2577.8z"/>
		</g>
		<g>
			<path class="st18" d="M2555.4,2588.9c-0.6,0-1.3-0.1-1.9-0.5c-1.9-1-2.6-3.4-1.6-5.3c0.4-0.7,9.2-17.1,21.6-19.7
				c5-1.1,10,0.2,14.5,3.8c1.7,1.3,2,3.8,0.7,5.5c-1.3,1.7-3.8,2-5.5,0.6c-2.6-2.1-5.2-2.8-8-2.2c-7.4,1.6-14.3,11.9-16.3,15.7
				C2558.1,2588.1,2556.8,2588.9,2555.4,2588.9z"/>
		</g>
		<g>
			<path class="st18" d="M2570.4,2596.4c-0.6,0-1.3-0.1-1.9-0.5c-1.9-1-2.6-3.4-1.6-5.3c0.4-0.7,9.2-17.1,21.6-19.7
				c5-1.1,10,0.2,14.5,3.8c1.7,1.3,2,3.8,0.6,5.5c-1.3,1.7-3.8,2-5.5,0.6c-2.6-2.1-5.2-2.8-8-2.2c-7.3,1.5-14.3,11.8-16.3,15.7
				C2573.1,2595.6,2571.8,2596.4,2570.4,2596.4z"/>
		</g>
		<g>
			<path class="st18" d="M2586.1,2603.2c-0.6,0-1.3-0.1-1.9-0.5c-1.9-1-2.6-3.4-1.6-5.3c0.4-0.7,9.2-17.1,21.6-19.7
				c5-1.1,10,0.2,14.5,3.8c1.7,1.3,2,3.8,0.7,5.5c-1.3,1.7-3.8,2-5.5,0.6c-2.6-2.1-5.2-2.8-8-2.2c-7.4,1.6-14.3,11.9-16.3,15.7
				C2588.8,2602.5,2587.5,2603.2,2586.1,2603.2z"/>
		</g>
	</g>
	<g>
		<path class="st2" d="M2215.5,2582.9c0,0,11.3-26.2-3.5-28.3c-14.9-2.1-22.6,7.1-22.6,7.1l-35.4,41.1l-18.4,29.7l28.3-13.4
			L2215.5,2582.9z"/>
		<path class="st11" d="M2272.8,2569.4c0,0-11.6,29.1-24.1,24.1c-7.1-2.8-19.8-26.2-29-22.6c-9.2,3.5-44.6,30.4-58,37.5
			c-13.4,7.1,27.6-46.7,27.6-46.7s-34.7,36.8-46.7,43.2c-12,6.4-114,33.3-116.1,65.1l1.8,20.5c0,0,33.6,30.4,112.2,3.5
			c78.6-26.9,123.2-31.9,137.3-37.5C2291.9,2650.8,2284.1,2570.1,2272.8,2569.4z"/>
		<path class="st9" d="M2124.2,2683.4c37.5-6.4,99.8-34,123.9-36.8c13.9-1.6,27.7-6.5,37-10.4c-0.8,10.6-3.1,18.7-7.2,20.3
			c-14.2,5.7-58.7,10.6-137.3,37.5c-78.6,26.9-112.2-3.5-112.2-3.5l-1.8-20.5C2035.7,2686.2,2086.7,2689.7,2124.2,2683.4z"/>
		<g>
			<path class="st18" d="M2194.9,2603.8c-1.4,0-2.7-0.7-3.4-2c-2.1-3.8-9.2-14-16.6-15.4c-2.8-0.5-5.3,0.3-7.9,2.4
				c-1.7,1.4-4.1,1.1-5.5-0.6c-1.4-1.7-1.1-4.1,0.6-5.5c4.4-3.6,9.4-5,14.4-4c12.5,2.4,21.6,18.6,21.9,19.3c1,1.9,0.4,4.3-1.5,5.3
				C2196.2,2603.6,2195.6,2603.8,2194.9,2603.8z"/>
		</g>
		<g>
			<path class="st18" d="M2182.9,2615.1c-1.4,0-2.7-0.7-3.4-2c-2.1-3.8-9.2-14-16.6-15.4c-2.8-0.5-5.3,0.3-7.9,2.4
				c-1.7,1.4-4.1,1.1-5.5-0.6c-1.4-1.7-1.1-4.1,0.6-5.5c4.4-3.6,9.4-5,14.4-4c12.5,2.4,21.6,18.6,21.9,19.3c1,1.9,0.4,4.3-1.5,5.3
				C2184.2,2614.9,2183.6,2615.1,2182.9,2615.1z"/>
		</g>
		<g>
			<path class="st18" d="M2168,2622.9c-1.4,0-2.7-0.7-3.4-2c-2.1-3.8-9.2-14-16.6-15.4c-2.8-0.5-5.3,0.3-7.9,2.4
				c-1.7,1.4-4.2,1.1-5.5-0.6c-1.4-1.7-1.1-4.1,0.6-5.5c4.4-3.6,9.4-5,14.4-4c12.5,2.4,21.6,18.6,21.9,19.3c1,1.9,0.4,4.3-1.5,5.3
				C2169.3,2622.7,2168.7,2622.9,2168,2622.9z"/>
		</g>
		<g>
			<path class="st18" d="M2152.5,2630c-1.4,0-2.7-0.7-3.4-2c-2.1-3.8-9.2-14-16.6-15.4c-2.8-0.5-5.4,0.3-7.9,2.4
				c-1.7,1.4-4.1,1.1-5.5-0.6c-1.4-1.7-1.1-4.1,0.6-5.5c4.4-3.6,9.4-5,14.4-4c12.5,2.4,21.6,18.6,21.9,19.3c1,1.9,0.4,4.3-1.5,5.3
				C2153.8,2629.8,2153.1,2630,2152.5,2630z"/>
		</g>
	</g>
	<g>
		<path class="st30" d="M2370.1,838c-5.3,0-10.9-0.6-16.7-1.9l1.3-5.7c37.7,8.4,63.4-17.3,63.7-17.5l4.2,4.1
			C2421.6,818,2401.6,838,2370.1,838z"/>
	</g>
	<g>
		<path class="st2" d="M2317.6,813.8c-24,0-43.5-19.5-43.5-43.5c0-24,19.5-43.5,43.5-43.5c24,0,43.5,19.5,43.5,43.5
			C2361.1,794.3,2341.6,813.8,2317.6,813.8z M2317.6,734.7c-19.6,0-35.6,16-35.6,35.6s16,35.6,35.6,35.6c19.6,0,35.6-16,35.6-35.6
			S2337.2,734.7,2317.6,734.7z"/>
	</g>
	<g>
		<path class="st2" d="M2419.2,813.8c-24,0-43.5-19.5-43.5-43.5c0-24,19.5-43.5,43.5-43.5c24,0,43.5,19.5,43.5,43.5
			C2462.7,794.3,2443.2,813.8,2419.2,813.8z M2419.2,734.7c-19.7,0-35.6,16-35.6,35.6s16,35.6,35.6,35.6s35.6-16,35.6-35.6
			S2438.8,734.7,2419.2,734.7z"/>
	</g>
	<g>
		
			<rect x="2253" y="720.1" transform="matrix(0.6156 -0.788 0.788 0.6156 278.2012 2065.9551)" class="st2" width="7.8" height="55.4"/>
	</g>
	<g>
		
			<rect x="2451.5" y="742.5" transform="matrix(0.788 -0.6156 0.6156 0.788 65.965 1684.4564)" class="st2" width="55.4" height="7.8"/>
	</g>
	<path class="st29" d="M2403.7,587.5c-20.4-5-41-9.3-61.9-10.8c-10.7-0.8-22.8-0.3-30.3,7.4c-7.5,7.7-4.2,24.5,6.5,24.5
		c-33.2-2-68.9-3.5-96.8,14.5c-3.2,2-6.3,4.5-8,7.9c-3.3,6.9,1,15.6,7.5,19.7c6.5,4.1,14.5,4.8,22.2,5.3
		c-18.7,7.3-40.7,19.5-39.8,39.6c0.7,15.6,19.5,27.2,33.8,21c-4.8,4.7-9.7,9.8-11.6,16.2c-1.9,6.4,0.4,14.7,6.7,17
		c5.2,2,11-0.7,15.9-3.3c27.2-14.9,52.1-33.8,73.7-56c-6,6.6-9.8,15-11,23.8c-0.4,2.8-0.4,5.8,1.1,8.1c3.8,6,13,3.2,19-0.6
		c22.9-14.4,42.9-33.6,58.3-55.9c0.4,8.2,0.7,16.4,1.1,24.6c0.1,2.4,0.4,5.1,2.3,6.5c1.7,1.2,4.1,0.9,6.1,0.4
		c28.6-6.6,52.7-30.6,60.2-59C2467.5,605.4,2431.6,594.3,2403.7,587.5z"/>
	<path class="st29" d="M2484.5,645.8c2.8,5.2,3.2,11.6,6,16.8c4.4,8.2,13.7,12.2,21.2,17.8c7.5,5.6,13.7,16,8.6,23.9
		c-4.7,7.3-15.2,6.9-23.7,5.7c5.5,9.1,11.1,19,10.4,29.6c-0.7,10.6-11,21.1-21.1,17.8c-12.4-14.8-19.2-34.2-18.8-53.6
		c-0.9,7.5-9.6,12.3-17.1,11.1c-7.5-1.2-13.6-6.8-17.8-13.1C2404.1,660.1,2459.9,600.5,2484.5,645.8z"/>
	<g>
		<path class="st2" d="M2383.2,777.7h-7.8c0-4-3.3-7.3-7.3-7.3c-4,0-7.3,3.3-7.3,7.3h-7.8c0-8.4,6.8-15.2,15.2-15.2
			C2376.4,762.5,2383.2,769.3,2383.2,777.7z"/>
	</g>
</g>
</svg>
