<?xml version="1.0" encoding="utf-8"?>
<!-- Generator: Adobe Illustrator 24.2.0, SVG Export Plug-In . SVG Version: 6.00 Build 0)  -->
<svg version="1.1" id="Layer_1" xmlns="http://www.w3.org/2000/svg" xmlns:xlink="http://www.w3.org/1999/xlink" x="0px" y="0px"
	 viewBox="0 0 131 147" style="enable-background:new 0 0 131 147;" xml:space="preserve">
<style type="text/css">
	.st0{fill:#ED985F;}
	.st1{fill:#233862;}
	.st2{fill:#FFB27D;}
	.st3{fill:#B5453C;}
	.st4{fill:#DD6D22;}
	.st5{fill:#9E332E;}
	.st6{fill:#ED7D2B;}
	.st7{fill:#F99746;}
	.st8{fill:#FFFFFF;}
	.st9{fill:#86D1CD;}
	.st10{fill:#FCECDB;}
	.st11{fill:#F4D2B8;}
</style>
<g id="girl_2_3_">
	<path class="st0" d="M101.4,37.1c0,0-22.3,9.7-26.3,9.5c-4-0.2-28.9-7.6-28.9-7.6l0.6,4.3c0,0,19.2,11,25.9,11.7
		c6.6,0.6,29.2-5.9,31.4-7.3C106.3,46.3,107.7,38.5,101.4,37.1z"/>
	<path class="st1" d="M104.7,1.4c0,0,8.2-1.6,12.3,1.4c7.4,5.4,7.8,24.1,10.6,26.8c2.8,2.8,9.5,1.6,10.1,16
		c0.6,14.4-2.7,15.6,1.2,22c3.9,6.4-1.6,12.8-1.6,12.8s2.3-3.5,1.3-6.1c0,0-0.9,5.6-4.5,7c-3.6,1.3-4.1,2.3-4.7,4.2
		c0,0-30.6-15.7-30.6-26.8c0-11.1-6-22.1-3.1-26.9c0,0-1.3,2.1-1.5,4.4c0,0-1.8-3.4,1.3-6.5c3.1-3.1-3.6-9.7-2.6-17.2
		C93.5,7.3,97.2,1.7,104.7,1.4z"/>
	<path class="st2" d="M98.7,47.7c2,1.4,4.4,2.5,7.5,3.2c11.5,2.7,16-7.1,17.6-13.8c-1.6-0.9-3.1-1.1-3.9-1.2
		c-0.8-0.1-1.7-0.2-2.4-0.2c-1.3-1-3.2-5.1-3.7-11.4l-0.5,0.1l-9.1,2.5c0,0,0.4,2.9,0.6,5.6c0.2,2.1,0.2,4.2-0.2,4.7
		c-0.7,0.2-1.1,0.3-1.1,0.3s0,0,0,0C103.3,37.8,100.7,42.1,98.7,47.7z"/>
	<path class="st0" d="M104.2,27c0,0,0.4,2.9,0.6,5.6c5.2-0.5,7.5-5.4,8.5-8.1L104.2,27z"/>
	<path class="st2" d="M102.6,29.7c0,0,12.2-0.7,11.7-8.3c-0.5-7.6,0.7-12.8-7.1-12.7c-7.8,0.1-9.1,3.1-9.6,5.7
		C97.2,17,99.4,29.7,102.6,29.7z"/>
	<path class="st1" d="M97.7,10.2c1.7-2.4,3.2-2,4-1.4c6.4-4.1,11.1,1,11.1,1c1.2,5.4,5.4,8.2,5.4,8.2s-2.1,1.5-7.4,0.6
		c-1.6-0.3-3.1-1.3-4.4-2.6c2.3,3.3,5.3,5.6,5.3,5.6c-6.3-2.4-9.4-10.7-9.7-11.6c-0.7,0.7-2.1,2.3-2.4,3.7c-0.5,2-2.5,5.1-3.7,5
		C96,18.8,95.1,13.8,97.7,10.2z"/>
	<path class="st3" d="M127.3,72.6c1.1-5.6,4.7-28.2,1.1-35.4c-1.3-2.6-6.4-2.8-11.9-2.6c-1.7,1.1-8.3,5.3-11,4.8c0,0-0.1,0-0.2,0
		c-1.3-0.3-1.8-1.2-0.7-2c0,0-2.8-0.3-6.2,0.4c-1.9,0.4-7.1,3.1-7.1,3.1s2.6,4.7,6.5,6.4c-0.7,5.9,0.3,8.5,6.4,22.1
		c5.2,11.5-0.7,21.9-0.7,21.9s30.4,24.4,30.6,12C134.2,93.7,125.9,79.8,127.3,72.6z"/>
	<path class="st4" d="M102,117.6c-1.7-0.2-3.1-1.1-4.1-2.5c-0.1-0.2-0.3-0.5-0.5-0.7c-3.5-5.2-4.8-21.3-12.6-38.4
		c-1.9-4.2-8.7-4.9-10.6-9.6c0,0-4.6-15.2,8.7-15.7c13.3-0.4,35.6,42.4,36,46.9C119.4,102.1,127.8,120.6,102,117.6z"/>
	<path class="st5" d="M49.1,117.3H68c0,0,0.7-3-0.5-5.1c-1.1-1.8-0.7-2.9,0.1-4.4c-0.9,0.4-2,0.7-3.2,0.6c-0.9-0.1-1.9-0.5-2.8-1
		c-0.8,0.9-4.3,4.9-5.4,5.7C55,114,49.5,113.7,49.1,117.3z"/>
	<path class="st5" d="M125.3,43c0,0,2.5,22.4-13.5,27.1c-16,4.7-20.5-20.6-7.6-22.5C117.1,45.9,125.3,43,125.3,43z"/>
	<path class="st6" d="M73.9,55.2c-1.1,8.6-5.6,35.5-13.5,48.7c-2.5,4.2,6.4,6.6,6.4,6.6c1.2-0.3,3.2-2.2,4.1-3
		c6.4-5.7,19.3-22,19.3-35.1c0-6.4,0.1-18.5-4.5-21.6C82.9,48.9,74.3,51.8,73.9,55.2z"/>
	<path class="st7" d="M113.3,117.3c0,0-0.7-1-1.9-2.8c-1.5-2.2-3.1-6.5-5-12.1c-2.1-5.8-4.5-13-7.5-20.5c-0.9-2.3-1.9-4.6-3-7
		c-1.9-4.2-7.1-3.6-9-8.3c0,0-7.2-16.3,6.1-16.8c13.3-0.4,38.6,43.6,40,47.9C134.5,102.4,142.3,121.8,113.3,117.3z"/>
	<path class="st3" d="M63,117.3h18.9c0,0,0.7-3-0.5-5.1c-1.1-1.8-0.7-2.9,0.1-4.4c-0.9,0.4-2,0.7-3.2,0.6c-0.9-0.1-1.9-0.5-2.8-1
		c-0.8,0.9-4.3,4.9-5.4,5.7C68.9,114,63.4,113.7,63,117.3z"/>
	<path class="st6" d="M106.3,102.3c-2.1-5.8-4.5-13-7.5-20.5c0.8-5.7,2.5-10.6,5.4-12.6C104.2,69.2,111.2,90.9,106.3,102.3z"/>
	<path class="st7" d="M84.9,54.6c-1.1,8.6-2.7,36.1-10.6,49.3c-2.5,4.2,6.4,6.6,6.4,6.6c1.2-0.3,3.2-2.2,4.1-3
		c6.4-5.7,19.3-22,19.3-35.1c0-6.4-7.5-18-12.1-21.1C89.2,49.4,85.4,51.2,84.9,54.6z"/>
	<g>
		<path class="st5" d="M43.9,28L63.3,26c0.6-0.1,1.1,0.3,1.3,0.8L71.5,45c0.3,0.8-0.3,1.7-1.1,1.7l-19.2,0.8c-0.5,0-1-0.3-1.2-0.8
			l-7.1-17C42.6,29,43.1,28.1,43.9,28z"/>
		<path class="st3" d="M42.2,28.2l19.4-2.1c0.6-0.1,1.1,0.3,1.3,0.8l6.9,18.2c0.3,0.8-0.3,1.7-1.1,1.7l-19.2,0.8
			c-0.5,0-1-0.3-1.2-0.8l-7.1-17C40.9,29.2,41.4,28.3,42.2,28.2z"/>
		<path class="st5" d="M53,36.7c-0.2-0.7,0.1-1.2,0.7-1.2c0.7,0,1.4,0.5,1.6,1.2c0.2,0.7-0.1,1.2-0.7,1.2S53.2,37.4,53,36.7z"/>
		<path class="st5" d="M42.8,29.9c-0.1-0.3,0-0.6,0.4-0.6c0.3,0,0.7,0.3,0.8,0.6c0.1,0.3,0,0.6-0.4,0.6
			C43.3,30.5,42.9,30.3,42.8,29.9z"/>
	</g>
	<path class="st2" d="M123.8,37.1c0,0-26.9,9.9-30.9,9.7c-2.6-0.1-24.3-7.8-24.3-7.8s-1.6-2.5-3.4-3c0,0-3.1-1.4-4-1.7
		c-0.9-0.3-0.7,0-0.4,0.8c0.1,0.4,0.6,0.9,1.1,1.2c-1.5,0.4-2.9,1-3.6,1.1c-1.1,0.2-4.4,1.3-3.4,2.9c1,1.6,5.5,1.9,7.4,1.6
		c1.9-0.4,4.4,0.8,4.4,0.8s21.1,13.6,26.9,13.5c11.5-0.1,30.8-7.2,33-8.6C128.7,46.3,130.1,38.5,123.8,37.1z"/>
	<path class="st2" d="M44.2,37.5c0,0,1.9-3.1,2.6-3.2c1.9-0.4,1.9,2.2,1.5,3.8c-0.4,1.8-1.9,3.4-2.3,3.3
		C45.6,41.2,43.8,39.1,44.2,37.5z"/>
	<path class="st2" d="M44.1,38.1c0,0-0.6,3.5,2.7,5.3L44.1,38.1z"/>
	<path class="st8" d="M100.3,25.3c0,0,1.2-0.5,4.4-0.2c0,0-0.2,1.3-2.6,1.4C100.8,26.6,100.3,25.3,100.3,25.3z"/>
	<path class="st3" d="M109.9,42c0,0,2.4,7.6,10.7,9.3c0,0,13.6-4.2,6.8-13.5C127.5,37.9,120.7,32.9,109.9,42z"/>
</g>
<g>
	<g>
		<path class="st9" d="M177.9,147.7H99v-32.1h79.7c7.3,0,13.2,5.9,13.2,13.2v4.8C191.9,141.4,185.6,147.7,177.9,147.7z"/>
		<path class="st10" d="M101.2,147.7H10.3v-32.1h91.2c7.1,0,12.8,5.7,12.8,12.8v6.1C114.3,141.8,108.5,147.7,101.2,147.7z"/>
		<path class="st9" d="M120.1,147.7H7.6c-1.1,0-2-0.9-2-2v-0.7c0-1.1,0.9-2,2-2h112.6c1.1,0,2,0.9,2,2v0.7
			C122.2,146.8,121.3,147.7,120.1,147.7z"/>
		<path class="st9" d="M120.1,120.4H7.6c-1.1,0-2-0.9-2-2v-0.7c0-1.1,0.9-2,2-2h112.6c1.1,0,2,0.9,2,2v0.7
			C122.2,119.5,121.3,120.4,120.1,120.4z"/>
	</g>
	<polygon class="st11" points="10.3,131.7 23,132.2 10.3,132.5 	"/>
	<polygon class="st11" points="10.3,136.7 40.3,137.2 10.3,137.6 	"/>
</g>
</svg>
