<?xml version="1.0" encoding="utf-8"?>
<!-- Generator: Adobe Illustrator 25.4.1, SVG Export Plug-In . SVG Version: 6.00 Build 0)  -->
<svg version="1.1" id="Layer_1" xmlns="http://www.w3.org/2000/svg" xmlns:xlink="http://www.w3.org/1999/xlink" x="0px" y="0px"
	 viewBox="0 0 2895.8 2794.7" style="enable-background:new 0 0 2895.8 2794.7;" xml:space="preserve">
<style type="text/css">
	.st0{fill:#F4F7FA;}
	.st1{fill:url(#SVGID_1_);}
	.st2{clip-path:url(#SVGID_00000034771482476906488720000018376998341094446492_);}
	.st3{fill:#FCFDFE;}
	
		.st4{clip-path:url(#SVGID_00000086679480749530646140000008707029577277584000_);fill:url(#SVGID_00000155825753556477098270000016224214390070283648_);}
	.st5{clip-path:url(#SVGID_00000086679480749530646140000008707029577277584000_);}
	.st6{fill:url(#SVGID_00000064337294601812535770000007913684955644800671_);}
	.st7{fill:url(#SVGID_00000096754235984465423400000006179448300673794989_);}
	.st8{fill:url(#SVGID_00000151526904440693647760000007535756094443066279_);}
	.st9{fill:#FFFFFF;}
	.st10{opacity:0.3;}
	.st11{opacity:0.3;fill:url(#SVGID_00000142877966817793035130000012504861616785864841_);}
	.st12{clip-path:url(#SVGID_00000059294036638885681360000016601836792598753684_);}
	.st13{fill:url(#SVGID_00000156554972947019331490000012295162942551465642_);}
	.st14{opacity:0.4;fill:url(#SVGID_00000127724993417842954450000005294123038667841459_);}
	.st15{fill:url(#SVGID_00000145046280323269786290000012504086624823031994_);}
	.st16{fill:url(#SVGID_00000028321485375208619620000008802425972640913855_);}
	.st17{fill:url(#SVGID_00000012449116668224366950000000749535924148292226_);}
	.st18{fill:#FCB048;}
	.st19{fill:url(#SVGID_00000030476271066963963060000014609830340076700058_);}
	.st20{fill:url(#SVGID_00000041988574340400316270000016274865109459333540_);}
	.st21{fill:url(#SVGID_00000000935160796824616610000014267231179736818101_);}
	.st22{fill:url(#SVGID_00000183242590684697734360000006602239441136369085_);}
	.st23{fill:url(#SVGID_00000155140076619123340320000015067142680748133509_);}
	.st24{fill:url(#SVGID_00000132800525316860084560000007524019664755697032_);}
	.st25{fill:url(#SVGID_00000120524878816986038360000013313760976829025421_);}
	.st26{fill:url(#SVGID_00000080892864958408870980000011505701801389665956_);}
	.st27{fill:url(#SVGID_00000152970761265229600930000000211352757088878728_);}
	.st28{fill:url(#SVGID_00000088118908112754419170000001909042458990622604_);}
	.st29{fill:url(#SVGID_00000097482117683918139100000007206419949013303742_);}
	.st30{fill:url(#SVGID_00000071554871816228955950000006864136843224501902_);}
	.st31{fill:url(#SVGID_00000002344877589555713710000001189548126114707073_);}
	.st32{fill:url(#SVGID_00000059306420362021342910000005713083838316294332_);}
	.st33{fill:url(#SVGID_00000026878295277739049070000018083572548118256825_);}
	.st34{fill:url(#SVGID_00000085956739394840819860000011076592144542818963_);}
	.st35{fill:url(#SVGID_00000126310741581803955160000012915545482082120353_);}
	.st36{fill:url(#SVGID_00000072996263760535536780000011910296265290830523_);}
	.st37{fill:url(#SVGID_00000083058727482517128060000008654421305713602214_);}
	.st38{fill:url(#SVGID_00000052066102805743232170000003941700320482419391_);}
	.st39{fill:url(#SVGID_00000165945009370674372240000006484957266313877685_);}
	.st40{fill:url(#SVGID_00000020384330582423292690000005966798045169262265_);}
	.st41{fill:url(#SVGID_00000022553165474847907990000003377726231314901163_);}
	.st42{fill:url(#SVGID_00000034061111809116572710000010608502008392278156_);}
	.st43{fill:url(#SVGID_00000106137156118006957470000017987115949708137142_);}
	.st44{fill:url(#SVGID_00000024715672961403284970000001619772515098615981_);}
	.st45{fill:url(#SVGID_00000077308417399872491740000010284556596304068792_);}
	.st46{fill:url(#SVGID_00000181803666230686798980000012710370763040827306_);}
	.st47{fill:url(#SVGID_00000139263362717111879510000015312236974424847526_);}
	.st48{fill:url(#SVGID_00000170259629453517615660000001609425775503517870_);}
	.st49{fill:url(#SVGID_00000046328892665750090880000001986714803012823230_);}
	.st50{fill:url(#SVGID_00000134211095332151725770000002108034193092034747_);}
	.st51{fill:url(#SVGID_00000125561754102388279340000002302260763674303361_);}
</style>
<g id="Background">
</g>
<g>
	<path class="st0" d="M2435.6,569c-318.8-436.4-864.7-463.7-898.5-465.2c-430.5-20-737.9,199.6-848.7,281.3
		C608,444.4,496.3,528.2,392.1,675.5c-47.6,67.2-213.1,316.6-215.7,652.1c-4.1,521.6,388.5,861.1,459.8,920.3
		c385.6,319.9,1059.9,479.3,1565.8,114.3C2796.1,1933.6,2790,1054.2,2435.6,569z"/>
	<g>
		<g>
			
				<linearGradient id="SVGID_1_" gradientUnits="userSpaceOnUse" x1="-4067.0264" y1="-3343.3333" x2="-3634.676" y2="-579.3727" gradientTransform="matrix(-0.6647 -0.7471 -0.7471 0.6647 -2356.5066 591.3903)">
				<stop  offset="3.597120e-03" style="stop-color:#E38DDD"/>
				<stop  offset="1" style="stop-color:#9571F6"/>
			</linearGradient>
			<path class="st1" d="M1765.3,2329.3c-14.9-5.2-42.8-29.8-47.4-39.2c-30.8-62.5-96.1-175.8-76.7-246.9
				c3.3-12.1,60.7-11.9,70.7-21.6c36.6-8.7,49.8-9.5,80.5-34.9c90.6-75-36.9-278.7,165.7-298.1c148.3-14.2,255.7,58.6,286.4-160.6
				s285.1-576.6,481.4-377.7c112.6,114.1-59.1,269.7-20.4,419.4c36.8,142.3-40.2,236.7-193.3,285.1
				c-153.1,48.4-92.6,123.2-78.7,253.9c16.7,157.1-214.9,135.3-321,116.2C2027.3,2209.6,1799.4,2227.9,1765.3,2329.3z"/>
			<g>
				<defs>
					<path id="SVGID_00000050652389090998382160000006225532003584846725_" d="M1610.4,2017.3c11.5,108.2,18.7,218.7,29.7,327.7
						c59.5,17.7,129.9,37.1,159-34.5c40.5-99.5,228.5-101.4,313.8-85.6c105.5,19.6,337.5,40.9,320.7-116
						c-14-130.6-74.4-205.6,78.7-253.9c153.1-48.3,230-142.8,193.3-285.1c-38.7-149.7,133-305.2,20.4-419.4
						c-196.2-199-450.8,158.7-481.3,377.6c-30.5,218.9-138.6,147.3-286.3,160.4c-201.7,17.9-77.3,226.9-164.8,296.4
						C1724.9,2039.4,1684.4,2018.2,1610.4,2017.3z"/>
				</defs>
				<clipPath id="SVGID_00000049903852398154061760000006871885207037533630_">
					<use xlink:href="#SVGID_00000050652389090998382160000006225532003584846725_"  style="overflow:visible;"/>
				</clipPath>
				<g style="clip-path:url(#SVGID_00000049903852398154061760000006871885207037533630_);">
					<path class="st3" d="M1680.2,2173.2l-0.8-3.1c252.7-63.2,479.1-202.1,654.9-401.7c167.3-189.9,286.5-430.7,344.7-696.4l3.2,0.7
						c-58.3,266.2-177.8,507.5-345.4,697.9C2160.5,1970.6,1933.5,2109.8,1680.2,2173.2z"/>
					<path class="st3" d="M2448.1,2173.3c-122.7-71.1-342.9-118.9-490.9-106.5l-0.3-3.2c148.6-12.4,369.6,35.5,492.8,106.9
						L2448.1,2173.3z"/>
					<path class="st3" d="M1778.6,2147.4l-1.6-2.8c66.8-38.8,111.4-109.8,132.6-211.1c15.5-74.3,18.4-162.8,8.4-263.2l3.2-0.3
						c10,100.7,7.1,189.5-8.5,264.1C1891.3,2036.4,1846.2,2108.1,1778.6,2147.4z"/>
					<path class="st3" d="M2359.5,1742.5l-1.8-2.7c122.1-79.5,275.2-75.3,382.2-57.8l-0.5,3.2
						C2633,1667.8,2480.7,1663.6,2359.5,1742.5z"/>
					<path class="st3" d="M2543.8,1464.6l-3.1-0.9c19.5-67.7,37.9-209.7-58.1-400.1l2.9-1.5c32.4,64.3,55.4,132.4,66.3,196.8
						C2564.5,1333.1,2561.8,1402.3,2543.8,1464.6z"/>
				</g>
			</g>
		</g>
	</g>
	<g>
		<g>
			<defs>
				<path id="SVGID_00000101784085495501847260000008243288330359044781_" d="M2175.8,2217.2c-79.6-11.7-159.1-25.2-238.5-40.6
					c-1.3,1.2-27.4-171.8,54.8-262.6c162.5-175.8,53-333.5,21.8-427c-50-131.8-24.4-292,120.8-262
					c141.4,25.8,162.9-265.3,138.5-489.7c-20.8-109.2,82.2-241.6,185-271.9c104.9-33.5,209.7,35.1,241.8,252.7
					c48.6,252-135.3,403.9-203.4,530.3c-67,124,88.9,224.4-36.6,334.2c-105.5,97.6-238.5,167.8-189.9,290.5
					C2320.2,1992.4,2308.2,2091.5,2175.8,2217.2z"/>
			</defs>
			<clipPath id="SVGID_00000116915238699772392830000012113613660907985589_">
				<use xlink:href="#SVGID_00000101784085495501847260000008243288330359044781_"  style="overflow:visible;"/>
			</clipPath>
			
				<linearGradient id="SVGID_00000124861324220864025840000000855812292071215510_" gradientUnits="userSpaceOnUse" x1="-178.5284" y1="-1707.7581" x2="-750.022" y2="-83.5116" gradientTransform="matrix(-0.8674 -0.4976 -0.4976 0.8674 1453.9243 1891.297)">
				<stop  offset="0" style="stop-color:#FF9085"/>
				<stop  offset="1" style="stop-color:#FB6FBB"/>
			</linearGradient>
			
				<path style="clip-path:url(#SVGID_00000116915238699772392830000012113613660907985589_);fill:url(#SVGID_00000124861324220864025840000000855812292071215510_);" d="
				M2175.8,2217.2c-79.6-11.7-159.1-25.2-238.5-40.6c-1.3,1.2-27.4-171.8,54.8-262.6c162.5-175.8,53-333.5,21.8-427
				c-49.5-131.7-23.5-274.3,110.6-276.5c148.7-5.2,175.6-251.3,148.7-475.2c-20.8-109.2,82.2-241.6,185-271.9
				c104.9-33.5,209.7,35.1,241.8,252.7c48.6,252-135.3,403.9-203.4,530.3c-67,124,88.9,224.4-36.6,334.2
				c-105.5,97.6-238.5,167.8-189.9,290.5C2320.2,1992.4,2308.2,2091.5,2175.8,2217.2z"/>
			<g style="clip-path:url(#SVGID_00000116915238699772392830000012113613660907985589_);">
				<path class="st3" d="M2069.4,2227.5l-3.2-0.1c0-1.5,76.1-365.5,207.2-719.8c18.1-57.4,37.8-115.2,56.8-171.2
					c51-149.8,103.6-304.7,128.7-458.9c28-172.4,18-327.7-30.5-474.7l3.1-1c48.6,147.5,58.6,303.3,30.6,476.2
					c-25.1,154.5-77.8,309.5-128.8,459.5c-19,55.9-38.7,113.8-56.8,171.2C2144.3,1865.7,2069.6,2225.3,2069.4,2227.5z"/>
				<path class="st3" d="M2425.4,1047l-2.4-2.2c88.7-98.6,195.8-238.7,253.3-313.9c46.3-60.6,46.5-60.5,48.5-60.2l-0.2,1.6l0.7,1.4
					c-2.3,1.6-21.7,27-46.3,59.1C2621.3,808.1,2514.2,948.3,2425.4,1047z"/>
				<path class="st3" d="M2452.2,911.8c-18.4-113-64.9-187.3-100.7-229.8c-39.5-46.9-76-67.3-79.7-67.8c0,0,0.4,0,0.8-0.2l-1.8-2.7
					c0.8-0.5,1.8-0.4,3.9,0.5c9.8,4.3,46.5,27.2,85.1,75.1c48.5,60.3,81.6,137.9,95.6,224.3L2452.2,911.8z"/>
				<path class="st3" d="M2198.5,1739.4l-3.2-0.4c12.5-105.1-12-218.2-72.8-336.1c-31.7-61.5-72.2-121.7-120.3-179
					c-3.5-4.2-4.7-5.6-5.1-6.3l2.8-1.6c0.3,0.5,2.3,2.8,4.8,5.8c48.2,57.5,88.8,117.9,120.6,179.6
					C2186.5,1519.9,2211.1,1633.6,2198.5,1739.4z"/>
				<path class="st3" d="M2234.4,1628.7l-2.8-1.7c95.4-154.2,296.6-164.9,298.4-164.4l1.2,1.5l-1.1,1.6l-0.5-1.5l-0.1,1.6
					c0,0,0,0,0,0C2526.3,1465.8,2328.3,1477,2234.4,1628.7z M2529.1,1462.7l0.5,1.5L2529.1,1462.7z"/>
				<path class="st3" d="M2082.7,2168.1l-3.2-0.1c1.7-45.8-14.7-123.8-102.2-235.5c-4.7-6.1-4.7-6.1-4.6-7l3.2,0.5l-1.6-0.2l1.5-0.6
					c0.2,0.5,2,2.7,4.1,5.4C2067.9,2043,2084.4,2121.8,2082.7,2168.1z"/>
				<path class="st3" d="M2102.9,2081.9l-3.1-0.9c10.1-34.8,49.8-103,202.4-168.7c2.1-0.9,3.5-1.5,3.9-1.7l1.5,2.9
					c-0.5,0.3-1.9,0.9-4.1,1.8C2152.1,1980.4,2112.8,2047.6,2102.9,2081.9z"/>
			</g>
		</g>
	</g>
	<g>
		<g>
			
				<linearGradient id="SVGID_00000035500467846243203690000015393191673048844428_" gradientUnits="userSpaceOnUse" x1="796.9161" y1="2838.2122" x2="2338.7996" y2="-109.322">
				<stop  offset="0" style="stop-color:#444B8C"/>
				<stop  offset="0.9964" style="stop-color:#26264F"/>
			</linearGradient>
			<path style="fill:url(#SVGID_00000035500467846243203690000015393191673048844428_);" d="M2539.1,1451.2
				c0,535.3-433.8,989.1-987.2,1014.4C977,2491.8,494.5,2049.1,494.5,1475.8S977,448.2,1551.8,460.6
				C2105.3,472.5,2539.1,915.9,2539.1,1451.2z"/>
			
				<linearGradient id="SVGID_00000106125543450887442530000017773736338197119923_" gradientUnits="userSpaceOnUse" x1="-147.0604" y1="4765.6128" x2="1394.8231" y2="1818.0786">
				<stop  offset="0" style="stop-color:#AA80F9"/>
				<stop  offset="0.9964" style="stop-color:#6165D7"/>
			</linearGradient>
			<path style="fill:url(#SVGID_00000106125543450887442530000017773736338197119923_);" d="M2603.3,1451.2
				c0,535.3-433.8,989.1-987.2,1014.4c-574.8,26.3-1057.3-416.4-1057.3-989.7S1041.3,448.2,1616.1,460.6
				C2169.5,472.5,2603.3,915.9,2603.3,1451.2z"/>
			
				<linearGradient id="SVGID_00000153679354334216475200000012035858408839209918_" gradientUnits="userSpaceOnUse" x1="2123.0327" y1="862.9985" x2="-560.7175" y2="3831.8403">
				<stop  offset="0" style="stop-color:#AA80F9"/>
				<stop  offset="0.9964" style="stop-color:#6165D7"/>
			</linearGradient>
			<path style="fill:url(#SVGID_00000153679354334216475200000012035858408839209918_);" d="M2542.2,1451.9
				c0,504.4-409.2,931.2-930.2,953.9c-539.9,23.6-992.1-392.7-992.1-930.7s452.2-965.2,992.1-954.7
				C2133.1,530.6,2542.2,947.5,2542.2,1451.9z"/>
			<g>
				<path class="st9" d="M1774.1,1346.4c-32-9-60.9-17.7-86.7-26.1c-111.4-36.4-165.7-69-165.7-107.8c0-20.9,9.1-42.4,37.3-57.5
					c23.5-12.6,60.1-20.9,115.7-20.9c166.4,0,275.4,51.7,330.8,72.7l66.2-265.8c-74.6-30.6-167.7-59.3-323.9-65V711.6h-229.2v177.7
					c-83.3,15.5-165.7,45.6-224.8,87.3c-0.1,0.1-0.1,0.2-0.2,0.3c-95.2,67.5-145.5,165.2-145.5,279.6c0,208.5,176.3,309.9,400,363.5
					c158.8,38.2,218.3,70.8,218.3,128.1c0,63.1-76.5,86.1-177.9,86.1c-149.2,0-286.8-49.8-382.3-95.7l-70.4,275.4
					c82.2,44,237.1,86,382.9,93.6v177.1h229.2v-194.3c93.8-13.3,157.5-39.4,215.4-75.1c0.3-0.2,2-0.4,2.3-0.6
					c114.5-70.7,174.1-178.6,174.1-299.2C2139.6,1526.2,2040,1419.1,1774.1,1346.4z"/>
			</g>
			<g class="st10">
				
					<linearGradient id="SVGID_00000134208961287847114050000015542664652888376975_" gradientUnits="userSpaceOnUse" x1="558.8101" y1="1487.8514" x2="2180.6438" y2="1487.8514">
					<stop  offset="0" style="stop-color:#AA80F9"/>
					<stop  offset="0.9964" style="stop-color:#6165D7"/>
				</linearGradient>
				<path style="opacity:0.3;fill:url(#SVGID_00000134208961287847114050000015542664652888376975_);" d="M1170.6,1032.7
					c-34-110.8-32.4-279,133.3-527.6C876.4,628.2,558.8,1016,558.8,1479.8c0,573.3,482.5,1016,1057.3,989.7
					c211.9-9.7,406-82,564.5-196.8c-4.9-152.9-38.2-320.3-131.7-474.6C1791.7,1373.6,1277.3,1380.3,1170.6,1032.7z"/>
			</g>
		</g>
		<g>
			<defs>
				<path id="SVGID_00000037687895110164112700000006219155095296990635_" d="M1443.4,66.8c-962.9,0-1071.9,822.6-1071.9,822.6H95.3
					v74.7l542.9,746.7L1301.6,844h-261.3l369.8-433.4c0,0,424.9,75.9,571.6,125.2c189.5,69.9,338.6,228.5,338.6,228.5
					S2172.2,66.8,1443.4,66.8z"/>
			</defs>
			<clipPath id="SVGID_00000009572781350852409930000002871885835587583906_">
				<use xlink:href="#SVGID_00000037687895110164112700000006219155095296990635_"  style="overflow:visible;"/>
			</clipPath>
			<g style="clip-path:url(#SVGID_00000009572781350852409930000002871885835587583906_);">
				
					<linearGradient id="SVGID_00000045590272090930376950000014586477782713895594_" gradientUnits="userSpaceOnUse" x1="744.9401" y1="1572.8715" x2="1786.2051" y2="145.8146">
					<stop  offset="0" style="stop-color:#FCB148"/>
					<stop  offset="5.207239e-02" style="stop-color:#FDBA46"/>
					<stop  offset="0.1424" style="stop-color:#FFC244"/>
					<stop  offset="0.3183" style="stop-color:#FFC444"/>
					<stop  offset="0.4849" style="stop-color:#FDB946"/>
					<stop  offset="0.7754" style="stop-color:#F99C4D"/>
					<stop  offset="0.8658" style="stop-color:#F8924F"/>
					<stop  offset="1" style="stop-color:#F8924F"/>
				</linearGradient>
				<path style="fill:url(#SVGID_00000045590272090930376950000014586477782713895594_);" d="M2299.9,909.4v3.1
					c-28.7-37.4-80.2-89.3-111-119.3c-0.6-1.3-1.5-2.7-2.1-4c-17.2-39.3-40.4-81.8-70.7-124.2c-30.1-42.6-68.3-84.4-112.9-123
					c-5.3-5-11.5-9.4-17.2-14.1c-2.9-2.3-5.9-4.7-8.8-7l-4.3-3.5c-1.5-1.2-3.1-2.2-4.6-3.4c-6.1-4.4-12.2-8.9-18.4-13.4l-4.6-3.4
					l-4.8-3.1c-3.2-2.1-6.4-4.2-9.6-6.3c-12.6-8.7-26.3-16.3-39.6-24.2c-6.8-3.9-13.9-7.4-20.8-11.1c-3.4-1.8-6.9-3.7-10.4-5.5
					c-3.6-1.7-7.2-3.4-10.7-5.1c-57-27.4-119.1-47.2-182.8-58.1c-8-1.3-15.9-2.5-24-3.8c-8-1.1-16.1-1.7-24.1-2.6l-12.1-1.3
					l-12.1-0.6l-12.1-0.7c-4-0.2-8-0.6-12.1-0.5c-8,0-16.1-0.1-24.2-0.2c-2,0-4.1-0.1-5.9,0l-5.4,0.3l-10.8,0.5l-10.7,0.5
					c-0.9,0-1.6,0-2.8,0.1l-11,0.8l-14.7,1l-11,0.8l-1.8,0.1l-0.7,0c0,0-3.8,0,2.6,0.1l-23.7,3.3c-3.9,0.6-7.8,0.9-11.7,1.8
					l-11.6,2.2l-11.6,2.2l-5.8,1.1c-1.9,0.4-3.8,0.9-5.7,1.3c-7.6,1.8-15.2,3.6-22.7,5.5c-3.8,0.8-7.5,2-11.2,3.1l-11.1,3.3
					l-11.1,3.2l-10.8,3.8c-7.2,2.6-14.4,4.8-21.5,7.6c-7,2.8-14,5.6-20.9,8.5c-55.2,23.4-104.8,53.6-147.1,88.1l-8,6.3l-7.6,6.8
					c-5,4.5-10.2,8.7-14.9,13.3c-0.2,0.2-0.4,0.4-0.6,0.5c-9.3,9.1-18.7,17.7-27,27.2c-2.2,2.3-4.4,4.7-6.5,7l-3.3,3.4l-3,3.7
					c-4.1,4.8-8.1,9.6-12.1,14.3c-1,1.2-2.1,2.3-3,3.5l-2.7,3.7c-1.9,2.5-3.7,4.9-5.6,7.3c-3.6,4.9-7.6,9.5-10.8,14.5
					c-27.4,39.1-48.3,78.2-62.5,115.4c-14.3,37.2-22.8,72.1-27.7,102.9c-0.5,3.9-1.1,7.7-1.6,11.4c-0.5,3.7-1.2,7.3-1.4,11
					c-0.6,7.3-1.2,14.2-1.8,20.8c-0.4,6.7-0.4,13.2-0.7,19.2c-0.1,3-0.3,6-0.4,8.9c0.1,2.9,0.2,5.8,0.2,8.5
					c0.1,5.5,0.2,10.7,0.2,15.6c0,1.4,0.2,2.1,0.3,3c0.1,0.9,0.2,1.8,0.4,2.7c0.2,1.7,0.4,1.5,0.6,3c0.1,1.3,0.3,2,0.4,2h270.2
					l-164.2,173.3l-381.7,397.4L126.7,949.3h287c0.4,0,0.9-4.7,1.3-8.4c1.1-7.9,2.3-15.7,3.6-25.1c0.7-4.7,1.4-9.1,2.2-14.1
					c0.4-2.5,0.8-4.8,1.2-7.4c0.4-2.5,0.7-5.3,1.3-7.5c2-9.5,4.1-19.4,6.3-30.1c1.2-5.3,2.3-10.7,3.6-16.2c1.3-5.5,2.9-11.2,4.4-17
					c3.1-11.5,6.2-23.6,9.9-36.1c4-12.4,8.2-25.2,12.5-38.6c2.1-6.7,4.8-13.3,7.4-20.2c2.6-6.7,5.3-13.6,8-20.7
					c22.3-55.7,52.7-116.3,93.4-177.3c40.5-61,92.1-121.8,153.3-178.1c7.4-7.2,15.6-13.8,23.6-20.8c4-3.4,8-6.8,12-10.3l6.1-5.2
					l6.2-4.9c8.4-6.5,16.9-13.1,25.4-19.7l6.4-4.9l6.6-4.7c4.5-3.2,8.9-6.3,13.4-9.4c17.5-12.8,36.4-24.3,55.1-36.2
					c9.4-5.8,19.2-11.2,28.9-16.8c4.8-2.7,9.7-5.5,14.6-8.3c5-2.6,10-5.2,15-7.7c79.9-41.7,168.1-73.3,259.7-92.2
					c11.5-2.1,23-4.3,34.5-6.5c11.5-2,23.2-3.4,34.8-5.1l17.4-2.3l17.5-1.6l17.5-1.6c5.8-0.5,11.6-1.1,17.5-1.3
					c11.7-0.5,23.4-1.8,35.1-2.3c2.9-0.1,5.8-1.2,8.7-1.2h8.8l17.4,0.9l17.4,0.5c5.8,0,11.7,0.7,17.4,1l34.7,2
					c7.9,0.1,2.7,0.2,4.7,0.2l0.9,0.1l1.8,0.2l3.6,0.5l7.3,0.9l14.5,1.7l7.3,0.9l3.6,0.4l4.5,0.6l18.4,2.6l18.4,2.7l9.1,1.4
					c3,0.5,5.7,1.1,8.5,1.6c11.2,2.3,22.4,4.6,33.6,6.8c5.6,1.1,11.1,2.6,16.6,3.9l16.5,4.2l16.4,4.2l16.2,4.9
					c10.8,3.3,21.5,6.4,32.1,10c10.5,3.8,21,7.5,31.5,11.3c83,31.4,158.8,73.4,223.9,122.2c4.1,3,8.2,6.1,12.2,9.1
					c4,3.1,7.9,6.3,11.8,9.5c7.8,6.3,15.6,12.4,23.1,18.9c14.8,13.2,29.6,25.9,43.1,39.7c3.4,3.4,6.8,6.8,10.3,10.1l5,5l4.8,5.2
					c6.4,7,12.8,13.9,19.1,20.7l4.7,5.2l4.5,5.3c2.9,3.6,5.9,7.1,8.8,10.6c5.8,7.1,11.9,13.8,17.2,21.1c29.8,38.3,55,77,75.8,115.2
					c10.2,18.6,19.2,37,27.3,55.3c24.7,55.7,40.6,108.8,50.6,156c1.1,5.9,2.3,11.8,3.4,17.5c1.1,5.7,2.3,11.3,3,16.9
					c1.6,11.1,3.1,21.8,4.6,32.1c1.2,10.3,1.9,20.2,2.8,29.7c0.4,4.7,0.9,9.3,1.1,13.8c0.2,4.5,1.2,8.8,1.4,13.1
					C2298.5,893.7,2299.9,901.9,2299.9,909.4z"/>
				
					<linearGradient id="SVGID_00000183244290853793686130000008501792361079128963_" gradientUnits="userSpaceOnUse" x1="1591.1553" y1="886.748" x2="1976.0728" y2="359.2175">
					<stop  offset="0" style="stop-color:#FCB148"/>
					<stop  offset="5.207239e-02" style="stop-color:#FDBA46"/>
					<stop  offset="0.1424" style="stop-color:#FFC244"/>
					<stop  offset="0.3183" style="stop-color:#FFC444"/>
					<stop  offset="0.4849" style="stop-color:#FDB946"/>
					<stop  offset="0.7754" style="stop-color:#F99C4D"/>
					<stop  offset="0.8658" style="stop-color:#F8924F"/>
					<stop  offset="1" style="stop-color:#F8924F"/>
				</linearGradient>
				<path style="opacity:0.4;fill:url(#SVGID_00000183244290853793686130000008501792361079128963_);" d="M2299.9,909.4v3.1
					c-28.7-37.4-80.2-89.3-111-119.3c-0.6-1.3-1.5-2.7-2.1-4c-17.2-39.3-40.4-81.8-70.7-124.2c-30.1-42.6-68.3-84.4-112.9-123
					c-5.3-5-11.5-9.4-17.2-14.1c-2.9-2.3-5.9-4.7-8.8-7l-4.3-3.5c-1.5-1.2-3.1-2.2-4.6-3.4c-6.1-4.4-12.2-8.9-18.4-13.4l-4.6-3.4
					l-4.8-3.1c-3.2-2.1-6.4-4.2-9.6-6.3c-12.6-8.7-26.3-16.3-39.6-24.2c-6.8-3.9-13.9-7.4-20.8-11.1c-3.4-1.8-6.9-3.7-10.4-5.5
					c-3.6-1.7-7.2-3.4-10.7-5.1c-57-27.4-119.1-47.2-182.8-58.1c-8-1.3-15.9-2.5-24-3.8c-8-1.1-16.1-1.7-24.1-2.6l-12.1-1.3
					l-12.1-0.6l-12.1-0.7c-4-0.2-8-0.6-12.1-0.5c-8,0-16.1-0.1-24.2-0.2c-2,0-4.1-0.1-5.9,0l-5.4,0.3l-10.8,0.5l-10.7,0.5
					c-0.9,0-1.6,0-2.8,0.1l-11,0.8l-14.7,1l-11,0.8l-1.8,0.1l-0.7,0c0,0-3.8,0,2.6,0.1l-23.7,3.3c-3.9,0.6-7.8,0.9-11.7,1.8
					l-11.6,2.2l-11.6,2.2l-5.8,1.1c-1.9,0.4-3.8,0.9-5.7,1.3c-7.6,1.8-15.2,3.6-22.7,5.5c-3.8,0.8-7.5,2-11.2,3.1l-11.1,3.3
					l-11.1,3.2l-10.8,3.8c-7.2,2.6-14.4,4.8-21.5,7.6c-7,2.8-14,5.6-20.9,8.5c-55.2,23.4-104.8,53.6-147.1,88.1l-8,6.3l-7.6,6.8
					c-5,4.5-10.2,8.7-14.9,13.3c-0.2,0.2-0.4,0.4-0.6,0.5c121.3-143,317.8-235.9,539.5-235.9c227.2,0,427.8,97.5,548.2,246.4
					c10.2,18.6,19.2,37,27.3,55.3c24.7,55.7,40.6,108.8,50.6,156c1.1,5.9,2.3,11.8,3.4,17.5c1.1,5.7,2.3,11.3,3,16.9
					c1.6,11.1,3.1,21.8,4.6,32.1c1.2,10.3,1.9,20.2,2.8,29.7c0.4,4.7,0.9,9.3,1.1,13.8c0.2,4.5,1.2,8.8,1.4,13.1
					C2298.5,893.7,2299.9,901.9,2299.9,909.4z"/>
			</g>
		</g>
	</g>
	<g>
		<g>
			
				<linearGradient id="SVGID_00000056418915594528286010000008814091993320481975_" gradientUnits="userSpaceOnUse" x1="228.2267" y1="2618.1992" x2="1093.814" y2="2618.1992">
				<stop  offset="0" style="stop-color:#FCB148"/>
				<stop  offset="5.207239e-02" style="stop-color:#FDBA46"/>
				<stop  offset="0.1424" style="stop-color:#FFC244"/>
				<stop  offset="0.3183" style="stop-color:#FFC444"/>
				<stop  offset="0.4849" style="stop-color:#FDB946"/>
				<stop  offset="0.7754" style="stop-color:#F99C4D"/>
				<stop  offset="0.8658" style="stop-color:#F8924F"/>
				<stop  offset="1" style="stop-color:#F8924F"/>
			</linearGradient>
			<path style="fill:url(#SVGID_00000056418915594528286010000008814091993320481975_);" d="M292.5,2552.1v83.4
				c0,27,168.4,48.8,376.2,48.8s376.2-21.9,376.2-48.8v-83.4H292.5z"/>
			
				<linearGradient id="SVGID_00000008850498225398203680000010441319171259070110_" gradientUnits="userSpaceOnUse" x1="664.9983" y1="2520.6938" x2="710.6311" y2="2902.7068">
				<stop  offset="0" style="stop-color:#FFDB44"/>
				<stop  offset="1" style="stop-color:#FEEF06"/>
			</linearGradient>
			<path style="fill:url(#SVGID_00000008850498225398203680000010441319171259070110_);" d="M1044.9,2552.1
				c0,27-168.4,48.8-376.2,48.8s-376.2-21.9-376.2-48.8c0-27,168.4-48.8,376.2-48.8S1044.9,2525.1,1044.9,2552.1z"/>
			
				<linearGradient id="SVGID_00000182528939439058691780000008545665414309910660_" gradientUnits="userSpaceOnUse" x1="663.014" y1="2503.6577" x2="677.0286" y2="2620.9805">
				<stop  offset="0" style="stop-color:#FFDB44"/>
				<stop  offset="1" style="stop-color:#FEEF06"/>
			</linearGradient>
			<path style="fill:url(#SVGID_00000182528939439058691780000008545665414309910660_);" d="M668.7,2604.3
				c-184,0-376.4-17.6-376.4-51.5c0-1.9,0.7-5.1,2.5-5.1c1.9,0,1.1,2.6,1.1,4.4c0,21.5,153.1,45.4,372.8,45.4
				c219.7,0,372.8-24,372.8-45.4c0-1.9,0.3-3.6,2.2-3.6s1.4,2.5,1.4,4.3C1045.2,2586.7,852.8,2604.3,668.7,2604.3z"/>
			<g>
				<path class="st18" d="M633.2,2554.8c3.7-2.6,7.6-5.1,11.8-7.6c4.2-2.5,9.6-4.7,16.2-6.7c6.6-2,14.9-3.6,24.8-4.9
					c9.9-1.3,22.3-1.9,37.1-2c14.5-0.1,28.2,0.4,40.9,1.4c12.7,1,24,2.5,33.7,4.5c9.7,2,17.6,4.4,23.6,7.3c6,2.9,9.6,6.3,10.8,10
					l42.4,0.4c3.1,0,5.8,0.3,8.1,0.8c2.4,0.5,3.5,1.1,3.5,1.8l0,3.5l-54.5-0.5c-1.9,4.3-6.8,8.2-14.6,11.7
					c-7.8,3.5-17.7,6.6-29.9,9.2l-19.8-2.8c-1.8-0.3-3.2-0.6-4.4-1c-1.1-0.4-1.7-0.9-1.7-1.4c0-0.7,1.5-1.4,4.6-2.3
					c3.1-0.9,6.5-1.9,10.4-3.2c3.9-1.3,7.6-2.8,11.4-4.5c3.7-1.7,6.2-3.8,7.5-6.2l-128.5-1.3c-3.4,2.5-7.2,4.9-11.4,7.3
					c-4.2,2.4-9.7,4.6-16.7,6.5c-6.9,1.9-15.5,3.5-25.9,4.7c-10.4,1.2-23.3,1.8-39,1.9c-11.8,0.1-23.2-0.4-34.5-1.3
					c-11.2-1-21.2-2.4-29.9-4.3c-8.7-1.9-15.9-4.2-21.5-7c-5.6-2.8-8.7-6-9.3-9.6l-34.9-0.4c-3.1,0-5.8-0.3-8.2-0.7
					c-2.4-0.5-3.6-1.1-3.6-1.9l0-3.5l47.7,0.5c2.1-3.7,6.4-6.9,13-9.6c6.6-2.7,14.7-5.2,24.2-7.3l16,2.2c4.9,0.7,7.3,1.5,7.3,2.4
					c0,0.5-1,1.1-3,1.8c-2,0.7-4.4,1.6-7.2,2.6c-2.7,1-5.4,2.2-7.9,3.6c-2.6,1.4-4.5,2.9-5.8,4.7L633.2,2554.8z M515.6,2559.5
					c1,2.3,3.1,4.3,6.3,5.9c3.2,1.7,7.3,3,12.1,4.1c4.9,1.1,10.3,1.9,16.3,2.3c6.1,0.5,12.4,0.7,19,0.7c7.7,0,14.5-0.4,20.2-1
					c5.7-0.6,10.7-1.5,15.1-2.6c4.3-1.1,8.1-2.3,11.4-3.8c3.2-1.4,6.1-3,8.7-4.6L515.6,2559.5z M795.4,2556.4
					c-1-2.3-3.3-4.3-6.9-6.1c-3.6-1.7-8.3-3.2-13.9-4.4c-5.6-1.2-12.2-2.1-19.8-2.7c-7.5-0.6-15.8-0.8-24.8-0.8
					c-8,0-15,0.4-20.8,1.1c-5.8,0.7-10.8,1.6-15.1,2.7c-4.3,1.1-7.9,2.5-10.9,4c-3,1.5-5.8,3.2-8.3,4.9L795.4,2556.4z"/>
			</g>
			
				<linearGradient id="SVGID_00000009580912542108205160000012370231543604267916_" gradientUnits="userSpaceOnUse" x1="177.0604" y1="1282.485" x2="191.0253" y2="1399.3917" gradientTransform="matrix(-1 0 0 -1 853.249 3891.1655)">
				<stop  offset="3.597120e-03" style="stop-color:#F36F56"/>
				<stop  offset="0.3059" style="stop-color:#F99C4C"/>
				<stop  offset="0.545" style="stop-color:#FDB946"/>
				<stop  offset="0.6817" style="stop-color:#FFC444"/>
				<stop  offset="0.8038" style="stop-color:#FFC244"/>
				<stop  offset="0.8667" style="stop-color:#FEBA46"/>
				<stop  offset="0.916" style="stop-color:#FCAD49"/>
				<stop  offset="0.958" style="stop-color:#F99A4D"/>
				<stop  offset="0.9955" style="stop-color:#F58152"/>
				<stop  offset="1" style="stop-color:#F57E53"/>
			</linearGradient>
			<path style="fill:url(#SVGID_00000009580912542108205160000012370231543604267916_);" d="M668.8,2508.5
				c-167.7,0-342.4,14.8-370.3,43.3c1.1,1,2.1,2.1,3.1,3.2c23.5-19.8,167.8-39.8,367.3-39.8c204.6,0,351.2,21,368.9,41.3
				c0.9-1.1,1.8-2.2,2.8-3.2C1017.4,2523.8,839.5,2508.5,668.8,2508.5z"/>
		</g>
		<g>
			
				<linearGradient id="SVGID_00000038396211514571290050000013434511168331137677_" gradientUnits="userSpaceOnUse" x1="123.6461" y1="2530.5525" x2="989.2325" y2="2530.5525">
				<stop  offset="0" style="stop-color:#FCB148"/>
				<stop  offset="5.207239e-02" style="stop-color:#FDBA46"/>
				<stop  offset="0.1424" style="stop-color:#FFC244"/>
				<stop  offset="0.3183" style="stop-color:#FFC444"/>
				<stop  offset="0.4849" style="stop-color:#FDB946"/>
				<stop  offset="0.7754" style="stop-color:#F99C4D"/>
				<stop  offset="0.8658" style="stop-color:#F8924F"/>
				<stop  offset="1" style="stop-color:#F8924F"/>
			</linearGradient>
			<path style="fill:url(#SVGID_00000038396211514571290050000013434511168331137677_);" d="M188,2464.4v83.4
				c0,27,168.4,48.8,376.2,48.8c207.8,0,376.2-21.9,376.2-48.8v-83.4H188z"/>
			
				<linearGradient id="SVGID_00000077282040017414030680000004888257496568799403_" gradientUnits="userSpaceOnUse" x1="560.4173" y1="2433.0481" x2="606.05" y2="2815.0608">
				<stop  offset="0" style="stop-color:#FFDB44"/>
				<stop  offset="1" style="stop-color:#FEEF06"/>
			</linearGradient>
			<path style="fill:url(#SVGID_00000077282040017414030680000004888257496568799403_);" d="M940.4,2464.4
				c0,27-168.4,48.8-376.2,48.8c-207.8,0-376.2-21.9-376.2-48.8c0-27,168.4-48.8,376.2-48.8C771.9,2415.6,940.4,2437.5,940.4,2464.4
				z"/>
			
				<linearGradient id="SVGID_00000152981423321316779010000003686041923822994346_" gradientUnits="userSpaceOnUse" x1="558.4332" y1="2416.012" x2="572.4478" y2="2533.334">
				<stop  offset="0" style="stop-color:#FFDB44"/>
				<stop  offset="1" style="stop-color:#FEEF06"/>
			</linearGradient>
			<path style="fill:url(#SVGID_00000152981423321316779010000003686041923822994346_);" d="M564.2,2516.6
				c-184,0-376.4-17.6-376.4-51.5c0-1.9,0.7-5.1,2.5-5.1c1.9,0,1.1,2.6,1.1,4.4c0,21.5,153.1,45.5,372.8,45.5s372.8-24,372.8-45.5
				c0-1.9,0.3-3.6,2.2-3.6c1.9,0,1.4,2.5,1.4,4.3C940.6,2499.1,748.2,2516.6,564.2,2516.6z"/>
			<g>
				<path class="st18" d="M528.6,2467.1c3.7-2.6,7.6-5.1,11.8-7.6c4.2-2.5,9.6-4.7,16.2-6.7c6.6-2,14.9-3.6,24.8-4.9
					c9.9-1.3,22.3-1.9,37.1-2c14.5-0.1,28.2,0.4,40.9,1.4c12.7,1,24,2.5,33.7,4.5c9.7,2,17.6,4.4,23.6,7.3c6,2.9,9.6,6.3,10.8,10
					l42.4,0.4c3.1,0,5.8,0.3,8.1,0.8c2.4,0.5,3.5,1.1,3.5,1.8l0,3.5l-54.5-0.5c-1.9,4.3-6.8,8.2-14.6,11.7
					c-7.8,3.5-17.7,6.6-29.9,9.2l-19.8-2.8c-1.8-0.3-3.2-0.6-4.4-1c-1.1-0.4-1.7-0.9-1.7-1.4c0-0.7,1.5-1.4,4.6-2.3
					c3.1-0.9,6.5-1.9,10.4-3.2c3.9-1.3,7.6-2.8,11.4-4.5c3.7-1.7,6.2-3.8,7.5-6.2l-128.5-1.3c-3.4,2.5-7.2,4.9-11.4,7.3
					c-4.2,2.4-9.7,4.6-16.7,6.5c-6.9,1.9-15.5,3.5-25.9,4.7c-10.4,1.2-23.3,1.8-39,1.9c-11.8,0.1-23.2-0.4-34.5-1.3
					c-11.2-1-21.2-2.4-29.9-4.3c-8.7-1.9-15.9-4.2-21.5-7c-5.6-2.8-8.7-6-9.3-9.6l-34.9-0.4c-3.1,0-5.8-0.3-8.2-0.7
					c-2.4-0.5-3.6-1.1-3.6-1.9l0-3.5l47.7,0.5c2.1-3.7,6.4-6.9,13-9.6c6.6-2.7,14.7-5.2,24.2-7.3l16,2.2c4.8,0.7,7.3,1.5,7.3,2.4
					c0,0.5-1,1.1-3,1.8c-2,0.7-4.4,1.6-7.2,2.6c-2.7,1-5.4,2.2-7.9,3.6c-2.6,1.4-4.5,2.9-5.8,4.7L528.6,2467.1z M411,2471.9
					c1,2.3,3.1,4.3,6.3,5.9c3.2,1.7,7.3,3,12.1,4.1c4.9,1.1,10.3,1.9,16.3,2.4c6.1,0.5,12.4,0.7,19,0.7c7.7,0,14.5-0.4,20.2-1
					c5.7-0.6,10.7-1.5,15.1-2.6c4.3-1.1,8.1-2.3,11.4-3.8c3.2-1.4,6.1-3,8.7-4.6L411,2471.9z M690.8,2468.8c-1-2.3-3.3-4.3-6.9-6.1
					c-3.6-1.7-8.3-3.2-13.9-4.4c-5.6-1.2-12.2-2.1-19.8-2.7c-7.5-0.6-15.8-0.8-24.8-0.8c-8,0-15,0.4-20.8,1.1
					c-5.8,0.7-10.8,1.6-15.1,2.7c-4.2,1.1-7.9,2.5-10.9,4c-3,1.5-5.8,3.2-8.3,4.9L690.8,2468.8z"/>
			</g>
			
				<linearGradient id="SVGID_00000176755756678586882320000001120077381123061635_" gradientUnits="userSpaceOnUse" x1="281.6419" y1="1370.1316" x2="295.6068" y2="1487.038" gradientTransform="matrix(-1 0 0 -1 853.249 3891.1655)">
				<stop  offset="3.597120e-03" style="stop-color:#F36F56"/>
				<stop  offset="0.3059" style="stop-color:#F99C4C"/>
				<stop  offset="0.545" style="stop-color:#FDB946"/>
				<stop  offset="0.6817" style="stop-color:#FFC444"/>
				<stop  offset="0.8038" style="stop-color:#FFC244"/>
				<stop  offset="0.8667" style="stop-color:#FEBA46"/>
				<stop  offset="0.916" style="stop-color:#FCAD49"/>
				<stop  offset="0.958" style="stop-color:#F99A4D"/>
				<stop  offset="0.9955" style="stop-color:#F58152"/>
				<stop  offset="1" style="stop-color:#F57E53"/>
			</linearGradient>
			<path style="fill:url(#SVGID_00000176755756678586882320000001120077381123061635_);" d="M564.2,2420.9
				c-167.7,0-342.4,14.8-370.3,43.3c1.1,1,2.1,2.1,3.1,3.2c23.5-19.8,167.8-39.8,367.3-39.8c204.6,0,351.2,21,368.9,41.3
				c0.9-1.1,1.8-2.2,2.8-3.2C912.9,2436.2,734.9,2420.9,564.2,2420.9z"/>
		</g>
		<g>
			
				<linearGradient id="SVGID_00000097501946950461576580000014887412913138001812_" gradientUnits="userSpaceOnUse" x1="213.8846" y1="2443.1628" x2="1079.4719" y2="2443.1628">
				<stop  offset="0" style="stop-color:#FCB148"/>
				<stop  offset="5.207239e-02" style="stop-color:#FDBA46"/>
				<stop  offset="0.1424" style="stop-color:#FFC244"/>
				<stop  offset="0.3183" style="stop-color:#FFC444"/>
				<stop  offset="0.4849" style="stop-color:#FDB946"/>
				<stop  offset="0.7754" style="stop-color:#F99C4D"/>
				<stop  offset="0.8658" style="stop-color:#F8924F"/>
				<stop  offset="1" style="stop-color:#F8924F"/>
			</linearGradient>
			<path style="fill:url(#SVGID_00000097501946950461576580000014887412913138001812_);" d="M278.2,2377v83.4
				c0,27,168.4,48.8,376.2,48.8c207.8,0,376.2-21.9,376.2-48.8V2377H278.2z"/>
			
				<linearGradient id="SVGID_00000028292937053610848410000008094224930246039468_" gradientUnits="userSpaceOnUse" x1="650.6563" y1="2345.6584" x2="696.2891" y2="2727.6714">
				<stop  offset="0" style="stop-color:#FFDB44"/>
				<stop  offset="1" style="stop-color:#FEEF06"/>
			</linearGradient>
			<path style="fill:url(#SVGID_00000028292937053610848410000008094224930246039468_);" d="M1030.6,2377
				c0,27-168.4,48.8-376.2,48.8c-207.8,0-376.2-21.9-376.2-48.8c0-27,168.4-48.8,376.2-48.8C862.2,2328.2,1030.6,2350.1,1030.6,2377
				z"/>
			
				<linearGradient id="SVGID_00000164511895035847222900000011160522649768456088_" gradientUnits="userSpaceOnUse" x1="648.6725" y1="2328.6223" x2="662.6871" y2="2445.9443">
				<stop  offset="0" style="stop-color:#FFDB44"/>
				<stop  offset="1" style="stop-color:#FEEF06"/>
			</linearGradient>
			<path style="fill:url(#SVGID_00000164511895035847222900000011160522649768456088_);" d="M654.4,2429.2
				c-184,0-376.4-17.6-376.4-51.5c0-1.9,0.7-5.1,2.5-5.1c1.9,0,1.1,2.6,1.1,4.4c0,21.5,153.1,45.5,372.8,45.5s372.8-24,372.8-45.5
				c0-1.9,0.3-3.6,2.2-3.6c1.9,0,1.4,2.5,1.4,4.3C1030.8,2411.7,838.4,2429.2,654.4,2429.2z"/>
			<g>
				<path class="st18" d="M618.9,2379.8c3.7-2.6,7.6-5.1,11.8-7.6c4.2-2.5,9.6-4.7,16.2-6.7c6.6-2,14.9-3.6,24.8-4.9
					c9.9-1.3,22.3-1.9,37.1-2c14.5-0.1,28.2,0.4,40.9,1.4c12.7,1,24,2.5,33.7,4.5c9.7,2,17.6,4.4,23.6,7.3c6,2.9,9.6,6.3,10.8,10
					l42.4,0.4c3.1,0,5.8,0.3,8.1,0.8c2.4,0.5,3.5,1.1,3.5,1.8l0,3.5l-54.5-0.5c-1.9,4.3-6.8,8.2-14.6,11.7
					c-7.8,3.5-17.7,6.6-29.9,9.2l-19.8-2.8c-1.8-0.3-3.2-0.6-4.4-1c-1.1-0.4-1.7-0.9-1.7-1.4c0-0.7,1.5-1.4,4.6-2.3
					c3.1-0.9,6.5-1.9,10.4-3.2c3.9-1.3,7.6-2.8,11.4-4.5c3.7-1.7,6.2-3.8,7.5-6.2l-128.5-1.3c-3.4,2.5-7.2,4.9-11.4,7.3
					c-4.2,2.4-9.7,4.6-16.7,6.5c-6.9,1.9-15.5,3.5-25.9,4.7c-10.4,1.2-23.3,1.8-39,1.9c-11.8,0.1-23.2-0.4-34.5-1.3
					c-11.2-1-21.2-2.4-29.9-4.3c-8.7-1.9-15.9-4.2-21.5-7c-5.6-2.8-8.7-6-9.3-9.6l-34.9-0.4c-3.1,0-5.8-0.3-8.2-0.7
					c-2.4-0.5-3.6-1.1-3.6-1.9l0-3.5l47.7,0.5c2.1-3.7,6.4-6.9,13-9.6c6.6-2.7,14.7-5.2,24.2-7.3l16,2.2c4.8,0.7,7.3,1.5,7.3,2.4
					c0,0.5-1,1.1-3,1.8c-2,0.7-4.4,1.6-7.2,2.6c-2.7,1-5.4,2.2-7.9,3.6c-2.6,1.4-4.5,2.9-5.8,4.7L618.9,2379.8z M501.2,2384.5
					c1,2.3,3.1,4.3,6.3,5.9c3.2,1.7,7.3,3,12.1,4.1c4.9,1.1,10.3,1.9,16.3,2.4c6.1,0.5,12.4,0.7,19,0.7c7.7,0,14.5-0.4,20.2-1
					c5.7-0.6,10.7-1.5,15.1-2.6c4.3-1.1,8.1-2.3,11.4-3.8c3.2-1.4,6.1-3,8.7-4.6L501.2,2384.5z M781,2381.4c-1-2.3-3.3-4.3-6.9-6.1
					c-3.6-1.7-8.3-3.2-13.9-4.4c-5.6-1.2-12.2-2.1-19.8-2.7c-7.5-0.6-15.8-0.8-24.8-0.8c-8,0-15,0.4-20.8,1.1
					c-5.8,0.7-10.8,1.6-15.1,2.7c-4.2,1.1-7.9,2.5-10.9,4c-3,1.5-5.8,3.2-8.3,4.9L781,2381.4z"/>
			</g>
			
				<linearGradient id="SVGID_00000005972004722335315650000017046353288138600077_" gradientUnits="userSpaceOnUse" x1="191.4025" y1="1457.5211" x2="205.3674" y2="1574.4276" gradientTransform="matrix(-1 0 0 -1 853.249 3891.1655)">
				<stop  offset="3.597120e-03" style="stop-color:#F36F56"/>
				<stop  offset="0.3059" style="stop-color:#F99C4C"/>
				<stop  offset="0.545" style="stop-color:#FDB946"/>
				<stop  offset="0.6817" style="stop-color:#FFC444"/>
				<stop  offset="0.8038" style="stop-color:#FFC244"/>
				<stop  offset="0.8667" style="stop-color:#FEBA46"/>
				<stop  offset="0.916" style="stop-color:#FCAD49"/>
				<stop  offset="0.958" style="stop-color:#F99A4D"/>
				<stop  offset="0.9955" style="stop-color:#F58152"/>
				<stop  offset="1" style="stop-color:#F57E53"/>
			</linearGradient>
			<path style="fill:url(#SVGID_00000005972004722335315650000017046353288138600077_);" d="M654.5,2333.5
				c-167.7,0-342.4,14.8-370.3,43.3c1.1,1,2.1,2.1,3.1,3.2c23.5-19.8,167.8-39.8,367.3-39.8c204.6,0,351.2,21,368.9,41.3
				c0.9-1.1,1.8-2.2,2.8-3.2C1003.1,2348.8,825.2,2333.5,654.5,2333.5z"/>
		</g>
		<g>
			
				<linearGradient id="SVGID_00000052095590981233832600000015979295367629177492_" gradientUnits="userSpaceOnUse" x1="268.6455" y1="2355.5176" x2="1134.2317" y2="2355.5176">
				<stop  offset="0" style="stop-color:#FCB148"/>
				<stop  offset="5.207239e-02" style="stop-color:#FDBA46"/>
				<stop  offset="0.1424" style="stop-color:#FFC244"/>
				<stop  offset="0.3183" style="stop-color:#FFC444"/>
				<stop  offset="0.4849" style="stop-color:#FDB946"/>
				<stop  offset="0.7754" style="stop-color:#F99C4D"/>
				<stop  offset="0.8658" style="stop-color:#F8924F"/>
				<stop  offset="1" style="stop-color:#F8924F"/>
			</linearGradient>
			<path style="fill:url(#SVGID_00000052095590981233832600000015979295367629177492_);" d="M333,2289.4v83.4
				c0,27,168.4,48.8,376.2,48.8c207.8,0,376.2-21.9,376.2-48.8v-83.4H333z"/>
			
				<linearGradient id="SVGID_00000021810069947288911140000008579341858527292552_" gradientUnits="userSpaceOnUse" x1="705.4165" y1="2258.0122" x2="751.0493" y2="2640.0254">
				<stop  offset="0" style="stop-color:#FFDB44"/>
				<stop  offset="1" style="stop-color:#FEEF06"/>
			</linearGradient>
			
				<ellipse style="fill:url(#SVGID_00000021810069947288911140000008579341858527292552_);" cx="709.2" cy="2289.4" rx="376.2" ry="48.8"/>
			
				<linearGradient id="SVGID_00000003800438612512147290000000337092200589696130_" gradientUnits="userSpaceOnUse" x1="703.4318" y1="2240.9758" x2="717.4464" y2="2358.2983">
				<stop  offset="0" style="stop-color:#FFDB44"/>
				<stop  offset="1" style="stop-color:#FEEF06"/>
			</linearGradient>
			<path style="fill:url(#SVGID_00000003800438612512147290000000337092200589696130_);" d="M709.2,2341.6
				c-184,0-376.4-17.6-376.4-51.5c0-1.9,0.7-5.1,2.5-5.1c1.9,0,1.1,2.6,1.1,4.4c0,21.5,153.1,45.4,372.8,45.4
				c219.7,0,372.8-24,372.8-45.4c0-1.9,0.3-3.6,2.2-3.6s1.4,2.5,1.4,4.3C1085.6,2324,893.2,2341.6,709.2,2341.6z"/>
			<g>
				<path class="st18" d="M673.6,2292.1c3.7-2.6,7.6-5.1,11.8-7.6c4.2-2.5,9.6-4.7,16.2-6.7c6.6-2,14.9-3.6,24.8-4.9
					c9.9-1.3,22.3-1.9,37.1-2c14.5-0.1,28.2,0.4,40.9,1.4c12.7,1,24,2.5,33.7,4.5c9.7,2,17.6,4.4,23.6,7.3c6,2.9,9.6,6.3,10.8,10
					l42.4,0.4c3.1,0,5.8,0.3,8.1,0.8c2.4,0.5,3.5,1.1,3.5,1.8l0,3.5l-54.5-0.5c-1.9,4.3-6.8,8.2-14.6,11.7
					c-7.8,3.5-17.7,6.6-29.9,9.2l-19.8-2.8c-1.8-0.3-3.2-0.6-4.4-1c-1.1-0.4-1.7-0.9-1.7-1.4c0-0.7,1.5-1.4,4.6-2.3
					c3.1-0.9,6.5-1.9,10.4-3.2c3.9-1.3,7.6-2.8,11.4-4.5c3.7-1.7,6.2-3.8,7.5-6.2l-128.5-1.3c-3.4,2.5-7.2,4.9-11.4,7.3
					c-4.2,2.4-9.7,4.6-16.7,6.5c-6.9,1.9-15.5,3.5-25.9,4.7c-10.4,1.2-23.3,1.8-39,1.9c-11.8,0.1-23.2-0.4-34.5-1.3
					c-11.2-1-21.2-2.4-29.9-4.3c-8.7-1.9-15.9-4.2-21.5-7c-5.6-2.8-8.7-6-9.3-9.6l-34.9-0.4c-3.1,0-5.8-0.3-8.2-0.7
					c-2.4-0.5-3.6-1.1-3.6-1.9l0-3.5l47.7,0.5c2.1-3.7,6.4-6.9,13-9.6c6.6-2.7,14.7-5.2,24.2-7.3l16,2.2c4.9,0.7,7.3,1.5,7.3,2.4
					c0,0.5-1,1.1-3,1.8c-2,0.7-4.4,1.6-7.2,2.6c-2.7,1-5.4,2.2-7.9,3.6c-2.6,1.4-4.5,2.9-5.8,4.7L673.6,2292.1z M556,2296.9
					c1,2.3,3.1,4.3,6.3,5.9c3.2,1.7,7.3,3,12.1,4.1c4.9,1.1,10.3,1.9,16.3,2.3c6.1,0.5,12.4,0.7,19,0.7c7.7,0,14.5-0.4,20.2-1
					c5.7-0.6,10.7-1.5,15.1-2.6c4.3-1.1,8.1-2.3,11.4-3.8c3.2-1.4,6.1-3,8.7-4.6L556,2296.9z M835.8,2293.7c-1-2.3-3.3-4.3-6.9-6.1
					c-3.6-1.7-8.3-3.2-13.9-4.4c-5.6-1.2-12.2-2.1-19.8-2.7c-7.5-0.6-15.8-0.8-24.8-0.8c-8,0-15,0.4-20.8,1.1
					c-5.8,0.7-10.8,1.6-15.1,2.7c-4.3,1.1-7.9,2.5-10.9,4c-3,1.5-5.8,3.2-8.3,4.9L835.8,2293.7z"/>
			</g>
			
				<linearGradient id="SVGID_00000096036663157330571090000008618005225969495177_" gradientUnits="userSpaceOnUse" x1="136.6431" y1="1545.167" x2="150.608" y2="1662.0734" gradientTransform="matrix(-1 0 0 -1 853.249 3891.1655)">
				<stop  offset="3.597120e-03" style="stop-color:#F36F56"/>
				<stop  offset="0.3059" style="stop-color:#F99C4C"/>
				<stop  offset="0.545" style="stop-color:#FDB946"/>
				<stop  offset="0.6817" style="stop-color:#FFC444"/>
				<stop  offset="0.8038" style="stop-color:#FFC244"/>
				<stop  offset="0.8667" style="stop-color:#FEBA46"/>
				<stop  offset="0.916" style="stop-color:#FCAD49"/>
				<stop  offset="0.958" style="stop-color:#F99A4D"/>
				<stop  offset="0.9955" style="stop-color:#F58152"/>
				<stop  offset="1" style="stop-color:#F57E53"/>
			</linearGradient>
			<path style="fill:url(#SVGID_00000096036663157330571090000008618005225969495177_);" d="M709.2,2245.9
				c-167.7,0-342.4,14.8-370.3,43.3c1.1,1,2.1,2.1,3.1,3.2c23.5-19.8,167.8-39.8,367.3-39.8c204.6,0,351.2,21,368.9,41.3
				c0.9-1.1,1.8-2.2,2.8-3.2C1057.9,2261.2,879.9,2245.9,709.2,2245.9z"/>
		</g>
		<g>
			
				<linearGradient id="SVGID_00000094611885456834685330000000668828022926515386_" gradientUnits="userSpaceOnUse" x1="228.2267" y1="2260.9568" x2="1093.814" y2="2260.9568">
				<stop  offset="0" style="stop-color:#FCB148"/>
				<stop  offset="5.207239e-02" style="stop-color:#FDBA46"/>
				<stop  offset="0.1424" style="stop-color:#FFC244"/>
				<stop  offset="0.3183" style="stop-color:#FFC444"/>
				<stop  offset="0.4849" style="stop-color:#FDB946"/>
				<stop  offset="0.7754" style="stop-color:#F99C4D"/>
				<stop  offset="0.8658" style="stop-color:#F8924F"/>
				<stop  offset="1" style="stop-color:#F8924F"/>
			</linearGradient>
			<path style="fill:url(#SVGID_00000094611885456834685330000000668828022926515386_);" d="M292.5,2194.8v83.4
				c0,27,168.4,48.8,376.2,48.8s376.2-21.9,376.2-48.8v-83.4H292.5z"/>
			
				<linearGradient id="SVGID_00000050642582761735318300000012101442980365299847_" gradientUnits="userSpaceOnUse" x1="664.9982" y1="2163.4521" x2="710.631" y2="2545.4653">
				<stop  offset="0" style="stop-color:#FFDB44"/>
				<stop  offset="1" style="stop-color:#FEEF06"/>
			</linearGradient>
			<path style="fill:url(#SVGID_00000050642582761735318300000012101442980365299847_);" d="M1044.9,2194.8
				c0,27-168.4,48.8-376.2,48.8s-376.2-21.9-376.2-48.8c0-27,168.4-48.8,376.2-48.8S1044.9,2167.9,1044.9,2194.8z"/>
			
				<linearGradient id="SVGID_00000123411477238809705860000002542173204037836932_" gradientUnits="userSpaceOnUse" x1="663.0139" y1="2146.415" x2="677.0286" y2="2263.738">
				<stop  offset="0" style="stop-color:#FFDB44"/>
				<stop  offset="1" style="stop-color:#FEEF06"/>
			</linearGradient>
			<path style="fill:url(#SVGID_00000123411477238809705860000002542173204037836932_);" d="M668.7,2247
				c-184,0-376.4-17.6-376.4-51.5c0-1.9,0.7-5.1,2.5-5.1c1.9,0,1.1,2.6,1.1,4.4c0,21.5,153.1,45.4,372.8,45.4
				c219.7,0,372.8-24,372.8-45.4c0-1.9,0.3-3.6,2.2-3.6s1.4,2.5,1.4,4.3C1045.2,2229.5,852.8,2247,668.7,2247z"/>
			<g>
				<path class="st18" d="M633.2,2197.5c3.7-2.6,7.6-5.1,11.8-7.6c4.2-2.5,9.6-4.7,16.2-6.7c6.6-2,14.9-3.6,24.8-4.9
					c9.9-1.3,22.3-1.9,37.1-2c14.5-0.1,28.2,0.4,40.9,1.4c12.7,1,24,2.5,33.7,4.5c9.7,2,17.6,4.4,23.6,7.3c6,2.9,9.6,6.3,10.8,10
					l42.4,0.4c3.1,0,5.8,0.3,8.1,0.8c2.4,0.5,3.5,1.1,3.5,1.8l0,3.5l-54.5-0.5c-1.9,4.3-6.8,8.2-14.6,11.7
					c-7.8,3.5-17.7,6.6-29.9,9.2l-19.8-2.8c-1.8-0.3-3.2-0.6-4.4-1c-1.1-0.4-1.7-0.9-1.7-1.4c0-0.7,1.5-1.4,4.6-2.3
					c3.1-0.9,6.5-1.9,10.4-3.2c3.9-1.3,7.6-2.8,11.4-4.5c3.7-1.7,6.2-3.8,7.5-6.2l-128.5-1.3c-3.4,2.5-7.2,4.9-11.4,7.3
					c-4.2,2.4-9.7,4.6-16.7,6.5c-6.9,1.9-15.5,3.5-25.9,4.7c-10.4,1.2-23.3,1.8-39,1.9c-11.8,0.1-23.2-0.4-34.5-1.3
					c-11.2-1-21.2-2.4-29.9-4.3c-8.7-1.9-15.9-4.2-21.5-7c-5.6-2.8-8.7-6-9.3-9.6l-34.9-0.4c-3.1,0-5.8-0.3-8.2-0.7
					c-2.4-0.5-3.6-1.1-3.6-1.9l0-3.5l47.7,0.5c2.1-3.7,6.4-6.9,13-9.6c6.6-2.7,14.7-5.2,24.2-7.3l16,2.2c4.9,0.7,7.3,1.5,7.3,2.4
					c0,0.5-1,1.1-3,1.8c-2,0.7-4.4,1.6-7.2,2.6c-2.7,1-5.4,2.2-7.9,3.6c-2.6,1.4-4.5,2.9-5.8,4.7L633.2,2197.5z M515.6,2202.3
					c1,2.3,3.1,4.3,6.3,5.9c3.2,1.7,7.3,3,12.1,4.1c4.9,1.1,10.3,1.9,16.3,2.4c6.1,0.5,12.4,0.7,19,0.7c7.7,0,14.5-0.4,20.2-1
					c5.7-0.6,10.7-1.5,15.1-2.6c4.3-1.1,8.1-2.3,11.4-3.8c3.2-1.4,6.1-3,8.7-4.6L515.6,2202.3z M795.4,2199.2
					c-1-2.3-3.3-4.3-6.9-6.1c-3.6-1.7-8.3-3.2-13.9-4.4c-5.6-1.2-12.2-2.1-19.8-2.7c-7.5-0.6-15.8-0.8-24.8-0.8
					c-8,0-15,0.4-20.8,1.1c-5.8,0.7-10.8,1.6-15.1,2.7c-4.3,1.1-7.9,2.5-10.9,4c-3,1.5-5.8,3.2-8.3,4.9L795.4,2199.2z"/>
			</g>
			
				<linearGradient id="SVGID_00000018940440051067440220000003290157892171452557_" gradientUnits="userSpaceOnUse" x1="177.0605" y1="1639.7275" x2="191.0253" y2="1756.6337" gradientTransform="matrix(-1 0 0 -1 853.249 3891.1655)">
				<stop  offset="3.597120e-03" style="stop-color:#F36F56"/>
				<stop  offset="0.3059" style="stop-color:#F99C4C"/>
				<stop  offset="0.545" style="stop-color:#FDB946"/>
				<stop  offset="0.6817" style="stop-color:#FFC444"/>
				<stop  offset="0.8038" style="stop-color:#FFC244"/>
				<stop  offset="0.8667" style="stop-color:#FEBA46"/>
				<stop  offset="0.916" style="stop-color:#FCAD49"/>
				<stop  offset="0.958" style="stop-color:#F99A4D"/>
				<stop  offset="0.9955" style="stop-color:#F58152"/>
				<stop  offset="1" style="stop-color:#F57E53"/>
			</linearGradient>
			<path style="fill:url(#SVGID_00000018940440051067440220000003290157892171452557_);" d="M668.8,2151.3
				c-167.7,0-342.4,14.8-370.3,43.3c1.1,1,2.1,2.1,3.1,3.2c23.5-19.8,167.8-39.8,367.3-39.8c204.6,0,351.2,21,368.9,41.3
				c0.9-1.1,1.8-2.2,2.8-3.2C1017.4,2166.6,839.5,2151.3,668.8,2151.3z"/>
		</g>
		<g>
			
				<linearGradient id="SVGID_00000137811845439984196460000004085326714568067999_" gradientUnits="userSpaceOnUse" x1="123.6461" y1="2173.3103" x2="989.2325" y2="2173.3103">
				<stop  offset="0" style="stop-color:#FCB148"/>
				<stop  offset="5.207239e-02" style="stop-color:#FDBA46"/>
				<stop  offset="0.1424" style="stop-color:#FFC244"/>
				<stop  offset="0.3183" style="stop-color:#FFC444"/>
				<stop  offset="0.4849" style="stop-color:#FDB946"/>
				<stop  offset="0.7754" style="stop-color:#F99C4D"/>
				<stop  offset="0.8658" style="stop-color:#F8924F"/>
				<stop  offset="1" style="stop-color:#F8924F"/>
			</linearGradient>
			<path style="fill:url(#SVGID_00000137811845439984196460000004085326714568067999_);" d="M188,2107.2v83.4
				c0,27,168.4,48.8,376.2,48.8c207.8,0,376.2-21.9,376.2-48.8v-83.4H188z"/>
			
				<linearGradient id="SVGID_00000096753644767946934380000014000082054722256797_" gradientUnits="userSpaceOnUse" x1="560.4172" y1="2075.8057" x2="606.0501" y2="2457.8198">
				<stop  offset="0" style="stop-color:#FFDB44"/>
				<stop  offset="1" style="stop-color:#FEEF06"/>
			</linearGradient>
			
				<ellipse style="fill:url(#SVGID_00000096753644767946934380000014000082054722256797_);" cx="564.2" cy="2107.2" rx="376.2" ry="48.8"/>
			
				<linearGradient id="SVGID_00000022533409136008260640000011807817924201484477_" gradientUnits="userSpaceOnUse" x1="558.4332" y1="2058.7693" x2="572.4478" y2="2176.092">
				<stop  offset="0" style="stop-color:#FFDB44"/>
				<stop  offset="1" style="stop-color:#FEEF06"/>
			</linearGradient>
			<path style="fill:url(#SVGID_00000022533409136008260640000011807817924201484477_);" d="M564.2,2159.4
				c-184,0-376.4-17.6-376.4-51.5c0-1.9,0.7-5.1,2.5-5.1c1.9,0,1.1,2.6,1.1,4.4c0,21.5,153.1,45.5,372.8,45.5s372.8-24,372.8-45.5
				c0-1.9,0.3-3.6,2.2-3.6c1.9,0,1.4,2.5,1.4,4.3C940.6,2141.8,748.2,2159.4,564.2,2159.4z"/>
			<g>
				<path class="st18" d="M528.6,2109.9c3.7-2.6,7.6-5.1,11.8-7.6c4.2-2.5,9.6-4.7,16.2-6.7c6.6-2,14.9-3.6,24.8-4.9
					c9.9-1.3,22.3-1.9,37.1-2c14.5-0.1,28.2,0.4,40.9,1.4c12.7,1,24,2.5,33.7,4.5c9.7,2,17.6,4.4,23.6,7.3c6,2.9,9.6,6.3,10.8,10
					l42.4,0.4c3.1,0,5.8,0.3,8.1,0.8c2.4,0.5,3.5,1.1,3.5,1.8l0,3.5l-54.5-0.5c-1.9,4.3-6.8,8.2-14.6,11.7
					c-7.8,3.5-17.7,6.6-29.9,9.2l-19.8-2.8c-1.8-0.3-3.2-0.6-4.4-1c-1.1-0.4-1.7-0.9-1.7-1.4c0-0.7,1.5-1.4,4.6-2.3
					c3.1-0.9,6.5-1.9,10.4-3.2c3.9-1.3,7.6-2.8,11.4-4.5c3.7-1.7,6.2-3.8,7.5-6.2l-128.5-1.3c-3.4,2.5-7.2,4.9-11.4,7.3
					c-4.2,2.4-9.7,4.6-16.7,6.5c-6.9,1.9-15.5,3.5-25.9,4.7c-10.4,1.2-23.3,1.8-39,1.9c-11.8,0.1-23.2-0.4-34.5-1.3
					c-11.2-1-21.2-2.4-29.9-4.3c-8.7-1.9-15.9-4.2-21.5-7c-5.6-2.8-8.7-6-9.3-9.6l-34.9-0.4c-3.1,0-5.8-0.3-8.2-0.7
					c-2.4-0.5-3.6-1.1-3.6-1.9l0-3.5l47.7,0.5c2.1-3.7,6.4-6.9,13-9.6c6.6-2.7,14.7-5.2,24.2-7.3l16,2.2c4.8,0.7,7.3,1.5,7.3,2.4
					c0,0.5-1,1.1-3,1.8c-2,0.7-4.4,1.6-7.2,2.6c-2.7,1-5.4,2.2-7.9,3.6c-2.6,1.4-4.5,2.9-5.8,4.7L528.6,2109.9z M411,2114.7
					c1,2.3,3.1,4.3,6.3,5.9c3.2,1.7,7.3,3,12.1,4.1c4.9,1.1,10.3,1.9,16.3,2.3c6.1,0.5,12.4,0.7,19,0.7c7.7,0,14.5-0.4,20.2-1
					c5.7-0.6,10.7-1.5,15.1-2.6c4.3-1.1,8.1-2.3,11.4-3.8c3.2-1.4,6.1-3,8.7-4.6L411,2114.7z M690.8,2111.5c-1-2.3-3.3-4.3-6.9-6.1
					c-3.6-1.7-8.3-3.2-13.9-4.4c-5.6-1.2-12.2-2.1-19.8-2.7c-7.5-0.6-15.8-0.8-24.8-0.8c-8,0-15,0.4-20.8,1.1
					c-5.8,0.7-10.8,1.6-15.1,2.7c-4.2,1.1-7.9,2.5-10.9,4c-3,1.5-5.8,3.2-8.3,4.9L690.8,2111.5z"/>
			</g>
			
				<linearGradient id="SVGID_00000171695892923601831500000002758021649853418369_" gradientUnits="userSpaceOnUse" x1="281.6419" y1="1727.3741" x2="295.6068" y2="1844.2803" gradientTransform="matrix(-1 0 0 -1 853.249 3891.1655)">
				<stop  offset="3.597120e-03" style="stop-color:#F36F56"/>
				<stop  offset="0.3059" style="stop-color:#F99C4C"/>
				<stop  offset="0.545" style="stop-color:#FDB946"/>
				<stop  offset="0.6817" style="stop-color:#FFC444"/>
				<stop  offset="0.8038" style="stop-color:#FFC244"/>
				<stop  offset="0.8667" style="stop-color:#FEBA46"/>
				<stop  offset="0.916" style="stop-color:#FCAD49"/>
				<stop  offset="0.958" style="stop-color:#F99A4D"/>
				<stop  offset="0.9955" style="stop-color:#F58152"/>
				<stop  offset="1" style="stop-color:#F57E53"/>
			</linearGradient>
			<path style="fill:url(#SVGID_00000171695892923601831500000002758021649853418369_);" d="M564.2,2063.6
				c-167.7,0-342.4,14.8-370.3,43.3c1.1,1,2.1,2.1,3.1,3.2c23.5-19.8,167.8-39.8,367.3-39.8c204.6,0,351.2,21,368.9,41.3
				c0.9-1.1,1.8-2.2,2.8-3.2C912.9,2078.9,734.9,2063.6,564.2,2063.6z"/>
		</g>
		<g>
			
				<linearGradient id="SVGID_00000093889505746078648760000016149552869252110762_" gradientUnits="userSpaceOnUse" x1="213.8846" y1="2085.9216" x2="1079.4719" y2="2085.9216">
				<stop  offset="0" style="stop-color:#FCB148"/>
				<stop  offset="5.207239e-02" style="stop-color:#FDBA46"/>
				<stop  offset="0.1424" style="stop-color:#FFC244"/>
				<stop  offset="0.3183" style="stop-color:#FFC444"/>
				<stop  offset="0.4849" style="stop-color:#FDB946"/>
				<stop  offset="0.7754" style="stop-color:#F99C4D"/>
				<stop  offset="0.8658" style="stop-color:#F8924F"/>
				<stop  offset="1" style="stop-color:#F8924F"/>
			</linearGradient>
			<path style="fill:url(#SVGID_00000093889505746078648760000016149552869252110762_);" d="M278.2,2019.8v83.4
				c0,27,168.4,48.8,376.2,48.8c207.8,0,376.2-21.9,376.2-48.8v-83.4H278.2z"/>
			
				<linearGradient id="SVGID_00000048487777070904920840000018026381803424941728_" gradientUnits="userSpaceOnUse" x1="650.6562" y1="1988.4161" x2="696.2891" y2="2370.4304">
				<stop  offset="0" style="stop-color:#FFDB44"/>
				<stop  offset="1" style="stop-color:#FEEF06"/>
			</linearGradient>
			
				<ellipse style="fill:url(#SVGID_00000048487777070904920840000018026381803424941728_);" cx="654.4" cy="2019.8" rx="376.2" ry="48.8"/>
			
				<linearGradient id="SVGID_00000026140772372633365600000006543191757263242172_" gradientUnits="userSpaceOnUse" x1="648.6725" y1="1971.3798" x2="662.6871" y2="2088.7026">
				<stop  offset="0" style="stop-color:#FFDB44"/>
				<stop  offset="1" style="stop-color:#FEEF06"/>
			</linearGradient>
			<path style="fill:url(#SVGID_00000026140772372633365600000006543191757263242172_);" d="M654.4,2072
				c-184,0-376.4-17.6-376.4-51.5c0-1.9,0.7-5.1,2.5-5.1c1.9,0,1.1,2.6,1.1,4.4c0,21.5,153.1,45.4,372.8,45.4s372.8-24,372.8-45.4
				c0-1.9,0.3-3.6,2.2-3.6c1.9,0,1.4,2.5,1.4,4.3C1030.8,2054.4,838.4,2072,654.4,2072z"/>
			<g>
				<path class="st18" d="M618.9,2022.5c3.7-2.6,7.6-5.1,11.8-7.6c4.2-2.5,9.6-4.7,16.2-6.7c6.6-2,14.9-3.6,24.8-4.9
					c9.9-1.3,22.3-1.9,37.1-2c14.5-0.1,28.2,0.4,40.9,1.4c12.7,1,24,2.5,33.7,4.5c9.7,2,17.6,4.4,23.6,7.3c6,2.9,9.6,6.3,10.8,10
					l42.4,0.4c3.1,0,5.8,0.3,8.1,0.8c2.4,0.5,3.5,1.1,3.5,1.8l0,3.5l-54.5-0.5c-1.9,4.3-6.8,8.2-14.6,11.7
					c-7.8,3.5-17.7,6.6-29.9,9.2l-19.8-2.8c-1.8-0.3-3.2-0.6-4.4-1c-1.1-0.4-1.7-0.9-1.7-1.4c0-0.7,1.5-1.4,4.6-2.3
					c3.1-0.9,6.5-1.9,10.4-3.2c3.9-1.3,7.6-2.8,11.4-4.5c3.7-1.7,6.2-3.8,7.5-6.2l-128.5-1.3c-3.4,2.5-7.2,4.9-11.4,7.3
					c-4.2,2.4-9.7,4.6-16.7,6.5c-6.9,1.9-15.5,3.5-25.9,4.7c-10.4,1.2-23.3,1.8-39,1.9c-11.8,0.1-23.2-0.4-34.5-1.3
					c-11.2-1-21.2-2.4-29.9-4.3c-8.7-1.9-15.9-4.2-21.5-7c-5.6-2.8-8.7-6-9.3-9.6l-34.9-0.4c-3.1,0-5.8-0.3-8.2-0.7
					c-2.4-0.5-3.6-1.1-3.6-1.9l0-3.5l47.7,0.5c2.1-3.7,6.4-6.9,13-9.6c6.6-2.7,14.7-5.2,24.2-7.3l16,2.2c4.8,0.7,7.3,1.5,7.3,2.4
					c0,0.5-1,1.1-3,1.8c-2,0.7-4.4,1.6-7.2,2.6c-2.7,1-5.4,2.2-7.9,3.6c-2.6,1.4-4.5,2.9-5.8,4.7L618.9,2022.5z M501.2,2027.3
					c1,2.3,3.1,4.3,6.3,5.9c3.2,1.7,7.3,3,12.1,4.1c4.9,1.1,10.3,1.9,16.3,2.3c6.1,0.5,12.4,0.7,19,0.7c7.7,0,14.5-0.4,20.2-1
					c5.7-0.6,10.7-1.5,15.1-2.6c4.3-1.1,8.1-2.3,11.4-3.8c3.2-1.4,6.1-3,8.7-4.6L501.2,2027.3z M781,2024.1c-1-2.3-3.3-4.3-6.9-6.1
					c-3.6-1.7-8.3-3.2-13.9-4.4c-5.6-1.2-12.2-2.1-19.8-2.7c-7.5-0.6-15.8-0.8-24.8-0.8c-8,0-15,0.4-20.8,1.1
					c-5.8,0.7-10.8,1.6-15.1,2.7c-4.2,1.1-7.9,2.5-10.9,4c-3,1.5-5.8,3.2-8.3,4.9L781,2024.1z"/>
			</g>
			
				<linearGradient id="SVGID_00000177479607335628490230000003837265137187947393_" gradientUnits="userSpaceOnUse" x1="191.4025" y1="1814.7637" x2="205.3674" y2="1931.6698" gradientTransform="matrix(-1 0 0 -1 853.249 3891.1655)">
				<stop  offset="3.597120e-03" style="stop-color:#F36F56"/>
				<stop  offset="0.3059" style="stop-color:#F99C4C"/>
				<stop  offset="0.545" style="stop-color:#FDB946"/>
				<stop  offset="0.6817" style="stop-color:#FFC444"/>
				<stop  offset="0.8038" style="stop-color:#FFC244"/>
				<stop  offset="0.8667" style="stop-color:#FEBA46"/>
				<stop  offset="0.916" style="stop-color:#FCAD49"/>
				<stop  offset="0.958" style="stop-color:#F99A4D"/>
				<stop  offset="0.9955" style="stop-color:#F58152"/>
				<stop  offset="1" style="stop-color:#F57E53"/>
			</linearGradient>
			<path style="fill:url(#SVGID_00000177479607335628490230000003837265137187947393_);" d="M654.5,1976.3
				c-167.7,0-342.4,14.8-370.3,43.3c1.1,1,2.1,2.1,3.1,3.2c23.5-19.8,167.8-39.8,367.3-39.8c204.6,0,351.2,21,368.9,41.3
				c0.9-1.1,1.8-2.2,2.8-3.2C1003.1,1991.6,825.2,1976.3,654.5,1976.3z"/>
		</g>
		<g>
			
				<linearGradient id="SVGID_00000064319540982901068590000010509395087359761571_" gradientUnits="userSpaceOnUse" x1="166.9483" y1="1998.2753" x2="1032.5348" y2="1998.2753">
				<stop  offset="0" style="stop-color:#FCB148"/>
				<stop  offset="5.207239e-02" style="stop-color:#FDBA46"/>
				<stop  offset="0.1424" style="stop-color:#FFC244"/>
				<stop  offset="0.3183" style="stop-color:#FFC444"/>
				<stop  offset="0.4849" style="stop-color:#FDB946"/>
				<stop  offset="0.7754" style="stop-color:#F99C4D"/>
				<stop  offset="0.8658" style="stop-color:#F8924F"/>
				<stop  offset="1" style="stop-color:#F8924F"/>
			</linearGradient>
			<path style="fill:url(#SVGID_00000064319540982901068590000010509395087359761571_);" d="M231.3,1932.1v83.4
				c0,27,168.4,48.8,376.2,48.8c207.8,0,376.2-21.9,376.2-48.8v-83.4H231.3z"/>
			
				<linearGradient id="SVGID_00000154405600986866514860000004484025571056945796_" gradientUnits="userSpaceOnUse" x1="603.7195" y1="1900.7704" x2="649.3525" y2="2282.7856">
				<stop  offset="0" style="stop-color:#FFDB44"/>
				<stop  offset="1" style="stop-color:#FEEF06"/>
			</linearGradient>
			
				<ellipse style="fill:url(#SVGID_00000154405600986866514860000004484025571056945796_);" cx="607.5" cy="1932.1" rx="376.2" ry="48.8"/>
			
				<linearGradient id="SVGID_00000042694880597530840440000015623982475514001599_" gradientUnits="userSpaceOnUse" x1="601.7354" y1="1883.7339" x2="615.7499" y2="2001.056">
				<stop  offset="0" style="stop-color:#FFDB44"/>
				<stop  offset="1" style="stop-color:#FEEF06"/>
			</linearGradient>
			<path style="fill:url(#SVGID_00000042694880597530840440000015623982475514001599_);" d="M607.5,1984.3
				c-184,0-376.4-17.6-376.4-51.5c0-1.9,0.7-5.1,2.5-5.1c1.9,0,1.1,2.6,1.1,4.4c0,21.5,153.1,45.5,372.8,45.5
				c219.7,0,372.8-24,372.8-45.5c0-1.9,0.3-3.6,2.2-3.6c1.9,0,1.4,2.5,1.4,4.3C983.9,1966.8,791.5,1984.3,607.5,1984.3z"/>
			<g>
				<path class="st18" d="M571.9,1934.9c3.7-2.6,7.6-5.1,11.8-7.6c4.2-2.5,9.6-4.7,16.2-6.7c6.6-2,14.9-3.6,24.8-4.9
					c9.9-1.3,22.3-1.9,37.1-2c14.5-0.1,28.2,0.4,40.9,1.4c12.7,1,24,2.5,33.7,4.5c9.7,2,17.6,4.4,23.6,7.3c6,2.9,9.6,6.3,10.8,10
					l42.4,0.4c3.1,0,5.8,0.3,8.1,0.8c2.4,0.5,3.5,1.1,3.5,1.8l0,3.5l-54.5-0.5c-1.9,4.3-6.8,8.2-14.6,11.7
					c-7.8,3.5-17.7,6.6-29.9,9.2l-19.8-2.8c-1.8-0.3-3.2-0.6-4.4-1c-1.1-0.4-1.7-0.9-1.7-1.4c0-0.7,1.5-1.4,4.6-2.3
					c3.1-0.9,6.5-1.9,10.4-3.2c3.9-1.3,7.6-2.8,11.4-4.5c3.7-1.7,6.2-3.8,7.5-6.2l-128.5-1.3c-3.4,2.5-7.2,4.9-11.4,7.3
					c-4.2,2.4-9.7,4.6-16.7,6.5c-6.9,1.9-15.5,3.5-25.9,4.7c-10.4,1.2-23.3,1.8-39,1.9c-11.8,0.1-23.2-0.4-34.5-1.3
					c-11.2-1-21.2-2.4-29.9-4.3c-8.7-1.9-15.9-4.2-21.5-7c-5.6-2.8-8.7-6-9.3-9.6l-34.9-0.4c-3.1,0-5.8-0.3-8.2-0.7
					c-2.4-0.5-3.6-1.1-3.6-1.9l0-3.5l47.7,0.5c2.1-3.7,6.4-6.9,13-9.6c6.6-2.7,14.7-5.2,24.2-7.3l16,2.2c4.8,0.7,7.3,1.5,7.3,2.4
					c0,0.5-1,1.1-3,1.8c-2,0.7-4.4,1.6-7.2,2.6c-2.7,1-5.4,2.2-7.9,3.6c-2.6,1.4-4.5,2.9-5.8,4.7L571.9,1934.9z M454.3,1939.6
					c1,2.3,3.1,4.3,6.3,5.9c3.2,1.7,7.3,3,12.1,4.1c4.9,1.1,10.3,1.8,16.3,2.3c6.1,0.5,12.4,0.7,19,0.7c7.7,0,14.5-0.4,20.2-1
					c5.7-0.6,10.8-1.5,15.1-2.6c4.3-1.1,8.1-2.3,11.4-3.8c3.2-1.4,6.1-3,8.7-4.6L454.3,1939.6z M734.1,1936.5
					c-1-2.3-3.3-4.3-6.9-6.1c-3.6-1.7-8.3-3.2-13.9-4.4c-5.6-1.2-12.2-2.1-19.8-2.7c-7.5-0.6-15.8-0.8-24.8-0.8
					c-8,0-15,0.4-20.8,1.1c-5.8,0.7-10.8,1.6-15.1,2.7c-4.2,1.1-7.9,2.5-10.9,4c-3,1.5-5.8,3.2-8.3,4.9L734.1,1936.5z"/>
			</g>
			
				<linearGradient id="SVGID_00000145038284385009109960000008111136798522952368_" gradientUnits="userSpaceOnUse" x1="238.3393" y1="1902.4095" x2="252.3042" y2="2019.3157" gradientTransform="matrix(-1 0 0 -1 853.249 3891.1655)">
				<stop  offset="3.597120e-03" style="stop-color:#F36F56"/>
				<stop  offset="0.3059" style="stop-color:#F99C4C"/>
				<stop  offset="0.545" style="stop-color:#FDB946"/>
				<stop  offset="0.6817" style="stop-color:#FFC444"/>
				<stop  offset="0.8038" style="stop-color:#FFC244"/>
				<stop  offset="0.8667" style="stop-color:#FEBA46"/>
				<stop  offset="0.916" style="stop-color:#FCAD49"/>
				<stop  offset="0.958" style="stop-color:#F99A4D"/>
				<stop  offset="0.9955" style="stop-color:#F58152"/>
				<stop  offset="1" style="stop-color:#F57E53"/>
			</linearGradient>
			<path style="fill:url(#SVGID_00000145038284385009109960000008111136798522952368_);" d="M607.5,1888.6
				c-167.7,0-342.4,14.8-370.3,43.3c1.1,1,2.1,2.1,3.1,3.2c23.5-19.8,167.8-39.8,367.3-39.8c204.6,0,351.2,21,368.9,41.3
				c0.9-1.1,1.8-2.2,2.8-3.2C956.2,1903.9,778.2,1888.6,607.5,1888.6z"/>
		</g>
		<g>
			
				<linearGradient id="SVGID_00000137101040510177630450000013439841796403770551_" gradientUnits="userSpaceOnUse" x1="1019.4382" y1="1887.0636" x2="1885.0288" y2="1887.0636" gradientTransform="matrix(0.5796 0.8149 -0.8149 0.5796 1946.4208 52.3896)">
				<stop  offset="0" style="stop-color:#FCB148"/>
				<stop  offset="5.207239e-02" style="stop-color:#FDBA46"/>
				<stop  offset="0.1424" style="stop-color:#FFC244"/>
				<stop  offset="0.3183" style="stop-color:#FFC444"/>
				<stop  offset="0.4849" style="stop-color:#FDB946"/>
				<stop  offset="0.7754" style="stop-color:#F99C4D"/>
				<stop  offset="0.8658" style="stop-color:#F8924F"/>
				<stop  offset="1" style="stop-color:#F8924F"/>
			</linearGradient>
			<path style="fill:url(#SVGID_00000137101040510177630450000013439841796403770551_);" d="M1090.7,1991l-68,48.4
				c-22,15.6,57.8,165.5,178.3,334.9c120.4,169.3,235.9,293.9,257.8,278.3l68-48.4L1090.7,1991z"/>
			
				<linearGradient id="SVGID_00000119815236123552872600000007441247707624375721_" gradientUnits="userSpaceOnUse" x1="1456.2104" y1="1789.5684" x2="1501.8378" y2="2171.5361" gradientTransform="matrix(0.5796 0.8149 -0.8149 0.5796 1946.4208 52.3896)">
				<stop  offset="0" style="stop-color:#FFDB44"/>
				<stop  offset="1" style="stop-color:#FEEF06"/>
			</linearGradient>
			<path style="fill:url(#SVGID_00000119815236123552872600000007441247707624375721_);" d="M1526.8,2604.1
				c-22,15.6-137.4-109-257.8-278.3c-120.4-169.3-200.2-319.2-178.3-334.9c22-15.6,137.4,109,257.8,278.3
				C1468.9,2438.5,1548.8,2588.5,1526.8,2604.1z"/>
			
				<linearGradient id="SVGID_00000166640754017331747730000016893770900928995979_" gradientUnits="userSpaceOnUse" x1="1454.2267" y1="1772.5405" x2="1468.2389" y2="1889.8429" gradientTransform="matrix(0.5796 0.8149 -0.8149 0.5796 1946.4208 52.3896)">
				<stop  offset="0" style="stop-color:#FFDB44"/>
				<stop  offset="1" style="stop-color:#FEEF06"/>
			</linearGradient>
			<path style="fill:url(#SVGID_00000166640754017331747730000016893770900928995979_);" d="M1266.2,2327.8
				c-106.7-149.9-203.9-316.9-176.2-336.6c1.5-1.1,4.6-2.4,5.6-0.9c1.1,1.5-1.5,2.3-3,3.4c-17.5,12.5,51.7,151.1,179.1,330.2
				s235.6,289.9,253.1,277.5c1.5-1.1,3.1-1.8,4.2-0.3c1.1,1.5-1.2,2.6-2.7,3.7C1498.7,2624.3,1372.9,2477.7,1266.2,2327.8z"/>
			<g>
				<path class="st18" d="M1285.9,2270.1c4.2,1.5,8.6,3.3,13,5.2c4.4,2,9.4,5.1,14.9,9.3c5.5,4.2,11.6,10,18.4,17.4
					c6.8,7.4,14.5,17.1,23.2,29.1c8.5,11.8,16,23.2,22.6,34.2c6.6,10.9,11.9,21,15.9,30c4,9,6.6,16.9,7.7,23.5
					c1.1,6.6,0.5,11.5-1.9,14.6l24.2,34.8c1.8,2.5,3.1,4.9,4.1,7.1c1,2.2,1.1,3.5,0.5,3.9l-2.8,2l-31.1-44.7
					c-4.6,0.9-10.6-0.8-18-5.1c-7.4-4.3-15.7-10.6-24.8-19l-9.2-17.8c-0.8-1.6-1.4-3-1.7-4.2c-0.3-1.2-0.3-1.9,0.1-2.2
					c0.5-0.4,2.1,0.4,4.5,2.4c2.5,2,5.4,4.2,8.6,6.6c3.3,2.4,6.7,4.6,10.2,6.7c3.5,2,6.7,2.8,9.4,2.5l-73.5-105.5
					c-4-1.3-8.2-3-12.5-5c-4.4-2-9.4-5.3-14.9-9.8c-5.6-4.5-11.8-10.7-18.8-18.4c-7-7.7-15-17.9-24.2-30.7
					c-6.9-9.6-13.2-19.2-18.9-28.9c-5.7-9.7-10.4-18.7-13.9-26.9c-3.5-8.2-5.7-15.4-6.7-21.6c-1-6.2-0.2-10.6,2.4-13.2l-19.9-28.6
					c-1.8-2.5-3.1-4.9-4.2-7.1c-1-2.2-1.2-3.6-0.6-4l2.8-2l27.3,39.1c4.2-0.4,9.3,1.3,15.4,5.1c6.1,3.8,12.7,9,20,15.5l7.5,14.3
					c2.3,4.3,3,6.8,2.3,7.3c-0.4,0.3-1.5-0.2-3.2-1.4c-1.8-1.2-3.9-2.7-6.3-4.3c-2.4-1.6-4.9-3.1-7.5-4.4c-2.6-1.3-5-2-7.2-2
					L1285.9,2270.1z M1213.9,2177c-1.3,2.1-1.7,5-1.1,8.6c0.5,3.6,1.7,7.7,3.7,12.2c1.9,4.6,4.5,9.5,7.5,14.7
					c3.1,5.2,6.6,10.5,10.5,15.9c4.5,6.3,8.7,11.6,12.5,15.9c3.8,4.3,7.4,7.9,10.8,10.8c3.4,2.9,6.6,5.3,9.6,7.1
					c3,1.8,6,3.2,8.8,4.4L1213.9,2177z M1378.6,2403.2c1.3-2.1,1.6-5.2,1-9.2c-0.7-4-2.2-8.6-4.5-13.9c-2.3-5.3-5.4-11.2-9.3-17.6
					c-3.9-6.4-8.4-13.3-13.7-20.7c-4.7-6.5-9-12-12.9-16.3c-3.9-4.3-7.6-7.9-11-10.7c-3.4-2.8-6.6-5-9.6-6.5c-3-1.5-5.9-2.9-8.8-3.9
					L1378.6,2403.2z"/>
			</g>
			
				<linearGradient id="SVGID_00000137094202309694289250000010466235238820726916_" gradientUnits="userSpaceOnUse" x1="-613.5828" y1="2013.1711" x2="-599.6205" y2="2130.0557" gradientTransform="matrix(-0.5796 -0.8149 0.8149 -0.5796 -729.2461 3003.2185)">
				<stop  offset="3.597120e-03" style="stop-color:#F36F56"/>
				<stop  offset="0.3059" style="stop-color:#F99C4C"/>
				<stop  offset="0.545" style="stop-color:#FDB946"/>
				<stop  offset="0.6817" style="stop-color:#FFC444"/>
				<stop  offset="0.8038" style="stop-color:#FFC244"/>
				<stop  offset="0.8667" style="stop-color:#FEBA46"/>
				<stop  offset="0.916" style="stop-color:#FCAD49"/>
				<stop  offset="0.958" style="stop-color:#F99A4D"/>
				<stop  offset="0.9955" style="stop-color:#F58152"/>
				<stop  offset="1" style="stop-color:#F57E53"/>
			</linearGradient>
			<path style="fill:url(#SVGID_00000137094202309694289250000010466235238820726916_);" d="M1344.2,2272.3
				c-97.2-136.7-210.5-270.5-250-276.7c-0.2,1.5-0.5,2.9-0.9,4.4c29.8,7.7,129.7,113.6,245.3,276.2
				c118.6,166.8,186.4,298.3,180.1,324.6c1.4,0.1,2.8,0.2,4.2,0.4C1533.9,2565.3,1443.2,2411.4,1344.2,2272.3z"/>
		</g>
	</g>
</g>
</svg>
