<?xml version="1.0" encoding="utf-8"?>
<!-- Generator: Adobe Illustrator 25.4.1, SVG Export Plug-In . SVG Version: 6.00 Build 0)  -->
<svg version="1.1" id="Layer_1" xmlns="http://www.w3.org/2000/svg" xmlns:xlink="http://www.w3.org/1999/xlink" x="0px" y="0px"
	 viewBox="0 0 2068.2 2115" style="enable-background:new 0 0 2068.2 2115;" xml:space="preserve">
<style type="text/css">
	.st0{fill:#595958;}
	.st1{fill:#FF811A;}
	.st2{opacity:0.25;fill:#E24A0E;}
	.st3{opacity:0.15;fill:#FFFFFF;}
	.st4{fill:#E24A0E;}
	.st5{opacity:7.000000e-02;fill:#9B0404;}
	.st6{opacity:5.000000e-02;fill:#FFF8F3;}
	.st7{opacity:0.15;}
	.st8{fill:#6B6B68;}
	.st9{opacity:0.15;fill:#D8D8D8;}
	.st10{opacity:5.000000e-02;fill:#D8D8D8;}
	.st11{opacity:7.000000e-02;fill:#FFD91D;}
	.st12{opacity:5.000000e-02;fill:#FFD91D;}
	.st13{opacity:0.1;fill:#FFFFFF;}
	.st14{opacity:7.000000e-02;fill:#FFFFFF;}
	.st15{fill-rule:evenodd;clip-rule:evenodd;fill:#FFDA00;}
	.st16{fill-rule:evenodd;clip-rule:evenodd;fill:#3A3A3A;}
	.st17{opacity:0.15;fill-rule:evenodd;clip-rule:evenodd;fill:#930000;}
	.st18{opacity:0.15;fill-rule:evenodd;clip-rule:evenodd;fill:#FFFFFF;}
	.st19{opacity:0.1;fill-rule:evenodd;clip-rule:evenodd;fill:#FFFFFF;}
</style>
<g id="Background">
</g>
<g>
	<path class="st0" d="M1624.6,1778.4c0,0-87.6,281.1-781.4,281.1c-14.9,0-29.5-0.2-43.9-0.4c-0.5,0-1,0-1.4-0.1
		c-252.6-4.3-422.8-45.2-536.3-93.6c-180-76.8-218-172.5-218-172.5l76.7-74.8l123.2-0.8l69-0.5l1237.2-7.9L1624.6,1778.4z"/>
	<path class="st1" d="M1497.7,1342.1H172.3V712.2c0-366,296.7-662.7,662.7-662.7h0c366,0,662.7,296.7,662.7,662.7V1342.1z"/>
	<path class="st2" d="M172.3,712.2c28.3,178.9,179.8,363.3,696.5,363.3s629.6-92.9,629.6-92.9l-0.2,199l-1326.8-5.8L172.3,712.2z"/>
	<path class="st2" d="M835,49.5L835,49.5c-366,0-662.7,296.7-662.7,662.7v629.8h39.3V861c0-344.3,279.1-720.2,623.4-720.2h0
		c344.3,0,623.4,375.9,623.4,720.2v481h39.3V712.2C1497.7,346.2,1201,49.5,835,49.5z"/>
	<path class="st2" d="M172.3,791.6c28.3,178.9,179.8,363.3,696.5,363.3s629.6-92.9,629.6-92.9l-0.2,199l-1326.8-5.8L172.3,791.6z"/>
	<g>
		<ellipse class="st3" cx="832.4" cy="814.5" rx="162.9" ry="237.7"/>
		<ellipse class="st3" cx="832.4" cy="814.5" rx="187.5" ry="273.5"/>
		<ellipse class="st3" cx="832.4" cy="814.5" rx="218.7" ry="319.1"/>
		<ellipse class="st3" cx="832.4" cy="814.5" rx="255.8" ry="373.3"/>
		<ellipse class="st3" cx="832.4" cy="814.5" rx="301.3" ry="439.6"/>
		<ellipse class="st3" cx="832.4" cy="814.5" rx="363.8" ry="530.8"/>
		<ellipse class="st3" cx="832.4" cy="814.5" rx="410.6" ry="599.2"/>
		<ellipse class="st3" cx="832.4" cy="814.5" rx="439.6" ry="641.5"/>
	</g>
	<path class="st4" d="M1549.8,1140.6v236.2c-0.1,0.1,0,7.2,0,7.3c-2.2,5.9-77.6,186.2-712,186.2c-644.4,0-717.5-184.4-717.5-184.4
		v-240c0-36.1,35.6-61.8,69.8-49.9c81.2,28.4,252.8,63.1,607.3,65.3h0.4c11.3,0.1,22.8,0.1,34.5,0.1c379,0,560.9-38.7,646.2-70.1
		C1513,1078.4,1549.8,1103.7,1549.8,1140.6z"/>
	<path class="st5" d="M370.4,1504.5c8.4,9.2,13.2,16.8,15.1,22.9c-230.6-54.5-265.2-141.6-265.2-141.6v-240
		c0-36.1,35.6-61.8,69.8-49.9c45.2,15.7,118.2,33.5,235.2,46.5c10.6,1.2,21.8,2.4,33.2,3.4C316.2,1173.7,264,1387.2,370.4,1504.5z"
		/>
	<path class="st2" d="M919.9,109.8c227.3,120.5,353.3,221.8,399.8,416.2c46.6,194.4,21.9,462.8,35.6,490.2
		c13.7,27.4,82.2,21.9,82.2-21.9c0-43.8,24.6-397.1-123.2-624.4S919.9,109.8,919.9,109.8z"/>
	<path class="st2" d="M817.7,118.9c-134.2,0-397.1,63-503.9,284.8c-106.8,221.8-126,503.9-76.7,564.1
		c49.3,60.2,216.3,106.8,290.3,52c73.9-54.8-90.4-390.2,20.5-635.3C658.9,139.4,817.7,118.9,817.7,118.9z"/>
	<path class="st6" d="M915.8,204.7c-105.9-13.8-137.4,31.9-149.2,94.5c-10.1,53.1,34.7,140.1,126.9,110
		c92.2-30.1,54.8-96.8,42-123.2c-12.8-26.5,34.7-21,36.5-43.8C973.8,219.3,947.3,208.8,915.8,204.7z"/>
	<path class="st6" d="M1004.8,254.9c-35.8,6.4-37,119.1,53.4,130.1c90.4,11,73.9-54.8,21.9-87.6
		C1028.1,264.5,1043.2,248.1,1004.8,254.9z"/>
	<path class="st6" d="M993.9,398.7c-34.1,26.9,84.9,268.4,149.2,250.6c64.4-17.8,21.9-46.6,63-54.8c41.1-8.2,57.5,90.4,94.5,79.4
		c37-11-2.7-147.9-64.4-227.3c-61.6-79.4-84.9-32.2-130.1-32.9C1060.9,413.1,1019.9,378.1,993.9,398.7z"/>
	<path class="st7" d="M797.9,2059.1C144.9,2047.8,43.6,1793,43.6,1793l76.7-74.8l192.2-1.2c103.5,74.8,192,164.9,192,164.9
		C402,1880.7,546.2,2046.7,797.9,2059.1z"/>
	<path class="st7" d="M261.6,1965.5c-180-76.8-218-172.5-218-172.5l76.7-74.8l123.2-0.8c-23.9,52.4,39.7,114.9,39.7,114.9
		S199.6,1882.4,261.6,1965.5z"/>
	<path class="st5" d="M1549.7,1376.9c-0.2,0.6-1.1,2.9-3.3,6.7c-19.2,34.3-136.7,186.7-708.6,186.7c-129.6,0-236.1-7.5-323.6-19.3
		c-48.5-6.6-91.2-14.6-128.7-23.5c-230.6-54.5-265.2-141.6-265.2-141.6v-240c0-36.1,35.6-61.8,69.8-49.9
		c45.2,15.7,118.2,33.5,235.2,46.5c10.6,1.2,21.8,2.4,33.2,3.4c88.4,8.6,199.5,14.5,339,15.4c-326.9,4-478.5,123.8-392.3,242.9
		C505.5,1542.9,1370.4,1581.2,1549.7,1376.9z"/>
	<path class="st8" d="M1549.8,1384v325c0,0-67.5,193.5-712,193.5c-180.2,0-315.8-14.5-417.5-35.1c-0.1-0.1-0.2-0.1-0.2-0.1
		c-262-53.6-299.9-149.2-299.9-149.2v-326.8c0,0,27.9,56.4,194.5,100.5c106.3,28.1,269.3,51,517.5,51
		C1469.4,1542.9,1549.8,1384,1549.8,1384z"/>
	<path class="st7" d="M504.5,1881.8c-338.5-48.2-384.2-163.7-384.2-163.7v-326.8l0.1,0.1c1.8,3.6,52,93.1,368.8,132.8l3.6,1.3
		C372.8,1491.6,344.7,1837.5,504.5,1881.8z"/>
	<path class="st7" d="M420.2,1867.3c-262-53.6-299.9-149.2-299.9-149.2v-326.8c0,0,27.9,56.4,194.5,100.5
		C194.9,1576,272.6,1804.7,420.2,1867.3z"/>
	<path class="st9" d="M1059.6,1919.9c254.7-26,354.5-58.3,450.5-120.5c101.3-65.7,104.1,84.9-202.6,173.9
		C998.9,2062.8,841.2,1942.2,1059.6,1919.9z"/>
	<path class="st10" d="M1265,1565.7c165.9-53.7,226.4-63,251.9-94c25.6-31,29.3,208-21.9,262.9c-100,107.3-479.7,166.6-516.2,77.1
		c-36.5-89.5,118.2-37,134.6-128.2C1129.9,1592.2,1202.9,1585.8,1265,1565.7z"/>
	<path class="st2" d="M684.4,150.2c-89.3-10.9-271.8,30.2-369.9,241.6c-98,211.5-145.1,489.9-119.6,553.7
		c25.5,63.8,131,123.6,186.8,75.3c55.9-48.3-12.7-394.7,90.9-628.9C576.2,157.7,684.4,150.2,684.4,150.2z"/>
	<path class="st2" d="M956.4,119.4c227.3,119,353.3,219.1,399.8,411.1c46.6,192,21.9,457.1,35.6,484.1c13.7,27,82.2,21.6,82.2-21.6
		s24.6-392.2-123.2-616.6C1202.9,151.8,956.4,119.4,956.4,119.4z"/>
	<path class="st3" d="M822,178.1c131-63.4,355.3,97.4,444.1,262.3c88.8,164.9-124.3,230.8-325.7,12
		C739.1,233.5,753.9,211.1,822,178.1z"/>
	<path class="st3" d="M977.5,228c20.5-60.8,138.3,15.7,216,113.9s32.9,172.2-95.7,53.5C969.3,276.7,966.9,259.6,977.5,228z"/>
	<path class="st11" d="M650.9,313.8c-125.7,76.6-141.7,543.6,39,666.8c180.7,123.2,539.5,52,583.3-71.2
		c43.8-123.2-199.9-145.1-325.9-304C821.3,446.6,763.1,245.3,650.9,313.8z"/>
	<path class="st12" d="M591.3,400c-98.9,52.6-131.9,486.5,58.9,627.1c182.1,134.2,534.6,47.2,569.1-37.4
		c34.5-84.6-391.9-57.1-491.1-166.1C629.1,714.5,679.7,353,591.3,400z"/>
	<path class="st11" d="M879.8,120.7c-135-4.2-284.8,25.6-385.2,177.1c-100.4,151.5-122.3,514.8-58.4,664.5s639.2,187.8,850.7,104.1
		c211.5-83.7,76.7-629.8-69.4-779.5C1073.2,139,939.1,122.6,879.8,120.7z"/>
	<path class="st11" d="M847.4,117.1c-20.2-20-332.7,1.8-460.5,370.6c-50.1,144.5-61.7,331.6-21.9,476.5
		c45.6,166.1,175.9,186,220,102.2c44.1-83.7-119.6-270.2-21-540.4C615.7,384.3,888.9,158.2,847.4,117.1z"/>
	<path class="st11" d="M699.5,117.1c-20.2-20-332.7,1.8-460.5,370.6c-50.1,144.5-61.7,331.6-21.9,476.5
		c45.6,166.1,175.9,186,220,102.2c44.1-83.7-119.6-270.2-21-540.4C467.8,384.3,741,158.2,699.5,117.1z"/>
	<path class="st13" d="M926.8,109.8c20.2-20,332.7,1.8,460.5,370.6c50.1,144.5,62.6,218.4,22.8,363.3
		c-45.6,166.1-147.6,182.3-191.7,98.6c-44.1-83.8,6.4-153.4-92.2-423.5C1074.5,377,885.2,150.8,926.8,109.8z"/>
	<path class="st14" d="M867.7,1297.1c-5.7,19,109.5,205.4,377,165.7c104.8-15.6,154.2-31.6,229.9-103
		c86.9-81.8,63.6-150.2-2.1-150.5c-65.7-0.3-91.8,53.4-289.4,79.4C1079.5,1302.4,879.3,1258.1,867.7,1297.1z"/>
	<path class="st14" d="M896.2,1260.9c-10.6,12,42.7,127.4,301.4,97.7c101.4-11.6,151.6-22.6,242-68.9c103.7-53,101.6-95.7,41-94.7
		c-60.6,1-100.2,35.2-290.3,55.1C1090.5,1260.5,918,1236.1,896.2,1260.9z"/>
	<path class="st5" d="M711.8,1542c0,0-87.9,9.4-197.6,9c-347.2-47.4-393.9-165.1-393.9-165.1v-240c0-36.1,35.6-61.8,69.8-49.9
		c45.2,15.7,118.2,33.5,235.2,46.5c-64.9,6.5-69.9,15.2-231,7.9c-74-3.4-94.5,238.2,43.8,287.5C345.8,1476.3,591.3,1541,711.8,1542z
		"/>
	<path class="st3" d="M901.8,1180.8c-64.4,31.5,65.2,81.8,296,59.5c100.5-9.7,136.1-21.4,229.5-59.5c34.5-14.1,81.2-51.5,23-40.9
		c-49.2,9-59.3,37.1-248.1,42.8C1100.9,1185.8,929.3,1167.4,901.8,1180.8z"/>
	<path class="st9" d="M1076,1911.6c260.1-11.9,343.2-61.2,448.2-145.1c85.6-68.4,137.6,48.6-163.4,138.7
		C1058.1,1995.9,856.7,1921.6,1076,1911.6z"/>
	<path class="st10" d="M1310.1,1528.9c169.2-42.1,185.8-68.7,219.1-79.4c21.2-6.8,17.6,53.3-33.5,108.2
		c-100,107.3-507,70.4-418.3,32.2C1136.3,1564.5,1191.7,1558.4,1310.1,1528.9z"/>
</g>
<g>
	<path class="st15" d="M1350.7,943.2l-543.7,937.6c-9.9,17.2-18.9,30.4-29.2,48.5c-26.9,47.3,15,102.6,55.3,102.6h1138.6
		c46.7,0,96-52.6,72.2-100.1c-8.9-17.7-21.4-35.6-31.3-52.9l-548.4-935.7C1434,890.4,1380.9,890.4,1350.7,943.2L1350.7,943.2z
		 M1377.2,1940.9h519.6c8.4,0,21.7-18.2,16.5-27c-26.5-44-55.6-96.8-81.3-141.9l-404.2-709.3c-12.9-22.6-27.5-22.6-40.4,0
		l-459.8,806.6c-8.5,14.8-16.9,29.9-25.7,44.5c-5.3,8.7,8,27,16.5,27C1071.2,1940.9,1224.2,1940.9,1377.2,1940.9L1377.2,1940.9z"/>
	<path class="st16" d="M1351.5,962.3l-531.7,919.1c-9.7,16.7-19.2,33.5-29.3,50c-21.2,34.6,11.5,87.5,51.2,87.5h1131.4
		c39.6,0,72.3-52.8,51.2-87.5c-10.1-16.5-19.6-33.3-29.3-50l-531.7-919.1C1433.6,911,1381.3,911,1351.5,962.3L1351.5,962.3z
		 M1377.6,1930.7h511.7c8.3,0,21.4-17.7,16.2-26.2c-26.1-42.7-54.8-94-80.1-137.7l-398.1-688.5c-12.7-21.9-27.1-21.9-39.8,0
		l-452.9,782.9c-8.4,14.4-16.6,29-25.3,43.2c-5.2,8.5,7.9,26.2,16.2,26.2C1076.3,1930.7,1226.9,1930.7,1377.6,1930.7L1377.6,1930.7z
		"/>
	<path class="st15" d="M1353.9,984.1L844.6,1870c-9.3,16.1-18.4,32.3-28.1,48.2c-20.3,33.4,11,84.3,49,84.3h1083.8
		c38,0,69.3-50.9,49-84.3c-9.6-15.9-18.7-32.1-28-48.2L1461,984.1C1432.5,934.6,1382.4,934.6,1353.9,984.1L1353.9,984.1z"/>
	<g>
		<g>
			<path d="M1015.4,1904.7l-36.7-173.9h19.7l17.2,88c4.3,21.7,8.2,43.4,10.7,60.1h0.4c2.4-17.3,6.9-37.9,11.8-60.4l19.3-87.7h19.5
				l17.6,88.3c4.1,20.6,7.9,41.3,10.1,59.6h0.4c3-19.1,7.1-38.5,11.6-60.1l19.1-87.7h19.1l-41,173.9h-19.5l-18.2-90.6
				c-4.5-22.2-7.5-39.2-9.4-56.8h-0.4c-2.6,17.3-5.8,34.3-11.2,56.8l-20.6,90.6H1015.4z"/>
			<path d="M1184.5,1849.9l-15,54.7h-19.3l49.1-173.9h22.5l49.4,173.9h-20l-15.5-54.7H1184.5z M1231.9,1832.4l-14.2-50.1
				c-3.2-11.4-5.4-21.7-7.5-31.7h-0.4c-2.1,10.3-4.5,20.9-7.3,31.5l-14.2,50.3H1231.9z"/>
			<path d="M1292.5,1733c9.4-2.3,23-3.6,35.8-3.6c20,0,32.8,4.4,41.8,14.2c7.3,7.7,11.4,19.6,11.4,33c0,23-12,38.2-27.3,44.4v0.8
				c11.2,4.6,17.8,17,21.2,35.1c4.7,24.3,8.2,41,11.2,47.7h-19.3c-2.4-4.9-5.6-19.9-9.7-41.6c-4.3-24-12-33-29-33.8h-17.6v75.4
				h-18.7V1733z M1311.1,1812.3h19.1c20,0,32.6-13.2,32.6-33c0-22.4-13.5-32.3-33.3-32.5c-9,0-15.4,1-18.5,2.1V1812.3z"/>
			<path d="M1407.9,1904.7v-173.9h20.4l46.3,88c10.7,20.4,19.1,38.7,26,56.5l0.4-0.3c-1.7-23.2-2.1-44.4-2.1-71.5v-72.8h17.6v173.9
				h-18.9l-45.9-88.3c-10.1-19.4-19.7-39.2-27-58.1l-0.6,0.3c1.1,21.9,1.5,42.8,1.5,71.7v74.3H1407.9z"/>
			<path d="M1567.8,1730.7v173.9h-18.7v-173.9H1567.8z"/>
			<path d="M1600.4,1904.7v-173.9h20.4l46.3,88c10.7,20.4,19.1,38.7,26,56.5l0.4-0.3c-1.7-23.2-2.1-44.4-2.1-71.5v-72.8h17.6v173.9
				h-18.9l-45.9-88.3c-10.1-19.4-19.7-39.2-27-58.1l-0.6,0.3c1.1,21.9,1.5,42.8,1.5,71.7v74.3H1600.4z"/>
			<path d="M1851.6,1896.9c-8.4,3.6-24.9,9.5-44.4,9.5c-21.9,0-39.9-6.7-54.1-23c-12.4-14.5-20.2-37.7-20.2-64.8
				c0.2-51.9,29.8-89.8,78.3-89.8c16.7,0,29.8,4.4,36,8l-4.5,18.3c-7.7-4.1-17.4-7.5-32-7.5c-35.2,0-58.1,26.3-58.1,69.9
				c0,44.1,22.1,70.2,55.8,70.2c12.2,0,20.6-2.1,24.9-4.6v-51.9H1804v-18.1h47.6V1896.9z"/>
		</g>
		<g>
			<path d="M1364.5,1606.9c-4.6-28.6,11.5-50.9,35.6-54.4c28.8-4.1,52.4,21.6,49.4,50.6c-2.5,24-20.5,41.4-47.2,39.2
				C1383.2,1640.8,1367.6,1625.8,1364.5,1606.9z M1381.5,1474.8l-8.7-297c-0.6-19.2,14.8-35,34-35l0,0c19.2,0,34.6,15.8,34,35
				l-8.7,297c-0.3,10.1-8.6,18.1-18.7,18.1h-13.3C1390,1493,1381.7,1484.9,1381.5,1474.8z"/>
		</g>
	</g>
	<path class="st17" d="M1480.5,2031.9H833.1c-40.3,0-82.2-55.3-55.3-102.6c10.2-18.1,19.3-31.3,29.2-48.4l543.7-937.6
		c29.7-51.9,81.6-52.8,112-2.6c-65.7-43-264.5,333.7-382.8,626.1c-15.3,37.7-29.2,74-41.4,107.9c-38.7,108-59.2,190.6-46.5,212.9
		c10.9,19.1,34.1,37,65.2,53.3c3.2,1.6,6.4,3.3,9.8,5c108,52.7,296.4,86.5,398.5,83.6C1476.1,2029.2,1480.8,2030.1,1480.5,2031.9z"
		/>
	<path class="st17" d="M1971.7,2031.9H833.1c-40.3,0-82.2-55.3-55.3-102.6c10.2-18.1,19.3-31.3,29.2-48.4l543.7-937.6
		c13.4-23.4,31.3-36.5,49.8-39.1c-100.5,218.1-446.8,805.7-470.5,960.8c-1.8,11.7-1.7,20.8,0.4,27.3c5.9,18,40.7,34.5,94.9,48.7
		c232,60.6,819.4,78.8,1018.7-9.1C2067.6,1979.3,2018.4,2031.9,1971.7,2031.9z"/>
	<path class="st18" d="M1306.3,1180.2c24-105.6,115-209,172.5-149.5s490.8,786,467.8,864.6c-23,78.6-492.2,90.5-586.6-24.9
		C1265.6,1754.9,1277.6,1306.7,1306.3,1180.2z"/>
	<path class="st18" d="M1426.2,1228.8c-10.3-106,16.5-218.1,61.2-167.3c44.7,50.8,443.6,705,448.5,784.5
		c4.9,79.5-151.3,106.8-296.1-46.6S1438.6,1355.8,1426.2,1228.8z"/>
	<path class="st19" d="M1477.4,1209.5c-10.3-106-34.7-198.7,10-147.9c44.7,50.8,443.6,705,448.5,784.5
		c4.9,79.5-14.7,76.1-159.5-77.2C1631.7,1615.4,1489.8,1336.4,1477.4,1209.5z"/>
</g>
</svg>
