<?xml version="1.0" encoding="utf-8"?>
<!-- Generator: Adobe Illustrator 24.2.0, SVG Export Plug-In . SVG Version: 6.00 Build 0)  -->
<svg version="1.1" id="Layer_1" xmlns="http://www.w3.org/2000/svg" xmlns:xlink="http://www.w3.org/1999/xlink" x="0px" y="0px"
	 viewBox="0 0 227 321" style="enable-background:new 0 0 227 321;" xml:space="preserve">
<style type="text/css">
	.st0{fill-rule:evenodd;clip-rule:evenodd;fill:#FDC2A4;}
	.st1{fill-rule:evenodd;clip-rule:evenodd;fill:#320200;}
	.st2{fill-rule:evenodd;clip-rule:evenodd;fill:#E09D16;}
	.st3{fill-rule:evenodd;clip-rule:evenodd;fill:#CF8F10;}
	.st4{fill-rule:evenodd;clip-rule:evenodd;fill:#745944;}
	.st5{fill-rule:evenodd;clip-rule:evenodd;fill:#604029;}
	.st6{fill-rule:evenodd;clip-rule:evenodd;fill:#F2B236;}
	.st7{fill-rule:evenodd;clip-rule:evenodd;fill:#FFC9B1;}
	.st8{fill-rule:evenodd;clip-rule:evenodd;fill:#F5B290;}
	.st9{fill-rule:evenodd;clip-rule:evenodd;fill:#FF6600;}
	.st10{fill-rule:evenodd;clip-rule:evenodd;fill:#E35805;}
	.st11{fill-rule:evenodd;clip-rule:evenodd;fill:#D64E00;}
	.st12{fill-rule:evenodd;clip-rule:evenodd;fill:#FFD6C4;}
</style>
<g>
	<path class="st0" d="M135.1,304.6c3.5,3,8.3,2.5,10.8,5.5c4.9,5.8-1.7,6.8-6,12.9c-4.4,6.1-1.3,12.2-3.8,16.9
		c-2.2,4.1-6.2,11.5-8.1,10.1c-0.9-11.2,3.8-23.2-5.1-37.1L135.1,304.6z"/>
	<path class="st1" d="M139,306.6c4.6-0.5,8.4,1.3,9.2,6.6c0.5,3.7-4.1,5.2-7.7,10.2c-4.4,6.1-1.4,12.4-3.9,17.1
		c-2.2,4.2-6.8,11.8-8.8,10.4L128,340c1.6-3.7,5.6-12.8,7.2-19.7C136.3,315.7,137.5,311.5,139,306.6z"/>
	<path class="st2" d="M67.8,271.4c-10.2-7.2-15.6-12.5-18-17.4c-1.2-2.4-0.3-5.1,0.1-6.6c1.7-5.8,13.3-4.5,33.1,5.4
		c31.2,16,36.2,35,53.4,52.1l-11.3,14.7C114.4,302.5,79,279.3,67.8,271.4z"/>
	<path class="st2" d="M75.4,251.3l-23.2,5.7c-6.8-8.3-1.6-12.6,13.5-27.6c18-18,38-30.9,51.8-40.6c4.6-3.6,6.4-12.6,6.5-14.7
		c8.5,0.7,12.3,4.1,24,5.8c3.4,6.4,8.5,12.7,8.9,22.4c0.3,7.6-5.2,22-17.3,24C106.6,231.9,108.8,243.1,75.4,251.3z"/>
	<path class="st3" d="M75.4,251.3l-6.6,1.5l-8-4c18.1-6.6,30-13.8,45.5-25.1l33.2-36.6l5.2-7.8c1,0.2,2.1,0.4,3.2,0.5
		c3.4,6.4,8.5,12.7,8.9,22.4c0.3,7.6-5.2,22-17.3,24C106.6,231.9,108.9,243.5,75.4,251.3z"/>
	<path class="st3" d="M75.4,249.2c2.4,1,5,2.2,7.7,3.6c31.2,16,36.2,35,53.4,52.1l-4.6,5.9c-29-33.9-44.8-41.6-71.9-62.3
		C65.3,248.7,70.3,248.9,75.4,249.2z"/>
	<path class="st0" d="M195.5,49.6l26-45.2l4.3,5l-19.2,47.3c-2.9,3.6-13.1,20.2-22.9,29.1c-6.8,6.2-8.4,15.3-13.2,18.7
		c-7.3-10.5-13.9-17-4-28.5C171.3,70.5,185.7,63.2,195.5,49.6z"/>
	<path class="st4" d="M169.5,34.4c-1.2-17.4-12.8-24-26.3-22.1c-15.8,2.2-22.9,11.8-28.8,23.5c-4.8,9.6-7.8,13.2-11.4,14.5
		c-4.1,1.4-9.6-3.7-18.1-2.5c-10,1.4-12.9,6.6-17.7,15.7c-3,5.7-7.7,10.8-17.9,7.9c8.8,11.2,20.2,16.3,29.5,10.3
		c8-5.1,8.9-8.1,25.1,0.2c17.1,8.7,30.2,3.5,40.1-10.2c3.6-0.7,12.9-0.5,20.1-7.3C170.4,58.5,175.3,46.1,169.5,34.4z"/>
	<path class="st5" d="M169.5,34.4c-1.2-17.4-20.8,1.7-32.6,8.6c-12.1,7-11.7,5.3-17.5,17.1c-6.8,13.8-23.8-1.7-33.1,0.2
		c-13.2,2.7-9.2,29-37,11.1c8.8,11.2,20.2,16.3,29.5,10.3c8-5.1,8.9-8.1,25.1,0.2c17.1,8.7,30.2,3.5,40.1-10.2
		c3.6-0.7,12.9-0.5,20.1-7.3C170.4,58.5,175.3,46.1,169.5,34.4z"/>
	<path class="st6" d="M107.4,260l-19.8,12c-8.8-6.2-6-12,4.6-30.5c12.6-22.1,28.4-39.8,39.2-52.9c3.5-4.7,2.8-13.8,2.4-15.9
		c8.4-1.5,12.9,0.7,24.7-0.8c5,5.3,11.6,10,14.6,19.3c2.3,7.3,0.9,22.6-10.3,27.7C132.4,232.9,136.8,242.1,107.4,260z"/>
	<path class="st2" d="M157.9,172c0.5-0.1,0-0.1,0.6-0.2c5,5.3,11.6,10,14.6,19.3c2.3,7.3,0.9,22.6-10.3,27.7
		c-30,13.9-25.4,24.1-54.4,40.6l-10.7-0.3c11.5-9.1,27.6-21,42.4-32.4c7.8-6.1,18.5-11.4,23.9-15.8C173.7,203,171.2,187.7,157.9,172
		z"/>
	<path class="st7" d="M143.3,63.7c-0.5,13.9-7.2,16.4-15,24.3l-1.8,30.5l37-9.5c-1.7-4.3,7-28.9,4.8-28.6c-3.4,0.3-7,0.9-9.9-0.4
		c-4.6-2.1-2.9-5.9-0.6-13.7L143.3,63.7z"/>
	<path class="st0" d="M127.9,180.8l32.4-8c-8.5-9.3-10.2-22.4-10.1-28.2c0.1-11.4,5.6-15.5,15.2-28.7c5.2-7.2,12.7-24.1,11.2-31.4
		c-1.7-4.3-6-4.2-8.2-4c-3.4,0.3-7,0.9-9.9-0.4c-4.6-2.1-2.9-5.9-0.6-13.7l-7-1.3c-5.5,28.9-23.3,38-25.8,75.8
		C124.1,155.1,125.6,168.7,127.9,180.8z"/>
	<path class="st8" d="M162.5,119.8c0.9-1.2,1.9-2.5,2.9-3.9c2.3-3.1,5-8.1,7.2-13.4c3.3-4.2,5.4-11.5,11.1-16.7
		c7.5-6.7,15.1-17.9,19.6-24.5l-7.3,8l-12.1,12.3l-11.2,4.1l-3.2,10.4l-7.3,18.6L162.5,119.8z"/>
	<g>
		<path class="st0" d="M115.6,101.2l-23.4,29.5l-45.6,32.4l5.8,4.1l48.5-25.3l23.4-22.4c4.9-2.2,3.9-4,8.1-0.5l1.1-14.1
			c-3.1-9-3.4-18.6-5.7-18.8C123.4,85.8,118.2,97.9,115.6,101.2z"/>
		<polygon class="st7" points="47.1,161 34.9,158.4 19.5,164.5 20.1,167.7 33.6,165.8 44.1,171.7 52.8,166.8 51,160.1 		"/>
	</g>
	<polygon class="st7" points="219.7,5.1 216.1,-6 220.5,-20.9 223.5,-20.5 222.9,-7.9 229.3,1.3 225.6,9.9 219.2,8.8 	"/>
	<path class="st9" d="M141.2,74.4c0,0-0.1,0.3-0.3-0.1c-3.2,4.1-12.1,10.7-15.2,13.3c-6.3,5.5-13.5,8.2-15.2,13.3
		c-1.1,3.4-1,11.8,4.9,16.2c-2.5,26.1,0.3,34.3,2.9,49.6c0.9,5.5,1.2,11.2,2.1,17.9l39.8-11.7c-19.3-30.2,4.2-41,7.5-60.5
		c-12.5-8.3-6.6-26.9-6.7-31.7c-0.9-0.1-1.8-0.4-2.6-0.7c-7.1,12.7-22.6,24.5-27.6,33.7C127.3,106.3,139.1,80.4,141.2,74.4z"/>
	<path class="st10" d="M112,112.9c0.8,1.5,2,2.9,3.5,4c-2.5,26.1,0.3,34.3,2.9,49.6c0.1,0.8,0.3,1.7,0.4,2.5
		c9.4-20,18.8-24.4,35.7-45.7c-10.2,3.6-16.6,1.6-26.4-2.3C123.4,119.4,117.1,116.5,112,112.9z"/>
	<path class="st10" d="M133.3,180.7l27-7.9c-19.3-30.2,4.2-41,7.5-60.5c-12.5-8.3-6.6-26.9-6.7-31.7c-0.9-0.1-1.8-0.4-2.6-0.7
		c-7.1,12.7-22.6,24.5-27.6,33.7C125.2,122.7,124,162.7,133.3,180.7z"/>
	<path class="st11" d="M128.3,121.2c-1.8,8.5-2.4,21.4-1.2,33.7c7.1-9.8,15.3-16.4,27.4-31.6C144.4,126.9,137.9,125,128.3,121.2z"/>
	<g>
		<path class="st12" d="M142.3,69.6c-1.9-1.8-3.4-3.4-5.2-6.4c-1.3-2.2-2.1-3.9-2.7-6.3c-1.6,0.3-2.2-1-2.6-2.8
			c-0.6-2.7-1.6-5.3-2-7.7c-0.5-2.9,1.3-4.5,2.9-2.1c-0.1-2.5-0.1-4.9,0.4-7.2c1.6-8.6,7.4-15,16.5-14.8c10.1,0.2,15,4.3,16.3,14
			c0.4,3,0.5,5.6,0.4,8c1.5-1.4,2.9,0.2,2.3,2.8c-0.5,2.3-1.6,5-2.3,7.6c-0.4,1.8-1.1,3-2.5,2.8c-0.9,2.8-1.9,5-3.5,7.3
			c-1.6,2.2-2.9,3.7-4.5,5c-3.3,2.8-5.1,4-6.9,4C147,73.5,145.2,72.2,142.3,69.6z"/>
		<path class="st7" d="M149.3,22.2l0.2,0c10.1,0.2,15,4.3,16.3,14c0.4,3,0.5,5.6,0.4,8c1.5-1.4,2.9,0.2,2.3,2.8
			c-0.5,2.3-1.6,5-2.3,7.6c-0.4,1.8-1.1,3-2.5,2.8c-0.9,2.8-1.9,5-3.5,7.3c-1.6,2.2-2.9,3.7-4.5,5c-3.3,2.8-5.1,4-6.9,4l-0.1,0
			L149.3,22.2z"/>
	</g>
	<path class="st4" d="M165.2,50.2c-0.4-8.5-2.4-14-7-21.1c-2.2,21.4-23.4,9.6-23.6,22.1c-3.8-10.5-2.7-12.8-1.5-24.4l6.2-6.2
		l12.8-2.6l11.7,2.7l2.9,7.8C167.3,39.9,168.1,38.8,165.2,50.2z"/>
	<path class="st0" d="M111.9,276.1c-12.4,0-20.7-2.1-25.3-4.6c-15.4-11,23.4-18.8,27.2-19.3c34.7-4.8,56.4,13.1,81,16.1
		c4.6,0.4,8.2-2.7,12.1-1.7c7.3,2,2.5,6.6,2.5,14c-0.1,7.5,5.9,10.8,6.5,16c0.6,4.6,1.5,12.9-0.9,12.9c-7.1-8.6-10.2-21.1-25.4-27.5
		C170.8,274.4,125.6,276.2,111.9,276.1z"/>
	<path class="st1" d="M199.1,267.8c3.4-3.1,7.7-3.7,11.3,0.1c2.5,2.7-0.4,6.7-0.5,12.8c-0.1,7.6,6,10.9,6.6,16.2
		c0.6,4.7,1.2,13.6-1.2,13.6l-6-9.1c-0.8-3.9-2.7-13.7-5.4-20.3C202.1,276.8,200.7,272.7,199.1,267.8z"/>
	<path class="st6" d="M111.9,276.1c-12.5,0-20.9-2-25.5-4.6c-2.4-1.3-3.2-4-3.7-5.5c-1.9-5.7,9.2-10.7,31-13.8
		c34.7-4.8,56.6,10.5,80.5,14.6l-0.8,18.5C174.8,277.5,125.6,276.2,111.9,276.1z"/>
	<path class="st2" d="M111.9,276.1c-12.5,0-20.9-2-25.5-4.6c-1.9-1-2.8-2.9-3.3-4.4c5.5,0.9,12.5,0.6,16.9-0.6
		c36.8,2.1,61.9,5.2,93.6,13.4l-0.2,5.4C174.8,277.5,125.6,276.2,111.9,276.1z"/>
</g>
</svg>
