<?xml version="1.0" encoding="utf-8"?>
<!-- Generator: Adobe Illustrator 24.2.1, SVG Export Plug-In . SVG Version: 6.00 Build 0)  -->
<svg version="1.1" id="Layer_1" xmlns="http://www.w3.org/2000/svg" xmlns:xlink="http://www.w3.org/1999/xlink" x="0px" y="0px"
	 viewBox="0 0 210.2 285.8" style="enable-background:new 0 0 210.2 285.8;" xml:space="preserve">
<style type="text/css">
	.st0{fill:#FAB17E;}
	.st1{fill:#243962;}
	.st2{fill:#EFCBAC;}
	.st3{fill:#D8AA88;}
	.st4{fill:#EE9960;}
	.st5{fill:#132744;}
	.st6{fill:#FFFFFF;}
	.st7{fill:#D3E1F4;}
	.st8{fill:#EE994B;}
	.st9{fill:#1C478A;}
	.st10{fill:#BE4040;}
	.st11{fill:#FFF0E7;}
	.st12{fill:#FBEBDB;}
	.st13{fill:#942525;}
</style>
<g>
	<polygon class="st0" points="156.7,159.4 154.2,187.2 158,187.8 168.7,163 	"/>
	<path class="st0" d="M158.4,184.9c0,0-0.9,2.9-0.4,5.1c0.4,1.5-1.9,3.4-4.4,6.2c-0.2,0.3-0.7,0-0.7-0.4c0-0.2,0.1-0.4,0.2-0.7
		c0.4-1,1.7-2.8,1.7-2.8c-0.1-0.4-2.8,1-4.2,2c-0.9,0.6-3.4,3.3-4.1,2.9c-0.7-0.4,0.4-3,1.6-4.9c1.2-1.9,5.4-3.6,5.9-5
		C154.7,185.7,158.4,184.9,158.4,184.9z"/>
	<polygon class="st1" points="170.6,58.6 198.3,46.7 223.8,58.9 198.3,71.9 	"/>
	<g>
		<g>
			<path class="st2" d="M175.1,72.1l0.4-0.5c-5.6-4.2-4.5-11.2-4.1-12.8c0.1-0.2-0.1-0.4-0.2-0.5l0,0c-0.1-0.1-0.4,0-0.4,0.1
				C170.3,60.3,169.3,67.7,175.1,72.1z"/>
		</g>
		<polygon class="st3" points="175.5,71.6 176.4,71.9 175.6,72.8 175.1,72.1 		"/>
		<path class="st2" d="M176.4,71.9c0,0,1,0.7,1.4,0.5c0,0-0.4,1-0.9,1.1c0,0-0.9-0.3-1.2-0.7L176.4,71.9z"/>
	</g>
	<polygon class="st0" points="188.5,269.5 186.7,277.4 184.1,287.9 176.4,287.9 175.9,277.8 175.6,270.1 	"/>
	<path class="st1" d="M173.3,299.4c0,0,0-3.8,0.5-5.1c0.5-1.2,2.5-6.4,2.5-6.4h7.8c0,0,1.5,4.7,1.5,6.3c0.1,1.5,0,5.2,0,5.2
		L173.3,299.4L173.3,299.4z"/>
	<path class="st1" d="M222.7,299.4c0,0,0-3.8-0.5-5.1c-0.5-1.2-2.5-6.4-2.5-6.4h-7.8c0,0-1.5,4.7-1.5,6.3s0,5.2,0,5.2L222.7,299.4
		L222.7,299.4z"/>
	<path class="st0" d="M191.6,85.4c0,0-0.3,8.5-1.4,12.3l-8.6,18.5l19,26.3l13.4-34l-7.7-10.7c0,0-2.3-11.4-1.1-15.6
		C206.4,78.1,191.6,85.4,191.6,85.4z"/>
	<path class="st4" d="M191.5,86.6c0,0,2.5,6.2,7.4,6c4.8-0.1,5.9-5.6,5.9-5.6L191.5,86.6z"/>
	<path class="st5" d="M188.7,81.6c0,0-1.5-7.8-2.6-10.1c-1.1-2.3-2-12.9,10-13.4c0,0,4.7,0.5,7.1-1c0,0,0,1.5-0.7,2.1
		c0,0,3.1-2,6.4,1.7c3.3,3.6-1.2,17.3-0.9,20.3L188.7,81.6z"/>
	<path class="st0" d="M198.3,90.3c-3.5-0.1-10-4.7-10-10.5v-9c0-2.1,1.5-3.9,3.3-3.9H205c1.8,0,3.3,1.7,3.3,3.9v8.5
		C208.3,85.3,202.3,90.3,198.3,90.3z"/>
	<path class="st5" d="M188.4,75.6c0,0,0-5.4,4.3-6.3c4.3-0.8,13.9,2.6,15.2-1.3c1.4-3.9-18.5-3.9-19.5-1.4
		C187.4,69.2,188.4,75.6,188.4,75.6z"/>
	<polygon class="st6" points="190.2,97.7 198.2,99.5 206.2,97.5 208.3,109.9 199.2,140.6 189.4,103.8 	"/>
	<polygon class="st7" points="189.8,100.2 196.1,105 198.2,101.6 200.1,105 206.8,99.1 205.5,97.5 198.2,99.5 190.2,99.1 	"/>
	<path class="st8" d="M223,167.3l-19,1.2c-0.1-0.1-0.2-0.1-0.4,0l-5.6,0.4l-23.8-1.5c0,0-6,27.3-3.6,63.6c0.7,11.6,2.4,45.9,4,58.1
		l16.3,0.1c2.1-13.7,4.6-48,5.9-53.9c0.6-2.7,1.2-5.3,1.7-7.9c0.4,3,0.8,5.4,0.8,6.9c0,2.4,0.7,6.3,1.7,10.9
		c1.4,6.5,5.4,36.6,6.6,44.5h17.1c0.2-10.8,1.2-47.6,1.3-58.7C226.5,201.3,223,167.3,223,167.3z"/>
	<path class="st9" d="M236.1,263.1c-8.7,4.6-68,10-78.7-2.5c-1.8-2.1,23.5-161.1,23.5-161.1s1.6-0.4,4.4-1c1.4-0.3,3.1-0.5,5-0.8
		c0,0.6,4.1,26.4,9.7,36.5c0,0,6.3-13.9,6.3-36.3c0-0.1,0-0.2-0.1-0.4c1.2,0.1,2.4,0.3,3.6,0.5c0.5,0.1,1,0.2,1.5,0.3
		c2,0.4,3.9,0.9,5.9,1.5C217.2,99.9,237.9,262.2,236.1,263.1z"/>
	<path class="st9" d="M187.7,98c0,0-9.1,69.7-12.6,75c-1.5,2.2-3.6,2.5-6.1,2c-0.5-0.1-0.9-0.2-1.5-0.4l-7-2.7l0,0
		c-1.2-0.4-2.3-0.9-3.4-1.2c-7.1-2.2-6.6-8.2-4.7-16.4c1.9-8.2,14.5-47.8,18.8-50.5C178.8,98.9,187.7,98,187.7,98z"/>
	<path class="st0" d="M206.2,97.5c-6-0.7-11.6-0.4-16,0.2l0,0C190.2,97.8,205,88.5,206.2,97.5z"/>
	<path class="st10" d="M201,140.6c-9.2-6.8-15.8-42.2-15.8-42.2c1.4-0.3,3.1-0.5,5-0.8c0,0.6,3.9,25,9.5,35c0,0,6.5-12.5,6.6-34.9
		c0-0.1,0-0.2-0.1-0.4c1.2,0.1,2.4,0.3,3.6,0.5c0.5,0.1,1,0.2,1.5,0.3C211.4,117.2,201,140.6,201,140.6z"/>
	<path class="st11" d="M195.3,83.6c0,0,4.2-0.4,6.1,0.1c0,0-1,1.7-2.8,1.7C196.9,85.3,195.6,84.7,195.3,83.6z"/>
	<path class="st9" d="M185.2,62.6l0.2,4.1c0,0,9.4-6.3,24.8-0.5l-0.2-5.9c-0.2-1.2-0.9-2.1-2-2.8c-2.9-1.7-9.7-4.7-20.3,0.4
		C186.2,58.7,185.2,61,185.2,62.6z"/>
	<polygon class="st6" points="190.9,94 187.7,98 196.1,103.8 198.2,99.5 	"/>
	<polygon class="st6" points="205.6,94 198.2,99.5 200.3,103.8 207.6,97.8 	"/>
	<path class="st7" d="M197.9,109c0.2-0.2,0.6-0.2,0.8,0c0.2,0.2,0.2,0.6,0,0.8c-0.2,0.2-0.6,0.2-0.8,0
		C197.7,109.7,197.7,109.2,197.9,109z"/>
	<circle class="st7" cx="198.3" cy="115.7" r="0.6"/>
	<path class="st7" d="M197.9,121.8c0.2-0.2,0.6-0.2,0.8,0c0.2,0.2,0.2,0.6,0,0.8c-0.2,0.2-0.6,0.2-0.8,0
		C197.7,122.4,197.7,122,197.9,121.8z"/>
	<path class="st9" d="M217.2,99.9c0,0,5.7,2.4,8.7,9.4c3.1,7,15.7,26.1,15.3,35s-2.1,17.1-10.6,17.4c-5.8,0.2-11.8-5.5-11.8-14.1
		C219,139,217.2,99.9,217.2,99.9z"/>
	<path class="st1" d="M235.3,156.6c-0.2,2.4-1.2,4.4-3.3,4.9c-6.8,1.7-9.8-4.9-8.4-11.3c0.1-0.2,0.1-0.4,0.1-0.7
		c1.5-4.7,6.7-5.5,8.7-5.5c0.4,0,0.7,0,0.7,0s0.1,0.1,0.1,0.3C233.8,145.7,235.8,152,235.3,156.6z"/>
	<path class="st0" d="M235.3,156.6c0,0-19.9-8.9-27.8-19.2c-0.6-0.7,0.9-1.7,0.9-1.7l23.9,8.3l0.8,0.3
		C233.8,145.7,235.8,152,235.3,156.6z"/>
	<g>
		<rect x="185.7" y="136.1" class="st12" width="26.2" height="34.6"/>
		<g>
			<polygon class="st13" points="196.5,160.6 193.5,165.5 195.4,165.2 196.2,166.7 198.7,162.2 			"/>
			<polygon class="st13" points="200.4,160.3 203.3,165.2 201.5,164.9 200.7,166.5 198.2,161.9 			"/>
			<path class="st10" d="M195.5,159.5c0.4-2.2,1.5-3,3.3-3.3c2.3-0.4,3.3,1.5,3.3,3.3c0,1.8-1.5,3.3-3.3,3.3
				S195.2,161.3,195.5,159.5z"/>
			<g>
				<path class="st13" d="M198.8,162.1c-0.8,0-1.6-0.4-2.1-0.9c-0.4-0.5-0.6-1.1-0.5-1.7l0,0c0.2-1.5,1-2.3,2.6-2.6
					c0.7-0.1,1.3,0,1.8,0.4c0.5,0.4,0.9,1.2,0.9,2.2C201.4,160.9,200.1,162.1,198.8,162.1z M199.2,157.1c-0.1,0-0.3,0-0.4,0
					c-1.5,0.2-2.1,0.9-2.3,2.3l0,0c-0.1,0.5,0.1,1,0.4,1.5c0.4,0.5,1.2,0.9,1.9,0.9c1.3,0,2.3-1,2.3-2.3c0-0.9-0.3-1.5-0.7-2
					C200,157.3,199.6,157.1,199.2,157.1z"/>
			</g>
		</g>
		<g>
			<path class="st9" d="M202.5,140.4h-7.3c-0.1,0-0.2-0.1-0.2-0.2l0,0c0-0.1,0.1-0.2,0.2-0.2h7.3c0.1,0,0.2,0.1,0.2,0.2l0,0
				C202.7,140.2,202.6,140.4,202.5,140.4z"/>
			<path class="st9" d="M203.9,141.2h-10.2c-0.1,0-0.2-0.1-0.2-0.2l0,0c0-0.1,0.1-0.2,0.2-0.2h10.2c0.1,0,0.2,0.1,0.2,0.2l0,0
				C204.1,141.2,204.1,141.2,203.9,141.2z"/>
		</g>
		<g>
			<path class="st9" d="M206.3,148.9h-15c-0.1,0-0.2-0.1-0.2-0.2l0,0c0-0.1,0.1-0.2,0.2-0.2h15c0.1,0,0.2,0.1,0.2,0.2l0,0
				C206.5,148.8,206.5,148.9,206.3,148.9z"/>
			<path class="st9" d="M206.3,150.2h-15c-0.1,0-0.2-0.1-0.2-0.2l0,0c0-0.1,0.1-0.2,0.2-0.2h15c0.1,0,0.2,0.1,0.2,0.2l0,0
				C206.5,150,206.5,150.2,206.3,150.2z"/>
			<path class="st9" d="M206.3,151.3h-15c-0.1,0-0.2-0.1-0.2-0.2l0,0c0-0.1,0.1-0.2,0.2-0.2h15c0.1,0,0.2,0.1,0.2,0.2l0,0
				C206.5,151.1,206.5,151.3,206.3,151.3z"/>
			<path class="st9" d="M206.3,152.5h-15c-0.1,0-0.2-0.1-0.2-0.2l0,0c0-0.1,0.1-0.2,0.2-0.2h15c0.1,0,0.2,0.1,0.2,0.2l0,0
				C206.5,152.4,206.5,152.5,206.3,152.5z"/>
		</g>
		<path class="st9" d="M207.6,159.6c-0.4,0.4-0.9,0.7-1.5,1c0.1-0.1,0.1-0.3,0.1-0.4c0-0.1-0.1-0.3-0.3-0.4l-0.1-0.1
			c0.1-0.1,0.1-0.1,0.1-0.2c-0.1-0.1-0.2-0.1-0.3,0v0.1c0,0-0.1,0-0.1-0.1c0.1-0.1,0.1-0.4,0.2-0.5c0-0.1,0-0.1,0-0.1
			c-0.1-0.1-0.3-0.1-0.4,0.1c-0.1,0.1-0.1,0.4,0,0.5l0,0c-0.1,0.2-0.2,0.4-0.4,0.6c0,0,0,0-0.1,0c0,0-0.1-0.1-0.1-0.1
			c0.1-0.1,0.1-0.3,0.1-0.5c0-0.1-0.1-0.1-0.1-0.1c-0.1,0.1-0.3,0.2-0.2,0.4c0,0.1,0,0.1,0.1,0.1c-0.1,0.1-0.1,0.1-0.1,0.2
			c0,0.1,0,0.1,0,0.1c-0.1,0.2-0.1,0.4-0.3,0.5c-0.1,0.1-0.3,0.2-0.4,0.1c-0.1-0.1-0.1-0.2-0.1-0.4c0-0.3-0.1-0.6-0.1-0.9
			c0-0.1,0-0.3,0.1-0.4c0-0.1,0.1-0.2,0.1-0.1c0,0.1,0,0.1,0,0.2c0,0.1,0.1,0.1,0.2,0c0-0.1,0.1-0.4-0.1-0.5s-0.2,0-0.3,0.1
			c-0.2,0.4-0.1,0.9-0.1,1.3c0,0.4,0.1,0.7,0.6,0.7c0.4-0.1,0.6-0.6,0.7-0.9v-0.1l0,0c0,0,0,0,0.1,0.1l0.1,0.1
			c-0.1,0.1-0.1,0.1-0.1,0.1c0,0,0,0.1,0,0.1c0.1,0.1,0.4,0.1,0.4-0.1c0-0.1,0-0.1,0-0.1c0.1-0.2,0.2-0.4,0.4-0.6
			c0.1,0.1,0.1,0.1,0.2,0.1l0,0c0.1,0.1,0.1,0.1,0.1,0.1c0.1,0,0.1,0.1,0.1,0.1c0.1,0.1,0.1,0.1,0.1,0.2c0,0.1-0.1,0.3-0.1,0.4
			c-0.2,0.1-0.4,0.2-0.4,0.4c-0.1,0.2,0,0.4,0.1,0.5c0.1,0,0.1,0,0.1-0.1c0.1-0.3,0.2-0.5,0.3-0.8l0,0c0.1-0.1,0.4-0.1,0.5-0.3
			c0.4-0.2,0.8-0.5,1.2-0.9C207.8,159.7,207.7,159.5,207.6,159.6z M205.4,159.3c0-0.1,0.1-0.2,0.1-0.2
			C205.4,159.3,205.4,159.3,205.4,159.3C205.4,159.4,205.4,159.4,205.4,159.3z M205.6,161.5c-0.1-0.1,0-0.3,0.1-0.4
			C205.7,161.2,205.7,161.4,205.6,161.5z"/>
		<g>
			<path class="st9" d="M211,169.8h-24v-32.4h24V169.8z M187.2,169.5h23.5v-31.9h-23.5V169.5z"/>
		</g>
	</g>
	<path class="st0" d="M202.7,133.5c0,0-4.9,4.1-3.1,4.8c1.7,0.7,6.4-2.2,7.3-2.2s3.1,0,3.1,0s-3-3.5-4.6-3.3
		C203.8,132.9,202.7,133.5,202.7,133.5z"/>
	<path class="st1" d="M175.1,126.2l-6.1,48.9c-0.5-0.1-0.9-0.2-1.5-0.4l-7-2.7l0,0c0,0,2.2-2.3,5.1-9.9
		C168.5,154.4,175.1,126.2,175.1,126.2z"/>
</g>
</svg>
