<?xml version="1.0" encoding="utf-8"?>
<!-- Generator: Adobe Illustrator 24.2.1, SVG Export Plug-In . SVG Version: 6.00 Build 0)  -->
<svg version="1.1" id="Layer_1" xmlns="http://www.w3.org/2000/svg" xmlns:xlink="http://www.w3.org/1999/xlink" x="0px" y="0px"
	 viewBox="0 0 210.2 285.8" style="enable-background:new 0 0 210.2 285.8;" xml:space="preserve">
<style type="text/css">
	.st0{fill:#FAB17E;}
	.st1{fill:#243962;}
	.st2{fill:#1C478A;}
	.st3{fill:#F89748;}
	.st4{fill:#EE7E29;}
	.st5{fill:#132744;}
	.st6{fill:#EFCBAC;}
	.st7{fill:#D8AA88;}
	.st8{fill:#EE985E;}
	.st9{fill:#FFFFFF;}
	.st10{fill:#AB453F;}
	.st11{fill:#DDB18F;}
	.st12{fill:#CA4D44;}
</style>
<g>
	<path class="st0" d="M175.5,252.1c2.1-3.2-15.3-39-6-58.8c1.2-2.5,22.8,1.2,22.8,1.2s4.4,50.2,1.9,63.5c-1.8,9.4-5.2,37.1-7.1,52.6
		c0,0,0,0.1,0,0.1c-0.4,3.7-0.8,6.6-1,8.5c-0.2,1.4,0,2.8,0.5,4.1c1.4,3.8,4.4,11.6,5.9,12.7c0,0-8.2,2.3-9.8,1.4
		c-1.6-0.9-5.6-15.4-5.6-15.4c0.7-1.3,0.9-2.9,0.7-4.4c-0.3-2-0.8-5-1.3-8.8c0,0,0,0,0,0c0,0,0,0,0,0
		C169.6,280.3,170.6,259.9,175.5,252.1z"/>
	<path class="st0" d="M129.3,316.2c1.1-1,1.9-2.4,2.2-3.8c0.4-2,1.1-5,1.9-8.7l0,0c3.5-29.2,11.7-48,19.1-53.5
		c3.1-2.3-0.6-41.9,15.2-57.2c2-1.9,20.9,9.2,20.9,9.2s-13.6,48.6-20.6,60.1c-5,8.2-18,32.9-25.2,46.7c0,0,0,0,0,0c0,0,0,0,0,0
		c-1.8,3.3-3.2,6-4,7.7c-0.6,1.2-1,2.6-1,4c0,4-0.6,14.8,1,15.7c1,0.6,1.8,1.2,2.6,1.9c0,0-7.5-0.6-8.4-0.7c-0.9,0-6.6-18-6.7-18.3
		c0,0,0,0,0,0C127.3,318.1,128.4,317,129.3,316.2z"/>
	<polygon class="st1" points="122.4,326 120.5,337 121.5,337.7 127.4,329.2 	"/>
	<path class="st2" d="M122.6,326.8c6.4,3.4,7.4,14.6,8.4,17l11.7,0c1.8-0.6,1.1-3.1-1.5-5.5c0,0-7.5-0.6-8.4-0.7
		c-0.9,0-6.6-18-6.7-18.3C123.4,322.3,120.8,325.9,122.6,326.8z"/>
	<path class="st3" d="M132.9,289.6c0.5,14,28.4,11.3,28.4,11.3l3.7-17.9l2.4-11.8l0.8-3.9l-1.2-0.6l-17.8-8.4l-5.6-2.6l-0.2,0.7
		l-9.6,30l0,0L132.9,289.6z"/>
	<path class="st4" d="M133.9,286.4c8.1-8.3,31.1-3.3,31.1-3.3l2.4-11.8l-0.4-4.5l-17.8-8.4l-5.8-1.9L133.9,286.4L133.9,286.4z"/>
	<polygon class="st1" points="175.1,333.3 176.6,343.8 178.3,343.8 179.1,335.7 	"/>
	<path class="st2" d="M175.1,333.3c3.6,1.6,7.5,8.6,9.3,10.5l14.8,0.1c1.9-1.5-4.6-6.4-6.6-7.9c0,0-8.2,2.3-9.8,1.4
		c-1.6-0.9-5.6-15.4-5.6-15.4C175.5,325.5,172.5,332.1,175.1,333.3z"/>
	<path class="st3" d="M168.3,262.2l3.7,40.3c6.8,8.6,24.9,3.3,24.9,3.3s1.4-33.3,2.1-34.6l-2.6-0.8L168.3,262.2z"/>
	<path class="st4" d="M168.3,262.2l3.7,40.3c0.2-19.8,25.8-17.8,25.8-17.8l-1.5-14.2L168.3,262.2z"/>
	<polygon class="st1" points="199.7,72.8 162,57.9 141,78.2 176.8,92.2 	"/>
	<path class="st5" d="M182.1,79.7c0,0,0.1,4.5,3.4,5.9c6.8,2.9,0.3,6.2,7,11c1.5,1.1,2.7,7.9-8,8.9c-10.6,1-12,1.9-12,1.9
		s-7.9,5.1-16.7-0.1c-5.1-3,1.3-11.4-1-13.6c-3.1-2.9-3.6-12.3,1-16.2c4.6-3.9,11.9-6.2,11.9-6.2L182.1,79.7z"/>
	<g>
		<g>
			<path class="st6" d="M211.9,89.5l0.3-0.9c-10.1-3-12.2-13.4-12.6-15.9c0-0.3-0.3-0.6-0.6-0.6l0,0c-0.3-0.1-0.6,0.2-0.5,0.5
				C198.9,75.3,201.4,86.3,211.9,89.5z"/>
		</g>
		<polygon class="st7" points="212.2,88.5 213.5,88.5 213,90.1 211.9,89.5 		"/>
		<path class="st6" d="M213.5,88.5c0,0,1.9,0.5,2.2,0c0,0,0,1.6-0.6,2c0,0-1.5,0.1-2.1-0.3L213.5,88.5z"/>
	</g>
	<path class="st0" d="M184.4,108.2c-0.7-0.1-3-1.9-4-4.7c-1.2-3.3-2.3-6.9-2.3-6.9l-3.3,0.5l-8.7,1.4l-0.7,0.1
		c0.7,1.8,1.2,3.6,1.6,5.2c0.7,2.9,0.9,5.4,0.8,7.2c-0.1,1.9-1.1,2.4-1.6,2.7c-0.2,0.2,9.2,31.2,13.8,29.6
		C183.9,142.1,184.7,108.1,184.4,108.2z"/>
	<path class="st8" d="M167.7,111c5.3-2.1,10.3-14.4,10.3-14.4c-1-0.1-2.2,0.1-3.3,0.5c-2.9,1.2-5.8,3.9-7.9,6.7
		C167.6,106.8,167.8,109.2,167.7,111z"/>
	<path class="st0" d="M164.4,106c0,0,15.6-2.5,13.9-12.2c-1.7-9.7-0.9-16.6-10.9-15.3c-10,1.2-11.3,5.2-11.5,8.6
		C155.6,90.5,160.3,106.4,164.4,106z"/>
	<path class="st0" d="M163,115c0,0-26.3-7.9-28.2-10.1c-1.9-2.2-6.4-31.5-6.4-35.7l-3.8,0.6c0,0-2.8,33.3,0.4,40.8
		c3.3,7.5,36.5,19.4,36.5,19.4L163,115z"/>
	<path class="st3" d="M183.6,107.8c0,0-3.2,10.1-15.9,3.7l13.3,29.3l3.5-26.2L183.6,107.8z"/>
	<path class="st0" d="M194.3,110.8c0,0-1.6,5.2,28.9,21.9l22.5-15.4l2.7,2.3c0,0-21.6,26-24.9,25.4c-3.4-0.6-26.5-15.8-26.5-15.8
		L194.3,110.8z"/>
	<path class="st2" d="M111.4,240.8c0,0,0.8,2.6,2.7,6.4c3.2,6.5,9.6,16.4,20.3,22.4c12.1,6.8,51.3,19.7,78.2,13.4
		c0,0-2.6-85.1-8.2-120.2c-0.1-0.8-0.3-1.6-0.4-2.4c1.6,6.3,10.1,8.4,13.5,7.2c7.6-2.6,10.2-8.4,10.6-14.7c0.6-9.6-4.3-20-4.8-20.3
		c-12.4-7.1-14.7-18.3-20.8-22.3c-5.4-3.6-18.3-2.6-18.9-2.6l-2.8,28l-13.1-24.2c0,0-21.1-1.8-32.9-6.7c0,0-35.3,48.8,8.4,48.2
		c0,11.2-5.3,21.5-10.3,36.6C127.8,204.8,111.4,240.8,111.4,240.8z"/>
	<path class="st9" d="M167.8,99c0,0-0.2,1.6-1.2,2c-1,0.4-3.6,1.1-3.9,1c-0.3-0.2-1.3-1.4-1.3-1.4S165.5,98.8,167.8,99z"/>
	<path class="st0" d="M128.4,69.2c0,0,1.6-1.1,0.8-4.2c-0.6-2.1-0.2-3.7-0.6-3.7c-0.5,0.1-0.8,2.7-1.1,3.4c-0.2,0.6-3.7-6.1-4.6-5.6
		c-0.9,0.5-2.6,3.1,1.5,12.2L128.4,69.2z"/>
	<path class="st0" d="M245.7,117.3c0,0,2.4-5.7,3.2-6.9c1.6-2.3,6.1-3.8,6.4-2.7c0.3,1-2.9,2.5-3,4.9c0,0.7,1.3-0.6,2.1-1.1
		c0.5-0.3,0.8-0.1,0.5,0.3c-1.3,1.9-2,3.9-3.3,4.6c-1.3,0.7-3.2,3.1-3.2,3.1L245.7,117.3z"/>
	<polygon class="st10" points="183.6,107.8 180.8,135.8 167.7,111 163,111.1 182.2,145.9 187.1,107.7 	"/>
	<path class="st5" d="M157.9,78.8c0,0-4.6,5.4,9.8,8c4.6,0.8,7,5.3,5.7,9.1c-1.9,5.6,2.9,11.6,9.8,9.5c5.5-1.7-3.5-27.6-8.4-28
		C170,77,157.9,78.8,157.9,78.8z"/>
	<path class="st5" d="M163,80c0,0-4.6,3.3-5,6c-0.4,2.7-1.5,6.5-3.2,3.8c-1.8-2.7-2.1-6.3,0-8.8c2.1-2.5,6.7-3.6,7.7-2.7
		C163.4,79.2,163,80,163,80z"/>
	<path class="st2" d="M154.8,78.5c0,0,8.8-7.6,27.6,3.6l0.3-4.6c-0.7-2.8-1.6-2.7-4.1-4.1c-2.8-1.5-7.2-3-13.4-2.9
		c-4.3,0-6.8-0.5-8.7,3.3L154.8,78.5z"/>
	<g>
		<path class="st6" d="M271.9,131.7c0,0,1.7-1.8,3.1-3.9c0.7-1,1.3-2,1.7-2.9c0.2-0.5,0.4-1,0.4-1.5c0,0-23.5-14.2-25.6-16.1
			c-2.1-1.9-21.3-16.9-21.3-16.9s-1.3,1.2-2.7,3.1c-0.5,0.7-1.1,1.4-1.6,2.2c-0.9,1.5-1.7,3.1-2,4.7c0,0,24.6,12.2,26.8,14.4
			C252.9,117,271.9,131.7,271.9,131.7z"/>
		<path class="st11" d="M275,127.8c0.7-1,1.3-2,1.7-2.9c0.2-0.5,0.4-1,0.4-1.5c0,0-23.5-14.2-25.6-16.1
			c-2.1-1.9-21.3-16.9-21.3-16.9s-1.3,1.2-2.7,3.1c-0.5,0.7-1.1,1.4-1.6,2.2c6.9,3.4,25.6,12.9,27.7,14.9
			C255.5,112.6,269.3,123.4,275,127.8z"/>
		<path class="st12" d="M247.8,104.2c0,0,6.5,3.1,8.2,6.1l-3.7,5.9c0,0-6-2.8-8.5-5.6L247.8,104.2z"/>
	</g>
	<path class="st0" d="M251.6,116.4c0,0,1.6-0.7,2.6-1.9c1-1.2,2.3-3.2,0.7-2.7c-1.7,0.5-4.6,2.6-5.7,2.8c-1.1,0.2-0.7,1.1-0.8,1.3
		C248.3,116.1,251.6,116.4,251.6,116.4z"/>
	<path class="st1" d="M111.4,240.8c0,0,0.8,2.6,2.7,6.4c7.1-7.5,16.9-19.4,23.8-33.7c11.8-24.7,5.3-60.4,5.3-60.4
		c0,11.2-5.3,21.5-10.3,36.6C127.8,204.8,111.4,240.8,111.4,240.8z"/>
	<path class="st1" d="M184.4,156c0-0.7-0.5-1.2-1.2-1.2c-0.7,0-1.2,0.5-1.2,1.2c0,0.7,0.5,1.2,1.2,1.2
		C183.9,157.2,184.4,156.7,184.4,156z"/>
	<path class="st1" d="M184.4,177.4c0-0.7-0.5-1.2-1.2-1.2c-0.7,0-1.2,0.5-1.2,1.2c0,0.7,0.5,1.2,1.2,1.2
		C183.9,178.6,184.4,178.1,184.4,177.4z"/>
	<path class="st1" d="M204.4,162.8c-0.1-0.8-0.3-1.6-0.4-2.4c1.6,6.3,10.1,8.4,13.5,7.2c7.6-2.6,10.2-8.4,10.6-14.7
		c-0.8,0.4-13.1,6.7-18.8,3c-5.8-3.8-9.4-12.3-9.5-12.5L204.4,162.8z"/>
</g>
</svg>
