<?xml version="1.0" encoding="utf-8"?>
<!-- Generator: Adobe Illustrator 24.2.1, SVG Export Plug-In . SVG Version: 6.00 Build 0)  -->
<svg version="1.1" id="Layer_1" xmlns="http://www.w3.org/2000/svg" xmlns:xlink="http://www.w3.org/1999/xlink" x="0px" y="0px"
	 viewBox="0 0 210.2 285.8" style="enable-background:new 0 0 210.2 285.8;" xml:space="preserve">
<style type="text/css">
	.st0{fill:#B67041;}
	.st1{fill:#243962;}
	.st2{fill:#CA4D44;}
	.st3{fill:#EFCBAC;}
	.st4{fill:#DDB18F;}
	.st5{fill:#995A2D;}
	.st6{fill:#F89748;}
	.st7{fill:#2E3B65;}
	.st8{fill:#FFFFFF;}
	.st9{fill:#D3E1F4;}
	.st10{fill:#FFF0E7;}
	.st11{fill:#1C478A;}
	.st12{fill:#D8AA88;}
</style>
<g>
	<path class="st0" d="M137,62.9c0,0,2.8-2.5,3.5-4.3c0.7-1.8,0.6-4.7,0.6-6.6c0,0-0.8-0.3-1,0.6c-0.2,0.9-0.6,3-1.4,3.5
		c-0.8,0.4-2.5,0.4-2.9,2.6C135.4,60.8,137,62.9,137,62.9z"/>
	<path class="st0" d="M130.6,63.3c0,0-2.5-5.2-2-6.9c0.5-1.7,8.3-3.5,9.3-2.7c1,0.8,0,10.5,0,10.5L130.6,63.3z"/>
	<path class="st0" d="M212.6,219.7c0,0-0.4,4.3,1.1,6.3c1.5,2,2.3,3.9,2.8,3c0.5-0.9-0.8-4.2-0.4-4.1c0.4,0.1,1.6,3.9,2.2,5
		c0.6,1.2,1.9,3,2.8,2.1c0.9-0.9-0.8-9.7-1.5-10.9c-0.7-1.1-2.1-3.6-2.1-3.6L212.6,219.7z"/>
	<polygon class="st1" points="159,90.6 188.7,73.9 208.6,98.6 181.5,111.7 	"/>
	<path class="st2" d="M171.5,98.4c0,0-0.6,2.7-2.4,3.6c-1.7,0.9,1,3.5,0.3,5.4c-0.7,1.9,2.1,4.3,2.1,4.3l19.2,2.2
		c0,0,2.8-1.2,3.1-4.5c0.2-3.3,0.5-7.4,0.5-7.4l-8.4-6.4l-12,0.6L171.5,98.4z"/>
	<g>
		<path class="st3" d="M107.1,66.5c0,0-0.9-2.1-1.5-4.3c-0.3-1-0.5-2.1-0.6-3.1c0-0.5,0-1,0.1-1.4c0,0,24.7-5.1,27.1-6.1
			c2.4-1,23.7-8.1,23.7-8.1s0.7,1.5,1.4,3.5c0.2,0.8,0.5,1.6,0.7,2.4c0.4,1.6,0.5,3.2,0.3,4.7c0,0-25,3-27.6,4.2
			C128.1,59.6,107.1,66.5,107.1,66.5z"/>
		<path class="st4" d="M105.6,62.1c-0.3-1-0.5-2.1-0.6-3.1c0-0.5,0-1,0.1-1.4c0,0,24.7-5.1,27.1-6.1c2.4-1,23.7-8.1,23.7-8.1
			s0.7,1.5,1.4,3.5c0.2,0.8,0.5,1.6,0.7,2.4c-7,0.9-26.1,3.3-28.5,4.4C127.2,55,111.9,60.1,105.6,62.1z"/>
		<path class="st2" d="M136.5,50.1c0,0-6.6,0.6-9,2.8l1.4,6.2c0,0,6.1-0.6,9.1-2.2L136.5,50.1z"/>
	</g>
	<path class="st1" d="M142.4,337.6c0,0,0-4,0.6-5.3c0.6-1.3,2.6-6.7,2.6-6.7h8.1c0,0,1.5,4.9,1.6,6.5c0.1,1.6,0,5.5,0,5.5H142.4z"/>
	<path class="st1" d="M193.9,337.6c0,0,0-4-0.6-5.3c-0.6-1.3-2.6-6.7-2.6-6.7h-8.1c0,0-1.5,4.9-1.6,6.5c-0.1,1.6,0,5.5,0,5.5H193.9z
		"/>
	<path class="st0" d="M173.6,114.4c0,0-1.6,8.7-3.3,12.4l-9.8,4.8l13.7,27.1l18.8-17l-6.2-12.2c0,0-0.6-12.1,1.3-16.2
		C190,109.2,173.6,114.4,173.6,114.4z"/>
	<path class="st5" d="M173.4,115.6c0,0,1.7,6.7,6.6,7.4c5,0.6,7-4.8,7-4.8L173.4,115.6z"/>
	<path class="st0" d="M179.8,120.4c-3.6-0.6-9.5-6.4-8.5-12.3l1.4-9.2c0.3-2.2,2.1-3.7,4-3.4l13.7,2.1c1.8,0.3,3.1,2.3,2.7,4.4
		l-1.3,8.7C190.8,116.9,183.9,121.1,179.8,120.4z"/>
	<path class="st6" d="M143.5,200.3c0-1.1,1.4,43-0.7,67.9c-2.1,24.7,0,59,0,59s6.8,3.7,14.1,0c0,0,8.1-47.7,8-59
		c-0.1-12.1,8.8-66.1,8.8-66.1L143.5,200.3z"/>
	<path class="st6" d="M193.6,327.2c0,0-6.8,3.7-14.1,0c0,0-8.1-47.7-8-59c0-5.1-1.5-17.7-3.3-30.5c-2.5-17.5-5.4-35.6-5.4-35.6
		l31.4-2c0,0-2.6,43.3-0.5,68C195.7,292.9,193.6,327.2,193.6,327.2z"/>
	<g>
		<g>
			<path class="st7" d="M176.9,108.7c-1.3-0.2-4-0.9-4.1-3.3c0-0.7,0.2-1.3,0.7-1.7c0.5-0.5,1.3-0.7,2.1-0.5l4.1,0.6
				c0.8,0.1,1.3,0.4,1.5,0.9c0.4,0.8-0.2,1.9-0.4,2.3c-0.9,1.4-1.9,2-3.1,1.8C177.6,108.8,177.3,108.8,176.9,108.7z M175.5,103.4
				c-0.7-0.1-1.4,0.1-1.9,0.5c-0.4,0.4-0.6,0.9-0.6,1.5c0.1,1.2,0.8,2.1,2.3,2.7c1.1,0.4,2.3,0.5,2.3,0.5l0,0c1.1,0.2,2-0.4,2.9-1.7
				c0.2-0.3,0.7-1.3,0.4-2c-0.2-0.4-0.6-0.7-1.3-0.8L175.5,103.4z"/>
		</g>
		<g>
			<path class="st7" d="M186.4,110.2c-0.4-0.1-0.7-0.1-0.7-0.1c-1.3-0.2-2-1-2.4-2.7c-0.1-0.5-0.3-1.7,0.3-2.3
				c0.4-0.4,0.9-0.5,1.7-0.4l4.1,0.6c0.8,0.1,1.5,0.5,1.8,1.1c0.3,0.5,0.4,1.2,0.1,1.9C190.4,110.5,187.7,110.4,186.4,110.2z
				 M185.2,104.9c-0.7-0.1-1.2,0-1.5,0.3c-0.5,0.6-0.3,1.7-0.2,2.1c0.4,1.5,1.1,2.3,2.2,2.5l0,0c0,0,1.1,0.3,2.3,0.2
				c1.6-0.1,2.6-0.7,3-1.9c0.2-0.6,0.2-1.2-0.1-1.6c-0.3-0.5-0.9-0.9-1.6-1L185.2,104.9z"/>
		</g>
		<g>
			<path class="st7" d="M180.7,105.8c-0.1,0-0.1-0.1-0.1-0.1c0-0.1,0-0.2,0.1-0.2c0.1,0,1.8-0.5,3.1,0.5c0.1,0.1,0.1,0.2,0,0.2
				c-0.1,0.1-0.2,0.1-0.2,0C182.4,105.4,180.7,105.8,180.7,105.8C180.7,105.8,180.7,105.9,180.7,105.8z"/>
		</g>
	</g>
	<path class="st8" d="M177,131.6l-9.3-4c0,0-4.8,38.1,1.6,40.5c0,0,18.3-32.4,17-36.6L177,131.6z"/>
	<path class="st9" d="M171.2,125.2c0,0-2.6,0.4-4,1.8c0,0,2,6.5,7.3,8.4l2.3-3.7C176.7,131.6,172.4,129.6,171.2,125.2z"/>
	<path class="st9" d="M176.7,131.6c0,0,8.6-0.3,9.9-4.5c0,0,1.7,1.8,1.7,4.7c0,0-2.7,4.1-9.6,4.2L176.7,131.6z"/>
	<path class="st10" d="M177.4,113.9c0,0,4.6,0.2,6.6,1c0,0-1.4,1.7-3.2,1.4C179,116.1,177.7,115.2,177.4,113.9z"/>
	<path class="st0" d="M144.9,100.4c-4.2,2.6-9.9,6.2-14.5,9c-0.2-0.8-0.4-1.5-0.5-2.1c-1.5-9.8,0.7-43.9,0.7-43.9s1.5-0.8,3.1-0.9
		c3-0.2,4.2,1.8,4.2,1.8S143.2,94.2,144.9,100.4z"/>
	<path class="st11" d="M218.7,219l-3.1,1.3c-5,1.8-10.4-0.6-12.1-5.7c-2.2-6.8-2.4-14.2-3.3-20.3c-0.4-3-0.9-9.1-2.7-13.9
		c0,0,0,0,0,0l3.2,106c-47.3,3.4-70.4-23.8-70.4-23.8c-1.2-28.7,10.2-93.4,14.4-115.8c-2-4.6-16.3-17.6-18.7-30.5
		c-1.1-6,2.4-10.2,6.6-13c5.3-3.6,11.8-5,11.8-5l15.3,20.4c0.7,0.7,1.1,1.3,1.3,1.7c1.2,2.4,7.3,6.4,7.3,6.4
		c0,0.1,0.7,34.5,1.9,35.6c1.8-0.7,13.9-24.8,16.5-32.9c3.8,1.1,8,2.5,12.4,4.4c0,0,8.3,4.4,9.5,23.7c1,16.3,11,37.2,13.2,56.1
		C222.1,216,220.8,218.2,218.7,219z"/>
	<path class="st2" d="M166.6,125.7c0,0,1.1,33.3,2.5,41.6l21.2-36.7l-2.9-1.1l-16.8,30.4l-1.7-33.1L166.6,125.7z"/>
	<path class="st8" d="M171.2,124.4c0,0-2.6,0.4-4,1.8c0,0,2,6.5,7.3,8.4l2.3-2.9C176.7,131.6,172.4,128.8,171.2,124.4z"/>
	<path class="st8" d="M176.7,131.6c0,0,8.6-1.1,9.9-5.3c0,0,1.7,1.8,1.7,4.7c0,0-2.7,4.1-9.6,4.2L176.7,131.6z"/>
	<circle class="st1" cx="165.6" cy="170.9" r="1.6"/>
	<path class="st1" d="M161.1,185c0-0.9,0.7-1.6,1.6-1.6c0.9,0,1.6,0.7,1.6,1.6c0,0.9-0.7,1.6-1.6,1.6
		C161.8,186.6,161.1,185.9,161.1,185z"/>
	<g>
		<g>
			<path class="st3" d="M161.2,106.2l0.5-0.5c-5.3-5.5-2.8-12.9-2.2-14.6c0.1-0.2,0-0.5-0.1-0.6l0,0c-0.2-0.2-0.4-0.1-0.5,0.1
				C158.1,92.6,155.7,100.4,161.2,106.2z"/>
		</g>
		<polygon class="st12" points="161.7,105.7 162.5,106.2 161.6,107 161.2,106.2 		"/>
		<path class="st3" d="M162.5,106.2c0,0,1,1,1.4,0.8c0,0-0.5,1-1.1,1c0,0-1-0.5-1.2-1L162.5,106.2z"/>
	</g>
	<path class="st2" d="M172,100.4c0,0,3.7,0.2,4.8-1.6c0,0,3,0.7,4.3-0.4c0,0,4.6,0.9,4.7-0.9c0,0,3.5,7,7.4,5.6
		c3.9-1.5-6.2-8.6-6.2-8.6l-13.1,1.7L172,100.4z"/>
	<path class="st11" d="M172.2,95.1l-0.8,3.3c0,0,10.3-3.6,22.8,3.6l-0.1-5.3c0-1-0.5-2-1.3-2.7c-2.3-1.9-7.7-5.5-17.7-2.6
		C173.7,91.9,172.6,93.7,172.2,95.1z"/>
	<path class="st0" d="M127.4,54.8c0-0.2-0.7-1.6,0.2-2.9c0.9-1.3,7-3.3,7.6-2.3c0.6,1.1,0.2,4.7-1.7,5.5
		C131.5,56,127.6,55.6,127.4,54.8z"/>
	<path class="st1" d="M144.7,146.8c-2-4.6-16.3-17.6-18.7-30.5c-1.1-6,2.4-10.2,6.6-13c0,0-2,9,3.6,17.1
		C141.8,128.6,144.7,146.8,144.7,146.8z"/>
	<path class="st1" d="M215.6,220.3c-5,1.8-10.4-0.6-12.1-5.7c-2.2-6.8-2.4-14.2-3.3-20.3c-0.4-3-0.9-9.1-2.7-13.9
		c0.2,0.3,5.6,8.9,10.5,22.8C213,217.4,211.5,219.5,215.6,220.3z"/>
</g>
</svg>
