<?xml version="1.0" encoding="utf-8"?>
<!-- Generator: Adobe Illustrator 23.0.0, SVG Export Plug-In . SVG Version: 6.00 Build 0)  -->
<svg version="1.1" id="Layer_1" xmlns="http://www.w3.org/2000/svg" xmlns:xlink="http://www.w3.org/1999/xlink" x="0px" y="0px"
	 viewBox="0 0 50 50" style="enable-background:new 0 0 50 50;" xml:space="preserve">
<style type="text/css">
	.st0{opacity:0.5;fill:#FFFFFF;enable-background:new    ;}
	.st1{fill:#FFFFFF;}
</style>
<g id="advanced_1_">
	<path class="st0" d="M39.4,6.8H10.9c-2.2,0-4.3,0.9-5.8,2.4S2.7,12.7,2.7,15c0,4.5,3.6,8.2,8.2,8.2h28.5c2.2,0,4.3-0.9,5.8-2.4
		s2.4-3.5,2.4-5.8C47.5,10.4,43.9,6.8,39.4,6.8z M11.5,20.3c-3,0-5.4-2.4-5.4-5.4s2.4-5.4,5.4-5.4s5.4,2.4,5.4,5.4
		S14.5,20.3,11.5,20.3z"/>
	<path class="st1" d="M10.9,43h28.5c2.2,0,4.3-0.9,5.8-2.4s2.4-3.5,2.4-5.8c0-4.5-3.6-8.2-8.2-8.2H10.9c-2.2,0-4.3,0.9-5.8,2.4
		s-2.4,3.5-2.4,5.8C2.7,39.4,6.4,43,10.9,43z M38.7,29.5c3,0,5.4,2.4,5.4,5.4s-2.4,5.4-5.4,5.4s-5.4-2.4-5.4-5.4
		S35.8,29.5,38.7,29.5z"/>
</g>
</svg>
