<?xml version="1.0" encoding="utf-8"?>
<!-- Generator: Adobe Illustrator 24.1.1, SVG Export Plug-In . SVG Version: 6.00 Build 0)  -->
<svg version="1.1" id="Layer_1" xmlns="http://www.w3.org/2000/svg" xmlns:xlink="http://www.w3.org/1999/xlink" x="0px" y="0px"
	 viewBox="0 0 512 512" style="enable-background:new 0 0 512 512;" xml:space="preserve">
<style type="text/css">
	.st0{opacity:0.5;fill:#FFFFFF;}
	.st1{fill:#FFFFFF;}
</style>
<path class="st0" d="M112.8,305c0-81.1,65.8-147,146.7-147c80.9,0,146.7,65.9,146.7,147c0,9.6-0.9,18.9-2.7,28H512V173.8
	c0-22-17.8-39.8-39.7-39.8h-104l-23-47.5C338.6,72.7,324.6,64,309.4,64H205.6c-15.3,0-29.2,8.7-35.9,22.5l-23,47.5h-107
	C17.8,134,0,151.8,0,173.8V333h115.5C113.7,323.9,112.8,314.6,112.8,305z M426.2,188h25.9c8.3,0,15,6.7,15,15s-6.7,15-15,15h-25.9
	c-8.3,0-15-6.7-15-15S417.9,188,426.2,188z"/>
<path class="st1" d="M124.7,363H0v45.2c0,22,17.8,39.8,39.7,39.8h185.8C180.1,437.2,142.8,405.1,124.7,363z"/>
<path class="st1" d="M293.5,448h178.8c21.9,0,39.7-17.8,39.7-39.8V363H394.3C376.2,405.1,338.9,437.2,293.5,448z"/>
<path class="st1" d="M259.5,188c-64.4,0-116.8,52.5-116.8,117s52.4,117,116.8,117c64.4,0,116.8-52.5,116.8-117S323.9,188,259.5,188z
	 M259.5,383c-43,0-77.8-34.9-77.8-78s34.9-78,77.8-78c43,0,77.8,34.9,77.8,78S302.5,383,259.5,383z"/>
<path class="st0" d="M259.5,256c27,0,48.9,22,48.9,49s-21.9,49-48.9,49c-27,0-48.9-22-48.9-49S232.5,256,259.5,256z"/>
</svg>
