<?xml version="1.0" encoding="utf-8"?>
<!-- Generator: Adobe Illustrator 24.1.1, SVG Export Plug-In . SVG Version: 6.00 Build 0)  -->
<svg version="1.1" id="Capa_1" xmlns="http://www.w3.org/2000/svg" xmlns:xlink="http://www.w3.org/1999/xlink" x="0px" y="0px"
	 viewBox="0 0 512 512" style="enable-background:new 0 0 512 512;" xml:space="preserve">
<style type="text/css">
	.st0{opacity:0.5;fill:#FFFFFF;}
	.st1{fill:#FFFFFF;}
</style>
<path class="st0" d="M349.2,289.6c0.8-8.3,0.7-16.7-0.3-24.9c-1.2-9.9-3.7-19.6-7.5-28.7c-0.5-1.1-0.9-2.3-1.4-3.4
	c-5.6-12.5-13.4-23.9-23.4-33.8c-0.1-0.1-0.3-0.3-0.4-0.4c-6.6-6.5-13.8-12.1-21.5-16.7l-35.5,35.1c-3.3,3.2-5.4,7.1-6.3,11.5
	c7.8,2.5,15,6.8,21.1,12.8l0.2,0.2c10.1,10.1,15.6,23.5,15.5,37.7c0,14.3-5.6,27.7-15.8,37.7l-121,119.7
	c-20.9,20.7-56.3,20.7-77.2,0l-0.2-0.2C65.5,426,60,412.6,60,398.4c0-14.3,5.6-27.7,15.8-37.7l69.2-68.5
	c-8.3-18.3-12.6-38.3-12.6-59c0-4.5,0.2-9.1,0.6-13.5L33.5,318C11.9,339.4,0,368,0,398.5c0,30.3,11.8,58.7,33.1,80
	c0.1,0.1,0.3,0.3,0.4,0.4c44.5,44.1,117,44.1,161.6,0l121-119.7c18.9-18.7,30.4-42.8,33-68.9L349.2,289.6z"/>
<path class="st1" d="M195.9,313.7c6.6,6.5,13.8,12.1,21.5,16.7l35.5-35.1c3.3-3.2,5.4-7.1,6.3-11.5c-7.8-2.5-15-6.8-21.1-12.8
	l-0.2-0.2c-10.1-10.1-15.6-23.5-15.5-37.7c0-14.3,5.6-27.7,15.8-37.7l121-119.7c20.9-20.7,56.3-20.7,77.2,0l0.2,0.2
	C446.5,86,452,99.4,452,113.6c0,14.3-5.6,27.7-15.8,37.7L367,219.8c8.3,18.3,12.6,38.3,12.6,59c0,4.5-0.2,9.1-0.6,13.5l99.4-98.3
	c21.6-21.4,33.5-50,33.5-80.5c0-30.3-11.8-58.7-33.1-80c-0.1-0.1-0.3-0.3-0.4-0.4c-44.5-44.1-117-44.1-161.6,0l-121,119.7
	c-21.6,21.4-33.5,50-33.5,80.5c0,30.3,11.8,58.7,33.1,80C195.6,313.4,195.7,313.5,195.9,313.7L195.9,313.7z"/>
</svg>
