<?xml version="1.0" encoding="utf-8"?>
<!-- Generator: Adobe Illustrator 23.0.0, SVG Export Plug-In . SVG Version: 6.00 Build 0)  -->
<svg version="1.1" id="Layer_1" xmlns="http://www.w3.org/2000/svg" xmlns:xlink="http://www.w3.org/1999/xlink" x="0px" y="0px"
	 viewBox="0 0 50 50" style="enable-background:new 0 0 50 50;" xml:space="preserve">
<style type="text/css">
	.st0{opacity:0.5;fill:#FFFFFF;enable-background:new    ;}
	.st1{fill:#FFFFFF;}
</style>
<g id="toggle_x5F_1">
	<path class="st0" d="M25.1,13.6h17.1c2.1,0,3.7-1.7,3.7-3.7l0,0c0-2.1-1.7-3.7-3.7-3.7H25.1c-2.1,0-3.7,1.7-3.7,3.7l0,0
		C21.4,11.9,23,13.6,25.1,13.6z"/>
	<path class="st1" d="M7.7,28.7h34.4c2.1,0,3.7-1.7,3.7-3.7l0,0c0-2.1-1.7-3.7-3.7-3.7H7.7C5.6,21.3,4,23,4,25l0,0
		C4,27,5.7,28.7,7.7,28.7z"/>
	<path class="st0" d="M16.3,43.7h25.9c2.1,0,3.7-1.7,3.7-3.7l0,0c0-2.1-1.7-3.7-3.7-3.7H16.3c-2.1,0-3.7,1.7-3.7,3.7l0,0
		C12.5,42,14.2,43.7,16.3,43.7z"/>
</g>
</svg>
