<?xml version="1.0" encoding="utf-8"?>
<!-- Generator: Adobe Illustrator 23.0.0, SVG Export Plug-In . SVG Version: 6.00 Build 0)  -->
<svg version="1.1" id="Layer_1" xmlns="http://www.w3.org/2000/svg" xmlns:xlink="http://www.w3.org/1999/xlink" x="0px" y="0px"
	 viewBox="0 0 50 50" style="enable-background:new 0 0 50 50;" xml:space="preserve">
<style type="text/css">
	.st0{opacity:0.5;fill:#FFFFFF;enable-background:new    ;}
	.st1{fill:#FFFFFF;}
</style>
<g id="dashboard">
	<path class="st0" d="M30.2,37.5c-5.2,4.2-10.5,0-10.5,0L3.4,26.6c-0.7,2.2-0.2,5.8,1.5,7.5l15.7,10.4c2.4,2.4,6.4,2.4,8.9,0
		l15.7-10.4c1.6-1.6,2.2-5.1,1.6-7.2"/>
	<path class="st1" d="M20.6,34L4.9,23.6c-2.4-2.4-2.4-6.4,0-8.9l15.7-9.3c3.4-2.1,5.5-2.1,8.9,0l15.7,9.3c2.4,2.4,2.4,6.4,0,8.9
		L29.4,34C26.1,35.9,23.9,35.9,20.6,34z"/>
</g>
</svg>
