<?xml version="1.0" encoding="utf-8"?>
<!-- Generator: Adobe Illustrator 23.0.0, SVG Export Plug-In . SVG Version: 6.00 Build 0)  -->
<svg version="1.1" id="Layer_1" xmlns="http://www.w3.org/2000/svg" xmlns:xlink="http://www.w3.org/1999/xlink" x="0px" y="0px"
	 viewBox="0 0 50 50" style="enable-background:new 0 0 50 50;" xml:space="preserve">
<style type="text/css">
	.st0{opacity:0.5;fill:#FFFFFF;enable-background:new    ;}
	.st1{fill:#FFFFFF;}
</style>
<g>
	<path class="st0" d="M46,26.1v13.1c0,1.9-1.5,3.4-3.4,3.4H7.4C5.5,42.6,4,41,4,39.2V26.1c0-0.4,0.4-0.6,0.7-0.3
		C5.2,26.4,6,26.7,7,27l13.3,4.4c4.2,1.3,5,1.2,9.6,0l0,0L43,27c0.9-0.4,1.7-0.7,2.3-1.2C45.6,25.5,46,25.7,46,26.1z"/>
	<path class="st1" d="M43,24.4l-13.2,4.4c-4.6,1.2-5.3,1.3-9.6,0L7,24.4c-1.7-0.5-3-1.4-3-3v-11c0-1.7,1.4-3,3-3h36c1.7,0,3,1.4,3,3
		v11C46,23.1,44.8,23.7,43,24.4z"/>
</g>
</svg>
