<?xml version="1.0" encoding="utf-8"?>
<!-- Generator: Adobe Illustrator 24.1.1, SVG Export Plug-In . SVG Version: 6.00 Build 0)  -->
<svg version="1.1" id="Capa_1" xmlns="http://www.w3.org/2000/svg" xmlns:xlink="http://www.w3.org/1999/xlink" x="0px" y="0px"
	 viewBox="0 0 512 512" style="enable-background:new 0 0 512 512;" xml:space="preserve">
<style type="text/css">
	.st0{fill:#FFFFFF;}
</style>
<g>
	<g>
		<path class="st0" d="M469.3,304.2V85.3c0-23.5-19.1-42.7-42.7-42.7h-53.3c-5.9,0-10.7,4.8-10.7,10.7v53.3
			c0,11.8-9.6,21.3-21.3,21.3s-21.3-9.6-21.3-21.3c0-8.9,5.7-16.9,14.3-20c4.3-1.5,7.1-5.5,7.1-10.1v-66c0-5.9-4.8-10.7-10.7-10.7
			S320,4.8,320,10.7v32H160c-5.9,0-10.7,4.8-10.7,10.7v53.3c0,11.8-9.6,21.3-21.3,21.3s-21.3-9.6-21.3-21.3c0-8.9,5.7-16.9,14.3-20
			c4.3-1.5,7.1-5.5,7.1-10.1v-66C128,4.8,123.2,0,117.3,0c-5.9,0-10.7,4.8-10.7,10.7v32h-64C19.1,42.7,0,61.8,0,85.3v341.3
			c0,23.5,19.1,42.7,42.7,42.7h261.6c21.5,26,54.1,42.7,90.4,42.7c64.7,0,117.3-52.6,117.3-117.3C512,358.3,495.4,325.8,469.3,304.2
			z M277.3,394.7c0,11.1,1.7,21.8,4.5,32H42.7v-256h384v111.2c-10.2-2.9-20.9-4.5-32-4.5C330,277.3,277.3,330,277.3,394.7z
			 M455.5,370.2l-74.7,74.7c-2.1,2.1-4.8,3.1-7.5,3.1s-5.5-1-7.5-3.1l-32-32c-4.2-4.2-4.2-10.9,0-15.1c4.2-4.2,10.9-4.2,15.1,0
			l24.5,24.5l67.1-67.1c4.2-4.2,10.9-4.2,15.1,0C459.7,359.3,459.7,366,455.5,370.2z"/>
	</g>
</g>
</svg>
