<?xml version="1.0" encoding="utf-8"?>
<!-- Generator: Adobe Illustrator 23.0.0, SVG Export Plug-In . SVG Version: 6.00 Build 0)  -->
<svg version="1.1" id="Layer_1" xmlns="http://www.w3.org/2000/svg" xmlns:xlink="http://www.w3.org/1999/xlink" x="0px" y="0px"
	 viewBox="0 0 50 50" style="enable-background:new 0 0 50 50;" xml:space="preserve">
<style type="text/css">
	.st0{fill:#FFFFFF;}
	.st1{opacity:0.5;fill:#FFFFFF;enable-background:new    ;}
</style>
<g id="icons">
	<path class="st0" d="M35.9,45.7c-0.5,0.2-1.1,0.3-1.8,0.5C35.2,45.9,35.8,45.7,35.9,45.7c1.6-2.1,1.6-5.5-0.2-9.6s-0.5-7.4-0.5-7.4
		c-4.7,0.8-5,6.8-5,6.8c-6.8-5.3-4-12-4-12C18,27,19.7,35.7,19.9,36.4c-1-3.8-4.8-5.3-4.8-5.3c0.9,3.4-0.5,7.3-1.9,8.8
		c-1.4,1.4-1.6,4-1.7,4.3c-2.9-2-4.9-5.2-5.3-9.9c-0.5-7.3,4.3-11,4.7-15.7c0.4-4.8-2.7-7.7-2.7-7.7s3.3-0.4,6.7,2.3
		c3.3,2.7,4.1,6.9,4.1,6.9s0.7-0.4,3.2-5.4C24.9,9.7,22.5,3,22.5,3c11.7,5.1,9,16,8.8,17c1.4-5.1,7.5-7,7.5-7s-1.3,5-0.5,8.6
		s4.7,5.2,5.3,10.2C44.3,36.9,42.6,43.5,35.9,45.7z"/>
	<path class="st1" d="M11.5,44.2c0,0,0.2-2.9,1.7-4.3s2.9-5.4,1.9-8.7c0,0,3.8,1.5,4.8,5.4c0,0-2.2-9.4,6.3-13c0,0-2.9,6.7,4,12
		c0,0,0.3-6,5-6.8c0,0-1.3,3.3,0.6,7.4c1.8,4.1,1.8,7.5,0.1,9.6C35.7,45.7,21.3,50.7,11.5,44.2z"/>
</g>
</svg>
