<?xml version="1.0" encoding="utf-8"?>
<!-- Generator: Adobe Illustrator 24.1.1, SVG Export Plug-In . SVG Version: 6.00 Build 0)  -->
<svg version="1.1" id="Capa_1" xmlns="http://www.w3.org/2000/svg" xmlns:xlink="http://www.w3.org/1999/xlink" x="0px" y="0px"
	 viewBox="0 0 512 512" style="enable-background:new 0 0 512 512;" xml:space="preserve">
<style type="text/css">
	.st0{fill:#FFFFFF;}
	.st1{opacity:0.5;}
</style>
<g>
	<g>
		<path class="st0" d="M387,210.9c-0.1-0.1-0.2-0.2-0.3-0.4c-2.4-2.9-5.5-3.5-7.1-3.6c-1.6-0.1-4.7,0.2-7.4,2.9l-147.7,148
			c-5.5,5.5-14.3,5.9-20.3,0.9L142,307c-3.7-3-8.9-3-12.6,0.1c0,0-0.1,0.1-0.1,0.1L0,414.6v32C0,482.6,29.3,512,65.4,512h381.1
			c36.1,0,65.4-29.4,65.4-65.4v-91.1L387,210.9z"/>
	</g>
</g>
<g>
	<g>
		<path class="st0" d="M161.2,93.2c-23.5,0-42.6,19.1-42.6,42.6s19.1,42.6,42.6,42.6c23.5,0,42.6-19.1,42.6-42.6
			C203.7,112.2,184.6,93.2,161.2,93.2z"/>
	</g>
</g>
<g class="st1">
	<g>
		<path class="st0" d="M446.6,0H65.4C29.4,0,0,29.3,0,65.4v310l109.9-91.3c14.8-12.5,36.4-12.6,51.3-0.2l51.6,42.8l138-138.2
			c8-8,19-12.2,30.3-11.7c11.2,0.6,21.7,5.9,28.8,14.5L512,309.4v-244C512,29.3,482.6,0,446.6,0z M161.2,208.4
			c-40.1,0-72.7-32.6-72.7-72.7S121.1,63,161.2,63c40.1,0,72.7,32.6,72.7,72.7C233.9,175.8,201.3,208.4,161.2,208.4z"/>
	</g>
</g>
</svg>
