<?xml version="1.0" encoding="utf-8"?>
<!-- Generator: Adobe Illustrator 23.0.0, SVG Export Plug-In . SVG Version: 6.00 Build 0)  -->
<svg version="1.1" id="Layer_1" xmlns="http://www.w3.org/2000/svg" xmlns:xlink="http://www.w3.org/1999/xlink" x="0px" y="0px"
	 viewBox="0 0 50 50" style="enable-background:new 0 0 50 50;" xml:space="preserve">
<style type="text/css">
	.st0{opacity:0.5;fill:#FFFFFF;enable-background:new    ;}
	.st1{fill:#FFFFFF;}
</style>
<g id="layouts">
	<path class="st0" d="M12,16.2H9.3c-1.7,0-3.2-1.4-3.2-3.2V9.3c0-1.7,1.4-3.2,3.2-3.2H12c1.7,0,3.2,1.4,3.2,3.2V13
		C15.2,14.8,13.7,16.2,12,16.2z"/>
	<path class="st0" d="M12,44.6H9.3c-1.7,0-3.2-1.4-3.2-3.2V22.2c0-1.7,1.4-3.2,3.2-3.2H12c1.7,0,3.2,1.4,3.2,3.2v19.3
		C15.2,43.2,13.7,44.6,12,44.6z"/>
	<path class="st1" d="M39.6,16.2H22.5c-2.4,0-4.4-2-4.4-4.4v-1.2c0-2.4,2-4.4,4.4-4.4h17.1c2.4,0,4.4,2,4.4,4.4v1.2
		C44,14.3,42,16.2,39.6,16.2z"/>
	<path class="st1" d="M38.7,44.6H23.4c-2.9,0-5.3-2.4-5.3-5.3v-15c0-2.9,2.4-5.3,5.3-5.3h15.3c2.9,0,5.3,2.4,5.3,5.3v15
		C44,42.2,41.6,44.6,38.7,44.6z"/>
</g>
</svg>
