<?xml version="1.0" encoding="utf-8"?>
<!-- Generator: Adobe Illustrator 23.0.0, SVG Export Plug-In . SVG Version: 6.00 Build 0)  -->
<svg version="1.1" id="Layer_1" xmlns="http://www.w3.org/2000/svg" xmlns:xlink="http://www.w3.org/1999/xlink" x="0px" y="0px"
	 viewBox="0 0 50 50" style="enable-background:new 0 0 50 50;" xml:space="preserve">
<style type="text/css">
	.st0{fill:#FFFFFF;}
	.st1{opacity:0.5;fill:#FFFFFF;enable-background:new    ;}
</style>
<g>
	<path class="st0" d="M43.3,27.9c0,10-8.1,18.1-18.1,18.1S7,38,7,27.9c0-7.4,4.4-13.7,10.7-16.5v8.4c-2.2,2-3.5,4.9-3.5,8
		c0,6,4.9,11,10.9,11S36,33.9,36,27.8c0-3.2-1.4-6-3.5-8v-8.4C38.9,14.2,43.3,20.6,43.3,27.9z"/>
	<path class="st1" d="M28.6,7.6v20.9c0,0.7-0.2,1.3-0.5,1.8c-0.6,1-1.7,1.7-3,1.7s-2.4-0.7-3-1.7c-0.3-0.5-0.5-1.2-0.5-1.8V7.6
		c0-1.9,1.6-3.5,3.5-3.5c1,0,1.8,0.4,2.5,1C28.2,5.7,28.6,6.6,28.6,7.6z"/>
</g>
</svg>
