<?xml version="1.0" encoding="utf-8"?>
<!-- Generator: Adobe Illustrator 24.1.1, SVG Export Plug-In . SVG Version: 6.00 Build 0)  -->
<svg version="1.1" id="Layer_1" xmlns="http://www.w3.org/2000/svg" xmlns:xlink="http://www.w3.org/1999/xlink" x="0px" y="0px"
	 viewBox="0 0 512 512" style="enable-background:new 0 0 512 512;" xml:space="preserve">
<style type="text/css">
	.st0{opacity:0.5;fill:#FFFFFF;}
	.st1{fill:#FFFFFF;}
</style>
<path class="st0" d="M186.7,375.7v98.9c0,6.9,4.4,13,11,15.2c1.6,0.5,3.3,0.8,5,0.8c5,0,9.8-2.3,12.9-6.5l57.9-78.8L186.7,375.7z"/>
<path class="st1" d="M505.3,3c-4.9-3.5-11.3-3.9-16.7-1.2L8.6,252.5c-5.7,3-9,9-8.6,15.4c0.5,6.4,4.7,11.9,10.8,13.9l133.4,45.6
	l284.2-243L208.5,349.4l223.6,76.4c1.7,0.6,3.4,0.9,5.2,0.9c2.9,0,5.8-0.8,8.3-2.3c4.1-2.5,6.8-6.6,7.5-11.3l58.7-394.7
	C512.7,12.4,510.2,6.5,505.3,3z"/>
</svg>
