<?xml version="1.0" encoding="utf-8"?>
<!-- Generator: Adobe Illustrator 23.0.0, SVG Export Plug-In . SVG Version: 6.00 Build 0)  -->
<svg version="1.1" id="Layer_1" xmlns="http://www.w3.org/2000/svg" xmlns:xlink="http://www.w3.org/1999/xlink" x="0px" y="0px"
	 viewBox="0 0 50 50" style="enable-background:new 0 0 50 50;" xml:space="preserve">
<style type="text/css">
	.st0{opacity:0.5;fill:#FFFFFF;enable-background:new    ;}
	.st1{fill:#FFFFFF;}
</style>
<g id="search">
	<path class="st0" d="M43.9,43.2c-1.3,1.3-3.4,1.3-4.7,0l-9.3-9.3c1.8-1.3,3.3-3,4.4-4.9l9.5,9.5C45.1,39.8,45.1,41.9,43.9,43.2z"/>
	<path class="st1" d="M19.9,5.1c-8.4,0-15.2,6.8-15.2,15.2s6.8,15.2,15.2,15.2s15.2-6.8,15.2-15.2C35,11.9,28.3,5.1,19.9,5.1z
		 M19.9,29.7c-5.2,0-9.4-4.2-9.4-9.4s4.2-9.4,9.4-9.4s9.4,4.2,9.4,9.4S25.1,29.7,19.9,29.7z"/>
</g>
</svg>
