<?xml version="1.0" encoding="utf-8"?>
<!-- Generator: Adobe Illustrator 23.0.0, SVG Export Plug-In . SVG Version: 6.00 Build 0)  -->
<svg version="1.1" id="Layer_1" xmlns="http://www.w3.org/2000/svg" xmlns:xlink="http://www.w3.org/1999/xlink" x="0px" y="0px"
	 viewBox="0 0 50 50" style="enable-background:new 0 0 50 50;" xml:space="preserve">
<style type="text/css">
	.st0{opacity:0.5;fill:#FFFFFF;enable-background:new    ;}
	.st1{fill:#FFFFFF;}
</style>
<g id="settings">
	<path class="st0" d="M8.9,44.7H8.5c-1.3,0-2.4-1.1-2.4-2.4V7.7c0-1.3,1.1-2.4,2.4-2.4h0.4c1.3,0,2.4,1.1,2.4,2.4v34.6
		C11.3,43.6,10.2,44.7,8.9,44.7z"/>
	<path class="st0" d="M25.4,44.7H25c-1.3,0-2.4-1.1-2.4-2.4V7.7c0-1.3,1.1-2.4,2.4-2.4h0.4c1.3,0,2.4,1.1,2.4,2.4v34.6
		C27.8,43.6,26.7,44.7,25.4,44.7z"/>
	<path class="st0" d="M41.9,44.7h-0.4c-1.3,0-2.4-1.1-2.4-2.4V7.7c0-1.3,1.1-2.4,2.4-2.4h0.4c1.3,0,2.4,1.1,2.4,2.4v34.6
		C44.3,43.6,43.2,44.7,41.9,44.7z"/>
	<circle class="st1" cx="8.7" cy="31.2" r="5.4"/>
	<circle class="st1" cx="25" cy="20.1" r="5.4"/>
	<circle class="st1" cx="41.6" cy="29.1" r="5.4"/>
</g>
</svg>
