<?xml version="1.0" encoding="utf-8"?>
<!-- Generator: Adobe Illustrator 24.1.1, SVG Export Plug-In . SVG Version: 6.00 Build 0)  -->
<svg version="1.1" id="Capa_1" xmlns="http://www.w3.org/2000/svg" xmlns:xlink="http://www.w3.org/1999/xlink" x="0px" y="0px"
	 viewBox="0 0 512 512" style="enable-background:new 0 0 512 512;" xml:space="preserve">
<style type="text/css">
	.st0{fill:#FFFFFF;}
	.st1{opacity:0.5;}
</style>
<g>
	<g>
		<path class="st0" d="M437,75C388.7,26.6,324.4,0,256,0S123.3,26.6,75,75C26.6,123.3,0,187.6,0,256s26.6,132.7,75,181
			c48.4,48.4,112.6,75,181,75c46.8,0,92.6-12.8,132.5-36.9c9.4-5.7,12.5-18,6.7-27.5c-5.7-9.4-18-12.5-27.5-6.7
			C334.1,461.2,295.5,472,256,472c-119.1,0-216-96.9-216-216S136.9,40,256,40s216,96.9,216,216c0,42.6-12.7,84-36.6,119.9
			c-6.1,9.2-3.7,21.6,5.5,27.7c9.2,6.1,21.6,3.7,27.7-5.5C497,355.7,512,306.5,512,256C512,187.6,485.4,123.3,437,75z"/>
	</g>
</g>
<g>
	<g>
		<path class="st0" d="M331,293c-11,0-20,9-20,20c0,30.3-24.7,55-55,55s-55-24.7-55-55c0-11-9-20-20-20s-20,9-20,20
			c0,52.4,42.6,95,95,95s95-42.6,95-95C351,302,342,293,331,293z"/>
	</g>
</g>
<g class="st1">
	<g>
		<path class="st0" d="M345,151c-27.6,0-50,22.4-50,50c0,11,9,20,20,20s20-9,20-20c0-5.5,4.5-10,10-10s10,4.5,10,10c0,11,9,20,20,20
			s20-9,20-20C395,173.4,372.6,151,345,151z"/>
	</g>
</g>
<g class="st1">
	<g>
		<path class="st0" d="M168,151c-27.6,0-50,22.4-50,50c0,11,9,20,20,20s20-9,20-20c0-5.5,4.5-10,10-10s10,4.5,10,10c0,11,9,20,20,20
			s20-9,20-20C218,173.4,195.6,151,168,151z"/>
	</g>
</g>
</svg>
