<?xml version="1.0" encoding="utf-8"?>
<!-- Generator: Adobe Illustrator 24.1.1, SVG Export Plug-In . SVG Version: 6.00 Build 0)  -->
<svg version="1.1" id="Capa_1" xmlns="http://www.w3.org/2000/svg" xmlns:xlink="http://www.w3.org/1999/xlink" x="0px" y="0px"
	 viewBox="0 0 512 512" style="enable-background:new 0 0 512 512;" xml:space="preserve">
<style type="text/css">
	.st0{opacity:0.5;fill:#FFFFFF;}
	.st1{fill:#FFFFFF;}
</style>
<g>
	<path class="st0" d="M474.9,166.3h-14V320c0,23.9-13.9,45.6-41.9,45.6H145.2v7.3c0,21.2,24.1,42.5,48.8,42.5h209.3l80.1,47.1
		l-11.6-47.1h3.1c24.7,0,35.9-21.3,35.9-42.5V202.8C510.7,181.6,499.6,166.3,474.9,166.3z"/>
	<path class="st1" d="M378.1,59.5h-318C32.2,59.5,0,84.3,0,108.3V301c0,22.1,27.3,38,53.4,40.5l-17,64.6l109.1-64.2h232.6
		c28,0,53.8-17,53.8-40.9V145.1v-36.8C431.9,84.3,406.1,59.5,378.1,59.5z M108.7,222.1c-15.9,0-28.7-12.9-28.7-28.7
		s12.9-28.7,28.7-28.7c15.8,0,28.7,12.9,28.7,28.7S124.5,222.1,108.7,222.1z M216,222.1c-15.9,0-28.7-12.9-28.7-28.7
		s12.9-28.7,28.7-28.7s28.7,12.9,28.7,28.7S231.8,222.1,216,222.1z M323.3,222.1c-15.9,0-28.7-12.9-28.7-28.7s12.9-28.7,28.7-28.7
		c15.8,0,28.7,12.9,28.7,28.7S339.1,222.1,323.3,222.1z"/>
</g>
</svg>
