<?xml version="1.0" encoding="utf-8"?>
<!-- Generator: Adobe Illustrator 24.1.1, SVG Export Plug-In . SVG Version: 6.00 Build 0)  -->
<svg version="1.1" id="Layer_1" xmlns="http://www.w3.org/2000/svg" xmlns:xlink="http://www.w3.org/1999/xlink" x="0px" y="0px"
	 viewBox="0 0 330 330" style="enable-background:new 0 0 330 330;" xml:space="preserve">
<style type="text/css">
	.st0{fill:#FFFFFF;}
</style>
<path id="XMLID_20_" class="st0" d="M315,0H15C6.7,0,0,6.7,0,15v300c0,8.3,6.7,15,15,15h300c8.3,0,15-6.7,15-15V15
	C330,6.7,323.3,0,315,0z M265.4,155.5l-39.3,38.3l9.1,53.3c0.2,1.1,0.4,2.2,0.4,3.4c0,8.3-6.7,15-15,15c0,0,0,0,0,0
	c-2.4,0-4.8-0.6-7-1.7L165,238.3l-48.6,25.6c-5.1,2.7-11.2,2.2-15.8-1.1c-4.6-3.4-6.9-9-6-14.7l9.3-54.2l-39.3-38.3
	c-4.1-4-5.6-9.9-3.8-15.4c1.8-5.4,6.5-9.4,12.1-10.2l54.4-7.9l24.3-49.3c2.5-5.1,7.7-8.4,13.5-8.4s10.9,3.2,13.5,8.4l24.3,49.3
	l54.4,7.9c5.7,0.8,10.3,4.8,12.1,10.2C271,145.6,269.5,151.6,265.4,155.5z"/>
</svg>
