<?xml version="1.0" encoding="utf-8"?>
<!-- Generator: Adobe Illustrator 23.0.0, SVG Export Plug-In . SVG Version: 6.00 Build 0)  -->
<svg version="1.1" id="Layer_1" xmlns="http://www.w3.org/2000/svg" xmlns:xlink="http://www.w3.org/1999/xlink" x="0px" y="0px"
	 viewBox="0 0 50 50" style="enable-background:new 0 0 50 50;" xml:space="preserve">
<style type="text/css">
	.st0{fill:#FFFFFF;}
	.st1{opacity:0.5;fill:#FFFFFF;enable-background:new    ;}
</style>
<g id="tables">
	<path class="st0" d="M42.5,5.4h-35c-2.2,0-3.9,1.7-3.9,3.9v31.4c0,2.1,1.7,3.9,3.9,3.9h35c2.1,0,3.9-1.7,3.9-3.9V9.3
		C46.4,7.2,44.7,5.4,42.5,5.4z M6.4,21.1c0-1.2,1-2.2,2.2-2.2h12.6c1.2,0,2.2,1,2.2,2.2v5.1c0,1.2-1,2.2-2.2,2.2H8.6
		c-1.2,0-2.2-1-2.2-2.2C6.4,26.2,6.4,21.1,6.4,21.1z M23.4,38.8c0,1.2-0.9,2.1-2.1,2.1H8.4c-1.2,0-2.1-0.9-2.1-2.1v-5.3
		c0-1.2,0.9-2.1,2.1-2.1h12.9c1.2,0,2.1,0.9,2.1,2.1V38.8z M43.4,38.8c0,1.2-0.9,2.1-2.1,2.1H28.4c-1.2,0-2.1-0.9-2.1-2.1v-5.3
		c0-1.2,0.9-2.1,2.1-2.1h12.9c1.2,0,2.1,0.9,2.1,2.1C43.4,33.5,43.4,38.8,43.4,38.8z M43.4,26.3c0,1.2-0.9,2.1-2.1,2.1H28.4
		c-1.2,0-2.1-0.9-2.1-2.1V21c0-1.2,0.9-2.1,2.1-2.1h12.9c1.2,0,2.1,0.9,2.1,2.1C43.4,21,43.4,26.3,43.4,26.3z"/>
	<path class="st1" d="M21.3,28.3H8.4c-1.1,0-2.1-0.9-2.1-2.1V21c0-1.1,0.9-2.1,2.1-2.1h12.8c1.1,0,2.1,0.9,2.1,2.1v5.3
		C23.3,27.4,22.4,28.3,21.3,28.3z"/>
	<path class="st1" d="M21.4,40.9H8.3c-1.1,0-2-0.9-2-2v-5.5c0-1.1,0.9-2,2-2h13.1c1.1,0,2,0.9,2,2v5.5C23.4,40,22.5,40.9,21.4,40.9z
		"/>
	<path class="st1" d="M41.4,28.4H28.3c-1.1,0-2-0.9-2-2v-5.5c0-1.1,0.9-2,2-2h13.1c1.1,0,2,0.9,2,2v5.5
		C43.4,27.5,42.5,28.4,41.4,28.4z"/>
	<path class="st1" d="M41.4,40.9H28.3c-1.1,0-2-0.9-2-2v-5.5c0-1.1,0.9-2,2-2h13.1c1.1,0,2,0.9,2,2v5.5C43.4,40,42.5,40.9,41.4,40.9
		z"/>
</g>
</svg>
