<?xml version="1.0" encoding="utf-8"?>
<!-- Generator: Adobe Illustrator 23.0.0, SVG Export Plug-In . SVG Version: 6.00 Build 0)  -->
<svg version="1.1" id="Layer_1" xmlns="http://www.w3.org/2000/svg" xmlns:xlink="http://www.w3.org/1999/xlink" x="0px" y="0px"
	 viewBox="0 0 50 50" style="enable-background:new 0 0 50 50;" xml:space="preserve">
<style type="text/css">
	.st0{fill:#FFFFFF;}
	.st1{opacity:0.5;fill:#FFFFFF;enable-background:new    ;}
</style>
<g id="user">
	<path class="st0" d="M26.1,27.9h-2.2c-5,0-9.1-4.1-9.1-9.1v-5.7c0-5,4.1-9.1,9.1-9.1h2.2c5,0,9.1,4.1,9.1,9.1v5.7
		C35.2,23.8,31.1,27.9,26.1,27.9z"/>
	<path class="st1" d="M3.6,46.8c0-9.1,7.5-16.6,16.6-16.6h9c9.1,0,16.6,7.5,16.6,16.6"/>
	<path class="st0" d="M25.1,37h-0.2c-0.5,0-1-0.4-1-1V24.9c0-0.5,0.4-1,1-1h0.2c0.5,0,1,0.5,1,1V36C26.1,36.6,25.7,37,25.1,37z"/>
</g>
</svg>
