<?xml version="1.0" encoding="utf-8"?>
<!-- Generator: Adobe Illustrator 23.0.0, SVG Export Plug-In . SVG Version: 6.00 Build 0)  -->
<svg version="1.1" id="Layer_1" xmlns="http://www.w3.org/2000/svg" xmlns:xlink="http://www.w3.org/1999/xlink" x="0px" y="0px"
	 viewBox="0 0 50 50" style="enable-background:new 0 0 50 50;" xml:space="preserve">
<style type="text/css">
	.st0{fill:#FFFFFF;}
	.st1{opacity:0.5;fill:#FFFFFF;enable-background:new    ;}
</style>
<g id="widgets">
	<path class="st0" d="M40.6,5.2H9.3C6.4,5.2,4,7.6,4,10.5v29.1c0,2.9,2.4,5.3,5.3,5.3h31.3c2.9,0,5.3-2.3,5.3-5.3V10.5
		C45.9,7.6,43.5,5.2,40.6,5.2z M36.8,22c-0.5,0-1-0.1-1.4-0.2l-7.1,8.7c0.7,0.9,1.2,2,1.2,3.2c0,2.8-2.3,5.1-5,5.1
		c-2.8,0-5-2.3-5-5.1c0-0.9,0.2-1.8,0.7-2.5l-4.8-3.8c-0.8,0.5-1.7,0.8-2.7,0.8c-2.8,0-5.1-2.3-5.1-5c0-2.8,2.3-5,5.1-5s5,2.3,5,5
		c0,1.1-0.3,2-0.9,2.8l4.7,3.8c0.8-0.6,1.9-1,3-1c0.8,0,1.6,0.2,2.3,0.6l6.8-8.4c-1.1-0.9-1.8-2.3-1.8-3.8c0-2.8,2.3-5.1,5-5.1
		c2.8,0,5,2.3,5,5.1C41.9,19.8,39.6,22,36.8,22z"/>
	<path class="st1" d="M41.9,17c0,2.8-2.3,5-5,5c-0.5,0-1-0.1-1.4-0.2l-7,8.7c0.7,0.9,1.1,2,1.1,3.2c0,2.8-2.3,5.1-5,5.1
		c-2.8,0-5.1-2.3-5.1-5.1c0-0.9,0.2-1.8,0.7-2.5l-4.8-3.8c-0.8,0.5-1.7,0.8-2.7,0.8c-2.8,0-5.1-2.3-5.1-5c0-2.8,2.3-5.1,5.1-5.1
		s5,2.3,5,5.1c0,1.1-0.3,2-0.9,2.8l4.7,3.7c0.8-0.6,1.9-1,3-1c0.8,0,1.6,0.2,2.3,0.6l6.8-8.4c-1.1-0.9-1.8-2.3-1.8-3.8
		c0-2.8,2.3-5.1,5.1-5.1C39.6,11.9,41.9,14.2,41.9,17z"/>
</g>
</svg>
