<?xml version="1.0" encoding="utf-8"?>
<!-- Generator: Adobe Illustrator 23.0.0, SVG Export Plug-In . SVG Version: 6.00 Build 0)  -->
<svg version="1.1" id="Layer_1" xmlns="http://www.w3.org/2000/svg" xmlns:xlink="http://www.w3.org/1999/xlink" x="0px" y="0px"
	 viewBox="0 0 50 50" style="enable-background:new 0 0 50 50;" xml:space="preserve">
<style type="text/css">
	.st0{fill:#FFFFFF;}
	.st1{opacity:0.5;fill:#FFFFFF;enable-background:new    ;}
</style>
<g id="apps">
	<path class="st0" d="M33.2,4.3H9.3c-3.1,0-5.6,2.5-5.6,5.6v16.9c0,3.1,2.5,5.6,5.6,5.6H11l0.1,6.1l6.7-6.2l15.4,0.1
		c4.3,0,5.6-2.5,5.6-5.6V9.9C38.8,6.8,36.3,4.3,33.2,4.3z M14.1,21.3c-1.5,0-2.8-1.2-2.8-2.8s1.2-2.8,2.8-2.8c1.5,0,2.7,1.2,2.7,2.8
		S15.7,21.3,14.1,21.3z M21.5,21.3c-1.5,0-2.8-1.2-2.8-2.8s1.2-2.8,2.8-2.8c1.5,0,2.8,1.2,2.8,2.8S23,21.3,21.5,21.3z M28.9,21.3
		c-1.5,0-2.8-1.2-2.8-2.8s1.2-2.8,2.8-2.8s2.8,1.2,2.8,2.8S30.4,21.3,28.9,21.3z"/>
	<path class="st1" d="M15.3,37.9c0.9,1.5,2.5,2.5,4.4,2.5l13.5-0.1l5.6,5.2l0.1-5.1h2.4c2.8,0,5.1-2.3,5.1-5.1V20.1
		c0-2.8-2.3-5.1-5.1-5.1h-0.7v14.1c0,0-0.3,4.7-5.7,4.7c-4.7,0-14.8,0-14.8,0"/>
</g>
</svg>
