<?xml version="1.0" encoding="utf-8"?>
<!-- Generator: Adobe Illustrator 23.0.0, SVG Export Plug-In . SVG Version: 6.00 Build 0)  -->
<svg version="1.1" id="Layer_1" xmlns="http://www.w3.org/2000/svg" xmlns:xlink="http://www.w3.org/1999/xlink" x="0px" y="0px"
	 viewBox="0 0 50 50" style="enable-background:new 0 0 50 50;" xml:space="preserve">
<style type="text/css">
	.st0{fill:#FFFFFF;}
	.st1{opacity:0.5;fill:#FFFFFF;enable-background:new    ;}
</style>
<g id="basic">
	<path class="st0" d="M33.4,22.4h-17c-1.5,0-2.7-1.3-2.7-2.9l1.2-10.1c0-1.6,1.2-2.9,2.7-2.9h14.6c1.5,0,2.7,1.3,2.7,2.9l1.2,10.1
		C36.1,21.1,34.9,22.4,33.4,22.4z"/>
	<path class="st0" d="M21.2,40.6H4.1c-1.5,0-2.7-1.3-2.7-2.9l1.2-10.1c0-1.6,1.2-2.9,2.7-2.9H20c1.5,0,2.7,1.3,2.7,2.9l1.2,10.1
		C23.9,39.3,22.7,40.6,21.2,40.6z"/>
	<path class="st1" d="M45.6,40.6h-17c-1.5,0-2.7-1.3-2.7-2.9l1.2-10.1c0-1.6,1.2-2.9,2.7-2.9h14.6c1.5,0,2.7,1.3,2.7,2.9l1.2,10.1
		C48.3,39.3,47.1,40.6,45.6,40.6z"/>
</g>
</svg>
