<?xml version="1.0" encoding="utf-8"?>
<!-- Generator: Adobe Illustrator 23.0.0, SVG Export Plug-In . SVG Version: 6.00 Build 0)  -->
<svg version="1.1" id="Layer_1" xmlns="http://www.w3.org/2000/svg" xmlns:xlink="http://www.w3.org/1999/xlink" x="0px" y="0px"
	 viewBox="0 0 50 50" style="enable-background:new 0 0 50 50;" xml:space="preserve">
<style type="text/css">
	.st0{opacity:0.5;fill:#FFFFFF;enable-background:new    ;}
	.st1{fill:#FFFFFF;}
</style>
<g id="toggle_x5F_2">
	<path class="st0" d="M38.5,43.6l-32-32C5,10.1,5,7.8,6.4,6.4l0,0c1.4-1.4,3.7-1.4,5.1,0l32,32c1.4,1.4,1.4,3.7,0,5.1l0,0
		C42.2,45,39.9,45,38.5,43.6z"/>
	<path class="st1" d="M11.5,43.6l32-32c1.4-1.4,1.4-3.7,0-5.1l0,0c-1.4-1.4-3.7-1.4-5.1,0l-32,32c-1.4,1.4-1.4,3.7,0,5.1l0,0
		C7.8,45,10.1,45,11.5,43.6z"/>
</g>
</svg>
