<?xml version="1.0" encoding="utf-8"?>
<!-- Generator: Adobe Illustrator 24.1.1, SVG Export Plug-In . SVG Version: 6.00 Build 0)  -->
<svg version="1.1" id="Layer_1" xmlns="http://www.w3.org/2000/svg" xmlns:xlink="http://www.w3.org/1999/xlink" x="0px" y="0px"
	 viewBox="0 0 512 512" style="enable-background:new 0 0 512 512;" xml:space="preserve">
<style type="text/css">
	.st0{fill:#FFFFFF;}
</style>
<path class="st0" d="M464.9,192.8H454c-3.5-11.1-8-21.8-13.3-32.1l7.7-7.7c18.7-18.6,18.2-48.5,0-66.7l-22.7-22.7
	c-18.1-18.2-48-18.7-66.7,0l-7.7,7.7c-10.3-5.3-21-9.8-32.1-13.3V47.1c0-26-21.1-47.1-47.1-47.1h-32.1c-26,0-47.1,21.1-47.1,47.1V58
	c-11,3.5-21.8,8-32.1,13.3l-7.7-7.7c-18.6-18.6-48.5-18.2-66.7,0L63.6,86.3c-18.2,18.1-18.7,48,0,66.7l7.7,7.7
	c-5.3,10.3-9.8,21-13.3,32.1H47.1c-26,0-47.1,21.1-47.1,47.1v32.1c0,26,21.1,47.1,47.1,47.1H58c3.5,11,8,21.8,13.3,32.1l-7.7,7.7
	c-18.7,18.6-18.2,48.5,0,66.7l22.7,22.7c18.1,18.2,48,18.7,66.7,0l7.7-7.7c10.3,5.3,21,9.8,32.1,13.3v10.9c0,26,21.1,47.1,47.1,47.1
	h32.1c26,0,47.1-21.1,47.1-47.1V454c11-3.5,21.8-8,32.1-13.3l7.7,7.7c18.6,18.6,48.5,18.2,66.7,0l22.7-22.7
	c18.2-18.1,18.7-48,0-66.7l-7.7-7.7c5.3-10.3,9.8-21,13.3-32.1h10.9c26,0,47.1-21.1,47.1-47.1v-32.1
	C512,213.9,490.9,192.8,464.9,192.8L464.9,192.8z M256,367.4c-61.4,0-111.4-50-111.4-111.4s50-111.4,111.4-111.4
	s111.4,50,111.4,111.4S317.4,367.4,256,367.4z"/>
</svg>
