<?xml version="1.0" encoding="utf-8"?>
<!-- Generator: Adobe Illustrator 24.1.1, SVG Export Plug-In . SVG Version: 6.00 Build 0)  -->
<svg version="1.1" id="Capa_1" xmlns="http://www.w3.org/2000/svg" xmlns:xlink="http://www.w3.org/1999/xlink" x="0px" y="0px"
	 viewBox="0 0 407.8 407.8" style="enable-background:new 0 0 407.8 407.8;" xml:space="preserve">
<style type="text/css">
	.st0{fill:#FFFFFF;}
	.st1{opacity:0.5;fill:#FFFFFF;}
</style>
<g>
	<g>
		<path class="st0" d="M182.5,298.7c-4.9,0-9.8-1.9-13.6-5.6L60.9,185c-7.5-7.5-7.5-19.7,0-27.2c7.5-7.5,19.7-7.5,27.2,0l94.5,94.5
			l151.4-151.4V51.3c0-8-6.4-14.4-14.4-14.4H14.4C6.5,36.9,0,43.4,0,51.3v305.1c0,8,6.5,14.4,14.4,14.4h305.1
			c8,0,14.4-6.5,14.4-14.4V155.3L196.1,293.1C192.4,296.9,187.5,298.7,182.5,298.7z"/>
		<path class="st1" d="M402.1,59.9c-7.5-7.5-19.7-7.5-27.2,0l-41,41v54.4l68.2-68.2C409.6,79.6,409.6,67.5,402.1,59.9z"/>
	</g>
</g>
</svg>
