<?xml version="1.0" encoding="utf-8"?>
<!-- Generator: Adobe Illustrator 24.1.1, SVG Export Plug-In . SVG Version: 6.00 Build 0)  -->
<svg version="1.1" id="Layer_1" xmlns="http://www.w3.org/2000/svg" xmlns:xlink="http://www.w3.org/1999/xlink" x="0px" y="0px"
	 viewBox="0 0 407 407" style="enable-background:new 0 0 407 407;" xml:space="preserve">
<style type="text/css">
	.st0{opacity:0.5;fill:#FFFFFF;}
	.st1{fill:#FFFFFF;}
</style>
<path class="st0" d="M137.2,37c0-12.1,9.5-21,21.6-21h88.8c12.1,0,21.6,8.9,21.6,21v23h16V37c0-21-16.6-37-37.6-37h-88.8
	c-21,0-37.6,16-37.6,37v23h16V37z"/>
<path class="st1" d="M108.6,407h189.2c18.2,0,32.4-16,32.4-36V124h-254v247C76.2,391,90.4,407,108.6,407z M254.2,162.2
	c0-4.4,3.6-8,8-8s8,3.6,8,8v189c0,4.4-3.6,8-8,8s-8-3.6-8-8V162.2z M195.2,162.2c0-4.4,3.6-8,8-8s8,3.6,8,8v189c0,4.4-3.6,8-8,8
	s-8-3.6-8-8V162.2z M136.2,162.2c0-4.4,3.6-8,8-8s8,3.6,8,8v189c0,4.4-3.6,8-8,8s-8-3.6-8-8V162.2z"/>
<path class="st0" d="M68,108h270.4c11,0,20-9,20-20s-9-20-20-20H68c-11,0-20,9-20,20S57,108,68,108z"/>
</svg>
