<?xml version="1.0" encoding="utf-8"?>
<!-- Generator: Adobe Illustrator 23.0.0, SVG Export Plug-In . SVG Version: 6.00 Build 0)  -->
<svg version="1.1" id="Layer_1" xmlns="http://www.w3.org/2000/svg" xmlns:xlink="http://www.w3.org/1999/xlink" x="0px" y="0px"
	 viewBox="0 0 50 50" style="enable-background:new 0 0 50 50;" xml:space="preserve">
<style type="text/css">
	.st0{fill:#FFFFFF;}
	.st1{opacity:0.5;fill:#FFFFFF;enable-background:new    ;}
</style>
<g id="ecommerce">
	<path class="st0" d="M42.1,15.6h-6.4l-6-10.4c-0.5-0.8-1.5-1.1-2.3-0.6l-0.2,0.1C26.3,5.1,26,6.2,26.5,7l5,8.6H17.7l5-8.6
		c0.5-0.8,0.2-1.8-0.6-2.3l-0.2-0.1C21,4.1,20,4.3,19.5,5.1l-6,10.4H7.7c-1.6,0-2.9,1.3-2.9,2.9L8,40.7c0,1.6,1.3,2.9,2.9,2.9h28
		c1.6,0,2.9-1.3,2.9-2.9L45,18.5C45,16.9,43.7,15.6,42.1,15.6z M36.5,36.8c0,0.9-0.8,1.7-1.7,1.7H14.4c-0.9,0-1.7-0.8-1.7-1.7v-0.3
		c0-0.9,0.8-1.7,1.7-1.7h20.4c0.9,0,1.7,0.8,1.7,1.7V36.8z M37.9,30.6c0,0.9-0.8,1.7-1.7,1.7H13c-0.9,0-1.7-0.8-1.7-1.7v-0.3
		c0-0.9,0.8-1.7,1.7-1.7h23.3c0.9,0,1.7,0.8,1.7,1.7L37.9,30.6L37.9,30.6z M39.8,24.4c0,0.9-0.8,1.7-1.7,1.7h-27
		c-0.9,0-1.7-0.8-1.7-1.7v-0.3c0-0.9,0.8-1.7,1.7-1.7h27c0.9,0,1.7,0.8,1.7,1.7V24.4z"/>
	<path class="st1" d="M38.1,26.1h-27c-0.9,0-1.7-0.8-1.7-1.7v-0.3c0-0.9,0.8-1.7,1.7-1.7h27c0.9,0,1.7,0.8,1.7,1.7v0.3
		C39.8,25.3,39,26.1,38.1,26.1z"/>
	<path class="st1" d="M36.2,32.3H13c-0.9,0-1.7-0.8-1.7-1.7v-0.3c0-0.9,0.8-1.7,1.7-1.7h23.3c0.9,0,1.7,0.8,1.7,1.7v0.3
		C37.9,31.5,37.2,32.3,36.2,32.3z"/>
	<path class="st1" d="M34.8,38.5H14.4c-0.9,0-1.7-0.8-1.7-1.7v-0.3c0-0.9,0.8-1.7,1.7-1.7h20.4c0.9,0,1.7,0.8,1.7,1.7v0.3
		C36.5,37.8,35.7,38.5,34.8,38.5z"/>
</g>
</svg>
