<?xml version="1.0" encoding="utf-8"?>
<!-- Generator: Adobe Illustrator 24.1.1, SVG Export Plug-In . SVG Version: 6.00 Build 0)  -->
<svg version="1.1" id="Layer_1" xmlns="http://www.w3.org/2000/svg" xmlns:xlink="http://www.w3.org/1999/xlink" x="0px" y="0px"
	 viewBox="0 0 512 512" style="enable-background:new 0 0 512 512;" xml:space="preserve">
<style type="text/css">
	.st0{fill:#FFFFFF;}
	.st1{opacity:0.5;}
</style>
<g>
	<g>
		<path class="st0" d="M250.4,33.4H97C90.1,14,71.8,0,50,0C22.4,0,0,22.5,0,50.1v411.8C0,489.5,22.4,512,50,512s50.1-22.5,50.1-50.1
			V300.5h150.3c27.6,0,50.1-22.5,50.1-50.1v-167C300.5,55.9,278,33.4,250.4,33.4z M66.8,461.9c0,9.2-7.6,16.7-16.8,16.7
			s-16.7-7.5-16.7-16.7V50.1c0-9.2,7.5-16.7,16.7-16.7s16.8,7.5,16.8,16.7V461.9z"/>
	</g>
</g>
<g class="st1">
	<g>
		<path class="st0" d="M417.1,233.7l90.9-106c9.3-10.8,1.6-27.6-12.7-27.6H334v150.3c0,46-37.6,83.5-83.6,83.5h-47
			c6.9,19.4,25.3,33.4,47,33.4h244.9c14.2,0,21.9-16.8,12.7-27.6L417.1,233.7z"/>
	</g>
</g>
</svg>
