<?xml version="1.0" encoding="utf-8"?>
<!-- Generator: Adobe Illustrator 23.0.0, SVG Export Plug-In . SVG Version: 6.00 Build 0)  -->
<svg version="1.1" id="Layer_1" xmlns="http://www.w3.org/2000/svg" xmlns:xlink="http://www.w3.org/1999/xlink" x="0px" y="0px"
	 viewBox="0 0 50 50" style="enable-background:new 0 0 50 50;" xml:space="preserve">
<style type="text/css">
	.st0{fill:#FFFFFF;}
	.st1{opacity:0.5;fill:#FFFFFF;enable-background:new    ;}
</style>
<g id="form_elements">
	<path class="st0" d="M33.5,15.4c0,0-3.4,0-3.4-3.2s0-9.4,0-9.4H11.7C9.7,2.8,8,4.4,8,6.2v37.3c0,1.9,1.6,3.4,3.7,3.4h26.8
		c2,0,3.7-1.5,3.7-3.4V15.4H33.5z M16.5,40c-1,0-1.9-0.9-1.9-1.9s0.8-1.9,1.9-1.9s1.9,0.8,1.9,1.9S17.6,40,16.5,40z M16.5,34.1
		c-1,0-1.9-0.8-1.9-1.9c0-1,0.8-1.9,1.9-1.9s1.9,0.8,1.9,1.9C18.4,33.3,17.6,34.1,16.5,34.1z M16.5,28.5c-1,0-1.9-0.8-1.9-1.9
		c0-1,0.8-1.9,1.9-1.9s1.9,0.8,1.9,1.9C18.4,27.6,17.6,28.5,16.5,28.5z M36.7,38.3c0,0.9-0.8,1.7-1.7,1.7H21.6
		c-0.9,0-1.7-0.8-1.7-1.7V38c0-0.9,0.8-1.7,1.7-1.7H35c0.9,0,1.7,0.8,1.7,1.7V38.3z M36.7,32.3c0,0.9-0.8,1.7-1.7,1.7H21.6
		c-0.9,0-1.7-0.8-1.7-1.7V32c0-0.9,0.8-1.7,1.7-1.7H35c0.9,0,1.7,0.8,1.7,1.7V32.3z M36.7,26.7c0,0.9-0.8,1.7-1.7,1.7H21.6
		c-0.9,0-1.7-0.8-1.7-1.7v-0.3c0-0.9,0.8-1.7,1.7-1.7H35c0.9,0,1.7,0.8,1.7,1.7V26.7z"/>
	<path class="st1" d="M42.2,15.4h-8.6c-2.4,0-3.5-1.5-3.5-3.3V3c0-0.1,0-0.1,0-0.2"/>
</g>
</svg>
