<?xml version="1.0" encoding="utf-8"?>
<!-- Generator: Adobe Illustrator 24.1.0, SVG Export Plug-In . SVG Version: 6.00 Build 0)  -->
<svg version="1.1" id="Layer_1" xmlns="http://www.w3.org/2000/svg" xmlns:xlink="http://www.w3.org/1999/xlink" x="0px" y="0px"
	 viewBox="0 0 512 512" style="enable-background:new 0 0 512 512;" xml:space="preserve">
<style type="text/css">
	.st0{fill:#FFFFFF;}
	.st1{opacity:0.5;fill:#FFFFFF;}
</style>
<g>
	<path class="st0" d="M21.3,170.7C9.5,170.7,0,161.1,0,149.3V64C0,28.7,28.7,0,64,0h85.3c11.8,0,21.3,9.6,21.3,21.3
		c0,11.8-9.5,21.3-21.3,21.3H64c-11.8,0-21.3,9.6-21.3,21.3v85.3C42.7,161.1,33.1,170.7,21.3,170.7z"/>
	<path class="st0" d="M448,512h-85.3c-11.8,0-21.3-9.6-21.3-21.3c0-11.8,9.5-21.3,21.3-21.3H448c11.8,0,21.3-9.6,21.3-21.3v-85.3
		c0-11.8,9.5-21.3,21.3-21.3s21.3,9.6,21.3,21.3V448C512,483.3,483.3,512,448,512z"/>
	<path class="st0" d="M149.3,512H64c-35.3,0-64-28.7-64-64v-85.3c0-11.8,9.5-21.3,21.3-21.3s21.3,9.6,21.3,21.3V448
		c0,11.8,9.6,21.3,21.3,21.3h85.3c11.8,0,21.3,9.6,21.3,21.3C170.7,502.4,161.1,512,149.3,512z"/>
	<path class="st0" d="M490.7,170.7c-11.8,0-21.3-9.6-21.3-21.3V64c0-11.8-9.6-21.3-21.3-21.3h-85.3c-11.8,0-21.3-9.6-21.3-21.3
		c0-11.8,9.5-21.3,21.3-21.3H448c35.3,0,64,28.7,64,64v85.3C512,161.1,502.5,170.7,490.7,170.7z"/>
</g>
<path class="st1" d="M308.8,169H203.2c-18.9,0-34.2,15.3-34.2,34.2v105.6c0,18.9,15.3,34.2,34.2,34.2h105.6
	c18.9,0,34.2-15.3,34.2-34.2V203.2C343,184.3,327.7,169,308.8,169z"/>
</svg>
