<?xml version="1.0" encoding="utf-8"?>
<!-- Generator: Adobe Illustrator 24.1.1, SVG Export Plug-In . SVG Version: 6.00 Build 0)  -->
<svg version="1.1" id="Layer_1" xmlns="http://www.w3.org/2000/svg" xmlns:xlink="http://www.w3.org/1999/xlink" x="0px" y="0px"
	 viewBox="0 0 512 512" style="enable-background:new 0 0 512 512;" xml:space="preserve">
<style type="text/css">
	.st0{fill:#FFFFFF;}
</style>
<path class="st0" d="M256,0C114.8,0,0,114.8,0,256s114.8,256,256,256s256-114.8,256-256S397.2,0,256,0z M256,106.7
	c11.8,0,21.3,9.6,21.3,21.3s-9.6,21.3-21.3,21.3s-21.3-9.6-21.3-21.3S244.2,106.7,256,106.7z M304,405.3h-96
	c-11.8,0-21.3-9.6-21.3-21.3s9.5-21.3,21.3-21.3h26.7v-128h-16c-11.8,0-21.3-9.6-21.3-21.3c0-11.8,9.5-21.3,21.3-21.3H256
	c11.8,0,21.3,9.6,21.3,21.3v149.3H304c11.8,0,21.3,9.6,21.3,21.3S315.8,405.3,304,405.3z"/>
</svg>
