<?xml version="1.0" encoding="utf-8"?>
<!-- Generator: Adobe Illustrator 23.0.0, SVG Export Plug-In . SVG Version: 6.00 Build 0)  -->
<svg version="1.1" id="Layer_1" xmlns="http://www.w3.org/2000/svg" xmlns:xlink="http://www.w3.org/1999/xlink" x="0px" y="0px"
	 viewBox="0 0 50 50" style="enable-background:new 0 0 50 50;" xml:space="preserve">
<style type="text/css">
	.st0{fill:#FFFFFF;}
	.st1{opacity:0.5;fill:#FFFFFF;enable-background:new    ;}
</style>
<g id="maps">
	<path class="st0" d="M25,4.5C13.7,4.5,4.5,13.7,4.5,25S13.7,45.5,25,45.5S45.5,36.3,45.5,25S36.3,4.5,25,4.5z M25,8
		c1.2,0,2.1,1,2.1,2.1s-1,2.1-2.1,2.1s-2.1-1-2.1-2.1S23.8,8,25,8z M10,27.3c-1.2,0-2.1-1-2.1-2.1c0-1.2,1-2.1,2.1-2.1
		c1.2,0,2.1,1,2.1,2.1C12.1,26.4,11.2,27.3,10,27.3z M25,42.3c-1.2,0-2.1-1-2.1-2.1s1-2.1,2.1-2.1s2.1,1,2.1,2.1S26.2,42.3,25,42.3z
		 M11.9,38.1l9.7-16.6l16.6-9.7l-9.7,16.6L11.9,38.1z M40,27.3c-1.2,0-2.1-1-2.1-2.1c0-1.2,1-2.1,2.1-2.1s2.1,1,2.1,2.1
		C42.1,26.4,41.2,27.3,40,27.3z"/>
	<polygon class="st1" points="38.1,11.9 28.4,28.4 11.9,38.1 21.6,21.6 	"/>
	<path class="st1" d="M42.1,25.2c0,1.2-1,2.1-2.1,2.1s-2.1-1-2.1-2.1c0-1.2,1-2.1,2.1-2.1S42.1,24,42.1,25.2z"/>
	<path class="st1" d="M22.9,10.2C22.9,9,23.8,8,25,8s2.1,1,2.1,2.1s-1,2.1-2.1,2.1S22.9,11.4,22.9,10.2z"/>
	<path class="st1" d="M27.1,40.2c0,1.2-1,2.1-2.1,2.1s-2.1-1-2.1-2.1s1-2.1,2.1-2.1S27.1,39,27.1,40.2z"/>
	<path class="st1" d="M12.1,25.2c0,1.2-1,2.1-2.1,2.1c-1.2,0-2.1-1-2.1-2.1c0-1.2,1-2.1,2.1-2.1C11.2,23,12.1,24,12.1,25.2z"/>
</g>
</svg>
