<?xml version="1.0" encoding="utf-8"?>
<!-- Generator: Adobe Illustrator 24.1.1, SVG Export Plug-In . SVG Version: 6.00 Build 0)  -->
<svg version="1.1" id="Capa_1" xmlns="http://www.w3.org/2000/svg" xmlns:xlink="http://www.w3.org/1999/xlink" x="0px" y="0px"
	 viewBox="0 0 435.2 435.2" style="enable-background:new 0 0 435.2 435.2;" xml:space="preserve">
<style type="text/css">
	.st0{fill:#FFFFFF;}
	.st1{opacity:0.5;}
</style>
<g>
	<g>
		<path class="st0" d="M356.9,224.8c0-8.7-6.7-15.4-15.4-15.4s-15.4,6.7-15.4,15.4c0,59.9-48.6,108.5-108.5,108.5
			s-108.5-48.6-108.5-108.5c0-8.7-6.7-15.4-15.4-15.4s-15.4,6.7-15.4,15.4c0,71.2,53.2,131.1,123.9,138.8v41h-55.8
			c-8.7,0-15.4,6.7-15.4,15.4s6.7,15.4,15.4,15.4h142.3c8.7,0,15.4-6.7,15.4-15.4s-6.7-15.4-15.4-15.4H233v-41
			C303.6,355.8,356.9,295.9,356.9,224.8z"/>
	</g>
</g>
<g class="st1">
	<g>
		<path class="st0" d="M217.6,0c-47.1,0-85.5,38.4-85.5,85.5v138.8c0,47.6,38.4,85.5,85.5,86c47.1,0,85.5-38.4,85.5-85.5V85.5
			C303.1,38.4,264.7,0,217.6,0z"/>
	</g>
</g>
</svg>
