<?xml version="1.0" encoding="utf-8"?>
<!-- Generator: Adobe Illustrator 24.1.0, SVG Export Plug-In . SVG Version: 6.00 Build 0)  -->
<svg version="1.1" id="Layer_1" xmlns="http://www.w3.org/2000/svg" xmlns:xlink="http://www.w3.org/1999/xlink" x="0px" y="0px"
	 viewBox="0 0 512 512" style="enable-background:new 0 0 512 512;" xml:space="preserve">
<style type="text/css">
	.st0{opacity:0.5;fill:#FFFFFF;}
</style>
<path class="st0" d="M496.1,321.5l-151-242C325.8,48.5,292.5,30,256,30s-69.8,18.5-89.1,49.5l-151,242C5.5,338.1,0,357.3,0,377
	c0,57.9,47.1,105,105,105h302c57.9,0,105-47.1,105-105C512,357.3,506.5,338.1,496.1,321.5z M407,452H105c-41.4,0-75-33.6-75-75
	c0-14.1,3.9-27.8,11.3-39.6l151-242C206.1,73.2,229.9,60,256,60s49.9,13.2,63.7,35.4l151,242c7.4,11.9,11.3,25.6,11.3,39.6
	C482,418.4,448.4,452,407,452z"/>
<path class="st0" d="M294.2,111.2C285.9,97.9,271.6,90,256,90s-29.9,7.9-38.2,21.2l-151,242c-4.4,7.1-6.8,15.3-6.8,23.8
	c0,24.8,20.2,45,45,45h302c24.8,0,45-20.2,45-45c0-8.4-2.3-16.7-6.8-23.8L294.2,111.2z M271,361h-30v-30h30V361z M271,301h-30V195
	h30V301z"/>
</svg>
