<?xml version="1.0" encoding="utf-8"?>
<!-- Generator: Adobe Illustrator 23.0.0, SVG Export Plug-In . SVG Version: 6.00 Build 0)  -->
<svg version="1.1" id="Layer_1" xmlns="http://www.w3.org/2000/svg" xmlns:xlink="http://www.w3.org/1999/xlink" x="0px" y="0px"
	 viewBox="0 0 50 50" style="enable-background:new 0 0 50 50;" xml:space="preserve">
<style type="text/css">
	.st0{fill:#FFFFFF;}
	.st1{opacity:0.5;fill:#FFFFFF;enable-background:new    ;}
</style>
<g id="notifications">
	<path class="st0" d="M40.5,36.8h-31c-2.6,0-4.1-1.1-2.9-2.9l5-7.2c0.8-1.2,1.5-2.3,2.6-2.7V13.5c0-5.6,4.6-10.2,10.2-10.2h1.1
		c5.6,0,10.1,4.6,10.1,10.2v10.4c1.1,0.4,1.9,1.6,2.6,2.8l5,7.2C44.6,35.7,43.1,36.8,40.5,36.8z"/>
	<path class="st1" d="M33.1,38.8c0,4.4-3.6,8-8,8s-8-3.6-8-8"/>
</g>
</svg>
