<?xml version="1.0" encoding="utf-8"?>
<!-- Generator: Adobe Illustrator 23.0.0, SVG Export Plug-In . SVG Version: 6.00 Build 0)  -->
<svg version="1.1" id="Layer_1" xmlns="http://www.w3.org/2000/svg" xmlns:xlink="http://www.w3.org/1999/xlink" x="0px" y="0px"
	 viewBox="0 0 50 50" style="enable-background:new 0 0 50 50;" xml:space="preserve">
<style type="text/css">
	.st0{fill:#FFFFFF;}
	.st1{opacity:0.5;fill:#FFFFFF;enable-background:new    ;}
</style>
<g id="pages">
	<path class="st0" d="M42.4,15.1v19.2c0,3.1-2.6,5.7-5.7,5.7H19.6c-4.5,0-5.7-1.9-5.7-5.7V8.5c0-3.1,2.6-5.7,5.7-5.7h11.7V12
		c0,0-0.1,3.2,3.2,3.2C37.9,15.1,42.4,15.1,42.4,15.1"/>
	<path class="st1" d="M35,41.6c0,3.1-2.6,5.7-5.7,5.7H12.2c-3.1,0-5.7-2.6-5.7-5.7V15.7c0-3.1,2.6-5.7,5.7-5.7v26.8
		c0,0,0,4.8,4.8,4.8C22.2,41.6,35,41.6,35,41.6z"/>
	<path class="st1" d="M42.4,15.1c0,0-3.9,0-7.5,0c-4,0-3.5-3.5-3.5-3.5V2.8"/>
</g>
</svg>
