<?xml version="1.0" encoding="utf-8"?>
<!-- Generator: Adobe Illustrator 24.1.1, SVG Export Plug-In . SVG Version: 6.00 Build 0)  -->
<svg version="1.1" id="Capa_1" xmlns="http://www.w3.org/2000/svg" xmlns:xlink="http://www.w3.org/1999/xlink" x="0px" y="0px"
	 viewBox="0 0 512 512" style="enable-background:new 0 0 512 512;" xml:space="preserve">
<style type="text/css">
	.st0{opacity:0.5;}
	.st1{fill:#FFFFFF;}
</style>
<g class="st0">
	<g>
		<path class="st1" d="M498.8,377.8l-63.6-63.6c-17-17-46.6-17-63.6,0l-10.6,10.6L488.2,452l10.6-10.6
			C516.4,423.8,516.4,395.3,498.8,377.8z"/>
	</g>
</g>
<g>
	<g>
		<path class="st1" d="M339.1,345.4c-13.4,10.4-32.5,10-44.7-2.3L168.6,217.2c-12.3-12.3-12.7-31.4-2.3-44.7l-127-127
			c-54.6,63.7-52.5,159.6,7.8,219.9l199.1,199.2c57.9,57.9,152.6,65.5,219.9,7.8L339.1,345.4z"/>
	</g>
</g>
<g class="st0">
	<g>
		<path class="st1" d="M197.5,76.4l-63.6-63.6c-17-17-46.6-17-63.6,0L59.6,23.4l127.3,127.3l10.6-10.6
			C215.1,122.4,215.1,93.9,197.5,76.4z"/>
	</g>
</g>
</svg>
