<?xml version="1.0" encoding="iso-8859-1"?>
<!-- Generator: Adobe Illustrator 18.0.0, SVG Export Plug-In . SVG Version: 6.00 Build 0)  -->
<!DOCTYPE svg PUBLIC "-//W3C//DTD SVG 1.1//EN" "http://www.w3.org/Graphics/SVG/1.1/DTD/svg11.dtd">
<svg version="1.1" id="Capa_1" xmlns="http://www.w3.org/2000/svg" xmlns:xlink="http://www.w3.org/1999/xlink" x="0px" y="0px"
	 viewBox="0 0 58 58" style="enable-background:new 0 0 58 58;" xml:space="preserve">
<g>
	<path style="fill:#E6E6E6;" d="M38,3c-1.65,0-3,1.35-3,3V4c0-2.2-1.8-4-4-4s-4,0.8-4,3v1c0-1.65-1.35-3-3-3c-3.21,0-3,3.35-3,5V5
		c-0.366-1.656-1.063-2.063-2.228-2C17.125,3.088,16,4.35,16,6v5c0,1.65,1.122,3,2.772,3c0,0,0.001,0,0.001,0
		c-0.012-3.263,0.239-5,0.239-5l3.119,0.58c2.196,0.408,4.417,0.636,6.641,0.704V14c0,1.65,1.35,3,3,3s3-1.35,3-3v-3.944
		c0.89-0.096,1.778-0.208,2.663-0.359L41.533,9c0,0,0.202,1.403,0.235,4.05c0-0.017,0.005-0.033,0.005-0.05L42,6
		C42,4.35,39.65,3,38,3z"/>
	<path style="fill:#F4C44E;" d="M38.533,37c4.5-17.667,3-28,3-28l-4.097,0.697c-0.884,0.15-1.773,0.263-2.663,0.359V14
		c0,1.65-1.35,3-3,3s-3-1.35-3-3v-3.716c-2.224-0.068-4.445-0.296-6.641-0.704L19.012,9c0,0-1.5,10.333,3,28
		c0,0,2.272,11.728-0.401,17.035c-0.471,0.934-0.185,2.091,0.75,2.561c0.528,0.266,1.257,0.537,2.26,0.79
		C26.341,57.819,28.114,58,29.887,58h0.771c1.773,0,3.546-0.181,5.266-0.614c1.003-0.253,1.732-0.524,2.26-0.79
		c0.935-0.47,1.221-1.626,0.75-2.561C36.26,48.728,38.533,37,38.533,37z"/>
	<path style="fill:#E6E400;" d="M36,31.5c0,4.694-2.462,11.5-5.5,11.5S25,36.194,25,31.5S27.462,21,30.5,21S36,26.806,36,31.5z"/>
	<path style="fill:#E6E400;" d="M29.764,52.542h0.816c2.027,0,3.945-0.225,5.741-0.677c0.606-0.153,1.214-0.309,1.747-0.469
		c-0.066-0.322-0.126-0.651-0.175-0.988c-0.541,0.166-1.216,0.336-1.857,0.498c-1.675,0.422-3.511,0.636-5.456,0.636h-0.816
		c-1.944,0-3.78-0.214-5.455-0.636c-0.671-0.169-1.216-0.328-1.659-0.479c-0.05,0.34-0.111,0.672-0.179,0.997
		c0.441,0.144,0.97,0.293,1.594,0.45C25.819,52.317,27.737,52.542,29.764,52.542z"/>
</g>
<g>
</g>
<g>
</g>
<g>
</g>
<g>
</g>
<g>
</g>
<g>
</g>
<g>
</g>
<g>
</g>
<g>
</g>
<g>
</g>
<g>
</g>
<g>
</g>
<g>
</g>
<g>
</g>
<g>
</g>
</svg>
