<?xml version="1.0" encoding="iso-8859-1"?>
<!-- Generator: Adobe Illustrator 19.0.0, SVG Export Plug-In . SVG Version: 6.00 Build 0)  -->
<svg version="1.1" id="Capa_1" xmlns="http://www.w3.org/2000/svg" xmlns:xlink="http://www.w3.org/1999/xlink" x="0px" y="0px"
	 viewBox="0 0 408.04 408.04" style="enable-background:new 0 0 408.04 408.04;" xml:space="preserve">
<g>
	<path style="fill:#00EFD1;" d="M357.878,164.83c-4.103-19.412-11.526-37.97-21.943-54.857l24.033-33.437l-38.661-38.661
		l-33.437,24.033c-16.802-10.584-35.391-18.02-54.857-21.943L226.22,0.259h-53.812l-6.792,39.706
		c-19.526,4.003-38.132,11.623-54.857,22.465L77.322,38.92L38.139,77.581l23.51,33.437c-10.584,16.802-18.02,35.391-21.943,54.857
		L0,172.667v53.812l39.706,6.792c4.003,19.526,11.623,38.132,22.465,54.857l-23.51,33.437l38.661,39.184l33.437-23.51
		c16.86,10.249,35.451,17.332,54.857,20.898l6.792,39.184h53.812l2.612-12.539l1.567-1.567l-38.661-97.176h-0.522
		c-47.987-4.376-83.341-46.826-78.964-94.813c3.914-42.911,38.567-76.539,81.576-79.163c47.661-3.031,89.093,32.383,93.518,79.935
		l0,0l94.563,37.094l15.151-3.135v-54.335L357.878,164.83z"/>
	<path style="fill:#00ACEA;" d="M381.91,228.569c17.117,19.479,26.422,44.602,26.122,70.531
		c0,60.016-48.653,108.669-108.669,108.669l0,0c-59.144,0.884-107.807-46.345-108.691-105.489
		c-0.084-5.607,0.273-11.213,1.067-16.764c6.319-49.278,45.251-87.995,94.563-94.041l13.061-1.045
		C331.178,190.252,361.425,204.226,381.91,228.569z"/>
	<path style="fill:#D4E1F4;" d="M276.898,344.552c-3.547-0.04-6.855-1.791-8.882-4.702l-31.347-47.02
		c-2.957-4.943-1.588-11.331,3.135-14.629c4.805-3.195,11.291-1.89,14.487,2.915c0.048,0.073,0.096,0.146,0.142,0.219l25.6,38.139
		l69.486-46.498c4.805-3.195,11.291-1.89,14.487,2.915c0.048,0.073,0.096,0.146,0.142,0.219c2.899,4.783,1.517,11.001-3.135,14.106
		l-78.367,52.245C281.091,343.909,279.018,344.663,276.898,344.552z"/>
</g>
<g>
</g>
<g>
</g>
<g>
</g>
<g>
</g>
<g>
</g>
<g>
</g>
<g>
</g>
<g>
</g>
<g>
</g>
<g>
</g>
<g>
</g>
<g>
</g>
<g>
</g>
<g>
</g>
<g>
</g>
</svg>
