<?xml version="1.0" encoding="utf-8"?>
<!-- Generator: Adobe Illustrator 25.4.1, SVG Export Plug-In . SVG Version: 6.00 Build 0)  -->
<svg version="1.1" id="Layer_1" xmlns="http://www.w3.org/2000/svg" xmlns:xlink="http://www.w3.org/1999/xlink" x="0px" y="0px"
	 viewBox="0 0 2895.8 2794.7" style="enable-background:new 0 0 2895.8 2794.7;" xml:space="preserve">
<style type="text/css">
	.st0{fill:#F4F7FA;}
	
		.st1{clip-path:url(#SVGID_00000133523191346753931630000013784595677039924365_);fill:url(#SVGID_00000065771603945830764160000004434474889791557517_);}
	.st2{opacity:0.5;clip-path:url(#SVGID_00000133523191346753931630000013784595677039924365_);}
	.st3{fill:#BEB8F2;}
	.st4{fill:url(#SVGID_00000096772245698030394320000000423434765985505705_);}
	.st5{opacity:0.5;clip-path:url(#SVGID_00000005266841079478262430000015318046951157675960_);}
	.st6{fill:#FCFDFE;}
	.st7{fill:url(#SVGID_00000181801559422069408450000009679686518796205467_);}
	.st8{opacity:0.5;clip-path:url(#SVGID_00000089565354324132228860000015877380436783032708_);}
	.st9{fill:#BFC8D6;}
	.st10{fill:#FFFFFF;}
	.st11{fill:#D8DEE8;}
	.st12{opacity:0.48;fill:#FFFFFF;}
	.st13{fill:url(#SVGID_00000070097027426063606320000008876616709298015115_);}
	.st14{fill:url(#SVGID_00000095300568798433808280000015765811561491583907_);}
	.st15{fill:url(#SVGID_00000008147137903369940130000017472838306418331037_);}
	.st16{fill:url(#SVGID_00000096057432589856023400000009131090430949411201_);}
	.st17{opacity:0.3;fill:#BFC8D6;}
	.st18{fill:url(#SVGID_00000078006769747168041960000003115386050837985692_);}
	.st19{fill:url(#SVGID_00000093146129201215424430000017982843576264484261_);}
	.st20{fill:url(#SVGID_00000001659371426353299750000003973401592880105131_);}
	.st21{fill:#FCB048;}
	.st22{fill:url(#SVGID_00000134954024808977803600000005597314015948916614_);}
	.st23{fill:url(#SVGID_00000178180531776589746840000009720725174144462747_);}
	.st24{fill:url(#SVGID_00000175324524552991421160000007884062997446457491_);}
	.st25{fill:url(#SVGID_00000007429635413087655430000012861258836710439826_);}
	.st26{fill:url(#SVGID_00000000207488262275569040000014606253812081665471_);}
	.st27{fill:url(#SVGID_00000054966670678077706120000005174914431166021000_);}
	.st28{fill:url(#SVGID_00000176765089770657793500000018170824382560252863_);}
	.st29{fill:url(#SVGID_00000083783310622602557220000002444766117284957322_);}
	.st30{fill:url(#SVGID_00000114763272611157893440000010687383565077204367_);}
	.st31{fill:url(#SVGID_00000086670053232854825950000004466352881937871252_);}
	.st32{fill:url(#SVGID_00000109028442930372020420000016861056685272333184_);}
	.st33{fill:url(#SVGID_00000111157690173987473600000017560717767477832849_);}
	.st34{fill:url(#SVGID_00000093140138097647145520000003855324125856901796_);}
	.st35{fill:url(#SVGID_00000062176135263347265740000013110696008398220928_);}
	.st36{fill:url(#SVGID_00000141423605256010260460000007281303806501531782_);}
	.st37{fill:url(#SVGID_00000049210182600427808170000004756790089174411922_);}
	.st38{fill:url(#SVGID_00000097497315361548159150000008337462609969457029_);}
	.st39{fill:url(#SVGID_00000179647567697310659110000009597617631616152214_);}
	.st40{fill:url(#SVGID_00000124868507171258423600000015717387433675936392_);}
	.st41{fill:url(#SVGID_00000152261056999436627390000012027555196815378085_);}
	.st42{fill:url(#SVGID_00000042004601440655049510000013361553782682951317_);}
	.st43{fill:url(#SVGID_00000075855637031581986040000002277502237919660960_);}
	.st44{fill:url(#SVGID_00000148648465226416387290000018248704346913970089_);}
	.st45{fill:url(#SVGID_00000016039102339682657870000017402375818964323201_);}
	.st46{fill:url(#SVGID_00000112602863778644390930000000985705891503254679_);}
	.st47{fill:url(#SVGID_00000089532201463468323680000009452145158328530856_);}
	.st48{fill:url(#SVGID_00000183952589220244582630000011216626014461847694_);}
	.st49{fill:url(#SVGID_00000161607806801856740300000006118150064329686974_);}
	.st50{fill:url(#SVGID_00000152950953201262538090000016011145254616193973_);}
	.st51{fill:url(#SVGID_00000170255673177308171860000018426785431532825477_);}
	.st52{fill:url(#SVGID_00000173118374056174927590000010438908812662002855_);}
	.st53{fill:url(#SVGID_00000113322704913237105060000017666735273143075974_);}
	.st54{fill:url(#SVGID_00000014614119767206645070000000683075096552589956_);}
	.st55{fill:url(#SVGID_00000164498139076108156150000000949806214120872615_);}
	.st56{opacity:0.2;fill:url(#SVGID_00000183233402954982125920000011072228909874210707_);}
	.st57{fill:url(#SVGID_00000037694046057200716480000002790335920541001639_);}
	.st58{opacity:0.3;fill:url(#SVGID_00000101816600573347389120000004191036266689529481_);}
	.st59{fill:url(#SVGID_00000115489599678104321980000010378183682403131036_);}
	.st60{fill:url(#SVGID_00000170269099488878082820000007667779401181540491_);}
	.st61{opacity:0.2;fill:#FFFFFF;}
	.st62{fill:url(#SVGID_00000170996716541925910330000006454625787447729326_);}
	.st63{fill:url(#SVGID_00000069381239163819503270000007119532902996683137_);}
</style>
<g id="Background">
</g>
<g>
	<path class="st0" d="M2728,1167.7c-52.8-345.9-95.3-584.9-286.1-715.9C2120,230.9,1760.6,589.5,1304.7,348.9
		C1080.2,230.4,1071.8,93,881.7,74.8C545.4,42.5,269.9,443.9,246,478.3C101,687.5,52.6,942.5,111.4,1185.7
		c38.2,157.9,64,321.4,56.9,483.6c-12.3,282.4-5.2,546,268.9,714.5c244.7,150.4,552.7,283,846.5,306.3
		c199.7,15.8,423.6-9.8,616.1-61.7C2880.5,2363.3,2800.6,1643.2,2728,1167.7z"/>
	<g>
		<g>
			<defs>
				<path id="SVGID_1_" d="M1377.5,2393.9L1126,2263.7c0,0,19.4-153.5,128.2-212.7c221.9-120.7,100.7-306.7,61.6-392.1
					c-59-128.9-54.8-268.2,116.2-241.4c170.9,26.8,141.3-274.9,16-469.3c-122.6-190.3,144.9-518,448.1-130.5
					c181.1,231.4,13.7,463.7-42.9,601.1c-56.6,137.4,133.3,249.5-16.7,375.5c-128.2,107.6-288.6,151.5-254.5,288.7
					C1616,2220.2,1569.9,2330.4,1377.5,2393.9z"/>
			</defs>
			
				<linearGradient id="SVGID_00000104669163460994125130000005145848046767552165_" gradientUnits="userSpaceOnUse" x1="6308.5645" y1="1805.2766" x2="7929.502" y2="1805.2766" gradientTransform="matrix(-0.2905 -0.9569 -0.9569 0.2905 5310.1787 7793.0435)">
				<stop  offset="0" style="stop-color:#FFC444"/>
				<stop  offset="0.9964" style="stop-color:#F36F56"/>
			</linearGradient>
			<use xlink:href="#SVGID_1_"  style="overflow:visible;fill:url(#SVGID_00000104669163460994125130000005145848046767552165_);"/>
			<clipPath id="SVGID_00000068651275289899234520000007999966066950735778_">
				<use xlink:href="#SVGID_1_"  style="overflow:visible;"/>
			</clipPath>
			
				<linearGradient id="SVGID_00000098938648004860333890000001475411171394079880_" gradientUnits="userSpaceOnUse" x1="11029.6504" y1="-4044.8601" x2="10465.8418" y2="-2442.4543" gradientTransform="matrix(-0.8882 -0.4596 -0.4596 0.8882 9627.458 9361.375)">
				<stop  offset="3.597120e-03" style="stop-color:#E38DDD"/>
				<stop  offset="1" style="stop-color:#9571F6"/>
			</linearGradient>
			
				<path style="clip-path:url(#SVGID_00000068651275289899234520000007999966066950735778_);fill:url(#SVGID_00000098938648004860333890000001475411171394079880_);" d="
				M1377.5,2393.9L1126,2263.7c0,0,19.4-153.5,128.2-212.7c221.9-120.7,100.7-306.7,61.6-392.1c-59-128.9-50.8-251.8,102.1-255.1
				c173-3.8,155.4-261.2,30.1-455.6c-122.6-190.3,144.9-518,448.1-130.5c181.1,231.4,13.7,463.7-42.9,601.1
				c-56.6,137.4,133.3,249.5-16.7,375.5c-128.2,107.6-288.6,151.5-254.5,288.7C1616,2220.2,1569.9,2330.4,1377.5,2393.9z"/>
			<g style="opacity:0.5;clip-path:url(#SVGID_00000068651275289899234520000007999966066950735778_);">
				<path class="st3" d="M1256.6,2360.9l-4.7-3.7c2.3-2.9,228.2-296.9,364.3-655.9c125.4-330.7,197.9-785.9-168.4-1076.1l3.7-4.7
					c163.1,129.2,254.2,301.2,271,511.4c13.4,167.8-20.5,360.2-100.7,571.7C1485.3,2063.4,1258.9,2358,1256.6,2360.9z"/>
				<path class="st3" d="M1725.6,1220l-4.9-3.4c112.6-164.1,174.7-447.8,175.3-450.7l5.8,1.3
					C1901.2,770.1,1838.8,1054.9,1725.6,1220z"/>
				<path class="st3" d="M1710.6,1080.3c-121.1-203.9-315.8-236.9-317.8-237.2l0.9-5.9c2,0.3,199.3,33.6,322,240L1710.6,1080.3z"/>
				<path class="st3" d="M1514.4,1931.2c70.2-281.1-238.6-518.7-241.8-520.8l2.9-5.2c3.3,1.7,315.5,243.8,244.7,527.4L1514.4,1931.2
					z"/>
				<path class="st3" d="M1570.9,1825.9l-4.6-3.8c116.6-143.5,348.2-163.8,350.6-164l0.5,6C1915,1664.3,1685.9,1684.5,1570.9,1825.9
					z"/>
				<path class="st3" d="M1286.4,2310.2c42.8-101.4-56.4-250.6-57.4-252.1l5-3.3c4.2,6.2,102,153.3,58,257.7L1286.4,2310.2z"/>
				<path class="st3" d="M1340.8,2241.3l-4.8-3.6c52.4-69.5,211.5-94.7,263.8-103c7.4-1.2,13.8-2.2,14.9-2.6l2.1,5.6
					c-1.5,0.6-5.8,1.3-16.1,2.9C1549.1,2148.8,1391.8,2173.8,1340.8,2241.3z"/>
			</g>
		</g>
		<g>
			
				<linearGradient id="SVGID_00000113320596464596603050000004903641913373934002_" gradientUnits="userSpaceOnUse" x1="-8359.7646" y1="1727.3018" x2="-7649.873" y2="3592.6016" gradientTransform="matrix(0.2689 0.9632 -0.9632 0.2689 6613.7314 8822.1826)">
				<stop  offset="0" style="stop-color:#FF9085"/>
				<stop  offset="1" style="stop-color:#FB6FBB"/>
			</linearGradient>
			<path style="fill:url(#SVGID_00000113320596464596603050000004903641913373934002_);" d="M1413.5,1883.7
				c-73.9-19.9-133.5,24.4-171.6,63.3c1.6,7.2,0.6,11.7,0.6,19.3c-0.3,68.4,14.2,97.6,24.6,165.1c2.2,14.5,21.8,55.1,30.8,71.2
				l17.3,29.7c0,0,174.5,24.7,199.5-72.5c24.9-97.2,193.7-94.7,283.2-104.5c55-6,78.2-26.3,98.1-31.8
				c210.2-57.6,286.8-6.7,343.6-67.5c62.8-67-12.7-148.1,51.8-224.6c72.7-86.4,217.7-41,268.3-138.1c8.7-16.7,17.1-34,19-59
				c4.7-61.6-39.1-101.6-0.1-153.1c78.3-103.5,82.5-247.6-35.9-309.9c-116.9-61.5-291.6,75-395.1,349.7
				c-95.9,187-134.8,197.2-233.9,203.3c-69.4,4.3-260.3-30.2-308.5,81.2C1557,1817.1,1498,1906.5,1413.5,1883.7z"/>
			<g>
				<defs>
					<path id="SVGID_00000079480768153810465960000002846981664278590860_" d="M1196.9,2000.1l111.3,228c0,0,181.6,28.9,206.5-68.3
						c24.9-97.2,193.7-94.7,283.2-104.5c243-26.4,159.7-297.4,468-357.9c82-16.1,245-17.5,293.8-104.1
						c55.6-98.7-31.2-145.9,18.9-212.1c78.3-103.5,82.5-247.6-35.9-309.9c-116.9-61.5-291.6,75-395.1,349.7
						c-95.9,187-134.8,197.2-233.9,203.3c-69.4,4.3-260.3-30.2-308.5,81.2c-48.2,111.4-107.3,200.8-191.8,178
						C1284.8,1849,1196.9,2000.1,1196.9,2000.1z"/>
				</defs>
				<clipPath id="SVGID_00000116926669242949485460000004120273170845194926_">
					<use xlink:href="#SVGID_00000079480768153810465960000002846981664278590860_"  style="overflow:visible;"/>
				</clipPath>
				<g style="opacity:0.5;clip-path:url(#SVGID_00000116926669242949485460000004120273170845194926_);">
					<path class="st6" d="M1256.8,2097.2l1.7,4.7c26.3-8.9,52.7-18.2,78.5-27.7c190.9-70.3,367.6-157.2,525.4-258.4
						c133.7-85.7,255.6-182.9,362.4-288.7c85.9-85.1,162.5-176.3,227.7-271c45.8-66.6,85.6-134.2,118.2-201
						c5.7-11.6,10.9-23.9,15.9-35.8c6.7-15.8,13.6-32.2,21.7-47.1l-4.1-2.7c-8.3,15.2-15.2,31.6-21.9,47.6
						c-5,11.8-10.1,24-15.8,35.5c-32.5,66.6-72.2,134-117.9,200.4c-65.1,94.5-141.5,185.4-227.2,270.4
						c-106.6,105.6-228.3,202.6-361.7,288.1c-157.5,101-334,187.8-524.6,258C1309.5,2079,1283.1,2088.3,1256.8,2097.2z"/>
					<path class="st6" d="M2086.2,1646.2l2.9,4.1c158.2-124.1,505-109.9,508.5-109.7l-0.1-5
						C2594.1,1535.4,2245.7,1521.2,2086.2,1646.2z"/>
					<path class="st6" d="M1612.7,1950.6l2.5,4.4c117.6-70.5,159-345.2,159.4-348l-4.7-1C1769.5,1608.7,1728.4,1881.2,1612.7,1950.6
						z"/>
					<path class="st6" d="M1542.4,1984.3l1.7,4.7c84-30.5,216.4-23.7,372.8,19c7.9,2.2,7.9,2.2,8.7,1.9l-1.7-4.7l0.8,2.4l0-2.5
						c-0.5-0.1-3.5-0.9-6.9-1.8C1760.6,1960.2,1627.2,1953.5,1542.4,1984.3z"/>
					<path class="st6" d="M1304.6,2080.3l2.9,4.1c78.1-60.7,79.4-216.3,79.4-217.9l-4.7-0.3
						C1382.2,1867.7,1380.9,2021,1304.6,2080.3z"/>
					<path class="st6" d="M1258.1,2104.7c80.3,3.6,163.5,31.7,254.3,85.8l2.1-4.3c-91.5-54.5-175.4-82.8-256.5-86.4L1258.1,2104.7z"
						/>
					<path class="st6" d="M2409.4,1308.1l3.1,3.9c84.1-74.4,189.8-131,224.5-149.6c8.4-4.5,11.4-6.1,12.3-6.8l-3-4
						c-0.7,0.6-5.5,3.1-11.6,6.4C2599.9,1176.7,2493.8,1233.4,2409.4,1308.1z"/>
					<path class="st6" d="M2290.8,1451.4l4,2.8c54.6-92.3,3.1-311.4,0.9-320.7l-4.6,1C2291.7,1136.7,2344.3,1360.8,2290.8,1451.4z"
						/>
				</g>
			</g>
		</g>
		<g>
			
				<linearGradient id="SVGID_00000134937961640071608820000003214950923275093633_" gradientUnits="userSpaceOnUse" x1="-3057.2803" y1="688.049" x2="-2178.6399" y2="2134.5178" gradientTransform="matrix(0.3685 0.9296 -0.9296 0.3685 4126.2197 3461.5061)">
				<stop  offset="3.597120e-03" style="stop-color:#E38DDD"/>
				<stop  offset="1" style="stop-color:#9571F6"/>
			</linearGradient>
			<path style="fill:url(#SVGID_00000134937961640071608820000003214950923275093633_);" d="M1229.2,1966.3
				c8.4,15.2-109.9,137,14.6,141.8c31.1,1.2,128-21.7,179.2,95.5c9.9,22.8,19.9,45.5,29.8,68.3c59.7-0.6,115.8-12.3,108-90.2
				c-12.1-121,169.4-192.8,245.8-187.3c94.6,6.8,314.9,17.8,299-169.3c-13.2-155.8-52.5-255.1,114.8-329.7
				c167.3-74.7,235.2-213.4,160.5-372.9c-78.7-167.8,83.1-391.1-45.3-504.4c-223.7-197.3-513.1,167.9-504.4,507.7
				c8.7,339.8-161.2,207.4-304.4,252.4c-13.1,4.9-32.9,13.6-54.4,28.3c-132.4,90.3-97.5,252-173.7,407.7
				C1194.7,2026.4,1215.1,1940.7,1229.2,1966.3z"/>
			<g>
				<defs>
					<path id="SVGID_00000150810576794340923070000001038250741673026197_" d="M1255.9,1901.3l150.9,373.4c59,2.2,162.9-6,154.2-93
						c-12.1-121,169.4-192.8,245.8-187.3c94.6,6.8,314.9,17.8,299-169.3c-13.2-155.8-52.5-255.1,114.8-329.7
						c167.3-74.7,235.2-213.4,160.5-372.9c-78.7-167.8,83.1-391.1-45.3-504.4c-223.7-197.3-513.1,167.9-504.4,507.7
						c8.7,339.8-161.2,207.4-304.4,252.4c-195.6,61.5-47.2,318-93.9,418.3C1396.2,1875.2,1310.8,1895.5,1255.9,1901.3z"/>
				</defs>
				<clipPath id="SVGID_00000129177677730229862380000006623856613491867012_">
					<use xlink:href="#SVGID_00000150810576794340923070000001038250741673026197_"  style="overflow:visible;"/>
				</clipPath>
				<g style="opacity:0.5;clip-path:url(#SVGID_00000129177677730229862380000006623856613491867012_);">
					<path class="st6" d="M1382.7,2055.5l4.7,7.4c505.3-328.5,841.7-916.6,877.8-1534.9l-8.3-0.9
						C2220.9,1142.7,1885.9,1728.3,1382.7,2055.5z"/>
					<path class="st6" d="M1642.2,1851.2l3.2,8.1c221.3-84.8,473.4,48.5,475.9,49.8l3.6-7.6
						C2122.4,1900.2,1867,1765.1,1642.2,1851.2z"/>
					<path class="st6" d="M1474,1992.3l6.5,5.7c152.7-187.7,9.4-627.4,8-631.8l-7.9,2.4C1482,1373,1623.8,1808.1,1474,1992.3z"/>
					<path class="st6" d="M2006.7,1379.7l6,6.3c133.5-137.1,429.6-121.2,432.5-121l0.1-8.6
						C2442.3,1256.2,2142.7,1240.1,2006.7,1379.7z"/>
					<path class="st6" d="M2163.4,1021.6l8.3,1.7c33.6-222.5-137.4-481.6-139.2-484.2l-6.8,4.7
						C2027.4,546.4,2196.5,802.6,2163.4,1021.6z"/>
				</g>
			</g>
		</g>
	</g>
	<g>
		<g>
			<path class="st9" d="M2757.9,2250.1l-2570-22.2v65.7c0,17.8,11.2,33,26.4,35.7L941,2458.8c8.6,1.5,17.4,1.9,26.1,1.2
				l1762.9-147.6c15.7-1.3,27.9-16.5,27.9-34.9V2250.1z"/>
			<g>
				<path class="st9" d="M1853.9,992.3v1099.6c0,13.9-4.1,26.8-12.2,36.4c-7.8,9.4-18.2,15.6-30.1,16.5L631,2233.1L190.9,2267h-0.1
					l-3-1.2l-9.6,0c-29.2,2.2-53.4-21.4-53.4-51.8V997.6c0-30.4,24.5-57.2,53.7-57.2h1633.4C1836.2,940.3,1853.9,964.8,1853.9,992.3
					z"/>
				<path class="st10" d="M1880.5,992.3v1099.6c0,21.2-11,40.1-27.4,48.4c-0.2,0.1-0.2,0.2-0.4,0.4c-1.6,0.8-3,1.5-4.6,2
					c-0.4,0.1-0.7,0.3-1,0.4c-0.3,0.1-0.6,0.2-0.8,0.2c-1.2,0.4-2.4,0.6-3.6,0.9c-1.5,0.3-2.9,0.5-4.5,0.6l-8.3-0.2l-1175.3,85.8
					h-0.1l-449.8,33.9c-4.3,0.3-8.6,1.9-12.6,1.1c-0.4-0.1-0.8,1.6-1.2,1.6h-0.1c-1,0-2.1-1.8-3.1-2.1c-21-5.7-36.2-26.6-36.2-50.9
					V997.6c0-30.4,24-57.2,53.2-57.2h1633.4C1862.2,940.3,1880.5,964.8,1880.5,992.3z"/>
				<path class="st11" d="M1787.3,2067.3L265.9,2171.7c-23.8,1.6-43.1-17.1-43.1-41.9V1064.8c0-24.8,19.3-45,43.1-45.1l1521.4-6.6
					c19.9-0.1,35.9,18.1,35.9,40.7v970C1823.2,2046.5,1807.1,2065.9,1787.3,2067.3z"/>
				<path class="st10" d="M1079.1,975.9c0,11.3-8.4,20.5-18.8,20.5c-10.4,0-18.8-9.1-18.8-20.5s8.4-20.5,18.8-20.5
					C1070.7,955.4,1079.1,964.6,1079.1,975.9z"/>
				<path class="st12" d="M204.7,2265l1625.2-119.6l8.3-0.6c11-0.8,21.1-6.3,28.8-14.6c-117-6.4-189.6-47.9-236.4-90.8
					c-94.1-86.1-77.8-171-179.3-227.7c-126.6-70.6-226.1,18.9-322.1-69.4c-58.2-53.5-29.6-93.5-101.3-173.4
					c-79.4-88.6-131-58.8-210.8-138.6c-100.8-100.8-50.4-179.3-137.3-251.7c-105.4-87.8-219-6.5-319.3-90.8
					c-43.3-36.3-67-89.1-79.4-145.3h-76.3c-29.2,0-53,24.6-53,55V2214C151.7,2244.3,175.5,2267.2,204.7,2265z"/>
			</g>
			
				<linearGradient id="SVGID_00000053514693343589040780000003302014307278124176_" gradientUnits="userSpaceOnUse" x1="788.1783" y1="2269.0681" x2="3358.2" y2="2269.0681">
				<stop  offset="0.494" style="stop-color:#EBEFF2"/>
				<stop  offset="1" style="stop-color:#FFFFFF"/>
			</linearGradient>
			<path style="fill:url(#SVGID_00000053514693343589040780000003302014307278124176_);" d="M1915.1,2138.1L187.8,2264.7L941,2398.8
				c8.6,1.5,17.4,1.9,26.1,1.2l1790.8-149.9L1942.6,2139C1933.5,2137.7,1924.3,2137.4,1915.1,2138.1z"/>
			<polygon class="st11" points="439.9,2265.8 1877.9,2158.8 2322.9,2219 897.3,2333.3 			"/>
		</g>
	</g>
	<g>
		<g>
			
				<linearGradient id="SVGID_00000004532329856769318410000014821702322881153676_" gradientUnits="userSpaceOnUse" x1="296.8788" y1="752.9042" x2="1120.7643" y2="752.9042">
				<stop  offset="0" style="stop-color:#311944"/>
				<stop  offset="1" style="stop-color:#893976"/>
			</linearGradient>
			<path style="fill:url(#SVGID_00000004532329856769318410000014821702322881153676_);" d="M1120.8,498.3c0-27.4-22.4-50.6-50-51.8
				l-716.9-31.2c-31.1-1.4-57,21.3-57,50.5V1038c0,29.3,25.8,52.8,56.9,52.5l16.8-0.2l0.8-1.3l698.9-13.8
				c27.6-0.2,50.6-13.3,50.6-40.7V498.3z M493.7,544.8c-26.7-0.9-48.4-22.3-48.4-47.7c0-25.4,21.7-45.1,48.4-44
				c26.6,1.1,48.1,22.4,48.1,47.7C541.8,526,520.3,545.7,493.7,544.8z M722.2,552.6c-25.8-0.9-46.7-21.8-46.7-46.8
				c0-25,21-44.3,46.7-43.3c25.7,1.1,46.4,22,46.4,46.8C768.6,534.1,747.9,553.5,722.2,552.6z M942.8,560.1
				c-24.9-0.8-45.1-21.4-45.1-46c0-24.5,20.2-43.6,45.1-42.6c24.8,1,44.8,21.6,44.8,45.9C987.6,541.9,967.6,560.9,942.8,560.1z"/>
			
				<linearGradient id="SVGID_00000054243664629470967490000015028612903704599694_" gradientUnits="userSpaceOnUse" x1="315.6034" y1="506.7934" x2="1135.7439" y2="506.7934">
				<stop  offset="0" style="stop-color:#FF9085"/>
				<stop  offset="1" style="stop-color:#FB6FBB"/>
			</linearGradient>
			<path style="fill:url(#SVGID_00000054243664629470967490000015028612903704599694_);" d="M1135.7,597.6v-99.3
				c0-27.4-21.8-50-49.3-51.2L372.1,416c-13-0.6-25.2,2.9-34.8,9.5c-13.1,9.1-21.6,23.5-21.6,40.4v131.6H1135.7z M958.6,472.2
				c24.7,1,44.7,21.5,44.7,45.9c0,24.3-20,43.4-44.7,42.5c-24.8-0.8-45-21.4-45-45.9C913.6,490.2,933.8,471.2,958.6,472.2z
				 M738.6,463.2c25.6,1.1,46.3,22,46.3,46.7c0,24.7-20.7,44.1-46.3,43.2c-25.7-0.9-46.6-21.8-46.6-46.7
				C692,481.5,712.9,462.1,738.6,463.2z M510.7,453.8c26.5,1.1,47.9,22.4,47.9,47.6c0,25.2-21.4,44.9-47.9,44
				c-26.6-0.9-48.3-22.2-48.3-47.6C462.4,472.4,484.1,452.7,510.7,453.8z"/>
			<path class="st10" d="M315.6,567.7v470.2c0,29.2,24.3,52.8,55.3,52.5l715.1-5.8c27.6-0.2,49.7-22.6,49.7-50V593.7L315.6,567.7z"
				/>
			<g>
				<path class="st9" d="M847.4,661.7c0-6.5-4.8-11.9-11.4-12.1l-70.7-1.8c-6.8-0.2-15.2,5-15.2,11.5v66.3c0,6.6,8.7,12,15.5,12.2
					l68.8,1.3c6.7,0.1,13.1-5,13.1-11.6V661.7z"/>
				<path class="st9" d="M971,664.8c0-6.5-5.5-11.8-12-12l-66.2-1.7c-6.6-0.2-11.7,5-11.7,11.5v65.6c0,6.5,5,11.8,11.6,12l66.5,1.3
					c6.5,0.1,11.8-5,11.8-11.5V664.8z"/>
				<path class="st9" d="M1094.5,668c0-6.4-5.7-11.7-12.1-11.9l-65.6-1.8c-6.5-0.2-12.2,4.9-12.2,11.3v65c0,6.4,5.4,11.8,11.9,11.9
					l65.8,1.3c6.4,0.1,12.2-4.9,12.2-11.3V668z"/>
				<path class="st9" d="M847.4,782c0-6.5-4.8-11.9-11.4-12l-70.7-1.2c-6.8-0.1-15.2,5.1-15.2,11.6v66.3c0,6.6,8.7,12,15.5,12.1
					l68.8,0.7c6.7,0.1,13.1-5.2,13.1-11.7V782z"/>
				
					<linearGradient id="SVGID_00000015322946428016312930000003434157553571671210_" gradientUnits="userSpaceOnUse" x1="881.0884" y1="815.8985" x2="970.9668" y2="815.8985">
					<stop  offset="0" style="stop-color:#FF9085"/>
					<stop  offset="1" style="stop-color:#FB6FBB"/>
				</linearGradient>
				<path style="fill:url(#SVGID_00000015322946428016312930000003434157553571671210_);" d="M971,784c0-6.5-5.5-11.8-12-11.9
					l-66.2-1.1c-6.6-0.1-11.7,5.1-11.7,11.6v65.6c0,6.5,5,11.8,11.6,11.9l66.5,0.6c6.5,0.1,11.8-5.1,11.8-11.6V784z"/>
				<path class="st9" d="M1094.5,786c0-6.4-5.7-11.7-12.1-11.8l-65.6-1.1c-6.5-0.1-12.2,5-12.2,11.4v65c0,6.4,5.4,11.7,11.9,11.8
					l65.8,0.7c6.4,0.1,12.2-5,12.2-11.4V786z"/>
				<path class="st9" d="M461.7,775.9c0-6.7-6.2-12.3-13.3-12.4l-71.5-1.3c-7.2-0.1-12.5,5.2-12.5,12v68.3c0,6.8,5.1,12.3,12.2,12.4
					l72.2,0.8c7.1,0.1,13-5.3,13-12V775.9z"/>
				<path class="st9" d="M592.7,777.9c0-6.6-5.1-12.1-12-12.2l-71.6-1.2c-7-0.1-13.7,5.2-13.7,11.9V844c0,6.7,7,12.2,14,12.3
					l70.7,0.7c7,0.1,12.7-5.3,12.7-11.9V777.9z"/>
				<path class="st9" d="M720.1,780.1c0-6.6-5.2-12.1-12-12.2l-71-1.2c-6.9-0.1-14.3,5.1-14.3,11.7v66.9c0,6.6,7.6,12.1,14.5,12.2
					l69.9,0.8c6.8,0.1,13-5.1,13-11.7V780.1z"/>
				<path class="st9" d="M847.4,902.4c0-6.5-4.8-11.8-11.4-11.9l-70.7-0.5c-6.8-0.1-15.2,5.2-15.2,11.8V968
					c0,6.6,8.7,11.9,15.5,11.9l68.8,0c6.7,0,13.1-5.3,13.1-11.8V902.4z"/>
				<path class="st9" d="M971,903.2c0-6.5-5.5-11.7-12-11.8l-66.2-0.5c-6.6,0-11.7,5.2-11.7,11.7v65.6c0,6.5,5,11.8,11.6,11.8
					l66.5,0c6.5,0,11.8-5.2,11.8-11.7V903.2z"/>
				<path class="st9" d="M461.7,899.9c0-6.7-6.2-12.2-13.3-12.3l-71.5-0.6c-7.2-0.1-12.5,5.3-12.5,12.1v68.3
					c0,6.8,5.1,12.3,12.2,12.3l72.2,0.1c7.1,0,13-5.4,13-12.1V899.9z"/>
				<path class="st9" d="M592.7,900.7c0-6.6-5.1-12.1-12-12.1l-71.6-0.5c-7-0.1-13.7,5.3-13.7,12v67.6c0,6.7,7,12.2,14,12.2l70.7,0
					c7,0,12.7-5.4,12.7-12V900.7z"/>
				<path class="st9" d="M720.1,901.7c0-6.6-5.2-12-12-12.1l-71-0.6c-6.9-0.1-14.3,5.2-14.3,11.9v66.9c0,6.6,7.6,12,14.5,12
					l69.9,0.1c6.8,0,13-5.3,13-11.8V901.7z"/>
			</g>
			<path class="st9" d="M506.2,330.8c-44.8-2.3-81.8,34.2-85.4,87.3l37.8,1.6c3.1-31.8,23.7-55.3,47.6-54.1
				c25.9,1.2,47.7,31.3,47.7,65.8c0,34.5-21.8,62.8-47.7,61.8c-13.5-0.5-25.9-8.9-34.7-21.8c-5.1,7-13.9,23.3-5.6,43.4
				c12,7.9,25.8,12.7,40.3,13.2c46.8,1.7,84.6-40.9,84.6-95C590.9,379,553,333.2,506.2,330.8z"/>
			<path class="st9" d="M733.9,342.2c-43.2-2.2-79,33.7-82.5,85.9l36.5,1.6c3-31.2,22.8-54.3,46-53.2c25,1.2,46,30.7,46,64.7
				c0,33.9-21,61.7-46,60.8c-13-0.5-25-8.8-33.5-21.3c-4.9,6.9-13.5,22.9-5.4,42.6c11.6,7.8,24.9,12.4,38.9,12.9
				c45.2,1.6,81.7-40.3,81.7-93.4C815.6,389.5,779.1,344.5,733.9,342.2z"/>
			<path class="st9" d="M954.5,353.5c-41.7-2.1-76.2,33.1-79.6,84.4l35.2,1.5c2.9-30.7,22-53.4,44.3-52.3
				c24.1,1.2,44.4,30.2,44.4,63.5c0,33.3-20.3,60.7-44.4,59.7c-12.6-0.5-24.1-8.6-32.3-20.9c-4.8,6.8-13,22.5-5.2,41.9
				c11.2,7.6,24,12.2,37.6,12.7c43.6,1.5,78.9-39.6,78.9-91.9C1033.3,399.9,998.1,355.7,954.5,353.5z"/>
			<path class="st17" d="M1135.7,1016.6v18c0,27.4-21.8,49.8-49.3,50l-715.1,5.8c-31,0.3-55.7-23.3-55.7-52.5V466
				c0-16.9,8.3-31.6,21.4-40.7c28.4,10.2,65.1,38.8,83.8,116.1c33.1,136.3,61.5,194.6,189.1,191.7c81.5-1.9,144,1.9,183,37.8
				c20.9,19.3,35.1,47.9,41.9,90c4,24.6,21.6,40.3,46.9,51.8c24.7,11.3,56.8,18.6,90.3,26.5C1033.3,953.6,1102,969.9,1135.7,1016.6z
				"/>
		</g>
	</g>
	<g>
		<g>
			
				<linearGradient id="SVGID_00000120559203550709769620000006834597504142393791_" gradientUnits="userSpaceOnUse" x1="395.8004" y1="2621.3381" x2="1311.6522" y2="2621.3381">
				<stop  offset="0" style="stop-color:#F57E53"/>
				<stop  offset="4.537139e-03" style="stop-color:#F58152"/>
				<stop  offset="4.198170e-02" style="stop-color:#F99A4D"/>
				<stop  offset="8.401687e-02" style="stop-color:#FCAD49"/>
				<stop  offset="0.1333" style="stop-color:#FEBA46"/>
				<stop  offset="0.1962" style="stop-color:#FFC244"/>
				<stop  offset="0.3183" style="stop-color:#FFC444"/>
				<stop  offset="0.455" style="stop-color:#FDB946"/>
				<stop  offset="0.6941" style="stop-color:#F99C4C"/>
				<stop  offset="0.9964" style="stop-color:#F36F56"/>
			</linearGradient>
			<path style="fill:url(#SVGID_00000120559203550709769620000006834597504142393791_);" d="M463.9,2551.4v88.3
				c0,28.5,178.2,51.7,398,51.7c219.8,0,398-23.1,398-51.7v-88.3H463.9z"/>
			
				<linearGradient id="SVGID_00000157295061398731810550000013090760204657356946_" gradientUnits="userSpaceOnUse" x1="857.9352" y1="2518.1707" x2="906.218" y2="2922.3684">
				<stop  offset="0" style="stop-color:#FFDB44"/>
				<stop  offset="1" style="stop-color:#FEEF06"/>
			</linearGradient>
			<path style="fill:url(#SVGID_00000157295061398731810550000013090760204657356946_);" d="M1259.9,2551.4
				c0,28.5-178.2,51.7-398,51.7c-219.8,0-398-23.1-398-51.7c0-28.5,178.2-51.7,398-51.7C1081.7,2499.7,1259.9,2522.8,1259.9,2551.4z
				"/>
			
				<linearGradient id="SVGID_00000132070079651778383520000016178366620218546351_" gradientUnits="userSpaceOnUse" x1="855.8355" y1="2500.145" x2="870.664" y2="2624.281">
				<stop  offset="0" style="stop-color:#FFDB44"/>
				<stop  offset="1" style="stop-color:#FEEF06"/>
			</linearGradient>
			<path style="fill:url(#SVGID_00000132070079651778383520000016178366620218546351_);" d="M861.9,2606.6
				c-194.7,0-398.3-18.6-398.3-54.5c0-2,0.7-5.4,2.7-5.4c2,0,1.1,2.7,1.1,4.7c0,22.7,162,48.1,394.5,48.1s394.5-25.3,394.5-48.1
				c0-2,0.3-3.8,2.3-3.8c2,0,1.5,2.6,1.5,4.6C1260.2,2588,1056.6,2606.6,861.9,2606.6z"/>
			<g>
				<path class="st21" d="M824.3,2554.2c3.9-2.7,8.1-5.4,12.5-8c4.4-2.6,10.1-5,17.1-7.1c7-2.1,15.7-3.9,26.2-5.2
					c10.5-1.3,23.6-2,39.3-2.1c15.4-0.1,29.8,0.4,43.3,1.5c13.5,1,25.4,2.6,35.6,4.7c10.2,2.1,18.6,4.7,25,7.8
					c6.4,3.1,10.2,6.6,11.4,10.6l44.8,0.5c3.3,0,6.1,0.3,8.6,0.8c2.5,0.5,3.7,1.2,3.7,1.9l0,3.7l-57.6-0.6c-2,4.5-7.2,8.7-15.4,12.4
					c-8.2,3.8-18.8,7-31.6,9.7l-21-2.9c-1.9-0.3-3.4-0.7-4.6-1.1c-1.2-0.4-1.8-0.9-1.8-1.4c0-0.7,1.6-1.5,4.9-2.4
					c3.2-0.9,6.9-2,11-3.4c4.1-1.3,8.1-2.9,12-4.8c3.9-1.8,6.5-4,7.9-6.6l-136-1.3c-3.6,2.6-7.6,5.2-12,7.7
					c-4.4,2.5-10.3,4.8-17.6,6.9c-7.3,2-16.4,3.7-27.4,4.9c-11,1.3-24.7,1.9-41.3,2c-12.5,0.1-24.6-0.4-36.5-1.4
					c-11.9-1-22.4-2.5-31.7-4.5c-9.2-2-16.8-4.5-22.7-7.4c-5.9-3-9.2-6.3-9.9-10.2l-36.9-0.4c-3.3,0-6.1-0.3-8.7-0.8
					c-2.5-0.5-3.8-1.1-3.8-2l0-3.7l50.4,0.5c2.2-3.9,6.8-7.3,13.8-10.2c7-2.9,15.5-5.5,25.6-7.7l16.9,2.3c5.1,0.7,7.7,1.6,7.7,2.5
					c0,0.5-1,1.2-3.2,1.9c-2.2,0.8-4.7,1.7-7.6,2.8c-2.9,1.1-5.7,2.3-8.4,3.8c-2.7,1.4-4.8,3.1-6.1,4.9L824.3,2554.2z M699.8,2559.3
					c1,2.4,3.3,4.5,6.7,6.3c3.4,1.8,7.7,3.2,12.8,4.3c5.1,1.1,10.9,2,17.3,2.5c6.4,0.5,13.1,0.8,20.1,0.7c8.2,0,15.3-0.4,21.4-1.1
					c6-0.7,11.4-1.6,16-2.7c4.6-1.1,8.6-2.5,12-4c3.4-1.5,6.4-3.1,9.2-4.9L699.8,2559.3z M995.9,2556c-1-2.5-3.5-4.6-7.3-6.4
					c-3.8-1.8-8.8-3.4-14.7-4.7c-6-1.3-12.9-2.2-20.9-2.8c-7.9-0.6-16.7-0.9-26.3-0.8c-8.5,0-15.9,0.4-22,1.1
					c-6.1,0.7-11.5,1.7-16,2.9c-4.5,1.2-8.4,2.6-11.5,4.2c-3.2,1.6-6.1,3.3-8.8,5.2L995.9,2556z"/>
			</g>
			
				<linearGradient id="SVGID_00000035532730531506609220000008838178221518848420_" gradientUnits="userSpaceOnUse" x1="-16.5256" y1="1279.8994" x2="-1.7499" y2="1403.5941" gradientTransform="matrix(-1 0 0 -1 853.249 3891.1655)">
				<stop  offset="3.597120e-03" style="stop-color:#F36F56"/>
				<stop  offset="0.3059" style="stop-color:#F99C4C"/>
				<stop  offset="0.545" style="stop-color:#FDB946"/>
				<stop  offset="0.6817" style="stop-color:#FFC444"/>
				<stop  offset="0.8038" style="stop-color:#FFC244"/>
				<stop  offset="0.8667" style="stop-color:#FEBA46"/>
				<stop  offset="0.916" style="stop-color:#FCAD49"/>
				<stop  offset="0.958" style="stop-color:#F99A4D"/>
				<stop  offset="0.9955" style="stop-color:#F58152"/>
				<stop  offset="1" style="stop-color:#F57E53"/>
			</linearGradient>
			<path style="fill:url(#SVGID_00000035532730531506609220000008838178221518848420_);" d="M862,2505.3
				c-177.5,0-362.3,15.6-391.8,45.9c1.2,1.1,2.2,2.2,3.2,3.4c24.9-21,177.5-42.1,388.6-42.1c216.5,0,371.6,22.2,390.3,43.7
				c0.9-1.2,1.9-2.3,3-3.4C1230.9,2521.5,1042.6,2505.3,862,2505.3z"/>
		</g>
		<g>
			
				<linearGradient id="SVGID_00000003083044456613648690000012781751042264549790_" gradientUnits="userSpaceOnUse" x1="285.1456" y1="2528.6023" x2="1200.9982" y2="2528.6023">
				<stop  offset="0" style="stop-color:#F57E53"/>
				<stop  offset="4.537139e-03" style="stop-color:#F58152"/>
				<stop  offset="4.198170e-02" style="stop-color:#F99A4D"/>
				<stop  offset="8.401687e-02" style="stop-color:#FCAD49"/>
				<stop  offset="0.1333" style="stop-color:#FEBA46"/>
				<stop  offset="0.1962" style="stop-color:#FFC244"/>
				<stop  offset="0.3183" style="stop-color:#FFC444"/>
				<stop  offset="0.455" style="stop-color:#FDB946"/>
				<stop  offset="0.6941" style="stop-color:#F99C4C"/>
				<stop  offset="0.9964" style="stop-color:#F36F56"/>
			</linearGradient>
			<path style="fill:url(#SVGID_00000003083044456613648690000012781751042264549790_);" d="M353.2,2458.6v88.3
				c0,28.5,178.2,51.7,398,51.7c219.8,0,398-23.1,398-51.7v-88.3H353.2z"/>
			
				<linearGradient id="SVGID_00000049912320977837119380000000565326071492447165_" gradientUnits="userSpaceOnUse" x1="747.2808" y1="2425.4353" x2="795.5638" y2="2829.634">
				<stop  offset="0" style="stop-color:#FFDB44"/>
				<stop  offset="1" style="stop-color:#FEEF06"/>
			</linearGradient>
			<path style="fill:url(#SVGID_00000049912320977837119380000000565326071492447165_);" d="M1149.3,2458.6
				c0,28.5-178.2,51.7-398,51.7c-219.8,0-398-23.1-398-51.7c0-28.5,178.2-51.7,398-51.7C971.1,2407,1149.3,2430.1,1149.3,2458.6z"/>
			
				<linearGradient id="SVGID_00000023264826520119473160000000211586709839991708_" gradientUnits="userSpaceOnUse" x1="745.1813" y1="2407.4102" x2="760.0096" y2="2531.5452">
				<stop  offset="0" style="stop-color:#FFDB44"/>
				<stop  offset="1" style="stop-color:#FEEF06"/>
			</linearGradient>
			<path style="fill:url(#SVGID_00000023264826520119473160000000211586709839991708_);" d="M751.2,2513.8
				c-194.7,0-398.3-18.6-398.3-54.5c0-2,0.7-5.4,2.7-5.4c2,0,1.1,2.7,1.1,4.7c0,22.7,162,48.1,394.5,48.1s394.5-25.3,394.5-48.1
				c0-2,0.3-3.8,2.3-3.8c2,0,1.5,2.6,1.5,4.6C1149.5,2495.3,945.9,2513.8,751.2,2513.8z"/>
			<g>
				<path class="st21" d="M713.6,2461.5c3.9-2.7,8.1-5.4,12.5-8c4.4-2.6,10.1-5,17.1-7.1c7-2.1,15.7-3.8,26.2-5.2
					c10.5-1.3,23.6-2,39.3-2.1c15.4-0.1,29.8,0.4,43.3,1.5c13.5,1,25.4,2.6,35.6,4.7c10.2,2.1,18.6,4.7,25,7.8
					c6.4,3.1,10.2,6.6,11.4,10.6l44.8,0.5c3.3,0,6.1,0.3,8.6,0.8c2.5,0.5,3.7,1.2,3.7,1.9l0,3.7l-57.6-0.6c-2,4.5-7.2,8.7-15.4,12.4
					c-8.2,3.8-18.8,7-31.6,9.7l-21-2.9c-1.9-0.3-3.4-0.7-4.6-1.1c-1.2-0.4-1.8-0.9-1.8-1.4c0-0.7,1.6-1.5,4.9-2.4
					c3.2-0.9,6.9-2,11-3.4c4.1-1.3,8.1-2.9,12-4.8c3.9-1.8,6.5-4,7.9-6.6l-136-1.3c-3.6,2.6-7.6,5.2-12,7.7
					c-4.4,2.5-10.3,4.8-17.6,6.9c-7.3,2-16.4,3.7-27.4,4.9c-11,1.3-24.7,1.9-41.3,2c-12.5,0.1-24.6-0.4-36.5-1.4
					c-11.9-1-22.4-2.5-31.7-4.5c-9.2-2-16.8-4.5-22.7-7.4c-5.9-3-9.2-6.3-9.9-10.2l-36.9-0.4c-3.3,0-6.1-0.3-8.7-0.8
					c-2.5-0.5-3.8-1.1-3.8-2l0-3.7l50.4,0.5c2.2-3.9,6.8-7.3,13.8-10.2c7-2.9,15.5-5.5,25.6-7.7l16.9,2.3c5.1,0.7,7.7,1.6,7.7,2.5
					c0,0.5-1,1.2-3.2,1.9c-2.2,0.8-4.7,1.7-7.6,2.8c-2.9,1.1-5.7,2.3-8.4,3.8c-2.7,1.4-4.8,3.1-6.1,4.9L713.6,2461.5z M589.2,2466.5
					c1,2.4,3.3,4.5,6.7,6.3c3.4,1.8,7.7,3.2,12.8,4.3c5.1,1.1,10.9,2,17.3,2.5c6.4,0.5,13.1,0.8,20.1,0.7c8.2,0,15.3-0.4,21.4-1.1
					c6-0.7,11.4-1.6,16-2.7c4.6-1.1,8.6-2.5,12-4c3.4-1.5,6.4-3.1,9.2-4.9L589.2,2466.5z M885.2,2463.2c-1-2.5-3.5-4.6-7.3-6.4
					c-3.8-1.8-8.8-3.4-14.7-4.7c-6-1.3-12.9-2.2-20.9-2.8c-7.9-0.6-16.7-0.9-26.3-0.8c-8.5,0-15.9,0.4-22,1.1
					c-6.1,0.7-11.5,1.7-16,2.9c-4.5,1.2-8.4,2.6-11.5,4.2c-3.2,1.6-6.1,3.3-8.8,5.2L885.2,2463.2z"/>
			</g>
			
				<linearGradient id="SVGID_00000034064658418278413930000014807934841633313423_" gradientUnits="userSpaceOnUse" x1="94.128" y1="1372.6343" x2="108.9039" y2="1496.3304" gradientTransform="matrix(-1 0 0 -1 853.249 3891.1655)">
				<stop  offset="3.597120e-03" style="stop-color:#F36F56"/>
				<stop  offset="0.3059" style="stop-color:#F99C4C"/>
				<stop  offset="0.545" style="stop-color:#FDB946"/>
				<stop  offset="0.6817" style="stop-color:#FFC444"/>
				<stop  offset="0.8038" style="stop-color:#FFC244"/>
				<stop  offset="0.8667" style="stop-color:#FEBA46"/>
				<stop  offset="0.916" style="stop-color:#FCAD49"/>
				<stop  offset="0.958" style="stop-color:#F99A4D"/>
				<stop  offset="0.9955" style="stop-color:#F58152"/>
				<stop  offset="1" style="stop-color:#F57E53"/>
			</linearGradient>
			<path style="fill:url(#SVGID_00000034064658418278413930000014807934841633313423_);" d="M751.3,2412.6
				c-177.5,0-362.3,15.6-391.8,45.9c1.2,1.1,2.2,2.2,3.2,3.4c24.9-21,177.5-42.1,388.6-42.1c216.5,0,371.6,22.2,390.3,43.7
				c0.9-1.2,1.9-2.3,3-3.4C1120.2,2428.8,931.9,2412.6,751.3,2412.6z"/>
		</g>
		<g>
			
				<linearGradient id="SVGID_00000175309125473710623460000017993503875491858573_" gradientUnits="userSpaceOnUse" x1="380.6256" y1="2436.1382" x2="1296.4783" y2="2436.1382">
				<stop  offset="0" style="stop-color:#F57E53"/>
				<stop  offset="4.537139e-03" style="stop-color:#F58152"/>
				<stop  offset="4.198170e-02" style="stop-color:#F99A4D"/>
				<stop  offset="8.401687e-02" style="stop-color:#FCAD49"/>
				<stop  offset="0.1333" style="stop-color:#FEBA46"/>
				<stop  offset="0.1962" style="stop-color:#FFC244"/>
				<stop  offset="0.3183" style="stop-color:#FFC444"/>
				<stop  offset="0.455" style="stop-color:#FDB946"/>
				<stop  offset="0.6941" style="stop-color:#F99C4C"/>
				<stop  offset="0.9964" style="stop-color:#F36F56"/>
			</linearGradient>
			<path style="fill:url(#SVGID_00000175309125473710623460000017993503875491858573_);" d="M448.7,2366.2v88.3
				c0,28.5,178.2,51.7,398,51.7c219.8,0,398-23.1,398-51.7v-88.3H448.7z"/>
			
				<linearGradient id="SVGID_00000096751582474622621990000013658283345370143639_" gradientUnits="userSpaceOnUse" x1="842.7602" y1="2332.9712" x2="891.043" y2="2737.1694">
				<stop  offset="0" style="stop-color:#FFDB44"/>
				<stop  offset="1" style="stop-color:#FEEF06"/>
			</linearGradient>
			<path style="fill:url(#SVGID_00000096751582474622621990000013658283345370143639_);" d="M1244.8,2366.2
				c0,28.5-178.2,51.7-398,51.7s-398-23.1-398-51.7c0-28.5,178.2-51.7,398-51.7S1244.8,2337.6,1244.8,2366.2z"/>
			
				<linearGradient id="SVGID_00000029745808421584836870000014923730505082064565_" gradientUnits="userSpaceOnUse" x1="840.6609" y1="2314.9451" x2="855.4894" y2="2439.0808">
				<stop  offset="0" style="stop-color:#FFDB44"/>
				<stop  offset="1" style="stop-color:#FEEF06"/>
			</linearGradient>
			<path style="fill:url(#SVGID_00000029745808421584836870000014923730505082064565_);" d="M846.7,2421.4
				c-194.7,0-398.3-18.6-398.3-54.5c0-2,0.7-5.4,2.7-5.4c2,0,1.1,2.7,1.1,4.7c0,22.7,162,48.1,394.5,48.1s394.5-25.3,394.5-48.1
				c0-2,0.3-3.8,2.3-3.8c2,0,1.5,2.6,1.5,4.6C1245,2402.8,1041.4,2421.4,846.7,2421.4z"/>
			<g>
				<path class="st21" d="M809.1,2369c3.9-2.7,8.1-5.4,12.5-8c4.4-2.6,10.1-5,17.1-7.1c7-2.1,15.7-3.8,26.2-5.2
					c10.5-1.3,23.6-2,39.3-2.1c15.4-0.1,29.8,0.4,43.3,1.5c13.5,1,25.4,2.6,35.6,4.7c10.2,2.1,18.6,4.7,25,7.8
					c6.4,3.1,10.2,6.6,11.4,10.6l44.8,0.5c3.3,0,6.1,0.3,8.6,0.8c2.5,0.5,3.7,1.2,3.7,1.9l0,3.7l-57.6-0.6c-2,4.5-7.2,8.7-15.4,12.4
					c-8.2,3.8-18.8,7-31.6,9.7l-21-2.9c-1.9-0.3-3.4-0.7-4.6-1.1c-1.2-0.4-1.8-0.9-1.8-1.4c0-0.7,1.6-1.5,4.9-2.4
					c3.2-0.9,6.9-2,11-3.4c4.1-1.3,8.1-2.9,12-4.8c3.9-1.8,6.5-4,7.9-6.5l-136-1.3c-3.6,2.6-7.6,5.2-12,7.7
					c-4.4,2.5-10.3,4.8-17.6,6.9c-7.3,2-16.4,3.7-27.4,4.9c-11,1.3-24.7,1.9-41.3,2c-12.5,0.1-24.6-0.4-36.5-1.4
					c-11.9-1-22.4-2.5-31.7-4.5c-9.2-2-16.8-4.5-22.7-7.4c-5.9-3-9.2-6.3-9.9-10.2l-36.9-0.4c-3.3,0-6.1-0.3-8.7-0.8
					c-2.5-0.5-3.8-1.1-3.8-2l0-3.7l50.4,0.5c2.2-3.9,6.8-7.3,13.8-10.2c7-2.9,15.5-5.5,25.6-7.7l16.9,2.3c5.1,0.7,7.7,1.6,7.7,2.5
					c0,0.5-1,1.2-3.2,1.9c-2.2,0.8-4.7,1.7-7.6,2.8c-2.9,1.1-5.7,2.3-8.4,3.8c-2.7,1.4-4.8,3.1-6.1,4.9L809.1,2369z M684.6,2374.1
					c1,2.4,3.3,4.5,6.7,6.3c3.4,1.8,7.7,3.2,12.8,4.3c5.1,1.1,10.9,2,17.3,2.5c6.4,0.5,13.1,0.8,20.1,0.7c8.2,0,15.3-0.4,21.4-1.1
					c6-0.7,11.4-1.6,16-2.7c4.6-1.1,8.6-2.5,12-4c3.4-1.5,6.4-3.1,9.2-4.9L684.6,2374.1z M980.7,2370.8c-1-2.5-3.5-4.6-7.3-6.4
					c-3.8-1.8-8.8-3.4-14.7-4.7c-6-1.3-12.9-2.2-20.9-2.8c-7.9-0.6-16.7-0.9-26.3-0.8c-8.5,0-15.9,0.4-22,1.1
					c-6.1,0.7-11.5,1.7-16,2.9c-4.5,1.2-8.4,2.6-11.5,4.2c-3.2,1.6-6.1,3.3-8.8,5.2L980.7,2370.8z"/>
			</g>
			
				<linearGradient id="SVGID_00000050663877566854435790000005347015233310130829_" gradientUnits="userSpaceOnUse" x1="-1.3514" y1="1465.0986" x2="13.4245" y2="1588.7944" gradientTransform="matrix(-1 0 0 -1 853.249 3891.1655)">
				<stop  offset="3.597120e-03" style="stop-color:#F36F56"/>
				<stop  offset="0.3059" style="stop-color:#F99C4C"/>
				<stop  offset="0.545" style="stop-color:#FDB946"/>
				<stop  offset="0.6817" style="stop-color:#FFC444"/>
				<stop  offset="0.8038" style="stop-color:#FFC244"/>
				<stop  offset="0.8667" style="stop-color:#FEBA46"/>
				<stop  offset="0.916" style="stop-color:#FCAD49"/>
				<stop  offset="0.958" style="stop-color:#F99A4D"/>
				<stop  offset="0.9955" style="stop-color:#F58152"/>
				<stop  offset="1" style="stop-color:#F57E53"/>
			</linearGradient>
			<path style="fill:url(#SVGID_00000050663877566854435790000005347015233310130829_);" d="M846.8,2320.1
				c-177.5,0-362.3,15.6-391.8,45.8c1.2,1.1,2.2,2.2,3.2,3.4c24.9-21,177.5-42.1,388.6-42.1c216.5,0,371.6,22.2,390.3,43.7
				c0.9-1.2,1.9-2.3,3-3.4C1215.7,2336.3,1027.4,2320.1,846.8,2320.1z"/>
		</g>
		<g>
			
				<linearGradient id="SVGID_00000122692859061487979200000017036019744524436151_" gradientUnits="userSpaceOnUse" x1="438.5651" y1="2343.4019" x2="1354.4177" y2="2343.4019">
				<stop  offset="0" style="stop-color:#F57E53"/>
				<stop  offset="4.537139e-03" style="stop-color:#F58152"/>
				<stop  offset="4.198170e-02" style="stop-color:#F99A4D"/>
				<stop  offset="8.401687e-02" style="stop-color:#FCAD49"/>
				<stop  offset="0.1333" style="stop-color:#FEBA46"/>
				<stop  offset="0.1962" style="stop-color:#FFC244"/>
				<stop  offset="0.3183" style="stop-color:#FFC444"/>
				<stop  offset="0.455" style="stop-color:#FDB946"/>
				<stop  offset="0.6941" style="stop-color:#F99C4C"/>
				<stop  offset="0.9964" style="stop-color:#F36F56"/>
			</linearGradient>
			<path style="fill:url(#SVGID_00000122692859061487979200000017036019744524436151_);" d="M506.6,2273.4v88.3
				c0,28.5,178.2,51.7,398,51.7c219.8,0,398-23.1,398-51.7v-88.3H506.6z"/>
			
				<linearGradient id="SVGID_00000134232221198387722390000000074727870055560633_" gradientUnits="userSpaceOnUse" x1="900.7004" y1="2240.2349" x2="948.9833" y2="2644.4333">
				<stop  offset="0" style="stop-color:#FFDB44"/>
				<stop  offset="1" style="stop-color:#FEEF06"/>
			</linearGradient>
			<path style="fill:url(#SVGID_00000134232221198387722390000000074727870055560633_);" d="M1302.7,2273.4
				c0,28.5-178.2,51.7-398,51.7c-219.8,0-398-23.1-398-51.7c0-28.5,178.2-51.7,398-51.7C1124.5,2221.8,1302.7,2244.9,1302.7,2273.4z
				"/>
			
				<linearGradient id="SVGID_00000044877581771849486040000005895762621237813661_" gradientUnits="userSpaceOnUse" x1="898.6006" y1="2222.2097" x2="913.429" y2="2346.3447">
				<stop  offset="0" style="stop-color:#FFDB44"/>
				<stop  offset="1" style="stop-color:#FEEF06"/>
			</linearGradient>
			<path style="fill:url(#SVGID_00000044877581771849486040000005895762621237813661_);" d="M904.7,2328.6
				c-194.7,0-398.3-18.6-398.3-54.5c0-2,0.7-5.4,2.7-5.4c2,0,1.1,2.7,1.1,4.7c0,22.7,162,48.1,394.5,48.1
				c232.5,0,394.5-25.3,394.5-48.1c0-2,0.3-3.8,2.3-3.8c2,0,1.5,2.6,1.5,4.6C1302.9,2310.1,1099.4,2328.6,904.7,2328.6z"/>
			<g>
				<path class="st21" d="M867.1,2276.3c3.9-2.7,8.1-5.4,12.5-8c4.4-2.6,10.1-5,17.1-7.1c7-2.1,15.7-3.8,26.2-5.2
					c10.5-1.3,23.6-2,39.3-2.1c15.4-0.1,29.8,0.4,43.3,1.5c13.5,1,25.4,2.6,35.6,4.7c10.2,2.1,18.6,4.7,25,7.8
					c6.4,3.1,10.2,6.6,11.4,10.6l44.8,0.5c3.3,0,6.1,0.3,8.6,0.8c2.5,0.5,3.7,1.2,3.7,1.9l0,3.7l-57.6-0.6c-2,4.5-7.2,8.7-15.4,12.4
					c-8.2,3.8-18.8,7-31.6,9.7l-21-2.9c-1.9-0.3-3.4-0.7-4.6-1.1c-1.2-0.4-1.8-0.9-1.8-1.4c0-0.7,1.6-1.5,4.9-2.4
					c3.2-0.9,6.9-2,11-3.4c4.1-1.3,8.1-2.9,12-4.8c3.9-1.8,6.5-4,7.9-6.6l-136-1.3c-3.6,2.6-7.6,5.2-12,7.7
					c-4.4,2.5-10.3,4.8-17.6,6.9c-7.3,2-16.4,3.7-27.4,4.9c-11,1.3-24.7,1.9-41.3,2c-12.5,0.1-24.6-0.4-36.5-1.4
					c-11.9-1-22.4-2.5-31.7-4.5c-9.2-2-16.8-4.5-22.7-7.4c-5.9-3-9.2-6.3-9.9-10.2l-36.9-0.4c-3.3,0-6.1-0.3-8.7-0.8
					c-2.5-0.5-3.8-1.1-3.8-2l0-3.7l50.4,0.5c2.2-3.9,6.8-7.3,13.8-10.2c7-2.9,15.5-5.5,25.6-7.7l16.9,2.3c5.1,0.7,7.7,1.6,7.7,2.5
					c0,0.5-1,1.2-3.2,1.9c-2.2,0.8-4.7,1.7-7.6,2.8c-2.9,1.1-5.7,2.3-8.4,3.8c-2.7,1.4-4.8,3.1-6.1,4.9L867.1,2276.3z M742.6,2281.3
					c1,2.4,3.3,4.5,6.7,6.3c3.4,1.8,7.7,3.2,12.8,4.3c5.1,1.1,10.9,2,17.3,2.5c6.4,0.5,13.1,0.8,20.1,0.7c8.2,0,15.3-0.4,21.4-1.1
					c6-0.7,11.4-1.6,16-2.7c4.6-1.1,8.6-2.5,12-4c3.4-1.5,6.4-3.1,9.2-4.9L742.6,2281.3z M1038.7,2278c-1-2.5-3.5-4.6-7.3-6.4
					c-3.8-1.8-8.8-3.4-14.7-4.7c-6-1.3-12.9-2.2-20.9-2.8c-7.9-0.6-16.7-0.9-26.3-0.8c-8.5,0-15.9,0.4-22,1.1
					c-6.1,0.7-11.5,1.7-16,2.9c-4.5,1.2-8.4,2.6-11.5,4.2c-3.2,1.6-6.1,3.3-8.8,5.2L1038.7,2278z"/>
			</g>
			
				<linearGradient id="SVGID_00000023242142837417324820000009437973442818026900_" gradientUnits="userSpaceOnUse" x1="-59.2908" y1="1557.8348" x2="-44.515" y2="1681.5304" gradientTransform="matrix(-1 0 0 -1 853.249 3891.1655)">
				<stop  offset="3.597120e-03" style="stop-color:#F36F56"/>
				<stop  offset="0.3059" style="stop-color:#F99C4C"/>
				<stop  offset="0.545" style="stop-color:#FDB946"/>
				<stop  offset="0.6817" style="stop-color:#FFC444"/>
				<stop  offset="0.8038" style="stop-color:#FFC244"/>
				<stop  offset="0.8667" style="stop-color:#FEBA46"/>
				<stop  offset="0.916" style="stop-color:#FCAD49"/>
				<stop  offset="0.958" style="stop-color:#F99A4D"/>
				<stop  offset="0.9955" style="stop-color:#F58152"/>
				<stop  offset="1" style="stop-color:#F57E53"/>
			</linearGradient>
			<path style="fill:url(#SVGID_00000023242142837417324820000009437973442818026900_);" d="M904.7,2227.4
				c-177.5,0-362.3,15.6-391.8,45.8c1.2,1.1,2.2,2.2,3.2,3.4c24.9-21,177.5-42.1,388.6-42.1c216.5,0,371.6,22.2,390.3,43.7
				c0.9-1.2,1.9-2.3,3-3.4C1273.6,2243.6,1085.4,2227.4,904.7,2227.4z"/>
		</g>
		<g>
			
				<linearGradient id="SVGID_00000132090551319644211500000011624582670434618765_" gradientUnits="userSpaceOnUse" x1="395.8004" y1="2243.3503" x2="1311.6522" y2="2243.3503">
				<stop  offset="0" style="stop-color:#F57E53"/>
				<stop  offset="4.537139e-03" style="stop-color:#F58152"/>
				<stop  offset="4.198170e-02" style="stop-color:#F99A4D"/>
				<stop  offset="8.401687e-02" style="stop-color:#FCAD49"/>
				<stop  offset="0.1333" style="stop-color:#FEBA46"/>
				<stop  offset="0.1962" style="stop-color:#FFC244"/>
				<stop  offset="0.3183" style="stop-color:#FFC444"/>
				<stop  offset="0.455" style="stop-color:#FDB946"/>
				<stop  offset="0.6941" style="stop-color:#F99C4C"/>
				<stop  offset="0.9964" style="stop-color:#F36F56"/>
			</linearGradient>
			<path style="fill:url(#SVGID_00000132090551319644211500000011624582670434618765_);" d="M463.9,2173.4v88.3
				c0,28.5,178.2,51.7,398,51.7c219.8,0,398-23.1,398-51.7v-88.3H463.9z"/>
			
				<linearGradient id="SVGID_00000023268875887631162960000007300134856510540426_" gradientUnits="userSpaceOnUse" x1="857.9352" y1="2140.1831" x2="906.2181" y2="2544.3816">
				<stop  offset="0" style="stop-color:#FFDB44"/>
				<stop  offset="1" style="stop-color:#FEEF06"/>
			</linearGradient>
			
				<ellipse style="fill:url(#SVGID_00000023268875887631162960000007300134856510540426_);" cx="861.9" cy="2173.4" rx="398" ry="51.7"/>
			
				<linearGradient id="SVGID_00000095319033987995167750000018030010020584055450_" gradientUnits="userSpaceOnUse" x1="855.8356" y1="2122.158" x2="870.6639" y2="2246.2932">
				<stop  offset="0" style="stop-color:#FFDB44"/>
				<stop  offset="1" style="stop-color:#FEEF06"/>
			</linearGradient>
			<path style="fill:url(#SVGID_00000095319033987995167750000018030010020584055450_);" d="M861.9,2228.6
				c-194.7,0-398.3-18.6-398.3-54.5c0-2,0.7-5.4,2.7-5.4c2,0,1.1,2.7,1.1,4.7c0,22.7,162,48.1,394.5,48.1s394.5-25.3,394.5-48.1
				c0-2,0.3-3.8,2.3-3.8c2,0,1.5,2.6,1.5,4.6C1260.2,2210,1056.6,2228.6,861.9,2228.6z"/>
			<g>
				<path class="st21" d="M824.3,2176.3c3.9-2.7,8.1-5.4,12.5-8c4.4-2.6,10.1-5,17.1-7.1c7-2.1,15.7-3.8,26.2-5.2
					c10.5-1.3,23.6-2,39.3-2.1c15.4-0.1,29.8,0.4,43.3,1.5c13.5,1,25.4,2.6,35.6,4.7c10.2,2.1,18.6,4.7,25,7.8
					c6.4,3.1,10.2,6.6,11.4,10.6l44.8,0.5c3.3,0,6.1,0.3,8.6,0.8c2.5,0.5,3.7,1.2,3.7,1.9l0,3.7l-57.6-0.6c-2,4.5-7.2,8.7-15.4,12.4
					c-8.2,3.8-18.8,7-31.6,9.7l-21-2.9c-1.9-0.3-3.4-0.7-4.6-1.1c-1.2-0.4-1.8-0.9-1.8-1.4c0-0.7,1.6-1.5,4.9-2.4
					c3.2-0.9,6.9-2,11-3.4c4.1-1.3,8.1-2.9,12-4.8c3.9-1.8,6.5-4,7.9-6.6l-136-1.3c-3.6,2.6-7.6,5.2-12,7.7
					c-4.4,2.5-10.3,4.8-17.6,6.9c-7.3,2-16.4,3.7-27.4,4.9c-11,1.3-24.7,1.9-41.3,2c-12.5,0.1-24.6-0.4-36.5-1.4
					c-11.9-1-22.4-2.5-31.7-4.5c-9.2-2-16.8-4.5-22.7-7.4c-5.9-3-9.2-6.3-9.9-10.2l-36.9-0.4c-3.3,0-6.1-0.3-8.7-0.8
					c-2.5-0.5-3.8-1.1-3.8-2l0-3.7l50.4,0.5c2.2-3.9,6.8-7.3,13.8-10.2c7-2.9,15.5-5.5,25.6-7.7l16.9,2.3c5.1,0.7,7.7,1.6,7.7,2.5
					c0,0.5-1,1.2-3.2,1.9c-2.2,0.8-4.7,1.7-7.6,2.8c-2.9,1.1-5.7,2.3-8.4,3.8c-2.7,1.4-4.8,3.1-6.1,4.9L824.3,2176.3z M699.8,2181.3
					c1,2.4,3.3,4.5,6.7,6.3c3.4,1.8,7.7,3.2,12.8,4.3c5.1,1.1,10.9,2,17.3,2.5c6.4,0.5,13.1,0.8,20.1,0.7c8.2,0,15.3-0.4,21.4-1.1
					c6-0.7,11.4-1.6,16-2.7c4.6-1.1,8.6-2.5,12-4c3.4-1.5,6.4-3.1,9.2-4.9L699.8,2181.3z M995.9,2178c-1-2.5-3.5-4.6-7.3-6.4
					c-3.8-1.8-8.8-3.4-14.7-4.7c-6-1.3-12.9-2.2-20.9-2.8c-7.9-0.6-16.7-0.9-26.3-0.8c-8.5,0-15.9,0.4-22,1.1
					c-6.1,0.7-11.5,1.7-16,2.9c-4.5,1.2-8.4,2.6-11.5,4.2c-3.2,1.6-6.1,3.3-8.8,5.2L995.9,2178z"/>
			</g>
			
				<linearGradient id="SVGID_00000137106458174077210450000005766493411429122468_" gradientUnits="userSpaceOnUse" x1="-16.5258" y1="1657.8864" x2="-1.7499" y2="1781.582" gradientTransform="matrix(-1 0 0 -1 853.249 3891.1655)">
				<stop  offset="3.597120e-03" style="stop-color:#F36F56"/>
				<stop  offset="0.3059" style="stop-color:#F99C4C"/>
				<stop  offset="0.545" style="stop-color:#FDB946"/>
				<stop  offset="0.6817" style="stop-color:#FFC444"/>
				<stop  offset="0.8038" style="stop-color:#FFC244"/>
				<stop  offset="0.8667" style="stop-color:#FEBA46"/>
				<stop  offset="0.916" style="stop-color:#FCAD49"/>
				<stop  offset="0.958" style="stop-color:#F99A4D"/>
				<stop  offset="0.9955" style="stop-color:#F58152"/>
				<stop  offset="1" style="stop-color:#F57E53"/>
			</linearGradient>
			<path style="fill:url(#SVGID_00000137106458174077210450000005766493411429122468_);" d="M862,2127.3
				c-177.5,0-362.3,15.6-391.8,45.8c1.2,1.1,2.2,2.2,3.2,3.4c24.9-21,177.5-42.1,388.6-42.1c216.5,0,371.6,22.2,390.3,43.7
				c0.9-1.2,1.9-2.3,3-3.4C1230.9,2143.5,1042.6,2127.3,862,2127.3z"/>
		</g>
		<g>
			
				<linearGradient id="SVGID_00000145036841901913576390000003649051786238179519_" gradientUnits="userSpaceOnUse" x1="285.1456" y1="2150.6152" x2="1200.9982" y2="2150.6152">
				<stop  offset="0" style="stop-color:#F57E53"/>
				<stop  offset="4.537139e-03" style="stop-color:#F58152"/>
				<stop  offset="4.198170e-02" style="stop-color:#F99A4D"/>
				<stop  offset="8.401687e-02" style="stop-color:#FCAD49"/>
				<stop  offset="0.1333" style="stop-color:#FEBA46"/>
				<stop  offset="0.1962" style="stop-color:#FFC244"/>
				<stop  offset="0.3183" style="stop-color:#FFC444"/>
				<stop  offset="0.455" style="stop-color:#FDB946"/>
				<stop  offset="0.6941" style="stop-color:#F99C4C"/>
				<stop  offset="0.9964" style="stop-color:#F36F56"/>
			</linearGradient>
			<path style="fill:url(#SVGID_00000145036841901913576390000003649051786238179519_);" d="M353.2,2080.6v88.3
				c0,28.5,178.2,51.7,398,51.7c219.8,0,398-23.1,398-51.7v-88.3H353.2z"/>
			
				<linearGradient id="SVGID_00000044164742493532239020000012509194238549956012_" gradientUnits="userSpaceOnUse" x1="747.2809" y1="2047.4478" x2="795.5636" y2="2451.645">
				<stop  offset="0" style="stop-color:#FFDB44"/>
				<stop  offset="1" style="stop-color:#FEEF06"/>
			</linearGradient>
			<path style="fill:url(#SVGID_00000044164742493532239020000012509194238549956012_);" d="M1149.3,2080.6
				c0,28.5-178.2,51.7-398,51.7c-219.8,0-398-23.1-398-51.7c0-28.5,178.2-51.7,398-51.7C971.1,2029,1149.3,2052.1,1149.3,2080.6z"/>
			
				<linearGradient id="SVGID_00000093165141027172262280000007528228172838511533_" gradientUnits="userSpaceOnUse" x1="745.1812" y1="2029.4216" x2="760.0097" y2="2153.5576">
				<stop  offset="0" style="stop-color:#FFDB44"/>
				<stop  offset="1" style="stop-color:#FEEF06"/>
			</linearGradient>
			<path style="fill:url(#SVGID_00000093165141027172262280000007528228172838511533_);" d="M751.2,2135.9
				c-194.7,0-398.3-18.6-398.3-54.5c0-2,0.7-5.4,2.7-5.4c2,0,1.1,2.7,1.1,4.7c0,22.7,162,48.1,394.5,48.1s394.5-25.3,394.5-48.1
				c0-2,0.3-3.8,2.3-3.8c2,0,1.5,2.6,1.5,4.6C1149.5,2117.3,945.9,2135.9,751.2,2135.9z"/>
			<g>
				<path class="st21" d="M713.6,2083.5c3.9-2.7,8.1-5.4,12.5-8c4.4-2.6,10.1-5,17.1-7.1c7-2.1,15.7-3.8,26.2-5.2
					c10.5-1.3,23.6-2,39.3-2.1c15.4-0.1,29.8,0.4,43.3,1.5c13.5,1,25.4,2.6,35.6,4.7c10.2,2.1,18.6,4.7,25,7.8
					c6.4,3.1,10.2,6.6,11.4,10.6l44.8,0.5c3.3,0,6.1,0.3,8.6,0.8c2.5,0.5,3.7,1.2,3.7,1.9l0,3.7l-57.6-0.6c-2,4.5-7.2,8.7-15.4,12.4
					c-8.2,3.8-18.8,7-31.6,9.7l-21-2.9c-1.9-0.3-3.4-0.7-4.6-1.1c-1.2-0.4-1.8-0.9-1.8-1.4c0-0.7,1.6-1.5,4.9-2.4
					c3.2-0.9,6.9-2,11-3.4c4.1-1.3,8.1-2.9,12-4.8c3.9-1.8,6.5-4,7.9-6.5l-136-1.3c-3.6,2.6-7.6,5.2-12,7.7
					c-4.4,2.5-10.3,4.8-17.6,6.9c-7.3,2-16.4,3.7-27.4,4.9c-11,1.3-24.7,1.9-41.3,2c-12.5,0.1-24.6-0.4-36.5-1.4
					c-11.9-1-22.4-2.5-31.7-4.5c-9.2-2-16.8-4.5-22.7-7.4c-5.9-3-9.2-6.3-9.9-10.2l-36.9-0.4c-3.3,0-6.1-0.3-8.7-0.8
					c-2.5-0.5-3.8-1.1-3.8-2l0-3.7l50.4,0.5c2.2-3.9,6.8-7.3,13.8-10.2c7-2.9,15.5-5.5,25.6-7.7l16.9,2.3c5.1,0.7,7.7,1.6,7.7,2.5
					c0,0.5-1,1.2-3.2,1.9c-2.2,0.8-4.7,1.7-7.6,2.8c-2.9,1.1-5.7,2.3-8.4,3.8c-2.7,1.4-4.8,3.1-6.1,4.9L713.6,2083.5z M589.2,2088.6
					c1,2.4,3.3,4.5,6.7,6.3c3.4,1.8,7.7,3.2,12.8,4.3c5.1,1.1,10.9,2,17.3,2.5c6.4,0.5,13.1,0.8,20.1,0.7c8.2,0,15.3-0.4,21.4-1.1
					c6-0.7,11.4-1.6,16-2.7c4.6-1.1,8.6-2.5,12-4c3.4-1.5,6.4-3.1,9.2-4.9L589.2,2088.6z M885.2,2085.3c-1-2.5-3.5-4.6-7.3-6.4
					c-3.8-1.8-8.8-3.4-14.7-4.7c-6-1.3-12.9-2.2-20.9-2.8c-7.9-0.6-16.7-0.9-26.3-0.8c-8.5,0-15.9,0.4-22,1.1
					c-6.1,0.7-11.5,1.7-16,2.9c-4.5,1.2-8.4,2.6-11.5,4.2c-3.2,1.6-6.1,3.3-8.8,5.2L885.2,2085.3z"/>
			</g>
			
				<linearGradient id="SVGID_00000062909647428709357580000002598131317491404705_" gradientUnits="userSpaceOnUse" x1="94.1282" y1="1750.6228" x2="108.9039" y2="1874.3175" gradientTransform="matrix(-1 0 0 -1 853.249 3891.1655)">
				<stop  offset="3.597120e-03" style="stop-color:#F36F56"/>
				<stop  offset="0.3059" style="stop-color:#F99C4C"/>
				<stop  offset="0.545" style="stop-color:#FDB946"/>
				<stop  offset="0.6817" style="stop-color:#FFC444"/>
				<stop  offset="0.8038" style="stop-color:#FFC244"/>
				<stop  offset="0.8667" style="stop-color:#FEBA46"/>
				<stop  offset="0.916" style="stop-color:#FCAD49"/>
				<stop  offset="0.958" style="stop-color:#F99A4D"/>
				<stop  offset="0.9955" style="stop-color:#F58152"/>
				<stop  offset="1" style="stop-color:#F57E53"/>
			</linearGradient>
			<path style="fill:url(#SVGID_00000062909647428709357580000002598131317491404705_);" d="M751.3,2034.6
				c-177.5,0-362.3,15.6-391.8,45.9c1.2,1.1,2.2,2.2,3.2,3.4c24.9-21,177.5-42.1,388.6-42.1c216.5,0,371.6,22.2,390.3,43.7
				c0.9-1.2,1.9-2.3,3-3.4C1120.2,2050.8,931.9,2034.6,751.3,2034.6z"/>
		</g>
		<g>
			
				<linearGradient id="SVGID_00000183928720849848637300000017271828214447200395_" gradientUnits="userSpaceOnUse" x1="380.6256" y1="2058.1504" x2="1296.4783" y2="2058.1504">
				<stop  offset="0" style="stop-color:#F57E53"/>
				<stop  offset="4.537139e-03" style="stop-color:#F58152"/>
				<stop  offset="4.198170e-02" style="stop-color:#F99A4D"/>
				<stop  offset="8.401687e-02" style="stop-color:#FCAD49"/>
				<stop  offset="0.1333" style="stop-color:#FEBA46"/>
				<stop  offset="0.1962" style="stop-color:#FFC244"/>
				<stop  offset="0.3183" style="stop-color:#FFC444"/>
				<stop  offset="0.455" style="stop-color:#FDB946"/>
				<stop  offset="0.6941" style="stop-color:#F99C4C"/>
				<stop  offset="0.9964" style="stop-color:#F36F56"/>
			</linearGradient>
			<path style="fill:url(#SVGID_00000183928720849848637300000017271828214447200395_);" d="M448.7,1988.2v88.3
				c0,28.5,178.2,51.7,398,51.7c219.8,0,398-23.1,398-51.7v-88.3H448.7z"/>
			
				<linearGradient id="SVGID_00000018919977278374023650000013047947493483104129_" gradientUnits="userSpaceOnUse" x1="842.7601" y1="1954.9832" x2="891.043" y2="2359.1809">
				<stop  offset="0" style="stop-color:#FFDB44"/>
				<stop  offset="1" style="stop-color:#FEEF06"/>
			</linearGradient>
			<path style="fill:url(#SVGID_00000018919977278374023650000013047947493483104129_);" d="M1244.8,1988.2
				c0,28.5-178.2,51.7-398,51.7s-398-23.1-398-51.7c0-28.5,178.2-51.7,398-51.7S1244.8,1959.7,1244.8,1988.2z"/>
			
				<linearGradient id="SVGID_00000183207326278720513170000003694816722309911196_" gradientUnits="userSpaceOnUse" x1="840.6609" y1="1936.9574" x2="855.4894" y2="2061.0933">
				<stop  offset="0" style="stop-color:#FFDB44"/>
				<stop  offset="1" style="stop-color:#FEEF06"/>
			</linearGradient>
			<path style="fill:url(#SVGID_00000183207326278720513170000003694816722309911196_);" d="M846.7,2043.4
				c-194.7,0-398.3-18.6-398.3-54.5c0-2,0.7-5.4,2.7-5.4c2,0,1.1,2.7,1.1,4.7c0,22.7,162,48.1,394.5,48.1s394.5-25.3,394.5-48.1
				c0-2,0.3-3.8,2.3-3.8c2,0,1.5,2.6,1.5,4.6C1245,2024.8,1041.4,2043.4,846.7,2043.4z"/>
			<g>
				<path class="st21" d="M809.1,1991.1c3.9-2.7,8.1-5.4,12.5-8c4.4-2.6,10.1-5,17.1-7.1c7-2.1,15.7-3.8,26.2-5.2
					c10.5-1.3,23.6-2,39.3-2.1c15.4-0.1,29.8,0.4,43.3,1.5c13.5,1,25.4,2.6,35.6,4.7c10.2,2.1,18.6,4.7,25,7.8
					c6.4,3.1,10.2,6.6,11.4,10.6l44.8,0.5c3.3,0,6.1,0.3,8.6,0.8c2.5,0.5,3.7,1.2,3.7,1.9l0,3.7l-57.6-0.6c-2,4.5-7.2,8.7-15.4,12.4
					c-8.2,3.8-18.8,7-31.6,9.7l-21-2.9c-1.9-0.3-3.4-0.7-4.6-1.1c-1.2-0.4-1.8-0.9-1.8-1.4c0-0.7,1.6-1.5,4.9-2.4
					c3.2-0.9,6.9-2,11-3.4c4.1-1.3,8.1-2.9,12-4.8c3.9-1.8,6.5-4,7.9-6.6l-136-1.3c-3.6,2.6-7.6,5.2-12,7.7
					c-4.4,2.5-10.3,4.8-17.6,6.9c-7.3,2-16.4,3.7-27.4,4.9c-11,1.3-24.7,1.9-41.3,2c-12.5,0.1-24.6-0.4-36.5-1.4
					c-11.9-1-22.4-2.5-31.7-4.5c-9.2-2-16.8-4.5-22.7-7.4c-5.9-3-9.2-6.3-9.9-10.2l-36.9-0.4c-3.3,0-6.1-0.3-8.7-0.8
					c-2.5-0.5-3.8-1.1-3.8-2l0-3.7l50.4,0.5c2.2-3.9,6.8-7.3,13.8-10.2c7-2.9,15.5-5.5,25.6-7.7l16.9,2.3c5.1,0.7,7.7,1.6,7.7,2.5
					c0,0.5-1,1.2-3.2,1.9c-2.2,0.8-4.7,1.7-7.6,2.8c-2.9,1.1-5.7,2.3-8.4,3.8c-2.7,1.4-4.8,3.1-6.1,4.9L809.1,1991.1z M684.6,1996.1
					c1,2.4,3.3,4.5,6.7,6.3c3.4,1.8,7.7,3.2,12.8,4.3c5.1,1.1,10.9,2,17.3,2.5c6.4,0.5,13.1,0.8,20.1,0.7c8.2,0,15.3-0.4,21.4-1.1
					c6-0.7,11.4-1.6,16-2.7c4.6-1.1,8.6-2.5,12-4c3.4-1.5,6.4-3.1,9.2-4.9L684.6,1996.1z M980.7,1992.8c-1-2.5-3.5-4.6-7.3-6.4
					c-3.8-1.8-8.8-3.4-14.7-4.7c-6-1.3-12.9-2.2-20.9-2.8c-7.9-0.6-16.7-0.9-26.3-0.8c-8.5,0-15.9,0.4-22,1.1
					c-6.1,0.7-11.5,1.7-16,2.9c-4.5,1.2-8.4,2.6-11.5,4.2c-3.2,1.6-6.1,3.3-8.8,5.2L980.7,1992.8z"/>
			</g>
			
				<linearGradient id="SVGID_00000055689056551610623140000015457237622985885829_" gradientUnits="userSpaceOnUse" x1="-1.3512" y1="1843.0872" x2="13.4245" y2="1966.7817" gradientTransform="matrix(-1 0 0 -1 853.249 3891.1655)">
				<stop  offset="3.597120e-03" style="stop-color:#F36F56"/>
				<stop  offset="0.3059" style="stop-color:#F99C4C"/>
				<stop  offset="0.545" style="stop-color:#FDB946"/>
				<stop  offset="0.6817" style="stop-color:#FFC444"/>
				<stop  offset="0.8038" style="stop-color:#FFC244"/>
				<stop  offset="0.8667" style="stop-color:#FEBA46"/>
				<stop  offset="0.916" style="stop-color:#FCAD49"/>
				<stop  offset="0.958" style="stop-color:#F99A4D"/>
				<stop  offset="0.9955" style="stop-color:#F58152"/>
				<stop  offset="1" style="stop-color:#F57E53"/>
			</linearGradient>
			<path style="fill:url(#SVGID_00000055689056551610623140000015457237622985885829_);" d="M846.8,1942.1
				c-177.5,0-362.3,15.6-391.8,45.9c1.2,1.1,2.2,2.2,3.2,3.4c24.9-21,177.5-42.1,388.6-42.1c216.5,0,371.6,22.2,390.3,43.7
				c0.9-1.2,1.9-2.3,3-3.4C1215.7,1958.3,1027.4,1942.1,846.8,1942.1z"/>
		</g>
		<g>
			
				<linearGradient id="SVGID_00000041265563976053970690000018003688769117013409_" gradientUnits="userSpaceOnUse" x1="330.9628" y1="1965.4147" x2="1246.8146" y2="1965.4147">
				<stop  offset="0" style="stop-color:#F57E53"/>
				<stop  offset="4.537139e-03" style="stop-color:#F58152"/>
				<stop  offset="4.198170e-02" style="stop-color:#F99A4D"/>
				<stop  offset="8.401687e-02" style="stop-color:#FCAD49"/>
				<stop  offset="0.1333" style="stop-color:#FEBA46"/>
				<stop  offset="0.1962" style="stop-color:#FFC244"/>
				<stop  offset="0.3183" style="stop-color:#FFC444"/>
				<stop  offset="0.455" style="stop-color:#FDB946"/>
				<stop  offset="0.6941" style="stop-color:#F99C4C"/>
				<stop  offset="0.9964" style="stop-color:#F36F56"/>
			</linearGradient>
			<path style="fill:url(#SVGID_00000041265563976053970690000018003688769117013409_);" d="M399,1895.4v88.3
				c0,28.5,178.2,51.7,398,51.7s398-23.1,398-51.7v-88.3H399z"/>
			
				<linearGradient id="SVGID_00000124154178592883548620000005913683439617955724_" gradientUnits="userSpaceOnUse" x1="793.0977" y1="1862.2473" x2="841.3806" y2="2266.4458">
				<stop  offset="0" style="stop-color:#FFDB44"/>
				<stop  offset="1" style="stop-color:#FEEF06"/>
			</linearGradient>
			<path style="fill:url(#SVGID_00000124154178592883548620000005913683439617955724_);" d="M1195.1,1895.4
				c0,28.5-178.2,51.7-398,51.7c-219.8,0-398-23.1-398-51.7s178.2-51.7,398-51.7C1016.9,1843.8,1195.1,1866.9,1195.1,1895.4z"/>
			
				<linearGradient id="SVGID_00000016755026119756876440000013330658411704704921_" gradientUnits="userSpaceOnUse" x1="790.9982" y1="1844.2212" x2="805.8267" y2="1968.3575">
				<stop  offset="0" style="stop-color:#FFDB44"/>
				<stop  offset="1" style="stop-color:#FEEF06"/>
			</linearGradient>
			<path style="fill:url(#SVGID_00000016755026119756876440000013330658411704704921_);" d="M797.1,1950.7
				c-194.7,0-398.3-18.6-398.3-54.5c0-2,0.7-5.4,2.7-5.4c2,0,1.1,2.7,1.1,4.7c0,22.7,162,48.1,394.5,48.1
				c232.5,0,394.5-25.3,394.5-48.1c0-2,0.3-3.8,2.3-3.8c2,0,1.5,2.6,1.5,4.6C1195.3,1932.1,991.8,1950.7,797.1,1950.7z"/>
			<g>
				<path class="st21" d="M759.4,1898.3c3.9-2.7,8.1-5.4,12.5-8c4.4-2.6,10.1-5,17.1-7.1c7-2.1,15.7-3.8,26.2-5.2s23.6-2,39.3-2.1
					c15.4-0.1,29.8,0.4,43.3,1.5c13.5,1,25.4,2.6,35.6,4.7c10.2,2.1,18.6,4.7,25,7.8c6.4,3.1,10.2,6.6,11.4,10.6l44.8,0.5
					c3.3,0,6.1,0.3,8.6,0.8c2.5,0.5,3.7,1.2,3.7,1.9l0,3.7l-57.6-0.6c-2,4.5-7.2,8.7-15.4,12.4c-8.2,3.8-18.8,7-31.6,9.7l-21-2.9
					c-1.9-0.3-3.4-0.7-4.6-1.1c-1.2-0.4-1.8-0.9-1.8-1.4c0-0.7,1.6-1.5,4.9-2.4c3.2-0.9,6.9-2,11-3.4c4.1-1.3,8.1-2.9,12-4.8
					c3.9-1.8,6.5-4,7.9-6.6l-136-1.3c-3.6,2.6-7.6,5.2-12,7.7c-4.4,2.5-10.3,4.8-17.6,6.9c-7.3,2-16.4,3.7-27.4,4.9
					c-11,1.3-24.7,1.9-41.3,2c-12.5,0.1-24.6-0.4-36.5-1.4c-11.9-1-22.4-2.5-31.7-4.5c-9.2-2-16.8-4.5-22.7-7.4
					c-5.9-3-9.2-6.3-9.9-10.2l-36.9-0.4c-3.3,0-6.1-0.3-8.7-0.8c-2.5-0.5-3.8-1.1-3.8-2l0-3.7l50.4,0.5c2.2-3.9,6.8-7.3,13.8-10.2
					c7-2.9,15.5-5.5,25.6-7.7l16.9,2.3c5.1,0.7,7.7,1.6,7.7,2.5c0,0.5-1,1.2-3.2,1.9c-2.2,0.8-4.7,1.7-7.6,2.8
					c-2.9,1.1-5.7,2.3-8.4,3.8c-2.7,1.4-4.8,3.1-6.1,4.9L759.4,1898.3z M635,1903.4c1,2.4,3.3,4.5,6.7,6.3c3.4,1.8,7.7,3.2,12.8,4.3
					c5.1,1.1,10.9,2,17.3,2.5c6.4,0.5,13.1,0.8,20.1,0.7c8.2,0,15.3-0.4,21.4-1.1c6-0.7,11.4-1.6,16-2.7c4.6-1.1,8.6-2.5,12-4
					s6.4-3.1,9.2-4.9L635,1903.4z M931.1,1900.1c-1-2.5-3.5-4.6-7.3-6.4c-3.8-1.8-8.8-3.4-14.7-4.7c-6-1.3-12.9-2.2-20.9-2.8
					c-7.9-0.6-16.7-0.9-26.3-0.8c-8.5,0-15.9,0.4-22,1.1c-6.1,0.7-11.5,1.7-16,2.9c-4.5,1.2-8.4,2.6-11.5,4.2
					c-3.2,1.6-6.1,3.3-8.8,5.2L931.1,1900.1z"/>
			</g>
			
				<linearGradient id="SVGID_00000043430363526811500720000000042195158688797069_" gradientUnits="userSpaceOnUse" x1="48.3111" y1="1935.8225" x2="63.087" y2="2059.5181" gradientTransform="matrix(-1 0 0 -1 853.249 3891.1655)">
				<stop  offset="3.597120e-03" style="stop-color:#F36F56"/>
				<stop  offset="0.3059" style="stop-color:#F99C4C"/>
				<stop  offset="0.545" style="stop-color:#FDB946"/>
				<stop  offset="0.6817" style="stop-color:#FFC444"/>
				<stop  offset="0.8038" style="stop-color:#FFC244"/>
				<stop  offset="0.8667" style="stop-color:#FEBA46"/>
				<stop  offset="0.916" style="stop-color:#FCAD49"/>
				<stop  offset="0.958" style="stop-color:#F99A4D"/>
				<stop  offset="0.9955" style="stop-color:#F58152"/>
				<stop  offset="1" style="stop-color:#F57E53"/>
			</linearGradient>
			<path style="fill:url(#SVGID_00000043430363526811500720000000042195158688797069_);" d="M797.1,1849.4
				c-177.5,0-362.3,15.6-391.8,45.9c1.2,1.1,2.2,2.2,3.2,3.4c24.9-21,177.5-42.1,388.6-42.1c216.5,0,371.6,22.2,390.3,43.7
				c0.9-1.2,1.9-2.3,3-3.4C1166,1865.6,977.8,1849.4,797.1,1849.4z"/>
		</g>
		<g>
			
				<linearGradient id="SVGID_00000174581010476834531330000010725663894905580987_" gradientUnits="userSpaceOnUse" x1="1114.7327" y1="1694.2427" x2="2030.5896" y2="1694.2427" gradientTransform="matrix(0.5796 0.8149 -0.8149 0.5796 1946.4208 52.3896)">
				<stop  offset="0" style="stop-color:#F57E53"/>
				<stop  offset="4.537139e-03" style="stop-color:#F58152"/>
				<stop  offset="4.198170e-02" style="stop-color:#F99A4D"/>
				<stop  offset="8.401687e-02" style="stop-color:#FCAD49"/>
				<stop  offset="0.1333" style="stop-color:#FEBA46"/>
				<stop  offset="0.1962" style="stop-color:#FFC244"/>
				<stop  offset="0.3183" style="stop-color:#FFC444"/>
				<stop  offset="0.455" style="stop-color:#FDB946"/>
				<stop  offset="0.6941" style="stop-color:#F99C4C"/>
				<stop  offset="0.9964" style="stop-color:#F36F56"/>
			</linearGradient>
			<path style="fill:url(#SVGID_00000174581010476834531330000010725663894905580987_);" d="M1308.3,1957.7l-71.9,51.2
				c-23.2,16.5,61.2,175.2,188.6,354.3c127.4,179.1,249.6,311,272.8,294.4l71.9-51.2L1308.3,1957.7z"/>
			
				<linearGradient id="SVGID_00000027597415746290986490000016031015611954665650_" gradientUnits="userSpaceOnUse" x1="1576.8689" y1="1591.0858" x2="1625.1458" y2="1995.2335" gradientTransform="matrix(0.5796 0.8149 -0.8149 0.5796 1946.4208 52.3896)">
				<stop  offset="0" style="stop-color:#FFDB44"/>
				<stop  offset="1" style="stop-color:#FEEF06"/>
			</linearGradient>
			<path style="fill:url(#SVGID_00000027597415746290986490000016031015611954665650_);" d="M1769.8,2606.4
				c-23.2,16.5-145.4-115.3-272.8-294.4c-127.4-179.1-211.9-337.8-188.6-354.3c23.2-16.5,145.4,115.3,272.8,294.4
				C1708.6,2431.2,1793,2589.9,1769.8,2606.4z"/>
			
				<linearGradient id="SVGID_00000085247540401500758510000011499118212644175783_" gradientUnits="userSpaceOnUse" x1="1574.7706" y1="1573.0687" x2="1589.5966" y2="1697.1829" gradientTransform="matrix(0.5796 0.8149 -0.8149 0.5796 1946.4208 52.3896)">
				<stop  offset="0" style="stop-color:#FFDB44"/>
				<stop  offset="1" style="stop-color:#FEEF06"/>
			</linearGradient>
			<path style="fill:url(#SVGID_00000085247540401500758510000011499118212644175783_);" d="M1494.1,2314
				c-112.8-158.7-215.7-335.3-186.5-356.1c1.6-1.1,4.8-2.6,6-1c1.1,1.6-1.6,2.5-3.2,3.6c-18.5,13.2,54.7,159.9,189.5,349.3
				c134.7,189.4,249.3,306.8,267.8,293.6c1.6-1.1,3.3-1.9,4.4-0.3c1.1,1.6-1.3,2.7-2.9,3.9C1740,2627.8,1606.9,2472.7,1494.1,2314z"
				/>
			<g>
				<path class="st21" d="M1514.9,2253.1c4.5,1.6,9,3.5,13.8,5.6c4.7,2.1,10,5.4,15.7,9.8c5.8,4.5,12.3,10.6,19.4,18.4
					c7.2,7.8,15.4,18.1,24.5,30.8c9,12.5,16.9,24.5,23.9,36.2c7,11.6,12.6,22.2,16.8,31.8c4.2,9.5,7,17.9,8.2,24.9
					c1.2,7,0.5,12.2-2,15.5l25.6,36.8c1.9,2.7,3.3,5.2,4.3,7.5c1,2.3,1.2,3.7,0.6,4.2l-3,2.2l-32.9-47.3c-4.9,1-11.2-0.8-19.1-5.4
					c-7.8-4.5-16.6-11.2-26.3-20.1l-9.8-18.8c-0.9-1.7-1.5-3.2-1.8-4.4c-0.3-1.2-0.3-2,0.1-2.3c0.6-0.4,2.2,0.4,4.8,2.6
					c2.6,2.1,5.7,4.4,9.1,7c3.5,2.5,7.1,4.9,10.8,7c3.8,2.1,7,3,9.9,2.6l-77.7-111.6c-4.2-1.4-8.7-3.2-13.3-5.3
					c-4.6-2.2-9.9-5.6-15.8-10.4c-5.9-4.8-12.5-11.3-19.9-19.4c-7.4-8.2-15.9-19-25.6-32.5c-7.3-10.1-13.9-20.3-20-30.6
					c-6.1-10.3-11-19.7-14.7-28.4c-3.7-8.7-6.1-16.3-7.1-22.8c-1-6.5-0.2-11.2,2.6-14l-21.1-30.3c-1.9-2.7-3.3-5.2-4.4-7.5
					c-1.1-2.4-1.3-3.8-0.6-4.3l3-2.2l28.8,41.4c4.5-0.4,9.9,1.3,16.3,5.3c6.4,4,13.4,9.5,21.1,16.4l7.9,15.1
					c2.4,4.6,3.2,7.2,2.4,7.7c-0.4,0.3-1.6-0.2-3.4-1.4c-1.9-1.3-4.1-2.8-6.7-4.6c-2.5-1.7-5.2-3.3-8-4.6c-2.8-1.4-5.3-2.1-7.6-2.2
					L1514.9,2253.1z M1438.7,2154.6c-1.4,2.2-1.8,5.3-1.2,9.1c0.6,3.8,1.8,8.1,3.9,13c2.1,4.8,4.7,10,8,15.5
					c3.3,5.5,7,11.2,11.1,16.8c4.8,6.6,9.2,12.2,13.3,16.8c4,4.5,7.9,8.4,11.5,11.5c3.6,3.1,7,5.6,10.2,7.5c3.2,1.9,6.3,3.4,9.3,4.6
					L1438.7,2154.6z M1613,2393.9c1.4-2.2,1.7-5.5,1-9.7c-0.7-4.2-2.3-9.1-4.8-14.7c-2.4-5.6-5.7-11.8-9.8-18.7
					c-4.1-6.8-8.9-14.1-14.5-21.9c-5-6.9-9.6-12.7-13.7-17.3c-4.1-4.6-8-8.4-11.6-11.4c-3.6-3-7-5.3-10.1-6.9
					c-3.1-1.6-6.3-3-9.3-4.2L1613,2393.9z"/>
			</g>
			
				<linearGradient id="SVGID_00000164512679103380051200000004969132315529792947_" gradientUnits="userSpaceOnUse" x1="-734.8914" y1="2206.5457" x2="-720.1182" y2="2330.2183" gradientTransform="matrix(-0.5796 -0.8149 0.8149 -0.5796 -729.2461 3003.2185)">
				<stop  offset="3.597120e-03" style="stop-color:#F36F56"/>
				<stop  offset="0.3059" style="stop-color:#F99C4C"/>
				<stop  offset="0.545" style="stop-color:#FDB946"/>
				<stop  offset="0.6817" style="stop-color:#FFC444"/>
				<stop  offset="0.8038" style="stop-color:#FFC244"/>
				<stop  offset="0.8667" style="stop-color:#FEBA46"/>
				<stop  offset="0.916" style="stop-color:#FCAD49"/>
				<stop  offset="0.958" style="stop-color:#F99A4D"/>
				<stop  offset="0.9955" style="stop-color:#F58152"/>
				<stop  offset="1" style="stop-color:#F57E53"/>
			</linearGradient>
			<path style="fill:url(#SVGID_00000164512679103380051200000004969132315529792947_);" d="M1576.6,2255.4
				c-102.9-144.6-222.7-286.2-264.5-292.7c-0.2,1.6-0.5,3.1-0.9,4.6c31.5,8.1,137.2,120.2,259.6,292.3
				c125.5,176.4,197.2,315.7,190.6,343.4c1.5,0.1,3,0.2,4.5,0.5C1777.2,2565.4,1681.3,2402.6,1576.6,2255.4z"/>
		</g>
	</g>
	<g>
		<g>
			<g>
				
					<linearGradient id="SVGID_00000181078151586797252150000017548900297403899803_" gradientUnits="userSpaceOnUse" x1="1786.2866" y1="1764.7305" x2="2263.6602" y2="1764.7305">
					<stop  offset="0" style="stop-color:#FFC444"/>
					<stop  offset="0.9964" style="stop-color:#F36F56"/>
				</linearGradient>
				<path style="fill:url(#SVGID_00000181078151586797252150000017548900297403899803_);" d="M2253.1,1540.8l-226.9-212.5
					l-227.8,212.5c-4.4,4-7.7,9.4-9.8,15.1c-1.5,4.2-2.3,8.6-2.3,12.9v595.5c0,20.3,17.4,36.7,37.7,36.7h405.2
					c20.3,0,34.5-16.4,34.5-36.7v-595.5C2263.7,1558.6,2260.5,1547.8,2253.1,1540.8z M2026.6,1433.1c22.9,0,41.6,18.6,41.6,41.6
					c0,23-18.6,41.6-41.6,41.6c-23,0-41.6-18.6-41.6-41.6C1985,1451.7,2003.6,1433.1,2026.6,1433.1z"/>
				<g>
					<path class="st10" d="M2069.2,1805.3c-10-2.8-19.1-5.6-27.2-8.2c-35-11.4-52-21.6-52-33.8c0-6.5,2.9-13.3,11.7-18.1
						c7.4-4,18.9-6.6,36.3-6.6c52.2,0,86.4,16.2,103.8,22.8l20.8-83.4c-23.4-9.6-52.6-18.6-101.7-20.4V1606H1989v55.8
						c-26.2,4.9-52,14.3-70.6,27.4c0,0,0,0.1-0.1,0.1c-29.9,21.2-45.7,51.8-45.7,87.7c0,65.4,55.3,97.3,125.5,114.1
						c49.8,12,68.5,22.2,68.5,40.2c0,19.8-24,27-55.8,27c-46.8,0-90-15.6-120-30l-22.1,86.4c25.8,13.8,74.4,27,120.2,29.4v55.6h71.9
						v-61c29.4-4.2,49.4-12.4,67.6-23.6c0.1-0.1,0.6-0.1,0.7-0.2c35.9-22.2,54.7-56.1,54.7-93.9
						C2183.9,1861.7,2152.6,1828.1,2069.2,1805.3z"/>
				</g>
			</g>
			
				<linearGradient id="SVGID_00000052064665971445259630000006214925772999132859_" gradientUnits="userSpaceOnUse" x1="1786.2866" y1="1878.527" x2="2263.6602" y2="1878.527">
				<stop  offset="0" style="stop-color:#FFC444"/>
				<stop  offset="0.9964" style="stop-color:#F36F56"/>
			</linearGradient>
			<path style="opacity:0.2;fill:url(#SVGID_00000052064665971445259630000006214925772999132859_);" d="M2263.7,2127.8v36.6
				c0,20.3-14.2,36.7-34.5,36.7H1824c-20.3,0-37.7-16.4-37.7-36.7v-595.5c0-4.3,0.9-8.7,2.4-12.9c3.6,26.4,11.6,51.9,28.5,72
				c26,30.7,66.2,43.9,101.5,61.3c2.4,1.2,4.7,2.4,7,3.6c27.3,14.3,53.5,31.2,75.9,52.3c10.1,9.5,19.4,19.9,27.6,31.3
				c4.9,6.8,9.1,13.7,12.7,20.6c24.4,46.5,24.5,97.3,40.4,148c8.7,27.9,26.2,50.2,46.7,70c14.5,14.1,29.8,27,45.2,39.6
				C2202.4,2077.6,2237.5,2100.4,2263.7,2127.8z"/>
		</g>
		<g>
			
				<linearGradient id="SVGID_00000147214707910827935390000008951627440613291913_" gradientUnits="userSpaceOnUse" x1="-234.2332" y1="4523.5874" x2="-86.719" y2="424.8619" gradientTransform="matrix(-0.8906 -0.4549 -0.4549 0.8906 1908.1799 382.3786)">
				<stop  offset="0" style="stop-color:#AA80F9"/>
				<stop  offset="0.9964" style="stop-color:#6165D7"/>
			</linearGradient>
			<path style="fill:url(#SVGID_00000147214707910827935390000008951627440613291913_);" d="M1491.9,646.5l-138.1,270.4
				c-14.9,29.1-8.7,66.3,15.9,106.6c5.9,9.7,12.2,19.2,20.1,29.1c42.8,54.1,113,110,200.1,154.5c87.1,44.5,173.4,68.5,242.2,71.4
				c65.2,2.8,113.8-13.7,132.3-49.8l138.1-270.4L1491.9,646.5z"/>
			
				<linearGradient id="SVGID_00000083077643600966776100000016318919569331763107_" gradientUnits="userSpaceOnUse" x1="-129.5116" y1="878.3943" x2="-118.8592" y2="582.4128" gradientTransform="matrix(-0.8906 -0.4549 -0.4549 0.8906 1908.1799 382.3786)">
				<stop  offset="0" style="stop-color:#AA80F9"/>
				<stop  offset="0.9964" style="stop-color:#6165D7"/>
			</linearGradient>
			<path style="opacity:0.3;fill:url(#SVGID_00000083077643600966776100000016318919569331763107_);" d="M1368.5,1022.9
				c5.9,9.7,12.8,19.5,20.6,29.4c42.8,54.1,113.3,110.2,200.4,154.7c87.1,44.5,173.5,68.5,242.4,71.5c65.2,2.8,114-13.6,132.4-49.7
				l71.5-139.9c-51.4-5.7-128.4-4.6-166.1,41.3c-59,71.9-202.2,33.3-321.6-50.7C1495.5,1042.4,1429.9,1024.8,1368.5,1022.9z"/>
			
				<linearGradient id="SVGID_00000004504512506957367380000017826244644477346181_" gradientUnits="userSpaceOnUse" x1="-41.6056" y1="119.1567" x2="-112.8" y2="650.287" gradientTransform="matrix(-0.8906 -0.4549 -0.4549 0.8906 1908.1799 382.3786)">
				<stop  offset="0" style="stop-color:#AA80F9"/>
				<stop  offset="0.9964" style="stop-color:#6165D7"/>
			</linearGradient>
			<polygon style="fill:url(#SVGID_00000004504512506957367380000017826244644477346181_);" points="1305,629.7 1881.3,637.5 
				2225.4,1099.8 2245.3,1106.5 2240.1,1115.3 2240.1,1115.3 1641,1107.4 1283.5,626.7 1283.5,626.7 1286.7,620.4 			"/>
			
				<linearGradient id="SVGID_00000065786572388039525540000000071583794608489141_" gradientUnits="userSpaceOnUse" x1="-50.8023" y1="-33.4351" x2="-144.0279" y2="1151.215" gradientTransform="matrix(-0.8906 -0.4549 -0.4549 0.8906 1908.1799 382.3786)">
				<stop  offset="0" style="stop-color:#AA80F9"/>
				<stop  offset="0.9964" style="stop-color:#6165D7"/>
			</linearGradient>
			<polygon style="fill:url(#SVGID_00000065786572388039525540000000071583794608489141_);" points="1288,617.5 1337.3,683.7 
				1645.9,1098.3 2245.3,1106.4 2141.3,966.7 1887.4,625.6 			"/>
			<path class="st61" d="M1337.3,683.7l308.6,414.6l599.4,8.1l-104-139.8c-35.7-7.4-74.6-2.5-107.5,31.7c-88,91.6-205.5,54-262.2-33
				c-56.7-87-149.2-136.5-235.3-133.3C1461.1,834.9,1391.4,690.7,1337.3,683.7z"/>
			
				<linearGradient id="SVGID_00000098200552999408383610000005560943684044534445_" gradientUnits="userSpaceOnUse" x1="1183.1361" y1="837.0164" x2="1156.6727" y2="1370.6359" gradientTransform="matrix(-1 0 0 1 3085.573 0)">
				<stop  offset="0" style="stop-color:#FFC444"/>
				<stop  offset="0.9964" style="stop-color:#F36F56"/>
			</linearGradient>
			<path style="fill:url(#SVGID_00000098200552999408383610000005560943684044534445_);" d="M2027.3,1365.8c1.4,0,2.7-0.9,3.2-2.2
				c2.6-6.7,0.8-198.5,0.2-257.1c0-0.8-0.3-1.6-0.9-2.2l-236.1-260.6c-1.2-1.4-3.3-1.5-4.7-0.2c-1.4,1.2-1.5,3.3-0.2,4.7
				l235.2,259.7c1,98.3,1.8,246,0.1,253.6c-0.7,1.7,0.2,3.5,2,4.2C2026.5,1365.7,2026.9,1365.8,2027.3,1365.8z"/>
			
				<linearGradient id="SVGID_00000061433619271193253670000014018006170651452319_" gradientUnits="userSpaceOnUse" x1="902.2238" y1="1861.6204" x2="943.2589" y2="1478.0323" gradientTransform="matrix(-0.9998 -1.970000e-02 -1.970000e-02 0.9998 3000.7375 -53.2279)">
				<stop  offset="0" style="stop-color:#FFC444"/>
				<stop  offset="0.9964" style="stop-color:#F36F56"/>
			</linearGradient>
			<path style="fill:url(#SVGID_00000061433619271193253670000014018006170651452319_);" d="M2011.3,1335.6l6.5-10.7
				c2.4-4.1,6.9-6.5,11.6-6.3c4.7,0.2,9,2.9,11.1,7.1l5.7,11.4c1.4,2.7,2.1,5.8,2,8.9l-1.9,94.6c0,2-9.2,3.5-20.1,3.3
				c-10.8-0.2-20-2-19.9-4.1l1.9-94.9C2008.4,1341.6,2009.6,1338.4,2011.3,1335.6z"/>
		</g>
	</g>
</g>
</svg>
