<?xml version="1.0" encoding="utf-8"?>
<!-- Generator: Adobe Illustrator 25.4.1, SVG Export Plug-In . SVG Version: 6.00 Build 0)  -->
<svg version="1.1" id="Layer_1" xmlns="http://www.w3.org/2000/svg" xmlns:xlink="http://www.w3.org/1999/xlink" x="0px" y="0px"
	 viewBox="0 0 2068.2 2115" style="enable-background:new 0 0 2068.2 2115;" xml:space="preserve">
<style type="text/css">
	.st0{fill:#5A91CC;}
	.st1{clip-path:url(#SVGID_00000121968495077191819930000010148070556010547597_);}
	.st2{fill:#002634;}
	.st3{fill:#F8AE8A;}
	.st4{opacity:0.7;fill:#F5B399;}
	.st5{fill:#E6E7E8;}
	.st6{fill:#435C87;}
	.st7{fill:#FFFFFF;}
	.st8{fill:#3C537C;}
	.st9{fill:#F1F1F2;}
	.st10{fill:#D0D2D3;}
	.st11{fill:#E9A483;}
	.st12{opacity:0.5;fill:#F5B399;}
	.st13{fill:#063140;}
	.st14{opacity:0.5;fill:#002634;}
	.st15{fill:#F58C70;}
	.st16{opacity:0.7;}
	.st17{fill:#F5B399;}
	.st18{fill:#AE3F5D;}
	.st19{fill:#EA6580;}
	.st20{fill:#3B2314;}
	.st21{opacity:0.5;fill:#D57E35;}
	.st22{opacity:0.4;fill:#B2E2F9;}
	.st23{fill:none;stroke:#6E361C;stroke-width:21.7159;stroke-miterlimit:10;}
	.st24{fill:none;stroke:#6E361C;stroke-width:17.3727;stroke-linecap:round;stroke-linejoin:round;stroke-miterlimit:10;}
	.st25{fill:#6E361C;}
	.st26{fill:#F8F9E0;}
	.st27{fill:#DADBD9;}
	.st28{fill:#62C9E4;}
	.st29{opacity:0.5;fill:#57B3CB;}
	.st30{opacity:0.5;fill:#00A7D5;}
	.st31{opacity:0.2;fill:#FFFFFF;}
	.st32{fill:#75D0F6;}
	.st33{fill:#93D8F7;}
</style>
<g id="Background">
</g>
<g>
	<path class="st0" d="M803.1,567.5c188.9-53.5,394.1-62.5,581,2.3c353.2,122.6,600.3,444.8,579.1,764.6
		c-11,166-84.3,352.2-182.7,489.3c-265,369.3-994.5,185.3-1358.5-27.8C9.3,1554.3,40,1077.1,339,814.8
		C459.5,709,624,618.3,803.1,567.5z"/>
</g>
<g>
	<defs>
		<path id="SVGID_1_" d="M877.9,63c196.6-83.1,435.5-7.6,621.2,62c350.9,131.6,578.7,528.3,533.3,942.1
			c-23.6,214.7-75.8,501.4-186.3,685.4c-297.6,495.6-1111,247.5-1466.1,0C-22.8,1472,91.2,879,415.5,518.6
			C546.3,373.3,691.5,141.8,877.9,63z"/>
	</defs>
	<clipPath id="SVGID_00000008111029735437478850000017293579403825188788_">
		<use xlink:href="#SVGID_1_"  style="overflow:visible;"/>
	</clipPath>
	<g style="clip-path:url(#SVGID_00000008111029735437478850000017293579403825188788_);">
		<path class="st2" d="M1446.1,703.2c-7.8,39.9-64.4,94.2-104.9,63.7c-41.6-31.4-21.4-185.6,15.9-220.1
			C1433.8,476.1,1457.5,644.7,1446.1,703.2z"/>
		<g>
			<g>
				<path class="st3" d="M1099.2,1480.3c0,0-36.1-65.1,20.7-120.9c42.6-41.8,85.4-4,104.4,17.1c50.9,56.5,130.5,128.7,183,202.3
					c53.9,75.6,79.9,100.8,68.4,114.3c-13.1,15.2-67.8,67.1-89.4,58.2C1301.9,1716.4,1178.5,1617.8,1099.2,1480.3z"/>
				<path class="st4" d="M1119.9,1359.4c-56.8,55.8-20.7,120.9-20.7,120.9c49.8,86.3,116.9,157.2,180.8,206.7
					c52.2-24.5,89.9-70.7,116.9-122.4c-52.2-68.6-125-135.2-172.6-188.1C1205.4,1355.3,1162.5,1317.5,1119.9,1359.4z"/>
				<path class="st5" d="M1102.3,1338.9c-65.9,64.7-24.1,140.3-24.1,140.3c44.7,77.5,104,144.1,164.4,196.9
					c83.9,1.8,144.6-123.9,153.1-133.8c-56.7-67.2-125.1-131.2-172.3-183.6C1201.5,1334.2,1151.8,1290.3,1102.3,1338.9z"/>
				<path class="st6" d="M1380.2,1524.2c-7-8-14.1-15.9-21.3-23.7c-45.9,79.4-98.8,129-151.7,142.8c8.4,8.2,16.9,16.2,25.4,23.9
					C1285.5,1647.1,1335.7,1598.7,1380.2,1524.2z"/>
				<path class="st3" d="M1446.7,1742.2c0,0-37.8,29.5-79.7-1.4c-31.4-23.2-4.1-64.7,11.2-84.1c41-51.9,133.3-183.1,193.9-240.3
					c26.1-24.7,66.7,17.7,60.4,36.3C1608,1525.5,1547,1649.9,1446.7,1742.2z"/>
				<path class="st3" d="M1572,1433.4c-16.5-8.9-16.8-62-18-68.6c-1-6-0.3-23.3,1-28.9c0.5-2.2,3-3.8,7.1-2.3
					c16,5.9,19.5,36.2,20.6,36.8c5.9-6.3,9.1-20.1,9.6-20.4c5.6-19.7,16.3-56.7,19.7-72.1c1.4-6.3,6.4-12.9,11.4-11.7
					c3.5,0.8,8.2,5.9,6.5,13.4c-6.1,27.1-12.7,68.8-12,69c8.7-18.4,25.4-53.5,31.3-68.2c2.5-6,8.5-11.7,13.2-9.9
					c3.4,1.3,7.3,6.9,4.4,14c-6.2,16.5-23.8,73.1-22.3,73.9c12-17.7,29.5-43.4,36.7-55.1c3.4-5.6,10.3-10.4,14.8-8
					c3.2,1.7,6.2,7.7,2.2,14.3c-8,14-22.4,41.1-34.5,61.3c0.9,0.7,32.7-27.9,44.1-40c4.6-4.8,10.4-4.1,12.8-2.1
					c3.2,2.8,1,9.4-2.9,13.5c-9.7,10.2-32.8,37.3-43.9,50.4c-3.3,10.8-15.2,32.2-20.2,39.8c-8.1,12.2-13.2,16.8-19.9,18.6l-13.3,4.3
					C1620.3,1455,1591.1,1456.2,1572,1433.4z"/>
			</g>
		</g>
		<g>
			<g>
				<path class="st3" d="M675.5,2482.6c-32.4,57.2-74.3,299.5-56.2,314c15.5,12.3,97,32.6,102.6,23.7
					c21.1-33.6,113.6-277.3,113.6-277.3s11.8-47.8-40-71.4C719.6,2437,688.9,2458.9,675.5,2482.6z"/>
			</g>
			<g>
				<path class="st7" d="M632.9,2631.8c-15.1,78-23.7,156.7-13.6,164.7c15.5,12.3,97,32.6,102.6,23.7
					c10.6-16.9,39.4-87.3,65.4-152.9c0,0-27.4,7.6-54.2,2.4C661.5,2651.7,632.9,2631.8,632.9,2631.8z"/>
			</g>
			<g>
				<path class="st3" d="M834.6,2542.9c30.4-58.2,118.6-304.5,100-318.3c-15.9-11.8-219.5-62.3-224.9-53.2
					c-19.9,34.3-37.1,316.6-37.1,316.6s-10.2,48.2,42.4,70C792.1,2589.9,822.1,2567,834.6,2542.9z"/>
			</g>
		</g>
		<g>
			<g>
				<path class="st3" d="M1131.8,2529.5c-10,64.9,36.7,306.4,58.8,313.5c18.9,6,102.2-3.9,104.3-14.3c7.8-38.9,7.9-299.5,7.9-299.5
					s-5.9-48.9-62.7-52.6C1156.9,2471.3,1136,2502.7,1131.8,2529.5z"/>
			</g>
			<g>
				<path class="st7" d="M1144.9,2684.2c13.5,78.3,33.4,154.9,45.7,158.8c18.9,6,102.2-3.9,104.3-14.3c3.9-19.6,5.9-95.6,6.9-166.2
					c0,0-23,16.8-49.8,21.5C1178.7,2692.7,1144.9,2684.2,1144.9,2684.2z"/>
			</g>
			<g>
				<path class="st3" d="M1302,2529.5c7.8-65.2,2.9-326.7-19.4-333c-19.1-5.4-227.3,19.6-229.1,30c-6.5,39.1,77.6,309.2,77.6,309.2
					s7.6,48.7,64.5,50.4C1278.9,2588.6,1298.8,2556.5,1302,2529.5z"/>
			</g>
		</g>
		<path class="st8" d="M1336.6,2437.4c0,0-50.7,37.7-126.5,59c-82.1,23.1-122.4,11-122.4,11L983,2214.5c0,0-110-76.4-51.5-162.4
			c37.4-55,367.7-78.8,367.7-78.8L1336.6,2437.4z"/>
		<path class="st6" d="M884.7,2523.3c0,0-62.6,8.7-139.3-8.9c-83.1-19.1-112.7-49-112.7-49l48.5-307.3c0,0-59.9-119.7,32.7-167.2
			c59.2-30.3,360.5,107.1,360.5,107.1L884.7,2523.3z"/>
		<path class="st9" d="M1330.9,2086.1c-90.9-308.1,15.8-672.9-171.5-768.2c-36.5-18.6-101.8-20.8-167.4-20.8
			c-68.7,0-154.6-4-197.4,17.5c-191.4,96.3-40.2,463.3-141.4,771.4C636.6,2136.2,1345.8,2136.7,1330.9,2086.1z"/>
		<g>
			<g>
				<path class="st3" d="M703.6,1364.2c0,0,60.1-44,122.6,5.4c46.8,37,14.7,84.2-3.8,105.8c-49.7,57.6-111.3,145.6-177.7,207
					c-68.2,63-90,92-104.8,82.2c-16.7-11-75.1-58.9-69-81.4C494.8,1594.9,577.1,1460.1,703.6,1364.2z"/>
				<path class="st4" d="M826.1,1369.6c-62.5-49.3-122.6-5.4-122.6-5.4c-79.4,60.2-141.3,135.7-182.4,205.4
					c30.9,48.7,81.4,80.3,136.1,100.6c61.6-60.4,118.5-140.9,165-194.8C840.9,1453.8,873,1406.6,826.1,1369.6z"/>
				<path class="st7" d="M844.3,1349.5c-72.5-57.3-142.2-6.2-142.2-6.2c-71.3,54-129.9,121.3-174.7,187.9
					c8.7,83.5,141.1,127.9,152,135.1c59.5-64.7,114.4-140.6,160.5-194C861.4,1447.3,898.6,1392.5,844.3,1349.5z"/>
				<path class="st6" d="M695.3,1648.5c7-8,14-16,20.8-24.1c-84.5-35.6-140.4-81.8-160.7-132.5c-7.1,9.4-13.9,18.8-20.5,28.2
					C561.4,1570,615.8,1613.7,695.3,1648.5z"/>
			</g>
		</g>
		<polygon class="st6" points="975.7,1376.4 1035.9,1434.1 1052.2,1360.5 		"/>
		<g>
			<path class="st10" d="M1162.1,2884.5c0,0-2.2,48.3,13.4,52.7l197.9,6.1l32.7-6.6l-16.2-27.9L1162.1,2884.5z"/>
			<path class="st8" d="M1162.1,2857.7c0-25.2-1.7-51.2,4.4-59.8c6.6-9.2,12.8,27.4,63.2,21.9c45.3-4.9,66.2-20.6,66.2-20.6v-15.6
				c0,0,4,9.7,53.7,9.7c16,0,38.8-9.7,38.8-9.7l12,135.1l-155.1-3.2c-4.6,0.4-9.4,0.6-14.8,0.6
				C1152.5,2915.8,1162.1,2890,1162.1,2857.7z"/>
			<path class="st7" d="M1385.4,2783.6c0.3,0,5.6-4.5,7.8-4.7c73.7-6.1,119.6,42.5,119.6,94.8c0,9.9-1.9,19.4-5.5,28.4
				c0,0-37.4,16.6-114.1,16.7c-0.3,0-0.5,0-0.8,0L1385.4,2783.6z"/>
			<g>
				<path class="st10" d="M1392.4,2918.8c0.3,0,0.5,0,0.8,0c76.6-0.1,114-16.6,114.1-16.7c-0.7,7.2-2.3,17.8-4.9,24.5
					c0,0-35.8,16.5-109.3,16.7c-0.3,0-19.5,0-19.8,0L1392.4,2918.8z"/>
			</g>
			<g>
				<path class="st7" d="M1365.8,2819.9c0,0-1.1-0.1-2.8-0.6c-1.7-0.5-3.9-1.5-6.1-3.1c-2.2-1.6-4.4-4-6.1-7.1
					c-0.8-1.6-1.6-3.3-2-5.4c-0.6-1.9-0.5-4.3-0.5-6.5c0.5-2.4,0.7-4.8,2.1-7c1.1-2.3,2.7-4.2,4.5-5.6c1.7-1.7,3.6-2.3,5.4-3
					c1.8-0.8,3.4-0.7,5-0.8c3-0.2,5.4,0.9,7,1.6c1.6,0.7,2.5,1.4,2.5,1.4s-0.5,1.1-1.4,2.5c-0.4,0.7-0.9,1.6-1.5,2.4
					c-0.6,0.8-1,1.9-1.5,2.8c-0.4,1-1.1,1.7-1.2,2.7c-0.2,0.9-0.6,1.5-0.5,2.2c0,0.3,0,0.6-0.1,0.8c0.1,0.3,0.2,0.5,0.1,0.7
					c-0.1,0.3,0.1,1-0.1,1.4c0,0.7-0.2,1.3-0.2,2.2c-0.1,0.8-0.2,1.8-0.3,2.9c-0.2,2.1-0.4,4.5-0.7,6.8c-0.3,2.3-0.6,4.5-1,6.2
					C1366.1,2818.8,1365.8,2819.9,1365.8,2819.9z"/>
			</g>
			<polygon class="st6" points="1281.1,2808.5 1332.1,2802.7 1300.2,2742.5 1290.6,2756.1 			"/>
			<g>
				<path class="st7" d="M1333.4,2819.9c0,0-1.1-0.1-2.8-0.6c-1.7-0.5-3.9-1.5-6.1-3.1c-2.2-1.6-4.4-4-6.1-7.1
					c-0.8-1.6-1.6-3.3-2-5.4c-0.6-1.9-0.5-4.3-0.5-6.5c0.5-2.4,0.7-4.8,2.1-7c1.1-2.3,2.7-4.2,4.5-5.6c1.7-1.7,3.6-2.3,5.4-3
					c1.8-0.8,3.4-0.7,5-0.8c3-0.2,5.4,0.9,7,1.6c1.6,0.7,2.5,1.4,2.5,1.4s-0.5,1.1-1.4,2.5c-0.4,0.7-0.9,1.6-1.5,2.4
					c-0.6,0.8-1,1.9-1.5,2.8c-0.4,1-1.1,1.7-1.2,2.7c-0.2,0.9-0.6,1.5-0.5,2.2c0,0.3,0,0.6-0.1,0.8c0.1,0.3,0.2,0.5,0.1,0.7
					c-0.1,0.3,0.1,1-0.1,1.4c0,0.7-0.2,1.3-0.2,2.2c-0.1,0.8-0.2,1.8-0.3,2.9c-0.2,2.1-0.4,4.5-0.7,6.8c-0.3,2.3-0.6,4.5-1,6.2
					C1333.7,2818.8,1333.4,2819.9,1333.4,2819.9z"/>
			</g>
		</g>
		<g>
			<path class="st10" d="M572.2,2838.6c0,0-20.7,43.7-8,53.8l180.2,82.2l32.7,6.6l-4.1-32L572.2,2838.6z"/>
			<path class="st8" d="M582.5,2814c9.7-23.2,18.2-47.9,27.2-53.4c9.6-5.9,1.2,30.2,49.8,44.7c43.7,13,69.1,6.6,69.1,6.6l6-14.4
				c0,0,0,10.5,45.7,29.7c14.8,6.2,39.5,6.1,39.5,6.1l-41.2,129.3L637,2899.6c-4.4-1.4-8.9-3-13.9-5.1
				C551.2,2863.8,570,2843.8,582.5,2814z"/>
			<path class="st7" d="M817.1,2832c0.2,0.1,7-2,9-1.3c70.3,22.9,93.9,85.4,73.6,133.7c-3.8,9.1-9.3,17.2-16,24.1
				c0,0-40.9,0.8-111.7-28.7c-0.3-0.1-0.5-0.2-0.7-0.3L817.1,2832z"/>
			<g>
				<path class="st10" d="M771.3,2959.4c0.2,0.1,0.5,0.2,0.7,0.3c70.7,29.5,111.6,28.8,111.7,28.8c-3.4,6.4-9,15.5-14,20.7
					c0,0-39.4,1.4-107.2-26.9c-0.3-0.1-18-7.6-18.2-7.7L771.3,2959.4z"/>
			</g>
			<g>
				<g>
					<path class="st7" d="M785,2857.9c0,0-1-0.5-2.4-1.6c-1.3-1.1-3-2.9-4.5-5.2c-1.4-2.4-2.6-5.4-2.9-9c-0.1-1.8-0.2-3.7,0.3-5.7
						c0.2-2,1.2-4.1,2.1-6.2c1.4-2,2.5-4.1,4.7-5.6c1.9-1.7,4.1-2.8,6.3-3.5c2.2-0.9,4.2-0.7,6.1-0.7c1.9-0.1,3.4,0.7,4.9,1.2
						c2.9,1,4.6,2.9,5.8,4.2c1.2,1.3,1.7,2.2,1.7,2.2s-0.9,0.8-2.3,1.8c-0.7,0.5-1.5,1.1-2.3,1.6c-0.9,0.5-1.7,1.3-2.5,2
						c-0.7,0.7-1.7,1.2-2.2,2c-0.5,0.8-1.2,1.2-1.3,1.9c-0.1,0.3-0.2,0.5-0.4,0.7c0,0.3-0.1,0.6-0.2,0.7c-0.2,0.3-0.3,0.9-0.6,1.3
						c-0.2,0.6-0.7,1.1-1,1.9c-0.4,0.7-0.9,1.6-1.4,2.6c-1,1.9-2.1,4-3.2,6c-1.2,2-2.3,3.9-3.3,5.3
						C785.7,2856.9,785,2857.9,785,2857.9z"/>
				</g>
			</g>
			<polygon class="st6" points="711.3,2814.7 760.6,2829 754.5,2761.1 740.3,2769.9 			"/>
			<g>
				<g>
					<path class="st7" d="M755.1,2845.3c0,0-1-0.5-2.4-1.6c-1.4-1.1-3-2.9-4.5-5.2c-1.4-2.4-2.6-5.4-2.9-9c-0.1-1.8-0.2-3.7,0.3-5.7
						c0.2-2,1.2-4.1,2.1-6.2c1.4-2,2.5-4.1,4.7-5.6c1.9-1.7,4.1-2.8,6.3-3.5c2.2-0.9,4.2-0.7,6.1-0.7c1.9,0,3.4,0.7,4.9,1.2
						c2.9,1,4.6,2.9,5.8,4.2c1.2,1.3,1.7,2.2,1.7,2.2s-0.9,0.8-2.3,1.8c-0.7,0.5-1.5,1.1-2.3,1.6c-0.9,0.5-1.7,1.3-2.5,2
						c-0.7,0.7-1.7,1.2-2.2,2c-0.5,0.8-1.2,1.2-1.3,1.9c-0.1,0.3-0.2,0.5-0.4,0.7c0,0.3-0.1,0.6-0.2,0.7c-0.2,0.3-0.3,0.9-0.6,1.3
						c-0.2,0.6-0.7,1.1-1,1.9c-0.4,0.7-0.9,1.6-1.4,2.6c-1,1.9-2.1,4-3.2,6c-1.2,2-2.3,3.9-3.3,5.3
						C755.8,2844.4,755.1,2845.3,755.1,2845.3z"/>
				</g>
			</g>
		</g>
		<path class="st8" d="M1159.4,1317.9c-36.5-18.6-101.8-20.8-167.4-20.8c-68.7,0-154.6-4-197.4,17.5c-22,11.1,49.2,134.2,100,134.1
			c44.8-0.1,86.2-64.7,128.5-72.3c43.3-7.8,88,53.1,136.6,44.1C1190.3,1414.9,1177.7,1327.3,1159.4,1317.9z"/>
		<g>
			<polygon class="st6" points="1004.3,1744.9 1082.1,1788.3 1128.4,1728.9 1035.4,1408.9 1023.1,1408.9 			"/>
			<polygon class="st7" points="1005.2,1729.4 1082,1769 1122.2,1707.7 1114.3,1680.2 1074.6,1740.8 1006.5,1705.7 			"/>
		</g>
		<path class="st7" d="M644.9,2388.2l-5.1,32.6c46.5,26.1,123.8,50.5,250.8,50.5c5.7,0,11.5,0,17.4-0.2l13.7-30.7
			C769.6,2445,687.6,2415.4,644.9,2388.2z"/>
		<path class="st5" d="M1332.4,2384.5l-2.7-33c-125.3,67.6-211.1,86.4-266.3,87.9l10.9,30.6c56-3.6,134.7-22.8,241.4-76.8
			C1321.2,2390.3,1326.7,2387.5,1332.4,2384.5z"/>
		<polygon class="st11" points="1038.2,1313.4 1023.1,1376.4 902.1,1313.4 902.1,1084.6 1038.2,1084.6 		"/>
		<path class="st4" d="M1038.2,1211l-115.8-57.6c-3.3,2.2-6.6,4.4-10,6.5c-3.3,2.1-6.8,4.3-10.3,6.6v140.3
			c10.9-20.5,14.5-61.9,32.1-59c49.7,8.3,81.7,6.3,104,1.7V1211z"/>
		<g>
			<path class="st3" d="M1432.5,710.9c0-260.2-176.2-449.5-436.4-449.5c-260.2,0-320.9,203.3-320.9,463.5
				c0,72.5,12.7,137.8,41.9,199.1c-10.9,24.2-21.3,254.1,207,304.7c313.7,69.5,512-49.9,527.8-203c5.8-56-29.6-98.1-29.4-124.7
				C1423.3,833.1,1432.5,783.4,1432.5,710.9z"/>
			<path class="st12" d="M996.2,261.4c-102.3,0-173.7,31.4-222.8,85.4c-0.5,14.3,0.7,25.3,5.1,26.6c-8.4-2.5-16-3.9-23.1-4.4
				c-61.3,84.3-80.1,211.3-80.1,355.9c0,47.8,5.6,92.5,17.7,135c19.7,29.9,43,61.8,66.8,57.9c-6-24.3,115.7-140.8,107.7-415.8
				c5.6,16.2,157.3,162.8,316,117.8c-31.4,2.1-98.5-20.4-134-53.2c86.3,39.1,211.4,56.8,263.5,38.4c-26.5-14.2-91.7-45.2-99.7-77
				c33.5,30.6,129.9,91.7,214.9,113.1C1399.5,417.6,1232.4,261.4,996.2,261.4z"/>
			<path class="st12" d="M962.6,1213.5c-228.3-50.6-217.9-280.5-207-304.7c-29.2-61.3-34.9-149-34.9-221.4
				c0-160.3,23.1-299.1,101.7-381.9c-115.5,73.5-147.2,231.6-147.2,419.5c0,72.5,12.7,137.8,41.9,199.1
				c-10.9,24.2-21.3,254.1,207,304.7c222.5,49.3,387,3.5,469.4-81.9C1302.8,1206.9,1149.7,1255,962.6,1213.5z"/>
			<g>
				<path class="st13" d="M855.2,472.6c-6,6,151.3,165.8,316,119.1c-31.4,2.1-98.5-20.4-134-53.2c86.3,39.1,211.4,56.8,263.5,38.4
					c-26.5-14.2-91.7-45.2-99.7-77c34.5,31.5,135.9,95.5,222.7,115c52.2,11.8,136.1-4.7,169.4-36.2
					c-107.1-31.8-123.4-53.5-136.4-92.6c-18.3-55.3-31.6-163.6-80.8-218.6c-39.7-44.3-150.4-117-266.5-133.2
					c-117.6-16.4-244.4,28.1-272.7,42.1c-26.1,13-54.2,40.6-64.9,68.4c-4.1,10.8-18.4,96.7-5.7,100.5c-52.1-15.5-76,8.2-109.2,47
					c-82,95.8-66.9,313.4,2,407.1c23,31.2,55.1,95.7,88.5,90.3C741.6,865.4,863.6,748.5,855.2,472.6z"/>
				<path class="st13" d="M783.7,363.2c-32.5-25.3-42.1-114.5-27.8-148.1c-31.9,18.8-39.5,55.9-34,92.5
					c5.4,36.1,21.3,48.5,54.9,58.5L783.7,363.2z"/>
			</g>
			<path class="st14" d="M842.8,630.1c-13.7,29.8-35.8,57.2-71.4,58.7c-33.6,1.4-75.2-21.1-110.4-49.9
				c-16.6-13.7-40.1-40.2-59.6-70.8c-2.9,87.2,18.9,178.7,57.6,231.3c23,31.2,55.1,95.7,88.5,90.3c-4.8-19.4,71.7-97.6,98.8-268.2
				C845.3,624.3,844.1,627.2,842.8,630.1z"/>
			<g>
				<g>
					<path class="st3" d="M799,914.5c0,54.1-39.9,98-89,98c-49.2,0-89-43.9-89-98c0-54.1,39.8-98,89-98
						C759.1,816.5,799,860.4,799,914.5z"/>
				</g>
				<g>
					<g>
						<path class="st15" d="M716.3,969.8c0,0-0.7,0.2-2,0.5c-1.3,0.2-3.1,0.9-5.6,0.9c-1.3,0.1-2.7,0.1-4.3,0.2
							c-1.5,0-3.2-0.2-5-0.3c-3.6-0.4-7.6-1.3-11.9-2.8c-4.2-1.7-8.7-3.9-12.9-7.1c-4.4-3.1-8.3-7.1-11.9-11.8
							c-3.6-4.7-6.4-10.3-8.4-16.2c-2-6-2.9-12.3-3.1-18.7c0.2-3.8,0.1-5.3,0.8-9.2c0.4-3.5,1.4-6.5,2.3-9.5
							c2.1-5.9,4.9-11.5,8.4-16.2c3.6-4.7,7.6-8.8,11.9-11.8c4.2-3.2,8.8-5.4,12.9-7.1c4.3-1.5,8.3-2.4,11.9-2.8
							c1.8-0.1,3.5-0.3,5-0.3c1.5,0.1,2.9,0.2,4.2,0.2c2.5,0,4.4,0.7,5.7,0.9c1.3,0.3,2,0.5,2,0.5s-0.7,0.2-1.9,0.7
							c-1.2,0.4-3.1,0.9-5.2,1.8c-2.2,0.8-4.8,2-7.6,3.4c-2.8,1.5-5.7,3.4-8.6,5.6c-2.9,2.3-5.9,4.9-8.5,8c-2.8,3-5,6.6-7.2,10.3
							c-2.1,3.8-3.5,7.9-4.8,12.2c-0.5,2.2-1,4.4-1.2,6.3c-0.4,1.4-0.4,5.4-0.5,6.9c0.1,4.5,0.6,8.9,1.7,13.2
							c1.2,4.2,2.7,8.4,4.8,12.2c2.1,3.7,4.4,7.3,7.2,10.3c2.6,3.1,5.6,5.7,8.5,8.1c3,2.2,5.9,4.1,8.6,5.6c1.4,0.7,2.8,1.3,4,2
							c1.3,0.5,2.4,1,3.5,1.4c2.1,0.9,4.1,1.4,5.3,1.8C715.7,969.6,716.3,969.8,716.3,969.8z"/>
					</g>
				</g>
				<g>
					<path class="st15" d="M665.3,908.8c-0.1,0,1.3,0,3.4,0.1c2.1,0.1,5,0.4,8.5,0.9c3.5,0.5,7.5,1.3,11.7,2.4
						c4.2,1.1,8.6,2.6,12.9,4.5c4.3,1.9,8.3,4.4,11.7,7c1.6,1.5,3.3,2.8,4.6,4.3c1.2,1.6,2.5,2.9,3.4,4.3c0.8,1.5,1.6,2.8,2.3,4
						c0.6,1.2,0.9,2.4,1.3,3.2c0.6,1.8,1,2.8,1,2.8s-0.6-0.9-1.7-2.4c-0.6-0.7-1.1-1.7-2-2.6c-0.9-0.9-2-1.9-3.1-2.9
						c-1.2-1-2.7-1.8-4-2.8c-1.4-0.9-3.2-1.6-4.9-2.4c-3.5-1.4-7.4-2.4-11.3-2.9c-4-0.6-8-0.7-11.7-0.6c-3.8,0.1-7.2,0.5-10.2,0.9
						c-3,0.4-5.4,0.9-7,1.3c-1.6,0.4-2.4,0.6-2.5,0.6c-5.4,0.6-10.2-3.3-10.8-8.7C656,914.2,659.9,909.4,665.3,908.8z"/>
				</g>
			</g>
			<g class="st16">
				<path class="st17" d="M1176.3,889.6c0,0,5.3,4.2,11.5,11.7c3.2,3.8,6.5,8.4,9.7,13.7c1.6,2.7,3.1,5.5,4.5,8.7
					c0.7,1.6,1.3,3.3,1.8,5.3c0.4,1.9,1.1,4.4,0.3,7.9c-0.2,0.8-1.2,2.7-1.8,3.4c-0.5,0.6-1.2,1.3-1.7,1.7c-1.1,0.9-2.1,1.5-3.1,2.1
					c-1.9,1-3.7,1.6-5.4,2.2c-3.4,1.1-6.7,1.6-9.8,2c-6.2,0.7-12,0.9-16.9,0.6c-9.8-0.5-16.3-2.3-16.3-2.3s1.6-0.7,4.3-1.6
					c2.7-0.9,6.6-2.2,11.2-3.5c4.5-1.3,9.8-2.8,15.4-4.5c2.7-0.8,5.5-1.7,8-2.7c1.2-0.5,2.4-1.1,3.3-1.5c0.4-0.2,0.7-0.5,0.8-0.6
					c0.1-0.1-0.1,0,0,0c-0.2,0-0.7,1.3-0.6,1.3c0,0.4,0-0.3-0.2-1.5c-0.3-1.1-0.6-2.5-1.1-3.8c-0.9-2.7-2-5.4-3-8.1
					c-2.1-5.4-4.2-10.5-5.8-15c-1.7-4.5-3-8.3-3.8-11.1C1176.7,891.3,1176.3,889.6,1176.3,889.6z"/>
			</g>
			<g>
				<g>
					<path class="st18" d="M1013.3,1001.6c-3.3,59.6,54.8,119.2,120.9,119.2c66.1,0,120.8-62.6,120.9-119.2H1013.3z"/>
				</g>
				<path class="st7" d="M1013.3,1001.6c-0.4,7.9,0.3,15.8,1.8,23.5c5.4,3.8,12.4,7.2,20.7,10.3c1.8,0.7,5.7-6.3,7.6-5.7
					c2.1,0.7,2.2,9,4.5,9.6c21.3,6.1,48.6,10,78.7,10.6c2.7,0.1,12.7,0.1,14.8,0c32.1-0.5,61.1-4.8,83.2-11.5
					c8-10.7,12.4-23.5,13.2-36.9H1013.3z"/>
			</g>
			<path class="st19" d="M1134.2,1120.8c22.4,0,43.5-7.2,61.6-18.9c-7.7-7.3-15.8-13.4-22.7-17.2c-40-21.9-100.2-38.7-149.9-35.9
				C1042.1,1089.1,1086,1120.8,1134.2,1120.8z"/>
			<path class="st12" d="M1159.7,1158.3c0,4.5-7.7,8.1-17.1,8.1c-9.5,0-17.1-3.7-17.1-8.1c0-4.5,7.7-8.1,17.1-8.1
				C1152.1,1150.2,1159.7,1153.8,1159.7,1158.3z"/>
			<path class="st4" d="M897.8,781.8c0,0,33-56.6,92.7-42.5c0,0-18.7,12-43.2,26.2C927.4,777.1,897.8,781.8,897.8,781.8z"/>
			<path class="st4" d="M1349.2,783.2c0,0-33-56.6-92.7-42.5c0,0,18.7,12,43.2,26.2C1319.7,778.5,1349.2,783.2,1349.2,783.2z"/>
			<g>
				<g>
					<path class="st13" d="M1255.1,737.6c0,0,1.5-1.5,4.5-3.4c3-2,7.5-4.3,13.2-6c2.9-0.8,6-1.6,9.5-2c3.4-0.6,7.1-0.5,10.9-0.5
						c1.9,0,3.8,0.4,5.8,0.6c2,0.3,4,0.4,5.9,1.1c4,1,7.9,2.2,11.7,4c1.9,0.9,3.8,1.7,5.6,2.8c1.8,1.1,3.5,2.3,5.2,3.5
						c3.5,2.1,6.3,5.3,9,8c2.9,2.6,4.7,6.1,6.7,8.9c2,2.9,3.2,6,4.3,8.9c1,2.9,2.1,5.4,2.4,7.9c0.4,2.4,0.6,4.6,0.7,6.4
						c0.3,3.5,0.1,5.5,0.1,5.5s-1.9-1.1-4.7-3.1c-1.4-1-3-2.2-4.7-3.5c-1.6-1.5-3.9-2.6-6-4.2c-2.1-1.5-4.1-3.2-6.6-4.6
						c-2.5-1.4-4.5-3.3-7.2-4.5c-2.6-1.3-4.9-3.1-7.6-4.3c-1.3-0.7-2.7-1.3-3.9-2.1c-1.3-0.7-2.7-1.2-4.1-1.8
						c-2.6-1.4-5.5-2.3-8.3-3.6c-2.9-1.1-5.7-2.1-8.4-3.1c-2.8-0.8-5.6-2-8.3-2.7c-2.7-0.9-5.4-1.7-7.9-2.5c-5.2-1.6-9.6-3-12.7-4
						C1257.1,738.2,1255.1,737.6,1255.1,737.6z"/>
				</g>
				<g>
					<path class="st13" d="M992,737.6c0,0-2,0.7-5.2,1.7c-3.1,1-7.4,2.3-12.7,4c-2.5,0.8-5.2,1.6-7.9,2.5c-2.7,0.7-5.5,1.9-8.3,2.7
						c-2.7,1-5.6,2.1-8.4,3.1c-2.7,1.2-5.6,2.1-8.3,3.6c-1.3,0.6-2.8,1.1-4.1,1.8c-1.3,0.8-2.6,1.4-3.9,2.1c-2.7,1.2-5,2.9-7.6,4.3
						c-2.7,1.2-4.7,3.2-7.2,4.5c-2.5,1.3-4.5,3.1-6.6,4.6c-2,1.5-4.3,2.7-6,4.2c-1.7,1.4-3.4,2.5-4.7,3.5c-2.8,2-4.7,3.1-4.7,3.1
						s-0.2-2,0.1-5.5c0.2-1.7,0.3-3.9,0.7-6.4c0.3-2.5,1.4-5,2.4-7.9c1.1-2.8,2.3-6,4.3-8.9c2-2.9,3.8-6.3,6.7-8.9
						c2.8-2.7,5.5-5.8,9-8c1.7-1.2,3.4-2.4,5.2-3.5c1.8-1.1,3.7-1.9,5.6-2.8c3.8-1.8,7.8-3,11.7-4c1.9-0.6,4-0.8,5.9-1.1
						c2-0.2,3.9-0.6,5.8-0.6c3.8,0,7.5-0.1,10.9,0.5c3.4,0.4,6.6,1.1,9.5,2c5.7,1.7,10.2,4,13.2,6C990.5,736,992,737.6,992,737.6z"
						/>
				</g>
			</g>
			<g>
				<path class="st20" d="M1315.3,859.2c0,20.7-11.7,37.5-26.2,37.5c-14.5,0-26.2-16.8-26.2-37.5c0-20.7,11.7-37.5,26.2-37.5
					C1303.5,821.7,1315.3,838.5,1315.3,859.2z"/>
				<path class="st20" d="M996.4,859.2c0,20.7-11.7,37.5-26.2,37.5c-14.5,0-26.2-16.8-26.2-37.5c0-20.7,11.7-37.5,26.2-37.5
					C984.7,821.7,996.4,838.5,996.4,859.2z"/>
				<path class="st7" d="M1307.2,843.6c0,6-2.9,10.9-6.5,10.9c-3.6,0-6.5-4.9-6.5-10.9c0-6,2.9-10.9,6.5-10.9
					C1304.3,832.8,1307.2,837.6,1307.2,843.6z"/>
				<path class="st7" d="M986.2,843.6c0,6-2.9,10.9-6.5,10.9c-3.6,0-6.5-4.9-6.5-10.9c0-6,2.9-10.9,6.5-10.9
					C983.3,832.8,986.2,837.6,986.2,843.6z"/>
			</g>
		</g>
		<g>
			<path class="st21" d="M1298.3,568c0.5-0.1,1-0.1,1.5-0.2C1299.2,567.9,1298.7,568,1298.3,568z"/>
			<path class="st21" d="M1301.6,567.7c0.9-0.1,1.8-0.2,2.7-0.3C1303.4,567.5,1302.5,567.6,1301.6,567.7z"/>
		</g>
		<g>
			<g>
				<path class="st22" d="M1114.8,832.8c0,80.2-65,145.2-145.2,145.2c-80.2,0-145.2-65-145.2-145.2c0-80.2,65-145.2,145.2-145.2
					C1049.8,687.5,1114.8,752.6,1114.8,832.8z"/>
				<path class="st23" d="M1114.8,832.8c0,80.2-65,145.2-145.2,145.2c-80.2,0-145.2-65-145.2-145.2c0-80.2,65-145.2,145.2-145.2
					C1049.8,687.5,1114.8,752.6,1114.8,832.8z"/>
			</g>
			<g>
				<path class="st22" d="M1480.5,832.8c0,80.2-65,145.2-145.2,145.2c-80.2,0-145.2-65-145.2-145.2c0-80.2,65-145.2,145.2-145.2
					C1415.5,687.5,1480.5,752.6,1480.5,832.8z"/>
				<path class="st23" d="M1480.5,832.8c0,80.2-65,145.2-145.2,145.2c-80.2,0-145.2-65-145.2-145.2c0-80.2,65-145.2,145.2-145.2
					C1415.5,687.5,1480.5,752.6,1480.5,832.8z"/>
			</g>
			<path class="st24" d="M1191.3,856.5c-0.7-18.6-74.1-27.7-80.1,9.1"/>
		</g>
		<g>
			<path class="st25" d="M818.8,830.3l-86.4-10.6l86.4-10.6c5.9-0.7,11.2,3.5,11.9,9.3c0.7,5.9-3.5,11.2-9.3,11.9
				C820.5,830.4,819.6,830.4,818.8,830.3z"/>
		</g>
		<g>
			<path class="st14" d="M1590.6,578c-56.1,21.7-177.5,51.1-313.8-25.1c43.7,25.6,97.6,51,146.9,62.1
				c52.2,11.8,136.1-4.7,169.4-36.2C1592.3,578.4,1591.5,578.2,1590.6,578z"/>
			<path class="st14" d="M1230.5,523.1c-9.8-7.1-19.6-14.8-29.5-23.2C1208.2,506.4,1218.2,514.4,1230.5,523.1z"/>
		</g>
		<path class="st14" d="M1300.7,576.9c-0.2-0.1-0.3-0.2-0.5-0.3c-35.7-1.4-198.4-9.5-263-38.1
			C1123.5,577.6,1248.6,595.3,1300.7,576.9z"/>
		<path class="st14" d="M771.8,244.7c-2.6,6.7-9.1,42.6-10.6,69.6c2.9,21.8,9.2,44.7,22.5,56.2c23.9,21-51.7-65.1,60-197.5
			c-2.8,1.2-5.2,2.3-7.1,3.2C810.6,189.3,782.5,217,771.8,244.7z"/>
		<g>
			<path class="st26" d="M1389.8,1736.2c-2.9-24.3,9.7-131.2,80.6-165.6c29.1-14.1,58.3-28,86.1-44.8c24.9-15,52.1-31.8,62.9-58.5
				c3.1-7.7-0.2-27.1-0.2-27.1s53.5,28.9,43.9,129.5c-2.2,22.5-4.9,45.7-11.3,67.5c-8.7,29.5-28,49.7-50.4,69.6
				c-13,11.5-23.9,23.9-38.3,34c-14.6,10.3-30.4,19.6-46.2,28.1c-23.5,12.7-47.5,23.5-74.7,22c-10.3-0.6-19.2-5-28.2-9.5
				c-8-4-14.7-9-16.1-17.9C1396,1752.2,1391.2,1747.6,1389.8,1736.2z"/>
			<path class="st27" d="M1663,1569.8c2.6-27.5,0.5-49.5-3.9-67.2c-3.6-2.9-2.5,15.2-5.7,22.9c-10.8,26.7-38,43.4-62.9,58.5
				c-27.7,16.8-57,30.6-86.1,44.8c-64.5,31.3-80.7,122.7-80.9,157.1c5.9,2.6,11.9,4.6,18.6,5c27.2,1.5,51.3-9.3,74.7-22
				c15.7-8.5,31.6-17.8,46.2-28.1c14.4-10.2,25.3-22.5,38.3-34c22.4-19.9,41.7-40.1,50.4-69.6
				C1658,1615.5,1660.8,1592.4,1663,1569.8z"/>
			<g>
				<path class="st26" d="M1400.4,1739c0,0-92.5-204.8-372.7-231.8c0,0-99.1-0.6-122-35.1l-31.4,109.4c0,0,174.6,203.8,187,211.3
					c12.4,7.6,318.2,101.6,318.2,101.6L1400.4,1739z"/>
				<path class="st27" d="M1383.3,1784.5c0,0-92.5-204.8-372.7-231.8c0,0-99.1-0.6-122-35.1l-31.4,109.4c0,0,174.6,203.8,187,211.3
					c12.4,7.6,318.2,101.6,318.2,101.6L1383.3,1784.5z"/>
				<g>
					<g>
						<path class="st28" d="M1274.7,2341.5L895,2134.3c0,0-8.2-4.5-13.1-10.5c-4.1-5-4.3-14.5-4.3-14.5l-55.2-621.8
							c0,0-1.9-8.5,7.4-15.1c6-4.3,16.8-1.4,16.8-1.4l498.9,239.5L1274.7,2341.5z"/>
						<path class="st28" d="M1331.4,2349.1l189.7-335.1l217.8-585c0,0,4.1-7.7-3.1-16.5c-4.7-5.8-274.5,313.7-274.5,313.7
							L1331.4,2349.1z"/>
						<path class="st29" d="M829.7,1472.5c6-4.3,16.8-1.4,16.8-1.4l10.1,4.8l61.4,590.6c0,0,0.2,9.5,4.3,14.5
							c4.9,6,13.1,10.5,13.1,10.5l340.7,237.8l-1.4,12.2L895,2134.3c0,0-8.2-4.5-13.1-10.5c-4.1-5-4.3-14.5-4.3-14.5l-55.2-621.8
							C822.3,1487.6,820.5,1479.1,829.7,1472.5z"/>
						<path class="st29" d="M829.7,1472.5c6-4.3,71.3,615.9,71.3,615.9s0.2,9.5,4.3,14.5c4.9,6,13.1,10.5,13.1,10.5l356.3,228.1
							L895,2134.3c0,0-8.2-4.5-13.1-10.5c-4.1-5-4.3-14.5-4.3-14.5l-55.2-621.8C822.3,1487.6,820.5,1479.1,829.7,1472.5z"/>
						<polygon class="st30" points="1239.5,2243.1 934,2076.4 899.2,1584.2 1274.4,1764.3 						"/>
						<polygon class="st31" points="1268.2,2189.5 1308.1,1733.8 1027.2,1601.4 						"/>
					</g>
					<polygon class="st32" points="1331.4,2349.1 1274.3,2341.5 1345,1710.6 1461.3,1726.3 					"/>
					<polygon class="st33" points="1317.7,2332.1 1292,2328.7 1365.7,1713.4 1440.7,1723.5 					"/>
				</g>
			</g>
			<path class="st29" d="M1461.3,1726.3l-129.9,622.9l74.3-131.2c5.1-19.2,18-114,22.4-146.2c14.4-106.1,28.1-214.9,74-312.9
				c35.2-75,88.8-135.3,141.9-197.7c29-34.1,55.7-70.1,84.6-104.4l10.3-27.7c0,0,4.1-7.7-3.1-16.5
				C1731.1,1406.8,1461.3,1726.3,1461.3,1726.3z"/>
		</g>
		<g>
			<path class="st3" d="M487.4,1741.8c0,0-34-33.7-8.7-79.2c19-34.1,63.7-12.2,84.9,0.5c56.6,34.1,198.3,109.3,262.7,162.2
				c27.8,22.8-9.2,68.4-28.4,64.5C722.6,1874.6,591.5,1829.8,487.4,1741.8z"/>
			<path class="st3" d="M809.5,1827.3c6.8-17.5,59.4-24.5,65.8-26.5c5.8-1.8,23.1-3.2,28.8-2.6c2.2,0.2,4.1,2.5,3.2,6.8
				c-3.8,16.6-33.4,23.9-33.9,25.1c7,5.1,21.1,6.5,21.5,6.9c20.2,3.1,58.3,9,74,10.5c6.5,0.6,13.6,4.7,13.1,9.8
				c-0.4,3.6-4.8,8.8-12.5,8.1c-27.7-2.7-69.9-4-70-3.3c19.4,6.3,56.2,18.4,71.5,22.5c6.3,1.7,12.7,7,11.5,11.9
				c-0.9,3.5-5.9,8.1-13.3,6.1c-17.1-4.1-75.5-14.4-76.1-12.9c19,9.7,46.7,23.9,59.3,29.4c6,2.7,11.6,8.9,9.8,13.7
				c-1.3,3.4-6.9,7.1-13.9,4c-14.9-6.2-43.6-17.1-65.1-26.5c-0.6,0.9,31.8,28.9,45.2,38.7c5.3,3.9,5.3,9.8,3.6,12.4
				c-2.4,3.6-9.2,2.2-13.8-1.2c-11.4-8.3-41.1-27.9-55.5-37.3c-11.1-1.9-33.9-11.1-42-15.1c-13.1-6.5-18.3-11-20.9-17.4l-5.9-12.6
				C794.1,1877.9,789.2,1849.2,809.5,1827.3z"/>
		</g>
	</g>
</g>
</svg>
