<?xml version="1.0" encoding="utf-8"?>
<!-- Generator: Adobe Illustrator 25.4.1, SVG Export Plug-In . SVG Version: 6.00 Build 0)  -->
<svg version="1.1" id="Layer_1" xmlns="http://www.w3.org/2000/svg" xmlns:xlink="http://www.w3.org/1999/xlink" x="0px" y="0px"
	 viewBox="0 0 2895.8 2794.7" style="enable-background:new 0 0 2895.8 2794.7;" xml:space="preserve">
<style type="text/css">
	.st0{opacity:0.7;fill:#CEDBF4;}
	.st1{opacity:0.1;fill:#1C143F;}
	.st2{fill:#E8A583;}
	.st3{fill:#7B4B4B;}
	.st4{fill:#F1DCDB;}
	.st5{fill:#66B4C1;}
	.st6{fill:#1C143F;}
	.st7{fill:#D03F28;}
	.st8{clip-path:url(#SVGID_00000147910533052609006920000017599771221387064220_);fill:#F1DCDB;}
	.st9{fill:#FBC4A8;}
	.st10{fill:#BF5F52;}
	.st11{fill:#1DA399;}
	.st12{fill:#231E3C;}
	.st13{fill:#37B5A4;}
	.st14{fill:#275864;}
	.st15{fill:#6CCACE;}
	.st16{fill:#FFFFFF;}
	.st17{fill:#2D6371;}
	.st18{clip-path:url(#SVGID_00000106869261761529541280000001582368328091985827_);fill:#EBE4EF;}
	.st19{fill:#C47238;}
	.st20{fill:#EBE4EF;}
</style>
<path class="st0" d="M2659.6,2019.1c86.2-177.5,134.7-376.7,134.7-587.2C2794.2,689,2192,86.7,1449,86.7S103.8,689,103.8,1431.9
	c0,210.6,48.4,409.8,134.7,587.2H2659.6z"/>
<g id="Background">
</g>
<g>
	<path class="st1" d="M1392,2692.3c0,0-291,52.3-650,52.3c-359,0-650-52.3-650-52.3s291-52.3,650-52.3
		C1101,2640,1392,2692.3,1392,2692.3z"/>
	<path class="st2" d="M1273,1387c-6.9,2.6-15.4,2.7-24.4,1c-32.4-6-60.3-25.9-85.7-46.9c-32.2-26.7-62.3-56.1-89.7-87.7
		c-13.1-15.2-25.9-31-35.2-48.9c-11.4-21.8-8.3-36.9,3.2-58.5c2.7-5.1,6-10.2,10.6-13.7c8.6-6.6,20.7-7,30.9-3.6
		c10.3,3.4,19.1,10,27.6,16.7c31.3,24.9,60.2,52.6,86.4,82.8c24.6,28.4,48.4,57.6,72.1,86.7C1282.5,1331.8,1304.5,1374.9,1273,1387z
		"/>
	<path class="st3" d="M819.2,710.5c-3.2,2.7-6.2,5.8-8.5,9.3c-6.9,10.2-8.6,23-13.9,34.1c-16.5,34.8-64.6,46.1-79.9,81.4
		c-9,20.9-4,45.2,4.8,66.2c7.9,18.8,19,39.7,10.6,58.4c-6.9,15.4-24.3,22.5-37.4,33.3c-28.2,23.2-34.3,68.8-13.4,98.7
		c4.9,7.1,11.2,13.3,14.7,21.2c19.8,44.4-31,96.9-25,144c4.9,38.4,39.1,68.1,76.4,78.4c37.3,10.2,77.1,4.5,114.7-4.4
		c37.7-8.8,75-20.7,113.6-22.7c27-1.4,55.7,1.8,79.7-10.5c29.2-15,43.8-49.9,43.8-82.7c0.1-59.6-34.2-119.4-13.5-180.3
		c10.5-30.8,44.6-52.4,45.1-84.9c0.4-26.8-22.5-47.4-33.5-71.8c-25.7-56.6-1-139-72.4-169.9c-14.2-6.1-25.5-14.8-38.5-21.9
		c-11.7-6.4-29.4-5-42.8-5.2c-41.2-0.5-78.7-0.6-115,22.4C825.6,705.7,822.3,708,819.2,710.5z"/>
	<path class="st4" d="M1194.1,1199.2c2,2.6,4,5.2,6,7.8c0.7,0.9-85,73.3-94,82.7c-2.4,2.5-5.3,5.3-8.8,5c-2.3-0.2-4.3-1.8-6.1-3.3
		c-14.6-12.2-29.3-24.4-43.9-36.6c-17.8-14.8-35.9-30-48.3-49.6c-25.6-40.6-25.8-148.7,45-128.5c34.8,10,61.4,25.4,87.6,50.4
		C1154.7,1149.1,1174.6,1174.1,1194.1,1199.2z"/>
	<path class="st5" d="M1182.2,1505.9c-52-20.5-147.4,12.9-161.1,64c-2.7,10.2-1.8,20.6-0.5,30.8c10.6,89.5,38.4,176.8,81.9,257.4
		c9.3,17.1,19.5,34.3,35,47.6c15.5,13.3,37.3,22.6,60.1,20.8c26.2-2.1,49.4-18.5,62.4-38.3c13-19.8,17.3-42.4,19.1-64.5
		c4.1-52-4.6-103.5-14.9-154.2c-9.6-47.4-20.9-95.6-50.1-136.1C1206.1,1522.2,1196.3,1511.4,1182.2,1505.9z"/>
	<path class="st2" d="M1351.7,1126c4.2,0.2,8.4,0.3,12.6,0.5c1.1,0,2.3,0.1,3.1-0.6c0.9-0.7,1.1-1.9,1.3-2.9
		c2.3-11.3,7.3-21.7,13.1-31.5c5.3-8.9,9.2-17.3,13.7-26.5c10.7-21.9,19.8-44.5,29-67.1c1.5-3.7,2.8-8.3,0-11.1
		c-2.2-2.2-6-2-8.6-0.3c-2.6,1.7-4.3,4.5-5.9,7.2c-4.9,8.3-9.8,16.6-14.7,24.9c3.1-10.3,6.6-19.9,10.6-29.7
		c3.9-9.5,7.5-21.5,3.2-31.4c-5.1-0.6-10.2,2.3-13.4,6.3c-3.2,4-5,9-6.8,13.8c-2.6,7.3-5.3,14.7-7.9,22c3-18.5,13.7-36.3,10.1-54.7
		c-1.7-8.5-8.9-3.2-11.3,1.8c-8.2,17.1-9.6,36.9-18.2,53.9c0-10.7,0-21.5,0-32.2c0-4.3,3.3-22.6-4.7-22.2c-2.2,0.1-3.8,2.1-4.9,4
		c-6,10-4.1,19.6-5.4,30.4c-1.4,12.4-1.6,24.8-2.9,37.2c-0.5,4.9-4.4,15.2-3.5,19.6c-2.1-9.9-5-19.5-8.6-28.9
		c-1.3-3.3-2.7-6.6-5.3-9c-2.5-2.4-6.4-3.8-9.7-2.3c-5.9,2.6-5.1,11.1-3.7,17.4c3.7,16.1,2.9,32.6,4.8,48.8
		c1.7,14.6,13.5,25.4,10.9,41.5c-1,6.2-3.5,13.7,1.2,18c2.6,2.4,6.4,2.6,9.9,2.8C1344,1125.7,1347.8,1125.8,1351.7,1126z"/>
	<path class="st2" d="M1253,1383.8c-16.5-4.2-34.3-16.4-35.4-39.1c-1.2-25.2,13.7-48.8,22.8-71.3c26.4-65.6,66.3-128.6,99-191.5
		c3.4-6.6,7.1-13.5,13.1-18c23.4-17.3,32.1,15.1,25.9,32.6c-14.3,40.7-16.9,83.9-30,124.4c-14,43.1-29.7,85.6-45.5,128.1
		C1292,1378.5,1278,1390.1,1253,1383.8z"/>
	<path class="st2" d="M595.3,1305c-11.9,12.2-31.4,21.4-51.6,10.9c-22.4-11.6-35.3-36.4-50.1-55.5c-43.4-55.8-77.8-122-115.8-181.9
		c-4-6.3-8.1-12.9-8.9-20.4c-3.2-28.9,29.1-20.1,41.2-6c28,32.8,64,56.7,92.5,88.5c30.3,33.7,59.1,68.7,87.8,103.7
		C610.3,1268.6,613.3,1286.6,595.3,1305z"/>
	<path class="st6" d="M1157.4,2653.3c8.5,9,11.2,21.3,9.5,34.6c-0.1,1-0.4,2.2-1.3,2.8c-0.7,0.5-1.6,0.5-2.5,0.5
		c-10.7,0-21.1,1.1-31.7,1.1c-41.4-1.2-82.8-2.4-124.2-3.6c-1.9-0.1-3.8-0.1-5.5-1c-1.9-0.9-3.3-2.8-4.5-4.7
		c-12.5-19.9-2.8-42.9-2.9-64.2c0-17.6-0.1-35.3-0.1-52.9c0-1.1,0-2.3,0.8-3.2c0.8-0.9,2.1-1.1,3.3-1.2c18.5-1.7,37.1-1.9,55.7-0.8
		c-4.9,16.7-10.1,44.1,3.7,57.9c12.6,12.6,34.1,15.4,51,17.4c13.4,1.6,27.2,3.2,39.1,9.7C1151.5,2648,1154.7,2650.5,1157.4,2653.3z"
		/>
	<path class="st6" d="M939.9,2653.3c8.5,9,11.2,21.3,9.5,34.6c-0.1,1-0.4,2.2-1.3,2.8c-0.7,0.5-1.6,0.5-2.5,0.5
		c-10.7,0-21.1,1.1-31.7,1.1c-41.4-1.2-82.8-2.4-124.2-3.6c-1.9-0.1-3.8-0.1-5.5-1c-1.9-0.9-3.3-2.8-4.5-4.7
		c-12.5-19.9-2.8-42.9-2.9-64.2c0-17.6-0.1-35.3-0.1-52.9c0-1.1,0-2.3,0.8-3.2c0.8-0.9,2.1-1.1,3.3-1.2c18.5-1.7,37.1-1.9,55.7-0.8
		c-4.9,16.7-10.1,44.1,3.7,57.9c12.6,12.6,34.1,15.4,51,17.4c13.4,1.6,27.2,3.2,39.1,9.7C934.1,2648,937.3,2650.5,939.9,2653.3z"/>
	<path class="st7" d="M1102.4,2198.6c7.1-101.4,18.7-202.2,19.1-304.1c0.3-82.9,6.9-174-36.3-248.3c-14.8-25.5-34.9-48.7-61.1-62.2
		c-18.8-9.7-42.5-14.6-63.4-9.5c-22.1,5.4-25.2,21.1-32.4,41.4c-27.3,76.7-9.4,169.2,1.7,248c35.8,254.6,44.3,453.1,44.3,732.9
		c42.5,0.2,59,5,100.8-0.4c9.7-119.7,18-239.4,24.8-359.3C1100.7,2224.3,1101.5,2211.4,1102.4,2198.6z"/>
	<path class="st2" d="M735.7,1238.2c-42.1,25.3-81.9,53.6-126.9,73.6c-17.8,7.9-37.5,15-56.4,10.1c-26.3-6.8-38.2-24.7-21.5-48.4
		c5.5-7.7,12.8-14,20-20.1c28.6-24.3,56.1-49,86.3-71.8c47.1-35.6,94.5-71.4,146.7-99c37.9-20,106.2-9.7,85.1,47.9
		c-15.7,42.8-62.5,65.1-98.8,87C758.6,1224.4,747.1,1231.3,735.7,1238.2z"/>
	<path class="st4" d="M864.9,1137.3c8.4-18.5,12.3-47.2-9.5-56.2c-14.5-6-29.3-8.9-45.3-7.9c-30.8,1.9-60,16.5-86.2,32.3
		c-28.7,17.3-57.4,34.6-86.1,51.9c25.7,32.7,49.3,78.4,77.6,108.9C767.6,1235.5,838.9,1194.5,864.9,1137.3z"/>
	<path class="st7" d="M968.2,1547.9c8.2,38.4,6.5,78.9,4.8,118.2c-6.3,143.5-45.7,281.8-60.3,423.6
		c-17.1,165.7-34.2,331.4-51.3,497.2c-0.3,3.3-0.7,6.6-1,9.9c-27-4.7-71.5,2.7-98.8,0c-14.9-1.6,4.6-722.8,0.3-968.9
		c-0.7-40.7-1.9-85,18.4-121.3c12.7-22.9,33.5-40.1,56.7-47c21.3-6.3,43.6-4.2,65.3-1.4c11.6,1.5,23.5,3.2,33.9,9
		c25.4,14.1,26.3,54.5,31.7,79.5C968,1547.1,968.1,1547.5,968.2,1547.9z"/>
	<g>
		<defs>
			<path id="SVGID_1_" d="M1085.9,1094.2c50.1,69.1,40.5,164.7,38.5,245.2c-1.7,66.9,3.3,133,7.5,199.9c3.2,49.9,6.4,99.8,9.5,149.7
				c1,15.2,1.9,30.9-3.4,45.1c-9.4,25.5-37.8,30.4-61,36.2c-88.1,22-177.7,20.6-266.8,6.1c-41.5-6.8-64.7-19.3-64.6-66.8
				c0.1-49.5,0.1-98.3,0.1-147.7c0-74.4-0.1-148.7-0.2-223.1c-0.1-62.4-11.6-136.6,7.2-196.9c30.4-97.3,158.7-126.4,247.6-103.5
				C1039.9,1048.7,1067.2,1068.4,1085.9,1094.2z"/>
		</defs>
		<use xlink:href="#SVGID_1_"  style="overflow:visible;fill:#F1DCDB;"/>
		<clipPath id="SVGID_00000080914036589790873010000000268999112667340695_">
			<use xlink:href="#SVGID_1_"  style="overflow:visible;"/>
		</clipPath>
		<path style="clip-path:url(#SVGID_00000080914036589790873010000000268999112667340695_);fill:#F1DCDB;" d="M949.5,1148.3
			c13.9,0.5,27.7-1.4,40.8-6.4c31.3-11.9,62.5-49.4,52-85c-1.9-6.6-6.6-11.9-11.5-16.7c-28.2-27.3-69-37.9-107.1-41.3
			c-38.3-3.4-76.2,17.1-102.4,44.6c-4.6,4.8-9.1,10.7-8.9,17.3c0.2,6.6,5,12.1,9.6,16.9c22.1,22.9,46.5,44.3,75.4,57.6
			C913.7,1142.9,931.6,1147.6,949.5,1148.3z"/>
	</g>
	<path class="st2" d="M983.4,1056.8c-0.6,1.9-1.3,3.7-2.3,5.4c-5.5,9.7-16,12.7-25.7,12.9c-13.5,0.2-27.2-3.8-39.3-11.5
		c-28.1-17.9-20.6-72.4-24.3-105.4c-0.2-2.1-0.5-4.1-0.2-6.2c0.9-7.7,7.8-11.5,13.9-13.2c13.2-3.8,27.2-3.9,40.6-0.6
		c9.8,2.4,26.3,3.9,29.1,17.5c5.4,25.5,8.8,51.6,10,77.8C985.5,1041.4,985.6,1049.7,983.4,1056.8z"/>
	<path class="st9" d="M868.8,888.5c3.7,40,23.7,79.1,56.8,102.6c25.3,18,63.7,28.6,92.6,12.9c38.8-21.1,49.1-76.6,50.1-116.7
		c1.2-47.4-14.8-101.4-59.7-124.8c-31.6-16.4-82.1-20.4-106.7,9.4C876.4,802.7,864.9,846.8,868.8,888.5z"/>
	<path class="st3" d="M1010.1,750.4c-4.2,4.2-9.4,7.9-14.4,11c-30.3,19.3-60.6,38.6-90.9,58c-47.7,30.4,8.3,66.9-15.7,108.4
		c-1.5,2.6-3.3,5-5.8,6.7c-15.1,10.1-26.7-17.8-31.4-28c-7-15.2-10.9-31.8-11.7-48.5c-1.6-33.5,7.1-77.1,34.9-98.2
		c20.9-15.9,47.3-28.7,73.8-31c7.3-0.6,69.9,3.1,69.8,2.1C1019.3,738.5,1015.5,744.9,1010.1,750.4z"/>
	<path class="st9" d="M886.9,918.2c8.2,16,6.9,33.2-3,38.3c-9.9,5.1-24.6-3.8-32.8-19.9c-8.2-16-6.9-33.2,3-38.3
		C863.9,893.3,878.6,902.2,886.9,918.2z"/>
	<g>
		<path class="st6" d="M962.8,874.7c1.5,10.5-2.3,19.6-8.3,20.5c-6.1,0.8-12.1-7-13.6-17.4c-1.5-10.5,2.3-19.6,8.3-20.5
			C955.3,856.4,961.4,864.2,962.8,874.7z"/>
		<path class="st2" d="M1012.1,932.4c-8,0-14.5-3.7-14.5-8.4c0-4.6,6.5-8.4,14.5-8.4c8,0,14.5,3.7,14.5,8.4
			C1026.5,928.7,1020,932.4,1012.1,932.4z"/>
		<path class="st6" d="M1047.3,865.2c1.5,10.5-2.3,19.6-8.3,20.5c-6.1,0.8-12.1-7-13.6-17.4c-1.5-10.5,2.3-19.6,8.3-20.5
			C1039.8,847,1045.9,854.8,1047.3,865.2z"/>
		<g>
			<path class="st6" d="M918.2,844.5c1.2-3.8,3.7-7,6.7-9.6c3-2.6,6.7-4.5,10.5-5.6c3.8-1.1,7.9-1.5,11.8-1c3.9,0.5,7.7,1.6,11,3.9
				c-3.9,1-7.4,1.6-10.8,2.3c-3.4,0.7-6.6,1.5-9.8,2.4c-3.2,0.9-6.3,2-9.5,3.2C925,841.5,921.9,842.9,918.2,844.5z"/>
		</g>
		<g>
			<path class="st6" d="M1012.1,822.4c2.9-2.2,6.1-3.5,9.4-4.4c3.3-0.8,6.8-1.2,10.2-1c3.5,0.2,7,1.1,10.2,2.7
				c3.2,1.6,6.2,4.1,7.6,7.6c-3.5-0.8-6.5-1.3-9.5-1.6c-3-0.3-5.9-0.5-8.9-0.7c-3-0.2-6-0.4-9.2-0.8
				C1018.8,823.9,1015.5,823.5,1012.1,822.4z"/>
		</g>
		<path class="st10" d="M1023.9,956.8C1012.1,977.3,976,981,957,954C957,954,1002.6,959.8,1023.9,956.8z"/>
	</g>
	<g>
		<path class="st5" d="M1144.6,1571.1c-180.5-154.6-300.9-320.1-347.9-498l38.8-20.1c45,170.2,160.5,338.5,334.9,487.9
			L1144.6,1571.1z"/>
	</g>
	<path class="st6" d="M636.7,2651.9c8.8,9.4,11.6,22.1,9.8,35.8c-0.1,1.1-0.4,2.3-1.3,2.9c-0.7,0.5-1.7,0.5-2.5,0.5
		c-11.1,0-21.9,1.1-32.9,1.1c-42.9-1.2-85.8-2.5-128.7-3.7c-1.9-0.1-3.9-0.1-5.7-1c-2-1-3.4-2.9-4.7-4.8c-12.9-20.6-2.9-44.4-3-66.5
		c0-18.3-0.1-36.5-0.1-54.8c0-1.2,0-2.4,0.8-3.3c0.8-0.9,2.2-1.1,3.4-1.2c19.2-1.7,38.5-2,57.7-0.8c-5.1,17.3-10.5,45.7,3.8,60
		c13.1,13,35.4,16,52.8,18c13.9,1.6,28.2,3.3,40.5,10.1C630.6,2646.4,633.9,2649,636.7,2651.9z"/>
	<path class="st6" d="M403.9,2651.9c8.8,9.4,11.6,22.1,9.8,35.8c-0.1,1.1-0.4,2.3-1.3,2.9c-0.7,0.5-1.7,0.5-2.5,0.5
		c-11.1,0-21.9,1.1-32.9,1.1c-42.9-1.2-85.8-2.5-128.7-3.7c-1.9-0.1-3.9-0.1-5.7-1c-2-1-3.4-2.9-4.7-4.8c-12.9-20.6-2.9-44.4-3-66.5
		c0-18.3-0.1-36.5-0.1-54.8c0-1.2,0-2.4,0.8-3.3c0.8-0.9,2.2-1.1,3.4-1.2c19.2-1.7,38.5-2,57.7-0.8c-5.1,17.3-10.5,45.7,3.8,60
		c13.1,13,35.4,16,52.8,18c13.9,1.6,28.2,3.3,40.5,10.1C397.9,2646.4,401.2,2649,403.9,2651.9z"/>
	<path class="st11" d="M635.1,1271.5c1.6,5.8,3.3,11.5,5.4,17c15.9,42.2,27.7,83,27.9,128.7c0.1,13.4-1,27.7-8.7,38.6
		c-2.5,3.5-5.7,6.6-9.5,8.6c-4.5,2.3-9.7,3-14.7,2.6c-20.4-1.7-34.8-20-46-37.1c-18.1-27.6-34.5-56.3-49.1-85.9
		c-14.4-29.3-22.3-58.7-33.4-89.2c-15.1-41.6-31.5-89.1-36.8-133.4c-2.7-22.4-5.4-45.2-1.6-67.3c5.6-32.6,21.6-50.1,41.7-45.5
		c9.4,2.1,19.6,9.1,30.1,21.6c31.3,37.2,49.5,83.7,63.3,129.7c7,23.2,13.9,46.5,20.8,69.8C628.4,1243.2,631.3,1257.6,635.1,1271.5z"
		/>
	<path class="st12" d="M412,1511.6c-4.8,1.1-9.4,2.9-13.5,5.7c-22,14.7-30.8,52.4-34.7,78.3c-18.1,120.7,8.7,234.7,27.9,352.6
		c20.9,128.1,35.3,258.4,43,388.3c1.4,22.3,13.9,265.6,15.7,265.6c28.9,0.4,57.7,0.8,86.6,1.3c7.7,0.1,17.3-129.3,18.1-142
		c3.2-48.1,3.8-96.2,6-144.4c12.7-220.2,0-446.5-8-667.1c-1.3-36.5-6.4-74.5-27.1-104.3c-8.5-12.2-31.7-14.9-43.9-20.3
		C463.4,1517.2,434.6,1506.5,412,1511.6z"/>
	<path class="st12" d="M229,1519.9c-3.7,21.2-4.9,42.8-6.2,64.3c-9.9,165.6-0.5,332.6-1.1,498.5c-0.6,172.6-1.2,345.3-1.8,517.9
		c0,3.5,0,6.9,0,10.4c28.3-1.9,56.7-2.7,85.1-2.5c15.5,0,33.2-204.5,35.6-224.6c30.6-253.3,55.8-507.3,87.2-760.4
		c5.2-41.8,11.3-87.3-5.6-127c-10.6-24.9-30.1-45-53.2-54.6c-21.2-8.9-44.5-9.1-67.1-8.6c-12.1,0.3-24.6,0.8-35.9,5.6
		C237.6,1450.6,234,1490.8,229,1519.9z"/>
	<path class="st13" d="M576.7,1134.3c44.4,155.5,21.4,374.2,11.3,472.4c-5.8,56.3-10.7,113.5-25.4,168.4c-2.1,8-4.6,16.2-10.2,22.4
		c-25.4,28.1-114.8,19.5-148.2,19.1c-58.9-0.8-117.8-7.8-175.2-21c-5.3-1.2-10.8-2.6-15.2-5.9c-28.1-21.6-28.7-87.7-32.1-119
		c-9-83.4-0.5-169.7,2.7-253.4c3.4-89.7,9.2-179.2,15.8-268.7c3.4-45.8-3.8-102.5,39.2-131.8c38.8-26.4,98.4-54.3,146.2-55
		C491.5,960.1,548.1,1034.1,576.7,1134.3z"/>
	<g>
		<path class="st14" d="M186.2,1623l-36-26.3c149-203.8,190.9-417.5,103.4-589.2l39.4-21C388.2,1173.5,345.3,1405.4,186.2,1623z"/>
	</g>
	<path class="st15" d="M508,947.2c4.3,4.9,7.8,10.5,10.3,16.8c2.4,6.3,3.6,13.1,2.6,19.8c-3.9,24.7-26.7,46.5-36.3,69.4
		c-10.4,24.9-15.7,51.8-18.8,78.5c-6.1,51.4-3.2,104.5-6.6,155.2c-8.3,124.6-16.6,249.3-24.9,373.9c-1.4-89.3-2.7-178.5-4.1-267.8
		c-1.6-101,15.3-208.3-58.9-290.2c-29-31.6-68.7-58.9-105.8-79.8c-5.6-3.2-11.5-6.6-14.8-12.1c-3.2-5.3-3.6-11.8-3.2-17.9
		c5.9-97.3,139.8-93.9,207.1-75.4C474.3,923.1,494.9,932.2,508,947.2z"/>
	<path class="st2" d="M440.4,1006.4c-1.1,1.8-2.5,3.5-4,5c-9,8.7-23,9.5-35.4,7.5c-17.2-2.7-33.7-9.8-47.5-20.3
		c-31.9-24.3-10.9-78.1-8.7-112.4c0.1-2.1,0.3-4.3,1-6.3c2.8-7.6,12.3-10,20.4-10.4c17.6-1,35.3,1.9,51.7,8.3
		c12,4.6,32.5,9.7,33.3,24.1c1.5,27.1,0.3,54.4-3.7,81.3C446.4,991.2,444.7,999.7,440.4,1006.4z"/>
	<path class="st6" d="M278.7,648.2c-22.5,20.9-37.9,49.3-35.9,79.5c2.7,41.3,25.9,96.2,51.9,128c4.3,5.3,9.3,12,15,15.9
		c6.6,4.5,15.8,7.2,23.2,10.1c21.2,8.2,43.2,14.1,65.6,17.6c11,1.7,22.1,2.7,33.3,3.4c10.2,0.7,20.3-4.7,29.6-8.7
		c10.8-4.6,21.1-10.4,30.1-17.9c9.6-8,17.6-17.8,25.3-27.7c16.2-20.7,27.3-46.3,25.8-72.8c-4.2-74.1-32.5-146.6-79.6-203.9
		c-44.5,36.7-108.8,29.1-158.9,57.9C295.1,634.7,286.5,641,278.7,648.2z"/>
	<path class="st9" d="M322,823.2c3.8,41.4,24.5,81.9,58.8,106.3c26.2,18.7,66,29.6,96,13.3C517,921,527.7,863.5,528.7,822
		c1.2-49.2-15.4-105.1-61.9-129.3c-32.7-17-85.1-21.1-110.6,9.7C329.9,734.3,318,780,322,823.2z"/>
	<path class="st6" d="M468.4,680.1c-4.4,4.4-9.8,8.2-14.9,11.4c-31.4,20-62.8,40-94.2,60.1c-49.4,31.5,8.6,69.3-16.3,112.3
		c-1.5,2.7-3.4,5.2-6,6.9c-15.6,10.5-27.7-18.4-32.5-29c-7.2-15.8-11.3-33-12.1-50.3c-1.6-34.7,7.3-79.9,36.1-101.8
		c21.7-16.5,49-29.7,76.5-32.1c7.5-0.6,72.4,3.2,72.4,2.2C478,667.8,474.1,674.4,468.4,680.1z"/>
	<path class="st9" d="M340.7,854c8.5,16.6,7.1,34.4-3.1,39.6c-10.3,5.3-25.5-3.9-34-20.6c-8.5-16.6-7.1-34.4,3.1-39.6
		C317,828.2,332.2,837.4,340.7,854z"/>
	<g>
		<path class="st6" d="M416.1,811.4c1.5,10.5-2.3,19.6-8.3,20.5c-6.1,0.8-12.1-7-13.6-17.4c-1.5-10.5,2.3-19.6,8.3-20.5
			C408.6,793.2,414.7,801,416.1,811.4z"/>
		<path class="st6" d="M500.6,802c1.5,10.5-2.3,19.6-8.3,20.5c-6.1,0.8-12.1-7-13.6-17.4s2.3-19.6,8.3-20.5
			C493.1,783.7,499.2,791.5,500.6,802z"/>
		<g>
			<path class="st6" d="M371.5,781.3c0-5,2.2-9,5.1-12.3c3-3.2,6.9-5.5,11-6.7c4.2-1.2,8.6-1.4,12.7-0.4c1,0.3,2.1,0.6,3.1,1
				c1,0.4,2,0.9,2.9,1.5c0.9,0.6,1.9,1.2,2.7,2c0.9,0.8,1.7,1.6,2.4,2.6c-1.1,0.7-2,1.3-3,1.8c-0.9,0.5-1.9,1-2.7,1.4
				c-0.9,0.4-1.7,0.9-2.5,1.2c-0.8,0.4-1.6,0.8-2.4,1.1c-3.1,1.3-5.9,2.3-8.8,3.1c-2.9,0.8-5.7,1.5-8.9,2.1
				c-0.8,0.2-1.6,0.3-2.5,0.4c-0.8,0.2-1.8,0.3-2.7,0.4c-0.9,0.2-1.9,0.3-3,0.4C373.9,781.1,372.8,781.2,371.5,781.3z"/>
		</g>
		<g>
			<path class="st6" d="M465.4,759.2c1.3-2,2.7-3.4,4.3-4.6c1.5-1.2,3.2-2.2,4.9-2.9c3.4-1.5,7-2.1,10.8-1.8
				c3.7,0.3,7.5,1.4,10.9,3.7c0.8,0.6,1.6,1.3,2.4,2c0.7,0.7,1.4,1.6,2,2.4c0.6,0.9,1.1,1.9,1.5,2.9c0.4,1,0.6,2.2,0.7,3.3
				c-1.2,0.2-2.2,0.3-3.2,0.4c-1,0.2-1.8,0.2-2.7,0.4l-1.2,0.2c-0.4,0.1-0.7,0.1-1.1,0.2c-0.8,0.2-1.5,0.2-2.2,0.3
				c-2.8,0.3-5.4,0.4-8.2,0.2c-2.7-0.2-5.6-0.7-8.7-1.6c-0.8-0.2-1.6-0.5-2.4-0.8c-0.8-0.3-1.6-0.6-2.5-1c-0.8-0.4-1.7-0.8-2.6-1.3
				C467.2,760.5,466.3,759.9,465.4,759.2z"/>
		</g>
		<path class="st16" d="M406.5,886.2c8.1,25.2,54,43.1,77.5,6.2C460.4,899.3,406.5,886.2,406.5,886.2z"/>
		<path class="st2" d="M469.6,866.8c-8,0-14.5-3.7-14.5-8.4c0-4.6,6.5-8.4,14.5-8.4c8,0,14.5,3.7,14.5,8.4
			C484.1,863,477.6,866.8,469.6,866.8z"/>
	</g>
	<path class="st2" d="M71.9,1810.4c-5.2,10.4-9.6,21.6-7.7,32.9c0.9,5.5,3.3,10.6,5.8,15.5c8.7,17.1,19.2,33.3,31.5,48.1
		c1.9,2.3,3.9,4.6,6.7,5.5c5.4,1.8,11.2-3,12.8-8.5c3.9-13.3-5.8-26.8-4.6-40.1c1.4-16.1,7.6-32.2,16.4-45.7
		c2.2,11.9,2.7,24.1,1.5,36.2c-0.2,2.3-0.5,4.7,0.3,6.9c0.8,2.2,3,4,5.3,3.5c1.4-0.3,2.5-1.5,3.5-2.6c13.9-16.4,18.7-38.7,19.6-60.2
		c0.7-17.8-2.3-36.2-0.5-53.9c1.3-12.6,6-21.7,4.5-35.2c-0.2-1.7-0.5-3.5-1.7-4.7c-1.2-1.1-2.9-1.3-4.5-1.5
		c-7.9-0.9-15.7-1.7-23.6-2.6c-3.6-0.4-7.3-0.7-10.6,0.8c-4.6,2.2-6.7,7.5-8.3,12.3c-11.2,32.4-27.6,57.7-43.5,88
		C73.7,1806.8,72.8,1808.6,71.9,1810.4z"/>
	<path class="st2" d="M182.5,1448.7c-16.5-4.3-37.9-2.1-49.9,17.3c-13.2,21.5-11.4,49.4-14.3,73.4c-8.4,70.2-3.7,144.7-5.3,215.5
		c-0.2,7.5-0.3,15.3,2.9,22.1c12.2,26.4,35.4,2.2,38.4-16.1c7-42.6,25.6-81.6,33.6-123.5c8.5-44.5,15.1-89.4,21.7-134.2
		C214.1,1472.1,207.4,1455.2,182.5,1448.7z"/>
	<path class="st11" d="M288.5,1215.5c-3.6,58.7-6.4,119.9-22.4,176.8c-14.2,50.6-26,102-35.5,153.7c-9.1,49.7-8.7,105.2-30.3,151.3
		c-13.9,29.7-39,54.6-74.2,49.1c-35.3-5.5-31.8-67.3-33.4-93.2c-3.5-58.6,5.8-113.3,16.1-170.5c6-33.4,5.6-67.7,8.2-101.4
		c6.6-86.1,13.4-172.2,25.7-257.6c7.4-51.6,43-113.2,101.1-115c3-0.1,6.2,0.1,8.7,1.8c1.6,1.1,2.7,2.7,3.8,4.2
		c38.7,55.9,37.5,113.3,33.6,177.9C289.4,1200.3,289,1207.9,288.5,1215.5z"/>
	<polygon class="st16" points="407.7,1219.8 635.6,1225.7 617.5,1579.2 389.1,1585.6 	"/>
	<path class="st9" d="M605.6,1398.3c-15.8-1.4-31.3-2.7-47.4-2.5c-4.9,0.1-15.9,0.1-19.2,4.9c-2.1,3.1,0.7,16.4,6,14.8
		c-5.7,1.7-17.3,5.3-16.9,13.2c0.2,3.7,10.3,13.1,14.1,10.9c-3.3,1.9-6.7,4-9,7.1c-2.3,3.1-3.2,7.5-1.2,10.8
		c1.4,2.2,3.9,3.5,6.4,4.4c5.8,2.1,12.2,2.9,18.3,2c-3.9,2.3-12.7,6.4-9.8,12.2c1.5,2.9,4.8,4.4,8,5.1c10.2,2.2,20.1-0.1,30.4-1.3
		c14-1.7,27.6,0.6,41.6-0.2c1.8-0.1,3.5-0.2,5.2-0.7c4.2-1.3,7.4-4.7,10.2-8.2c8.9-11.3,8.1-25.5,4.8-39
		c-2.6-10.6-9.3-21.6-8.4-32.8c1-12.1,8.7-22.5,7.1-35.3c-0.7-5.1-4.3-11-9.4-10.2c-2.8,0.4-4.9,2.7-6.6,5
		c-7.9,10.8-14.2,27.2-16.2,40.4C611,1398.8,608.3,1398.6,605.6,1398.3z"/>
</g>
<g>
	<path class="st1" d="M2886.3,2676.6c0,0-326.8,50.2-730,50.2c-403.2,0-730-50.2-730-50.2s326.9-50.2,730-50.2
		C2559.5,2626.5,2886.3,2676.6,2886.3,2676.6z"/>
	<g>
		<path class="st12" d="M2103,1896.4c33.7,29,97.9,24.4,135.8,7c59.9-27.5,44-126,36.1-176.9c-9.7-62.4-19-155.8-96.3-167.5
			c-32.4-4.9-73.1-12.8-101.5,6.4c-81.9,55.2-27.4,197-7.4,270.5C2077.2,1863.3,2087.7,1883.3,2103,1896.4z"/>
		<path class="st2" d="M1535,1126.1c-4.3,0.2-8.6,0.3-12.9,0.5c-1.1,0-2.3,0.1-3.2-0.6c-0.9-0.7-1.2-1.9-1.4-3
			c-2.4-11.6-7.5-22.3-13.5-32.4c-5.4-9.1-9.5-17.7-14.1-27.2c-11-22.6-20.4-45.8-29.8-69c-1.5-3.8-2.9-8.6,0-11.5
			c2.2-2.3,6.2-2,8.9-0.3c2.7,1.8,4.4,4.6,6,7.4c5,8.5,10.1,17.1,15.1,25.6c-3.2-10.5-6.8-20.5-10.9-30.6c-4-9.7-7.7-22.1-3.3-32.3
			c5.3-0.7,10.4,2.4,13.8,6.5c3.3,4.1,5.2,9.2,7,14.2c2.7,7.6,5.4,15.1,8.1,22.7c-3.1-19-14.1-37.3-10.4-56.2
			c1.7-8.8,9.1-3.3,11.6,1.8c8.5,17.6,9.9,38,18.7,55.4c0-11,0-22.1,0-33.1c0-4.5-3.4-23.2,4.8-22.9c2.3,0.1,3.9,2.1,5.1,4.1
			c6.2,10.3,4.2,20.2,5.5,31.3c1.5,12.7,1.7,25.5,3,38.3c0.5,5.1,4.5,15.7,3.6,20.1c2.1-10.1,5.1-20.1,8.9-29.7
			c1.3-3.4,2.8-6.8,5.4-9.3c2.6-2.5,6.6-3.9,9.9-2.4c6.1,2.7,5.3,11.4,3.8,17.9c-3.8,16.5-2.9,33.5-4.9,50.2
			c-1.7,15-13.8,26.1-11.2,42.7c1,6.4,3.6,14.1-1.2,18.5c-2.6,2.4-6.6,2.7-10.2,2.9C1543,1125.8,1539,1126,1535,1126.1z"/>
		<path class="st2" d="M1636.5,1391.2c17-4.3,35.3-16.8,36.4-40.2c1.3-25.9-14.1-50.2-23.4-73.3c-27.2-67.5-68.2-132.2-101.8-196.9
			c-3.5-6.8-7.3-13.9-13.5-18.5c-24-17.7-33,15.5-26.6,33.5c14.7,41.9,17.3,86.2,30.8,127.9c14.4,44.3,30.6,88,46.8,131.7
			C1596.4,1385.7,1610.8,1397.7,1636.5,1391.2z"/>
		<path class="st2" d="M1616,1394.4c7.1,2.7,15.9,2.8,25.1,1.1c33.3-6.2,62-26.7,88.1-48.3c33.1-27.5,64-57.7,92.2-90.2
			c13.5-15.6,26.6-31.9,36.2-50.3c11.7-22.4,8.6-37.9-3.2-60.2c-2.8-5.3-6.2-10.5-10.9-14.1c-8.8-6.8-21.2-7.2-31.8-3.7
			c-10.6,3.4-19.6,10.3-28.3,17.2c-32.2,25.6-61.9,54.1-88.9,85.1c-25.3,29.2-49.7,59.2-74.1,89.1
			C1606.1,1337.7,1583.5,1382.1,1616,1394.4z"/>
		<path class="st5" d="M1699.9,1204.2c-7.5,8.9-14.9,17.9-22.2,27.1c-4.8,6.1-12.3,20.8-20.9,21.7c-16.5,1.8-28.1-38.2-32.7-49.8
			c-5.2-13-10.3-26-15.5-39c-8.6-21.7-11.7-55.3-36.9-66.4c-6.4-2.8-13.8-2.4-20.7-1c-22.4,4.5-44.2,6.2-64.4,18.3
			c-0.6,0.4-1.3,0.8-1.5,1.5c-0.7,2.7,3.4,14.7,4.3,18.4c2.1,9,5.7,17.8,8.5,26.6c5.6,17.2,11.2,34.5,16.8,51.7
			c11.2,34.4,21.7,69.2,33.6,103.4c6.3,19.5,12.8,39.3,24.4,56.2c11.6,16.9,29.1,30.9,49.4,33.3c28,3.3,53.4-15,75.6-32.4
			c33.8-26.4,73.1-50.9,105.1-77.5c15-12.5,30.1-25.1,45.1-37.6c18.3-15.3,36.9-30.9,49.6-51c16.9-26.8,20.7-66.5,12.4-96.6
			c-11.3-41.5-52.4-45.9-87.4-26.9c-15.4,8.3-28.4,20.4-40.9,32.5C1753,1144.4,1725.7,1173.7,1699.9,1204.2z"/>
		<path class="st6" d="M1718.1,2637.9c-8.4,9-11.2,21.2-9.4,34.4c0.1,1,0.4,2.2,1.2,2.8c0.7,0.5,1.6,0.5,2.4,0.5
			c10.7,0,21,1.1,31.6,1.1c41.2-1.2,82.4-2.4,123.5-3.6c1.8-0.1,3.8-0.1,5.4-1c1.9-0.9,3.3-2.7,4.5-4.6c12.4-19.8,2.8-42.6,2.9-63.9
			c0-17.5,0.1-35.1,0.1-52.6c0-1.1,0-2.3-0.8-3.2c-0.8-0.9-2.1-1.1-3.3-1.2c-18.4-1.7-36.9-1.9-55.4-0.8c4.9,16.6,10,43.9-3.7,57.6
			c-12.6,12.5-33.9,15.4-50.7,17.3c-13.3,1.6-27.1,3.2-38.8,9.7C1723.9,2632.6,1720.7,2635.1,1718.1,2637.9z"/>
		<path class="st6" d="M1941.4,2637.9c-8.4,9-11.2,21.2-9.4,34.4c0.1,1,0.4,2.2,1.2,2.8c0.7,0.5,1.6,0.5,2.4,0.5
			c10.7,0,21,1.1,31.6,1.1c41.2-1.2,82.4-2.4,123.5-3.6c1.8-0.1,3.8-0.1,5.4-1c1.9-0.9,3.3-2.7,4.5-4.6c12.4-19.8,2.8-42.6,2.9-63.9
			c0-17.5,0.1-35.1,0.1-52.6c0-1.1,0-2.3-0.8-3.2c-0.8-0.9-2.1-1.1-3.3-1.2c-18.4-1.7-36.9-1.9-55.4-0.8c4.9,16.6,10,43.9-3.7,57.6
			c-12.6,12.5-33.9,15.4-50.7,17.3c-13.3,1.6-27.1,3.2-38.8,9.7C1947.3,2632.6,1944.1,2635.1,1941.4,2637.9z"/>
		<path class="st17" d="M1933.7,1543.4c4.7,1.1,9,2.8,13,5.4c21.1,14.1,29.6,50.3,33.3,75.1c17.4,115.9-8.4,225.3-26.8,338.4
			c-20,123-33.9,248.1-41.3,372.7c-1.4,21.4-13.4,255-15.1,255c-27.7,0.4-55.4,0.8-83.1,1.2c-7.3,0.1-16.6-124.1-17.4-136.3
			c-3.1-46.2-3.7-92.4-5.8-138.7c-12.2-211.3,0-428.6,7.7-640.3c1.3-35.1,6.1-71.5,26-100.1c8.1-11.7,30.4-14.3,42.2-19.4
			C1884.3,1548.7,1912,1538.4,1933.7,1543.4z"/>
		<path class="st17" d="M2109.4,1551.3c3.5,20.3,4.8,41,6,61.7c9.5,158.9,0.5,319.3,1,478.5c0.6,165.7,1.2,331.4,1.8,497.1
			c0,3.3,0,6.6,0,9.9c-27.2-1.8-54.4-2.6-81.7-2.4c-14.9,0-31.9-196.3-34.2-215.6c-29.4-243.1-53.5-486.9-83.7-729.9
			c-5-40.1-10.8-83.8,5.4-122c10.2-23.9,28.9-43.2,51.1-52.4c20.4-8.5,42.7-8.7,64.4-8.2c11.7,0.3,23.6,0.7,34.5,5.3
			C2101.1,1484.8,2104.6,1523.4,2109.4,1551.3z"/>
		<g>
			<defs>
				<path id="SVGID_00000142873839987004453310000007289313114826154661_" d="M1821.1,1109.3c-5.1,11.6-9.1,23.9-12,36.8
					c-21.1,92.9-7.4,192.1-9.7,286.4c-1.9,78-3.9,156.1-5.8,234.1c-0.2,6.5-0.3,13.2,2,19.2c4.4,11.8,16.7,18.4,28.4,23.2
					c60.9,24.6,128.6,23.6,194.3,22.1c37.3-0.8,76-2,109.6-18.4c5.3-2.6,10.6-5.8,13.4-10.9c2.5-4.6,2.5-10,2.5-15.3
					c-0.1-39.4-2.2-78.9-1.9-118.2c0.7-91.5,1.4-183,2.1-274.5c0.4-48-3.6-95.8-6.4-143.7c-4.2-71.3-53.3-110.1-122-117.6
					c-38.9-4.3-84.7-3.7-122.3,8.6C1857.9,1052.7,1835.1,1078,1821.1,1109.3z"/>
			</defs>
			<use xlink:href="#SVGID_00000142873839987004453310000007289313114826154661_"  style="overflow:visible;fill:#6CCACE;"/>
			<clipPath id="SVGID_00000122708708098415930720000015498692370844327560_">
				<use xlink:href="#SVGID_00000142873839987004453310000007289313114826154661_"  style="overflow:visible;"/>
			</clipPath>
			<path style="clip-path:url(#SVGID_00000122708708098415930720000015498692370844327560_);fill:#EBE4EF;" d="M1927.2,987.3
				c-13.2,3-26.6,7.1-36.9,15.8c-32.6,27.6-0.9,69.4,27.1,84.8c45.8,25.3,99.1,14.1,127-30.9c13.5-21.8,22.1-62.7-6.1-77.3
				c-13.3-6.9-36.5-0.4-51.1,0C1967,980.2,1946.8,982.8,1927.2,987.3z"/>
		</g>
		<g>
			<path class="st12" d="M2164.1,1650.3l34.5-25.2c-143-195.6-202.1-407.6-118.2-572.4l-36.9-13.3
				C1952.2,1218.8,2011.4,1441.4,2164.1,1650.3z"/>
		</g>
		<path class="st2" d="M1922.5,1056.3c0.4,0.3,0.7,0.5,1.1,0.8c6.8,4.5,14.8,6.8,22.9,8.1c30.7,5.2,53.5-0.1,76.9-19.8
			c1.7-1.4,3.4-2.9,4.2-4.9c0.8-2,0.8-4.2,0.7-6.3c-1-23.1-6.9-48.9-5.2-71.7c0.1-2,0.3-4.1-0.1-6.1c-1.6-7.6-10.4-11.1-18-12.6
			c-16.6-3.2-33.8-2.8-50.2,1.1c-12,2.8-32.2,4.9-34.8,18.6C1915.2,989.6,1895.3,1036.5,1922.5,1056.3z"/>
		<path class="st5" d="M2076.1,1262.8c11.7,57.3,28.1,113.6,49,168.1c13.9,36.2,55,143.5,112.1,104.1c21.9-15.1,21.1-47.1,18-73.5
			c-10.6-89-21.2-178.6-45.7-265.1c-15.8-55.7-47.1-137.8-118.6-133.5c-2.9,0.2-5.9,0.6-8.1,2.5c-1.4,1.2-2.4,2.8-3.3,4.4
			c-31.8,56.2-18.5,111.2-7.5,171.2C2073.2,1248.2,2074.6,1255.5,2076.1,1262.8z"/>
		<path class="st19" d="M2059.8,960.8c-34,55.9-127.6,43.9-167.8,4.2c-15.7-15.5-23.5-33.4-34.4-51.9c-9.4-16-26.1-25.8-22.5-47.7
			c0.9-5.3,2.9-10.5,2.8-15.9c-0.1-12.4-10.2-22-15.8-33c-5.6-11.1-6.6-24.4-2.6-36.1c3.8-11.2,11.8-20.8,14.7-32.3
			c2.8-10.9,0.7-22.3,0.6-33.5c-0.2-11.2,2.2-23.6,11.2-30.4c12.1-9.1,29.2-3.7,44.2-5.8c23.1-3.1,43.3-24.6,66.1-19.5
			c7.8,1.7,14.6,6.5,22.1,9.5c29.6,12,68.5-3.5,92.6,17.5c7.4,6.4,12,15.5,18.5,22.9c7.8,9,18.1,15.4,26.4,23.9
			c8.3,8.5,14.8,20.3,12.1,31.9c-2.7,11.5-13.7,19.4-17.4,30.6c-5.7,17.5,8.1,36.7,2.8,54.3c-3.2,10.9-13.3,19.1-14.9,30.4
			c-1.1,7.4,1.8,14.8,2.4,22.2c1.1,13.8-6.1,27.9-17.9,35.1c-4.2,2.5-9,4.3-12.7,7.6C2065.5,949,2063.2,955.3,2059.8,960.8z"/>
		<path class="st9" d="M2055.4,886.1c-1.1,41.1-19.1,82.4-51.5,108.7c-24.8,20.1-63.6,33.5-94.3,19.4c-41.2-19-55.5-74.9-59.2-115.9
			c-4.4-48.4,8.5-104.6,53.1-131.5c31.3-18.9,83-26.4,110.2,2.4C2041.9,799,2056.6,843.3,2055.4,886.1z"/>
		<path class="st19" d="M1936.9,713.1c-11,1.4-21.8,3.4-31.9,6c-11,2.8-22.2,6.5-30.7,14.1c-8.4,7.6-13.3,18.3-17.4,29
			c-4.1,10.7-18.2,44.9-10.7,55.9c16.5,24.1,37.4-32,43.4-34.7c6.2-2.9,13.5-3.4,19-7.5c6.5-4.9,9.5-14.4,17.2-17.1
			c13.1-4.7,25.9,14.2,39.2,10c4.5-1.4,8.3-5.4,13-5.2c5,0.3,8.4,5.2,10,10c1.6,4.7,2.5,10,5.9,13.7c7.2,7.6,21.1,3.8,29,10.7
			c7.8,6.8,5.2,19.5,8.9,29.1c3.4,8.9,12.3,15.5,13.5,25c2.8,20.8-13.1,36.6-2.1,58.6c1.3,2.6,2.8,5,4.9,6.7
			c12.9,10.2,22.6-17.5,26.5-27.6c5.8-15.1,9-31.6,9.5-48.2c1.1-33.3-6.6-76.7-30.3-97.9c-17.9-16-40.3-28.9-62.9-31.3
			C1973.9,710.4,1955.1,710.8,1936.9,713.1z"/>
		<path class="st9" d="M2035.2,912.5c-6.2,16.8-2.7,33.6,7.6,37.4c10.4,3.8,23.8-6.8,30-23.6c6.2-16.8,2.7-33.6-7.6-37.4
			C2054.8,885.1,2041.4,895.7,2035.2,912.5z"/>
		<path class="st9" d="M2067.4,1770.1c-10.6-6.5-31.8-28.7-20.6-41.2c13.6-15.2,27.2-30.4,40.8-45.5c10.9,10.5,21,21.8,30.3,33.7
			c0.7,0.9,1.5,1.9,1.7,3.1c0.3,1.5-0.2,3.1-0.7,4.6c-2.9,8.4-5.2,17.1-6.7,25.9c-1,5.6,0.6,21.9-2.3,26
			C2103.3,1785.8,2075.3,1774.9,2067.4,1770.1z"/>
		<path class="st5" d="M2070.2,1652.7c9.1-18.1,18.3-36.1,25.7-55c10.1-25.9,18.3-52.6,28.4-78.6c9.5-24.5,19.8-50.1,39.9-67
			c24-20.1,63.9-19,85,5.4c13.4,15.6,10,39.1,4.5,58.9c-10.8,38.8-28.7,74.9-49.1,109.4c-16.1,27.3-32,56.1-49.7,82.2
			c-6.6,9.7-13.2,19.4-19.8,29.2c-1.8,2.6-3.6,5.2-6.1,7.1c-14.4,10.8-45.8-16.9-56.2-26.2c-8.3-7.4-18.8-18.2-17.6-30.3
			c0.5-5,2.6-9.6,4.7-14.1C2063.2,1666.7,2066.7,1659.7,2070.2,1652.7z"/>
		<g>
			<path class="st6" d="M1955.3,882.9c-1.4,10,2.2,18.8,8,19.7c5.8,0.8,11.7-6.7,13.1-16.7c1.4-10-2.2-18.8-8-19.7
				C1962.6,865.4,1956.7,872.8,1955.3,882.9z"/>
			<path class="st6" d="M1874.2,873.8c-1.4,10,2.2,18.8,8,19.7c5.8,0.8,11.7-6.7,13.1-16.7c1.4-10-2.2-18.8-8-19.7
				C1881.5,856.3,1875.6,863.8,1874.2,873.8z"/>
			<g>
				<path class="st19" d="M1998.2,854c-4.7-0.4-8-1.1-11.2-1.6c-3.1-0.6-5.8-1.2-8.6-2c-2.7-0.8-5.5-1.7-8.5-3
					c-3-1.3-6.2-2.7-10.2-5.2c2.9-3.8,6.7-5.7,10.7-6.8c4-1,8.3-0.8,12.2,0.3c4,1.2,7.7,3.3,10.6,6.5
					C1996.1,845.3,1998.2,849.2,1998.2,854z"/>
			</g>
			<g>
				<path class="st19" d="M1908.1,832.7c-0.9,0.7-1.8,1.2-2.6,1.7c-0.8,0.5-1.7,0.9-2.5,1.3c-0.8,0.4-1.6,0.7-2.4,1
					c-0.8,0.3-1.5,0.6-2.3,0.8c-3,0.9-5.7,1.3-8.3,1.5c-2.6,0.2-5.2,0.1-7.9-0.2c-0.7-0.1-1.3-0.1-2.1-0.3c-0.4-0.1-0.7-0.1-1.1-0.1
					l-1.2-0.2l-2.6-0.4c-0.9-0.1-1.9-0.2-3-0.3c0.1-1.1,0.3-2.2,0.7-3.2c0.4-1,0.9-1.9,1.4-2.8c0.6-0.8,1.2-1.6,2-2.3
					c0.7-0.7,1.5-1.3,2.3-1.9c3.2-2.2,6.9-3.3,10.5-3.5c3.6-0.2,7.1,0.3,10.3,1.7c1.6,0.7,3.2,1.6,4.7,2.8
					C1905.4,829.5,1906.8,830.8,1908.1,832.7z"/>
			</g>
			<path class="st10" d="M1964.5,954.7c-7.8,24.2-51.9,41.4-74.4,5.9C1912.8,967.2,1964.5,954.7,1964.5,954.7z"/>
			<path class="st2" d="M1904,936c7.7,0,13.9-3.6,13.9-8s-6.2-8-13.9-8c-7.7,0-13.9,3.6-13.9,8S1896.3,936,1904,936z"/>
		</g>
	</g>
	<g>
		<path class="st7" d="M2223.8,1491.7c0.6,2.4,1.3,4.7,2.2,6.9c15.8,38.7,45.5,7.8,62.1-11.8c12-14.2,19.3-31.6,25.6-49.1
			c21.6-60.1,32.5-123.5,43.3-186.4c3.5-20.5,7.1-41,8.1-61.8c0.7-14.8,0.1-29.7-1.8-44.4c-1-7.6-3.7-16.7-11.2-18.3
			c-4.6-1-9.2,1.5-13.2,4c-40.2,26-63.8,71-80.1,116c-16.7,46-27.5,94.1-32.2,142.8c-1.9,19.3-3.3,38.7-4.1,58
			C2221.9,1461.3,2220.4,1477.9,2223.8,1491.7z"/>
		<path class="st6" d="M2565.2,783.1c25.5,23.7,38.2,68.4,42.9,101.7c2.6,18.1,2.9,36.5,3.2,54.8c1.1,60.1,2.2,120.2,3.3,180.3
			c0.6,34.8,1.3,69.8-3.2,104.3c-1.9,14.5-5.5,30.4-17.5,38.9c-7.2,5.1-16.4,6.6-25.2,7.8c-70.6,9.7-144.7,10-210.4-17.6
			c-15.3-6.4-16.9-37.2-19.6-50.7c-4.7-24.1-7.5-48.5-9-73c-5.2-82.6-0.3-166.7,0.5-249.4c0.4-38.1,4.7-91,44.5-108.2
			c13.6-5.9,24.5-14.2,37-21c11.2-6.1,28.2-4.8,41.1-5c30.7-0.4,61.8,4.2,88.8,19.7C2550,770.6,2558,776.5,2565.2,783.1z"/>
		<path class="st6" d="M2227.4,2639.2c-8.2,8.7-10.8,20.5-9.1,33.2c0.1,1,0.4,2.1,1.2,2.7c0.7,0.5,1.5,0.5,2.4,0.5
			c10.3,0,20.3,1.1,30.5,1.1c39.7-1.1,79.5-2.3,119.2-3.4c1.8-0.1,3.6-0.1,5.3-0.9c1.8-0.9,3.2-2.6,4.3-4.5
			c12-19.1,2.7-41.1,2.8-61.6c0-16.9,0.1-33.8,0.1-50.8c0-1.1,0-2.2-0.7-3c-0.7-0.9-2-1-3.1-1.1c-17.8-1.6-35.6-1.8-53.4-0.7
			c4.7,16,9.7,42.4-3.5,55.6c-12.1,12.1-32.7,14.8-48.9,16.7c-12.9,1.5-26.2,3.1-37.5,9.4C2233,2634.1,2229.9,2636.5,2227.4,2639.2z
			"/>
		<path class="st6" d="M2441.5,2639.2c-8.2,8.7-10.8,20.5-9.1,33.2c0.1,1,0.4,2.1,1.2,2.7c0.7,0.5,1.5,0.5,2.4,0.5
			c10.3,0,20.3,1.1,30.5,1.1c39.7-1.1,79.5-2.3,119.2-3.4c1.8-0.1,3.6-0.1,5.3-0.9c1.8-0.9,3.2-2.6,4.3-4.5
			c12-19.1,2.7-41.1,2.8-61.6c0-16.9,0.1-33.8,0.1-50.8c0-1.1,0-2.2-0.7-3c-0.7-0.9-2-1-3.1-1.1c-17.8-1.6-35.6-1.8-53.4-0.7
			c4.7,16,9.7,42.4-3.5,55.6c-12.1,12.1-32.7,14.8-48.9,16.7c-12.9,1.5-26.2,3.1-37.5,9.4
			C2447.2,2634.1,2444.1,2636.5,2441.5,2639.2z"/>
		<path class="st11" d="M2262,2180.1c-8.8-183.5-12.1-370.7,17.7-551.5c9.3-56.3,34.1-110.9,33.9-167.9c16.2,4.1,32.5,8.1,48.7,12.2
			c13.2,3.3,26.8,6.8,38.1,14.3c20.7,13.7,30.9,38.3,39.8,61.5c37.9,97.6,69.4,181.1,55.2,287.8c-25,188-44.9,376.9-72.7,564.5
			c-8.9,59.8-17.8,119.7-26.7,179.5c-0.7,4.5-1.5,9.3-4.9,12.4c-11.1,11.1-43.2,1.4-56.3,0c-4.1-0.4-8.5-1-11.7-3.6
			c-2.8-2.2-4.3-5.7-5.6-9c-41.5-102.9-46.1-216.3-51.9-325.7C2264.5,2229.9,2263.2,2205,2262,2180.1z"/>
		<path class="st13" d="M2544.8,1468.4c8.3,0.3,17.4,1,23.5,6.6c2.9,2.6,4.8,6.2,6.6,9.6c52.2,97.7,60.6,206.5,67.1,314.9
			c8.2,135.1,7.8,270.6,1.8,405.8c-2.9,65.9-6.1,132.1-12.7,197.7c-1.7,17.2-21.3,192.5-31.2,192.4c-19.3-0.1-38.5-0.9-57.8-1
			c-37.7-59.3-51.2-139.1-64.3-207.8c-14.9-77.9-22.7-156.9-30.5-235.7c-11.1-112.7-24.6-228.2-39-341.7
			c-14.5-114.6-30.7-227.9-25.2-343.9C2433.2,1454,2493.3,1466.4,2544.8,1468.4z"/>
		<g>
			<defs>
				<path id="SVGID_00000021118354584672888160000013778963479987383990_" d="M2326.8,1152.5c-7.9,13.9-14.7,29.2-19,41.1
					c-11.6,31.6-20.3,66.2-18.1,100c2.2,34.9,15.4,69.4,28.1,101.6c12.4,31.7,14.8,63.2,14.8,96.7c33-3.5,66.4-0.9,99.5-1.2
					c12.5-0.1,138.5,5.7,142.2-4.7c22.2-68.7,44.7-138.4,51.4-210.7c4.4-47.5,17.9-129.2-31.6-158.1
					c-34.5-20.2-73.8-36.1-113.5-41.9c-41.5-6-83.2,19.3-118.1,39.1c-5.4,3-10.7,6.1-15.2,10.4
					C2340,1131.5,2333,1141.6,2326.8,1152.5z"/>
			</defs>
			<use xlink:href="#SVGID_00000021118354584672888160000013778963479987383990_"  style="overflow:visible;fill:#D03F28;"/>
			<clipPath id="SVGID_00000018226811262179513140000010955571122503982720_">
				<use xlink:href="#SVGID_00000021118354584672888160000013778963479987383990_"  style="overflow:visible;"/>
			</clipPath>
		</g>
		<polygon class="st20" points="2500.3,1193.2 2281.5,1198.9 2267.5,1212.3 2504.1,1557.8 2518.2,1544.3 		"/>
		<polygon class="st16" points="2486.2,1206.6 2267.5,1212.3 2284.9,1551.7 2504.1,1557.8 		"/>
		<path class="st2" d="M2503.9,1477.8c0.6,0,1.3,0,1.9,0c5.1,0.1,10.3,0.2,15.1-1.3c4.9-1.5,9.4-4.9,11-9.7c1-3,0.8-6.2,2-9.1
			c1.4-3.4,4.9-6.2,4.7-10c-0.1-4.1-4.6-7.2-4.6-11.3c0-3.3,2.9-6.1,2.7-9.3c-0.2-2.4-1.9-4.3-2.8-6.6c-2.4-6,1.8-14-2.5-18.9
			c-1.6-1.8-4-2.6-6.3-3.2c-11.5-2.6-25.9,2.5-37,5.7c-12.9,3.7-25,9.8-37,15.7c-4.4,2.2-12.6,3.6-15.5,7.5
			c-6.3,8.4,0.7,25.3,3.6,33.7c3.8,11.1,6.3,14.6,18.4,15.5C2473,1478,2488.6,1477.5,2503.9,1477.8z"/>
		<path class="st7" d="M2225.1,1486.8c1.2,16.8,5.6,28.4,22.4,34.4c26.9,9.6,54.2,4.3,80.6-3.8c38-11.7,77.1-19.4,115-31.2
			c6-1.9,12.7-4.4,15.4-10.2c1.3-2.8,1.4-6,1.4-9.1c0-16-3-32.1-8.7-47.1c-0.5-1.4-1.2-2.9-2.4-3.8c-1.3-0.9-2.9-1-4.5-1
			c-62.8-1.4-127.6-0.4-185.4,24.2C2234.8,1449.5,2223.2,1459.9,2225.1,1486.8z"/>
		<path class="st2" d="M2424.9,1113.9c0.9,1.7,1.9,3.3,3.1,4.7c6.9,8.2,17.4,9.2,26.6,7.6c12.8-2.2,24.9-8.4,35.1-17.8
			c23.4-21.8,6.6-72,4.3-103.7c-0.1-2-0.3-4-0.9-5.9c-2.2-7.1-9.4-9.5-15.4-10c-13.1-1.2-26.3,1.1-38.5,6.6
			c-8.8,4.1-24.1,8.3-24.4,21.7c-0.6,25,0.8,50.3,4.3,75.2C2420.1,1099.7,2421.5,1107.6,2424.9,1113.9z"/>
		<path class="st9" d="M2525.1,945.2c-3.5,38.4-22.7,75.9-54.5,98.5c-24.3,17.3-61.2,27.5-88.9,12.3c-37.2-20.3-47.1-73.5-48.1-112
			c-1.1-45.5,14.2-97.3,57.3-119.8c30.3-15.8,78.8-19.6,102.4,9C2517.8,862.9,2528.8,905.2,2525.1,945.2z"/>
		<path class="st6" d="M2389.5,812.7c4,4.1,9,7.6,13.8,10.6c29.1,18.5,58.2,37.1,87.3,55.6c45.7,29.2-8,64.2,15.1,104
			c1.4,2.5,3.2,4.8,5.5,6.4c14.5,9.7,25.7-17,30.1-26.8c6.7-14.6,10.4-30.5,11.2-46.6c1.5-32.1-6.8-74-33.5-94.3
			c-20.1-15.3-45.4-27.6-70.8-29.7c-7-0.6-67.1,3-67,2C2380.6,801.2,2384.2,807.4,2389.5,812.7z"/>
		<path class="st9" d="M2507.7,973.8c-7.9,15.4-6.6,31.8,2.9,36.7c9.5,4.9,23.6-3.7,31.5-19.1c7.9-15.4,6.6-31.8-2.9-36.7
			C2529.7,949.8,2515.6,958.4,2507.7,973.8z"/>
		<path class="st2" d="M2758.7,1829.4c4.2,8.4,7.7,17.3,6.2,26.4c-0.7,4.4-2.6,8.5-4.7,12.4c-7,13.8-15.5,26.7-25.3,38.6
			c-1.5,1.8-3.1,3.7-5.4,4.4c-4.4,1.4-9-2.4-10.3-6.8c-3.1-10.7,4.7-21.5,3.7-32.2c-1.1-12.9-6.1-25.9-13.2-36.7
			c-1.7,9.6-2.2,19.4-1.2,29.1c0.2,1.8,0.4,3.8-0.2,5.5c-0.6,1.7-2.4,3.2-4.2,2.8c-1.2-0.3-2-1.2-2.8-2.1
			c-11.2-13.2-15-31.1-15.8-48.4c-0.6-14.3,1.9-29.1,0.4-43.3c-1-10.1-4.8-17.5-3.6-28.3c0.1-1.4,0.4-2.9,1.4-3.8
			c0.9-0.9,2.3-1.1,3.6-1.2c6.3-0.7,12.6-1.4,19-2.1c2.9-0.3,5.9-0.6,8.5,0.6c3.7,1.8,5.4,6,6.7,9.9c9,26,22.2,46.4,35,70.7
			C2757.3,1826.5,2758,1828,2758.7,1829.4z"/>
		<path class="st2" d="M2710,1529.8c0.1,5.4,0.2,11-2.5,15.6c-4,6.8-13.2,9.3-20.9,7.5c-7.7-1.8-14.2-7.1-19.7-12.8
			c-21.9-22.8-32.6-53.9-40.7-84.5c-10.3-38.9-17.3-78.6-21.1-118.6c-2.2-23.8-3.3-48.1,2.3-71.3c2.4-10,6.7-20.5,15.6-25.6
			c61.5-35.3,79.5,180.6,82.1,207.7C2707.7,1475.1,2709.3,1502.5,2710,1529.8z"/>
		<path class="st7" d="M2692.8,1304.7c18.1,77.1,28.2,155.8,34.1,234.7c2.8,38,4.5,76,6.2,114c0.5,11.9,6,114-5.2,116.7
			c-11.4,2.7-22.8,5.4-34.2,8.1c-1.5,0.3-3,0.7-4.5,0.5c-2.8-0.4-4.9-2.7-6.6-4.9c-33.6-42-40.9-91.6-46.8-143.2
			c-7.4-64.6-11.3-131.1-24.6-194.7c-13.6-65-31.7-129.1-43.8-194.5c-4.5-24-10.1-51.2-9.4-75.6c1-30.6,13.4-48.7,32.4-47.1
			c65.4,5.6,81.6,105.2,94.5,153.8C2687.6,1283.2,2690.3,1294,2692.8,1304.7z"/>
		<g>
			<path class="st6" d="M2434.8,932.8c-1.4,10,2.2,18.8,8,19.7c5.8,0.8,11.7-6.7,13.1-16.7c1.4-10-2.2-18.8-8-19.7
				C2442.1,915.3,2436.2,922.8,2434.8,932.8z"/>
			<path class="st6" d="M2353.7,923.8c-1.4,10,2.2,18.8,8,19.7c5.8,0.8,11.7-6.7,13.1-16.7c1.4-10-2.2-18.8-8-19.7
				C2360.9,906.2,2355.1,913.7,2353.7,923.8z"/>
			<g>
				<path class="st6" d="M2477.7,903.9c-3.5-1.5-6.5-3-9.6-4.1c-3-1.2-6-2.2-9.1-3.1c-3.1-0.9-6.2-1.6-9.4-2.3
					c-3.3-0.7-6.6-1.3-10.3-2.2c3.2-2.2,6.8-3.3,10.6-3.8c3.8-0.4,7.6-0.1,11.3,1c3.7,1.1,7.2,2.9,10.1,5.3
					C2474.1,897.1,2476.5,900.2,2477.7,903.9z"/>
			</g>
			<g>
				<path class="st6" d="M2387.6,882.7c-3.3,1-6.5,1.4-9.5,1.7c-3,0.3-6,0.5-8.8,0.7c-2.9,0.2-5.7,0.4-8.5,0.7
					c-2.9,0.3-5.7,0.8-9.1,1.5c1.3-3.3,4.2-5.7,7.2-7.3c3.1-1.6,6.5-2.4,9.8-2.6c3.3-0.2,6.7,0.1,9.8,0.9
					C2381.7,879.3,2384.8,880.5,2387.6,882.7z"/>
			</g>
			<path class="st16" d="M2444,1004.6c-7.8,24.2-51.9,41.4-74.4,5.9C2392.3,1017.2,2444,1004.6,2444,1004.6z"/>
			<path class="st2" d="M2383.5,985.9c7.7,0,13.9-3.6,13.9-8c0-4.4-6.2-8-13.9-8c-7.7,0-13.9,3.6-13.9,8
				C2369.6,982.3,2375.8,985.9,2383.5,985.9z"/>
		</g>
	</g>
</g>
</svg>
