<?xml version="1.0" encoding="utf-8"?>
<!-- Generator: Adobe Illustrator 24.2.0, SVG Export Plug-In . SVG Version: 6.00 Build 0)  -->
<svg version="1.1" id="Layer_1" xmlns="http://www.w3.org/2000/svg" xmlns:xlink="http://www.w3.org/1999/xlink" x="0px" y="0px"
	 viewBox="0 0 187 338" style="enable-background:new 0 0 187 338;" xml:space="preserve">
<style type="text/css">
	.st0{fill:#D9935C;}
	.st1{fill:#F1A34F;}
	.st2{fill:#D86713;}
	.st3{fill:#CB7D45;}
	.st4{fill:#233862;}
	.st5{fill:#EE9849;}
	.st6{fill:#E58638;}
	.st7{fill:#2B478B;}
	.st8{fill:#B64C41;}
	.st9{fill:#466AA5;}
	.st10{fill:#D37129;}
	.st11{opacity:0.4;fill:#D86713;}
</style>
<g>
	<g>
		<path class="st0" d="M63.2,184.9c-23-5.8-48.3-41.5-48.3-41.5l6.5-5.6c6.7,7.9,34.6,21.5,34.6,21.5c-0.1-7.2,0-13.8,0.5-19.8
			C59.5,98.6,74.9,85,79.1,82.1c0.7-0.5,1.1-0.7,1.1-0.7s0,0.3,0,0.9c0.1,1.2,0.2,3.7,0.3,7C81.4,114.2,82.4,189.8,63.2,184.9z"/>
		<path class="st0" d="M21.4,137.7c-0.1-1-0.7-15-3.5-17.6c-2.8-2.7-8.3-6.3-9.9-6c-1.6,0.3-6.9,9.2-4.4,15.4
			c2.5,6.1,11.3,13.9,11.3,13.9L21.4,137.7z"/>
		<g>
			<path class="st1" d="M27.1,139.4L12,140c-0.5,0-0.9-0.4-0.9-0.9l-1.2-28.9c0-0.5,0.4-0.9,0.9-0.9l15.1-0.6c0.5,0,0.9,0.4,0.9,0.9
				l1.2,28.9C28,138.9,27.6,139.3,27.1,139.4z"/>
			<path class="st2" d="M23.2,139.5l-13.7,0.6c-0.9,0-1.6-0.7-1.7-1.5l-1.1-27.5c0-0.9,0.7-1.6,1.5-1.7l13.7-0.6
				c0.9,0,1.6,0.7,1.7,1.5l1.1,27.5C24.8,138.7,24.1,139.5,23.2,139.5z"/>
		</g>
		<path class="st0" d="M6.9,115.2c0,0,4.1-4.6,8.3-1.1c4.1,3.5-0.3,11-3.9,13.1c-3.6,2.1-4.7,3.1-4.7,3.1L6.9,115.2z"/>
	</g>
	<path class="st3" d="M113.2,422c-1.4,5.6-2.9,10.9-4.5,15.8c-0.3,1.1-0.7,2.1-1,3.1c-0.2,0.5-0.3,1-0.5,1.5c-0.3,1-0.7,1.9-1,2.9
		c-0.4,1.2-0.8,2.4-1.3,3.6c-0.3,0.9-0.6,1.7-0.9,2.5c-4.7,12.5-8.6,20.4-8.6,20.4l-9.3-0.6c0,0,3.5-16.6,4.2-40.3
		c0-0.8,0-1.7,0.1-2.6c0-1.8,0.1-3.7,0.1-5.6c0-0.8,0-1.6,0-2.4c-0.2-20.5-2.7-44.6-10.8-67.7c-6.6-18.8-11.3-36.3-14.8-52.2
		c-11.1-51.2-8.5-84.9-8.5-84.9l52.2,6.1l2.4,0.3c0.2,24,0.8,56.6,1.4,82c0.1,4.4,0.2,8.6,0.3,12.5c0.4,16.4,0.6,27.5,0.6,27.5
		C123.4,365.5,119.7,396.1,113.2,422z"/>
	<path class="st4" d="M98.3,36c0,0,12.4,10.5,1,22.6c0,0,9.4,0.9,12.6-1.7c0,0-0.6,1.3-1.2,1.8c0,0,10.6,0.4,14.9-2.9
		c4.4-3.3,1.6-57.3-27.7-51.3c0,0-24.8-1.9-22.5,26.9c2.3,28.7-7.1,28.7-7.1,28.7s2.6,1.3,3.9,1.3c0,0,1.8-0.7,2.2-1.7
		c0,0-0.4,1.6-0.8,2.1c0,0,10.1,1,15.2-2.9C93.8,55.2,99.7,41.9,98.3,36z"/>
	<path class="st0" d="M138.2,209.5c-9.9-22.1-14.6-28.4-14.8-35.4c-0.1-5.5,2.6-11.5,7.9-26c1.2-3.4,2.1-7,2.6-10.5
		c4.2-28.1-12.1-58.5-22.2-60.6c-2.8-0.7-7.6-10.9-7.5-27.2l-1.3,0.2l-21.3,4.2c0,0,0.5,6.7,0.5,13c0,5.3-0.3,10.6-1.5,11.2
		c-1.5,0.1-2.9,0.4-2.9,0.4s-18,12.6-19.2,29.8c-1.6,22.9,14.6,50,0.3,95.8C44.3,251.2,143.6,221.8,138.2,209.5z"/>
	<path class="st3" d="M81.7,54.2c0,0,0.5,6.7,0.5,13C94.1,66.9,100.3,56,102.9,50L81.7,54.2z"/>
	<path class="st4" d="M105.1,47.7c0,0,6.2-9.9,7.7-18.3c1.1-6-2-28.3-24.4-25.1c0,0-6.5,0.6-12.6,4.8c-4.9,3.3-11.9,10.4-4,29.8
		l2,6.6L105.1,47.7z"/>
	<path class="st0" d="M77.7,60.2c0,0,28.2,0.5,28.2-17.1c0-17.5,3.7-29.3-14.3-30.3c-18-1-21.5,5.7-22.9,11.5
		C67.2,30.2,70.4,59.6,77.7,60.2z"/>
	<path class="st4" d="M78.7,12.4c0,0,7.7,20.6,19.5,23.6c11.8,3,17-0.1,17-0.1s-9.1-7.2-11-19.8C104.3,16.1,84.5,2.6,78.7,12.4z"/>
	<path class="st4" d="M80.6,14c0,0-5.8,4.6-7.2,9.1c-1.4,4.5-2,13.7-4.7,13.3c0,0-5.8-14,0.7-21.9C76.4,6.2,80.6,14,80.6,14z"/>
	<path class="st0" d="M174.8,233l-8.5,2.5c0,0-27.9-46.3-30.4-58.3c-0.8-3.9-2.9-11.8-5.2-20.5c-4.9-18.2-11.2-40.5-11.2-40.5
		l-2.1-9l-7.1-30.7c0,0,13.6,1.4,21.5,4.7c2.6,1.1,4.6,2.4,5.3,3.9c5.8,12.8,11.7,45.3,15.8,68.4c2.3,12.9,4,22.9,4.9,25
		C160.4,184.4,168.2,217,174.8,233z"/>
	<path class="st4" d="M79.6,14.7c0,0,5.5,21.5,20.4,28.5c0,0-14.9-13.2-16.2-27.5C82.5,1.5,79.6,14.7,79.6,14.7z"/>
	<path class="st0" d="M143.2,417.5c-3,32.1-16.2,52.8-16.2,52.8l-4.5,4.1c0,0-4.1-23.5-7.1-50.3c-2.8-25.5-6.7-52.6-11.1-60.8
		c-6.6-12.3-11.4-37.5-14.9-64.2C83.6,255,81.6,207,81.6,207l53-2.6c5.3,9,7.6,23.6,8.2,40.4c0.6,17.6-0.8,37.4-2.7,55
		c-2.7,24.8-6.4,45.4-7.3,50c0,0,0,0,0,0c-0.1,0.6,0.1,1.2,0.3,1.8C143.7,372.5,145.2,396.3,143.2,417.5z"/>
	<path class="st5" d="M81.4,135.9c-1.2,29.1-5.5,57.9-18.2,56.1c-15.5-2.3-19.6-16.8-20.4-27.5c-0.5-6.7,0.2-12,0.2-12
		s7.6,0,8.9-1.2c5.9-5.4,4.1-58.6,7-64.1c2.9-5.5,21.8-9.1,21.8-9.1S82.6,107.1,81.4,135.9z"/>
	<path class="st6" d="M81.4,135.9c-1.2,29.1-5.5,57.9-18.2,56.1c-15.5-2.3-19.6-16.8-20.4-27.5c3.8-0.2,10.5-1.1,13.2-5.2
		c3.8-5.8,15.7-43.3,15.7-43.3S76.4,124.3,81.4,135.9z"/>
	<path class="st4" d="M113.2,422c-1.4,5.6-2.9,10.9-4.5,15.8c-0.3,1.1-0.7,2.1-1,3.1c-0.2,0.5-0.3,1-0.5,1.5c-0.3,1-0.7,1.9-1,2.9
		c-0.4,1.2-0.8,2.4-1.3,3.6c-0.3,0.9-0.6,1.7-0.9,2.5c-4.7,12.5-8.6,20.4-8.6,20.4l-9.3-0.6c0,0,3.5-16.6,4.2-40.3
		c0-0.8,0-1.7,0.1-2.6c0-1.8,0.1-3.7,0.1-5.6c0-0.8,0-1.6,0-2.4c-0.2-20.5-2.7-44.6-10.8-67.7c-6.6-18.8-11.3-36.3-14.8-52.2
		c5.5,1.1,10.4,0,24.5-1.2c1.5-0.1,8.6,8.7,15.6,20.3c0.4,16.4,8.4,24.6,8.4,24.6C123.4,365.5,119.7,396.1,113.2,422z"/>
	<path class="st7" d="M143.2,417.5c-3,32.1-16.2,52.8-16.2,52.8l-4.5,4.1c0,0-4.1-23.5-7.1-50.3c-2.8-25.5-6.7-52.6-11.1-60.8
		c-6.6-12.3-11.4-37.5-14.9-64.2c4.9,2,21.5,7.3,50.7,0.7c-2.7,24.8-6.4,45.4-7.3,50c0,0,0,0,0,0c-0.1,0.6,0.1,1.2,0.3,1.8
		C143.7,372.5,145.2,396.3,143.2,417.5z"/>
	<path class="st7" d="M153.3,261.5c0,0-11.1,3.4-27.4,5.7c-20.2,2.8-48.5,3.8-73.7-5.7c0,0-2.1-37.6,3.9-57.1
		c6-19.6,8.8-28.9,8.8-28.9s24,6,48.3,1.3c3.4-0.7,6.8-1.5,10.2-2.6c0,0,15,31.9,19.1,45.5C146.7,233.3,153.3,261.5,153.3,261.5z"/>
	<path class="st4" d="M153.3,261.5c0,0-11.1,3.4-27.4,5.7c-29.9-17-15.3-88.4-15.3-88.4c0.9-0.7,1.8-1.4,2.6-2
		c3.4-0.7,6.8-1.5,10.2-2.6c0,0,15,31.9,19.1,45.5C146.7,233.3,153.3,261.5,153.3,261.5z"/>
	<path class="st5" d="M177.9,190c0,7.3-7.5,11.8-15.5,14c-7.7,2.1-15.9,2.1-18.5,0.4c-4.4-3-11.6-35.9-13.7-45.9
		c-0.4-1.8-0.6-2.9-0.6-2.9s-5.7,13.7-5.9,15c-0.1,0.6-0.2,1.4-0.2,2.1c-0.1,0.8-0.1,1.5-0.1,1.5s-31.2,15.7-58.5,1.3
		c0,0-11.1-64.2-6.3-75.2c2.4-5.5,14.9-16.8,19.9-21.7c1.1-1.1,1-3.3,0.6-5.3c-0.4-1.7,1.2-3.2,2.8-2.7c3.2,0.8,9,0.7,15.2-1.3
		c3.1-1,6.3-2.5,9.3-4.5c0.9-0.6,2.1,0,2.2,1c0.5,3.8,1.6,10.8,3.7,10.8c2.9,0,22.7,2.4,24.2,4.9c0.5,0.9,5.7,12.5,12.2,28
		c0,0,0,0,0,0C160.9,138.4,177.9,180.7,177.9,190z"/>
	<path class="st6" d="M129.6,155.5c0,0-5.7,13.7-5.9,15c-0.1,0.6-0.2,1.4-0.2,2.1c-2.8,2.3-6.1,4-9.6,5c-9.7,2.9-13.9-15.7-13.4-25
		c0.6-9.3,14.3-35.8,18.9-36.4C124,115.7,129.6,155.5,129.6,155.5z"/>
	<path class="st6" d="M130.2,158.4c-0.4-1.8-0.6-2.9-0.6-2.9C129.9,156.5,130.1,157.5,130.2,158.4z"/>
	<g>
		<path class="st8" d="M90.3,182.5c-17.7,0-25.1-6.1-25.6-6.5l-1.1-8.4c0.2,0.1,24,14.4,60.8,0.7l-0.8,6.3
			C109.5,179.9,99.6,182.5,90.3,182.5z"/>
	</g>
	<path class="st6" d="M177.9,190c0,7.3-7.5,11.8-15.5,14c11-13.1-13.1-92.6-13.7-94.6C160.9,138.4,177.9,180.7,177.9,190z"/>
	<path class="st6" d="M112.3,76.5c0,0-14.8,9.4-26.1,7.2c0,0-2.7-1.7,1-3.4c3.5-1.6,11.6-6.4,9.8-11c3.1-1,6.3-2.5,9.3-4.5
		c0.9-0.6,2.1,0,2.2,1C109,69.5,110.2,76.5,112.3,76.5z"/>
	<g>
		<path class="st4" d="M100.8,479.6h-5.9c-2-0.3-3.5-0.9-5.5-1.2c-3.1-0.4-4.5,0.9-4.8,1.2c0,0-0.1,0.1-0.1,0.1H59.4
			c-0.6-0.9,0-3,0.6-4.5c0.4-1,1.3-1.8,2.4-2.2c2.7-0.8,7.9-1.5,12.8-5.8c2.7-2.5,13.1-9,13.1-9l0.1,0c0.2,0,1.3,0.3,6,4.3
			c2.4,2.1,6.6-2.9,6.6-2.9s0.8,0.6,1.4,1.9c0.5,1,0.8,2.3,0.5,3.9c-0.4,2.3,0.8,6.5,1.8,9.3c0.6,1.7,1.1,3,1.1,3
			S105.9,478.9,100.8,479.6z"/>
		<path class="st9" d="M102.2,461.4c-1.4,1-4.4,3-6.4,3.2c-2.7,0.4-7.7-6.5-7.7-6.5l0.1,0c0.2,0,1.3,0.3,6,4.3
			c2.4,2.1,6.6-2.9,6.6-2.9S101.6,460.2,102.2,461.4z"/>
		<path class="st9" d="M100.8,479.6h-5.9c-2-0.3-3.5-0.9-5.5-1.2c-3.1-0.4-4.5,0.9-4.8,1.2c0,0-0.1,0.1-0.1,0.1H59.4
			c-0.6-0.9,0-3,0.6-4.5c0.8-0.7,1,3,1.4,3.5c0.4,0.6,20.5,0.2,21.7-0.6c1.2-0.8,4.6-2.3,9.5-1.2c4.2,1,10.5-1.6,12-2.3
			c0.6,1.7,1.1,3,1.1,3S105.9,478.9,100.8,479.6z"/>
	</g>
	<g>
		<path class="st4" d="M132.5,479.6h-5.9c-2-0.3-3.5-0.9-5.5-1.2c-3.1-0.4-4.5,0.9-4.8,1.2c0,0-0.1,0.1-0.1,0.1H91
			c-0.6-0.9,0-3,0.6-4.5c0.4-1,1.3-1.8,2.4-2.2c2.7-0.8,7.9-1.5,12.8-5.8c2.7-2.5,13.1-9,13.1-9l0.1,0c0.2,0,1.3,0.3,6,4.3
			c2.4,2.1,6.6-2.9,6.6-2.9s0.8,0.6,1.4,1.9c0.5,1,0.8,2.3,0.5,3.9c-0.4,2.3,0.8,6.5,1.8,9.3c0.6,1.7,1.1,3,1.1,3
			S137.6,478.9,132.5,479.6z"/>
		<path class="st9" d="M133.8,461.4c-1.4,1-4.4,3-6.4,3.2c-2.7,0.4-7.7-6.5-7.7-6.5l0.1,0c0.2,0,1.3,0.3,6,4.3
			c2.4,2.1,6.6-2.9,6.6-2.9S133.3,460.2,133.8,461.4z"/>
		<path class="st9" d="M132.5,479.6h-5.9c-2-0.3-3.5-0.9-5.5-1.2c-3.1-0.4-4.5,0.9-4.8,1.2c0,0-0.1,0.1-0.1,0.1H91
			c-0.6-0.9,0-3,0.6-4.5c0.8-0.7,1,3,1.4,3.5c0.4,0.6,20.5,0.2,21.7-0.6c1.2-0.8,4.6-2.3,9.5-1.2c4.2,1,10.5-1.6,12-2.3
			c0.6,1.7,1.1,3,1.1,3S137.6,478.9,132.5,479.6z"/>
	</g>
	<g>
		<path class="st10" d="M195.7,269.1c-0.6-2.9-2.7-5.3-5.5-6.4c-4.6-1.7-12-3.2-21.2-0.5c-15.5,4.6-17,14.1-16,20.9
			c1,6.9-2,17.8-1.6,25.6c0.4,7.8,2.7,27.3,14.2,26.3c11.5-1,48.5-11,48.5-11s6.4-12.2-6.7-29.8
			C199.6,283.7,196.7,274.2,195.7,269.1z"/>
		<g>
			<g>
				<path class="st10" d="M188.6,260.1l-3.1,0.3c0,0-0.4-2.1-1.8-3.5c-1.1-1-2.6-1.4-4.5-1.1c-1.8,0.3-3,1.1-3.7,2.4
					c-0.9,1.8-0.4,4.2-0.4,4.2l-3,0.7c0-0.2-0.9-4,0.7-7.2c1.1-2.2,3-3.5,5.7-4c2.8-0.4,5.1,0.2,6.9,2
					C188,256.3,188.6,259.9,188.6,260.1z"/>
			</g>
			<g>
				<path class="st1" d="M221.7,322.2c0,0-37,10-48.5,11c-11.5,1-13.7-18.5-14.1-26.3c-0.5-7.8,2.6-18.7,1.6-25.6
					c-0.2-1.3-0.3-2.7-0.2-4.2c0.3-6.1,3.7-13.1,16.2-16.7c9.2-2.7,16.7-1.2,21.2,0.5c2.8,1,4.9,3.4,5.5,6.4c0.1,0.6,0.3,1.3,0.4,2
					c1.3,5.5,4.4,13.9,11.2,23.1C228.1,310.1,221.7,322.2,221.7,322.2z"/>
				<path class="st11" d="M164.7,308.6l22.3-5c0,0,5.2,16-5.4,18.9C171.1,325.3,166.7,319.1,164.7,308.6z"/>
				<path class="st10" d="M164.7,308.6c0,0,5.1,5,12.1,3.2c7-1.7,10.2-8.3,10.2-8.3L164.7,308.6z"/>
				<path class="st11" d="M191.5,302.5l22.3-5c0,0,5.2,16-5.4,18.9C197.9,319.2,193.5,313.1,191.5,302.5z"/>
				<path class="st10" d="M191.5,302.5c0,0,5.1,5,12.1,3.2c7-1.7,10.2-8.3,10.2-8.3L191.5,302.5z"/>
				<path class="st11" d="M203.3,267.3c0.1,0.6,0.3,1.3,0.4,2c-2.9,6.1-8.5,13.9-18,15.7c-16.1,3.1-25.3-7.9-25.3-7.9
					c0.3-6.1,3.7-13.1,16.2-16.7c9.2-2.7,16.7-1.2,21.2,0.5C200.7,262,202.8,264.4,203.3,267.3z"/>
				<path class="st2" d="M186,288.4L186,288.4c-1,0.2-2-0.4-2.2-1.4l-0.4-1.7c-0.2-1,0.4-2,1.4-2.2l0,0c1-0.2,2,0.4,2.2,1.4l0.4,1.7
					C187.6,287.2,187,288.2,186,288.4z"/>
			</g>
		</g>
	</g>
	<path class="st0" d="M174.2,231.6c0,0,2.6,6.1,5.2,7.7c2.7,1.7,5.2,5.7,5.8,9c1,6-3.6,9.7-7,9.7c-3.4,0-6.6-4.6-8.6-15.6
		c-0.1-0.6-3.3-6.9-3.3-6.9L174.2,231.6z"/>
</g>
</svg>
