<?xml version="1.0" encoding="utf-8"?>
<!-- Generator: Adobe Illustrator 24.2.1, SVG Export Plug-In . SVG Version: 6.00 Build 0)  -->
<svg version="1.1" id="Слой_1" xmlns="http://www.w3.org/2000/svg" xmlns:xlink="http://www.w3.org/1999/xlink" x="0px" y="0px"
	 viewBox="0 0 2964.3 1625.6" style="enable-background:new 0 0 2964.3 1625.6;" xml:space="preserve">
<style type="text/css">
	.st0{fill:#EBF3FA;}
	.st1{fill:#DFEBFD;}
	.st2{fill:#BED7FB;}
	.st3{fill:#9EC3F6;}
	.st4{fill:#CDE0FB;}
	.st5{fill:#FFFFFF;}
	.st6{fill:#ADCBF9;}
	.st7{fill:#D86713;}
	.st8{fill:#F99746;}
	.st9{fill:#EE9849;}
	.st10{fill:#F1A34F;}
	.st11{opacity:0.4;fill:#D86713;}
	.st12{fill:#699DEE;}
	.st13{fill:#E9F3FE;}
	.st14{fill:#AFCDFB;}
	.st15{fill:#2B478B;}
	.st16{fill:#233862;}
	.st17{fill:#C65447;}
	.st18{fill:#FFB27D;}
	.st19{fill:#E2915A;}
	.st20{fill:#FCECDB;}
	.st21{fill:#548EE2;}
	.st22{fill:#F4D2B8;}
	.st23{fill:#568CDB;}
	.st24{fill:#B5453C;}
	.st25{fill:#ED7D2B;}
	.st26{fill:#ED975D;}
	.st27{fill:#EBF3FF;}
</style>
<g>
	<path class="st0" d="M230.4,1619.4c0,0-337.5-362.3-57.1-754.6c248.8-348.1,538.9-324.3,751.7-183c90.6,60.2,352,7.4,574.4-346.8
		c303.3-483,1354.8-190.1,1163,553c-92.8,359.6,282.3,372.7,91.2,732.1L230.4,1619.4z"/>
	<g>
		
			<rect x="331.3" y="1195.6" transform="matrix(0.7358 -0.6772 0.6772 0.7358 -789.1617 693.0281)" class="st1" width="324.6" height="324.6"/>
		
			<rect x="243.5" y="1229.9" transform="matrix(0.7358 -0.6772 0.6772 0.7358 -747.7699 608.3964)" class="st2" width="324.6" height="65.4"/>
	</g>
	<g>
		<polygon class="st3" points="1200.6,187.8 1364.4,211.1 1255.7,137 1250.2,160.8 1210.4,168 		"/>
		<polygon class="st4" points="1364.4,211.1 1228.1,140.9 1094.5,134.1 		"/>
		<polygon class="st4" points="1255.7,137 1364.4,211.1 1280.3,95.3 		"/>
	</g>
	<g>
		<path class="st5" d="M2116.4,510.8l-41.2,29.6l-41.4-29.2c9.2-12.9,24.3-21.5,41.4-21.5C2092.2,489.7,2107.2,498,2116.4,510.8z"/>
		<g>
			<path class="st5" d="M2075.2,417.7c-41.4,0-78,20.6-100.2,52.1l26.1,18.4c16.4-23.3,43.5-38.4,74.1-38.4
				c30.3,0,57.2,14.9,73.6,37.9l26-18.7C2152.6,437.8,2116.2,417.7,2075.2,417.7z"/>
		</g>
		<g>
			<path class="st5" d="M2075.2,280.8c-87.6,0-165.1,43.5-212,110.1l26.1,18.4c41.2-58.3,109.2-96.5,185.9-96.5
				c76.1,0,143.6,37.6,184.9,95.1l25.9-18.7C2239,323.5,2162.1,280.8,2075.2,280.8z"/>
		</g>
		<g>
			<path class="st5" d="M2075.2,355.7c-62.3,0-117.6,30.8-151.2,78.1l26.1,18.4c27.9-39,73.5-64.5,125.1-64.5
				c51.1,0,96.5,25.1,124.4,63.5l25.9-18.6C2191.8,386,2137,355.7,2075.2,355.7z"/>
		</g>
	</g>
	<path class="st6" d="M1220.8,690.2l-37.8-0.9c12.1,15.7,14.9,30.2,7.3,42.5c-7.6,12.5-25.6,22.8-52.6,30.6
		c20.4-54.4,30.7-111.7,30.7-170.5c0-127.2-49.5-251.7-142.9-344.8c-90.4-90.4-212.6-142.9-344.8-142.9c-74.2,0-146,16.5-211.2,47.9
		c0,0,0,0-0.1,0c-21-6.4-41.4-11.6-61.1-15.6c-99.5-20.2-170.1-6.2-198.8,39.3c-27.3,43.3-12.4,108.5,41.7,184.5c0,0,0,0,0,0
		c-12.1,22.4-23.8,48.9-32.3,74.3C117,440.7,62.5,458.6,42.7,491c-23,37.8,8.4,88.4,109.1,137.7c13.9,6.8,28.7,13.5,44.3,20.2
		c12.1,106,60.3,208.7,139.5,287.9c44.8,44.7,97,79.9,155,104.5c177.9,75,390,39.9,534.8-104.5c43.6-43.6,78.1-94.4,102.5-150.6
		c49.7-10.3,82.3-26.4,95.3-47.7C1232.4,723.9,1231.3,707.5,1220.8,690.2z M1104.2,770.1c-33.1,5.9-74.3,9.4-122.5,9.9
		c-74.7,0.9-160.6-5-251-16.9c7.6-16.6,15.1-33.6,22.4-51c28.1,9.4,55.3,16.8,81.3,22.1c29.8,6,56.9,9,81.2,9
		c56.8,0,97.5-16.4,117.7-48.3c3.3-5.3,6-10.8,8.1-16.7h-29c-0.5,0.9-1,1.8-1.5,2.6c-14.9,23.7-48.3,36-95.2,35.9
		c-22.4,0-47.9-2.8-76-8.5c-24.4-5-50.1-11.9-76.5-20.7c7-17.5,13.8-35.2,20.3-53.3c17.7-48.7,32.8-97,45-143.3
		c99.1,14.6,202.6,15,302.1,7.5c6.3,30.5,9.5,61.7,9.5,93.4C1140,653.7,1128,713.6,1104.2,770.1z M500.7,1011.9
		c-14.1-5.1-21.2-25.3-24.8-41.4c-5.6-25.4-6.6-61-2.9-103.1c1.9-21.3,4.8-43.9,8.8-67.6c57.7,15.4,114.9,35.2,170.6,59
		c-12.5,21.6-25.2,41.7-37.9,59.9c-24.2,34.6-47.8,61.4-68.3,77.3C533.2,1006,514.8,1017,500.7,1011.9z M665.2,836.2
		C607,811,547,790.3,486.5,774.3c2.1-11,4.5-22.2,7-33.5c16.8,3.8,33.9,7.5,51.2,11.1c50.6,10.3,101,19.1,150.4,26.2
		C685.3,798.3,675.4,817.7,665.2,836.2z M555.8,733.5c-19.5-4-38.8-8.2-57.7-12.6c8.9-37.1,19.9-75.7,32.6-115.1
		c66.4,40.8,134,74,197.9,97.6c-8,19.2-16.3,37.8-24.7,55.9C655.4,752.4,605.7,743.8,555.8,733.5z M393.6,233.1
		c36.9,75.6,108.1,138,184.6,179.3c-18.6,40.4-36.2,83.6-52.5,128.4c-3,8.4-6,16.7-8.9,25c-97-63.2-179.2-135.6-233.1-205.8
		c0,0,0,0,0,0C312.3,311.4,349.3,268.6,393.6,233.1z M808.5,163.1c14.1,5.1,21.2,25.3,24.8,41.4c5.6,25.4,6.6,61,2.9,103.1
		c-4,46.1-13.2,98.4-27,154.1c-67.5-11.6-134.9-30.8-197-60.9c26.5-55.2,54.4-104.4,82.4-144.5c24.2-34.6,47.8-61.4,68.3-77.3
		c10.7-8.3,25.1-17.2,37.8-17.2C803.5,161.8,806.1,162.2,808.5,163.1z M802.8,486.7c-11.9,44.8-26.6,91.5-43.7,138.6
		c-6.6,18.2-13.4,36.1-20.4,53.6c-64.2-23.6-132.4-57.3-199.4-98.9c3.5-10.1,7-20.3,10.7-30.5c15.9-43.8,33.1-85.9,51.2-125.4
		C664.5,454.8,733,474.6,802.8,486.7z M1005.4,267c59.6,59.6,99.1,131.1,119.1,206c-105.9,7.7-202.9,5.3-289.7-7.2
		c13.8-56.2,23-109.2,27.1-155.9c4.5-51.6,3.9-112.7-17-147.1C905.6,186,959.7,221.1,1005.4,267z M680.7,132.4
		c31.8,0,63.1,3.2,93.7,9.6c-36.1,15.7-72.9,59.4-100.9,99.5c-28.6,41-57.2,91.3-84.2,147.5c-72.9-39.6-141.7-100.3-174.6-171.8
		C491.5,162.5,583.9,132.4,680.7,132.4z M231.8,189.9c14.9-23.7,48.3-35.9,95.2-35.9c22.4,0,47.9,2.8,76,8.5
		c10.6,2.2,21.5,4.7,32.6,7.6c0,0,0,0,0,0c-66.9,38.7-125.8,94.7-169.7,164.9c0,0,0,0,0,0C224.4,273.5,212,221.4,231.8,189.9z
		 M270.1,385.3C270.1,385.3,270.1,385.3,270.1,385.3c56.8,70.9,140.4,143.4,238.1,206.3c-13.9,42.2-25.7,83.6-35.2,123.4
		c-81-19.6-175.2-47.3-249.6-78.8c-6.2-61.7,0.5-124.1,19.1-183C249.6,430.4,259.2,406.8,270.1,385.3z M174.4,614.2
		C86.6,571.3,46.5,530,64.4,500.6c14.5-23.8,67.2-39.9,148-45.8c-16.3,54.9-21.9,112-18.6,168.5
		C187.1,620.4,180.7,617.3,174.4,614.2z M468.4,734.9c-2.5,11.2-4.8,22.2-6.9,33c-5.6-1.4-11.3-2.7-16.9-4
		c-95.3-21.7-166.8-26.1-200-26.9c-8.2-24.7-14.2-50-18.1-75.9C291.4,686.2,364.5,710.1,468.4,734.9z M254.2,763.3
		c35.4,1.4,100.9,6.8,184.6,25.8c6,1.4,12,2.8,18,4.3c-4.3,25.1-7.5,49.2-9.5,71.7c-3.7,42.8-4,92.1,7.9,127.3
		c-36.3-20.4-69.6-45.7-99.5-75.6C311.2,872.2,276.9,820.1,254.2,763.3z M541.3,1029.9c34-17.8,68.1-58.7,94.4-96.4
		c13.6-19.4,27.1-41,40.5-64.2c77.2,34.9,151.3,77.9,221,127.9C782.4,1058.5,653.1,1065.5,541.3,1029.9z M1005.4,916.8
		c-25.4,25.5-53.4,47.6-83.6,66.2c-73.2-53.5-151.4-99.3-232.9-136.4c11.2-20.5,22.2-42.2,33-64.8c74.6,9.9,146.3,15.8,211.8,17.4
		c17.1,0.5,33.7,0.5,49.8,0.4c41.7-0.5,78.9-3,110.7-7.4C1071.9,838.3,1042.1,880.1,1005.4,916.8z"/>
	<g>
		<g>
			<path class="st7" d="M995,766.3l-67.4,802c0,0-7.1,48.6,29.1,48.7c59.5,0.1,295.9,0,295.9,0s-44.7-10.1-44.2-32.9
				c0.6-26.8,78.8-825.4,78.8-825.4L995,766.3z"/>
			<path class="st8" d="M1271.8,1602.4c-11.7,0-237.6,0.7-295.5,0c-25.2-0.3-29.7-22.4-29.9-36.8c-0.1-6.9,0.8-11.9,0.8-11.9
				l1.8-20.8l4.5-53.1l3.9-46.9l5.1-60.3l4.3-50.9l47.9-569.9l292.2-7.6c0,0-32.9,334.2-56.2,577.4c-2.6,27.1-5.1,53.1-7.4,77.4
				c-0.7,7.7-1.5,15.3-2.1,22.7c-2.2,23-4.1,44.2-5.9,62.8c-0.9,9.8-1.7,19-2.5,27.3c-3,32.8-4.7,53.8-4.7,57.7
				c0,2.3,0.2,4.5,0.6,6.5C1233.4,1601.6,1267.4,1602.4,1271.8,1602.4z"/>
			<polygon class="st8" points="285.4,329.9 449.7,989.8 472.2,1080.2 548.7,1387.6 1970.3,1387.6 1688.3,329.9 			"/>
			<polygon class="st9" points="285.4,329.9 262.6,337.5 518.4,1410.5 548.7,1387.6 			"/>
			<polygon class="st7" points="518.4,1410.5 1931.3,1410.5 1970.3,1387.6 548.7,1387.6 			"/>
			
				<rect x="1014.6" y="1602.8" transform="matrix(-1 -1.224647e-16 1.224647e-16 -1 2335.0505 3220.0547)" class="st10" width="305.9" height="14.5"/>
			<polygon class="st10" points="1901.4,1192.7 1670.8,343.9 283.1,343.9 283.1,329.9 1688.3,329.9 1918.2,1190.8 			"/>
			<polygon class="st7" points="1242.7,1410.5 1241.1,1421.7 953.4,1479.8 957.4,1432.8 959.3,1410.5 			"/>
			<path class="st11" d="M1271.8,1602.4c-11.7,0-237.6,0.7-295.5,0c-25.2-0.3-29.7-22.4-29.9-36.8l286.3-53.9
				c-3,32.8-4.7,53.8-4.7,57.7c0,2.3,0.2,4.5,0.6,6.5C1233.4,1601.6,1267.4,1602.4,1271.8,1602.4z"/>
			<polygon class="st11" points="1173.2,1173.5 548.7,1387.6 472.2,1080.2 			"/>
			<polygon class="st12" points="285.4,329.9 1688.3,329.9 1915.9,1179.9 489.8,1179.9 			"/>
		</g>
		<path class="st7" d="M1297.2,1287.4c-4.1-20.8-24.2-37.7-45.1-37.7c-20.8,0-34.5,16.9-30.4,37.7c4.1,20.8,24.2,37.7,45.1,37.7
			C1287.6,1325.2,1301.2,1308.3,1297.2,1287.4z"/>
		<polygon class="st13" points="1849.7,1143.1 536.2,1143.1 387.4,550.5 376,505.1 366.3,466.3 358.5,435.3 343.5,375.4 
			1638.1,375.4 1639,378.7 1654.6,435.3 1663.1,466.3 1673.8,505.1 1686.3,550.5 		"/>
		<polygon class="st13" points="1849.7,1145.1 536.2,1145.1 387.4,552.6 376,507.1 366.3,468.4 358.5,437.3 343.5,377.5 
			1638.1,377.5 1639,380.8 1654.6,437.3 1663.1,468.4 1673.8,507.1 1686.3,552.6 		"/>
		<polygon class="st14" points="1654.6,435.3 358.5,435.3 343.5,375.4 1637.6,375.4 1639,378.7 		"/>
		<g>
			<path class="st13" d="M379.5,405.4c-1.6-6.3,2.3-11.4,8.5-11.4s12.6,5.1,14.2,11.4c1.6,6.3-2.3,11.4-8.5,11.4
				S381.1,411.6,379.5,405.4z"/>
			
				<ellipse transform="matrix(0.662 -0.7495 0.7495 0.662 -158.9472 458.2977)" class="st13" cx="428.6" cy="405.4" rx="10" ry="12.9"/>
			<path class="st13" d="M457.9,405.4c-1.6-6.3,2.3-11.4,8.5-11.4s12.6,5.1,14.2,11.4c1.6,6.3-2.3,11.4-8.5,11.4
				S459.5,411.6,457.9,405.4z"/>
		</g>
		<g>
			<path class="st15" d="M945.4,1145.1H815.5c-1.2-10.2-2.3-20.9-3.3-32.1c-1.7-20.1-3.1-41.7-4.1-64.1c-0.2-5.2-0.4-10.4-0.6-15.7
				c-0.2-6.7-0.5-13.5-0.7-20.3c-0.3-11.6-0.6-23.3-0.7-35c0,0,0,0,0,0c-0.2-15-0.3-30.1-0.4-45.2c0,0,0,0,0,0c0-3.8,0-7.5,0-11.3v0
				c0-3.5,0-7,0-10.5c0.1-32.4,0.6-64.2,1.3-93.7c1.5-65.4,3.9-119.9,5.2-146.1v0c0.5-10.8,0.9-16.7,0.9-16.7c0,0,0,0,0,0
				c0.3,0,2.3,0.4,5.4,1.2c2.3,0.6,5.2,1.3,8.4,2.3h0c3,0.9,6.2,2,9.7,3.3c0,0,0,0,0,0c5.9,2.3,12.2,5.1,18.1,8.7
				c0.1,0,0.2,0.1,0.3,0.1c9.7,6,18.5,14,22.5,24.5c3.4,9,11.5,57.1,21.2,121c0.3,1.8,0.5,3.7,0.8,5.5c5.1,33.9,10.7,72,16.2,110.9
				c5.9,41.2,11.8,83.3,17.2,122.3C937.5,1087.6,941.8,1118.8,945.4,1145.1z"/>
			<path class="st16" d="M909,1145.1H757.8c-2.9-12.5-5.6-24.5-8-35.8c-6.6-31.1-11-56.6-10.8-70.3c0.1-6.4,2.5-11.4,6.7-15.3
				c2.9-2.6,6.5-4.8,10.8-6.4c12.8-4.8,31.1-5.6,50.3-4.4c6.5,0.4,13.1,1,19.6,1.8c35.9,4.4,69.3,13.3,69.3,13.3s2.2,9,4.9,24.8
				c2,11.8,4.2,27.5,5.8,45.9c1,10.7,1.7,22.4,2.2,34.9C908.7,1137.4,908.8,1141.2,909,1145.1z"/>
			<path class="st17" d="M839.2,1039.3l-1.5,10.9l-7.3,53l-1.2,9.1l-4.5,32.9H667c-1.2-21.7-2.4-42.9-2.6-61.4c0-2,0-4.1,0-6
				c0-27.8,2.4-48.4,10.4-53.6c9-5.9,39-4.3,70.9-0.4c3.2,0.4,6.4,0.8,9.6,1.2c18.6,2.5,37.2,5.6,52.2,8.3
				c7.8,1.4,14.5,2.6,19.8,3.7C834.7,1038.3,839.2,1039.3,839.2,1039.3z"/>
			<path class="st5" d="M664.4,681.7c0,0,86.6-56,148.6-27.3c9.9,4.6,21.2,17.3,29.3,26.2c22.4,24.7,66.3,417.5,66.3,417.5
				s-124.5,42.2-244.2-14.3V681.7z"/>
			<path class="st15" d="M818,652.9c0,0,87.6,35.9,99.5,63.5c11.9,27.6,50.4,197,50.4,216.9c0,19.9-67.2,4.4-78-27.6
				c-9-26.6-39.3-108.4-55.2-160.1L818,652.9z"/>
			<g>
				<path class="st18" d="M799.8,680.3c-19.1,3.8-47.2-0.2-67.8-13.8c9.3-22.2,13.1-39.7,14.5-51c0.1-0.6,0.1-1.2,0.2-1.8
					c0.6-5.9,0.5-9.9,0.2-11.7h49.5c0,0,13.5,6.2,13.5,10.5c0,2.3,0,4.5,0.1,6.6c0.1,5.7,0.3,10.7,0.6,14.9
					c0.9,13.9,2.5,20.4,2.5,20.4S819.1,676.5,799.8,680.3z"/>
				<path class="st19" d="M810.5,633.9c-37.5,7.2-59.2-13.2-64.1-18.5c-0.7-0.8-1-1.2-1-1.2c0.4-0.2,0.8-0.4,1.2-0.6
					c13.9-5.6,45.6-1.2,63.3,5.3C810,624.7,810.2,629.7,810.5,633.9z"/>
				<path class="st18" d="M734.2,593.9c6.7,36,53.2,34.8,73.3,32.6c5.7-0.6,9.2-1.4,9.2-1.4c6.4-1.7,9.9-11.7,11.6-24.9
					c3.3-26-0.9-64.2-5.3-74c-6.6-14.7-19.1-30.6-65.9-19.1C710.3,518.6,725.6,547.7,734.2,593.9z"/>
				<path class="st16" d="M824.8,506.1c-6.4-8.9-20-19.7-32.3-26.4c-26.5-14.3-60.4,0.5-60.5,0.5c-38.2,16.8-48.2,46.1-28,91.7
					c21.4,48.2,41.9,42.8,41.9,42.8s-4.3-2.7-3.9-17.7c0-0.9,0.1-1.6,0.1-2.2c0.2-3.1-0.9-6.2-3.2-8.2c-4.8-4.2-7.1-17.1-3.1-20.6
					c4.8-4.3,11.5,0.9,13.7,4.9c1.9,2.8,5.3,3.8,8.4,1.9c11.9-7.5,4.2-22.6,15.5-31.8c11.4-9.2,34.5-1.5,51.5-8.8
					C847.2,523.8,829.6,512.8,824.8,506.1z"/>
			</g>
			<path class="st15" d="M830.9,1145.1H642.4c1.3-39.1,3.1-85.7,4.9-133c0.5-12.2,1-24.5,1.4-36.7c0.2-5.2,0.4-10.3,0.6-15.4
				c4.2-104.9,8.3-199.7,9.2-204.8c2-11.5,3.8-21.4,5.9-29.9c5.9-24.9,13.3-38.5,29.3-50.2c1.6-1.2,14.4-7.7,25.7-13.3
				c9.2-4.6,17.5-8.6,17.7-8.7v0h0c1.9,0.9,3.9,3.5,6.1,7.4c2.2,3.9,4.5,9,6.8,15c8.6,22.1,17.9,56,24.4,81.3c0,0,0,0.1,0,0.1
				c0,0,0,0,0,0c0,0,0,0,0,0c4.2,16.3,7.2,29,8,32.7c1.4,6.2,3.3,18.1,5.6,34.2v0c3,22,6.7,51.9,10.5,85.8v0c0.4,3.5,0.8,7,1.2,10.6
				c0.5,4.1,0.9,8.2,1.4,12.3v0c0.1,1.3,0.3,2.7,0.4,4v0c1.5,13.4,3,27.3,4.5,41.4c0,0,0,0,0,0c1.3,11.6,18.9,20,20.1,31.8
				c0.1,0.9,0.2,2.6,0.3,5c0.2,5,0.5,12.9,0.8,22.1c0.1,4.1,0.3,8.4,0.4,12.8c0.7,19.7,1.5,41.2,2.5,51.6c0,0.5,0.1,1.1,0.1,1.9
				c0.1,2.1,0.2,5.1,0.3,8.9C830.8,1120.3,830.9,1131.9,830.9,1145.1z"/>
			<path class="st16" d="M702.3,797.5c-0.1,0.2-3,106.1,76.6,118.9c79.6,12.9,26.7,16.3,26.7,16.3s-149.8-6.4-152.3-10.3
				C650.9,918.4,702.3,797.5,702.3,797.5z"/>
			<path class="st16" d="M769.6,961.9c0,0-1.5,1.1-4.4,2.9c0,0-0.1,0.1-0.1,0.1c-12.1,7.8-48.2,28.9-100.7,43.1
				c-5.5,1.5-11.2,2.9-17.1,4.2c0.5-12.2,0.9-24.5,1.4-36.7c-6.9-0.5-13.6-1.4-19.7-2.7c0.2-1.6,0.4-3.2,0.6-4.8
				c6.7-2.7,13.3-5.4,19.7-7.9c5.2-2,10.3-4,15-5.8C686,946,702,940.4,702,940.4l63.8,20.2L769.6,961.9z"/>
			<path class="st15" d="M786.5,960.1c0,0-8.2,2-21.3,4.7c0,0-0.1,0-0.1,0c-24.1,4.8-64.5,11.6-100.7,11.3
				c-5.3-0.1-10.6-0.3-15.6-0.7c-6.9-0.5-13.6-1.4-19.7-2.7c-13.2-2.8-24.3-7.5-31.5-14.9c-53.8-54.8,29.3-251.4,46.8-270.5
				c20.4-22.3,57.6-30.2,78.2-32.9c0.9-0.1,1.7-0.2,2.5-0.3c7.2-0.9,11.9-1,12.1-1c0,0,0,0,0,0s-1.6,5.2-4.3,14
				c-1,3.4-2.3,7.3-3.6,11.8c-12.6,41.4-37,122.7-47.7,168.5c-3.9,16.8-6,28.8-5.1,32.4c4.2,15.7,47.6,23.7,75.2,27.3
				c11.5,1.5,20.2,2.2,22.1,2.3c0.1,0,0.3,0,0.4,0l1.6,6.5l3.8,15.7l3.7,15.4L786.5,960.1z"/>
			<polygon class="st8" points="936.5,1054.3 751.8,1046.6 789.3,816.4 974,824.2 			"/>
			<path class="st18" d="M774.1,909.3c0,0,36-2.5,37.8,5.9c4.2,19.5-30.9,35.6-42.3,34.5C758.2,948.6,765.9,908,774.1,909.3z"/>
			<path class="st18" d="M963.9,870.9c0,0-34.4-10.8-38.1-3c-8.6,18,21.8,41.8,33.2,43.3C970.2,912.8,972.2,871.6,963.9,870.9z"/>
			<path class="st16" d="M740.9,641.5c0,0-15.1,7.2-22.7,18.1c0,0,56.5,98.2,56.3,97.2C774.2,755.9,755.4,654.1,740.9,641.5z"/>
			<path class="st16" d="M811.3,642.9c5,1.9,14.5,11.7,16.7,17.1l6.7,85.7c0,0-14.4-62.9-21.7-91.3
				C811.2,647.1,811.5,644.9,811.3,642.9z"/>
			<path class="st17" d="M850.5,819c0,0,1.5-6.4,9.9-5.6c8.4,0.7,55.6,3.1,55.6,3.1s9.1-0.1,8.3,5.7L850.5,819z"/>
			<path class="st5" d="M796.3,602c0,0,6.1,5.6,16,3.9c5.9-1,9.1-8.7,9.1-8.7S810.2,595.2,796.3,602z"/>
		</g>
		<g>
			<g>
				<polygon class="st5" points="1671.5,673.6 1535,674.1 1490.8,504.8 1627.2,504.3 				"/>
				<g>
					<polygon class="st6" points="1593.4,526.5 1536.2,526.7 1535.5,524.2 1592.7,524 					"/>
					<polygon class="st6" points="1602.5,533.5 1530.7,533.8 1530,531.3 1601.9,531 					"/>
					<g>
						<polygon class="st6" points="1622.3,568 1529,568.3 1528.3,565.8 1621.6,565.5 						"/>
						<polygon class="st6" points="1624.4,576.2 1531.1,576.6 1530.5,574.1 1623.8,573.7 						"/>
						<polygon class="st6" points="1626.6,584.5 1533.3,584.8 1532.6,582.3 1625.9,582 						"/>
						<polygon class="st6" points="1628.7,592.7 1535.4,593.1 1534.8,590.6 1628.1,590.2 						"/>
						<polygon class="st6" points="1630.9,601 1537.6,601.3 1536.9,598.8 1630.2,598.5 						"/>
					</g>
					<g>
						<polygon class="st6" points="1636.1,621.1 1542.8,621.4 1542.2,618.9 1635.5,618.6 						"/>
						<polygon class="st6" points="1638.3,629.3 1545,629.7 1544.4,627.2 1637.6,626.8 						"/>
						<polygon class="st6" points="1640.4,637.6 1547.2,638 1546.5,635.4 1639.8,635.1 						"/>
						<polygon class="st6" points="1642.6,645.9 1549.3,646.2 1548.7,643.7 1641.9,643.4 						"/>
						<polygon class="st6" points="1644.8,654.1 1551.5,654.5 1550.8,652 1644.1,651.6 						"/>
					</g>
				</g>
			</g>
			<g>
				<polygon class="st5" points="1726.4,884.1 1590,884.6 1545.8,715.2 1682.2,714.7 				"/>
				<g>
					<polygon class="st6" points="1648.3,737 1591.1,737.2 1590.5,734.7 1647.7,734.5 					"/>
					<polygon class="st6" points="1657.5,744 1585.7,744.2 1585,741.7 1656.8,741.4 					"/>
					<g>
						<polygon class="st6" points="1677.2,778.4 1583.9,778.8 1583.3,776.3 1676.6,775.9 						"/>
						<polygon class="st6" points="1679.4,786.7 1586.1,787 1585.4,784.5 1678.7,784.2 						"/>
						<polygon class="st6" points="1681.5,794.9 1588.3,795.3 1587.6,792.8 1680.9,792.4 						"/>
						<polygon class="st6" points="1683.7,803.2 1590.4,803.5 1589.8,801 1683,800.7 						"/>
						<polygon class="st6" points="1685.9,811.5 1592.6,811.8 1591.9,809.3 1685.2,808.9 						"/>
					</g>
					<g>
						<polygon class="st6" points="1691.1,831.5 1597.8,831.9 1597.2,829.4 1690.5,829 						"/>
						<polygon class="st6" points="1693.3,839.8 1600,840.1 1599.3,837.6 1692.6,837.3 						"/>
						<polygon class="st6" points="1695.4,848.1 1602.1,848.4 1601.5,845.9 1694.8,845.6 						"/>
						<polygon class="st6" points="1697.6,856.3 1604.3,856.7 1603.6,854.2 1696.9,853.8 						"/>
						<polygon class="st6" points="1699.7,864.6 1606.4,864.9 1605.8,862.4 1699.1,862.1 						"/>
					</g>
				</g>
			</g>
			<g>
				<polygon class="st5" points="1781.8,1096 1645.3,1096.5 1601.1,927.1 1737.5,926.6 				"/>
				<g>
					<polygon class="st6" points="1703.7,948.9 1646.5,949.1 1645.8,946.6 1703,946.4 					"/>
					<polygon class="st6" points="1712.8,955.8 1641,956.1 1640.4,953.6 1712.2,953.3 					"/>
					<g>
						<polygon class="st6" points="1732.6,990.3 1639.3,990.6 1638.6,988.1 1731.9,987.8 						"/>
						<polygon class="st6" points="1734.7,998.5 1641.4,998.9 1640.8,996.4 1734.1,996 						"/>
						<polygon class="st6" points="1736.9,1006.8 1643.6,1007.2 1642.9,1004.6 1736.2,1004.3 						"/>
						<polygon class="st6" points="1739,1015.1 1645.8,1015.4 1645.1,1012.9 1738.4,1012.6 						"/>
						<polygon class="st6" points="1741.2,1023.3 1647.9,1023.7 1647.3,1021.2 1740.5,1020.8 						"/>
					</g>
					<g>
						<polygon class="st6" points="1746.4,1043.4 1653.2,1043.8 1652.5,1041.3 1745.8,1040.9 						"/>
						<polygon class="st6" points="1748.6,1051.7 1655.3,1052 1654.7,1049.5 1747.9,1049.2 						"/>
						<polygon class="st6" points="1750.8,1059.9 1657.5,1060.3 1656.8,1057.8 1750.1,1057.4 						"/>
						<polygon class="st6" points="1752.9,1068.2 1659.6,1068.5 1659,1066 1752.3,1065.7 						"/>
						<polygon class="st6" points="1755.1,1076.4 1661.8,1076.8 1661.1,1074.3 1754.4,1073.9 						"/>
					</g>
				</g>
			</g>
			<g>
				<g>
					<polygon class="st5" points="1602.4,1097.4 1125.2,1099.2 987.9,573.4 1050.1,506.5 1447.7,505 					"/>
					<polygon class="st6" points="1316.2,593.9 1148.1,594.5 1146.1,587.1 1314.3,586.5 					"/>
					<polygon class="st6" points="1343.1,614.3 1132,615.1 1130,607.8 1341.1,607 					"/>
					<g>
						<polygon class="st6" points="1401.1,715.7 1126.9,716.7 1125,709.3 1399.2,708.3 						"/>
						<polygon class="st6" points="1407.5,739.9 1133.2,741 1131.3,733.6 1405.5,732.6 						"/>
						<polygon class="st6" points="1413.8,764.2 1139.6,765.2 1137.7,757.9 1411.9,756.9 						"/>
						<polygon class="st6" points="1420.1,788.5 1145.9,789.5 1144,782.1 1418.2,781.1 						"/>
						<polygon class="st6" points="1426.5,812.8 1152.3,813.8 1150.3,806.4 1424.6,805.4 						"/>
					</g>
					<g>
						<polygon class="st6" points="1441.9,871.9 1167.7,872.9 1165.8,865.5 1440,864.5 						"/>
						<polygon class="st6" points="1448.3,896.1 1174,897.1 1172.1,889.8 1446.3,888.8 						"/>
						<polygon class="st6" points="1454.6,920.4 1180.4,921.4 1178.4,914 1452.7,913 						"/>
						<polygon class="st6" points="1460.9,944.7 1186.7,945.7 1184.8,938.3 1459,937.3 						"/>
						<polygon class="st6" points="1467.3,969 1193.1,970 1191.1,962.6 1465.4,961.6 						"/>
					</g>
				</g>
				<polygon class="st6" points="987.9,573.4 1067.5,573.1 1050.1,506.5 				"/>
			</g>
		</g>
	</g>
	<g>
		<g>
			<g>
				<path class="st20" d="M2137.2,1509.7h-388.4v-137.2h389.7c30.3,0,54.9,24.6,54.9,54.9v26.2
					C2193.3,1484.6,2168.1,1509.7,2137.2,1509.7z"/>
				<path class="st12" d="M2524.8,1429v20.6c0,11-3,21.4-8.2,30.2c-10.4,17.9-29.8,29.9-52,29.9h-727.9c-4.8,0-8.7-3.9-8.7-8.7v-3.1
					c0-4.8,3.9-8.7,8.7-8.7h443.7c2.4-2.9,4.5-6,6.2-9.4c4.2-7.8,6.5-16.8,6.5-26.2v-26.2c0-4.8-0.6-9.5-1.8-14
					c-2-7.6-5.5-14.5-10.3-20.4h-444.4c-4.8,0-8.7-3.9-8.7-8.7v-3.1c0-4.8,3.9-8.7,8.7-8.7h731.5c25.8,0,47.5,17.3,54.3,40.9
					C2524,1418.4,2524.8,1423.6,2524.8,1429z"/>
				<path class="st21" d="M2522.6,1413.4h-331.2c-2-7.6-5.5-14.5-10.3-20.4h-444.4c-4.8,0-8.7-3.9-8.7-8.7v-3.1
					c0-4.8,3.9-8.7,8.7-8.7h731.5C2494.1,1372.5,2515.9,1389.8,2522.6,1413.4z"/>
			</g>
			<polygon class="st22" points="1748.7,1441.1 1802.6,1443.4 1748.7,1444.8 			"/>
			<polygon class="st22" points="1748.7,1462.6 1876.9,1464.9 1748.7,1466.3 			"/>
		</g>
		<g>
			<g>
				<g>
					<path class="st15" d="M1841.4,1616.1h413.5v-106.7H1838c-28.5,0-51.7,23.1-51.7,51.7v0
						C1786.3,1591.5,1811,1616.1,1841.4,1616.1z"/>
					<path class="st20" d="M2231.1,1616.1h470.6v-106.7h-471.8c-29,0-52.5,23.5-52.5,52.5v0.4
						C2177.4,1592.1,2201.4,1616.1,2231.1,1616.1z"/>
					<path class="st15" d="M2146,1616.1h572.1c4.4,0,8-3.6,8-8l0,0c0-4.4-3.6-8-8-8H2146c-4.4,0-8,3.6-8,8l0,0
						C2138,1612.6,2141.6,1616.1,2146,1616.1z"/>
					<path class="st15" d="M2146,1525.4h572.1c4.4,0,8-3.6,8-8l0,0c0-4.4-3.6-8-8-8H2146c-4.4,0-8,3.6-8,8l0,0
						C2138,1521.8,2141.6,1525.4,2146,1525.4z"/>
				</g>
				<polygon class="st22" points="2701.7,1562.8 2638.2,1564.6 2701.7,1565.7 				"/>
				<polygon class="st22" points="2701.7,1538.2 2550.5,1540 2701.7,1541.1 				"/>
			</g>
			<g>
				<path class="st12" d="M2552,1539.7c0,0,6.5,4.6,8.6,12.1c0.4,1.3,0.6,2.7,0.7,4.2c0.4,10,0,32.7,0,32.7l19.1-11.3l19.1,11.3
					V1558c0-5.8-1.6-11.5-4.7-15.2c-1.5-1.8-3.3-3.1-5.3-3.1H2552z"/>
				<path class="st23" d="M2552,1539.7c0,0,6.5,4.6,8.6,12.1l38.3,0.4c0,0-1.5-10.8-9.4-12.6H2552z"/>
			</g>
		</g>
		<g>
			<g>
				<g>
					<path class="st20" d="M2183,1372.8h422.5V1216h-423.9c-33.8,0-61.3,27.4-61.3,61.3v32.9
						C2120.3,1344.8,2148.4,1372.8,2183,1372.8z"/>
					<path class="st24" d="M2130.3,1276.9v33.7c0.1,14.4,8.1,26.9,19.8,33.6c5.8,3.3,12.4,5.2,19.5,5.2h458.8c5.4,0,9.7,4.4,9.7,9.7
						v4c0,5.4-4.4,9.7-9.7,9.7h-792.6c-22.7,0-42.8-11.3-55-28.6c-7.7-10.9-12.1-24.2-12.1-38.5v-26.6c0-9.8,2.2-19.1,6.3-27.4
						c10.2-21.1,31.8-35.6,56.8-35.6h796.7c5.4,0,9.7,4.4,9.7,9.7v4c0,5.4-4.4,9.7-9.7,9.7h-460.2c-11,0-21,4.7-27.9,12.2
						C2134.1,1258.3,2130.3,1267.1,2130.3,1276.9z"/>
				</g>
				<polygon class="st22" points="2605.5,1294.4 2546.7,1297.1 2605.5,1298.6 				"/>
				<polygon class="st22" points="2605.5,1258.3 2465.5,1261 2605.5,1262.6 				"/>
			</g>
			<g>
				<path class="st8" d="M2467,1260.5c0,0,9.2,5,12.3,13.1c0.5,1.4,0.9,3,1,4.6c0.5,10.9,0,35.4,0,35.4l27.3-12.3l27.2,12.3v-33.3
					c0-6.3-2.3-12.4-6.7-16.4c-2.1-1.9-4.6-3.4-7.5-3.4H2467z"/>
				<path class="st25" d="M2467,1260.5c0,0,9.2,5,12.3,13.1l54.6,0.5c0,0-2.1-11.7-13.4-13.6H2467z"/>
			</g>
		</g>
	</g>
	<g>
		<g>
			<path class="st16" d="M2190.3,1157.9c24.2,42.1,54.6,58.3,54.6,58.3h126.5C2371.5,1216.2,2171.9,1125.8,2190.3,1157.9z"/>
			<g>
				<path class="st18" d="M2287.5,1483.5c3.3,3.8,3.7,8,2.1,12.5c0,0,0,0,0,0.1c-3,8.3-13,17.7-24.6,27c-1.5,1.2-2.8,2.3-3.9,3.3
					c-0.3,0.3-0.6,0.5-0.9,0.8c-0.2,0.2-0.5,0.4-0.7,0.6c-10.8,10-6.7,12.2-26.1,32.4c-22.1,23-37.4,23.4-41.7,21.3
					c-3.7-1.8,3.8-14,12-27.7c0.4-0.7,0.8-1.3,1.2-2c1.1-1.8,2.2-3.7,3.3-5.5c9.7-16.5,7.2-24.3,4.9-48.8
					c-1.9-20-31.1-111.6-31.1-111.6l42.4-7.3c0,0,12.8,72.9,26.8,84.2c7.5,6,15.9,6.1,23.2,10.5c0.5,0.3,1,0.6,1.5,1
					C2280,1476.9,2284.2,1479.8,2287.5,1483.5z"/>
				<path class="st16" d="M2287.5,1483.5c3.3,3.8,3.7,8,2.1,12.5c0,0,0,0,0,0.1c-3.7,8.3-13.4,17.6-24.6,26.9
					c-1.5,1.2-2.8,2.3-3.9,3.4c-0.3,0.3-0.6,0.5-0.9,0.8c-0.2,0.2-0.5,0.4-0.7,0.6c-10.8,10-6.7,12.2-26.1,32.4
					c-22.1,23-37.4,23.4-41.7,21.3c-3.7-1.8,3.8-14,12-27.7c4.3-1.6,24.3-9.7,39.4-29.1c13.3-17,22.2-38.8,31.3-51.5
					c0.5,0.3,1,0.6,1.5,1C2280,1476.9,2284.2,1479.8,2287.5,1483.5z"/>
				<path class="st18" d="M1945.7,1457.1c-2.6,13.1-21.3,10.9-42.1,5.8c-20.8-5.1-15.9,1-45.6-2.3c-29.7-3.3-38.6-14.3-39.6-18.8
					c-0.8-3.9,13.8-5.3,29.6-7.1c2-0.2,4-0.5,5.9-0.7c17.7-2.2,30.7-13.7,46.9-23.1c15.3-8.9,38.1-45.2,38.1-45.2l40.7,3.2
					c0,0-21.3,32.4-29.6,46.5c-4.9,8.3-4.6,19.3-4,27.7C1946.3,1447.7,1946.6,1452.5,1945.7,1457.1z"/>
				<path class="st16" d="M1903.5,1462.9c-20.8-5.1-15.9,1-45.6-2.3c-29.7-3.3-38.6-14.3-39.6-18.8c-0.8-3.9,13.8-5.3,29.6-7.1
					l0.1,0.3c0,0,17.8,12.6,42.5,13.2c20.1,0.5,41.4-5.3,55.3-5.1c0.3,4.6,0.6,9.3-0.3,13.9C1943,1470.1,1924.4,1468,1903.5,1462.9z
					"/>
				<path class="st16" d="M2101.6,1196.9l38,102.3l49.6,133.6c0,0,13.5,1.3,26.4-2.4c11.9-3.4,25.5-12.4,25.5-12.4
					s-13.8-143.5-39.5-225.8c-6.6-21.1-14-38.2-22.1-47.9C2139.6,1097.3,2101.6,1196.9,2101.6,1196.9z"/>
				<path class="st15" d="M2140.2,1034.4c24.9-8,96,2.3,167.3,16.3l14.9-24.6l154.2-12c0,0,50.9,112.8,23,184.7
					c-4.1,10.6-12.2,17.3-26.1,17.6c0,0-2.2,0-2.3,0c0,0-91.8-0.1-121.6-0.1c-76.7,0-162.3-52.7-173.3-54.9
					c-18.1-3.6-25.4,32.6-43.5,70.7c-18.1,38.1-170.4,168.5-170.4,168.5s-23.4,0.2-33.1-3.4c-10.4-3.9-14.2-9-14.2-9
					S2084,1052.6,2140.2,1034.4z"/>
				<path class="st16" d="M2323.4,813.7c54.9,30.2,166.3,92.9,166.9,92.5c0,0,40.9,15.4,64.2,0c38.7-25.7,59.5-94.9-11.3-154.4
					c-35.3-29.7-60.4-36.9-64.2-84.3c-2.1-25.7-37.2-110.6-95.7-102.8c-4.9,0.7-34.9,2.1-54.7,12.4
					C2278.2,603.5,2241.1,802,2323.4,813.7z"/>
				<path class="st18" d="M2369.4,788c-0.2,0.2,27,9.5,45.2,1.4c17.1-7.6,30.1-35.8,29.9-35.8c-7.8-0.4-16.4-7.2-23-51.9l-3.3,1.2
					l-55.8,20.1c0,0,4,17.9,6.7,35C2371.3,772.2,2372.5,786,2369.4,788z"/>
				<path class="st26" d="M2362.4,722.9c0,0,4,17.9,6.7,35c32.1-5.8,44.7-37.7,49.2-55.1L2362.4,722.9z"/>
				<path class="st18" d="M2354.1,740.7c0,0,76.4-10.3,69.3-57.7c-7.1-47.5-2.1-80.8-51.1-76.2c-49.1,4.5-55.8,24.1-57.3,40.5
					C2313.5,663.7,2334.1,742.2,2354.1,740.7z"/>
				<path class="st16" d="M2317.8,621.2c0,0,48.9,42.1,82.2,45.5c33.3,3.4,45.9-7.3,45.9-7.3s-19.6-16.3-31.4-42.6
					c-3.5-7.7-10.8-13.1-19.3-13.8C2371.3,601.1,2326.3,600.2,2317.8,621.2z"/>
				<path class="st16" d="M2348.3,617.5c0,0-16.4,15.8-21.5,27.6c-5,11.3-6.5,38.4-2.5,49.2c0,0-25.5-49.6-11.1-73.6
					C2328.5,595,2348.3,617.5,2348.3,617.5z"/>
				<path class="st5" d="M2305.1,900.5c2.3,154.6,0.6,122.3,17.5,137c4.1,3.5,15.5,5.6,30.6,6.6c47.4,3.1,130.8-4.7,133.9-13.4
					c10.9-30.3,3.2-39.7,12.3-86.2c1-4.9,2.1-10.3,3.5-16.1c7.6-31.9,15-42.7-12-94c-24.5-46.4-49.9-84.1-52.2-82.7
					c-64.6,38.3-69.8,6.1-69.8,6.1S2304,825.1,2305.1,900.5z"/>
				<path class="st15" d="M2139.6,1299.3l49.6,133.6c0,0,13.5,1.3,26.4-2.4c11.9-3.4,25.5-12.4,25.5-12.4s-13.8-143.5-39.5-225.8
					L2139.6,1299.3z"/>
				<path class="st5" d="M2369.1,757.9c0,0-66.5,11.3-74.3,39.9s-53.7,196.8-53.7,196.8s33.8,6.1,49.4-9.5
					c15.6-15.6,54.3-144.8,54.3-144.8L2369.1,757.9z"/>
				<path class="st27" d="M2353.3,1044.2c47.4,3.1,130.8-4.7,133.9-13.4c10.9-30.3,3.2-39.7,12.3-86.2l-22.9-64.4
					c0,0,3.8,71.7-17.4,90.6c-21.1,18.9-86.6,36.4-96.9,52.2C2357.5,1030.5,2354.2,1038.1,2353.3,1044.2z"/>
				<path class="st18" d="M2407.6,1014c0,0-46.8-10.4-54.3-6.3c-7.5,4.2-26,19.3-28.3,24.5c-2.3,5.3,16.8-4,23-5.7
					c4-1.1,14.6,2.6,19.9,4.4c22.1,7.4,35.6,3.6,35.6,3.6L2407.6,1014z"/>
				<path class="st5" d="M2438.9,751.8c0,0,62.8,3.9,84.6,34.2c30.6,42.7,91.3,224.6,56.5,248.9c-39.2,27.3-178.4,7.1-178.4,7.1
					s-4.6-21.6,1.8-32.1c6.4-10.5,111.2-27.4,116-32.2c4.8-4.8-60.4-94.2-60.4-108.7C2459,854.5,2438.9,751.8,2438.9,751.8z"/>
				<path class="st18" d="M2351,1020.8c0,0-9.8,12.6-13,14.2c-3.2,1.5-5.3,1.1-5.3,1.1l6.6-11.9L2351,1020.8z"/>
				<path class="st18" d="M2353.3,1007.7l-28.5,13.8c0,0,1.2,2,4.7,1.8c3.5-0.2,12.4-3.4,12.4-3.4L2353.3,1007.7z"/>
			</g>
			<g>
				<g>
					<polygon class="st8" points="2338,1054.3 2112.6,1054.3 2044.7,885.6 2269.8,885.6 					"/>
					<polygon class="st25" points="2109.9,1047.7 2407.6,1047.7 2407.6,1054.3 2112.6,1054.3 					"/>
				</g>
				<path class="st5" d="M2169.5,970c-1.7-5.9,1.7-10.7,7.7-10.7c5.9,0,12.1,4.8,13.8,10.7c1.7,5.9-1.7,10.7-7.7,10.7
					C2177.3,980.7,2171.2,975.9,2169.5,970z"/>
			</g>
		</g>
	</g>
	<g>
		<g>
			<path class="st14" d="M289.4,1120.5l-4.8,3.3c-5.1,3.6-12.2,2.3-15.7-2.9l-27.9-40.3c-3.6-5.1-2.3-12.2,2.9-15.7l6.9-4.8
				c1-0.7,2.4-0.4,3.1,0.6c0.7,1,0.4,2.4-0.6,3.1l-6.9,4.8c-3.1,2.2-3.9,6.5-1.7,9.6l27.9,40.3c2.2,3.1,6.5,3.9,9.6,1.7l4.8-3.3
				c3.1-2.2,3.9-6.5,1.7-9.6l-18.5-26.7c-0.7-1-0.4-2.4,0.6-3.1c1-0.7,2.4-0.4,3.1,0.6l18.5,26.7
				C295.8,1109.9,294.5,1117,289.4,1120.5z"/>
		</g>
		<g>
			<path class="st14" d="M320,1160.2l-8.6,6c-8,5.5-19.3,3.1-25.3-5.5l-42-60.6c-0.7-1-0.4-2.4,0.6-3.1c1-0.7,2.4-0.4,3.1,0.6
				l42,60.6c4.5,6.6,13.1,8.5,19.1,4.4l8.6-6c6-4.1,7.2-12.9,2.6-19.4l-47.8-69c-4.5-6.6-13.1-8.5-19.1-4.4c-1,0.7-2.4,0.4-3.1-0.6
				c-0.7-1-0.4-2.4,0.6-3.1c8-5.5,19.3-3.1,25.3,5.5l47.8,69C329.7,1143.2,328,1154.7,320,1160.2z"/>
		</g>
	</g>
	<g>
		<g>
			<path class="st14" d="M377.8,1476.6l1,8.5c1.1,9.1-5.4,17.4-14.5,18.5l-71.6,8.7c-9.1,1.1-17.4-5.4-18.5-14.5l-1.5-12.2
				c-0.2-1.8,1.1-3.4,2.8-3.6c1.8-0.2,3.4,1.1,3.6,2.8l1.5,12.2c0.7,5.5,5.7,9.5,11.3,8.8l71.6-8.7c5.5-0.7,9.5-5.7,8.8-11.3l-1-8.5
				c-0.7-5.5-5.7-9.5-11.3-8.8l-47.5,5.8c-1.8,0.2-3.4-1.1-3.6-2.8c-0.2-1.8,1.1-3.4,2.8-3.6l47.5-5.8
				C368.3,1460.9,376.6,1467.5,377.8,1476.6z"/>
		</g>
		<g>
			<path class="st14" d="M450.5,1464l1.9,15.3c1.7,14.2-9.3,27.3-24.5,29.1l-107.6,13.1c-1.8,0.2-3.4-1.1-3.6-2.8
				c-0.2-1.8,1.1-3.4,2.8-3.6l107.6-13.1c11.6-1.4,20.1-11.2,18.8-21.9l-1.9-15.3c-1.3-10.6-11.8-18.1-23.5-16.7l-122.6,14.9
				c-11.6,1.4-20.1,11.2-18.8,21.9c0.2,1.8-1.1,3.4-2.8,3.6c-1.8,0.2-3.4-1.1-3.6-2.8c-1.7-14.2,9.3-27.3,24.5-29.1l122.6-14.9
				C435,1439.7,448.7,1449.8,450.5,1464z"/>
		</g>
	</g>
	
		<ellipse transform="matrix(0.2298 -0.9732 0.9732 0.2298 786.9744 1921.5479)" class="st8" cx="1607.5" cy="463.6" rx="9.9" ry="9.9"/>
</g>
</svg>
