<?xml version="1.0" encoding="utf-8"?>
<!-- Generator: Adobe Illustrator 25.4.1, SVG Export Plug-In . SVG Version: 6.00 Build 0)  -->
<svg version="1.1" id="Layer_1" xmlns="http://www.w3.org/2000/svg" xmlns:xlink="http://www.w3.org/1999/xlink" x="0px" y="0px"
	 viewBox="0 0 623.7 450.7" style="enable-background:new 0 0 623.7 450.7;" xml:space="preserve">
<style type="text/css">
	.st0{opacity:0.5;}
	.st1{fill:#CCCCCC;}
	.st2{fill:#252B33;}
	.st3{fill:#717E87;}
	.st4{fill:#F87F44;}
	.st5{fill:#B85524;}
	.st6{fill:#7F5319;}
	.st7{fill:#A47324;}
	.st8{fill:#F0F0F0;}
	.st9{fill:#414B54;}
	.st10{fill:#C0933E;}
	.st11{fill:#D7BC6C;}
	.st12{fill:#B25431;}
	.st13{fill:#693116;}
	.st14{fill:#FFFFFF;}
</style>
<g>
	<g>
		<g class="st0">
			<path class="st1" d="M373,87.6c-38.4-13.1-80.4-10.8-117.4,6c-39.4,17.8-97.5,51.2-108.6,96.2c-17.2,69.4,51.8,107,93.5,87
				c41.7-20,48.6-61.2,88.7-42.4c40.1,18.8,82,54.3,120.9,21.8C496.7,217.5,482.1,124.8,373,87.6z"/>
		</g>
		<g>
			<path class="st1" d="M212.8,102.5c-1.9-0.9-3-2.4-3.4-4.4c-0.6-3.4,1-6.3,2.4-8.1c4.1-5.3,11.8-6.4,17.2-2.5l0,0
				c2.6,1.9,3.6,4.3,2.9,7.1c-1.2,5.3-9,9-15.2,8.8C215.2,103.3,213.9,103,212.8,102.5z M226.6,87.2c-4.8-2.2-10.6-0.9-13.9,3.4
				c-1.3,1.7-2.7,4.3-2.2,7.3c0.6,3.6,4.2,4.3,6.3,4.4c5.6,0.2,13-3.3,14.1-8c0.6-2.4-0.3-4.4-2.5-6l0,0
				C227.8,87.8,227.2,87.5,226.6,87.2z"/>
		</g>
		<g class="st0">
			<path class="st1" d="M180.3,93.3c-5.6-1.4-10,2.8-10,2.8s-2.7-7.7-7.8-7.9c-6.9-0.2-9.5,6.2-9.5,6.2s-1.9-10.9-11.2-9
				c-6.8,1.4-10.5,10.7-10.5,10.7s-7.9-4.7-13.2,0c-5.3,4.7-6.9,9.2-6.9,9.2h79.7C190.8,105.2,189.9,95.7,180.3,93.3z"/>
		</g>
		<g class="st0">
			<path class="st1" d="M587.9,141.5c-5-1.3-9.1,2.5-9.1,2.5s-2.4-7-7.1-7.1c-6.2-0.2-8.6,5.6-8.6,5.6s-1.7-9.8-10.1-8.1
				c-6.1,1.3-9.5,9.7-9.5,9.7s-7.1-4.2-11.9,0c-4.8,4.2-6.2,8.3-6.2,8.3h71.9C597.4,152.3,596.5,143.8,587.9,141.5z"/>
		</g>
		<g>
			<path class="st1" d="M394.4,271c1.4,0.3,2.8,0.7,4,1.2c3.8,1.7,5.5,4.5,4.8,7.6c-0.8,3.4-3.3,5.5-5.3,6.6
				c-5.8,3.4-13.3,1.5-16.8-4.2l0,0c-1.7-2.7-1.7-5.3,0-7.7C383.5,271.1,389.3,270.1,394.4,271z M389.6,286.9
				c2.6,0.5,5.3,0.1,7.7-1.3c1.8-1.1,4.1-2.9,4.8-5.9c0.8-3.6-2.2-5.6-4.2-6.5c-5.1-2.3-13.3-1.9-16.1,2c-1.4,2-1.4,4.2,0,6.5l0,0
				C383.7,284.5,386.5,286.3,389.6,286.9z"/>
		</g>
		<g>
			<path class="st1" d="M439.5,108.3c-3.7,1.8-8.4,1.3-12.3-1.2c-3.7-2.5-5.6-6.3-5.2-10.3c0.6-5.8,6.6-6.6,7.8-6.7
				c6.7-0.5,12.7,4.4,13.4,11.1l-0.5,0.1l0.5-0.1c0.3,3.1-0.8,5.5-3.3,6.9C439.8,108.1,439.7,108.2,439.5,108.3z M426.6,92
				c-1.6,0.8-3.2,2.2-3.5,4.8c-0.4,3.6,1.4,7.1,4.7,9.4c3.7,2.5,8.2,2.8,11.6,1c2.1-1.2,3.1-3.2,2.8-5.9l0,0
				c-0.7-6.1-6.2-10.6-12.3-10.1C429.5,91.1,428,91.3,426.6,92z"/>
		</g>
	</g>
	<g>
		<ellipse class="st1" cx="314.9" cy="444.9" rx="285.7" ry="8.9"/>
		<path class="st1" d="M186.1,440.5c0,0-17.7-12.5-11-19.1c5.9-5.8,14.7,15.6,14.7,15.6s-0.3-16.1,9.1-15.1
			c9.4,0.9-4.1,18.6-4.1,18.6H186.1z"/>
		<path class="st1" d="M385.5,440.5c0,0-17.7-12.5-11-19.1c5.9-5.8,14.7,15.6,14.7,15.6s-0.3-16.1,9.1-15.1
			c9.4,0.9-4.1,18.6-4.1,18.6H385.5z"/>
		<path class="st1" d="M65.1,441.2c0,0-8-11.5,0-15.2c8-3.7,22.6,13.9,22.6,13.9s-0.5-11.8,7.6-8.7c8.1,3,10.3,10,10.3,10H65.1z"/>
		<path class="st1" d="M291.8,438.4c0,0,8-11.5,0-15.2c-8-3.7-22.6,13.9-22.6,13.9s0.5-11.8-7.6-8.7c-8.1,3-10.3,10-10.3,10H291.8z"
			/>
		<path class="st1" d="M525.8,440.1c0,0,8-11.5,0-15.2c-8-3.7-22.6,13.9-22.6,13.9s0.5-11.8-7.6-8.7c-8.1,3-10.3,10-10.3,10H525.8z"
			/>
	</g>
	<g>
		<g>
			<path class="st2" d="M152.4,110.9c0,0,6.9,3.2,11.1,13.2c4.2,10,15.4,34.5,21.5,34.1c6-0.4,19.8-7.9,19.8-7.9
				c7-0.9,12.9,45.4,5.9,46.3c0,0-3.7,4.5-22.5-2.7c-18.7-7.2-25.4-9.9-29.6-31.5C154.5,140.9,152.4,110.9,152.4,110.9z"/>
		</g>
		<g>
			<g>
				<path class="st3" d="M183.4,158.2c-3,2.8-4.8,6.7-4.9,10.9c0,0.4,0.6,0.4,0.6,0c0.1-4,1.8-7.7,4.7-10.5
					C184,158.4,183.6,158,183.4,158.2L183.4,158.2z"/>
			</g>
		</g>
		<g>
			<g>
				<polygon class="st4" points="128.5,416.8 122.6,432.8 113,432.7 113,415.1 				"/>
			</g>
			<g>
				<g>
					<g>
						<path class="st2" d="M131,446.3h-22c0,0-0.5-0.9,0.1-3.4c0.1-0.4,0.2-0.8,0.3-1.3c0,0,0,0,0-0.1c0.2-0.7,0.4-1.5,0.7-2.4
							c1-3.7,2.2-8.5,2.2-8.5s3.7-7.8,7.9-5.9c3.8,1.7,2.9,6.6,2.9,6.6s0.4,2.9,3.2,5.4c1.8,1.6,3.5,2.8,4.4,4.7
							c0.2,0.4,0.3,0.8,0.4,1.2c0,0.1,0,0.1,0,0.2C131.2,443.9,131.2,445,131,446.3z"/>
					</g>
				</g>
			</g>
			<g>
				<g>
					<path class="st3" d="M131,446.3h-22c0,0-0.5-0.9,0.1-3.4h22C131.2,443.9,131.2,445,131,446.3z"/>
				</g>
			</g>
		</g>
		<g>
			<g>
				<path class="st4" d="M230,137.7c0,0-18.6,10.3-29.2,17.1c-5.3,3.3-5.2,22,0.1,22c16.8-9.4,33.4-32.7,33.4-32.7
					C235.8,142.7,231.5,136.3,230,137.7z"/>
			</g>
		</g>
		<g>
			<g>
				<g>
					<g>
						<path class="st4" d="M228,139.7c0,0-0.1-4.1,2.2-6.8c2.3-2.7,3.4-5.5,5.2-7.4c1.8-1.9,1.3,1.5,0.8,3.3c-0.6,1.8-1.2,3.9,0.1,4
							c1.3,0.1,12-5.6,13.8-5.3c1.8,0.3,0.2,1.8,0.2,1.8s2.4-1.3,3.3-0.4c0.8,0.9-0.5,2.1-0.5,2.1s1.6-0.8,1.9,0.5
							c0.2,1.2-8.5,7.3-8.1,7.9c0.4,0.6,4.2-4.2,5.4-3.4c1.2,0.8-1.8,3.1-4,5.2c-2.2,2.1-5.1,3.6-7.9,3.9c-2.8,0.2-7.7,2.2-9.5-0.4
							C228.9,142,228,139.7,228,139.7z"/>
					</g>
				</g>
			</g>
			<g>
				<g>
					<g>
						<g>
							<g>
								<g>
									<path class="st5" d="M253,130.6c-2.9,1.5-5.7,3.1-8.4,4.8c-0.3,0.2,0,0.7,0.4,0.5c2.7-1.7,5.5-3.2,8.3-4.7
										C253.6,131,253.4,130.4,253,130.6L253,130.6z"/>
								</g>
							</g>
						</g>
					</g>
				</g>
			</g>
			<g>
				<g>
					<g>
						<g>
							<g>
								<g>
									<path class="st5" d="M250.1,129.2c-2.3,0.9-4.4,2.1-6.4,3.6c-0.3,0.2,0.1,0.7,0.4,0.5c2-1.4,4.1-2.6,6.3-3.5
										C250.7,129.6,250.5,129,250.1,129.2L250.1,129.2z"/>
								</g>
							</g>
						</g>
					</g>
				</g>
			</g>
			<g>
				<g>
					<g>
						<g>
							<g>
								<g>
									<path class="st5" d="M245.8,138c-0.6-2.4-1.6-4.6-3.2-6.5c-0.2-0.3-0.7,0.1-0.5,0.4c1.5,1.8,2.6,3.9,3.1,6.2
										C245.3,138.4,245.9,138.4,245.8,138L245.8,138z"/>
								</g>
							</g>
						</g>
					</g>
				</g>
			</g>
			<g>
				<g>
					<g>
						<g>
							<g>
								<g>
									<path class="st5" d="M241.2,135.3c-3.7-0.1-6.9,1.9-8.3,5.3c-0.1,0.4,0.4,0.6,0.5,0.2c1.3-3.1,4.3-5.1,7.7-5
										C241.6,135.9,241.6,135.3,241.2,135.3L241.2,135.3z"/>
								</g>
							</g>
						</g>
					</g>
				</g>
			</g>
		</g>
		<g>
			<path class="st2" d="M167.5,185c0,0,16.1,13.2,42.4,18c26.4,4.8,13.5,26.6,26.7,64c5.5,15.6,24.3,36,24.3,36s-21.1,19.5-53,12.5
				c-31.9-7.1-31.4-12.7-51.9-13.1c-20.5-0.4-28.3-66.9-28.3-66.9L167.5,185z"/>
		</g>
		<g>
			<path class="st6" d="M261,303c0,0-12.9,0.9-35.6-24c-23.6-25.9-10.8-56.7-42.4-52.2c-22.1,3.2-30.1,45.9-44.1,50.3
				c-13.9,4.4,11.7,27.7,34,36.3C221.6,332.4,261.1,304.7,261,303L261,303z"/>
		</g>
		<g>
			<path class="st6" d="M88.4,322.7c0,0,1.2,10.3,18.3,2.4c17.1-7.9,20.7-25.3,49.2-23.5c0,0,2.2-29.1-20.9-27
				C111.9,276.7,92,309.5,88.4,322.7z"/>
		</g>
		<g>
			<path class="st7" d="M134.4,208c0,0,26.9,108.3,25.9,123.3c-1,15-29.8,88-29.8,88l-22.3-2.8c3.5-49.8,9.3-85.1,12-92.1
				c0,0-30.7-85.1-29.6-103.1C91.7,203.3,134.4,208,134.4,208z"/>
		</g>
		<g>
			<g>
				<path class="st6" d="M157.3,331.9c-3.5,1.5-7.4,1.6-11,0.4c-0.5-0.2-0.7,0.6-0.2,0.7c3.8,1.3,7.9,1.1,11.6-0.4
					C158.1,332.3,157.7,331.7,157.3,331.9L157.3,331.9z"/>
			</g>
		</g>
		<g>
			<path class="st6" d="M113.5,413.8c-0.2,0-0.4-0.1-0.5-0.4c-0.6-1.6,1.5-24.2,3.9-43.5c1.8-15.2,5.3-40.8,8.1-44.5l-13.7-41.7
				c-0.1-0.3,0.1-0.5,0.3-0.6c0.3-0.1,0.5,0.1,0.6,0.3l13.7,42c0.1,0.2,0,0.4-0.1,0.5c-1.9,1.7-4.8,18.1-8,43.9
				c-2.6,21.3-4.3,41.3-4,43.1c0.1,0.1,0.1,0.2,0.1,0.3C114,413.6,113.8,413.8,113.5,413.8C113.5,413.8,113.5,413.8,113.5,413.8z"/>
		</g>
		<g>
			<polygon class="st6" points="133.5,414.2 131.6,420.4 106.7,417.1 108.3,409.9 			"/>
		</g>
		<g>
			<g>
				<g>
					<polygon class="st4" points="198.6,331.5 192.6,345 180.8,342.5 183.1,328.3 					"/>
				</g>
				<g>
					<g>
						<g>
							<g>
								<g>
									<g>
										<path class="st2" d="M174.6,357.4l7.9,2.9c0,0,1.9-0.3,2.8,0.2c0.9,0.5,3.9,2.3,3.9,2.3l21,7.7c0.2-0.9,0.2-1.8,0.2-2.6
											c0-1-0.1-1.8-0.2-2.5c-0.5-2.6-2-4-3.9-4.8c-2.9-1.3-9.9-10.8-9.9-10.8s-2.9-2.4-1.8-6.1c0.4-1.4-1-3.7-1.9-4.2
											c-1.8-1-3.3-0.2-4.3,1.7l-1.1,2.1l-4.2-2.3c0,0-3.7-3.9-4.3-1.6c-0.3,1.3-1.6,7.2-2.8,11.8c-0.3,1.1-0.5,2.1-0.7,3l0,0
											C175,356,174.6,357.4,174.6,357.4z"/>
									</g>
								</g>
							</g>
						</g>
					</g>
				</g>
				<g>
					<g>
						<path class="st3" d="M174.6,357.4l7.9,2.9c0,0,1.9-0.3,2.8,0.2c0.9,0.5,3.9,2.3,3.9,2.3l21,7.7c0.2-0.9,0.2-1.8,0.2-2.6
							L175.5,354C175,356,174.6,357.4,174.6,357.4z"/>
					</g>
				</g>
			</g>
			<g>
				<path class="st7" d="M161.6,204.3c0,0,60.6-6,67.9,7.8c9.4,18-27.7,121.6-27.7,121.6l-24.3-7.8c0,0,11.8-73.8,12.6-83.4
					c0,0-44.6,10.8-60.7,6.3c-16-4.5-6-33.9-6-33.9L161.6,204.3z"/>
			</g>
			<g>
				<g>
					<path class="st6" d="M227.7,211.1c-1.8,2.3-4.1,4-6.8,4.9c-0.5,0.2-0.3,0.9,0.2,0.7c2.9-1,5.3-2.7,7.2-5.1
						C228.6,211.2,228,210.7,227.7,211.1L227.7,211.1z"/>
				</g>
			</g>
			<g>
				<polygon class="st6" points="205,329.4 202.1,336.3 175.4,328.7 176.7,320.4 				"/>
			</g>
			<g>
				<g>
					<path class="st6" d="M183.4,321.3c3.6-22,7.4-44,10.4-66.1c0.9-6.5,1.7-13,2.4-19.5c0-0.2-0.3-0.4-0.5-0.4
						c-12.9,5.1-26.8,7.2-40.6,6.1c-0.5,0-0.5,0.7,0,0.7c13.9,1,27.9-1.1,40.8-6.2c-0.2-0.1-0.3-0.2-0.5-0.4
						c-2.5,23.4-6.4,46.5-10.2,69.7c-0.9,5.2-1.7,10.5-2.6,15.7C182.6,321.5,183.3,321.7,183.4,321.3L183.4,321.3z"/>
				</g>
			</g>
		</g>
		<g>
			<path class="st2" d="M186.6,203c0,0-23.1,5.4-21.1,28.6c3.3,38.2-25.8,47.5-25.8,47.5l-9.2-22.2l5.8-46.6
				C136.4,210.2,171.1,193.3,186.6,203z"/>
		</g>
		<g>
			<path class="st2" d="M92.4,191.8l-1.8,29.4c1.1,10.8,67.1-9.1,94.3-18.8c-11.7-7.8-18.1-14.6-20.2-26.7
				c-4.3-26.9-6.6-62.6-12.4-64.8c-6.2-2.3-10.2-3.3-13.4-4c-4-0.9-6.8-1.4-11.2-3.4c-0.7-0.3-1.4-0.7-2.1-1.1
				c-1.8-1-15.1,0.8-15.1,0.8s-0.6,0.5-1.7,1.3c-2.1,1.6-5.9,4.6-10.2,7.8c-6.2,4.7-13.4,10.2-17.9,13.6
				C74.8,130.2,86,165.5,92.4,191.8z"/>
		</g>
		<g>
			<g>
				<path class="st3" d="M125.2,131.1c1.7,10.7,3.5,21.4,5.5,32.1c2,10.4,4.2,20.8,7.3,31c1.3,4.4,3,8.7,5.6,12.5
					c1.2,1.7,2.5,3.7,4.6,4.3c1.6,0.4,3.3,0.1,4.8-0.3c2.4-0.6,4.7-1.4,7-2.2c8.6-2.8,17.3-4.8,26.4-5.3c0.4,0,0.4-0.6,0-0.6
					c-7.9,0.4-15.7,1.9-23.3,4.3c-2.6,0.8-5.2,1.7-7.9,2.5c-1.8,0.6-3.7,1.1-5.6,1.1c-1.8,0-3.1-0.9-4.2-2.2
					c-3-3.7-4.9-8.1-6.4-12.5c-3.2-9.6-5.3-19.7-7.3-29.7c-2.3-11.7-4.2-23.4-6.1-35.2C125.7,130.6,125.2,130.8,125.2,131.1
					L125.2,131.1z"/>
			</g>
		</g>
		<g>
			<g>
				<path class="st3" d="M158,129.8c2.1,13.8,4.1,27.6,6.2,41.3c0.5,3.5,1,7,1.6,10.5c0.1,0.4,0.6,0.2,0.5-0.1
					c-2.1-13.8-4.1-27.6-6.2-41.3c-0.5-3.5-1-7-1.6-10.5C158.5,129.3,158,129.4,158,129.8L158,129.8z"/>
			</g>
		</g>
		<g>
			<path class="st8" d="M98.6,112.3c8.3,9.6,26.9,18.2,26.9,18.2c3.4-4.1,11.3-18.3,13.5-23.7c-1.2-0.3-2.3-0.5-3.3-0.8
				c-2.5-0.6-4.8-1.2-7.8-2.7c-0.7-0.3-1.4-0.7-2.1-1.1c-1.8-1-15.1,0.8-15.1,0.8s-0.6,0.5-1.7,1.3c-1.7,1.3-4.5,3.5-7.8,6
				C100.2,111.1,99.4,111.7,98.6,112.3z"/>
		</g>
		<g>
			<g>
				<path class="st1" d="M132.9,105.5c-1.2,2.9-2.7,5.8-4.4,8.4c-0.1,0.2-0.3,0.2-0.4,0.1c-1.2-0.5-2.3-1.1-3.5-1.6
					c-0.4-0.2,0-0.7,0.3-0.6c1.2,0.5,2.3,1.1,3.5,1.6c-0.1,0-0.3,0.1-0.4,0.1c1.7-2.6,3.2-5.4,4.4-8.3
					C132.4,105,133,105.2,132.9,105.5L132.9,105.5z"/>
			</g>
		</g>
		<g>
			<g>
				<path class="st1" d="M104.1,108.2c4,2.8,8,5.8,12.2,8.2c-0.1,0-0.3,0.1-0.4,0.1c0.8-1.1,1.7-2.1,2.4-3.2c0.2-0.3,0.8,0,0.6,0.3
					c-0.8,1.1-1.6,2.1-2.4,3.2c-0.1,0.1-0.3,0.2-0.4,0.1c-4.3-2.4-8.2-5.4-12.2-8.2C103.4,108.5,103.7,107.9,104.1,108.2
					L104.1,108.2z"/>
			</g>
		</g>
		<g>
			<g>
				<polygon class="st2" points="125.6,112.3 121.3,108.6 117.7,114.1 123.3,118.5 				"/>
			</g>
			<g>
				<polygon class="st2" points="124.1,114.3 127.1,120.8 124.5,125.3 119.5,122.8 121,115.1 				"/>
			</g>
		</g>
		<g>
			<path class="st7" d="M98.6,112.3c8.3,9.6,26.9,18.2,26.9,18.2c3.4-4.1,11.3-18.3,13.5-23.7c-1.2-0.3-2.3-0.5-3.3-0.8l-11.1,19.2
				c0,0-17.5-8.4-23.5-14.8C100.2,111.1,99.4,111.7,98.6,112.3z"/>
		</g>
		<g>
			<g>
				<g>
					<g>
						<path class="st7" d="M93.4,72.1c0,5.3,2.6,10.1,3.3,15.4c0.5,4-0.1,8.3-3.3,11.1c-0.4,0.3-0.9-0.2-0.5-0.5
							c3.6-3.2,3.7-8.3,2.7-12.6c-1-4.4-2.9-8.7-2.9-13.3C92.7,71.6,93.4,71.6,93.4,72.1L93.4,72.1z"/>
					</g>
				</g>
				<g>
					<path class="st7" d="M91.8,98c0,0.8,0.7,1.5,1.5,1.5s1.5-0.7,1.5-1.5c0-0.8-0.7-1.5-1.5-1.5S91.8,97.2,91.8,98z"/>
				</g>
				<g>
					<path class="st7" d="M93.5,97.8c0,0,0.8,4.6-0.6,6.7l-4.9-2.7C87.9,101.8,89,99.4,93.5,97.8z"/>
				</g>
			</g>
			<g>
				<g>
					<g>
						<path class="st5" d="M125,81.3c0-0.2,2.8-4.6,5.5-2.2c2.7,2.4,1,8.4-4.9,7.3L125,81.3z"/>
					</g>
				</g>
				<g>
					<path class="st4" d="M111,106.1c0,0,4.4,3.8,9.9,3s6.7-3.5,6.7-3.5c-1.3-2.6-1.3-2.9-2-5.5c-0.7-2.6-1.1-4.5-1.1-4.5L113.8,93
						l-2.7-0.7C112.2,98.6,112.3,101.1,111,106.1z"/>
				</g>
				<g>
					<path class="st2" d="M111.7,92.9c0,0,3,6.6,12.7,7.2c0.4,0,0.8,0,1.1,0c-0.7-2.6-1.1-4.5-1.1-4.5L113.8,93L111.7,92.9z"/>
				</g>
				<g>
					<path class="st4" d="M104.5,76.8l0.2,1.6c0,0,1.4,7.6,4.2,12.2c3.1,5.1,12.7,9.7,17.8,4.3c3.8-4.1,3.1-19.3,3.1-19.3l-0.3-2.3
						c-0.8-5.6-6.2-8.6-11.9-9.4c-0.1,0,0.1,0,0,0C109.4,63.1,103.4,68.7,104.5,76.8z"/>
				</g>
				<g>
					<g>
						<path class="st2" d="M127.3,79.8c-0.7-1-1.8-1.4-3-1.1c-0.9,0.2-1.3-1.2-0.4-1.4c1.9-0.4,3.6,0.2,4.7,1.8
							C129.2,79.8,127.9,80.6,127.3,79.8L127.3,79.8z"/>
					</g>
				</g>
				<g>
					<g>
						<path class="st2" d="M116.9,81c0.5-1.1,1.5-1.7,2.7-1.7c1,0,1.1-1.5,0.1-1.5c-1.9-0.1-3.5,1-4.3,2.7
							C115.1,81.4,116.6,81.9,116.9,81L116.9,81z"/>
					</g>
				</g>
				<g>
					<g>
						<path class="st2" d="M120.2,83.4c-0.4-0.9-1.3-1.2-2.3-0.9c-0.3,0.1-0.5-0.4-0.1-0.5c1.2-0.4,2.4,0.1,2.9,1.2
							C120.8,83.4,120.4,83.7,120.2,83.4L120.2,83.4z"/>
					</g>
				</g>
				<g>
					<g>
						<path class="st2" d="M127.1,81.6c-0.8-0.1-1.5,0.4-1.6,1.3c0,0.4-0.6,0.4-0.6,0c0.1-1.2,1.1-2,2.3-1.8
							C127.6,81.2,127.5,81.7,127.1,81.6L127.1,81.6z"/>
					</g>
				</g>
				<g>
					<g>
						<path class="st2" d="M121.8,79.6c-0.2,2.1,0.9,3.9,2.9,4.7c0-0.2-0.1-0.3-0.1-0.5c-0.7,0.7-1.5,1.2-2.3,1.8
							c-0.3,0.2,0,0.7,0.3,0.5c0.9-0.6,1.7-1.2,2.4-1.9c0.2-0.2,0.1-0.4-0.1-0.5c-1.7-0.7-2.6-2.3-2.4-4.2
							C122.4,79.3,121.8,79.3,121.8,79.6L121.8,79.6z"/>
					</g>
				</g>
				<g>
					<path class="st8" d="M119.1,87.7c2,0.2,4.1-0.1,7.1-0.4c0,0-0.1,3-2.9,3.5C120.5,91.3,119.1,87.7,119.1,87.7z"/>
				</g>
				<g>
					<g>
						<path class="st4" d="M110.3,83.3c0-0.2-4-3.7-5.9-0.7c-2,3.1,1.3,8.3,6.7,5.8L110.3,83.3z"/>
					</g>
					<g>
						<g>
							<path class="st2" d="M108.3,89.4c1,0,2.1-0.1,2.9-0.8c0.3-0.2-0.1-0.6-0.4-0.4c-0.6,0.6-1.7,0.6-2.5,0.6
								C108,88.9,108,89.4,108.3,89.4L108.3,89.4z"/>
						</g>
					</g>
					<g>
						<g>
							<path class="st2" d="M105.2,84.4c1.4,0.5,2.6,1.4,3.4,2.7c0.2,0.3,0.7,0,0.5-0.3c-0.9-1.4-2.2-2.4-3.7-2.9
								C105.1,83.7,104.9,84.3,105.2,84.4L105.2,84.4z"/>
						</g>
					</g>
				</g>
				<g>
					<g>
						<path class="st5" d="M121.4,92.4c1.1,0.7,2.7,0.8,3.7-0.2c0.2-0.2-0.1-0.6-0.3-0.3c-0.8,0.9-2.2,0.7-3.1,0.1
							C121.4,91.8,121.1,92.2,121.4,92.4L121.4,92.4z"/>
					</g>
				</g>
			</g>
			<g>
				<path class="st2" d="M105.4,81.6c0,0,3.7-1,4.9,1.9l1.5-0.6c0,0-2.5-4.9-1.6-7.1c0.9-2.2,8.7,2,8.3-1c0,0,12.1,2,10.7-2.3
					c-0.5-1.5,0.2-7.1-8-8.8C111.5,61.8,99.3,67.7,105.4,81.6z"/>
			</g>
			<g>
				<polygon class="st2" points="141.5,65.2 116.4,50.7 87.6,73.7 119,76.1 				"/>
			</g>
			<g>
				<path class="st9" d="M128.6,69.3c0,0,0-4.4-2.5-7.2c0,0-14.4-4.2-24.1,7.4c-0.7,2.9,0.5,5.6,2.3,8.3
					C104.4,77.8,115.1,62.5,128.6,69.3z"/>
			</g>
			<g>
				<path class="st2" d="M127.9,69.8l2,9c0,0,0.8-2.7,0.7-4.8C130.3,68.5,127.9,69.8,127.9,69.8z"/>
			</g>
		</g>
		<g>
			<path class="st2" d="M141.4,204.3c0,0,4,15.2,13.3,44.6c4.8,15-6.6,25.6-6.6,25.6s-55.9,29-59.7,48.2c0,0,1.2-53.5,2.2-88.2
				c1-34.5-0.9-52.3-4.8-68.2C81.9,150.5,141.4,204.3,141.4,204.3z"/>
		</g>
		<g>
			<g>
				<path class="st3" d="M91.4,169.6c6.2,16.1,8.5,33.4,9.1,50.6c0.3,8.8,0.3,17.5-0.3,26.3c-0.6,9.1-1.6,18.1-2.3,27.2
					c-0.8,10.1-1.1,20.3,0,30.5c0,0.4,0.6,0.4,0.6,0c-2-18.3,0.8-36.5,2.1-54.7c0.6-8.8,0.8-17.6,0.5-26.4c-0.2-8.5-0.8-17.1-2-25.5
					c-1.4-9.6-3.7-19-7.2-28.1C91.8,169.1,91.3,169.3,91.4,169.6L91.4,169.6z"/>
			</g>
		</g>
		<g>
			<g>
				<path class="st3" d="M97.9,158.1c-3.6,5.3-7.2,10.6-10.6,16.1c-0.2,0.3,0.3,0.6,0.5,0.3c3.4-5.4,6.9-10.8,10.6-16.1
					C98.6,158.1,98.1,157.8,97.9,158.1L97.9,158.1z"/>
			</g>
		</g>
		<g>
			<path class="st2" d="M80.6,125.9c0,0-26.9,34.6-30.2,55.7s2.6,37.6,2.6,37.6c4.6,8.4,37.2-9.5,32.6-17.9c0,0-4.8-16.1,2.8-31.1
				L80.6,125.9z"/>
		</g>
		<g>
			<g>
				<path class="st3" d="M84.8,180.5c-2.7-3.6-6.8-5.9-11.2-6.4c-0.4,0-0.4,0.5,0,0.6c4.3,0.5,8.1,2.7,10.7,6.1
					C84.6,181,85.1,180.7,84.8,180.5L84.8,180.5z"/>
			</g>
		</g>
		<g>
			<path class="st4" d="M61.6,214.6c8.9,18.2,24.6,32.5,24.6,32.5c1.1,1.5,7-3.4,5.9-4.9c0,0-7.1-22.3-12.2-37
				C78.1,201.6,59.8,210.9,61.6,214.6z"/>
		</g>
		<g>
			<g>
				<g>
					<g>
						<g>
							<path class="st10" d="M61.9,272.8c-2.7,2.8,11.7,16.7,14.4,13.9c0,0,13.7-18.3,25.7-32.4c11.9-14.1,29.5-24.7,29.8-24.8
								c0,0,0,0,0,0s0,0,0,0c-1.5-3.2-3.6-6.2-6.1-8.6c-2.5-2.4-5.5-4.4-8.8-5.8c0,0,0,0,0,0c-0.1,0.2-2.1,3.8-5.5,8.8
								c-4.2,6.3-10.7,14.9-18.2,21.8C79.4,258.1,61.9,272.8,61.9,272.8z"/>
						</g>
					</g>
					<g>
						<g>
							<path class="st7" d="M116.8,215C116.8,215,116.8,215,116.8,215c-0.1,0.2-0.8,3.2,5.1,8.9c6,5.8,9.8,5.6,9.9,5.6c0,0,0,0,0,0
								s0,0,0,0c-1.5-3.2-3.6-6.2-6.1-8.6C123.1,218.4,120.1,216.4,116.8,215z"/>
						</g>
					</g>
					<g>
						<g>
							<g>
								<path class="st6" d="M119.9,220.3c-0.9-1.2-0.9-1.5-0.8-1.7c0.1-0.1,0.2-0.2,0.4-0.2c0,0,0,0,0,0c1.1-0.1,4.8,3.2,7.4,6.5
									c0.1,0.1,0.1,0.2,0,0.3c-0.1,0.1-0.2,0.1-0.3,0c-3-3.9-6.3-6.4-7-6.3c0,0,0,0,0,0c0,0.8,5.2,5.9,7.8,7.5
									c0.8,0.5,1,0.4,1,0.4c0,0,0,0,0-0.1c0-2-5.7-7.3-7.6-8c-0.1,0-0.2-0.2-0.1-0.3c0-0.1,0.2-0.2,0.3-0.1c1,0.3,2.9,1.8,4.7,3.6
									c1,1,3.2,3.4,3.2,4.8c0,0.4-0.2,0.5-0.3,0.5c0,0-0.1,0-0.1,0C126.9,227.2,121.6,222.3,119.9,220.3z M119.5,218.8
									L119.5,218.8L119.5,218.8z"/>
							</g>
						</g>
					</g>
				</g>
				<g>
					<g>
						<path class="st11" d="M104.8,251c0,0-1.1,3.3-3.5,5c-2.6,1.9-11.5-6.6-10.1-9.3c1.4-2.6,4.9-4,4.9-4c-0.9,0.9-1.6,1.7-2.3,2.3
							c0,0,0.1,2,3.5,5.3c3.4,3.2,5.5,3,5.5,3L104.8,251z"/>
					</g>
				</g>
				<g>
					<g>
						<g>
							<path class="st11" d="M100.1,254.9l-0.8-1.1l1.4-0.2c0.1,0,2.5-0.4,5.1-0.4c3.9-0.1,5.9,0.6,6.4,2c0.3,0.8-0.1,1.5-0.8,1.9
								c-1.6,0.8-4.9,0.2-5.9,0c-1.2-0.2-3.9-0.9-5-2C100.2,255.1,100.2,255,100.1,254.9z M105.8,254.9c-0.8,0-1.6,0.1-2.3,0.1
								c1.2,0.4,2.9,0.8,4.4,0.9c1.6,0.1,2.4,0,2.7-0.2C110.4,255.5,109.6,254.8,105.8,254.9z"/>
						</g>
					</g>
				</g>
				<g>
					<g>
						<g>
							<path class="st11" d="M101.1,260c-0.4-1.3-1.2-4.3-0.5-5.7l0.6-1.2l0.8,1.1c0.1,0.1,1.5,2.1,2.8,4.3c1.9,3.4,2.3,5.5,1.2,6.6
								c-0.6,0.6-1.4,0.7-2.1,0.2c-0.1-0.1-0.2-0.2-0.3-0.3C102.3,263.7,101.4,260.9,101.1,260z M103.3,259.2
								c-0.4-0.7-0.8-1.4-1.2-2c0.2,1.3,0.7,2.9,1.3,4.3c0.7,1.5,1.2,2.1,1.4,2.3C105,263.6,105.2,262.6,103.3,259.2z"/>
						</g>
					</g>
				</g>
			</g>
			<g>
				<g>
					<path class="st4" d="M93.3,240.7c0,0,5.7,6.5,9.3,7.7c3.6,1.3,6.8,3,5.8,3.9c-1,0.9-2.7,0.9-2.7,0.9s0,2.1-0.7,2.7
						c-0.7,0.5-2.7,0.4-2.7,0.4s0.8,2.8-0.2,3.2c-1,0.4-3.1,0.8-3.1,0.8s0.1,1.2-1.3,2.1c-1.4,0.9-6.9,5.4-12.9-11.5
						C83.5,247.3,93.3,240.7,93.3,240.7z"/>
				</g>
			</g>
			<g>
				<g>
					<path class="st4" d="M81.2,242.8l3.7,8.1l11.3-7.5l-6-6.1C88.9,235.7,79.9,241.2,81.2,242.8z"/>
				</g>
			</g>
			<g>
				<g>
					<path class="st4" d="M93.3,240.7c0,0,4.3-3.3,7.5-2.7l-5.2,5.5L93.3,240.7z"/>
				</g>
			</g>
		</g>
	</g>
	<g>
		<g>
			<g>
				<path class="st7" d="M361,77.8c-0.9,5.3-4.1,9.6-5.7,14.6c-1.2,3.8-1.2,8.3,1.5,11.5c0.3,0.4,0.9-0.1,0.6-0.4
					c-3.1-3.7-2.3-8.7-0.7-12.9c1.7-4.2,4.2-8.1,4.9-12.7C361.9,77.5,361.1,77.3,361,77.8L361,77.8z"/>
			</g>
		</g>
		<g>
			<path class="st7" d="M357,103.2c0,0-1.5,4.4-0.5,6.7l5.3-1.9C361.9,108,361.2,105.5,357,103.2z"/>
		</g>
		<g>
			<path class="st7" d="M355.4,104.1c0.2,0.8,1.1,1.2,1.9,1c0.8-0.2,1.2-1.1,1-1.9c-0.2-0.8-1.1-1.2-1.9-1
				C355.6,102.5,355.2,103.3,355.4,104.1z"/>
		</g>
		<g>
			<path class="st6" d="M254.7,284.6c0,0-0.8,10.8,14,10.5c14.7-0.2,32.7-10,60.5,1.7c27.7,11.7,39.2,8.7,38.9,4.2
				c-0.3-4.4-37.9-43.2-73.2-42.2C259.7,259.8,254.7,284.6,254.7,284.6z"/>
		</g>
		<g>
			<g>
				<g>
					<g>
						<g>
							<g>
								<g>
									<g>
										<path class="st12" d="M386.9,320.2l25.1-6.7c3.5,4.4,5.3,7.8,1.6,11.6l-21.3,9.9L386.9,320.2z"/>
									</g>
								</g>
							</g>
						</g>
					</g>
				</g>
				<g>
					<g>
						<g>
							<g>
								<g>
									<path class="st2" d="M414.1,312c-1.8,0-3.6,0.6-4.9,1.8c-0.5,0.4-0.8,0.8-0.6,1.1c0.3,0.8,4.4,5.5,5.1,6.8
										c0.7,1.3-5,5-5,5.8c0,0.7,2.5,0.4,5.2,1.1c2.7,0.7,9.3,11.4,11.7,15.8c2.4,4.4,2.8-7.8,2.6-12.5
										c-0.2-4.7-0.3-10.8-0.3-10.8s-7.2-2.5-7.1-3.4c0-0.8,7.1-0.7,7.1-2.1c0-1.4,0.1-3.5,0.1-3.5L414.1,312z"/>
								</g>
							</g>
						</g>
					</g>
				</g>
				<g>
					<g>
						<g>
							<g>
								<g>
									<g>
										<path class="st12" d="M315.9,404.5l7.1,25c-4.4,3.6-7.7,5.5-11.6,1.8l-10.2-21.1L315.9,404.5z"/>
									</g>
								</g>
							</g>
						</g>
					</g>
				</g>
				<g>
					<g>
						<g>
							<g>
								<g>
									<path class="st2" d="M324.5,431.5c0-1.8-0.7-3.6-1.9-4.9c-0.4-0.4-0.8-0.7-1.1-0.6c-0.8,0.3-5.5,4.5-6.7,5.2
										c-1.3,0.7-5.1-4.9-5.8-4.9s-0.3,2.5-1,5.2c-0.7,2.7-11.2,9.5-15.7,11.9c-4.4,2.4,7.8,2.7,12.6,2.4
										c4.7-0.2,10.8-0.5,10.8-0.5s2.4-7.2,3.2-7.2c0.8,0,0.8,7.1,2.2,7.1c1.4,0,3.5,0,3.5,0V431.5z"/>
								</g>
							</g>
						</g>
					</g>
				</g>
				<g>
					<g>
						<g>
							<g>
								<g>
									<g>
										<path class="st7" d="M285.2,222.7c0,0-15.6,68.2-11.1,109.1c4.5,40.9,22.2,89.9,22.2,89.9l28.2-10.8
											c0,0-19.6-60.2-19.4-91s7.6-81.3,7.6-81.3L285.2,222.7z"/>
									</g>
								</g>
							</g>
						</g>
					</g>
				</g>
				<g>
					<path class="st7" d="M344.3,276.6c0,0,0.5,39.9,3,43.5c2.5,3.5,51.2-5.7,51.2-5.7l6.5,19.4c0,0-46.5,15.4-67.7,17.4
						c-21.2,2-25.3-75.7-25.3-75.7L344.3,276.6z"/>
				</g>
				<g>
					<path class="st6" d="M353.5,327.9c-0.2,0-0.4,0-0.6,0c-5.8-0.1-9.1-1.2-10-3.5c-3.5-8.8-3.5-33.5-3.5-34.5
						c0-0.3,0.2-0.5,0.5-0.5c0.3,0,0.5,0.2,0.5,0.5c0,0.3,0,25.5,3.5,34.2c0.8,2,4.5,2.8,9.5,2.8c12.1,0,32.2-4.4,41.6-6.8
						c0.3-0.1,0.5,0.1,0.6,0.4c0.1,0.3-0.1,0.5-0.4,0.6c-0.1,0-12.2,3.2-24.6,5.2C363.6,327.3,357.9,327.9,353.5,327.9z"/>
				</g>
				<g>
					<path class="st6" d="M399.4,335.5c-0.2,0-0.4-0.1-0.5-0.4l-5.3-19.3c-0.1-0.3,0.1-0.5,0.3-0.6c0.3-0.1,0.5,0.1,0.6,0.3
						l5.3,19.3c0.1,0.3-0.1,0.5-0.3,0.6C399.5,335.5,399.5,335.5,399.4,335.5z"/>
				</g>
				<g>
					<g>
						<g>
							<g>
								<path class="st6" d="M285.6,329.7c-3.7,1.4-7.1,1.6-10.9,0.7c-0.6-0.1-0.3-1,0.2-0.9c3.7,0.8,6.9,0.6,10.4-0.7
									C285.9,328.6,286.1,329.4,285.6,329.7L285.6,329.7z"/>
							</g>
						</g>
					</g>
				</g>
				<g>
					<g>
						<g>
							<g>
								<path class="st6" d="M305.8,252.4c-1.3,18.6-4,37.1-5.2,55.8c-0.5,7.3-0.9,14.8,0,22.2c1.5,12.1,3.9,24.2,6.7,36.1
									c3.1,13.3,6.9,26.4,10.8,39.5c0.2,0.6-0.7,0.8-0.9,0.2c-6.9-23.4-13.5-47-16.9-71.2c-0.5-3.8-1-7.6-1-11.5
									c-0.1-4,0.1-7.9,0.3-11.9c0.5-9.4,1.5-18.7,2.4-28c1.1-10.4,2.2-20.7,3-31.2C304.9,251.9,305.8,251.9,305.8,252.4
									L305.8,252.4z"/>
							</g>
						</g>
					</g>
				</g>
				<g>
					<g>
						<g>
							<g>
								<g>
									<g>
										<path class="st6" d="M294.5,414.8c0,0,0.1,0,0.1,0l28.1-9.6c0.2-0.1,0.3-0.3,0.3-0.5c-0.1-0.2-0.3-0.3-0.5-0.3l-28.1,9.6
											c-0.2,0.1-0.3,0.3-0.3,0.5C294.2,414.6,294.3,414.8,294.5,414.8z"/>
									</g>
								</g>
							</g>
						</g>
					</g>
				</g>
			</g>
		</g>
		<g>
			<path class="st2" d="M256.1,283.6c-9.7,13.3,32.5-94,37.5-115.2c5-21.2,6.1-39.4,8.5-52c2.1-11.2,8.8-11.7,16.8-14.1
				c0.8-0.2,1.7-0.5,2.5-0.8c0.2-0.1,0.4-0.1,0.6-0.2c9.4-3.5,13.3,0.9,13.3,0.9s3.1,1.7,7.9,4.1c0.9,0.5,1.9,0.9,3,1.4
				c2.4,1.1,5.1,2.4,8,3.5c10.2,4.2,2,16.5-4.8,32.5c-6.7,16-6.4,38.7-2.2,50.2c21,58.2,19.7,95,21,107.3
				C369.3,313.3,279.7,251,256.1,283.6z"/>
		</g>
		<g>
			<g>
				<path class="st3" d="M331.9,191.9c-1.4,10.5,4.4,21.4,13.8,26.2c0.3,0.2,0.6-0.3,0.3-0.5c-9.3-4.7-14.9-15.4-13.6-25.7
					C332.5,191.5,331.9,191.5,331.9,191.9L331.9,191.9z"/>
			</g>
		</g>
		<g>
			<g>
				<path class="st3" d="M322.2,135.4c-4.2,18-7.7,36.2-10.5,54.5c-2.8,18.3-4.9,36.8-6,55.3c-0.6,10.3-0.9,20.6-0.9,30.9
					c0,0.4,0.6,0.4,0.6,0c-0.1-18.3,1-36.5,2.8-54.7c1.9-18.6,4.7-37.1,8.1-55.5c1.9-10.2,4-20.3,6.4-30.3
					C322.9,135.2,322.3,135.1,322.2,135.4L322.2,135.4z"/>
			</g>
		</g>
		<g>
			<path class="st7" d="M346.1,107.6c-6,13.8-23.6,27.9-23.6,27.9c-3.7-12.2-3.7-27.5-3.6-33.3c0.8-0.2,1.7-0.5,2.5-0.8
				c0.2-0.1,0.4-0.1,0.6-0.2c9.4-3.5,13.3,0.9,13.3,0.9s3.1,1.7,7.9,4.1C344.1,106.6,345.1,107.1,346.1,107.6z"/>
		</g>
		<g>
			<path class="st8" d="M343.2,106.1c-0.7,1.5-2.1,3.4-3.8,5.6c-5.9,7.6-15.6,17.5-15.6,17.5c-1.3-5.9-1.9-13.6-2.2-19.6
				c-0.2-3.8-0.2-6.9-0.2-8.4c0.2-0.1,0.4-0.1,0.6-0.2c9.4-3.5,13.3,0.9,13.3,0.9S338.4,103.8,343.2,106.1z"/>
		</g>
		<g>
			<path class="st12" d="M343.2,106.1c-0.7,1.5-2.1,3.4-3.8,5.6c-4.1,3-9.2,5.7-12.7,4c-2.4-1.2-4-3.5-5-6.1
				c-0.2-3.8-0.2-6.9-0.2-8.4c0.2-0.1,0.4-0.1,0.6-0.2c9.4-3.5,13.3,0.9,13.3,0.9S338.4,103.8,343.2,106.1z"/>
		</g>
		<g>
			<g>
				<path class="st2" d="M347.1,108c0,0,23.1,6.2,30.7,1.6s5.6-16.3,10-15.7c4.5,0.5,11.8,16.6,12.6,28.9
					c0.8,12.4-1.3,7.9-11.9,12.3c-11.3,4.7-38.5,13-43.6,7.3C339.8,136.9,347.1,108,347.1,108z"/>
			</g>
			<g>
				<g>
					<path class="st3" d="M373.8,111.2c-2.6,4-3.4,8.8-2.3,13.5c0.1,0.4,0.6,0.2,0.5-0.1c-1.1-4.5-0.2-9.2,2.3-13
						C374.5,111.2,374,110.9,373.8,111.2L373.8,111.2z"/>
				</g>
			</g>
			<g>
				<g>
					<path class="st3" d="M348.8,144c-2.1,0.1-3.9-0.5-5.8-1.3c-0.3-0.1-0.6,0.3-0.3,0.5c2,0.8,3.9,1.5,6,1.4
						C349.1,144.5,349.1,144,348.8,144L348.8,144z"/>
				</g>
			</g>
			<g>
				<path class="st12" d="M393.8,122.4c-2.6,0.9-9.8-18.8-7.3-19.8c4.5-12.3,9.8-34.7,9.8-34.7c-0.1-1.5,6.9-1.4,7.7,0
					c0,0-1.8,43-9.3,53.3C394.5,121.7,394.1,122.1,393.8,122.4z"/>
			</g>
			<g>
				<g>
					<g>
						<g>
							<g>
								<g>
									<g>
										<g>
											<g>
												<path class="st12" d="M412.5,66.1c0.1,2.6-2.2,2.8-5.5,5.1c-2.2,1.5-5.1,5.2-7.6,3.6c-2.5-1.6-4-3.3-4-3.3
													s-2.1-2.5-1-5.6c0,0,1.3-4.6,2.5-5.2c1.2-0.6,2.8,0.8,2.8,0.8c1.1-0.4,6.9-9.9,8.5-10.2c0,0,1.9-0.3,1,2.1
													c-0.8,2.4-3.9,6.8-3.9,6.8s6.1-7,7.8-6.9c0.5,0,0.8,0.6,0.6,1.3c-0.3,1-1.5,2-2.2,2.9c-1.2,1.4-3,3.7-3.5,4.4
													c0,0,1.5-0.4,2.5,0.3c1,0.7,0,2.1,0,2.1S412.4,64.5,412.5,66.1z"/>
											</g>
										</g>
									</g>
								</g>
							</g>
						</g>
					</g>
					<g>
						<g>
							<g>
								<g>
									<g>
										<path class="st13" d="M400.2,67.3c0.2,0.1,0.4,0.1,0.5,0.1c0.5,0.1,0.9,0,1.2-0.2c0.3-0.2,0.4-0.5,0.5-0.8
											c0.1-0.4,0-0.8-0.2-1.2c-0.1-0.2-0.1-0.4-0.2-0.5c-0.7-1.4-2-2.6-2.1-2.6c-0.1-0.1-0.3-0.1-0.3,0c-0.1,0.1-0.1,0.3,0,0.3
											c0,0,1.3,1.1,1.9,2.4c0.1,0.1,0.1,0.3,0.2,0.5c0.1,0.4,0.2,0.7,0.1,1c0,0.2-0.1,0.4-0.3,0.5c-0.2,0.1-0.5,0.2-0.8,0.1
											c-0.1,0-0.3-0.1-0.4-0.1c-1.3-0.4-2.9-1.7-4-3.3c-0.1-0.1-0.2-0.1-0.3-0.1c-0.1,0.1-0.1,0.2-0.1,0.3
											C397.2,65.5,398.8,66.8,400.2,67.3C400.2,67.3,400.2,67.3,400.2,67.3z"/>
									</g>
								</g>
							</g>
						</g>
					</g>
					<g>
						<g>
							<g>
								<g>
									<g>
										<path class="st13" d="M406.7,70.1c0.9,0.3,2.2-0.3,2.4-0.4c0.1-0.1,0.2-0.2,0.1-0.3c-0.1-0.1-0.2-0.2-0.3-0.1
											c-0.5,0.2-1.8,0.7-2.3,0.2c-0.7-0.8,1-2.7,1.7-3.3c0.1-0.1,0.1-0.2,0-0.3c-0.1-0.1-0.2-0.1-0.3-0.1
											c-0.6,0.4-2.4,1.2-3.1,0.5c-0.1-0.1-0.2-0.2-0.1-0.4c0.1-1,2.2-2.9,3-3.5c0.1-0.1,0.1-0.2,0-0.3c-0.1-0.1-0.2-0.1-0.3,0
											c-0.3,0.2-3.1,2.4-3.2,3.8c0,0.3,0.1,0.6,0.3,0.8c0.6,0.6,1.7,0.4,2.5,0.1c-0.7,0.9-1.6,2.3-0.8,3.1
											C406.4,70,406.5,70.1,406.7,70.1z"/>
									</g>
								</g>
							</g>
						</g>
					</g>
					<g>
						<g>
							<g>
								<g>
									<g>
										<path class="st13" d="M405.7,61.7c0.1,0,0.1,0,0.2,0c0.1-0.1,0.2-0.2,0.1-0.3c0-0.1-0.6-1.3-2.2-2c-0.1-0.1-0.3,0-0.3,0.1
											c-0.1,0.1,0,0.3,0.1,0.3c1.4,0.6,1.9,1.7,1.9,1.7C405.6,61.6,405.6,61.7,405.7,61.7z"/>
									</g>
								</g>
							</g>
						</g>
					</g>
				</g>
				<g>
					<g>
						<g>
							<g>
								<g>
									<g>
										<path class="st13" d="M404.5,62.2c0,0-1.3,0.8-2.6,2.5c0.1,0.2,0.2,0.3,0.2,0.5c1.3-1.7,2.7-2.6,2.7-2.6
											c0.1-0.1,0.1-0.2,0.1-0.3C404.7,62.2,404.6,62.1,404.5,62.2z"/>
									</g>
								</g>
							</g>
						</g>
					</g>
					<g>
						<g>
							<g>
								<g>
									<g>
										<path class="st13" d="M398.9,72c0,0.1,0.1,0.2,0.2,0.2l0.1,0c0.1,0,0.2-0.1,0.3-0.2c0.1-1.9,0.7-3.6,1.3-4.9
											c-0.1,0-0.3-0.1-0.5-0.1C399.6,68.4,399.1,70,398.9,72z"/>
									</g>
								</g>
							</g>
						</g>
					</g>
				</g>
			</g>
		</g>
		<g>
			<path class="st2" d="M316.4,91.6c10.7,3.6,29,14.6,33.7,12.6c2.3,0,3-3.5,2-5c-5.1-7.8-1.1-10.9,0.4-17.6
				c1.5-6.6-4.1-13.4-4.1-13.4l-9.5-1.7c-6.8-1.3-12.8-1.9-14.7,4.7c0,0.2-0.5,3.3-0.8,5.2c-0.9,6.4-4.5,6.9-7.9,9.2
				C313.3,87.1,313.8,90.7,316.4,91.6z"/>
		</g>
		<g>
			<polygon class="st2" points="316.6,59.7 344.7,52.7 366.1,82.7 335.3,76.3 			"/>
		</g>
		<g>
			<g>
				<g>
					<g>
						<path class="st12" d="M323.8,102.5c-0.6,7.4,9.9,8,15,2.9c-1.4-9.1,0.7-10.6,2.3-18.2l-13,2.1l-0.4,1.2l-2.5,8.2L323.8,102.5z
							"/>
					</g>
				</g>
				<g>
					<g>
						<path class="st2" d="M325.2,98.7c7.6,0.9,13.2-7.3,13.2-7.3l-10.7-0.9L325.2,98.7z"/>
					</g>
				</g>
			</g>
			<g>
				<g>
					<g>
						<path class="st13" d="M328.3,80.8c0.1-0.2-1.6-5.1-4.8-3.4s-2.9,7.9,3,8.3L328.3,80.8z"/>
					</g>
				</g>
			</g>
			<g>
				<circle class="st8" cx="322.2" cy="84.8" r="1.6"/>
			</g>
			<g>
				<g>
					<path class="st12" d="M348.2,80l-0.6,1.5c0,0-3.1,7-6.9,10.8c-4.1,4.2-18.3,4.6-18.8-4.1c-0.2-3.6,3-14.8,3-14.8l-0.1-2.5
						c2.1-5.3,7.5-6.7,13.1-6.1c0.1,0,0,0,0.1,0C345.1,67.1,351.1,72.4,348.2,80z"/>
				</g>
			</g>
			<g>
				<path class="st2" d="M329.1,64.2c0,0,1.9,9.3,11.6,14.2l1,4.8l4.3,2.4c0,0,11.4-16.6-3.9-21.7L329.1,64.2z"/>
			</g>
			<g>
				<g>
					<g>
						<path class="st13" d="M328.4,89.8c-1,0.3-2.3,0.1-2.8-0.9c-0.1-0.2,0.2-0.4,0.3-0.2c0.5,0.9,1.5,1,2.4,0.7
							C328.5,89.3,328.6,89.7,328.4,89.8L328.4,89.8z"/>
					</g>
				</g>
			</g>
			<g>
				<g>
					<path class="st8" d="M331.1,85.8c-2.3-0.2-3.4-0.5-6.2-1.1c0,0-0.3,3.3,2.4,3.8C330.2,89.1,331.1,85.8,331.1,85.8z"/>
				</g>
			</g>
			<g>
				<g>
					<g>
						<path class="st2" d="M338.8,89.4c0.5,0.6,1.2,1,2,1.3c0.3,0.1,0.1,0.5-0.2,0.4c-0.8-0.3-1.6-0.7-2.2-1.4
							C338.2,89.5,338.6,89.2,338.8,89.4L338.8,89.4z"/>
					</g>
				</g>
			</g>
			<g>
				<g>
					<path class="st2" d="M340.3,78.3c0,0-1.7,5.5,2.2,6.4C346.5,85.7,345.2,77.2,340.3,78.3z"/>
				</g>
			</g>
			<g>
				<g>
					<path class="st2" d="M328.4,76.1c-1-0.4-2.9-0.7-3.9,1.4c0,0,2.2-0.8,3.2-0.2c0.3,0.2,0.6,0.2,0.8,0.1
						C329.1,77.2,329,76.3,328.4,76.1z"/>
				</g>
			</g>
			<g>
				<g>
					<path class="st2" d="M334.2,78c1,0.2,2.8,1,2.5,3.3c0,0-1.4-1.8-2.6-1.8c-0.4,0-0.6-0.1-0.8-0.3
						C333.1,78.5,333.6,77.8,334.2,78z"/>
				</g>
			</g>
			<g>
				<g>
					<g>
						<path class="st2" d="M328,84.2c-0.3-0.6-0.6-1.3-0.9-1.9c-0.1-0.1,0-0.3,0.2-0.3c0.5-0.1,1.4-0.2,1.7-0.5
							c0.3-0.3,0.4-0.8,0.6-1.2c0.4-0.8,0.8-1.6,1.2-2.4c0.1-0.3,0.5-0.1,0.4,0.2c-0.5,1-1,1.9-1.5,2.9c-0.1,0.3-0.2,0.6-0.4,0.9
							c-0.4,0.4-1.4,0.5-1.9,0.6c0.1-0.1,0.1-0.2,0.2-0.3c0.3,0.6,0.6,1.3,0.9,1.9C328.5,84.3,328.1,84.4,328,84.2L328,84.2z"/>
					</g>
				</g>
			</g>
			<g>
				<g>
					<g>
						<path class="st2" d="M332.6,81.4c-0.1,0.4,0,0.8,0.4,0.9c0.4,0.1,0.8,0,0.9-0.4s0-0.8-0.4-0.9C333.1,80.8,332.7,81,332.6,81.4
							z"/>
					</g>
				</g>
				<g>
					<g>
						<path class="st2" d="M326.1,79.4c-0.1,0.4,0,0.8,0.4,0.9s0.8,0,0.9-0.4c0.1-0.4,0-0.8-0.4-0.9C326.7,78.8,326.3,79,326.1,79.4
							z"/>
					</g>
				</g>
			</g>
			<g>
				<g>
					<g>
						<path class="st12" d="M340.8,84.6c0.1-0.2,4.4-2.4,5.6,1.1c1.2,3.4-2.7,7.8-7.4,4L340.8,84.6z"/>
					</g>
				</g>
				<g>
					<path class="st8" d="M343.1,91.5c0,0.9-0.7,1.6-1.6,1.6c-0.9,0-1.6-0.7-1.6-1.6c0-0.9,0.7-1.6,1.6-1.6
						C342.4,89.9,343.1,90.6,343.1,91.5z"/>
				</g>
				<g>
					<g>
						<g>
							<path class="st2" d="M345.7,87.1c-1.5,0.2-2.9,0.8-4,1.8c-0.2,0.2-0.5-0.2-0.3-0.4c1.2-1.1,2.6-1.7,4.2-1.9
								C345.9,86.7,346,87.1,345.7,87.1L345.7,87.1z"/>
						</g>
					</g>
				</g>
			</g>
			<g>
				<g>
					<path class="st2" d="M340,67.6c0,0-9.6,6.4-15.5,8.3c0,0-1.9-5.9,2.6-10.4c7.1-7,15.6-1.5,17.8,0.3L340,67.6z"/>
				</g>
			</g>
		</g>
		<g>
			<g>
				<path class="st9" d="M325.9,67.1c0,0,2.5-3.9,5.7-5.9c0,0,15.7-0.3,21.8,13.5c0.7,1.9,0.9,6-1,7.8
					C352.3,82.5,340.7,64.2,325.9,67.1z"/>
			</g>
		</g>
		<g>
			<g>
				<path class="st2" d="M309.1,106.2c0,0-27.5,5.6-34.9,0.9s-5.1-16.4-9.6-16c-4.5,0.4-12.3,16.2-13.4,28.6
					c-1.1,12.4,1.1,7.9,11.6,12.6c11.2,5,34.8,11.7,40,6.2C308.1,132.9,309.1,106.2,309.1,106.2z"/>
			</g>
			<g>
				<g>
					<path class="st3" d="M274.7,108.2c1.9,4.1,3.1,8.4,3.4,12.9c0,0.4,0.6,0.4,0.6,0c-0.3-4.6-1.5-9-3.4-13.2
						C275,107.6,274.5,107.9,274.7,108.2L274.7,108.2z"/>
				</g>
			</g>
			<g>
				<g>
					<path class="st3" d="M298.9,139.7c1-6.3,2.1-12.6,3.5-18.8c0.1-0.4-0.5-0.5-0.5-0.1c-1.4,6.2-2.5,12.5-3.5,18.8
						C298.3,139.9,298.8,140,298.9,139.7L298.9,139.7z"/>
				</g>
			</g>
			<g>
				<path class="st12" d="M257.8,119.4c2.6,1,10.4-18.6,7.8-19.6c-4.2-12.4-8.8-34.9-8.8-34.9c0.1-1.5-6.9-1.6-7.7-0.2
					c0,0,0.6,43,7.8,53.6C257.2,118.6,257.5,119,257.8,119.4z"/>
			</g>
			<g>
				<g>
					<g>
						<g>
							<path class="st10" d="M220.9,73.9c-3.3,0.5-6-16.4-2.7-16.9c0,0,19.6-0.7,35.4-2.2c15.7-1.4,31.8-8.7,32-8.8c0,0,0,0,0,0
								s0,0,0,0c1.5,2.7,2.6,5.5,3,8.5c0.5,3,0.4,6-0.2,9.1c0,0,0,0,0,0c-0.2,0-3.7-0.4-8.9-0.5c-6.5-0.1-15.7,0.2-24.3,2.1
								C239.7,68.8,220.9,73.9,220.9,73.9z"/>
						</g>
					</g>
					<g>
						<g>
							<path class="st7" d="M288.4,63.7C288.4,63.7,288.4,63.7,288.4,63.7c-0.2-0.1-2.6-1-3.7-7.9c-1.1-7.1,0.9-9.6,0.9-9.7
								c0,0,0,0,0,0s0,0,0,0c1.5,2.7,2.6,5.5,3,8.5C289.1,57.6,289,60.7,288.4,63.7z"/>
						</g>
					</g>
					<g>
						<g>
							<g>
								<path class="st6" d="M285.6,49.6C285.6,49.6,285.6,49.5,285.6,49.6c0.2-0.2,0.4-0.2,0.6-0.1c1,0.7,1.6,3.5,1.8,4.6
									c0.4,2.2,0.5,4.2,0.2,5.1c0,0.1-0.1,0.2-0.2,0.1c-0.1,0-0.2-0.1-0.1-0.2c0.5-1.7-0.5-8.3-1.9-9.3c0,0-0.1,0-0.1,0
									c0,0-0.2,0.1-0.2,0.9c-0.2,2.6,0.8,8.8,1.4,9.2c0,0,0,0,0,0c0.3-0.4,0.2-4-1-8c0-0.1,0-0.2,0.1-0.3c0.1,0,0.2,0,0.3,0.1
									c1.1,3.5,1.6,7.6,1,8.4c0,0,0,0,0,0c-0.1,0.1-0.2,0.2-0.3,0.2c-0.2,0-0.5-0.2-0.8-1.4C285.6,56.7,284.8,50.6,285.6,49.6z
									 M287.1,59.9L287.1,59.9L287.1,59.9z"/>
							</g>
						</g>
					</g>
				</g>
				<g>
					<g>
						<path class="st11" d="M257.2,54.4c0,0-2.9-0.9-5.3,0c-2.6,0.9-1,11.3,1.6,11.7c2.5,0.3,5.2-1.5,5.2-1.5
							c-1.1,0.2-2,0.3-2.7,0.5c0,0-1.4-1.1-2-5c-0.6-4,0.6-5.4,0.6-5.4L257.2,54.4z"/>
					</g>
				</g>
				<g>
					<path class="st12" d="M253.5,64.7c0,0,0.8,2.9,2.9,2.9c2.1,0,3.5-1,5.4-1.4c2-0.5,0.3-2.6-1.8-2.4
						C258,63.9,253.5,64.7,253.5,64.7z"/>
				</g>
				<g>
					<path class="st12" d="M244.4,55.6c-1.4,2.8,0.7,10.3,1.9,11c1.8,1,2.9-0.2,2.9-0.2s0.3,1.3,1.9,1c1.6-0.2,1.7-1.6,1.7-1.6
						s1.2,1.1,1.9,0.9c1.3-0.3,1.9-2,1.9-2s1.2,1,1.8,0.4c1.1-1.2-0.8-4.2-0.3-6.5s0.6-3.3,0.3-4.4c-0.3-1.1-2.8-0.8-3.3,0
						c-0.1,0.2-1.1-0.9-2.1-0.8c-1.3,0.2-1.9,1.1-1.9,1.1s-1.5-1.1-2.7-0.8c-1.1,0.3-1.5,1.2-1.5,1.2S245.8,53.8,244.4,55.6z"/>
				</g>
				<g>
					<g>
						<path class="st13" d="M257.4,67.3c-2.7,0.5-5.4,0.4-8-0.3c-0.3-0.1-0.5,0.4-0.1,0.5c2.7,0.8,5.5,0.9,8.3,0.3
							C257.9,67.8,257.7,67.2,257.4,67.3L257.4,67.3z"/>
					</g>
				</g>
				<g>
					<g>
						<path class="st13" d="M249.1,66.5c-0.9-2.6-1.7-5.2-1.7-8c0-0.4-0.6-0.4-0.6,0c0,2.8,0.8,5.5,1.7,8.1
							C248.7,67,249.3,66.8,249.1,66.5L249.1,66.5z"/>
					</g>
				</g>
				<g>
					<g>
						<path class="st13" d="M252.7,65.7c-1.2-2.7-1.7-5.9-1.5-8.8c0-0.4-0.5-0.4-0.6,0c-0.2,3,0.4,6.4,1.6,9.1
							C252.4,66.3,252.9,66.1,252.7,65.7L252.7,65.7z"/>
					</g>
				</g>
				<g>
					<g>
						<path class="st13" d="M256.7,64.9c-0.9-2.4-1.3-4.9-1.4-7.5c0-0.4-0.6-0.4-0.6,0c0.1,2.6,0.6,5.2,1.4,7.6
							C256.3,65.4,256.9,65.2,256.7,64.9L256.7,64.9z"/>
					</g>
				</g>
				<g>
					<g>
						<path class="st13" d="M248.7,66.8c1.5,1,3.2,0.8,4.2-0.7c-0.1,0-0.3,0.1-0.4,0.1c1.6,1.2,3.4,0.7,4.3-0.9
							c0.2-0.3-0.3-0.6-0.5-0.3c-0.8,1.4-2.2,1.7-3.5,0.7c-0.1-0.1-0.3,0-0.4,0.1c-0.8,1.3-2.2,1.3-3.4,0.5
							C248.7,66.1,248.4,66.6,248.7,66.8L248.7,66.8z"/>
					</g>
				</g>
			</g>
		</g>
	</g>
	<g>
		<g>
			<g>
				<path class="st7" d="M492.7,77.2c2.1,4.9,1.8,10.3,3.3,15.4c1.1,3.9,3.5,7.6,7.5,8.8c0.5,0.1,0.7-0.6,0.3-0.7
					c-4.6-1.4-6.7-6-7.6-10.4c-0.9-4.5-0.9-9.1-2.8-13.3C493.2,76.4,492.5,76.7,492.7,77.2L492.7,77.2z"/>
			</g>
		</g>
		<g>
			<path class="st7" d="M503.2,100.6c0,0,1.1,4.6,3.3,5.9l3.4-4.5C509.9,102,507.9,100.3,503.2,100.6z"/>
		</g>
		<g>
			<path class="st7" d="M502.4,102.3c0.6,0.5,1.6,0.4,2.1-0.2c0.5-0.6,0.4-1.6-0.2-2.1c-0.6-0.5-1.6-0.4-2.1,0.2
				C501.6,100.8,501.7,101.8,502.4,102.3z"/>
		</g>
		<g>
			<path class="st13" d="M498.3,101.5c-1.2-1-2.7-2-4.3-2.9c-8.2-4.5-6.1-9.2-7.9-15.7c-1.8-6.6-9.9-9.9-9.9-9.9l-9.2,2.9
				c-6.6,2.1-12.2,4.3-10.8,11.1c0,0.2,1.1,3.1,1.8,4.9c0,0,0.5,3-2.9,6.3c-3.4,3.4-2.9,5.9-0.9,10.5c2,4.6,1.6,6.7-2.1,9.3
				c-3.7,2.6-3.4,7.4-2.6,10.4c1.9,7,0.8,3.7-2.9,12.9c-3.7,9.2,1.4,12.8,4.6,13c3.2,0.2,32-21.6,45.2-14.5
				c13.2,7.2,21.4-12.2,17.5-19.5s-12.5-5.5-13.8-9.5C498.8,106.9,502.6,104.4,498.3,101.5"/>
		</g>
		<g>
			<path class="st2" d="M455.7,125.5c0,0-9.4,27.8-21.6,44.6c-8,11.1-2.5,35.5,17.8,32.8c20.3-2.7,19.8-31.3,19.8-31.3L455.7,125.5z
				"/>
		</g>
		<g>
			<path class="st6" d="M546.8,332.1c0,0-6.9,15.2-12.9,11.2c-7.5-5-13.6-14.2-47.9-11.4c-34.3,2.8-42.5,2.1-48.7-2.7
				c-6.2-4.8,64.6-30.8,93.7-19.1C546.4,316.3,546.8,332.1,546.8,332.1z"/>
		</g>
		<g>
			<g>
				<path class="st4" d="M476.7,263.8c-5.2,3.6-13.4,24.3-24.3,54c-2.8,7.7,15.3,112.1,15.3,112.1c3.5,2.8,6.4,3.8,9.8-0.7
					c0,0,2.2-28.1,2.7-54.2c0.5-26.1-1.3-42.1-1.3-42.1l16.7-51.7L476.7,263.8z"/>
			</g>
			<g>
				<g>
					<path class="st5" d="M453.2,332.2c3.2,1.3,6.7,1.6,10,0.7c0.5-0.1,0.3-0.8-0.2-0.7c-3.2,0.9-6.5,0.6-9.6-0.7
						C453,331.3,452.8,332,453.2,332.2L453.2,332.2z"/>
				</g>
			</g>
			<g>
				<g>
					<g>
						<g>
							<g>
								<g>
									<path class="st2" d="M482.4,431.5v13.8c0,0-2.1,0-3.5,0c-1.4,0-1.4-7.1-2.2-7.1c-0.8,0-3.2,7.2-3.2,7.2s-6,0.2-10.8,0.5
										c-4.7,0.2-17,0-12.6-2.4c1.9-1,4.9-2.9,7.7-4.8c0.4-0.2,0.7-0.5,1.1-0.7c3.4-2.4,6.5-4.9,6.8-6.3c0.7-2.7,1.3-5.3,2-5.3
										c0.6,0,2.4,3.9,4,4.9c0,0,0,0,0,0c0.3,0.2,0.6,0.3,0.9,0.1c1.3-0.7,4.3-6.3,5.1-6.7c0.3-0.1,2.3,1.6,2.7,2.1
										C481.7,428,482.4,429.7,482.4,431.5z"/>
								</g>
							</g>
						</g>
					</g>
				</g>
				<g>
					<path class="st4" d="M472.7,431.3c-0.9,1.7-3.3,4-6.2,5.9c-3.4,2.3-6.4,2.3-7.6,0.8c3.4-2.4,6.5-4.9,6.8-6.3
						c0.7-2.7,1.3-5.3,2-5.3C468.3,426.2,471,430.3,472.7,431.3z"/>
				</g>
			</g>
		</g>
		<g>
			<g>
				<path class="st4" d="M495.5,265.8c-3.9,5-5.5,27.2-7,58.8c-0.4,8.2,47.8,97.6,47.8,97.6c6.1,5.8,9.8,4.8,9.4-4.7
					c0,0-6.2-21.6-13.6-46.7c-7.4-25.1-13.9-39.8-13.9-39.8l0.4-54.3L495.5,265.8z"/>
			</g>
			<g>
				<g>
					<path class="st5" d="M489.9,328.5c3.7,1.3,7.6,0.9,11-1.1c0.4-0.2,0-0.9-0.4-0.6c-3.2,1.9-6.9,2.2-10.4,1
						C489.6,327.6,489.4,328.3,489.9,328.5L489.9,328.5z"/>
				</g>
			</g>
			<g>
				<g>
					<g>
						<g>
							<g>
								<g>
									<path class="st2" d="M551.4,422.1l3.2,13.4c0,0-2,0.5-3.4,0.8c-1.4,0.3-3-6.6-3.8-6.4c-0.2,0.1-0.5,1-0.7,2.4
										c-1.1,5.8-5.8,10.4-11.7,11.3c-0.1,0-0.1,0-0.2,0c-4.7,0.8-15.8,0.9-12.1-2.5c1.6-1.4,4.1-3.9,6.4-6.5
										c0.3-0.3,0.6-0.6,0.9-1c2.8-3.2,5.2-6.3,5.2-7.7c0.1-2.8,0-5.4,0.7-5.6c0.6-0.1,3.2,3.3,5,3.8c0,0,0,0,0,0
										c0.4,0.1,0.7,0.1,0.9-0.1c1.1-1,2.8-7.2,3.5-7.7c0.2-0.2,2.6,1.1,3.1,1.4C550,418.8,551,420.4,551.4,422.1z"/>
								</g>
							</g>
						</g>
					</g>
				</g>
				<g>
					<path class="st4" d="M541.9,424.1c-0.4,1.9-2.3,4.6-4.6,7.1c-2.8,3-5.7,3.8-7.2,2.5c2.8-3.2,5.2-6.3,5.2-7.7
						c0.1-2.8,0-5.4,0.7-5.6C536.6,420.2,540.1,423.6,541.9,424.1z"/>
				</g>
			</g>
		</g>
		<g>
			<path class="st2" d="M536.9,342.7c0.9-47.2-53.9-15.3-91.4-11.2c-37.5,4,18.5-124.3,17.5-149.9c-1-25.7-11.8-43-7.4-56.1
				c0.6-1.9,3.9-4.7,7.2-7.3c1.1-0.8,2.2-1.6,3.3-2.4c2.8-1.9,5-3.3,5-3.3l14.4-1.4c0,0,0.9,0.4,2.4,0.9c0.9,0.3,2,0.7,3.2,1.2
				c4.8,1.8,11.8,4.3,17.5,6.1c9.7,3.1,4.1,23.3,1.9,41.7c-2.2,18.4,18.2,67.2,36.4,113C564.4,318.1,536.8,351.1,536.9,342.7z"/>
		</g>
		<g>
			<path class="st3" d="M462.9,186c-0.2,4.6-1.2,9.1-3,13.3c-0.1,0.3,0.4,0.5,0.5,0.1c1.8-4.3,2.8-8.8,3-13.5
				C463.5,185.6,462.9,185.6,462.9,186L462.9,186z"/>
		</g>
		<g>
			<g>
				<path class="st3" d="M457.4,234.5c0.3,8,0.1,19.4-9.3,22.3c-0.3,0.1-0.2,0.7,0.1,0.5c3.8-1.2,6.5-4.3,8.1-7.9
					c2-4.7,1.8-10,1.6-15C458,234.2,457.4,234.2,457.4,234.5L457.4,234.5z"/>
			</g>
		</g>
		<g>
			<g>
				<path class="st3" d="M514.7,231.5c-0.8,5.1,0.1,10.5,3.2,14.7c2.9,3.9,7.4,6.1,12.3,6.4c0.4,0,0.4-0.5,0-0.6
					c-4.8-0.3-9.2-2.5-12-6.4c-2.9-4-3.7-9.2-3-14.1C515.3,231.3,514.7,231.2,514.7,231.5L514.7,231.5z"/>
			</g>
		</g>
		<g>
			<g>
				<path class="st3" d="M480,144.3c4.1,23.4,4.4,47.3,1,70.8c-3.3,22.7-9.3,45.1-9.2,68.1c0.1,12.2,1.9,24.4,6.6,35.7
					c0.1,0.3,0.7,0.2,0.5-0.1c-8.7-20.9-7.3-44.2-3.8-66.1c1.9-11.7,4.3-23.3,6.1-35c1.7-11.4,2.7-22.9,2.7-34.4
					c0-13.1-1.1-26.2-3.3-39.2C480.4,143.8,479.9,144,480,144.3L480,144.3z"/>
			</g>
		</g>
		<g>
			<g>
				<path class="st3" d="M455.2,141c1,4.5,2,9,2.9,13.5c0.1,0.4,0.6,0.2,0.5-0.1c-1-4.5-2-9-2.9-13.5
					C455.6,140.5,455.1,140.7,455.2,141L455.2,141z"/>
			</g>
		</g>
		<g>
			<path class="st7" d="M479.6,143.2c-9.3-11.8-14.6-21.4-16.7-25c1.1-0.8,2.2-1.6,3.3-2.4c2.8-1.9,5-3.3,5-3.3l14.4-1.4
				c0,0,0.9,0.4,2.4,0.9c0.9,0.3,2,0.7,3.2,1.2C490.1,126.1,479.6,143.2,479.6,143.2z"/>
		</g>
		<g>
			<path class="st8" d="M487.9,112.1c-0.1,1.3-0.4,3-0.8,4.8c-2.3,8.8-8.3,21.3-8.3,21.3c-3-4.3-6.8-11.3-9.7-16.8
				c-1.2-2.2-2.2-4.2-2.9-5.6c2.8-1.9,5-3.3,5-3.3l14.4-1.4C485.5,111.2,486.4,111.5,487.9,112.1z"/>
		</g>
		<g>
			<path class="st4" d="M487.9,112.1c-0.1,1.3-0.4,3-0.8,4.8c-2.1,3.2-5.2,6.9-9.1,7.3c-3.1,0.3-6.3-1.1-8.9-2.7
				c-1.2-2.2-2.2-4.2-2.9-5.6c2.8-1.9,5-3.3,5-3.3l14.4-1.4C485.5,111.2,486.4,111.5,487.9,112.1z"/>
		</g>
		<g>
			<path class="st2" d="M511.5,121.3c0,0,26.7,30.7,38.8,47.5c8,11.1,2.5,35.5-17.8,32.8c-20.3-2.7-24.9-28.1-24.9-28.1L511.5,121.3
				z"/>
		</g>
		<g>
			<g>
				<path class="st3" d="M513,137.2c-2.4,8.9-3.8,18.1-4.2,27.3c0,0.4,0.5,0.4,0.6,0c0.4-9.2,1.9-18.3,4.2-27.1
					C513.6,137,513.1,136.9,513,137.2L513,137.2z"/>
			</g>
		</g>
		<g>
			<path class="st4" d="M536.1,174.4c4.7,0,4.6,15.1-0.1,15.1c-11.6,1.1-22.8-1.5-22.8-1.5c-2.3,0-2.3-7-0.1-7L536.1,174.4z"/>
		</g>
		<g>
			<polygon class="st2" points="444.1,80.4 465.7,61 498.6,77.5 468.4,86.3 			"/>
		</g>
		<g>
			<g>
				<g>
					<g>
						<path class="st4" d="M470.6,114.8c2.9,6.8,8.3,5,14.9-3.6c-4.7-8.7-4.8-10.6-6.9-18l-10.5,8l0.2,1.2l1.6,8.4L470.6,114.8z"/>
					</g>
				</g>
				<g>
					<g>
						<path class="st2" d="M470,110.8c7.1-2.7,8.2-12.6,8.2-12.6l-9.9,4.2L470,110.8z"/>
					</g>
				</g>
			</g>
			<g>
				<g>
					<g>
						<path class="st5" d="M464.4,93.5c0-0.2-3.9-3.8-5.9-0.8c-2,3,1.1,8.3,6.5,5.9L464.4,93.5z"/>
					</g>
				</g>
			</g>
			<g>
				<g>
					<path class="st4" d="M481.5,83.5l0.2,1.6c0,0,0.5,7.7-1,12.8c-1.7,5.6-14,12.6-18.5,5.1c-1.9-3-4.3-14.5-4.3-14.5l-1.3-2.2
						c-0.7-5.6,3.4-9.4,8.7-11.5c0.1,0,0,0,0.1,0C472.7,73.5,480.6,75.4,481.5,83.5z"/>
				</g>
			</g>
			<g>
				<path class="st13" d="M457.3,78.5c0,0,6,7.3,16.9,7.1l3.1,3.7l4.9,0.1c8.4,0,2.7-20-13.6-17.3L457.3,78.5z"/>
			</g>
			<g>
				<g>
					<g>
						<path class="st5" d="M468.6,101.4c-0.7,0.8-2,1.2-2.9,0.6c-0.2-0.1,0-0.5,0.2-0.3c0.8,0.5,1.8,0.1,2.4-0.5
							C468.5,101,468.8,101.3,468.6,101.4L468.6,101.4z"/>
					</g>
				</g>
			</g>
			<g>
				<g>
					<path class="st8" d="M469.2,96.7c-2.1,0.9-3.2,1.2-6,2c0,0,1.3,3,3.9,2.2C469.9,100,469.2,96.7,469.2,96.7z"/>
				</g>
			</g>
			<g>
				<g>
					<g>
						<path class="st2" d="M478.4,96.3c0.8,0.3,1.6,0.3,2.4,0.2c0.3,0,0.3,0.4,0,0.4c-0.9,0.1-1.8,0.1-2.6-0.2
							C478,96.5,478.2,96.1,478.4,96.3L478.4,96.3z"/>
					</g>
				</g>
			</g>
			<g>
				<g>
					<path class="st13" d="M473.8,85.7c0,0,1,5.6,5,4.6C482.7,89.3,477.6,82.4,473.8,85.7z"/>
				</g>
			</g>
			<g>
				<g>
					<path class="st2" d="M462.2,89.4c-1,0.2-2.9,0.8-2.8,3.1c0,0,1.5-1.7,2.7-1.6c0.4,0,0.6-0.1,0.8-0.3
						C463.4,90,462.9,89.3,462.2,89.4z"/>
				</g>
			</g>
			<g>
				<g>
					<path class="st2" d="M468.3,88.3c1-0.3,2.9-0.4,3.8,1.7c0,0-2.1-1-3.1-0.4c-0.3,0.2-0.6,0.2-0.8,0.1
						C467.5,89.3,467.6,88.4,468.3,88.3z"/>
				</g>
			</g>
			<g>
				<g>
					<g>
						<path class="st2" d="M465.6,96.7c-0.6-0.4-1.1-0.9-1.7-1.3c-0.1-0.1-0.1-0.3,0-0.4c0.4-0.3,1.1-0.8,1.2-1.3
							c0.1-0.4,0-0.9,0-1.3c0-0.9,0-1.8-0.1-2.7c0-0.3,0.4-0.3,0.4,0c0,1.1,0.1,2.2,0.1,3.3c0,0.3,0.1,0.7,0,1
							c-0.2,0.6-1,1.1-1.4,1.5c0-0.1,0-0.2,0-0.4c0.6,0.4,1.1,0.9,1.7,1.3C466.2,96.5,465.9,96.8,465.6,96.7L465.6,96.7z"/>
					</g>
				</g>
			</g>
			<g>
				<g>
					<g>
						<path class="st2" d="M468.9,92.6c0,0.4,0.4,0.7,0.8,0.6c0.4,0,0.7-0.4,0.6-0.8c0-0.4-0.4-0.7-0.8-0.6
							C469.1,91.8,468.8,92.2,468.9,92.6z"/>
					</g>
				</g>
				<g>
					<g>
						<path class="st2" d="M462.2,93.8c0,0.4,0.4,0.7,0.8,0.6c0.4,0,0.7-0.4,0.6-0.8c0-0.4-0.4-0.7-0.8-0.6
							C462.5,93.1,462.2,93.5,462.2,93.8z"/>
					</g>
				</g>
			</g>
			<g>
				<g>
					<g>
						<path class="st4" d="M477.2,91c0-0.2,2.8-4.2,5.5-1.7c2.7,2.5,1.2,8.2-4.6,7L477.2,91z"/>
					</g>
				</g>
				<g>
					<g>
						<g>
							<path class="st2" d="M482.7,91c-1.3,0.9-2.2,2.1-2.7,3.5c-0.1,0.3-0.5,0.1-0.4-0.2c0.5-1.5,1.5-2.8,2.8-3.7
								C482.7,90.5,482.9,90.8,482.7,91L482.7,91z"/>
						</g>
					</g>
				</g>
			</g>
			<g>
				<g>
					<path class="st13" d="M468.5,76.4c0,0-5.5,10.1-9.8,14.6c0,0-4.5-4.3-2.6-10.4c3-9.5,13.1-8.6,15.9-8.1L468.5,76.4z"/>
				</g>
			</g>
		</g>
		<g>
			<g>
				<path class="st9" d="M455.8,82.6c0,0,0.4-4.6,2.3-7.8c0,0,13.7-7.6,25.6,1.6c1.5,1.4,3.6,4.9,2.8,7.4
					C486.4,83.8,467.5,73.1,455.8,82.6z"/>
			</g>
		</g>
		<g>
			<g>
				<rect x="462.7" y="148.7" class="st14" width="46.9" height="36.2"/>
			</g>
			<g>
				<path class="st1" d="M503.2,154.2h-33.6c-0.4,0-0.7-0.3-0.7-0.7v-0.1c0-0.4,0.3-0.7,0.7-0.7h33.6c0.4,0,0.7,0.3,0.7,0.7v0.1
					C504,153.9,503.7,154.2,503.2,154.2z"/>
			</g>
			<g>
				<path class="st1" d="M503.2,158.2h-33.6c-0.4,0-0.7-0.3-0.7-0.7v-0.1c0-0.4,0.3-0.7,0.7-0.7h33.6c0.4,0,0.7,0.3,0.7,0.7v0.1
					C504,157.9,503.7,158.2,503.2,158.2z"/>
			</g>
			<g>
				<path class="st1" d="M475.9,178.2h-8.2c-0.4,0-0.7-0.3-0.7-0.7v-0.1c0-0.4,0.3-0.7,0.7-0.7h8.2c0.4,0,0.7,0.3,0.7,0.7v0.1
					C476.7,177.8,476.3,178.2,475.9,178.2z"/>
			</g>
			<g>
				<path class="st1" d="M475.9,182.2h-8.2c-0.4,0-0.7-0.3-0.7-0.7v-0.1c0-0.4,0.3-0.7,0.7-0.7h8.2c0.4,0,0.7,0.3,0.7,0.7v0.1
					C476.7,181.8,476.3,182.2,475.9,182.2z"/>
			</g>
			<g>
				<polygon class="st7" points="491.1,188.4 487.9,186.8 486.1,185.9 484.3,186.8 481,188.3 482,179.4 482.5,174.4 486.1,174.9 
					489.8,174.5 490.2,179.4 				"/>
			</g>
			<g>
				<path class="st7" d="M495,171.9L495,171.9c-0.6,0.5-0.8,1.3-0.7,2.1l0,0c0.2,1.3-0.7,2.6-2,2.7l0,0c-0.8,0.1-1.5,0.6-1.8,1.3v0
					c-0.6,1.2-2.1,1.7-3.2,1l0,0c-0.7-0.4-1.5-0.4-2.2,0l0,0c-1.2,0.6-2.6,0.1-3.2-1.1l0,0c-0.3-0.7-1-1.2-1.8-1.3l0,0
					c-1.3-0.2-2.2-1.4-2-2.8l0,0c0.1-0.8-0.1-1.6-0.7-2.1l0,0c-1-0.9-0.9-2.5,0-3.4l0,0c0.6-0.5,0.8-1.3,0.7-2.1l0,0
					c-0.2-1.3,0.7-2.6,2-2.7l0,0c0.8-0.1,1.5-0.6,1.8-1.3l0,0c0.6-1.2,2.1-1.7,3.2-1h0c0.7,0.4,1.5,0.4,2.2,0l0,0
					c1.2-0.6,2.6-0.1,3.2,1.1v0c0.3,0.7,1,1.2,1.8,1.3l0,0c1.3,0.2,2.2,1.4,2,2.8l0,0c-0.1,0.8,0.1,1.6,0.7,2.1l0,0
					C495.9,169.4,495.9,171,495,171.9z"/>
			</g>
			<g>
				<path class="st10" d="M483.9,178c-0.4,0-0.7-0.2-0.9-0.6l0,0c-0.5-1.1-1.6-1.9-2.8-2.1l0,0c-0.3,0-0.5-0.2-0.7-0.4
					c-0.2-0.2-0.2-0.5-0.2-0.8l0,0c0.2-1.2-0.2-2.4-1.1-3.3l0,0c-0.2-0.2-0.3-0.5-0.3-0.7c0-0.3,0.1-0.5,0.3-0.7l0,0
					c0.9-0.9,1.3-2.1,1.1-3.3l0,0c0-0.3,0-0.5,0.2-0.8c0.2-0.2,0.4-0.4,0.7-0.4l0,0c1.2-0.2,2.3-0.9,2.8-2c0.2-0.4,0.5-0.6,0.9-0.6
					c0.2,0,0.3,0,0.5,0.1c0.5,0.3,1.1,0.4,1.7,0.4c0.6,0,1.2-0.1,1.7-0.4c0.2-0.1,0.3-0.1,0.5-0.1c0.4,0,0.7,0.2,0.9,0.6
					c0.5,1.1,1.6,1.9,2.8,2.1l0,0c0.3,0,0.5,0.2,0.7,0.4c0.2,0.2,0.2,0.5,0.2,0.8l0,0c-0.2,1.2,0.2,2.4,1.1,3.3l0,0
					c0.2,0.2,0.3,0.5,0.3,0.7c0,0.3-0.1,0.5-0.3,0.7l0,0c-0.9,0.9-1.3,2.1-1.1,3.3l0,0c0,0.3,0,0.5-0.2,0.8
					c-0.2,0.2-0.4,0.4-0.7,0.4l0,0c-1.2,0.2-2.3,0.9-2.8,2c-0.2,0.4-0.5,0.6-0.9,0.6c-0.2,0-0.3,0-0.5-0.1c-0.5-0.3-1.1-0.4-1.7-0.4
					c-0.6,0-1.2,0.1-1.7,0.4C484.2,177.9,484.1,178,483.9,178z"/>
			</g>
		</g>
		<g>
			<path class="st4" d="M442.7,173.3c-1.6,4.4,12.7,9.3,14.3,4.9c4.9-10.6,7.8-21.4,7.8-21.4c0.8-2.1-7.4-5.1-8.2-3L442.7,173.3z"/>
		</g>
		<g>
			<path class="st4" d="M456.6,153.8c0,0,6.7-10.4,12.6-9.8c2.3,0.2,4,2.3,8.2,3.1c3.6,0.6,3.8,1.7,3.8,1.7h-9.4
				c0.8,0.6-3.6,4.4-7,8C461.4,160.4,456.6,153.8,456.6,153.8z"/>
		</g>
		<g>
			<path class="st4" d="M514.5,187.3c0,0-9.3,4.8-15,2.9c-5.6-2-7.5-5.4-7.5-5.4l7.5,0.1c0,0,7.2-1,11.6-3.4
				C515.6,178.9,514.5,187.3,514.5,187.3z"/>
		</g>
		<g>
			<path class="st4" d="M467.2,150.9c0,0,4.7,3,6,3.3c1.4,0.3-1.2-2.6-1.2-2.6s3.8,3.3,4.9,3.1c1.1-0.2-1.5-3.8-1.5-3.8
				s4.3,4.4,5,3.8c0.8-0.7-2.5-5.2-2.5-5.2s2.1,0.4,4.2,0c2.1-0.4-4.2-2.3-4.2-2.3S467,145.4,467.2,150.9z"/>
		</g>
		<g>
			<path class="st4" d="M512.6,180.9c0,0-1.7-2-4.5-2.5c-2.7-0.5-5.9-1.3-7,0c-1.1,1.3,3.7,1.9,4.2,3c0.4,1.1-2.2,2.7-2.2,2.7
				S510.7,183.8,512.6,180.9z"/>
		</g>
	</g>
	<g>
		<path class="st10" d="M175.2,69.8c0,1.7-1.4,3.1-3.1,3.1c-1.7,0-3.1-1.4-3.1-3.1s1.4-3.1,3.1-3.1
			C173.8,66.7,175.2,68.1,175.2,69.8z"/>
		<path class="st6" d="M559,213.8c0,1.2-1,2.2-2.2,2.2c-1.2,0-2.2-1-2.2-2.2c0-1.2,1-2.2,2.2-2.2C558.1,211.6,559,212.6,559,213.8z"
			/>
		<circle class="st6" cx="418.3" cy="281.9" r="2.2"/>
		<path class="st6" d="M307.1,61.2c0,1.2-1,2.2-2.2,2.2c-1.2,0-2.2-1-2.2-2.2c0-1.2,1-2.2,2.2-2.2C306.1,59,307.1,60,307.1,61.2z"/>
		<path class="st6" d="M198.4,80.1c0,1.2-1,2.2-2.2,2.2c-1.2,0-2.2-1-2.2-2.2s1-2.2,2.2-2.2C197.4,77.9,198.4,78.9,198.4,80.1z"/>
		<path class="st10" d="M545.1,225.9c0,1.7-1.4,3.1-3.1,3.1c-1.7,0-3.1-1.4-3.1-3.1s1.4-3.1,3.1-3.1
			C543.7,222.7,545.1,224.2,545.1,225.9z"/>
		<path class="st10" d="M39.6,222.7c0,1.7-1.4,3.1-3.1,3.1c-1.7,0-3.1-1.4-3.1-3.1c0-1.7,1.4-3.1,3.1-3.1
			C38.2,219.6,39.6,221,39.6,222.7z"/>
		<circle class="st7" cx="49.5" cy="105.2" r="2.7"/>
		<path class="st7" d="M375.3,43.4c0,1.5-1.2,2.7-2.7,2.7s-2.7-1.2-2.7-2.7c0-1.5,1.2-2.7,2.7-2.7S375.3,41.9,375.3,43.4z"/>
		<path class="st7" d="M408.7,169.3c0,1.5-1.2,2.7-2.7,2.7c-1.5,0-2.7-1.2-2.7-2.7c0-1.5,1.2-2.7,2.7-2.7
			C407.5,166.6,408.7,167.8,408.7,169.3z"/>
		<path class="st7" d="M536.1,104.5c0,1.5-1.2,2.7-2.7,2.7c-1.5,0-2.7-1.2-2.7-2.7c0-1.5,1.2-2.7,2.7-2.7
			C534.9,101.8,536.1,103,536.1,104.5z"/>
		<path class="st7" d="M253.2,201.9c0,1.5-1.2,2.7-2.7,2.7c-1.5,0-2.7-1.2-2.7-2.7c0-1.5,1.2-2.7,2.7-2.7
			C252,199.2,253.2,200.4,253.2,201.9z"/>
		<path class="st7" d="M27.9,201.9c0,1-0.8,1.9-1.9,1.9c-1,0-1.9-0.8-1.9-1.9c0-1,0.8-1.9,1.9-1.9C27,200,27.9,200.8,27.9,201.9z"/>
	</g>
</g>
</svg>
