<?xml version="1.0" encoding="utf-8"?>
<!-- Generator: Adobe Illustrator 25.4.1, SVG Export Plug-In . SVG Version: 6.00 Build 0)  -->
<svg version="1.1" id="Layer_1" xmlns="http://www.w3.org/2000/svg" xmlns:xlink="http://www.w3.org/1999/xlink" x="0px" y="0px"
	 viewBox="0 0 2895.8 2418.1" style="enable-background:new 0 0 2895.8 2418.1;" xml:space="preserve">
<style type="text/css">
	.st0{fill:#E0E0E0;}
	.st1{fill:#D9D9D9;}
	.st2{fill:#B8B8B8;}
	.st3{opacity:0.43;}
	.st4{fill:url(#SVGID_1_);}
	.st5{opacity:0.22;}
	.st6{fill:url(#SVGID_00000143619721277312345720000012444083771360953481_);}
	.st7{fill:url(#SVGID_00000028296770217271371170000005554662404143610554_);}
	.st8{fill:url(#SVGID_00000051368421593991793570000006512842109361497225_);}
	.st9{fill:url(#SVGID_00000131364101505107993220000010158680423766058129_);}
	.st10{fill:#007FE6;}
	.st11{fill:#0064B5;}
	.st12{fill:#004E8C;}
	.st13{fill:url(#SVGID_00000113332932423217656600000012336116608485447101_);}
	.st14{fill:#6A75BA;}
	.st15{fill:#545D94;}
	.st16{fill:#EEA886;}
	.st17{fill:#D9D3C8;}
	.st18{fill:#222538;}
	.st19{fill:#FFC955;}
	.st20{fill:#A77860;}
	.st21{fill:#C29941;}
	.st22{fill:#FFFFFF;}
	.st23{filter:url(#Adobe_OpacityMaskFilter);}
	.st24{filter:url(#Adobe_OpacityMaskFilter_00000171708455289350445360000011412088561071884944_);}
	
		.st25{mask:url(#SVGID_00000106836262690183111630000016347183426244436096_);fill:url(#SVGID_00000041278078286383254010000003568582824294384063_);}
	.st26{fill:url(#SVGID_00000072964383598181703260000017514808011688777402_);}
	.st27{filter:url(#Adobe_OpacityMaskFilter_00000142163367763428315910000000565170853541595832_);}
	.st28{filter:url(#Adobe_OpacityMaskFilter_00000122717804493890483420000010891258700491102617_);}
	
		.st29{mask:url(#SVGID_00000166657909434589426830000000477710025527650458_);fill:url(#SVGID_00000137100121769531693590000012721736369242929585_);}
	.st30{fill:url(#SVGID_00000129170051222236427910000006444309264334145723_);}
	.st31{filter:url(#Adobe_OpacityMaskFilter_00000173158520699468581560000013931419619093933999_);}
	.st32{filter:url(#Adobe_OpacityMaskFilter_00000141448876059686800780000003374721801511840644_);}
	
		.st33{mask:url(#SVGID_00000107567412081579070230000004729881174283184050_);fill:url(#SVGID_00000105412912014290691400000006384447836321715356_);}
	.st34{fill:url(#SVGID_00000008111976487412181070000013278063305515122570_);}
	.st35{filter:url(#Adobe_OpacityMaskFilter_00000063622971160602791070000005565144128387128743_);}
	.st36{filter:url(#Adobe_OpacityMaskFilter_00000016797728779532981620000015661399062994216089_);}
	
		.st37{mask:url(#SVGID_00000111162656134497746560000008994328242210952373_);fill:url(#SVGID_00000151522574910477599560000003437609135646742663_);}
	.st38{fill:url(#SVGID_00000078747731999725169950000013800569227638590141_);}
	.st39{fill:url(#SVGID_00000089545602041256375250000016242407093992213153_);}
	.st40{fill:#616587;}
	.st41{fill:#152B3D;}
	.st42{fill:#FFC05C;}
	.st43{fill:#254380;}
	.st44{fill:#353A3D;}
	.st45{fill:#E55353;}
	.st46{fill:#EEA987;}
	.st47{fill:#2F4563;}
	.st48{fill:#202338;}
	.st49{fill:#2F6B8C;}
	.st50{fill:#877D78;}
	.st51{fill:#F5E1D9;}
	.st52{fill:#4B6F9E;}
	.st53{fill:#EDDAD3;}
	.st54{fill:#C9BAB3;}
	.st55{fill:#1E2C40;}
	.st56{fill:url(#SVGID_00000005236702805087968880000015022359149070433449_);}
	.st57{fill:url(#SVGID_00000002386096477350961970000005053161852158225314_);}
	.st58{fill:url(#SVGID_00000176044645265341898370000010767469620922845577_);}
	.st59{fill:url(#SVGID_00000142898231263316719190000001034672761382867126_);}
	.st60{fill:url(#SVGID_00000012469162610849668880000004069961686509157810_);}
	.st61{fill:#007BDE;}
	.st62{fill:#1A598C;}
	.st63{fill:#2273B5;}
	.st64{fill:#3788CC;}
	.st65{fill:#81807E;}
	.st66{fill:#292C47;}
	.st67{fill:#CAC7D1;}
	.st68{fill:#1D2033;}
	.st69{fill:#323657;}
	.st70{fill:#C78D71;}
	.st71{fill:#A09EA6;}
	.st72{fill:#EAE6F2;}
	.st73{fill:#3A4066;}
	.st74{fill:#F2DFD8;}
	.st75{fill:#D6C5BE;}
	.st76{fill:url(#SVGID_00000042014526285814774760000000274590794977765304_);}
	.st77{fill:url(#SVGID_00000058560604252887935610000007810056006592563375_);}
	.st78{fill:url(#SVGID_00000147221521803944175290000008890897966365886133_);}
	.st79{fill:#FFA855;}
	.st80{fill:#FFA555;}
	.st81{fill:#858585;}
	.st82{fill:#E2D2CA;}
	.st83{fill:#1C1E30;}
	.st84{fill:#24263D;}
	.st85{fill:#282B45;}
	.st86{fill:#1F2136;}
	.st87{fill:#4F558A;}
	.st88{fill:#D6C5BF;}
	.st89{fill:#16202E;}
	.st90{fill:#6E6760;}
	.st91{fill:#918880;}
	.st92{fill:#706865;}
	.st93{fill:#EB4747;}
	.st94{fill:#D69779;}
	.st95{fill:#12131F;}
	.st96{fill:#9E633A;}
	.st97{fill:#97A43C;}
	.st98{fill:#82522F;}
	.st99{fill:#C67B47;}
</style>
<g id="Background">
</g>
<g>
	<g>
		<rect x="1338" y="1263.6" class="st0" width="6.6" height="691.3"/>
	</g>
	<g>
		<rect x="1806.5" y="1263.6" class="st0" width="6.6" height="691.3"/>
	</g>
	<g>
		<rect x="2275" y="1263.6" class="st0" width="6.6" height="691.3"/>
	</g>
	<rect x="872.8" y="1178.4" class="st1" width="112.2" height="18"/>
	<rect x="872.8" y="1211.7" class="st1" width="159.2" height="18"/>
	<rect x="1336.3" y="1178.4" class="st1" width="131.7" height="18"/>
	<rect x="1336.3" y="1211.7" class="st1" width="84.2" height="18"/>
	<rect x="1813.1" y="1178.4" class="st1" width="81.6" height="18"/>
	<rect x="1813.1" y="1211.7" class="st1" width="95.2" height="18"/>
	<rect x="2281.6" y="1178.4" class="st1" width="118.9" height="18"/>
	<rect x="2281.6" y="1211.7" class="st1" width="95.2" height="18"/>
	<rect x="1341.3" y="1995.8" class="st2" width="74.5" height="24"/>
	<rect x="1813.1" y="1995.8" class="st2" width="74.5" height="24"/>
	<rect x="2281.6" y="1995.8" class="st2" width="74.5" height="24"/>
	<g class="st3">
		<linearGradient id="SVGID_1_" gradientUnits="userSpaceOnUse" x1="872.8491" y1="1596.1372" x2="2746.7942" y2="1596.1372">
			<stop  offset="0" style="stop-color:#FFC05C"/>
			<stop  offset="1" style="stop-color:#FF3857"/>
		</linearGradient>
		<path class="st4" d="M2584.4,1749.5c-146.1,0-273.1-63.2-405.6-129c-163.5-81.3-332.5-165.4-557.8-142.3
			c-143.8,14.7-234.1,73.3-313.7,124.9c-72.1,46.8-140.3,87.9-232.6,91.5c-149.2,5.7-201-58-201.9-61.9v-40.8l0,0l0,0
			c0.2,0.7,32.8,72.1,201.7,71.3c83.2-0.4,144.6-40.3,215.7-86.4c82.6-53.6,176.3-114.4,327.6-129.8
			c234.3-23.9,407.5,62.2,574.9,145.5c175.3,87.1,342.5,168.9,553.9,98v33.6C2686.5,1744.1,2638.3,1749.5,2584.4,1749.5z"/>
	</g>
	<g class="st5">
		
			<linearGradient id="SVGID_00000062886010763704615840000016372819680752993409_" gradientUnits="userSpaceOnUse" x1="872.8491" y1="1545.4288" x2="2747.7834" y2="1545.4288">
			<stop  offset="0" style="stop-color:#40D5E6"/>
			<stop  offset="1" style="stop-color:#5577FF"/>
		</linearGradient>
		<path style="fill:url(#SVGID_00000062886010763704615840000016372819680752993409_);" d="M1707.3,1741.6
			c-107.9,0-193.4-72.5-277.2-143.5c-63.5-53.8-129.4-108.9-205.4-136c-232.1-82.9-350.8,68.4-351.9,69.8v-46
			c1.3-1.6,22.4-29.1,83.7-55.3c55.8-23.9,149.4-43,278.5,1.9c81.8,28.5,149.7,86,215.4,141.7c133.3,113,248.4,210.6,448.2,57.7
			c151.4-115.8,294.1-226.1,434.5-266.4c137.3-39.4,280.5-10.6,414.5,123.5l-1,41.8c-284.7-285.9-527.1-104.8-829,126.1
			C1837.8,1718,1768.9,1741.6,1707.3,1741.6z"/>
	</g>
</g>
<g>
	
		<linearGradient id="SVGID_00000096021533340886239360000017555370225302859943_" gradientUnits="userSpaceOnUse" x1="1781.8595" y1="951.3358" x2="2450.2075" y2="951.3358">
		<stop  offset="0" style="stop-color:#8FD6FF"/>
		<stop  offset="1" style="stop-color:#BFEBFE"/>
	</linearGradient>
	<polygon style="fill:url(#SVGID_00000096021533340886239360000017555370225302859943_);" points="1786.6,1098.4 1781.9,1092.9 
		1860.8,1025.6 1908.7,1025.6 2017.5,933 2085.5,990.9 2135.6,990.9 2161,1012.5 2239.7,945.4 2279.7,945.4 2445.5,804.2 
		2450.2,809.8 2282.4,952.8 2242.4,952.8 2161,1022.2 2132.9,998.3 2082.8,998.3 2017.5,942.6 1911.4,1033 1863.5,1033 	"/>
</g>
<g>
	
		<linearGradient id="SVGID_00000078024300800315494930000002125647355848792510_" gradientUnits="userSpaceOnUse" x1="1770.7429" y1="865.5222" x2="2436.9272" y2="865.5222">
		<stop  offset="0" style="stop-color:#8FD6FF"/>
		<stop  offset="1" style="stop-color:#BFEBFE"/>
	</linearGradient>
	<polygon style="fill:url(#SVGID_00000078024300800315494930000002125647355848792510_);" points="1798,1005.6 1770.7,1005.6 
		1770.7,998.2 1795,998.2 1835.9,957.3 1865.7,987.1 1936.8,915.9 1958.7,937.8 2030.9,865.7 2074.1,908.9 2123.3,908.9 
		2199.4,832.9 2265,832.9 2313.5,784.4 2372.8,784.4 2431.7,725.5 2436.9,730.7 2375.9,791.7 2316.5,791.7 2268,840.2 2202.4,840.2 
		2126.4,916.2 2071,916.2 2030.9,876.1 1958.7,948.2 1936.8,926.3 1865.7,997.4 1835.9,967.7 	"/>
</g>
<linearGradient id="SVGID_00000049923765760505750670000009457169105339798682_" gradientUnits="userSpaceOnUse" x1="1894.6086" y1="653.9677" x2="1517.9182" y2="1727.1823">
	<stop  offset="0" style="stop-color:#C6CBCF"/>
	<stop  offset="1" style="stop-color:#F8F1FE"/>
</linearGradient>
<path style="fill:url(#SVGID_00000049923765760505750670000009457169105339798682_);" d="M2526.4,1022.2c0-0.2-0.1-0.3-0.1-0.5
	c-70.1-244.6-245.2-453.7-487.1-561.3h0c-41.4-18.6-84.9-34-130-46.2c-112.9-30.4-226.7-37.3-336.1-23.7c-0.1,0-0.2,0-0.3,0l-0.2,0
	c-73.6,9.2-145.2,27.6-213.3,54.5c-0.1,0-0.3,0.1-0.4,0.2c-250.1,98.4-451.9,310.1-527.1,589.6c-126.2,469,151.6,951.4,620.4,1077.6
	c240.8,64.8,485,23.1,682.9-96.3l36.9,51.3l174-125.3l-42-58.3c104.8-105.1,184.4-238.3,225.8-391.9
	C2572.8,1331.9,2568.9,1170.5,2526.4,1022.2z M1882.6,1825.5c-310.9,111.4-653.2-50.3-764.6-361.1
	c-109.3-305.1,44.4-640.5,343.9-758.1c5.7-2.2,11.4-4.4,17.2-6.5c42.4-15.2,85.4-25.3,128.3-30.7c110-13.7,219.5,3.9,317.2,47.6
	c143.6,64.1,261.8,184.5,319,344.2c4.5,12.6,8.6,25.2,12.2,37.9C2341.8,1399.1,2180.9,1718.6,1882.6,1825.5z"/>
<g>
	<path class="st10" d="M2699.6,972.4l-173.3,49.4l-270.3,77c-3.6-12.7-7.7-25.3-12.2-37.9c-57.2-159.7-175.5-280.1-319-344.2
		l114.4-256.3h0l12-27l61.5-137.7C2404.2,425.4,2615.2,677.5,2699.6,972.4z"/>
</g>
<g>
	<path class="st11" d="M2051.2,433.5l-12,27l-114.5,256.3c-97.7-43.7-207.2-61.3-317.2-47.6L1573,390.5l-3.6-29.2
		c113.1-14,230.7-6.9,347.5,24.5C1963.5,398.4,2008.4,414.3,2051.2,433.5z"/>
</g>
<g>
	<path class="st12" d="M1607.5,669.2c-42.9,5.3-85.9,15.5-128.3,30.7c-5.8,2.1-11.5,4.2-17.2,6.5l-102.8-261.2l-31.1-79.1
		c74.8-29.6,153.5-49.8,234.3-59.9l0.2,0l6.8,55.2l3.6,29.2L1607.5,669.2z"/>
</g>
<linearGradient id="SVGID_00000053503038204467724280000003092386920845339266_" gradientUnits="userSpaceOnUse" x1="2188.4961" y1="1892.6182" x2="2756.5498" y2="2713.9932">
	<stop  offset="0" style="stop-color:#57C1FF"/>
	<stop  offset="1" style="stop-color:#BFEBFE"/>
</linearGradient>
<polygon style="fill:url(#SVGID_00000053503038204467724280000003092386920845339266_);" points="2729.9,2418.1 2383.4,2418.1 
	2142.5,2083.6 2370.7,1919.3 "/>
<g>
	<g>
		<g>
			<path class="st14" d="M1493.3,245.5c0,0-12.5-22.9-19.6-31.2c-7.1-8.2-30.7-14.4-27.5-25c3.2-10.5,34.8-6,43.5,4.4
				c8.7,10.3,35.3,14,36.2,18.3c0.9,4.4-9.2,28.2-14.9,32.1C1505.4,248,1493.3,245.5,1493.3,245.5z"/>
			<path class="st15" d="M1440.3,264.9c0,0-20.3-16.1-30.1-20.9c-9.8-4.7-33.9-1.1-35.2-12c-1.2-10.9,29.6-19.3,41.7-13.3
				c12.1,6,37.9-1.2,40.5,2.4c2.6,3.6,2.7,29.5-1,35.4C1452.5,262.4,1440.3,264.9,1440.3,264.9z"/>
			<path class="st16" d="M1485.4,306.9c0,0,8.9-60.7,8.5-71.3c-0.1-3,18.3-1.9,17.4,3.9c-1.9,12.6,6.6,61.4,5.1,70.3
				C1515,318.8,1484.7,312.5,1485.4,306.9z"/>
			<path class="st16" d="M1457.6,324.4c0,0-16.6-59-20.5-68.8c-1.7-4.4,15.2-11.1,17.5-3.3c3.6,12.2,30.5,53.7,32.7,62.5
				C1489.5,323.5,1459.2,329.8,1457.6,324.4z"/>
			<path class="st17" d="M1469.2,365.3c0,0-17.9-60.3-20.6-66.7l28.2-17.4c0,0,13.1,38.5,14.9,48.1
				C1493.5,339,1469.2,365.3,1469.2,365.3z"/>
			<path class="st18" d="M1968.1,206.1c0,0-27.2,6.9-40.2,27.5c-13,20.6-24.1,44.3-48.5,55c-24.3,10.8-24.5,38.5-22.6,42.7
				c1.9,4.3,76.6,88.3,93,91.5c16.3,3.2,46.8,1,43.6-20.6c-3.3-21.6-35.3-68-17.3-91.5c18-23.4,22.5-45,22.5-45L1968.1,206.1z"/>
			<path class="st16" d="M1963.3,306.6c0,0-0.8-0.3-2.1-0.4c-1.5-0.1-3.8-0.1-6.4,0.8c-0.6,0.2-1.5,0.6-2.5,1.2
				c-6.5,3.8-21.8,14.2-23.8,14.4c-2.4,0.3-0.4-35.4-0.4-35.4s8.1-14.4,9.2-23.9C1938.3,253.8,1963.3,306.6,1963.3,306.6z"/>
			<path class="st17" d="M1771.9,343.9c0,0-29.9-21-65-14.4c-35.1,6.5-38.8,22.9-50.9,23.7c-12,0.7-52.2-2.7-85.2,6.9
				c-33,9.6-60.8,10.7-64.6,7.9c-3.8-2.7,20.6-57.7,20.6-65.3l-40.9-10.7c0,0-11.7,48.8-16.3,59.8c-4.9,11.8-14.3,33.9-0.9,53.2
				c13.4,19.2,50.9,10.6,73.6,14.5c22.7,3.9,124.2,1.4,142,0.4c19.2-1,77.3-3.8,77.3-3.8L1771.9,343.9z"/>
			<path class="st16" d="M2017.5,235.2c0,0,1.9,29.5-4.7,38.4c-2.6,3.5-4.4,5.5-5.6,6.5c-1.7,1.5-3,3.3-3.7,5.4
				c-2,5.7-3.3,13.7-4.9,15.4c-1.8,1.9-6.9-2.9-8.7-2.9c-1.8,0-19.8,15.5-24.1,12.3c-4.3-3.2-30.6-29.8-28.3-48.1
				c2.2-18.3,10.3-45.5,39.8-45.4C2006.8,217.1,2015.2,227.9,2017.5,235.2z"/>
			<path class="st19" d="M1928.2,376.2c-0.6,1.2-11.4,18.6-23.3,28.6c-4.9,4.2-10.1,7.1-14.7,7.1c-1.4,0-2.8,0-4.1,0.1
				c-13.7,0.4-24.2,2.5-42.6,3.4c-19.2,1-65.7-1.7-67-1.7c-1.4,0-14.8,2.4-14.8,2.4c-4.8-5.8,7.9-71.8,10.3-72.2
				c2.4-0.3,17.9,5.5,32.7,3.1c14.8-2.4,20.6-3.8,42.6-29.6c22-25.8,44-32.3,53.3-30.2c9.3,2.1,27.7,0,27.7,0
				S1929,374.5,1928.2,376.2z"/>
			<path class="st18" d="M2005.1,256.4c0,0,5.5,14.3,8.4,16.2c0,0,10.6-11.2,3.8-39c-6.8-27.7-32.6-30.4-49.2-27.5
				c-20.7,3.5-41.5,73.5-40.5,80.4c1.1,6.8,24.3-36.2,44.6-32.7C1992.5,257.2,1992.7,258.3,2005.1,256.4z"/>
			<path class="st20" d="M1961.2,306.2c-1.5-0.1-3.8,0-6.3,0.9c-0.6,0.2-1.5,0.5-2.5,1.1c-4.8-7.4-9.2-25-9.3-25.6
				C1946.2,289.4,1961.2,306.2,1961.2,306.2z"/>
			<path class="st21" d="M1904.8,404.9c-4.9,4.2-10.1,7.1-14.7,7.1c-1.4,0-2.8,0-4.1,0.1l6.7-54.7L1904.8,404.9z"/>
			<path class="st16" d="M2011.8,499.1l-13.2,12c-11.4-6.1-39.9-26.6-45.4-31.3c-5.8-4.9-44.1-37-49.4-44.3
				c-5.3-7.3-12-82.9-11.4-86.4c0.7-3.4,33.4-5.2,37.1,2.8c0,0,1.7,43.1,2.6,50.3c0.8,7.2,3.6,13.7,8.5,19.8
				c6.9,8.4,21.4,27.9,35.6,43.7C1979.5,469.5,2007.4,495.3,2011.8,499.1z"/>
			<path class="st19" d="M1932.2,352.8c0,0,2.1-57.4-16.6-56.7c-23.6,0.9-27.2,29.8-23.9,61.2
				C1891.6,357.3,1926.9,357.7,1932.2,352.8z"/>
			<path class="st16" d="M2005.4,493.4c0,0,1.8,2.8,4.3,3.6c4.4,1.5,10.9-1.4,14.1,4.4c3.2,5.8-12.3,20.1-16.4,21
				c-4.2,0.9-10.8-5.6-16-18.4C1986.1,491.3,2005.4,493.4,2005.4,493.4z"/>
			<path class="st16" d="M2022.5,499.7c0,0,7.9,6,15.9,13.7c7,6.8,14.1,15.7,12.3,17.3c-2.5,2.3-7.2-5.3-14.6-11.6
				c-6.8-5.8-6.4-3.5-6.4-3.5s-0.1-0.6,6.1,7c6.7,8.2,13.6,18,11.5,19.5c-1.3,0.9-1.4,1.1-4.3-1.5c1.4,1.8,1,2.5,0.3,3.1
				c-3.7,3.1-15.4-7.6-20.1-11.8c3.5,3.3,5.8,6,2.2,6.5c-4.1,0.5-20-15.3-26.2-20.5C1992.5,512.2,2022.5,499.7,2022.5,499.7z"/>
		</g>
		<path class="st0" d="M1785.3,346.5c0,0-6.3,45.2-3.2,67.4c0,0,3.3,2.4,9.8,0.5c0,0,1.6-49.3,5.3-66.8
			C1797.2,347.6,1795.2,346.1,1785.3,346.5z"/>
	</g>
	<g>
		<rect x="1786.8" y="37.1" class="st0" width="4.9" height="343.6"/>
	</g>
</g>
<g>
	
		<rect x="2549.7" y="1817" transform="matrix(-1 -1.224647e-16 1.224647e-16 -1 5194.0288 3640.6096)" class="st22" width="94.6" height="6.6"/>
	
		<rect x="2549.7" y="1829.5" transform="matrix(-1 -1.224647e-16 1.224647e-16 -1 5194.0288 3686.8552)" class="st22" width="94.6" height="27.9"/>
	
		<rect x="2505.3" y="1866.7" transform="matrix(-1 -1.224647e-16 1.224647e-16 -1 5066.3564 3737.6499)" class="st22" width="55.8" height="4.2"/>
	
		<rect x="2505.3" y="1872.7" transform="matrix(-1 -1.224647e-16 1.224647e-16 -1 5066.3564 3756.7456)" class="st22" width="55.8" height="11.3"/>
	
		<rect x="2659.9" y="1781.2" transform="matrix(-1 -1.224647e-16 1.224647e-16 -1 5323.8696 3640.6106)" class="st22" width="4.2" height="78.1"/>
</g>
<defs>
	<filter id="Adobe_OpacityMaskFilter" filterUnits="userSpaceOnUse" x="64.6" y="1253" width="118.8" height="57.7">
		<feFlood  style="flood-color:white;flood-opacity:1" result="back"/>
		<feBlend  in="SourceGraphic" in2="back" mode="normal"/>
	</filter>
</defs>
<mask maskUnits="userSpaceOnUse" x="64.6" y="1253" width="118.8" height="57.7" id="SVGID_00000031202608340164376710000005304969585660639144_">
	<g class="st23">
		<defs>
			
				<filter id="Adobe_OpacityMaskFilter_00000168810490139716543870000018289913020602206609_" filterUnits="userSpaceOnUse" x="64.6" y="1253" width="118.8" height="57.7">
				<feFlood  style="flood-color:white;flood-opacity:1" result="back"/>
				<feBlend  in="SourceGraphic" in2="back" mode="normal"/>
			</filter>
		</defs>
		
			<mask maskUnits="userSpaceOnUse" x="64.6" y="1253" width="118.8" height="57.7" id="SVGID_00000031202608340164376710000005304969585660639144_">
			<g style="filter:url(#Adobe_OpacityMaskFilter_00000168810490139716543870000018289913020602206609_);">
			</g>
		</mask>
		
			<linearGradient id="SVGID_00000081647067147345184050000003162156310014131634_" gradientUnits="userSpaceOnUse" x1="118.1651" y1="999.3694" x2="128.1705" y2="1482.9464">
			<stop  offset="0" style="stop-color:#FFFFFF"/>
			<stop  offset="1" style="stop-color:#000000"/>
		</linearGradient>
		
			<polygon style="mask:url(#SVGID_00000031202608340164376710000005304969585660639144_);fill:url(#SVGID_00000081647067147345184050000003162156310014131634_);" points="
			92.5,1310.8 183.4,1310.8 155.6,1253 64.6,1253 		"/>
	</g>
</mask>
<linearGradient id="SVGID_00000124146488136520355050000004580211860343373736_" gradientUnits="userSpaceOnUse" x1="118.1651" y1="999.3694" x2="128.1705" y2="1482.9464">
	<stop  offset="0" style="stop-color:#40D5E6"/>
	<stop  offset="1" style="stop-color:#5577FF"/>
</linearGradient>
<polygon style="fill:url(#SVGID_00000124146488136520355050000004580211860343373736_);" points="92.5,1310.8 183.4,1310.8 
	155.6,1253 64.6,1253 "/>
<defs>
	
		<filter id="Adobe_OpacityMaskFilter_00000133498324868488031430000001880627183011576709_" filterUnits="userSpaceOnUse" x="22.1" y="1253" width="49.5" height="57.7">
		<feFlood  style="flood-color:white;flood-opacity:1" result="back"/>
		<feBlend  in="SourceGraphic" in2="back" mode="normal"/>
	</filter>
</defs>
<mask maskUnits="userSpaceOnUse" x="22.1" y="1253" width="49.5" height="57.7" id="SVGID_00000140697949384688424340000007370848874227424675_">
	<g style="filter:url(#Adobe_OpacityMaskFilter_00000133498324868488031430000001880627183011576709_);">
		<defs>
			
				<filter id="Adobe_OpacityMaskFilter_00000121276761385499931190000015025128482798715044_" filterUnits="userSpaceOnUse" x="22.1" y="1253" width="49.5" height="57.7">
				<feFlood  style="flood-color:white;flood-opacity:1" result="back"/>
				<feBlend  in="SourceGraphic" in2="back" mode="normal"/>
			</filter>
		</defs>
		
			<mask maskUnits="userSpaceOnUse" x="22.1" y="1253" width="49.5" height="57.7" id="SVGID_00000140697949384688424340000007370848874227424675_">
			<g style="filter:url(#Adobe_OpacityMaskFilter_00000121276761385499931190000015025128482798715044_);">
			</g>
		</mask>
		
			<linearGradient id="SVGID_00000062905066573270131340000007466456056721391013_" gradientUnits="userSpaceOnUse" x1="40.9973" y1="1000.9663" x2="51.0027" y2="1484.5425">
			<stop  offset="0" style="stop-color:#FFFFFF"/>
			<stop  offset="1" style="stop-color:#000000"/>
		</linearGradient>
		
			<polygon style="mask:url(#SVGID_00000140697949384688424340000007370848874227424675_);fill:url(#SVGID_00000062905066573270131340000007466456056721391013_);" points="
			49.9,1310.8 71.6,1310.8 43.7,1253 22.1,1253 		"/>
	</g>
</mask>
<linearGradient id="SVGID_00000163793118278151380830000005308110405813742780_" gradientUnits="userSpaceOnUse" x1="40.9973" y1="1000.9663" x2="51.0027" y2="1484.5425">
	<stop  offset="0" style="stop-color:#40D5E6"/>
	<stop  offset="1" style="stop-color:#5577FF"/>
</linearGradient>
<polygon style="fill:url(#SVGID_00000163793118278151380830000005308110405813742780_);" points="49.9,1310.8 71.6,1310.8 
	43.7,1253 22.1,1253 "/>
<defs>
	
		<filter id="Adobe_OpacityMaskFilter_00000001658838739119748050000007415183533850950335_" filterUnits="userSpaceOnUse" x="2494.5" y="233.4" width="100.9" height="38.9">
		<feFlood  style="flood-color:white;flood-opacity:1" result="back"/>
		<feBlend  in="SourceGraphic" in2="back" mode="normal"/>
	</filter>
</defs>
<mask maskUnits="userSpaceOnUse" x="2494.5" y="233.4" width="100.9" height="38.9" id="SVGID_00000008118489502078873350000000365537771688324286_">
	<g style="filter:url(#Adobe_OpacityMaskFilter_00000001658838739119748050000007415183533850950335_);">
		<defs>
			
				<filter id="Adobe_OpacityMaskFilter_00000002377211702949656530000001693030290184274870_" filterUnits="userSpaceOnUse" x="2494.5" y="233.4" width="100.9" height="38.9">
				<feFlood  style="flood-color:white;flood-opacity:1" result="back"/>
				<feBlend  in="SourceGraphic" in2="back" mode="normal"/>
			</filter>
		</defs>
		
			<mask maskUnits="userSpaceOnUse" x="2494.5" y="233.4" width="100.9" height="38.9" id="SVGID_00000008118489502078873350000000365537771688324286_">
			<g style="filter:url(#Adobe_OpacityMaskFilter_00000002377211702949656530000001693030290184274870_);">
			</g>
		</mask>
		
			<linearGradient id="SVGID_00000180344674194311751720000011582868792643477635_" gradientUnits="userSpaceOnUse" x1="2600.4514" y1="45.1745" x2="2484.4236" y2="479.2054">
			<stop  offset="0" style="stop-color:#FFFFFF"/>
			<stop  offset="1" style="stop-color:#000000"/>
		</linearGradient>
		
			<polygon style="mask:url(#SVGID_00000008118489502078873350000000365537771688324286_);fill:url(#SVGID_00000180344674194311751720000011582868792643477635_);" points="
			2494.5,272.3 2595.4,272.3 2595.4,233.4 2494.5,233.4 		"/>
	</g>
</mask>
<linearGradient id="SVGID_00000090296924871215672510000015142651067862756527_" gradientUnits="userSpaceOnUse" x1="2600.4514" y1="45.1745" x2="2484.4236" y2="479.2054">
	<stop  offset="0" style="stop-color:#40D5E6"/>
	<stop  offset="1" style="stop-color:#5577FF"/>
</linearGradient>
<polygon style="fill:url(#SVGID_00000090296924871215672510000015142651067862756527_);" points="2494.5,272.3 2595.4,272.3 
	2595.4,233.4 2494.5,233.4 "/>
<defs>
	
		<filter id="Adobe_OpacityMaskFilter_00000096768401374301676580000013357044449290623910_" filterUnits="userSpaceOnUse" x="2494.5" y="215.3" width="100.9" height="7.3">
		<feFlood  style="flood-color:white;flood-opacity:1" result="back"/>
		<feBlend  in="SourceGraphic" in2="back" mode="normal"/>
	</filter>
</defs>
<mask maskUnits="userSpaceOnUse" x="2494.5" y="215.3" width="100.9" height="7.3" id="SVGID_00000085239226286095014340000011384413606786124180_">
	<g style="filter:url(#Adobe_OpacityMaskFilter_00000096768401374301676580000013357044449290623910_);">
		<defs>
			
				<filter id="Adobe_OpacityMaskFilter_00000114765878750750243070000010034726261706636734_" filterUnits="userSpaceOnUse" x="2494.5" y="215.3" width="100.9" height="7.3">
				<feFlood  style="flood-color:white;flood-opacity:1" result="back"/>
				<feBlend  in="SourceGraphic" in2="back" mode="normal"/>
			</filter>
		</defs>
		
			<mask maskUnits="userSpaceOnUse" x="2494.5" y="215.3" width="100.9" height="7.3" id="SVGID_00000085239226286095014340000011384413606786124180_">
			<g style="filter:url(#Adobe_OpacityMaskFilter_00000114765878750750243070000010034726261706636734_);">
			</g>
		</mask>
		
			<linearGradient id="SVGID_00000070823742757538985450000007181069790872906631_" gradientUnits="userSpaceOnUse" x1="2583.4443" y1="74.8502" x2="2493.5801" y2="411.0097">
			<stop  offset="0" style="stop-color:#FFFFFF"/>
			<stop  offset="1" style="stop-color:#000000"/>
		</linearGradient>
		
			<polygon style="mask:url(#SVGID_00000085239226286095014340000011384413606786124180_);fill:url(#SVGID_00000070823742757538985450000007181069790872906631_);" points="
			2494.5,222.6 2595.4,222.6 2595.4,215.3 2494.5,215.3 		"/>
	</g>
</mask>
<linearGradient id="SVGID_00000040537402517734403430000006532401145326632628_" gradientUnits="userSpaceOnUse" x1="2583.4443" y1="74.8502" x2="2493.5801" y2="411.0097">
	<stop  offset="0" style="stop-color:#40D5E6"/>
	<stop  offset="1" style="stop-color:#5577FF"/>
</linearGradient>
<polygon style="fill:url(#SVGID_00000040537402517734403430000006532401145326632628_);" points="2494.5,222.6 2595.4,222.6 
	2595.4,215.3 2494.5,215.3 "/>
<linearGradient id="SVGID_00000173848849328603193110000003818206964961318588_" gradientUnits="userSpaceOnUse" x1="658.8588" y1="1196.3981" x2="658.8588" y2="1830.1581">
	<stop  offset="0" style="stop-color:#626E7A"/>
	<stop  offset="1" style="stop-color:#F5F5F5"/>
</linearGradient>
<path style="fill:url(#SVGID_00000173848849328603193110000003818206964961318588_);" d="M987.5,1116.5H330.2
	c-15.3,0-27.7-12.4-27.7-27.7v-7c0-15.3,12.4-27.7,27.7-27.7h657.3c15.3,0,27.7,12.4,27.7,27.7v7
	C1015.2,1104.1,1002.8,1116.5,987.5,1116.5z"/>
<g>
	<g>
		<polygon class="st40" points="1393.4,1973.9 1755.3,1973.9 1641.2,2324.2 1651.9,2327.7 1770.7,1962.7 1385.2,1962.7 
			1267.5,2324.2 1278.2,2327.7 		"/>
	</g>
	<g>
		<polygon class="st40" points="1516.5,2324.2 1402.5,1973.9 1764.4,1973.9 1879.6,2327.7 1890.3,2324.2 1772.5,1962.7 1387,1962.7 
			1505.9,2327.7 		"/>
	</g>
	<g>
		<rect x="1359.7" y="2073" class="st40" width="443" height="11.2"/>
	</g>
	<g>
		<rect x="1314.1" y="2194.8" class="st40" width="530" height="11.2"/>
	</g>
</g>
<g>
	<g>
		<g>
			<path class="st16" d="M1574.7,1174.4c0,0,9-15.8-5.3-58.1c-13.8-40.9-61.7-37.2-77-11c-15.2,26.2-10.1,42.5,12.3,72.1
				C1527.2,1207,1565.4,1188,1574.7,1174.4z"/>
		</g>
	</g>
	<g>
		<g>
			<path class="st16" d="M1463.5,1902.5c0,0-2.4,17.4-2.7,20c-0.3,2.6-26.4-1.5-26.4-1.5l-2.1-20.7
				C1432.3,1900.2,1460.2,1900,1463.5,1902.5z"/>
		</g>
	</g>
	<g>
		<g>
			<path class="st41" d="M1461.1,1920.2c0,0,8.3,10.5,16.3,15c8,4.6,20.5,6.4,25.3,11.1c3.4,3.4,12.4,18.1-20.8,17.8
				c-33.2-0.3-49.2,2.1-52.7-3.6c-3.6-5.6,5.1-41.6,5.1-41.6S1442.4,1921.3,1461.1,1920.2z"/>
		</g>
	</g>
	<g>
		<g>
			<path class="st16" d="M1644,1902.5c0,0-2.4,17.4-2.7,20c-0.3,2.6-26.4-1.5-26.4-1.5l-2.1-20.7
				C1612.8,1900.2,1640.7,1900,1644,1902.5z"/>
		</g>
	</g>
	<g>
		<g>
			<path class="st41" d="M1641.6,1920.2c0,0,8.3,10.5,16.3,15c8,4.6,37.4,8.3,42.1,13c3.4,3.4,9.1,17.1-37.6,15.9
				c-33.2-0.9-49.2,2.1-52.7-3.6c-3.6-5.6,5.1-41.6,5.1-41.6S1625.1,1920.9,1641.6,1920.2z"/>
		</g>
	</g>
	<g>
		<g>
			<path class="st42" d="M1472.2,1469.7c0,0-13.4,41.5-11.6,77.3c1.8,35.8-6.9,75-10.5,112.4c-4,41.7-20.1,140.4-20.7,162.7
				c-0.6,22.3,2.5,93.5,2.5,93.5l32.4,0.8c0,0,27.2-172.6,34.2-190.2c7-17.6,42-143.1,43.1-157.2
				C1542.9,1555,1472.2,1469.7,1472.2,1469.7z"/>
		</g>
	</g>
	<g>
		<g>
			<path class="st42" d="M1606.5,1465.4c0,0,19.7,109.8,22,131.8c2.3,21.9,3.9,106,5.1,119.7c1.2,13.7,7.8,179.2,14.1,199.6h-36.1
				c0,0-37.1-120.3-37.1-177.2c0-56.9-24.5-123.8-40.4-161.3c-15.8-37.6-52.1-38.5-61.9-108.1
				C1472.2,1469.7,1593.3,1443.3,1606.5,1465.4z"/>
		</g>
	</g>
	<g>
		<g>
			<path class="st16" d="M1561.6,1185.6c0,0-4.1,11.9,0,20.3c4.1,8.5-52,3.4-52,3.4s2.5-17.5-4.8-31.9
				C1497.5,1163.1,1561.6,1185.6,1561.6,1185.6z"/>
		</g>
	</g>
	<g>
		<g>
			<path class="st42" d="M1469.6,1478.8c0,0,20.2,20.7,138.7-3.2l-1.8-10.1l-134.7,5.1L1469.6,1478.8z"/>
		</g>
	</g>
	<g>
		<g>
			<path class="st16" d="M1570.1,1208.7c0,0,20.7,2.1,26.6,3.2c5.9,1.1,45.8-7.1,53.9-8c8.2-0.8,43-24.7,44.2-27.6
				c1.1-2.8,21.2-53.7,22.3-64.7c1.1-11,19.6-5.3,18,2.3c-3,14.2-6.8,48.6-8.8,58.5c-2.2,10.8-8.3,35.2-11.7,38.2
				c-3.4,3-34.8,26.9-65.5,37c-30.7,10.2-53.9,25.1-53.9,25.1h-151.5c0,0-58.9-84.2-60.2-96.9c-1.3-12.7,41.1-97,49.6-107.6
				s20.7,3.5,20.7,3.5s-25.3,74.4-28.7,84.9c-3.4,10.6,29.5,57,38.5,57.2s32.2-2.8,42.5-3.2c10.3-0.4,21.1-4.9,21.1-4.9
				L1570.1,1208.7z"/>
		</g>
	</g>
	<g>
		<g>
			<path class="st43" d="M1635.4,1264.9c0,0-18.5,12.3-20.2,33.5c-1.7,21.1-8.5,54.6-11.8,66c-3.4,11.4,3,94.3,3.8,100.2
				c0.8,5.9-117.2,20-135.3,5.9c0,0-5.1-77.4-7.2-99.4c-2.1-22-12.3-75.3-15.6-82.5c-3.4-7.2-44.4-64.7-46.1-72.3
				c0,0,21.2-33.8,36.4-34.3c0,0,24.2,28.3,32.1,29.6c7.9,1.3,56.2-7.6,56.2-7.7c0,0,5.3,7.2,33.3-1.3c0,0,33.4,3.8,38.8,4.5
				c6.6,0.8,52.3-5.7,52.3-5.7s18.3,31,15.1,46.6L1635.4,1264.9z"/>
		</g>
	</g>
	<g>
		<g>
			<path class="st16" d="M1716.2,1118.3c0,0,4.1-19.6-0.8-25.2c-2.8-3.2-9.7-11.7-10.3-12.9c-0.6-1.2-7.9-5.5-7.9-7.5
				s7.2-4.5,13.4,1.2c6.2,5.8,10.1,7,12.6,6.4c2.5-0.6,6.1-21.3,6.4-26.5c0.3-5.1,2.3-18.7,5.5-17.8c3.2,0.9,3.1,6.9,3.1,6.9
				s3.7-10.3,6.2-8.3s2.2,7,2.2,7s4.7-5.8,5.9-1.6c1.2,4.2,0,7.9,0,7.9s4.8-2.6,5.1,3.9c0.3,6.5-1.4,25.7-4.8,32.6
				c-3.4,6.9-16.3,24.8-17.8,31.8C1733.4,1123.3,1716.2,1118.3,1716.2,1118.3z"/>
		</g>
	</g>
	<g>
		<g>
			<path class="st16" d="M1449.9,1083.9c0,0,14.1-23.7,18.9-25.8c4.8-2.1,11.6-3.3,17.5-7.5c5.9-4.2,13.7-7.8,13.3-9.2
				c-0.4-1.4-7.4-0.8-14.9,2.4c-7.5,3.2-10.7,1.7-11.5,0c-0.7-1.7,4-13.6,6.2-16.5c2.3-2.8,18.3-19,15.6-21.4
				c-2.7-2.4-13.1,6.5-14.8,8.3c0,0,8.3-17.5,5.1-18.3c-3.2-0.8-9.3,5.4-9.3,5.4s0.7-14.9-15.4,9.3c0,0,3.4-8-1.6-5.4
				c-4.9,2.7-9.7,17.8-11.3,25.4c-1.6,7.6-8.6,31.9-14.6,37.7C1427.3,1074.2,1449.9,1083.9,1449.9,1083.9z"/>
		</g>
	</g>
	<g>
		<g>
			<path class="st44" d="M1504.8,1177.4c0,0,7.4,0.7,23.2-4.8c15.8-5.5,17-33.1,20.4-29.8c7,6.7,13.5,2.1,16.2-1.9
				c0,0-7.7-10.1-4.1-15c3.6-4.9,9.4-8.5,9.4-8.5s-11.1-53.5-61.6-29.1C1449,1116.9,1504.8,1177.4,1504.8,1177.4z"/>
		</g>
	</g>
	<g>
		<g>
			<path class="st43" d="M1561.6,1205.9l-1.8-7.7c0,0-32.3-0.7-49.9,1.9l-1.9,9.2C1508.1,1209.3,1530.7,1219.5,1561.6,1205.9z"/>
		</g>
	</g>
	<g>
		<g>
			<path class="st16" d="M1553.7,1136.1c-2.9-4.9-13.8-8.2-15,5.6c-1,10.7,19.4,22.4,19.5,12.4
				C1558.4,1144.2,1555.6,1139.3,1553.7,1136.1z"/>
		</g>
	</g>
	<g>
		<g>
			<path class="st45" d="M1716.9,1113.9c0,0,11.6,0.3,17.3,5.4c0,0,0.4,3.2-0.9,5.8c0,0-10.1-4.7-17.8-5.6
				C1715.4,1119.5,1715.6,1115.2,1716.9,1113.9z"/>
		</g>
	</g>
	<g>
		<g>
			<path class="st44" d="M1730.6,1116.8c1.1,2.5-0.1,5.5-2.7,6.6c-2.5,1.1-5.5-0.1-6.6-2.7c-1.1-2.5,0.1-5.5,2.7-6.6
				C1726.6,1113,1729.6,1114.2,1730.6,1116.8z"/>
		</g>
	</g>
</g>
<g>
	<g>
		<path class="st46" d="M2650,1388.2c0,0-10.3,1.4-10.2-3c0.1-4.4,0.8-10.1,0.8-10.1L2650,1388.2z"/>
		<path class="st46" d="M2708.1,1340.8l-33.9,26.2c4.3-0.8,11.6-1.9,11.7,0.4c0.2,3.2-12.9,7.1-17,10.1c-3.8,2.7-7.8,7.5-8.9,7.7
			l-7.4,6.4l-12-16.4c0,0,19.8-22.4,24.6-27.2c7.8-7.8,39.1-12.3,40.8-11.2C2709,1338.8,2708.1,1340.8,2708.1,1340.8z"/>
	</g>
	<g>
		<path class="st47" d="M2666.2,1392.7l-27.4-23.2l-93.8,94.8c-14.7,10.1,28.6,44.9,40.9,52.5c31.4,19.5,68.5,64.6,107,37.1
			c41.7-29.8-19-51.1-39.3-50.5c-17.5,0.4-55.8-34.1-55.8-34.1L2666.2,1392.7z"/>
	</g>
	<g>
		<path class="st48" d="M2616.7,2243.2c0,0-15.6,16.4-31.4,19.8c-15.8,3.4-26.9,7.8-27,17.2c-0.1,9.4,45.5,15.6,63.6,6.1
			c27-14.1,29.8-9.9,32.8-16.9c3-7.1-3.6-25.9-3.4-28.2C2651.5,2238.4,2616.7,2243.2,2616.7,2243.2z"/>
	</g>
	<g>
		<path class="st49" d="M2618.4,2235.3c0,0-2.1,7.7-1.8,7.8c0.3,0.2,35.6,4.1,34.6-2c-0.9-5-2.1-10.4-2.1-10.4L2618.4,2235.3z"/>
	</g>
	<g>
		<path class="st48" d="M2792.7,2247.4c0,0-11.5,15.9-26.8,19.6c-15.1,3.6-24.9,10.5-25.7,19.7c-0.7,9.1,35.6,21.1,61.2,5
			c16.8-10.5,23.1-9.9,26.4-16.6c3.4-6.7-1.8-25.4-1.4-27.6C2826.9,2244.8,2792.7,2247.4,2792.7,2247.4z"/>
	</g>
	<g>
		<path class="st49" d="M2793.2,2239.6c0,0-0.8,7.7-0.5,7.9c0.3,0.2,34,6.1,33.8,0.1c-0.2-4.8-2.1-10.8-2.1-10.8L2793.2,2239.6z"/>
	</g>
	<g>
		<path class="st50" d="M2654.1,1774.9c0,0-16.4,118.9-23.1,159.1c-7.8,47-10.5,85.8-12.6,110.1c-2.7,30.6-6.4,187.2-8.3,196.1
			s47.7,4.3,47.7,4.3s26-204.1,34.1-236.7c7.6-30.3,29.7-161.4,36.7-153.1c6.9,8.3,28.2,156.7,33.3,180.7
			c5.1,23.9,18.9,212.3,18.9,212.3s46.8,7.5,56.2,0c0,0-7.4-168-10.7-212.8c-1.2-17.1,10.8-204.7-18.1-280.3
			C2793,1714.6,2654.1,1774.9,2654.1,1774.9z"/>
	</g>
	<path class="st42" d="M2702.1,1489.8c0,0-43.3,9-48.5,13.5c-5.6,4.8-15.4,52.3-16,65.5c-0.6,13.2,5.2,68.4,10.8,89
		c5.6,20.6,5.7,109.5,2.1,138c0,0,83.4,17.1,169.2,5.9c0,0-11.7-86.5-8.3-114.7c4.4-36.1,15-119.2,15-119.2s0.1-46.8-6.6-54.3
		c-14.2-16-68.9-23.7-68.9-23.7H2702.1z"/>
	<path class="st47" d="M2767.2,1576.6c2,42.8,15.7,53.2,29.1,49.9c4.2-1,8.3-3.4,12-6.6c5.7-5,10.2-11.8,11.8-18.4
		c5.9-23.9,5.9-89.7-24.2-98.1C2795.8,1503.4,2763.2,1492.9,2767.2,1576.6z"/>
	<path class="st51" d="M2637.6,1596c0,0,24.2-4,25.6,31c1.5,35,16.6,100.1,41.4,126.1l-97.2,3.7c-24.7-25.9-36.9-88.1-38.7-123.1
		c-1.7-32.2-25.6-31-25.6-31L2637.6,1596z"/>
	<path class="st47" d="M2694.4,1515.8c0.6,0.4,1.1,0.7,1.8,1c2.2,1.1,5,1.9,8.5,2.3c1.3,0.1,2.6,0.2,3.9,0.2c0.8,0,1.6-0.1,2.4-0.1
		c22.9-2.2,45.7-28.5,45.7-28.5c-46-7-65.8,1.6-65.8,1.6S2683.4,1508.4,2694.4,1515.8z"/>
	<path class="st16" d="M2704.2,1357.1c0,0-54.5-10.9-40.5,57c14,67.9,27.2,72.9,59.5,58c32.3-14.9,28.4-58.5,29.5-80
		C2753.9,1370.7,2721.5,1357.5,2704.2,1357.1z"/>
	<path class="st16" d="M2695.3,1499.2c0,0,10.7,7.1,51.4-10.8c0,0-4.1-24.1,2.2-50.6c6-25.5-49.9,31.4-49.9,31.4
		c0.7,0.5,0.8,3.1,0.4,6.7c-0.1,1-0.2,2-0.4,3.1c-0.3,1.9-0.7,3.9-1.2,5.9c-0.1,0.6-0.3,1.1-0.4,1.7
		C2695.1,1495.3,2695.3,1491.6,2695.3,1499.2z"/>
	<path class="st44" d="M2750.9,1427.2c0,0-2.7-18.3-10.6-18.8c-7.9-0.5-10.1,10.7-10.1,10.7l-6.2,0.6c0,0,2.5-19.4-5.4-22.5
		c-7.9-3.1-50.7,7.5-57.1,2.1c-6.4-5.4-3.2-41.1,8-46.6c11.2-5.5,41.3-20.5,64.6-5.5c0,0,17.9-2.5,20.9,11.9
		C2758.2,1373.7,2755.6,1416.3,2750.9,1427.2z"/>
	<path class="st16" d="M2730.5,1402c1.3-6.4,14.3-7.6,14.5,2.1c0.2,9.8-8.1,26.1-12.8,24.1C2727.5,1426.1,2728.7,1410.8,2730.5,1402
		z"/>
	<path class="st52" d="M2746.7,1480.6c0,0-21.3,12.8-42.3,15.7l11.2,17.8l35.4-24.4L2746.7,1480.6z"/>
	<path class="st52" d="M2697.4,1486.6c0,0,2.2,7.3,7,9.7l-10.5,14.6l0.4-19.4L2697.4,1486.6z"/>
	<path class="st22" d="M2704.4,1496.4l-8.3,11.6c0,0,5.3,6.7,16.6,1.6L2704.4,1496.4z"/>
	<path class="st22" d="M2696.1,1516.8c2.2,1.1,5,1.9,8.5,2.3c1.3,0.1,2.6,0.2,3.9,0.2l-1.3-10.8h-7.7
		C2699.6,1508.5,2697.6,1511.6,2696.1,1516.8z"/>
	<path class="st20" d="M2697.5,1485.9c24.1,1.3,39.5-23.7,40-24.5c-15.1,16.5-38.6,17.5-38.6,17.5
		C2698.7,1480.9,2698,1483.9,2697.5,1485.9z"/>
	<path class="st53" d="M2637.6,1596c0,0-28.9,2.7-22.8,43.1l-85.9,4.6c0,0-11.9-27.5,14.1-41L2637.6,1596z"/>
	
		<rect x="2537.1" y="1624" transform="matrix(-0.9986 5.373086e-02 -5.373086e-02 -0.9986 5224.9365 3110.9453)" class="st54" width="67.2" height="3.5"/>
	
		<rect x="2542.8" y="1608.4" transform="matrix(-0.9986 5.371328e-02 -5.371328e-02 -0.9986 5235.5913 3079.668)" class="st54" width="67.2" height="3.5"/>
	<g>
		
			<rect x="2578.8" y="1642.9" transform="matrix(0.9986 -5.371496e-02 5.371496e-02 0.9986 -84.5711 142.6993)" class="st54" width="67.2" height="3.5"/>
		
			<rect x="2587.2" y="1666.4" transform="matrix(0.9986 -5.373086e-02 5.373086e-02 0.9986 -85.8449 143.228)" class="st54" width="67.2" height="3.5"/>
		
			<rect x="2595.6" y="1689.9" transform="matrix(0.9986 -5.371505e-02 5.371505e-02 0.9986 -87.0703 143.6708)" class="st54" width="67.2" height="3.5"/>
		
			<rect x="2604" y="1713.4" transform="matrix(0.9986 -5.373086e-02 5.373086e-02 0.9986 -88.3447 144.1996)" class="st54" width="67.2" height="3.5"/>
		
			<rect x="2612.4" y="1736.9" transform="matrix(0.9986 -5.371496e-02 5.371496e-02 0.9986 -89.5692 144.6418)" class="st54" width="67.2" height="3.5"/>
	</g>
	<path class="st16" d="M2712.1,1671.5c0,0-3.7,1.8-7,0.9c-5.6-1.5-10.3-9.3-17.6-5.3c-7.3,4-1.2,30.7,2.5,34.6
		c3.7,3.9,15.1,1.6,29.3-8.6C2733.5,1683,2712.1,1671.5,2712.1,1671.5z"/>
	<path class="st16" d="M2690.1,1666.1c0,0-12.3,0.9-25.9,3.6c-11.9,2.4-26.4,7-25.9,10c0.9,4.6,12.3-0.6,24.3-2.1
		c11-1.4,9.1,0.7,9.1,0.7s0.5-0.6-11.2,3.3c-12.6,4.2-26,9.3-25.6,11.8c0.5,3.1,0.8,3.4,5.7,2.6c-2.7,1-2.8,1.9-2.4,3.1
		c1.7,6.1,21.2,2.8,28.9,1.5c-5.9,1-10.2,2.4-6.7,5.5c3.9,3.5,31.3-2.4,41.3-3.6C2712.5,1701.2,2690.1,1666.1,2690.1,1666.1z"/>
	<path class="st47" d="M2786.2,1504.3c-8.8,2.9-13.6,15.4-8.2,41.4c5.9,28.7,12.6,42.7,16.5,49.4c3.8,6.8,24.6,41.4,20.8,46.9
		c-3.8,5.5-53.9,18.5-57.3,19.5c-6.8,1.9-52.2,11-52.2,11l11.1,38.9c0,0,138.4-23.6,145.1-30.3c6.7-6.7,10.3-15.9,2.8-39.4
		c-7.6-23.9-21.2-79.9-23.6-84.3C2838.8,1552.9,2826.1,1491.2,2786.2,1504.3z"/>
	<path class="st55" d="M2779.3,1551.3c0,0,3.1,44,17,75.2c4.2-1,8.3-3.4,12-6.6c0,0-16-28.9-17.4-32.2
		C2789.4,1584.4,2780.9,1558.9,2779.3,1551.3z"/>
</g>
<g>
	<g>
		
			<linearGradient id="SVGID_00000023242729919756198710000016039629623656085634_" gradientUnits="userSpaceOnUse" x1="656.9749" y1="1426.2043" x2="656.9749" y2="2783.0344">
			<stop  offset="0" style="stop-color:#44607D"/>
			<stop  offset="1" style="stop-color:#F5F5F5"/>
		</linearGradient>
		<path style="fill:url(#SVGID_00000023242729919756198710000016039629623656085634_);" d="M969.1,1659.5H344.8
			c-22.3,0-40.3-18-40.3-40.3v-421.9c0-22.3,18-40.3,40.3-40.3h624.3c22.3,0,40.3,18,40.3,40.3v421.9
			C1009.4,1641.4,991.4,1659.5,969.1,1659.5z"/>
	</g>
	<g>
		<g>
			
				<linearGradient id="SVGID_00000032633664345665910590000005716429169222962582_" gradientUnits="userSpaceOnUse" x1="804.9933" y1="1312.3837" x2="827.0314" y2="1312.3837">
				<stop  offset="0" style="stop-color:#D5E4FF"/>
				<stop  offset="1" style="stop-color:#EDFFFE"/>
			</linearGradient>
			
				<rect x="805" y="1251.1" style="fill:url(#SVGID_00000032633664345665910590000005716429169222962582_);" width="22" height="122.5"/>
		</g>
		<g>
			
				<linearGradient id="SVGID_00000100369920688448777780000006161147810452768646_" gradientUnits="userSpaceOnUse" x1="843.6855" y1="1296.0542" x2="865.7225" y2="1296.0542">
				<stop  offset="0" style="stop-color:#D5E4FF"/>
				<stop  offset="1" style="stop-color:#EDFFFE"/>
			</linearGradient>
			
				<rect x="843.7" y="1218.5" style="fill:url(#SVGID_00000100369920688448777780000006161147810452768646_);" width="22" height="155.2"/>
		</g>
		<g>
			
				<linearGradient id="SVGID_00000142163714686890484120000000299465928611553180_" gradientUnits="userSpaceOnUse" x1="884.2879" y1="1304.5966" x2="906.326" y2="1304.5966">
				<stop  offset="0" style="stop-color:#D5E4FF"/>
				<stop  offset="1" style="stop-color:#EDFFFE"/>
			</linearGradient>
			
				<rect x="884.3" y="1235.6" style="fill:url(#SVGID_00000142163714686890484120000000299465928611553180_);" width="22" height="138.1"/>
		</g>
		<g>
			
				<linearGradient id="SVGID_00000047038524075320498230000004177005325595005843_" gradientUnits="userSpaceOnUse" x1="926.0052" y1="1324.431" x2="948.0433" y2="1324.431">
				<stop  offset="0" style="stop-color:#D5E4FF"/>
				<stop  offset="1" style="stop-color:#EDFFFE"/>
			</linearGradient>
			
				<rect x="926" y="1275.2" style="fill:url(#SVGID_00000047038524075320498230000004177005325595005843_);" width="22" height="98.4"/>
		</g>
		<g>
			<rect x="805" y="1295.9" class="st61" width="22" height="77.7"/>
		</g>
		<g>
			<rect x="843.7" y="1275.2" class="st61" width="22" height="98.4"/>
		</g>
		<g>
			<rect x="884.3" y="1286.1" class="st61" width="22" height="87.6"/>
		</g>
		<g>
			<rect x="926" y="1312.4" class="st61" width="22" height="61.3"/>
		</g>
	</g>
	<g>
		<g>
			<path class="st22" d="M933.3,1450.5H819.7c-4.8,0-8.7-3.9-8.7-8.7v-17.5c0-4.8,3.9-8.7,8.7-8.7h113.6c4.8,0,8.7,3.9,8.7,8.7v17.5
				C942,1446.6,938.1,1450.5,933.3,1450.5z"/>
		</g>
	</g>
	<g>
		<g>
			<path class="st22" d="M933.3,1515.9H819.7c-4.8,0-8.7-3.9-8.7-8.7v-17.5c0-4.8,3.9-8.7,8.7-8.7h113.6c4.8,0,8.7,3.9,8.7,8.7v17.5
				C942,1512,938.1,1515.9,933.3,1515.9z"/>
		</g>
	</g>
	<g>
		<g>
			<path class="st22" d="M933.3,1581.3H819.7c-4.8,0-8.7-3.9-8.7-8.7V1555c0-4.8,3.9-8.7,8.7-8.7h113.6c4.8,0,8.7,3.9,8.7,8.7v17.5
				C942,1577.4,938.1,1581.3,933.3,1581.3z"/>
		</g>
	</g>
	<g>
		<g>
			<g>
				<path class="st22" d="M747.7,1337.7c-29.1-81.5-107-131.5-189-129c-19.9,0.6-40,4.3-59.7,11.3c-59.8,21.4-102.6,69-120.2,125.2
					c-12.2,39-12.3,82.1,2.5,123.5c1.5,4.1,3.1,8.2,4.8,12.1c7.8,17.9,18,34.2,30.2,48.4c50.9,59.9,135.4,85.2,213.8,57.1
					C731.2,1550.2,783.9,1438.9,747.7,1337.7z M613.6,1540.6c-58.8,21-122.1,2-160.3-42.8c-9.1-10.7-16.8-22.9-22.6-36.3
					c-1.3-3-2.5-6-3.6-9.1c-11.1-31.1-11-63.4-1.9-92.6c13.2-42.2,45.3-77.9,90.1-93.9c14.8-5.3,29.9-8,44.8-8.5
					c61.5-1.9,119.9,35.7,141.7,96.7C729,1429.9,689.5,1513.4,613.6,1540.6z"/>
			</g>
		</g>
		<g>
			<g>
				<path class="st62" d="M425.3,1359.7l-46.5-14.5c17.6-56.2,60.5-103.8,120.2-125.2c19.7-7.1,39.8-10.7,59.7-11.3l1.5,48.7
					c-14.9,0.5-30,3.2-44.8,8.5C470.6,1281.9,438.5,1317.6,425.3,1359.7z"/>
			</g>
		</g>
		<g>
			<g>
				<path class="st63" d="M430.8,1461.4l-44.7,19.4c-1.7-4-3.3-8-4.8-12.1c-14.8-41.4-14.7-84.5-2.5-123.5l46.5,14.5
					c-9.1,29.2-9.2,61.5,1.9,92.6C428.3,1455.4,429.5,1458.4,430.8,1461.4z"/>
			</g>
		</g>
		<g>
			<g>
				<path class="st64" d="M416.3,1529.3c-12.1-14.3-22.4-30.5-30.2-48.4l44.7-19.4c5.8,13.5,13.5,25.6,22.6,36.3L416.3,1529.3z"/>
			</g>
		</g>
	</g>
</g>
<g>
	<path class="st48" d="M946.2,2228.6c0,0-7.1,13.3-11.8,18.6c-4.7,5.3-22.5,14.7-22.6,30.4c-0.1,17,30.1,12.3,41.9,11.7
		c11.8-0.6,12.7-9.7,17.7-19.3c5-9.6,10-8,10.9-15.8c0.9-7.8-4.8-25.5-4.8-25.5H946.2z"/>
	<g>
		<path class="st65" d="M977.1,2223.5c0,0,1.4,7.3,1.1,7.4c-0.3,0.2-33.4,6.1-33.3,0.1c0.1-4.8,3.1-10.4,3.1-10.4L977.1,2223.5z"/>
	</g>
	<g>
		<path class="st16" d="M1280.9,1598.3c0,0,34.8-7.3,37.4-5.8c2.6,1.5,2.8,3.5-0.5,4.3c-3.2,0.8-33.5,8.1-33.5,8.1
			s42.2-1.5,44.6-0.8c1.4,0.4,2,4.2,0.2,4.8c-1.7,0.6-43.6,4.6-43.6,4.6s39.4-1.4,41.2-0.1c1.6,1.1,1.2,4.7-1.7,5.1
			c-2.9,0.3-39.5,3.7-39.5,3.7s28.6,0.9,29.5,2.9c0.5,1.2,1.1,4.5-6.2,4c-7.4-0.5-25,0.3-25,0.3L1280.9,1598.3z"/>
	</g>
	<g>
		<path class="st48" d="M1126,2226.1c0,0,14.5,16.2,29.3,19.6s25.1,7.7,25.2,17.1c0.1,9.3-42.5,15.5-59.4,6.1
			c-25.2-14-27.8-9.8-30.6-16.8c-2.8-7,3.4-25.7,3.2-28C1093.5,2221.4,1126,2226.1,1126,2226.1z"/>
	</g>
	<g>
		<path class="st65" d="M1124.4,2218.4c0,0,1.9,7.6,1.6,7.8c-0.3,0.2-33.3,4.1-32.3-2c0.8-5,2-10.3,2-10.3L1124.4,2218.4z"/>
	</g>
	<g>
		<path class="st66" d="M1094.4,1763c0,0,12,116.5,18.2,156.4c7.3,46.6,9.8,85.2,11.8,109.3c2.6,30.4,3.1,179.7,4.8,188.6
			c1.8,8.9-39.7,2.5-39.7,2.5s-20.4-195.1-28-227.4c-7.1-30.1-33.4-159.7-39.9-151.5c-6.5,8.2-14.5,151.2-19.3,175
			c-4.8,23.7-19.4,209.6-19.4,209.6s-33,6.6-41.8-0.9c0,0-4-160.2-0.9-204.7c1.2-17-19.9-203.4,7.1-278.4
			C961.5,1701.7,1094.4,1763,1094.4,1763z"/>
	</g>
	<g>
		<path class="st67" d="M888.8,1779.5c0,0,20.2,6.1,28.7,4.6c8.5-1.6,4.2-105.5,4.5-127.1c0.3-17.5,9.9-63.9,9.9-63.9s0,0,0,0.1
			c0,0,0,0,0,0.1c0,0,0,0.1,0,0.1c1,3.5,13.9,51.5,14.4,74.6c0.5,24-3.1,115.6-3.1,115.6l35.7,3.5l102.6,2.5l21.4-2.5
			c0,0-2.6-39.2-3.5-57.8c-0.6-11.8-2.9-33-2.3-53.7c0,0-0.4-21.8,1.8-31.1c0.2-41.4,2.7-82.3,2.7-82.3c1.4-18.7,2.4-36.3,2.9-52.6
			c-4.5-2.4-10-5.2-14.3-7.3c-13.5-6.4-32.2-15-44.3-20.6c-7.1-3.2-14-5.6-14-5.6s-48.1-4.6-52-4.4c-1.2,0.1-7.2,2.2-15.1,5.2
			c-17.1,6.5-50,19.7-55.2,23.4c-7.7,5.5-23.9,136.2-24.7,145.4C883.6,1662.2,888.8,1779.5,888.8,1779.5z"/>
	</g>
	<path class="st68" d="M1099.8,1770.7c0,0-70.4,6-132.1,0v20.2c0,0,92.6,13.4,135.2-3.9L1099.8,1770.7z"/>
	<g>
		<path class="st69" d="M1039.7,1479c0,0,11.5,26.9,20.1,87.1c3.3,23.1,9.4,62,13.9,101.7v0c3.5,31.3,11.5,63.4,14.1,87.4
			c2.6,24.8,10.6,97.9,10.6,97.9l19.3-12.1c2.7-2.5,6.6-5.8,5.5-9.4c-5.3-17.1-15.4-73.6-21.4-122.9c0,0,0-0.1,0-0.1
			c-0.3-2.4-0.6-4.7-0.8-7.1c0-0.1,0-0.2,0-0.4c-1.1-9.9-2.1-19.3-2.7-28c-0.5-6.6-0.1-13.1,0.9-19.4c2.7-44.2,4-90.9,4-90.9
			c1.4-19.1,2.2-36.9,2.8-53.6c-3.1-2.4-10-6.1-14.8-8.4C1090.8,1500.9,1047.7,1481.4,1039.7,1479z"/>
	</g>
	<path class="st67" d="M1036.1,1493.1c0,0,1.3,18.4-14.3,18.8c-15.6,0.4-28-14.5-28-14.5l25.9,6.7l15.7-13.3L1036.1,1493.1z"/>
	<g>
		<g>
			<path class="st16" d="M1241.9,1613.2c0,0,11.3-3.2,12.9-9.9c1.3-5.8,6.9-12.5,8.6-14.6c2.3-2.8,6.5-13.9,9.7-11.1
				c3.2,2.8-6.1,18.6-7.4,22.2c-1.3,3.7,14.4-2.8,18-1.7c3.6,1.1,11,28.3-0.2,31.4c-11.2,3.2-24.8-1.1-26.7-0.1
				c-1.9,1-8.1,2.6-8.1,2.6L1241.9,1613.2z"/>
		</g>
	</g>
	<g>
		<path class="st46" d="M1015,1352c0,0,35.7,6,29.7,62c-6.1,55.9-37.6,51-39.7,50.9c-2.1-0.1-31.7,0.7-33.3-67.7
			C971.7,1397.2,971.3,1346.6,1015,1352z"/>
	</g>
	<g>
		<path class="st46" d="M1030.7,1448.7c0,0,0,23,0.9,28c1,5.4-28.7,20.9-47.9,2.8c0,0,3.9-25.2,2.7-34.1
			C985.2,1436.6,1030.7,1448.7,1030.7,1448.7z"/>
	</g>
	<g>
		<path class="st46" d="M1044.9,1400.9c0,0,4-4.1,5.4,0.1c1.4,4.3-5,22.2-5.9,24c0,0-0.7,1.6-1.7,0.7
			C1041.8,1424.8,1044.9,1400.9,1044.9,1400.9z"/>
	</g>
	<g>
		<path class="st46" d="M972.1,1396.6c0,0-3.8-4.3-5.4-0.1c-1.6,4.2,4.1,23,4.9,24.2c0,0,1.2,1.9,2.2,1.1
			C974.8,1420.9,972.1,1396.6,972.1,1396.6z"/>
	</g>
	<g>
		<path class="st44" d="M1047.7,1393.4c-1.2,7.7-2.4,13.3-2.4,13.3l-5.2,6.8c0,0,0.3-15-0.5-17.4c-0.3-0.9-0.7-2.5-1-4.2
			c-0.6-2.8-1.2-6-1.6-7.1c-0.7-1.7-30.6-10.5-57.3,1.8c0,0,0.2,2.3,0.2,4.9c0,3-0.3,6.4-1.7,6.9c-2.6,0.9-1.5,17.6-1.5,17.6
			l-4.2-4.8c0,0-1.2-8.7-2.4-18.7c0,0,0,0,0-0.1c-0.3-2.3-0.5-4.7-0.8-7.1c-0.6-10,0.4-28.3,13.5-39c8.8-3.8,22.9-7,46.4,0.2
			c0,0,5.9,1.7,7.4,3.1C1051.3,1365.8,1047.7,1393.4,1047.7,1393.4z"/>
	</g>
	<path class="st70" d="M988.9,1457.4c0,0,5.7,7.9,19,7.6c13.3-0.3,19-7.2,19-7.2s-6.3,13.1-19.1,13
		C995,1470.7,988.9,1457.4,988.9,1457.4z"/>
	<path class="st71" d="M1033,1494.2l-13.3,9.9c0,0,11.2-23.7,11.4-33.3L1033,1494.2z"/>
	<polygon class="st72" points="1031.1,1470.8 1040.2,1479.2 1049.7,1507.7 1033,1494.2 	"/>
	<g>
		<path class="st69" d="M1256.9,1639.5c0,0-78.7,20.7-97.9,16c-8.9-2.2-20.6-14.5-31.7-28.9c-3.7-4.8-7.3-9.7-10.7-14.7c0,0,0,0,0,0
			c-13.7-19.7-24.4-38.6-24.4-38.6s-40.4-47.3-8-68.4c0,0,13.7-1.4,21.4,4.4c7.2,5.3,24.6,38.6,27.4,44.8
			c2.8,6.2,33.5,63.5,35.6,64.8c2.1,1.3,28.4-3.4,42.2-4.6c22.6-1.9,41.5-7.7,41.5-7.7L1256.9,1639.5z"/>
	</g>
	<path class="st46" d="M1029.4,1479.3c0,0-3.7,12.9-9.7,24.8c0,0-14-12.3-18.4-16.6C996.9,1483.1,1029.4,1479.3,1029.4,1479.3z"/>
	<path class="st71" d="M1005.1,1490.4l14.6,13.7c0,0-17.3-1.1-20.5-4L1005.1,1490.4z"/>
	<path class="st72" d="M985.6,1465.1c0,0,11.7,19,19.4,25.2l-13,21.6l-20.8-37.8L985.6,1465.1z"/>
	<g>
		<path class="st69" d="M923.5,1658c-1.5,20.1,7,131.1-1.5,132.7c-8.5,1.6-39.6-5.3-39.6-5.3s-3.9-119.8-2.7-132.3
			c0.9-9.1,15.5-146.2,23.1-151.7c4.4-3.2,37.3-14.8,53.4-21.2c2.9-1.2,12.3-5.1,14.9-6.1c3.4,3.8,33.2,73.8,36.1,128.3
			c0.9,16.6-3,51.7-6,80.3c-3.2,30.6-6.7,54.4-9.2,80c-5.1,50.4-8.6,90.4-8.6,90.4l-50.1-22.3c-8.1-4.1-19.3-20.7-16.3-29.2
			c11.6-32.4,26.2-87.9,26.2-116.4c0,0-5.6-69.7-10-85C933.3,1600.1,925.4,1632.5,923.5,1658z"/>
	</g>
	<rect x="1016.4" y="1772" class="st73" width="33.2" height="24.7"/>
	<g>
		<polygon class="st53" points="942,1902.3 832.8,1902.3 858.4,1829.6 967.6,1829.6 		"/>
		<polygon class="st74" points="942,1902.3 832.8,1902.3 858.4,1829.6 967.6,1829.6 		"/>
		<polygon class="st75" points="858.4,1975 967.6,1975 942,1902.3 832.8,1902.3 		"/>
		<polygon class="st74" points="942,2047.8 832.8,2047.8 858.4,1975 967.6,1975 		"/>
		<polygon class="st75" points="858.4,2120.5 967.6,2120.5 942,2047.8 832.8,2047.8 		"/>
		<rect x="864.8" y="1841.7" class="st54" width="62.3" height="2.7"/>
		<rect x="861.1" y="1851.5" class="st54" width="62.3" height="2.7"/>
		<rect x="857.1" y="1861.2" class="st54" width="50.4" height="2.7"/>
		<rect x="864.8" y="1986.7" class="st54" width="62.3" height="2.7"/>
		<rect x="861.1" y="1996.4" class="st54" width="31.1" height="2.7"/>
	</g>
	<path class="st16" d="M915.8,1792.1c0,0,0.6,1.9,1.6,5c1.8,5.4,7.5,11.5,4,18.9c-3.5,7.3-29.9,2.7-34-0.7c-4-3.4-2.4-14.7,6.9-29.1
		S915.8,1792.1,915.8,1792.1z"/>
	<path class="st16" d="M922.2,1813.3c0,0-0.3,12.1-2.2,25.5c-1.7,11.8-5.5,26.2-8.4,25.8c-4.5-0.6-0.1-12,0.8-23.8
		c0.8-10.9-1.2-8.9-1.2-8.9s0.6-0.5-2.6,11.1c-3.5,12.5-7.7,25.9-10.2,25.6c-3-0.3-3.4-0.6-2.9-5.4c-0.9,2.7-1.8,2.8-2.9,2.5
		c-6-1.4-3.8-20.6-2.9-28.2c-0.7,5.9-1.9,10.1-5,6.9c-3.6-3.7,0.8-30.7,1.4-40.5C886.7,1793.2,922.2,1813.3,922.2,1813.3z"/>
	<g>
		<path class="st69" d="M924.8,1714.1l-0.5,88.3c0,0-17.6-0.8-41.9-9.7l-1.7-124.5L924.8,1714.1z"/>
	</g>
</g>
<g>
	<g>
		<g>
			
				<linearGradient id="SVGID_00000147920347049170492370000016247378574214769586_" gradientUnits="userSpaceOnUse" x1="728.9545" y1="1774.6246" x2="728.9545" y2="1667.874">
				<stop  offset="0" style="stop-color:#FF9F55"/>
				<stop  offset="1" style="stop-color:#FFD255"/>
			</linearGradient>
			<path style="fill:url(#SVGID_00000147920347049170492370000016247378574214769586_);" d="M783.7,1673.6l-61.3,138.1l-1.6,3.7
				c-3.2,0.4-5.9-0.4-6.8-0.7l1.4-3l60.7-136.7l-88.5-95.1l-13.3-2.9l1.4-6.4l15.3,3.3L783.7,1673.6z"/>
		</g>
		
			<linearGradient id="SVGID_00000098213321783864950920000010592180643372356016_" gradientUnits="userSpaceOnUse" x1="-8638.9639" y1="1826.124" x2="-8582.165" y2="1826.124" gradientTransform="matrix(-1 0 0 1 -7892.9536 0)">
			<stop  offset="0" style="stop-color:#FF9F55"/>
			<stop  offset="1" style="stop-color:#FFD255"/>
		</linearGradient>
		<path style="fill:url(#SVGID_00000098213321783864950920000010592180643372356016_);" d="M689.3,1838.3H746c0,0-0.1-1.4-0.6-3.4
			c-1.7-6.7-7.9-21-30-21c-22.1,0-25.7,14.3-26.1,21C689.1,1837,689.3,1838.3,689.3,1838.3z"/>
		
			<linearGradient id="SVGID_00000062877915061129900740000009522622145633816735_" gradientUnits="userSpaceOnUse" x1="-8578.6582" y1="1586.3776" x2="-8524.4678" y2="1586.3776" gradientTransform="matrix(-1 0 0 1 -7892.9536 0)">
			<stop  offset="0" style="stop-color:#FF9F55"/>
			<stop  offset="1" style="stop-color:#FFD255"/>
		</linearGradient>
		<path style="fill:url(#SVGID_00000062877915061129900740000009522622145633816735_);" d="M631.5,1549.2l3.8,10.9l23.2,65.8
			c9.4-3.3,16.9-9.8,21.6-17.8c5.8-10,7.4-22.3,3.2-34C675.9,1552.8,652.7,1541.7,631.5,1549.2z"/>
		<path class="st79" d="M723.8,1811.7v3c-1.1,0.4-2.1,0.6-3.1,0.7c-3.2,0.4-5.9-0.4-6.8-0.7c-0.3-0.1-0.4-0.1-0.4-0.1v-2.9l1.7,0
			l7.1,0L723.8,1811.7z"/>
		<path class="st80" d="M689.3,1838.3H746c0,0-0.1-1.4-0.6-3.4h-56.1C689.1,1837,689.3,1838.3,689.3,1838.3z"/>
		<path class="st79" d="M631.5,1549.2l3.8,10.9c13.6,10.7,34.6,29.2,44.8,48c5.8-10,7.4-22.3,3.2-34
			C675.9,1552.8,652.7,1541.7,631.5,1549.2z"/>
	</g>
	<g>
		<g>
			<g>
				<g>
					<path class="st16" d="M440.1,1665.7c0,0,9.9-12.5,11.4-14.4c1.6-1.9,7.7-3.6,14.9-5c7.2-1.3,17.3,0.3,18.1,1.3
						c0.8,1,2.1,1.6,2.4,5.1c0.3,3.5-1.2,6.7-1.2,6.7s2.2,4,0.2,7.8c0,0,2,3.9-1.1,7.9c0,0,1.8,3.8-0.6,6.5c0,0-6.2,1.8-8.3,3.1
						c-2.1,1.4-15.1,4.1-27.8,4.6C448.2,1689.5,436.2,1685.6,440.1,1665.7z"/>
				</g>
			</g>
		</g>
	</g>
	<g>
		<g>
			<polygon class="st81" points="155,2051.4 98.6,2286.2 86.2,2286.2 134,2050.9 			"/>
		</g>
	</g>
	<g>
		<g>
			<polygon class="st81" points="216.4,2051.4 160.1,2286.2 147.7,2286.2 195.4,2050.9 			"/>
		</g>
	</g>
	<g>
		<g>
			<polygon class="st81" points="315.7,2051.4 372.1,2286.2 384.5,2286.2 336.7,2050.9 			"/>
		</g>
	</g>
	<g>
		<g>
			<path class="st82" d="M369,2053.7H126.4c0,0-16.9-0.4-28.2-50.5c-12.7-56.3-38.5-244.4-38.5-244.4s6.8-17.5,113.5-15.3l191,247.8
				C364.2,1991.4,370.7,2030.4,369,2053.7z"/>
		</g>
	</g>
	<g>
		<g>
			<path class="st16" d="M376.5,1818.9c0,0,12.4-5.4,21.6-3.2c9.3,2.2,31,10.3,41.7,11.6c10.7,1.3,20.9,7.6,20.7,11.1
				c-0.2,3.6-82.8,6.5-83.2-1.6C377,1828.7,376.5,1818.9,376.5,1818.9z"/>
		</g>
	</g>
	<g>
		<g>
			<g>
				<g>
					<path class="st16" d="M440.1,1665.7c0,0-16.1,10.6-16.5,13.9c-0.6,5.4,2.7,22.1,3.1,21.9c0.4-0.2,24.3-12.1,24.3-12.1
						L440.1,1665.7z"/>
				</g>
			</g>
		</g>
	</g>
	<g>
		<g>
			<g>
				<path class="st66" d="M439.8,2246.2c0,0,20.8,12.4,30.2,17c9.4,4.6,46,6,49.7,9.5c3.6,3.4,2.3,14.4-3.8,15.5
					c-6.1,1.1-50.6,5-65.5,1.5c-14.8-3.5-42.6,2.3-48.8,0.2c-6.1-2.1-2.1-35.3,0.3-42.7C404.3,2239.6,439.8,2246.2,439.8,2246.2z"/>
			</g>
		</g>
	</g>
	<g>
		<g>
			<g>
				<path class="st83" d="M439.5,2232.2l0.3,14c0,0-27.9,5.1-37.9,0.9l0.7-15.4L439.5,2232.2z"/>
			</g>
		</g>
	</g>
	<g>
		<g>
			<g>
				<path class="st69" d="M488.5,2246.2c0,0,20.8,12.4,30.2,17c9.4,4.6,46,6,49.7,9.5c3.6,3.4,2.3,14.4-3.8,15.5
					c-6.1,1.1-50.6,5-65.5,1.5c-14.8-3.5-42.6,2.3-48.8,0.2c-6.1-2.1-2.1-35.3,0.3-42.7C453,2239.6,488.5,2246.2,488.5,2246.2z"/>
			</g>
		</g>
	</g>
	<g>
		<g>
			<g>
				<path class="st83" d="M488.1,2232.2l0.3,14c0,0-27.9,5.1-37.9,0.9l0.7-15.4L488.1,2232.2z"/>
			</g>
		</g>
	</g>
	<g>
		<g>
			<polygon class="st84" points="324.5,1905.5 292.9,1900 314,1846.9 			"/>
		</g>
	</g>
	<g>
		<g>
			<path class="st85" d="M229.8,1916.4c0,0,159,33.7,183.8,44.3c24.8,10.5,39.7,14.9,41.6,20.2c1.9,5.3,40.6,257.4,40.6,257.4H443
				c0,0-40.9-190.4-45.9-202.2c-5-11.8-201.6-12.4-215.8-26.7c-14.3-14.3-26.7-53.3-11.2-88.4
				C185.6,1885.9,229.8,1916.4,229.8,1916.4z"/>
		</g>
	</g>
	<g>
		<g>
			<path class="st85" d="M310.3,1898.6c0,0,182.3,51.3,197.2,74.7c15.2,23.9-60.8,264.8-60.8,264.8h-52.1c0,0,50.2-225.7,44-235.7
				c-6.2-9.9-280.9-0.3-229.8-81.6C260,1839.7,310.3,1898.6,310.3,1898.6z"/>
		</g>
	</g>
	<g>
		<g>
			<path class="st69" d="M291.3,1645.3c6.9-3.6,29.7,4.2,36.5,14.8c15.7,24.5,45.4,54.7,45.4,54.7l66.2-55.7l13.3,33.2l-78.6,66.2
				c-6.7,5.6-16.6,5.3-22.9-0.8c-20.6-20-63.1-62.2-66.4-72.7C280.5,1671,278.2,1652.1,291.3,1645.3z"/>
		</g>
	</g>
	<g>
		<g>
			<path class="st46" d="M268.9,1503.6c0,0,31.6,5.3,31.9,58.9c0.3,53.6-20,58.7-50.9,50.9c-18.6-4.7-36-31-29.1-77.2
				C227.7,1489.9,268.9,1503.6,268.9,1503.6z"/>
		</g>
	</g>
	<g>
		<g>
			<path class="st53" d="M273.1,1631.7c0,0,43.6,15.8,50.1,25.8c6.5,9.9,2.3,99.2-1.4,131.1c-3.7,31.9-14,100.8-11.5,110.1
				L208.9,1921c0,0-32.6-118.5-33.5-137.4c-0.9-18.9-24.8-107-13.3-114.1c11.5-7.1,61.4-35,61.4-35L273.1,1631.7z"/>
		</g>
	</g>
	<g>
		<g>
			<polygon class="st86" points="208.9,1921 203.9,1902.7 310.5,1881.9 310.3,1898.6 			"/>
		</g>
	</g>
	<g>
		<g>
			<polygon class="st87" points="261.9,1890.4 287.2,1885.1 287.2,1905.1 261.9,1911 			"/>
		</g>
	</g>
	<g>
		<g>
			<path class="st69" d="M250.6,1838.4c-0.3,5.2-0.6,10.5-0.9,15.9l-0.1,0.1c-3.6,58.8-9,120.4-9,120.4
				c-7.4,6.2-101.3-15.6-101.3-15.6s11.6-15.7,22.7-59.2c11.2-43.4,2.4-85.1-9.2-155.8c-11.6-70.7-2-70.3-2-70.3l72.6-39.4
				c4.8,18.1,24,83.7,28.5,121.2C253.6,1769.4,252.6,1802.2,250.6,1838.4z"/>
		</g>
	</g>
	<g>
		<g>
			<path class="st69" d="M273.8,1631.8c0,0,21.1,54.6,30.1,110.3c9.1,56.8,8.7,159.5,18.6,162.1c9.9,2.5,6.9,0.8,6.9,0.8
				s-1.9-62.1-2.8-82.7c-2-45.9,6.6-149.5,2.6-160C325.2,1651.8,296.7,1635.9,273.8,1631.8z"/>
		</g>
	</g>
	<g>
		<g>
			<path class="st46" d="M272,1623.2c0,3.3,0.3,6.4,1,8.4c0,0-5.6,21.7-49.6,2.8c0,0,8.7-32.4,0-59.6l49.6,30.8
				c0,0-0.6,4.9-0.9,10.6C272,1618.5,272,1621,272,1623.2z"/>
		</g>
	</g>
	<g>
		<g>
			<path class="st88" d="M225.3,1625.8c0,0,17.3,8.4,34.8,10l-8.5,18.1l-28.1-19.5L225.3,1625.8z"/>
		</g>
	</g>
	<g>
		<g>
			<path class="st88" d="M260,1635.8c0,0,12.2-4,12.1-10l1.7,6l-5,19.1L260,1635.8z"/>
		</g>
	</g>
	<g>
		<g>
			<path class="st89" d="M297.1,1534.6c0,0,8.9-19,2.4-32.9c-6.4-13.9-23.2-8.1-30.8-6.5c-7.6,1.7-22.1-15.3-47.8,5.4
				c-25.6,20.7-18,42.4-6.6,68.2c11.4,25.8,12.8,27.8,12.8,27.8s0.1-26.2,3.2-30.9c3.6-5.5,16.9-8.3,16.9-8.3s-10.1-13.9-0.2-19
				C256.9,1533.3,277.5,1542.8,297.1,1534.6z"/>
		</g>
	</g>
	<g>
		<g>
			<path class="st46" d="M234.2,1552.1c-1.3-4-8-8.5-11.4-1c-3.3,7.4,5.4,20.5,10.1,20.5C237.7,1571.5,237.3,1561.2,234.2,1552.1z"
				/>
		</g>
	</g>
	<g>
		<g>
			<path class="st10" d="M260,1635.8l6.4,10.9c0,0-2.9,3.4-12.4,1.9L260,1635.8z"/>
		</g>
	</g>
	<g>
		<g>
			<path class="st10" d="M265,1647.7c0,0,26,76.6,26.2,130.9c0.2,54.4-4.1,86.8-4.1,86.8l-5.7,10.7l-8.4-9.8
				c0,0,5.9-157.9-17.2-217.5C255.8,1648.9,264.1,1644.9,265,1647.7z"/>
		</g>
	</g>
	<g>
		<g>
			<path class="st69" d="M158.9,1669.5c19-7.8,38.8,18.6,49.3,45c10.5,26.4,30.7,74.3,30.7,74.3l140.8,22.8l2,26.8H217.5
				c0,0-62.6-112.1-66.9-126.1C146.2,1698.3,145.3,1675.1,158.9,1669.5z"/>
		</g>
	</g>
	<g>
		<g>
			<rect x="331.9" y="1838.3" class="st82" width="464.3" height="16"/>
		</g>
	</g>
	<rect x="603.9" y="1558.4" class="st90" width="11.2" height="247.9"/>
	<g>
		<path class="st91" d="M631.3,1838.3H715v-5.1h-83.7c-4.4,0-7.5-1-9.3-3.1c-2.2-2.5-1.9-5.8-1.9-5.8l0-0.2l0-0.1V1716h-5.1v108
			c-0.1,1-0.3,5.7,3.1,9.6C621,1836.7,625.4,1838.3,631.3,1838.3z"/>
	</g>
	<path class="st90" d="M519.6,1829.5h86v8.9h-94.2v-0.7C511.5,1833.1,515.1,1829.5,519.6,1829.5z"/>
	<g>
		<g>
			
				<rect x="747.9" y="1854.3" transform="matrix(-1 -1.224647e-16 1.224647e-16 -1 1508.9316 4143.2007)" class="st92" width="13.2" height="434.5"/>
		</g>
		<g>
			
				<rect x="366.9" y="1854.3" transform="matrix(-1 -1.224647e-16 1.224647e-16 -1 747.0682 4143.2007)" class="st92" width="13.2" height="434.5"/>
		</g>
	</g>
	<path class="st86" d="M250.6,1838.4c-0.3,5.2-0.6,10.5-0.9,15.9l-0.1,0.1c0,0-18.3,2.4-33.6-4.5c-15.4-7-26.1-60-26.8-62.8
		c1.6,3.1,26.2,51.4,32.2,51.4C227.6,1838.4,250.6,1838.4,250.6,1838.4z"/>
	<path class="st20" d="M272.2,1616.2c-0.1,2.3-0.2,4.8-0.1,7c-35,0.5-35.5-19.4-35.5-19.4C241.9,1618.3,272.2,1616.2,272.2,1616.2z"
		/>
	<g>
		
			<rect x="454.9" y="1643.4" transform="matrix(0.7195 -0.6945 0.6945 0.7195 -1007.796 795.9606)" class="st93" width="53.2" height="4.5"/>
		<polygon class="st16" points="499.1,1625.5 506.3,1621.7 502.2,1628.8 		"/>
	</g>
	<g>
		<g>
			<g>
				<g>
					<path class="st94" d="M482.6,1648c0,0-18.1,3.9-18.1,7.2c0.1,3.3,1.9,4.3,1.9,4.3l-7,5.3c0,0-2.9,6.3,4,7.7c0,0-3.3,5.6,3.6,6
						c0,0-0.7,4.7,2.4,5.5c3.1,0.8,14.7-2.2,14.7-2.2s2.8-1.8,1.1-6.5c0,0,3-3.6,1-7.8c0,0,2.1-3.4-0.1-7.9c0,0,3.6-7.7-1.7-11.8
						C484.5,1647.7,483.4,1647.8,482.6,1648z"/>
				</g>
			</g>
		</g>
	</g>
	<g>
		<g>
			<g>
				<g>
					<path class="st16" d="M452.1,1651.2c0,0,11.9,3.8,17.5,9.1c1.3,1.2,2.3,2.6,1.7,4.4c-0.6,1.8-3.6,3.2-8.9,1.9
						c-5.3-1.4-12.7-0.4-12.7-0.4S444.7,1662.9,452.1,1651.2z"/>
				</g>
			</g>
		</g>
	</g>
	<path class="st95" d="M467.4,2056c0,0-11.1-69.5-11.7-72.4c-0.6-2.8-11.9-13-66.1-30.7c0,0,60.2,11.7,76,22
		C477.8,1982.8,467.4,2056,467.4,2056z"/>
	<g>
		<path class="st96" d="M694.2,1838.3c5.9-2.5,15.6-30.6,20.2-45.1c1.6-5.2,2.7-8.6,2.7-8.6h-54.4c4.7,33.6,16.1,53.7,16.1,53.7
			H694.2z"/>
		<path class="st97" d="M698.6,1767.9c0-2,8.7-10.1,13.1-15.5c4.4-5.3-1.7-15.5-1.7-15.5c-19.5,8.1-16.1,31-16.1,31
			S698.6,1769.8,698.6,1767.9z"/>
		<path class="st97" d="M687.5,1768.8h2.4c0,0,1.7-39.5-12.8-44.9c-14.4-5.4-14.4-16.1-14.4-16.1s-4.4,14.8,2.7,22.5
			c7.1,7.7,15.1,16.8,13.8,24.2C677.8,1761.8,687.5,1768.8,687.5,1768.8z"/>
		<path class="st98" d="M714.4,1793.2c1.6-5.2,2.7-8.6,2.7-8.6h-54.4c4.7,33.6,16.1,53.7,16.1,53.7h3.6
			C681.7,1806.9,702.4,1796.6,714.4,1793.2z"/>
		<polygon class="st99" points="717.1,1767.9 662.3,1767.9 659.1,1784.6 719.3,1784.6 		"/>
	</g>
</g>
</svg>
