<?xml version="1.0" encoding="utf-8"?>
<!-- Generator: Adobe Illustrator 25.4.1, SVG Export Plug-In . SVG Version: 6.00 Build 0)  -->
<svg version="1.1" id="Layer_1" xmlns="http://www.w3.org/2000/svg" xmlns:xlink="http://www.w3.org/1999/xlink" x="0px" y="0px"
	 viewBox="0 0 2895.8 2115" style="enable-background:new 0 0 2895.8 2115;" xml:space="preserve">
<style type="text/css">
	.st0{fill:#F5F5F5;}
	.st1{fill:#D6D6D6;}
	.st2{fill:#E8E8E8;}
	.st3{fill:#790016;}
	.st4{opacity:0.5;fill:#790016;}
	.st5{fill:#FFA18F;}
	.st6{opacity:0.5;fill:#FFA18F;}
	.st7{fill:#FFB39F;}
	.st8{opacity:0.5;fill:#FFB39F;}
	.st9{fill:#FFF2DE;}
	.st10{fill:#89201A;}
	.st11{fill:#F98364;}
	.st12{fill:#FFFFFF;}
	.st13{fill:#F05661;}
	.st14{fill:#EE2346;}
	.st15{fill:#FBA486;}
	.st16{opacity:0.5;fill:#FBA486;}
	.st17{fill:#59C1B9;}
	.st18{fill:#4D93B8;}
	.st19{opacity:0.5;fill:#59C1B9;}
	.st20{fill:#CEEBF0;}
	.st21{fill:#80DAD7;}
	.st22{fill:#B2CACC;}
	.st23{fill:#8ADAE2;}
	.st24{fill:#4C98CB;}
	.st25{fill:#9F73A1;}
	.st26{fill:#FFEBC6;}
	.st27{fill:#F05B82;}
	.st28{opacity:0.5;fill:#80DAD7;}
	.st29{fill:#632911;}
	.st30{opacity:0.5;fill:#632911;}
</style>
<g id="Background">
</g>
<path class="st0" d="M2188.3,1551.2c-54.1-28.4-93.6-81.8-104-140.7c-25.4-144,123.4-245.8,214.4-335
	c86.2-84.4,179-186.1,165.6-304.2c-8.8-77.4-64.7-144.6-133.8-184.3c-69.1-39.7-150.1-55.3-230-62.3c-68-6-146.5-11.3-186.3-65.2
	c-65.2-88.4,34.2-217.6-9.1-317.9c-39-90.3-164.2-102.3-264.9-95.5c-296.6,20-606.3,88.6-823,286.1
	C735,407.2,632.8,485.5,557.3,566.8c-75.5,81.3-144.3,174.2-165,281.8c-20.6,107.6,18.5,232.1,116.7,286
	c93.8,51.5,187.9,35.1,250,137.3c15,24.6,27.1,51.3,31.1,79.7c21.7,156.1-152,320.3-245.1,425.6c-37.8,42.8-76.7,87.4-92.9,141.6
	c-0.2,0.5-0.3,1.1-0.5,1.6c-21.7,75.4,38.1,149.9,118.8,149.9h1700.4c60.8,0,112.8-43.1,121.5-101.5
	C2419.6,1786.2,2316.1,1618.4,2188.3,1551.2z"/>
<g>
	<g>
		<g>
			<path class="st1" d="M450.4,1717c-7.3-19.4-20.5-37.2-19-58.8c1.6-21.7,18-38.4,17.9-60.2c-0.1-32.2-35.1-49.8-35.2-82.1
				c0-10.9,4.1-21,6-31.6c3.1-18-0.8-37.8-10.2-51.4c-6.6-9.6-15.5-15.9-22.5-25c-7-9.1-12.2-22.8-8.5-34.8
				c-2.5-10.6-11.5-20.1-19.8-18.1c-8.2-2-17.3,7.6-19.8,18.1c3.7,12-1.5,25.8-8.5,34.8c-7,9.1-15.9,15.4-22.5,25
				c-9.4,13.6-13.4,33.5-10.2,51.4c1.8,10.6,6,20.7,6,31.6c-0.1,32.2-35.1,49.8-35.2,82.1c0,21.8,16.4,38.5,17.9,60.2
				c1.5,21.6-11.7,39.4-19,58.8c-8.2,22-8.6,49.7,1.6,70.2c29.4,48.9,149.9,48.9,179.3,0C459,1766.7,458.6,1739,450.4,1717z"/>
		</g>
		<path class="st0" d="M434.5,1680.3c-22.4,23.7-57.4,41.2-71.1,47.6v-87.7c6-2.6,20.1-9.2,35.9-18.9c20.8-12.7,36.5-25.9,47-39.2
			c-1-2.6-2.1-5.1-3.4-7.6c-20.7,28.8-63.9,50.5-79.5,57.7v-87.6c8.5-3.3,32.1-13.3,50.8-27.7c0-0.3,0-0.6,0-0.9
			c0-3.1,0.3-6.2,0.9-9.2c-16.6,14.5-40.8,25.4-51.6,29.9v-85.5c7.6-3.1,27.3-11.8,41.8-24.2c-1.6-1.8-3.3-3.6-5-5.3
			c-12,10.2-28.3,17.9-36.8,21.6v-76.5c0-2.4-2-4.4-4.4-4.4c-2.4,0-4.4,2-4.4,4.4v126.9c-10.9-4.3-40.1-16.7-56.9-33.4
			c-0.5,3-0.7,6.1-0.8,9.1c19.9,17.3,49.8,29.1,57.7,32v75.7c-11.3-4.4-42.1-17.6-58.5-35.1c-1.2,2.2-2.6,4.3-3.9,6.4
			c19.5,19.7,53.9,33.3,62.5,36.5v82c-12-3.7-47.7-15.4-74.4-31.7c1.5,3.5,2.9,7.1,4.1,10.8c28.2,15.6,61.5,25.9,70.3,28.5v102.3
			c-13.3-3.5-57.3-15.7-92.7-33c-0.2,2.7-0.3,5.3-0.3,8c10.9,5.2,23.4,10.4,37.4,15.4c25.5,9.2,48.5,15.3,55.6,17.1v39.5
			c2.9,0.1,5.9,0.1,8.8,0v-87.9c6-2.6,20.1-9.2,35.9-18.9c15.5-9.5,28.2-19.2,38-29.1C436.3,1685.4,435.4,1682.9,434.5,1680.3z"/>
	</g>
	<g>
		<path class="st2" d="M517.9,1763.6c-2.3-15.6-8.6-31.7-2.8-47.8c5.9-16.2,21.8-24.7,27.5-40.3c8.7-22.9-9.9-46.1,1.6-69.8
			c3.9-7.9,10.5-13.7,15.8-20.5c9-11.5,14.6-26.6,14.6-39.7c0-9.2-2.7-17.3-2.8-26.5c-0.1-9.2,3.5-21.1,11.9-27.7
			c3.9-8.3,3.7-18.9-2.3-21.3c-3.8-5.2-14.5-2.7-21.6,3.8c-4.2,10.2-14.4,17.8-23.3,21.6c-9,3.8-17.7,5-26.7,9.8
			c-12.7,6.8-24.8,21.1-30.7,36.8c-3.5,9.2-4.9,18.8-9.4,27.7c-12.8,26.1-43.6,31-54.6,59.7c-7.2,19.4-0.3,37.9-4.7,57.4
			c-4.3,19.4-17.9,33.1-27,50.1c-10.4,19.1-14.9,45.5-9.3,65.5c17.5,48.8,108.4,48.6,133.9,14.5
			C517.4,1801.9,520.4,1781.4,517.9,1763.6z"/>
		<path class="st1" d="M574.4,1542c-17.2,5.3-32.8,5.6-41,5.3c10.5-18.2,22.1-36.2,34.8-53.8c1.2-1.6,0.8-3.9-0.8-5.1
			c-1.6-1.2-3.9-0.8-5.1,0.8c-13.8,19-26.2,38.6-37.4,58.2c-0.8,0.6-1.4,1.4-1.5,2.5c0,0.1,0,0.1,0,0.2
			c-5.2,9.2-10.1,18.4-14.8,27.6c-6.4-4.1-21.2-15.1-30.3-33.7c-1.1,3.3-2.1,6.6-3,9.9c10.1,16.9,23.9,26.7,30,30.4
			c-6.2,12.4-11.9,24.8-17.2,37.1c-1.2,0.3-2.7,4.4-2.2,5.2c-4.2,9.9-8.1,19.6-11.7,29.3c-7.4-4.5-31.3-21.3-39.5-52
			c-2.1,1.7-4.1,3.5-6.1,5.4c10.2,33,36.4,49.7,43,53.5c-8.6,23.3-15.8,45.7-21.6,66.3c-10-5.7-29.4-19.2-39.3-43.4
			c-0.1,0.3-0.1,0.6-0.2,0.8c-0.8,3.4-1.8,6.6-3,9.7c11.9,22.8,31,35.2,40.5,40.2c-6.9,25-11.9,47.2-15.4,65.1
			c-11.7-5.1-41.7-21-54.5-52.8c-1.3,3.4-2.3,6.9-3.2,10.5c15.8,30.6,45.6,45.2,56.3,49.6c-2.5,13.1-4,23.3-5,30.1
			c2.4,0.4,4.8,0.8,7.2,1c1-6.8,2.6-17.1,5-30.3c0.5-0.4,1.4-3.8,0.9-4.7c1.3-6.7,2.8-14.1,4.6-22.1c3.5,0.5,10.8,1.3,20.8,1.3
			c14.1,0,33.4-1.6,54.2-8c0-2.5-0.1-5.1-0.3-7.6c-33.7,10.7-64.2,8.2-73,7.1c2.6-11.2,5.6-23.4,9.2-36.4c0.1,0,0.2,0,0.3,0
			c1.4,0,3.3-6.1,1.6-6.9c2.3-8.2,4.9-16.7,7.6-25.5c2.8,0.4,9.4,1.2,18.6,1.2c10.5,0,24.3-1,39.4-4.8c2.7-3.5,5.7-6.8,8.6-10.1
			c-29.5,9.7-56.4,7.6-64.4,6.6c7.2-22.3,15.9-46.1,26.2-70.5c5.5,1.1,15.8,2.8,28.7,2.8c6,0,12.6-0.4,19.5-1.3
			c-0.3-2.4-0.5-4.9-0.5-7.3c-19.7,2.7-36.5,0.5-44.8-1c9.8-22.5,21-45.5,33.8-68.3c2.1,0.2,5.1,0.4,9,0.4c8.8,0,21.7-1,35.9-5.1
			c0.1-1.4,0.2-2.8,0.2-4.2C574.6,1544.3,574.5,1543.2,574.4,1542z"/>
	</g>
	<g>
		<path class="st2" d="M203.3,1753.6c2.3-15.6,8.6-31.7,2.8-47.8c-5.9-16.2-21.8-24.7-27.5-40.3c-8.7-22.9,9.9-46.1-1.6-69.8
			c-3.9-7.9-10.5-13.7-15.8-20.5c-9-11.5-14.6-26.6-14.6-39.7c0-9.2,2.7-17.3,2.8-26.5c0.1-9.2-3.5-21.1-11.9-27.7
			c-3.9-8.3-3.7-18.9,2.3-21.3c3.8-5.2,14.5-2.7,21.6,3.8c4.2,10.2,14.4,17.8,23.3,21.6c9,3.8,17.7,5,26.7,9.8
			c12.7,6.8,24.8,21.1,30.7,36.8c3.5,9.2,4.9,18.8,9.4,27.7c12.8,26.1,43.6,31,54.6,59.7c7.2,19.4,0.3,37.9,4.7,57.4
			c4.3,19.4,17.9,33.1,27,50.1c10.4,19.1,14.9,45.5,9.3,65.5c-17.5,48.8-108.4,48.6-133.9,14.5
			C203.8,1791.9,200.8,1771.4,203.3,1753.6z"/>
		<path class="st1" d="M146.8,1532c17.2,5.3,32.8,5.6,41,5.3c-10.5-18.2-22.1-36.2-34.8-53.8c-1.2-1.6-0.8-3.9,0.8-5.1
			c1.6-1.2,3.9-0.8,5.1,0.8c13.8,19,26.2,38.6,37.4,58.2c0.8,0.6,1.4,1.4,1.5,2.5c0,0.1,0,0.1,0,0.2c5.2,9.2,10.1,18.4,14.8,27.6
			c6.4-4.1,21.2-15.1,30.3-33.7c1.1,3.3,2.1,6.6,3,9.9c-10.1,16.9-23.9,26.7-30,30.4c6.2,12.4,11.9,24.8,17.2,37.1
			c1.2,0.3,2.7,4.4,2.2,5.2c4.2,9.9,8.1,19.6,11.7,29.3c7.4-4.5,31.3-21.3,39.5-52c2.1,1.7,4.1,3.5,6.1,5.4
			c-10.2,33-36.4,49.7-43,53.5c8.6,23.3,15.8,45.7,21.6,66.3c10-5.7,29.4-19.2,39.3-43.4c0.1,0.3,0.1,0.6,0.2,0.8
			c0.8,3.4,1.8,6.6,3,9.7c-11.9,22.8-31,35.2-40.5,40.2c6.9,25,11.9,47.2,15.4,65.1c11.7-5.1,41.7-21,54.5-52.8
			c1.3,3.4,2.3,6.9,3.2,10.5c-15.8,30.6-45.6,45.2-56.3,49.6c2.5,13.1,4,23.3,5,30.1c-2.4,0.4-4.8,0.8-7.2,1c-1-6.8-2.6-17.1-5-30.3
			c-0.5-0.4-1.4-3.8-0.9-4.7c-1.3-6.7-2.8-14.1-4.6-22.1c-3.5,0.5-10.8,1.3-20.8,1.3c-14.1,0-33.4-1.6-54.2-8c0-2.5,0.1-5.1,0.3-7.6
			c33.7,10.7,64.2,8.2,73,7.1c-2.6-11.2-5.6-23.4-9.2-36.4c-0.1,0-0.2,0-0.3,0c-1.4,0-3.3-6.1-1.6-6.9c-2.3-8.2-4.9-16.7-7.6-25.5
			c-2.8,0.4-9.4,1.2-18.6,1.2c-10.5,0-24.3-1-39.4-4.8c-2.7-3.5-5.7-6.8-8.6-10.1c29.5,9.7,56.4,7.6,64.4,6.6
			c-7.2-22.3-15.9-46.1-26.2-70.5c-5.5,1.1-15.8,2.8-28.7,2.8c-6,0-12.6-0.4-19.5-1.3c0.3-2.4,0.5-4.9,0.5-7.3
			c19.7,2.7,36.5,0.5,44.8-1c-9.8-22.5-21-45.5-33.8-68.3c-2.1,0.2-5.1,0.4-9,0.4c-8.8,0-21.7-1-35.9-5.1c-0.1-1.4-0.2-2.8-0.2-4.2
			C146.6,1534.4,146.7,1533.2,146.8,1532z"/>
	</g>
	<polygon class="st1" points="471.1,2017.3 247,2017.3 192.2,1823.9 525.9,1823.9 	"/>
</g>
<g>
	<path class="st1" d="M2328.8,1362.5c0,0-1.1,52,48.4,57c5.8,6.3,6,10.1,6,10.1s-28.3,17.3-62.4-14.1c-18.5-16.7-3.1-58.1-3.1-58.1
		S2322.8,1351.7,2328.8,1362.5z"/>
	<path class="st2" d="M2305.3,1362.2c0,0,9.4,53.6,63.9,48.6c7.5,5.3,8.6,9.1,8.6,9.1s-27,23.6-70.2-1.6
		c-23.4-13.4-15.2-59.1-15.2-59.1S2296.6,1352.4,2305.3,1362.2z"/>
	<g>
		<circle class="st1" cx="2389.2" cy="1381.5" r="13.5"/>
		<circle class="st1" cx="2402.7" cy="1395" r="13.5"/>
		<path class="st2" d="M2393.1,1395c0,7.4-6,13.5-13.5,13.5c-7.4,0-13.5-6-13.5-13.5s6-13.5,13.5-13.5
			C2387.1,1381.5,2393.1,1387.5,2393.1,1395z"/>
		<path class="st2" d="M2429.7,1408.4c0,7.4-6,13.5-13.5,13.5s-13.5-6-13.5-13.5c0-7.4,6-13.5,13.5-13.5S2429.7,1401,2429.7,1408.4z
			"/>
		<path class="st1" d="M2380.8,1408.4c0,7.4-6,13.5-13.5,13.5s-13.5-6-13.5-13.5c0-7.4,6-13.5,13.5-13.5S2380.8,1401,2380.8,1408.4z
			"/>
		<path class="st2" d="M2404.5,1406.7c0,7.4-6,13.5-13.5,13.5s-13.5-6-13.5-13.5c0-7.4,6-13.5,13.5-13.5
			S2404.5,1399.3,2404.5,1406.7z"/>
	</g>
	<g>
		<g>
			<rect x="2551.9" y="1238" class="st2" width="19.3" height="118.9"/>
		</g>
		<path class="st2" d="M2604.3,1374.9c-12.6-4.6-13.9-48.2-13.9-48.2h-28.9h-28.9c0,0-1.3,43.6-13.9,48.2
			c-12.6,4.6-32.8,12.8-32.8,46c0,22.1,21.2,37.8,75.6,37.8s75.6-15.7,75.6-37.8C2637.1,1387.7,2616.9,1379.5,2604.3,1374.9z"/>
		<polygon class="st1" points="2617.9,1153 2561.6,1153 2505.2,1153 2464.6,1265.4 2561.6,1265.4 2658.5,1265.4 		"/>
	</g>
	<g>
		<polygon class="st1" points="2237.3,1447.8 2237.3,2002.6 2279.6,2002.6 2279.6,1870.4 2630.3,1870.4 2630.3,2002.6 
			2672.7,2002.6 2672.7,1447.8 		"/>
		<rect x="2278.9" y="1479.2" class="st2" width="352.1" height="104.6"/>
		<rect x="2278.9" y="1605.3" class="st2" width="352.1" height="104.6"/>
		<rect x="2278.9" y="1731.4" class="st2" width="352.1" height="104.6"/>
		<rect x="2410" y="1522.6" class="st1" width="89.9" height="17.9"/>
		<rect x="2410" y="1648.7" class="st1" width="89.9" height="17.9"/>
		<rect x="2410" y="1774.8" class="st1" width="89.9" height="17.9"/>
	</g>
	<path class="st2" d="M2287.9,1410.6c0,20.6,16.7,37.2,37.2,37.2h78.1c20.6,0,37.2-16.7,37.2-37.2H2287.9z"/>
</g>
<g>
	<path class="st0" d="M1995.7,1885.1c-134.6,0-252.8,17-320.5,42.7c-67.7-25.7-185.9-42.7-320.5-42.7c-149.7,0-279.1,21-341.3,51.6
		c-51.9-9.8-116.9-15.6-187.6-15.6c-169.2,0-306.5,33.4-306.5,74.6c0,41.2,137.2,74.6,306.5,74.6c101.2,0,190.9-11.9,246.7-30.3
		c69.6,18.7,170.3,30.5,282.2,30.5c134.6,0,252.8-17,320.5-42.7c67.7,25.7,185.9,42.7,320.5,42.7c210.2,0,380.6-41.5,380.6-92.6
		S2205.9,1885.1,1995.7,1885.1z"/>
	<g>
		<path class="st3" d="M1796.9,605.7c0,0,55-62.2,20.6-165.7c-29.1-87.3-55.4-302.9,155.1-312.6c34.6-4.2,148.1-3.3,191,132.3
			s-35.4,222.6,34.9,343.8C2139.1,628.6,1903.5,650,1796.9,605.7z"/>
		<path class="st4" d="M2175.9,385.5c-32.8,37.8-163.4,165.8-355.6,63.5c28.5,98.1-23.3,156.7-23.3,156.7
			c106.6,44.3,342.2,22.9,401.6-2C2152.3,523.9,2170.3,459.1,2175.9,385.5z"/>
		<path class="st3" d="M2122.7,1829.6c0,0,16.5,17.1,32.2,31.9c15.7,14.8,24.9,29.5,31.4,42.4c6.5,12.9-21.2,21.4-21.2,21.4
			l-14.1-13.6c0,0-28.2,76.9-126.9,83.5c-13.8-2.8-4.8-22.1,13.7-41.5c18.5-19.4,36.7-62.1,24.3-85.7
			C2072.7,1843,2110.1,1824.9,2122.7,1829.6z"/>
		<path class="st5" d="M2122.7,1829.6c-3.8-49.3-51.2-180.7-128.3-254.2c5.9-75.7,66.1-285.4,10.6-309.8c-66.4-29.2-140.4,0-140.4,0
			s-5.7,236.9,15.1,316.6c26.6,39.8,163.2,242.2,182.2,285.9c10.6,20.1-1,53.8-16.1,75.4c7,7,19.4,5,41.6-10.5
			C2130.5,1902.7,2122.7,1829.6,2122.7,1829.6z"/>
		<path class="st6" d="M1994.4,1575.3c3.1-39.8,21.2-116.7,29.6-184.2c-52.9-18.3-118.2-35.7-123.2-34.6c-2.8,0.7-18,12-36.7,26.6
			c1,71.6,4.6,157,15.6,199c18.1,27.2,87.4,129.8,135.7,206.3c14.4-35.5,29.5-93.2,39.7-135.5
			C2037.8,1624.4,2017.4,1597.3,1994.4,1575.3z"/>
		<path class="st3" d="M1925.2,1892.4c0,0,1.4,19.4,4,40.8c2.6,21.4-1.5,30.6-4.8,44.7c-3.3,14.1-30,2.8-30,2.8l-0.4-11.4
			c0,0-70.8,41.1-151-16.9c-8.9-11,10.5-20.1,37.1-23.2c26.6-3.1,71.1-18.3,76.7-44.4C1881,1872.4,1918.5,1880.8,1925.2,1892.4z"/>
		<path class="st7" d="M1987.8,1281.7c0,0-61.7,225.4-75.1,300.5c-13.5,75.1-55.9,302.4-55.9,302.4c-4.4,20.6-33.1,34.4-58.1,40.9
			c-1.9,11.7,12.3,20.2,50.2,15.5c48.2-6,76.3-48.6,76.3-48.6l0,0c22.3-31.7,83.8-162.1,83.8-250.4c27-52,86.7-134.8,115.6-248.5
			C2153.4,1279.8,2059,1277.9,1987.8,1281.7z"/>
		<path class="st8" d="M2124.5,1393.5c3.5-13.8,5.2-25.9,5.3-36.5c-43.5-2.5-109.2,9.1-120.2,11.3c-5.3,1.1-25.7,9-50,18.9
			c-18.1,69.3-39.7,154.4-47,195.1c-2.8,15.9-7,38.5-11.7,64.4c15.7-16.9,28.9-41.6,50.3-63c25-25,90.1-51.5,126.2-65
			C2095.3,1482.2,2112.6,1440.5,2124.5,1393.5z"/>
		<path class="st7" d="M1901.5,543.8c-33.3-1.4-46.9,37.1-46.9,37.1c0,0.3-0.1,1.7-0.1,2.7l-0.2,3.3l-0.5,6.9
			c-0.4,4.6-0.9,9.3-1.5,14c-1.2,9.4-2.6,18.7-4.4,28c-3.5,18.5-8.3,36.6-14.4,53.5c-8.3,23.2-20.3,47.8-39.1,64.5
			c-18.8,16.7-44.4,24.5-67.8,32.1c-18.7,6.1-37.9,11.5-57.4,16.1c-19.5,4.6-39.4,8.6-59.3,12c-10,1.7-20,3.3-30,4.7
			c-9.9,1.4-14.5,2.1-23.9,3l0,0c-3-3-6.7-5.3-11.1-6.7c0,0-16.2-16.5-29.6-14.2c-13.4,2.2-30-6.7-35.5-4.9
			c-5.6,1.8,6.6,22.3,26.5,23.8c8.2,1-5.5,17.6-34.9,13.7c-29.4-4-36.1-7.8-41.2-1.4c-5.1,6.4-5.2,42.3,18.8,52.5
			c22.6,9.6,70.6,9.1,106.8-7.2v0c11.5-0.4,170.3-14.2,191.8-19.7c49.4-13.1,95.9-30.7,128.9-71.8c8-10,15.1-20.5,21.4-31.1
			c6.2-10.6,11.6-21.4,16.5-32.3c9.6-21.8,17-43.8,22.8-66.1c2.9-11.1,5.5-22.3,7.6-33.6c1.1-5.6,2.1-11.3,3-17l1.3-8.7l0.6-4.5
			l0.6-5.1C1950.1,587.3,1934.8,545.2,1901.5,543.8z"/>
		<path class="st8" d="M1884.8,661.5l-41.4-5.9c-2.8,11.5-6.1,22.8-10,33.6c-6.5,18.1-15.3,37-27.7,52.4
			c11,20.9,28.3,57.4,28.4,81.3c15.6-9.8,29.8-21.9,42.2-37.3c8-10,15.1-20.5,21.4-31.1c6.2-10.6,11.6-21.4,16.5-32.3
			c2.2-5.1,4.4-10.2,6.4-15.4L1884.8,661.5z"/>
		<path class="st9" d="M1812.6,692.3c0,0,40.9,34.5,119.8,24.8c0,0,69.6-150.5-22.2-185.7C1871.9,518.6,1833,551.4,1812.6,692.3z"/>
		<path class="st7" d="M2020,162.3c-12.3-4.3-25.3-6-38.3-5.2c-40.1,2.4-124.9,18.8-142.9,112.7c-23.8,124,21,232,139.7,232
			c63.7,0.2,161.4-64.7,140.2-224.5C2110.3,235.3,2096.2,188.8,2020,162.3z"/>
		<path class="st7" d="M2112.5,355.9c0,0,17.4-16.4,31-4.1c13.6,12.3,9.2,53.2-22.5,68.2C2089.3,435,2080.9,404.6,2112.5,355.9z"/>
		<path class="st3" d="M1889.3,324.5c8.9-0.3,16.3,6.7,16.6,15.5l0.6,18.9c0.3,8.9-6.7,16.3-15.5,16.6c-8.9,0.3-16.3-6.7-16.6-15.5
			l-0.6-18.9C1873.5,332.2,1880.5,324.8,1889.3,324.5z"/>
		<path class="st10" d="M2005.9,430c0,0-49.4,12.6-84.6,0.9c4.2,28.2,18.3,44.9,48.2,43.5C1999.3,473,2005.9,430,2005.9,430z"/>
		<path class="st11" d="M1949.4,340.5l-9.5,21.7c-3.1,7.3-6.2,14.5-9.6,21.5c-0.9,1.7-1.7,3.5-2.6,5.1c-0.5,0.8-0.9,1.7-1.4,2.3
			l-0.7,1.1c-0.4,0.8-0.8,1.6-1.1,2.4c-0.5,1.8-0.6,4,0.2,5.8c0.3,1,0.8,1.6,1.3,2.4c0.5,0.8,1,1.3,1.5,1.8c2.1,2.1,4.3,3,6.4,3.9
			c4.3,1.5,8.5,2.2,12.7,2.3c4.2,0.1,8.4-0.3,12.4-1.8c0.3-0.1,0.4-0.4,0.3-0.6c-0.1-0.1-0.2-0.3-0.3-0.3c-7.7-2.4-15.1-4.8-21.2-8
			c-1.4-0.8-2.8-1.7-3.5-2.4c-0.2-0.2-0.4-0.3-0.4-0.4c-0.1-0.1-0.3-0.2-0.2-0.2c-0.1,0-0.1,0.2-0.2,0.1c0-0.1,0-0.2,0-0.4l0.6-1.5
			c0.5-1.1,0.8-2,1.2-3c0.7-1.9,1.4-3.8,2-5.7c5.1-15.2,9.3-30.4,13-45.8c0.1-0.3-0.1-0.5-0.3-0.6
			C1949.7,340.2,1949.5,340.3,1949.4,340.5z"/>
		<path class="st9" d="M1994.3,514.6c0,0-51.2-1-88.3,14.4c-19.9,8.1-53.3,72.2-67.7,95.7c-14.4,23.5,21.8,117.7,30.4,138.7
			c13.4,32.8-36.2,134.5-76.7,245.1c-38.2,104.4,24.2,458.7,30.5,468.8c41.1,13.3,199.2,50,300.4,0c31.6-75.3,98-344.7,63.3-482
			C2151.3,858,2081.7,810,2084.9,736c3.2-74,44.3-171.5,31.6-191.6C2103.9,524.2,2037.5,511.6,1994.3,514.6z"/>
		<path class="st7" d="M1959.2,478c0,0,9.6,32.8,0,47.8c-13,4.1-41.6,30-15,53.2c26.6,23.2,69.6,4.8,82.6-15.7
			c9.6-15-2-33.4-15.7-38.9c0-15,2-38.9-1.4-49.8C1999.4,475.9,1959.2,478,1959.2,478z"/>
		<path class="st3" d="M1985.8,300.9c4.8-6.3,12-10.1,19.6-12.1c3.8-1.1,7.8-1.3,11.7-1.1c3.9,0.4,7.8,1,11.5,2.1
			c7.4,2,14.3,4.7,20.9,8.3c6.5,3.7,12.7,7.9,17.5,13.7c0.2,0.2,0.1,0.5-0.1,0.7c-0.2,0.1-0.4,0.1-0.6,0l0,0
			c-5.6-4.4-12.1-7.7-18.8-10.1c-6.6-2.5-13.6-4.3-20.4-5.2c-6.8-0.9-13.5,0.2-20.1,0.8c-6.7,0.7-13.4,2-20.8,3.7l-0.1,0
			c-0.3,0.1-0.5-0.1-0.6-0.4C1985.7,301.1,1985.8,301,1985.8,300.9z"/>
		<path class="st3" d="M1923.3,306c-7.3-1.7-14.1-3.1-20.8-3.7c-6.6-0.6-13.3-1.8-20.1-0.8c-6.8,0.9-13.9,2.7-20.4,5.2
			c-6.7,2.4-13.2,5.6-18.8,10.1l0,0c-0.2,0.2-0.5,0.1-0.7-0.1c-0.1-0.2-0.1-0.4,0-0.6c4.8-5.7,11-10,17.5-13.7
			c6.6-3.5,13.5-6.3,20.9-8.3c3.7-1.1,7.6-1.6,11.5-2.1c3.9-0.2,7.9,0,11.7,1.1c7.5,2.1,14.7,5.9,19.6,12.1c0.2,0.2,0.1,0.5-0.1,0.7
			C1923.6,306,1923.5,306.1,1923.3,306L1923.3,306z"/>
		<path class="st3" d="M1986.3,135.5c-45-0.9-170.7,32.8-162.5,161.2c0,0,10.7-4.5,31.4-9.4l8.7-37l10.5,32.9
			c9.7-1.8,20.7-3.5,33.1-5l6.1-21.8l5.6,20.6c10.8-1,22.5-1.8,35-2.2l13.3-35.8l6.5,35.4c0.7,0,1.4,0,2.2,0c6,0,11.9,0.2,17.6,0.6
			l10.3-27.8l5.4,29.4c37.8,4.7,64.6,15.6,64.6,15.6l15.5-34.6c0,0-15,124,11.2,155.8c8.8-4.6,32.5-51.9,35.3-77.9
			C2138.9,309.5,2157.8,145.5,1986.3,135.5z"/>
		<path class="st3" d="M1897.8,326.9c0,0,9.4,4.3,16.8,0c0,0-5.6,8.2-12.9,6.7C1894.3,332.1,1897.8,326.9,1897.8,326.9z"/>
		<g>
			<path class="st3" d="M2016.6,324.5c8.9-0.3,16.3,6.7,16.6,15.5l0.6,18.9c0.3,8.9-6.7,16.3-15.5,16.6c-8.9,0.3-16.3-6.7-16.6-15.5
				l-0.6-18.9C2000.8,332.2,2007.7,324.8,2016.6,324.5z"/>
			<path class="st3" d="M2025.4,326.9c0,0,9.4,4.3,16.8,0c0,0-5.6,8.2-12.9,6.7C2021.9,332.1,2025.4,326.9,2025.4,326.9z"/>
			<circle class="st12" cx="2020.6" cy="336.9" r="7.5"/>
		</g>
		<path class="st12" d="M1901.2,336.9c0,4.1-3.3,7.5-7.4,7.5c-4.1,0-7.5-3.3-7.5-7.5c0-4.1,3.3-7.5,7.5-7.5
			C1897.9,329.5,1901.2,332.8,1901.2,336.9z"/>
		<path class="st9" d="M1848.7,225c0,0,5.3-129.1,114.9-136.2c109.6-7.1,123.4,143.1,123.4,143.1S1982.5,169.9,1848.7,225z"/>
		<path class="st13" d="M2004.1,437.9c-9.1-0.3-49.9-0.2-66.7,27.2c7.7,6.5,18.1,9.9,32,9.2C1991.1,473.4,2000.5,450.4,2004.1,437.9
			z"/>
		<g>
			<rect x="1955.1" y="114" class="st14" width="17.1" height="62.1"/>
			
				<rect x="1955.1" y="114" transform="matrix(-1.836970e-16 1 -1 -1.836970e-16 2108.6328 -1818.547)" class="st14" width="17.1" height="62.1"/>
		</g>
		<path class="st14" d="M1969.3,634.4c0,6.8-5.5,12.3-12.3,12.3c-6.8,0-12.3-5.5-12.3-12.3c0-6.8,5.5-12.3,12.3-12.3
			C1963.9,622.2,1969.3,627.7,1969.3,634.4z"/>
		<path class="st14" d="M1969.3,709c0,6.8-5.5,12.3-12.3,12.3c-6.8,0-12.3-5.5-12.3-12.3s5.5-12.3,12.3-12.3
			C1963.9,696.8,1969.3,702.3,1969.3,709z"/>
		<path class="st9" d="M1907.4,1024.5c118.6-18.5,213.3-69.9,256.1-98.1c-11.8-28.8-24.6-52.7-36.4-74c-68,27.7-199.6,79.5-276.1,99
			c-16.6,4.2-31.2,10.1-43.9,17.1c-5.1,13.1-10.2,26.5-15.1,40c-5.8,15.8-9.3,37.4-11,62.6C1812.9,1062.6,1851.3,1041,1907.4,1024.5
			z"/>
		<path class="st7" d="M2199.5,821.7l-2.1-20.7l-2.6-18.7c-3.8-24.7-8.8-48.7-14.2-72.3c-5.4-23.7-11.4-47-17.8-70.2
			c-6.4-23.3-13-46-20.4-69.6c0,0-14.3-38.8-56.9-27.6c-42.6,11.2-30.4,57.9-30.4,57.9c7.8,21,15.5,43.1,22.7,64.9
			c7.2,21.9,14,43.8,20.3,65.7c6.2,21.9,11.9,43.9,16.4,65.5l3.1,16.2l1.2,7.7c-0.7,0.7-1.4,1.4-2.3,2.1c-6.1,5.3-14.6,11-23.6,16.3
			c-9,5.3-18.7,10.4-28.6,15.3c-19.9,9.7-40.8,18.6-62,26.9c-21.2,8.3-104.5,38.4-124.5,43.7c-1.7-0.8-3.4-1.6-5.3-2.1
			c0,0-16.9-15.8-30.2-13c-13.3,2.8-30.2-5.5-35.7-3.4c-5.5,2.1,7.6,22,27.5,22.7c8.2,0.7-4.8,17.9-34.3,15.1
			c-29.5-2.7-36.4-6.3-41.2,0.3c-4.8,6.6-3.4,42.4,20.9,51.7c24.4,9.2,68.3,12.8,111.8-24c22.6-3.9,181.3-39.9,204.2-49.8
			c11.5-5,22.9-10.3,34.5-16.4c11.6-6.2,23.2-12.9,35.5-22.3c6.1-4.8,12.5-10.3,19.2-18.6c3.3-4.2,6.9-9.4,9.9-16.3
			c0.8-1.8,1.5-3.5,2.1-5.6c0.6-2.1,1.2-4,1.7-6.4c0.4-2.3,0.8-4.6,1-7.2C2199.6,826.4,2199.7,823.8,2199.5,821.7z"/>
		<path class="st8" d="M2184,724.9c-1.1-5-2.2-10-3.3-15c-2.6-11.3-5.3-22.4-8.1-33.6c-6.8-6.1-13.2-10.4-16.6-11.3
			c-5.1-1.3-43.6,8.8-72.7,16.8c5.2,16.4,10.3,32.7,14.9,49.1c4.3,15,8.2,30,11.8,45C2144.4,766,2170,741.4,2184,724.9z"/>
		<path class="st9" d="M2069.9,719.7c0,0,52,12.4,118.2-31.7c0,0-5.5-165.7-103.3-155.9C2044.8,537.8,2024.8,584.7,2069.9,719.7z"/>
		<path class="st9" d="M1803.6,1377.2c8.6,56.4,16.7,96.8,18.8,100.1c41.1,13.3,199.2,50,300.4,0c21.3-50.7,58.4-189.6,69.7-316.8
			C2143,1239.9,2019,1392.4,1803.6,1377.2z"/>
	</g>
	<g>
		<path class="st15" d="M1169,743.9c-4.2,39.1-6.1,74.7-13.4,106.5c-3.6,15.7-8.2,30.5-14.7,42.7c-1.6,3.1-3.2,6.2-5.2,8.9l-1.4,2.1
			c-0.4,0.7-1,1.6-1.2,1.8c-0.6,0.6-0.9,1.5-1.5,2.1c-2.2,2.6-5,4.8-9.4,6.9c-8.9,4-23.5,5.7-39.1,4.9
			c-15.8-0.8-85.6-19.6-104.6-24.3l-49.1-16.2c-0.7-9.8-3.5-20.3-11-27.4c-13.9-13.2-26.3-4.6-31.9,1.1
			c-5.1-3.5-37.5-24.6-46.8-22.4c-9.4,2.2-19.3,10.5-21.4,19.3c-2.1,8.8,5.2,8.9,2.8,19.2c-2.3,10.3-5.5,12.3-8.7,21.4
			c-3.2,9,3.4,13.6,2.4,19.8c-0.9,6.2-4,7.5-6.4,15.7s25.2,21.3,49.5,27.4c24.3,6.1,44.5-4,44.5-4c2.7-1.3,5.1-3.3,7.4-5.8
			l52.3,17.2c17,5.6,35.3,12,54.2,17.5c19,5.6,38.7,10.5,60.3,13.3c21.5,2.5,45.3,3.5,71.8-5.1c13.1-4.4,26.7-11.9,37.9-22.5
			c2.9-2.5,5.3-5.5,7.9-8.3c1.4-1.5,2.1-2.6,3.1-3.8l2.7-3.6c3.8-4.7,7-9.7,10.1-14.6c12.6-20,20.6-40.9,26.9-61.2
			c12.3-40.7,17-80,23.5-114.9L1169,743.9z"/>
		<path class="st16" d="M1186.3,963.8c2.9-2.5,5.3-5.5,7.9-8.3c1.4-1.5,2.1-2.6,3.1-3.8l2.7-3.6c3.8-4.7,7-9.7,10.1-14.6
			c12.6-20,20.6-40.9,26.9-61.2c12.3-40.7,17-80,23.5-114.9l-91.6-13.5c-4.2,39.1-6.1,74.7-13.4,106.5c-0.2,1-0.5,1.9-0.7,2.9
			c7.1,25.3,14.3,55.4,13,70.1c-2.3,25.9-33,53.9-98.9,66.8c2.5,0.4,5,0.8,7.5,1.2c21.5,2.5,45.3,3.5,71.8-5.1
			C1161.5,981.9,1175.1,974.4,1186.3,963.8z"/>
		<path class="st15" d="M1661.7,700.1c7.7,37.3,14.3,73.6,20.4,110.8c3,18.5,5.8,37.2,8.2,56c1.2,9.4,2.3,18.9,3.4,28.4l1.4,14.4
			l1.1,15c2.1,39.5,0.7,77.2-1.6,114.7c-2.3,37.6-5.7,74.4-10.1,111.9l-58.4-4.6c0.9-35.8,0.9-72.5-0.1-108.5
			c-1.1-36-3.2-72-8.1-105.7l-2.1-12.4l-2.5-12.9c-1.7-8.7-3.5-17.3-5.5-26.1c-3.9-17.4-8.1-34.9-12.6-52.4
			c-8.9-34.8-18.8-70.1-29.1-104.2L1661.7,700.1z"/>
		<path class="st16" d="M1631.6,830.3c0.8-15,28.4-37.7,45.3-50.1c-4.6-26.7-9.6-53.2-15.2-80.1l-95.6,24.6
			c10.3,34.1,20.2,69.4,29.1,104.2c4.5,17.5,8.8,34.9,12.6,52.4c2,8.7,3.8,17.4,5.5,26.1l2.5,12.9l2.1,12.4
			c4.9,33.7,7,69.7,8.1,105.7c0.1,4.8,0.2,9.6,0.3,14.4c8.5-34.3,18.1-78.4,17.9-101.1C1643.8,911.2,1630.4,851.9,1631.6,830.3z"/>
		<path class="st15" d="M1369,1920.5c-9.6-15.8-13.1-31.6-13.1-31.6s5.5-50.1,2.7-63.9c-2.7-8.2-67.7,7.3-67.7,7.3
			s6.6,31.9,4.5,53.2c-6.2,28.9-31.6,55-61.1,61.1c-29.5,6.2-76.9,19.2-48.8,35c41.9,21.3,143.6-2.1,173.9-8.2
			C1389.7,1967.3,1378.6,1936.3,1369,1920.5z"/>
		<path class="st17" d="M1392.9,1174.7c-4.1,54.2-7.2,110-9.8,165.2c-2.6,55.3-4.5,110.7-5.8,166c-1.3,55.3-1.5,110.6-1.1,165.8
			c0.6,55.2,2.4,120.3,5.4,175c0,0-9.9,13.8-51.6,17.8c-41.7,4-54-7.4-54-7.4c-7.4-56.6-13.3-123.2-18.1-179.8
			c-4.6-56.5-8.4-113-11.3-169.4c-2.9-56.5-5-112.9-6.5-169.4c-1.5-56.6-2.4-112.6-2.3-170.1L1392.9,1174.7z"/>
		<path class="st18" d="M1378.3,1949.2c-26.9,5.7-81.8,16.6-97.1,15.2c-5.6-16.5-15.3-24.5-24.8-28.4c-7.6,4.6-15.7,8-24.3,9.8
			c-31,6.5-80.9,20.2-51.3,36.8c44,22.4,150.9-2.2,182.8-8.7c13.7-2.8,19.3-10.4,20.5-19.5
			C1384.5,1951.2,1381.5,1948.5,1378.3,1949.2z"/>
		<path class="st19" d="M1392.6,1179.1c-1.3-1.5-2.6-3-4-4.6l-150.9-6.2c-0.1,57.5,0.9,113.5,2.3,170.1c0.2,5.7,0.4,11.4,0.6,17.1
			c32.4-12,90.5-30.4,143.1-30.3C1386.2,1276.4,1389.1,1227.2,1392.6,1179.1z"/>
		<path class="st15" d="M1558.5,1920.5c-9.6-15.8-13.1-31.6-13.1-31.6s5.5-50.1,2.7-63.9c-2.7-8.2-67.7,7.3-67.7,7.3
			s6.6,31.9,4.5,53.2c-6.2,28.9-31.6,55-61.1,61.1c-29.5,6.2-76.9,19.2-48.8,35c41.9,21.3,143.6-2.1,173.9-8.2
			C1579.2,1967.3,1568.1,1936.3,1558.5,1920.5z"/>
		<path class="st17" d="M1582.4,1174.7c-4.1,54.2-7.2,110-9.8,165.2c-2.6,55.3-4.5,110.7-5.8,166c-1.3,55.3-1.5,110.6-1.1,165.8
			c0.6,55.2,4.3,120.5,7.4,175.3c0,0-15.3,11.4-51.6,16.5c-36.4,5.1-53.9-6.1-53.9-6.1c-7.4-56.6-15.3-123.5-20.1-180
			c-4.6-56.5-8.4-113-11.3-169.4c-2.9-56.5-5-112.9-6.5-169.4c-1.5-56.6-2.4-112.6-2.3-170.1L1582.4,1174.7z"/>
		<path class="st18" d="M1570.6,1952c-26.3,5.6-86.7,17.8-103.1,16.3c-6.2-18.3-17.4-26.6-27.9-30.1c-6.2,3.1-12.7,5.5-19.4,6.9
			c-31.9,6.7-83.2,20.8-52.7,37.9c45.3,23,155.2-2.2,188-8.9c12.3-2.5,18.2-8.8,20.4-16.6C1576.7,1954.3,1573.9,1951.3,1570.6,1952z
			"/>
		<path class="st19" d="M1429.3,1326c35.3-12.7,108.5-30.8,146-39.8c2-37.4,4.3-74.9,7.1-111.5l-155.2-6.4
			C1427.2,1221.7,1428.1,1273.6,1429.3,1326z"/>
		<path class="st20" d="M760.3,496.6h-82.2c-23,0-41.6-18.6-41.6-41.6V281.2c0-23,18.6-41.6,41.6-41.6h82.2
			c23,0,41.6,18.6,41.6,41.6v173.9C801.9,478,783.3,496.6,760.3,496.6z"/>
		<path class="st20" d="M740.3,215.4c-1.5-23-21.1-22-21.1-22s-19.6-1-21.1,22c-8.7,6.3-27.6,18.2-26.8,32.4c13.4,0,47.9,0,47.9,0
			s34.5,0,47.9,0C767.9,233.6,749,221.7,740.3,215.4z"/>
		<path class="st15" d="M1453.5,473.1l5.2,43.9c0,0,28.9,14.9,35.6,27.9c6.7,13-92.4,89.5-92.4,89.5s-53.3-87.9-54.6-95.9
			c10.7-4.1,32.9-18.8,32.9-18.8s3.4-28.9-1.3-45.6C1394.9,475.4,1453.5,473.1,1453.5,473.1z"/>
		<path class="st21" d="M1683.2,756.3c-19.3-204.1-136.5-217.8-136.5-217.8c-14.7-5.9-53.4-15.1-53.4-15.1l-92.7,81.7
			c0,0-32.2-64.3-38.5-81.7c-23.5,2.3-47.5,11.6-68,21.7c0-0.1,0-0.1,0-0.2c0,0-126.8,23.1-146.1,227.2
			c11.7,6.7,43.2,14.1,70.5,19.7c-18.6,177.5-33.9,400.1-35.1,445.1c167.6,58.6,405.9,18.2,436.2,0c5.9-46-16.9-265-38.6-446
			C1611.1,782.2,1667,765.5,1683.2,756.3z"/>
		<g>
			<rect x="858.2" y="141.8" class="st22" width="29.8" height="1727.8"/>
		</g>
		<g>
			<path class="st22" d="M1052.7,1948.6h-29.8v-46c0-10-8.1-18.1-18.1-18.1H741.4c-10,0-18.1,8.1-18.1,18.1v46h-29.8v-46
				c0-26.4,21.5-47.9,47.9-47.9h263.4c26.4,0,47.9,21.5,47.9,47.9V1948.6z"/>
		</g>
		<g>
			<path class="st22" d="M1025.1,237.5c-17.7,0-32.1-14.4-32.1-32.1v-24.4c0-16.5-13.4-29.9-29.9-29.9h-179
				c-16.5,0-29.8,13.4-29.8,29.9v24.4c0,17.7-14.4,32.1-32.1,32.1h-6.7c-17.7,0-32.1-14.4-32.1-32.1v-12.1c0-6.1,5-11.1,11.1-11.1
				c6.1,0,11.1,5,11.1,11.1v12.1c0,5.5,4.5,9.9,9.9,9.9h6.7c5.5,0,9.9-4.5,9.9-9.9v-24.4c0-28.7,23.3-52,52-52h179
				c28.7,0,52,23.3,52,52v24.4c0,5.5,4.5,9.9,9.9,9.9c5.5,0,9.9-4.5,9.9-9.9v-15.7c0-6.1,5-11.1,11.1-11.1s11.1,5,11.1,11.1v15.7
				C1057.2,223.1,1042.8,237.5,1025.1,237.5z"/>
		</g>
		<g>
			<rect x="858.2" y="1869.6" class="st22" width="29.8" height="98.5"/>
		</g>
		<path class="st23" d="M648.4,455.1v-174c0-16.4,13.3-29.6,29.6-29.6h82.3c16.4,0,29.6,13.3,29.6,29.6v174
			c0,16.4-13.3,29.6-29.6,29.6H678C661.6,484.7,648.4,471.5,648.4,455.1z"/>
		<rect x="737.6" y="492.1" class="st20" width="21.1" height="74.9"/>
		<g>
			<circle class="st18" cx="1037.8" cy="1968.1" r="40.7"/>
		</g>
		<g>
			<path class="st18" d="M913.8,1989.3c0,22.5-18.2,40.7-40.7,40.7c-22.5,0-40.7-18.2-40.7-40.7c0-22.5,18.2-40.7,40.7-40.7
				C895.6,1948.6,913.8,1966.9,913.8,1989.3z"/>
		</g>
		<g>
			<circle class="st18" cx="708.4" cy="1968.1" r="40.7"/>
		</g>
		<path class="st15" d="M888,851.5c0,0-25.3,25.9-10.5,37c14.8,11.2,32-12.4,34.4-16.9C914.3,867.1,904.5,843.2,888,851.5z"/>
		<path class="st15" d="M858.2,836.2c0,0,20.2,19.3,11.8,32.4c-4.5,3.4-11.8,7.2-8,13.1c3.8,5.9,13.4,10.4,10,21.9
			c-3.4,11.5-10,7.6-11.1,14.3c-1,6.6,9.3,14,8,21.6c-1.4,7.6-13.2,11.8-19.4,6.6C843.3,940.7,824.1,849.4,858.2,836.2z"/>
		<rect x="732.6" y="510.8" class="st24" width="31" height="37.6"/>
		<g>
			<path class="st20" d="M896.8,1124.8h-36.3c-64.8,0-117.5-52.7-117.5-117.5V563.1c0-2.8,2.3-5.1,5.1-5.1s5.1,2.3,5.1,5.1v444.2
				c0,59.2,48.2,107.3,107.3,107.3h36.3c59.2,0,107.3-48.2,107.3-107.3v-46.2c0-11.2-6.7-21.2-17-25.5l-27-9.3
				c-2.6-0.9-4-3.8-3.1-6.4c0.9-2.6,3.8-4,6.4-3.1l27.3,9.4c14.4,6,23.5,19.7,23.5,35v46.2C1014.3,1072.1,961.6,1124.8,896.8,1124.8
				z"/>
		</g>
		
			<rect x="968" y="908.2" transform="matrix(0.9313 0.3642 -0.3642 0.9313 404.2834 -290.9875)" class="st25" width="11.6" height="36.6"/>
		
			<rect x="989.7" y="916.7" transform="matrix(0.9313 0.3641 -0.3641 0.9313 408.8084 -298.2861)" class="st25" width="11.6" height="36.6"/>
		<path class="st24" d="M719.2,314.8c-26.3-19.5-52.8-16.9-70.8-10.9v155.8c0,13.9,11.2,25.1,25.1,25.1h91.4
			c13.9,0,25.1-11.2,25.1-25.1V324.1C770,330.4,743.3,332.7,719.2,314.8z"/>
		<rect x="671.2" y="283.8" class="st12" width="95.9" height="44.7"/>
		<rect x="671.2" y="379.8" class="st26" width="95.9" height="70.3"/>
		<rect x="680.3" y="292.9" class="st27" width="33.8" height="6.5"/>
		<rect x="680.3" y="310.5" class="st27" width="72.1" height="6.5"/>
		<rect x="680.3" y="392.1" class="st27" width="78.3" height="6.5"/>
		<rect x="680.3" y="408.4" class="st27" width="78.3" height="6.5"/>
		<rect x="680.3" y="424.7" class="st27" width="78.3" height="6.5"/>
		<path class="st17" d="M1400.6,605.1c-4.1,26.4-8.2,52.7-11.5,79.1l-5.1,39.6l-4.7,39.7c-5.9,52.9-10.7,105.9-14.1,159
			c-3.8,53.1-5.4,106.3-6,159.4l-0.1,39.9c0.1,13.3,0.6,26.6,0.9,39.9l0.3,20l1,19.9c0.8,13.3,1.4,26.6,1.9,39.9
			c-6.6-52.9-11.3-106.2-12-159.6c-0.6-13.4-0.4-26.7-0.3-40.1c0.2-13.4-0.1-26.7,0.5-40.1l1.4-40c0.5-13.3,1.5-26.7,2.3-40
			c3.6-53.3,8.9-106.5,16.4-159.3C1378.9,709.7,1388.3,657.1,1400.6,605.1z"/>
		<path class="st28" d="M1580.9,790.9l-32.1-90.8v221.8c0,16.7-7.5,32.6-20.4,43.3l-47.1,43.3l45.9,13.2
			c19.9,5.7,32.1,26.2,26.9,46.2c-15.2,59.8-82.1,167.6-369.5,140.2c-0.7,12.7-1.2,22.6-1.3,28.9c167.6,58.6,405.9,18.2,436.2,0
			C1625.4,1191,1602.6,971.9,1580.9,790.9z"/>
		<path class="st15" d="M1684.4,1151.3c0,0,16.7,15,20.3,39.8c3.5,24.8-1.7,55.8-10.1,56.7c-8.5,0.9-10.8-1.5-16.9,0
			c-6.1,1.5-7.8,9.3-17.4,9.8c-9.6,0.4-12.6-1.7-23.1,0c-10.5,1.7-7.8,8.4-16.7,9.9c-9,1.4-20.4-4.7-25.9-12.5
			c-5.6-7.8,1.7-45.7,3-51.8c-7.4-3-20-11.3-13.1-29.2c7-17.9,30.9-25.3,41.6-27.3C1636.7,1144.8,1672,1140,1684.4,1151.3z"/>
		<path class="st16" d="M1457.3,505.4l-3.8-32.3c0,0-58.6,2.3-74.7,0.9c1.6,5.6,2.2,12.6,2.4,19.4c14.8,3.7,41.6,9.5,72.4,11.8
			C1454.9,505.4,1456.1,505.4,1457.3,505.4z"/>
		<path class="st15" d="M1543.9,253.6c-11.6-93-86.3-123.2-154.4-120.5c-34.1,1.3-57.3,11.8-74.5,25.9c-24.8,20.3-39,50.8-41.5,82.7
			c-5,61.8-6.4,181.2,28.2,211.1c45.6,39.4,153.3,47.2,213.6,0C1546.7,422.6,1555.4,346.6,1543.9,253.6z"/>
		<path class="st15" d="M1535.4,316.3c0,0,13.4-29.4,43.7-22.3c30.3,7.1,16.6,70.5-13.1,83C1536.3,389.5,1524.7,358.4,1535.4,316.3z
			"/>
		<path class="st15" d="M1285.5,316.3c0,0-13.4-29.4-43.7-22.3c-30.3,7.1-16.6,70.5,13.1,83C1284.6,389.5,1296.2,358.4,1285.5,316.3
			z"/>
		<path class="st29" d="M1296,213.9c0,0,18.1,16.5,74.9,13.4c-10.8-16.7-17.7-36.3-17.7-36.3s42,41.2,118.2,42.2
			c17.8,0,23.1,0,23.1,0l-9.8-36.3c0,0,24.1,18.6,30.9,41.6c6.9,23.2,10.1,78.1,28.1,102.7c21.9-31.4,37.1-91.3,34.2-148.3
			c-2.9-57-45-84.4-45-84.4s15.7-14.7,34.4-12.8c0,0-17.7-15.1-47.1-0.2c-2-23.4-38-51.8-66.7-50.9c3.7,13.7,8.6,31.4,8.6,31.4
			S1312,28.7,1257.1,125c-17.7,38.3-46.2,154.4,17.6,211.4C1293.3,297.9,1301.6,231.7,1296,213.9z"/>
		<path class="st29" d="M1488.6,309.8c-0.3-9.7-8.4-17.2-18-16.9c-9.7,0.3-17.2,8.4-16.9,18l0.7,20.6c0.3,9.7,8.4,17.2,18,16.9
			c9.7-0.3,17.2-8.4,16.9-18L1488.6,309.8z"/>
		<path class="st29" d="M1360.2,309.8c-0.3-9.7-8.4-17.2-18-16.9c-9.7,0.3-17.2,8.4-16.9,18l0.7,20.6c0.3,9.7,8.4,17.2,18,16.9
			c9.7-0.3,17.2-8.4,16.9-18L1360.2,309.8z"/>
		<path class="st11" d="M1405,309.5l-10.3,23.7c-3.4,7.9-6.8,15.8-10.4,23.4c-0.9,1.9-1.9,3.8-2.9,5.6c-0.5,0.9-1,1.8-1.5,2.6
			l-0.8,1.2c-0.4,0.8-0.8,1.7-1.2,2.6c-0.6,1.9-0.6,4.4,0.2,6.3c0.3,1.1,0.9,1.8,1.4,2.6c0.5,0.8,1.1,1.5,1.7,1.9
			c2.3,2.3,4.7,3.2,7,4.2c4.7,1.6,9.2,2.4,13.8,2.5c4.5,0.1,9.1-0.3,13.5-2c0.3-0.1,0.4-0.4,0.3-0.7c-0.1-0.2-0.2-0.3-0.4-0.3
			c-8.4-2.6-16.4-5.3-23.1-8.8c-1.5-0.9-3.1-1.8-3.8-2.6c-0.3-0.2-0.4-0.4-0.5-0.5c-0.1-0.1-0.3-0.2-0.2-0.2c-0.1,0-0.1,0.2-0.2,0.1
			c0-0.1,0-0.2,0-0.4l0.7-1.6c0.5-1.1,0.9-2.2,1.3-3.2c0.8-2.1,1.5-4.2,2.2-6.3c5.6-16.5,10.1-33,14.2-49.8c0.1-0.3-0.1-0.5-0.4-0.6
			C1405.3,309.1,1405,309.3,1405,309.5z"/>
		<path class="st29" d="M1406.8,418c0,0-32.5-0.6-43.5-4.6c4.1,11,9.3,26.1,43.5,26.1c34.3,0,39.5-15.1,43.5-26.1
			C1439.3,417.4,1406.8,418,1406.8,418z"/>
		<g>
			<path class="st29" d="M1505,282c-2.7,0-5.3-1.4-6.7-4c-0.2-0.3-6.5-10.8-25.6-12.4c-18.9-1.6-25.3,4.8-25.3,4.9
				c-2.7,3.2-7.4,3.6-10.6,0.9c-3.2-2.7-3.6-7.6-0.9-10.8c1.1-1.3,11.1-12.5,38.2-10.1c27.6,2.3,37.3,19.5,37.7,20.3
				c2,3.7,0.6,8.3-3.1,10.3C1507.4,281.7,1506.2,282,1505,282z"/>
		</g>
		<g>
			<path class="st29" d="M1311.3,282c2.7,0,5.3-1.4,6.7-4c0.2-0.3,6.5-10.8,25.6-12.4c18.9-1.6,25.3,4.8,25.3,4.9
				c2.7,3.2,7.4,3.6,10.6,0.9c3.2-2.7,3.6-7.6,0.9-10.8c-1.1-1.3-11.1-12.5-38.2-10.1c-27.6,2.3-37.3,19.5-37.7,20.3
				c-2,3.7-0.6,8.3,3.1,10.3C1308.9,281.7,1310.1,282,1311.3,282z"/>
		</g>
		<path class="st12" d="M1485,306.6c0,4.5-3.6,8.1-8.1,8.1s-8.1-3.6-8.1-8.1c0-4.5,3.6-8.1,8.1-8.1S1485,302.2,1485,306.6z"/>
		<path class="st12" d="M1355.4,306.6c0,4.5-3.6,8.1-8.1,8.1c-4.5,0-8.1-3.6-8.1-8.1c0-4.5,3.6-8.1,8.1-8.1
			C1351.7,298.5,1355.4,302.2,1355.4,306.6z"/>
		<path class="st30" d="M1515.7,238.5c6.9,23.2,10.1,78.1,28.1,102.7c18.2-26,31.7-71.6,34.1-118.9c-40.9,8-109.2-63.2-109.2-63.2
			s-15.2,18.9-11.5,33.9c-15.2,6.2-95.3-17.3-118.1-33.9c-8.6,6.3-5.6,33.9-5.6,33.9c-16.6,7.8-53.7-9.6-53.7-9.6
			s1.6,53.1-13.4,59.4c-10,2.7-22.4-10.6-31.1-22.3c-2,41.9,6.4,86.7,39.2,116c18.7-38.5,26.9-104.7,21.3-122.5
			c0,0,18.1,16.5,74.9,13.4c-10.8-16.7-17.7-36.3-17.7-36.3s42,41.2,118.2,42.2c17.8,0,23.1,0,23.1,0l-9.8-36.3
			C1484.8,196.9,1508.9,215.5,1515.7,238.5z"/>
		<path class="st28" d="M1170.7,780.5c14.1,4.1,31.6,8,47.8,11.3c0,0,9.7-83.5,27.2-127.4C1215.1,699.4,1183.4,756.4,1170.7,780.5z"
			/>
	</g>
</g>
</svg>
