<?xml version="1.0" encoding="utf-8"?>
<!-- Generator: Adobe Illustrator 25.2.1, SVG Export Plug-In . SVG Version: 6.00 Build 0)  -->
<svg version="1.1" xmlns="http://www.w3.org/2000/svg" xmlns:xlink="http://www.w3.org/1999/xlink" x="0px" y="0px"
	 viewBox="0 0 2895.8 2895.8" style="enable-background:new 0 0 2895.8 2895.8;" xml:space="preserve">
<style type="text/css">
	.st0{fill:url(#SVGID_1_);}
	.st1{fill:#BDD0FB;}
	.st2{opacity:0.5;fill:#FFFFFF;}
	.st3{fill:#7D97F4;}
	.st4{fill:#91B3FA;}
	.st5{opacity:0.89;}
	.st6{opacity:0.67;fill:#FFFFFF;}
	.st7{fill:url(#SVGID_2_);}
	.st8{fill:url(#SVGID_3_);}
	.st9{fill:url(#SVGID_4_);}
	.st10{fill:url(#SVGID_5_);}
	.st11{fill:url(#SVGID_6_);}
	.st12{fill:#FFFFFF;}
	.st13{fill:url(#SVGID_7_);}
	.st14{fill:url(#SVGID_8_);}
	.st15{fill:url(#SVGID_9_);}
	.st16{fill:url(#SVGID_10_);}
	.st17{fill:url(#SVGID_11_);}
	.st18{fill:url(#SVGID_12_);}
	.st19{fill:url(#SVGID_13_);}
	.st20{fill:url(#SVGID_14_);}
	.st21{fill:url(#SVGID_15_);}
	.st22{fill:url(#SVGID_16_);}
	.st23{fill:url(#SVGID_17_);}
	.st24{fill:url(#SVGID_18_);}
	.st25{fill:url(#SVGID_19_);}
	.st26{fill:url(#SVGID_20_);}
	.st27{fill:url(#SVGID_21_);}
	.st28{fill:url(#SVGID_22_);}
	.st29{fill:url(#SVGID_23_);}
	.st30{fill:url(#SVGID_24_);}
	.st31{fill:url(#SVGID_25_);}
	.st32{fill:url(#SVGID_26_);}
	.st33{fill:url(#SVGID_27_);}
	.st34{fill:url(#SVGID_28_);}
	.st35{fill:url(#SVGID_29_);}
	.st36{fill:url(#SVGID_30_);}
	.st37{fill:url(#SVGID_31_);}
	.st38{fill:url(#SVGID_32_);}
	.st39{fill:url(#SVGID_33_);}
	.st40{fill:url(#SVGID_34_);}
	.st41{fill:url(#SVGID_35_);}
	.st42{fill:url(#SVGID_36_);}
	.st43{fill:url(#SVGID_37_);}
	.st44{fill:url(#SVGID_38_);}
	.st45{fill:url(#SVGID_39_);}
	.st46{fill:url(#SVGID_40_);}
	.st47{fill:url(#SVGID_41_);}
	.st48{fill:url(#SVGID_42_);}
	.st49{fill:url(#SVGID_43_);}
	.st50{fill:url(#SVGID_44_);}
	.st51{fill:url(#SVGID_45_);}
	.st52{fill-rule:evenodd;clip-rule:evenodd;fill:url(#SVGID_46_);}
	.st53{fill-rule:evenodd;clip-rule:evenodd;fill:url(#SVGID_47_);}
	.st54{fill-rule:evenodd;clip-rule:evenodd;fill:url(#SVGID_48_);}
	.st55{fill-rule:evenodd;clip-rule:evenodd;fill:url(#SVGID_49_);}
	.st56{fill-rule:evenodd;clip-rule:evenodd;fill:url(#SVGID_50_);}
	.st57{fill-rule:evenodd;clip-rule:evenodd;fill:url(#SVGID_51_);}
	.st58{fill-rule:evenodd;clip-rule:evenodd;fill:url(#SVGID_52_);}
	.st59{fill-rule:evenodd;clip-rule:evenodd;fill:url(#SVGID_53_);}
	.st60{fill-rule:evenodd;clip-rule:evenodd;fill:url(#SVGID_54_);}
	.st61{fill-rule:evenodd;clip-rule:evenodd;fill:url(#SVGID_55_);}
	.st62{fill-rule:evenodd;clip-rule:evenodd;fill:url(#SVGID_56_);}
	.st63{fill-rule:evenodd;clip-rule:evenodd;fill:url(#SVGID_57_);}
	.st64{fill-rule:evenodd;clip-rule:evenodd;fill:url(#SVGID_58_);}
	.st65{fill-rule:evenodd;clip-rule:evenodd;fill:url(#SVGID_59_);}
	.st66{fill-rule:evenodd;clip-rule:evenodd;fill:url(#SVGID_60_);}
	.st67{fill-rule:evenodd;clip-rule:evenodd;fill:url(#SVGID_61_);}
	.st68{fill:url(#SVGID_62_);}
	.st69{fill:url(#SVGID_63_);}
	.st70{fill:url(#SVGID_64_);}
	.st71{fill:url(#SVGID_65_);}
	.st72{fill:url(#SVGID_66_);}
	.st73{fill:url(#SVGID_67_);}
	.st74{fill:url(#SVGID_68_);}
	.st75{fill:url(#SVGID_69_);}
	.st76{fill:url(#SVGID_70_);}
	.st77{fill:url(#SVGID_71_);}
	.st78{fill:url(#SVGID_72_);}
	.st79{fill:url(#SVGID_73_);}
	.st80{fill:url(#SVGID_74_);}
	.st81{fill:url(#SVGID_75_);}
	.st82{fill:url(#SVGID_76_);}
</style>
<g id="Background">
</g>
<g id="Illustration">
	<g>
		<linearGradient id="SVGID_1_" gradientUnits="userSpaceOnUse" x1="3000.6355" y1="3202.2126" x2="947.36" y2="985.9786">
			<stop  offset="0" style="stop-color:#DAE3FE"/>
			<stop  offset="1" style="stop-color:#E9EFFD"/>
		</linearGradient>
		<path class="st0" d="M2717.8,1938.1c-282.9,658-1029.6,940.6-1614.6,892.4c-159.7-13.2-481.1-39.6-732.1-275.8
			C-110.9,2101.1-36.7,1153.1,424.7,595c59.4-71.9,470.7-553.4,1111.5-547c469.2,4.7,798.5,268.5,838.6,301.3
			c50.6,41.5,162.2,140.1,262.7,296.6C2873.8,1013.6,2894.5,1526.9,2717.8,1938.1z"/>
		<path class="st1" d="M52.2,2140c270.6,886.9,2406.2,958.5,2791.6,112.3c26.4-58-20.2-121.7-90-123l-2649.6-48.9
			C69.1,2079.8,42.9,2109.6,52.2,2140z"/>
		<g>
			<path class="st1" d="M1896.9,2128.7c0,0,95.1-1269.1,608.1-2031.2c34.5-51.2,114.5-45.6,141,10.1
				C2823,480,3235.9,1628.5,1896.9,2128.7z"/>
			<path class="st2" d="M2010.6,2030.6c-2.6,3.4,2.3,7.4,5.4,4.4c113.2-111.4,534.8-638.2,566.3-1565.8c0.1-3-4.5-3.4-4.9-0.5
				C2550.2,686.7,2424.8,1494.5,2010.6,2030.6z"/>
		</g>
		<g>
			<g>
				<g>
					<path class="st1" d="M458.9,844.6c23.1-48.1,39.6-98.4,43.4-153.1c9.7-138-70.5-265.1-129.5-383.9
						c-54.2-109.2-94.4-271.9,88.3-257.4c145.6,11.5,316.8,156.6,336.3,308c23.1,179.1-64.1,404.9,39.3,567.6
						c144.6,227.6,248.9,175.4,248.9,559.5c0,164.1-90.9,254.6-195,304.5c-164.3,78.7-360.3,46.9-491.2-79.8
						c-115.7-111.9-184.4-272.8-161.2-434.4C261.8,1112.3,389.8,988.6,458.9,844.6z"/>
					<path class="st3" d="M581.1,2079.4c2.3,0,4.4-1.5,4.9-3.9c90.6-361.6,139.9-689.3,146.6-974.2c5.3-228.1-16.5-429.4-64.9-598.3
						c-82.7-288.5-212.4-381.1-217.9-384.9c-2.3-1.6-5.5-1-7.1,1.3c-1.6,2.3-1,5.5,1.3,7.1c1.3,0.9,132.7,95.1,214.3,380.7
						c75.4,264,122.3,749.9-82.1,1565.8c-0.7,2.7,1,5.5,3.7,6.2C580.2,2079.3,580.6,2079.4,581.1,2079.4z"/>
				</g>
				<path class="st1" d="M313.8,439.8c7-1.9,14.8-2.5,23-1.6c45.5,5.2,64.3,53.3,77.6,90.8c11.5,32.2,25,71.2,18.2,106
					c-7.3,37.7-47.3,68.4-76.4,30.2c-33-43.5-82.5-110.2-82.8-167.8C273.3,468.8,289.4,446.4,313.8,439.8z"/>
			</g>
			<g>
				<path class="st4" d="M58.9,1719c-20-131.9,27.9-283.4,51.9-422.9c12.7-73.8,18.5-147,6.7-221.3C105.7,1000.9,70.9,921,103,847.4
					c64.5-148.3,217.8-80.8,305.7,30.8c101.9,129.6,129.8,341.3,168.5,504.3c23.3,98.3,58.5,199.1,70.8,299.2
					c20.4,165.9-17.1,281.1-96.5,358.9c-76.1,74.6-192,90.1-285.2,38.2C182.2,2031.9,91.2,1931.8,58.9,1719z"/>
				<path class="st3" d="M409.7,2331c-0.3,0-0.6,0-0.8-0.1c-2.8-0.5-4.6-3.1-4.1-5.8c0.3-2,33.5-202.5,34.4-479.3
					c0.8-255.3-26.6-629.7-161.4-963.1c-1-2.6,0.2-5.5,2.8-6.6c2.6-1,5.5,0.2,6.6,2.8c135.5,335,163,710.9,162.2,967.2
					c-0.9,277.6-34.2,478.8-34.5,480.8C414.3,2329.3,412.1,2331,409.7,2331z"/>
			</g>
		</g>
		<g>
			<g>
				<path class="st3" d="M2654.1,2458.9H2137V1422.1h537.6v1016.3C2674.6,2449.7,2665.4,2458.9,2654.1,2458.9z"/>
				<g class="st5">
					<path class="st6" d="M2559.9,2177.3h-304.9c-0.6,0-1.1-0.5-1.1-1.1v-471.3c0-0.6,0.5-1.1,1.1-1.1h304.9c0.6,0,1.1,0.5,1.1,1.1
						v471.3C2561,2176.8,2560.5,2177.3,2559.9,2177.3z"/>
					<g>
						<path class="st3" d="M2538,2151.7h-118c-0.3,0-0.6-0.3-0.6-0.6v-421.1c0-0.3,0.3-0.6,0.6-0.6h118c0.3,0,0.6,0.3,0.6,0.6v421.1
							C2538.6,2151.4,2538.3,2151.7,2538,2151.7z"/>
						<path class="st3" d="M2394.8,2151.7h-118c-0.3,0-0.6-0.3-0.6-0.6v-421.1c0-0.3,0.3-0.6,0.6-0.6h118c0.3,0,0.6,0.3,0.6,0.6
							v421.1C2395.5,2151.4,2395.2,2151.7,2394.8,2151.7z"/>
					</g>
				</g>
				<linearGradient id="SVGID_2_" gradientUnits="userSpaceOnUse" x1="3254.6238" y1="-605.0021" x2="2891.428" y2="228.2108">
					<stop  offset="0" style="stop-color:#4F52FF"/>
					<stop  offset="1" style="stop-color:#4042E2"/>
				</linearGradient>
				<path class="st7" d="M2775.8,1504h-664.3l-27.1-478.2l549.2-10.4L2802,1463C2810.8,1482.1,2796.9,1504,2775.8,1504z"/>
				<linearGradient id="SVGID_3_" gradientUnits="userSpaceOnUse" x1="2378.5845" y1="978.878" x2="2545.5325" y2="27.7785">
					<stop  offset="0" style="stop-color:#4F52FF"/>
					<stop  offset="1" style="stop-color:#4042E2"/>
				</linearGradient>
				<path class="st8" d="M2635.8,1037.4l-527.9-5.9l3.3-53.4l493.4,3.8c19.1,1.2,33.6,16.6,32.5,34.5L2635.8,1037.4z"/>
			</g>
			<g>
				<path class="st3" d="M271.9,2455.3h515.3V1418.5H249.6V2433C249.6,2445.3,259.6,2455.3,271.9,2455.3z"/>
				<g class="st5">
					<path class="st6" d="M364.3,2173.7h304.9c0.6,0,1.1-0.5,1.1-1.1v-471.3c0-0.6-0.5-1.1-1.1-1.1H364.3c-0.6,0-1.1,0.5-1.1,1.1
						v471.3C363.2,2173.2,363.7,2173.7,364.3,2173.7z"/>
					<g>
						<path class="st3" d="M386.2,2148.1h118c0.3,0,0.6-0.3,0.6-0.6v-421.1c0-0.3-0.3-0.6-0.6-0.6h-118c-0.3,0-0.6,0.3-0.6,0.6
							v421.1C385.6,2147.8,385.9,2148.1,386.2,2148.1z"/>
						<path class="st3" d="M529.4,2148.1h118c0.3,0,0.6-0.3,0.6-0.6v-421.1c0-0.3-0.3-0.6-0.6-0.6h-118c-0.3,0-0.6,0.3-0.6,0.6
							v421.1C528.7,2147.8,529,2148.1,529.4,2148.1z"/>
					</g>
				</g>
				<linearGradient id="SVGID_4_" gradientUnits="userSpaceOnUse" x1="1429.9401" y1="-447.1746" x2="724.9117" y2="920.1511">
					<stop  offset="0" style="stop-color:#4F52FF"/>
					<stop  offset="1" style="stop-color:#4042E2"/>
				</linearGradient>
				<path class="st9" d="M148.4,1500.4h664.3l27.1-478.2l-549.2-10.4l-168.4,447.6C113.4,1478.5,127.3,1500.4,148.4,1500.4z"/>
				<linearGradient id="SVGID_5_" gradientUnits="userSpaceOnUse" x1="612.9356" y1="668.9504" x2="779.8838" y2="-282.1497">
					<stop  offset="0" style="stop-color:#4F52FF"/>
					<stop  offset="1" style="stop-color:#4042E2"/>
				</linearGradient>
				<path class="st10" d="M288.4,1033.8l527.9-5.9l-3.3-53.4l-493.4,3.8c-19.1,1.2-33.6,16.6-32.5,34.5L288.4,1033.8z"/>
			</g>
			<g>
				<path class="st4" d="M712.9,1355.8v1061c0,46.6,37.8,84.3,84.3,84.3h1382.4c14.9,0,27-12.1,27-27V1355.8H712.9z"/>
				<path class="st3" d="M1601.4,2426.5h-304.8v-591.1c0-2,1.6-3.6,3.6-3.6h297.7c2,0,3.6,1.6,3.6,3.6V2426.5z"/>
				<linearGradient id="SVGID_6_" gradientUnits="userSpaceOnUse" x1="1308.0546" y1="2129.2053" x2="1589.9053" y2="2129.2053">
					<stop  offset="0" style="stop-color:#4F52FF"/>
					<stop  offset="1" style="stop-color:#4042E2"/>
				</linearGradient>
				<path class="st11" d="M1589.9,2404.1h-281.9v-546.3c0-2,1.6-3.6,3.6-3.6h274.7c2,0,3.6,1.6,3.6,3.6V2404.1z"/>
				<path class="st1" d="M1579.9,1791.8h-261.8c-11.9,0-21.5-9.6-21.5-21.5v-18.8c0-11.3,8.8-20.7,20-21.5l261.8-18.2
					c12.4-0.9,23,9,23,21.5v37C1601.4,1782.2,1591.8,1791.8,1579.9,1791.8z"/>
				<path class="st1" d="M1599.3,2463.4h-297.1c-13.5,0-24.4-10.9-24.4-24.4v-21.3c0-12.8,9.8-48.3,22.6-49.2l297.3,4.2
					c14.1-1,26.1,10.2,26.1,24.4v42C1623.8,2452.4,1612.8,2463.4,1599.3,2463.4z"/>
				<path class="st3" d="M1600.1,2509.9H1303c-13.5,0-24.4-10.9-24.4-24.4v-21.3c0-12.8,2.8-36.6,15.6-37.5l304.3-7.5
					c14.1-1,26.1,10.2,26.1,24.4v42C1624.6,2498.9,1613.6,2509.9,1600.1,2509.9z"/>
				<g>
					<path class="st12" d="M2127.3,2372h-428.6c-1.7,0-3.1-1.4-3.1-3.1v-689.8c0-1.7,1.4-3.1,3.1-3.1h428.6c1.7,0,3.1,1.4,3.1,3.1
						v689.8C2130.5,2370.6,2129,2372,2127.3,2372z"/>
					<path class="st3" d="M2102.5,2346.3h-380c-1.6,0-2.9-1.3-2.9-2.9v-635.3c0-1.6,1.3-2.9,2.9-2.9h380c1.6,0,2.9,1.3,2.9,2.9
						v635.3C2105.5,2344.9,2104.1,2346.3,2102.5,2346.3z"/>
					<rect x="1893.5" y="1696.3" class="st12" width="22.1" height="675.6"/>
				</g>
				<g>
					<path class="st12" d="M1219,2372H790.4c-1.7,0-3.1-1.4-3.1-3.1v-689.8c0-1.7,1.4-3.1,3.1-3.1H1219c1.7,0,3.1,1.4,3.1,3.1v689.8
						C1222.1,2370.6,1220.7,2372,1219,2372z"/>
					<path class="st3" d="M1194.2,2346.3h-380c-1.6,0-2.9-1.3-2.9-2.9v-635.3c0-1.6,1.3-2.9,2.9-2.9h380c1.6,0,2.9,1.3,2.9,2.9
						v635.3C1197.1,2344.9,1195.8,2346.3,1194.2,2346.3z"/>
					<rect x="985.2" y="1696.3" class="st12" width="22.1" height="675.6"/>
				</g>
				<g>
					<polygon class="st4" points="2224.1,715.2 2211.4,705.6 2211.4,692.2 2193.8,692.2 1459.8,137.5 717.7,692.2 717.7,1355.8 
						2211.4,1355.8 2211.4,783.6 					"/>
					<g>
						<rect x="1787.4" y="202" class="st3" width="123.6" height="201.2"/>
						<linearGradient id="SVGID_7_" gradientUnits="userSpaceOnUse" x1="2297.6777" y1="-1054.318" x2="2079.4541" y2="-437.2726">
							<stop  offset="0" style="stop-color:#4F52FF"/>
							<stop  offset="1" style="stop-color:#4042E2"/>
						</linearGradient>
						<path class="st13" d="M1951.7,234.6H1752v-55.7c0-3.4,2.7-6.1,6.1-6.1h184.3c5.1,0,9.3,4.2,9.3,9.3V234.6z"/>
						<linearGradient id="SVGID_8_" gradientUnits="userSpaceOnUse" x1="1662.6877" y1="-972.9753" x2="1534.5015" y2="116.6141">
							<stop  offset="0" style="stop-color:#4F52FF"/>
							<stop  offset="1" style="stop-color:#4042E2"/>
						</linearGradient>
						<path class="st14" d="M667.7,797.9L1460.4,190l752.4,583.6c27.3,21.2,67.5,6.4,74.4-27.6l10.6-51.6L1460.4,56.6L649.9,675.7
							c-14.5,11.1-19.8,30.5-12.8,47.4L667.7,797.9z"/>
					</g>
					<g class="st5">
						<path class="st12" d="M1301.5,1257.5h304.9c0.6,0,1.1-0.5,1.1-1.1V785c0-0.6-0.5-1.1-1.1-1.1h-304.9c-0.6,0-1.1,0.5-1.1,1.1
							v471.3C1300.4,1256.9,1300.9,1257.5,1301.5,1257.5z"/>
						<g>
							<path class="st3" d="M1323.4,1231.9h118c0.3,0,0.6-0.3,0.6-0.6V810.1c0-0.3-0.3-0.6-0.6-0.6h-118c-0.3,0-0.6,0.3-0.6,0.6
								v421.1C1322.8,1231.6,1323,1231.9,1323.4,1231.9z"/>
							<path class="st3" d="M1466.5,1231.9h118c0.3,0,0.6-0.3,0.6-0.6V810.1c0-0.3-0.3-0.6-0.6-0.6h-118c-0.3,0-0.6,0.3-0.6,0.6
								v421.1C1465.9,1231.6,1466.2,1231.9,1466.5,1231.9z"/>
						</g>
					</g>
					<g class="st5">
						<path class="st12" d="M870.4,1260.8h304.9c0.6,0,1.1-0.5,1.1-1.1V788.3c0-0.6-0.5-1.1-1.1-1.1H870.4c-0.6,0-1.1,0.5-1.1,1.1
							v471.3C869.3,1260.3,869.8,1260.8,870.4,1260.8z"/>
						<g>
							<path class="st3" d="M892.3,1235.2h118c0.3,0,0.6-0.3,0.6-0.6V813.4c0-0.3-0.3-0.6-0.6-0.6h-118c-0.3,0-0.6,0.3-0.6,0.6
								v421.1C891.7,1234.9,891.9,1235.2,892.3,1235.2z"/>
							<path class="st3" d="M1035.4,1235.2h118c0.3,0,0.6-0.3,0.6-0.6V813.4c0-0.3-0.3-0.6-0.6-0.6h-118c-0.3,0-0.6,0.3-0.6,0.6
								v421.1C1034.8,1234.9,1035.1,1235.2,1035.4,1235.2z"/>
						</g>
					</g>
					<g class="st5">
						<path class="st12" d="M1713.9,1265.1h304.9c0.6,0,1.1-0.5,1.1-1.1V792.6c0-0.6-0.5-1.1-1.1-1.1h-304.9c-0.6,0-1.1,0.5-1.1,1.1
							V1264C1712.8,1264.6,1713.3,1265.1,1713.9,1265.1z"/>
						<g>
							<path class="st3" d="M1735.8,1239.5h118c0.3,0,0.6-0.3,0.6-0.6V817.7c0-0.3-0.3-0.6-0.6-0.6h-118c-0.3,0-0.6,0.3-0.6,0.6
								v421.1C1735.2,1239.2,1735.5,1239.5,1735.8,1239.5z"/>
							<path class="st3" d="M1878.9,1239.5h118c0.3,0,0.6-0.3,0.6-0.6V817.7c0-0.3-0.3-0.6-0.6-0.6h-118c-0.3,0-0.6,0.3-0.6,0.6
								v421.1C1878.3,1239.2,1878.6,1239.5,1878.9,1239.5z"/>
						</g>
					</g>
				</g>
				<path class="st3" d="M2241.2,1427.7H678.3c-4.4,0-7.9-3.5-7.9-7.9v-69.7c0-4.4,3.5-7.9,7.9-7.9h1562.9c4.4,0,7.9,3.5,7.9,7.9
					v69.7C2249.1,1424.2,2245.6,1427.7,2241.2,1427.7z"/>
			</g>
		</g>
		<g>
			<g>
				<g>
					
						<linearGradient id="SVGID_9_" gradientUnits="userSpaceOnUse" x1="-6232.4126" y1="2785.3906" x2="-6117.7451" y2="2785.3906" gradientTransform="matrix(-1 0 0 1 -3892.1309 0)">
						<stop  offset="0" style="stop-color:#09005D"/>
						<stop  offset="1" style="stop-color:#1A0F91"/>
					</linearGradient>
					<path class="st15" d="M2225.6,2826.2c0-0.9,0-1.7,0.3-2.6c12.9-51.2,77-83.1,77-83.1l25.4,2c14.6,45.1,12.7,72.8,10.4,85.1
						c-0.1,0.3-0.2,0.7-0.3,1C2317.5,2830.5,2274.3,2831.8,2225.6,2826.2z"/>
					<path class="st3" d="M2338.4,2828.7c-1.1,4.1-4.2,7.3-8.1,8.1c-29.8,6.3-77.2,1.2-97.1-1.4c-4.4-0.6-7.6-4.6-7.7-9.2
						C2274.3,2831.8,2317.5,2830.5,2338.4,2828.7z"/>
					
						<linearGradient id="SVGID_10_" gradientUnits="userSpaceOnUse" x1="-6200.5244" y1="2654.8467" x2="-6222.4282" y2="2846.0049" gradientTransform="matrix(-1 0 0 1 -3892.1309 0)">
						<stop  offset="0" style="stop-color:#A22B25"/>
						<stop  offset="1" style="stop-color:#C0423C"/>
					</linearGradient>
					<path class="st16" d="M2338.5,2704.7l-10.8,51.8c-0.8,3.8-3.7,6.6-7.2,7c-4.3,0.4-10.5,0.6-16.7-0.3c-5.5-0.8-9.4-6.5-8.4-12.5
						l7.5-46H2338.5z"/>
					<path class="st3" d="M2115.6,2828c28.1-0.8,42.6-4.1,50.1-7.2c0,2.8,0,5.6-0.1,8.6c-0.1,3.1-2.4,5.7-5.3,5.6l-154-1
						c-4.9,0-7.8-5.7-5.7-10.2C2020.8,2825.5,2072.2,2829.2,2115.6,2828z"/>
					
						<linearGradient id="SVGID_11_" gradientUnits="userSpaceOnUse" x1="-6057.8047" y1="2788.3049" x2="-5892.7422" y2="2788.3049" gradientTransform="matrix(-1 0 0 1 -3892.1309 0)">
						<stop  offset="0" style="stop-color:#09005D"/>
						<stop  offset="1" style="stop-color:#1A0F91"/>
					</linearGradient>
					<path class="st17" d="M2000.6,2823.8c0.2-0.4,0.3-0.8,0.6-1.2c13.6-19,48.2-56.9,116.7-73.3l32.8-1c0,0,14.6,25.4,14.9,72.5
						c-7.5,3.1-22,6.4-50.1,7.2C2072.2,2829.2,2020.8,2825.5,2000.6,2823.8z"/>
					
						<linearGradient id="SVGID_12_" gradientUnits="userSpaceOnUse" x1="-5907.5039" y1="2268.6462" x2="-5929.4077" y2="2459.8074" gradientTransform="matrix(-0.998 -6.290000e-02 -6.290000e-02 0.998 -3620.0288 39.346)">
						<stop  offset="0" style="stop-color:#A22B25"/>
						<stop  offset="1" style="stop-color:#C0423C"/>
					</linearGradient>
					<path class="st18" d="M2158.3,2700.1c-0.5,2.4-7.4,39.3-10,53.6c-0.6,3.4-3.3,5.9-6.4,6.1c-5.6,0.3-14.7,0.4-22.5-1.8
						c-4.2-1.1-7-5.4-6.7-10.2l3.7-58.3L2158.3,2700.1z"/>
					
						<linearGradient id="SVGID_13_" gradientUnits="userSpaceOnUse" x1="2659.6138" y1="2835.1836" x2="2886.3311" y2="1754.1255" gradientTransform="matrix(1 0 0 1 -496.4048 0)">
						<stop  offset="0" style="stop-color:#09005D"/>
						<stop  offset="1" style="stop-color:#1A0F91"/>
					</linearGradient>
					<path class="st19" d="M2183.2,2019.7c0,0-45.2,310.4-77.8,679.9c-0.6,6.9,4.9,12.9,11.6,14.3c10,2.1,24.6,4.6,36.7,4.2
						c6.5-0.2,11.9-5,13-11.4c11.1-65.1,90.4-414.7,111.2-491.6c0,0,23.9,326.8,16.3,496.4c-0.2,4.2,2.9,7.9,7.1,8.4
						c6.4,0.7,16.5,1.3,29.5-0.1c4.9-0.5,8.9-4.2,9.6-9.1c7.9-55.1,53.4-383.3,51.5-619.6c-0.1-13.3-15.6-122.8-15.6-122.8
						L2183.2,2019.7z"/>
				</g>
				
					<linearGradient id="SVGID_14_" gradientUnits="userSpaceOnUse" x1="11144.791" y1="-10660.3672" x2="10638.8877" y2="-10240.4668" gradientTransform="matrix(-1 0 0 1 -1471.5341 0)">
					<stop  offset="0" style="stop-color:#FF928E"/>
					<stop  offset="1" style="stop-color:#FE7062"/>
				</linearGradient>
				<path class="st20" d="M2165.7,1497.6l-6,162.5c-17.2,5.9-33.5,10.5-49.1,13.9c-9.7-31.4-31.2-69.9-48.8-98.5
					C2126.3,1552.7,2165.7,1497.6,2165.7,1497.6z"/>
				<linearGradient id="SVGID_15_" gradientUnits="userSpaceOnUse" x1="2271.9246" y1="1659.4911" x2="2180.8572" y2="2118.2007">
					<stop  offset="0" style="stop-color:#FEBBBA"/>
					<stop  offset="1" style="stop-color:#FF928E"/>
				</linearGradient>
				<path class="st21" d="M2383,2037.6c4.6-1.7,7.9-5.9,8.4-10.8c6-58.3,35.1-419.7-148.6-568.4c0,0-10.5-27.6-97.1,40.2
					c-86.6,67.7-40.2,138.7-19.5,236.7c25.1,118.5,69.1,215.4,49.6,288.3c-1.3,5,1.3,10.3,6.2,12.1
					C2249.3,2060.5,2316.3,2061.3,2383,2037.6z"/>
				<linearGradient id="SVGID_16_" gradientUnits="userSpaceOnUse" x1="2156.9434" y1="1541.4565" x2="2217.6553" y2="1233.4011">
					<stop  offset="0" style="stop-color:#A22B25"/>
					<stop  offset="1" style="stop-color:#C0423C"/>
				</linearGradient>
				<path class="st22" d="M2171.2,1350.2c0.1,5.1,73.4,109.3,73.4,109.3s-13.2,25.9-76,47l-54.2-111.5L2171.2,1350.2z"/>
				
					<linearGradient id="SVGID_17_" gradientUnits="userSpaceOnUse" x1="-1932.9489" y1="-4846.8833" x2="-2135.3213" y2="-4111.5986" gradientTransform="matrix(-1 0 0 1 -1471.5341 0)">
					<stop  offset="0" style="stop-color:#FF928E"/>
					<stop  offset="1" style="stop-color:#FE7062"/>
				</linearGradient>
				<path class="st23" d="M2207.5,1706.6c0.5,0,0.9-0.1,1.3-0.4c58.6-39.6,86.1-103.5,86.4-104.1c0.5-1.2-0.1-2.6-1.3-3.1
					c-1.2-0.5-2.6,0-3.1,1.3c-0.3,0.6-27.3,63.3-84.7,102c-1.1,0.7-1.4,2.2-0.6,3.3C2206,1706.2,2206.8,1706.6,2207.5,1706.6z"/>
				
					<linearGradient id="SVGID_18_" gradientUnits="userSpaceOnUse" x1="-1906.7426" y1="-4839.6694" x2="-2109.1147" y2="-4104.3857" gradientTransform="matrix(-1 0 0 1 -1471.5341 0)">
					<stop  offset="0" style="stop-color:#FF928E"/>
					<stop  offset="1" style="stop-color:#FE7062"/>
				</linearGradient>
				<path class="st24" d="M2120.3,1618.1c0.8,0,1.5-0.4,2-1.1c0.2-0.3,18.1-28.1,52.2-89.2c10.5-18.8,24.3-30.7,40.9-35.3
					c27.6-7.7,54.3,7.1,54.5,7.2c1.1,0.6,2.6,0.3,3.2-0.9c0.6-1.1,0.3-2.6-0.9-3.2c-1.1-0.7-28.5-16-58.1-7.7
					c-18,5-32.7,17.7-43.9,37.6c-34,60.9-51.8,88.6-52,88.9c-0.7,1.1-0.4,2.6,0.7,3.3C2119.4,1617.9,2119.8,1618.1,2120.3,1618.1z"
					/>
				<g>
					
						<linearGradient id="SVGID_19_" gradientUnits="userSpaceOnUse" x1="-1791.3635" y1="-9467.7334" x2="-1881.3069" y2="-9238.3779" gradientTransform="matrix(-1 0 0 1 -3892.1309 0)">
						<stop  offset="0" style="stop-color:#A22B25"/>
						<stop  offset="1" style="stop-color:#C0423C"/>
					</linearGradient>
					<path class="st25" d="M2113.5,1290.5c0,0-26.1,59.9-27.8,91.4c-1.8,31.5-8.5,51.9,27.8,58.2c36.4,6.3,67-11.8,83.6-43.1
						c0,0,26-48.3,20.2-68.1C2211.4,1309.2,2113.5,1290.5,2113.5,1290.5z"/>
					
						<linearGradient id="SVGID_20_" gradientUnits="userSpaceOnUse" x1="-6105.1196" y1="1252.8962" x2="-5966.1953" y2="1431.7611" gradientTransform="matrix(-1 0 0 1 -3892.1309 0)">
						<stop  offset="0" style="stop-color:#09005D"/>
						<stop  offset="1" style="stop-color:#1A0F91"/>
					</linearGradient>
					<path class="st26" d="M2184.6,1374.5l-2.1-0.9c-2.6-1.2-3.8-4.3-2.4-6.9c5.1-9.9,15.1-32.6,2.2-37.9
						c-16.6-6.8-82.6-20.3-96.8-43.7c-13.7-22.5-1.6-51.5,16.7-59.8c1.2-0.6,2.7-0.1,3.3,1.1l1.5,2.9c1,2,3.9,1.7,4.6-0.5l0,0
						c0.6-2.1,3.3-2.4,4.5-0.6c4.4,7,16.2,18.4,47.8,24.2c44.9,8.3,74.5,26.4,75.3,57.5c0,2,2.1,3.1,3.8,2c3.3-2,8.6-3,15.7,3
						c12.3,10.4,7.3,37.2-19.7,59.4c-1.3,1.1-1.3,3.1,0.1,4c4.9,3.2,12.2,10.8-6.7,20.9c-19.6,10.5-34.2,9.6-39.8,8.7
						c-1.4-0.2-2.3-1.6-2-3l6-27.3c0.3-1.5-0.8-3-2.4-3H2184.6z"/>
					
						<linearGradient id="SVGID_21_" gradientUnits="userSpaceOnUse" x1="-1834.149" y1="-9484.5107" x2="-1924.0922" y2="-9255.1562" gradientTransform="matrix(-1 0 0 1 -3892.1309 0)">
						<stop  offset="0" style="stop-color:#A22B25"/>
						<stop  offset="1" style="stop-color:#C0423C"/>
					</linearGradient>
					<path class="st27" d="M2183.5,1380.2c0,0,10-38.3,27.1-27.6c17.2,10.7-8.9,42.9-22.7,44.3L2183.5,1380.2z"/>
				</g>
				
					<linearGradient id="SVGID_22_" gradientUnits="userSpaceOnUse" x1="2269.8484" y1="1394.491" x2="2585.6743" y2="1667.3057" gradientTransform="matrix(1 0 0 1 -496.4048 0)">
					<stop  offset="0" style="stop-color:#A22B25"/>
					<stop  offset="1" style="stop-color:#C0423C"/>
				</linearGradient>
				<path class="st28" d="M1845.6,1485.4c0,0,13.1-23.2,12.2-34.5c-0.8-11.3,6.2-27.8-1.3-26.6c-7.5,1.2-9,0.2-11,13.7
					C1843.5,1451.6,1820,1510.7,1845.6,1485.4z"/>
				<linearGradient id="SVGID_23_" gradientUnits="userSpaceOnUse" x1="1957.9525" y1="1479.6514" x2="1882.0671" y2="2091.7961">
					<stop  offset="0" style="stop-color:#A22B25"/>
					<stop  offset="1" style="stop-color:#C0423C"/>
				</linearGradient>
				<path class="st29" d="M1843.2,1448.6l0.3,46.3c88.5,95.6,160.2,101.2,218.3,80.7c17.6,28.6,39,67.1,48.8,98.5
					c-236.4,52.1-292.1-165.2-292.1-165.2c-32-13.3-38.5-21-37.1-29.7L1843.2,1448.6z"/>
				
					<linearGradient id="SVGID_24_" gradientUnits="userSpaceOnUse" x1="2258.1565" y1="1408.0261" x2="2573.9812" y2="1680.8397" gradientTransform="matrix(1 0 0 1 -496.4048 0)">
					<stop  offset="0" style="stop-color:#A22B25"/>
					<stop  offset="1" style="stop-color:#C0423C"/>
				</linearGradient>
				<path class="st30" d="M1775.1,1402.6c7.6-3.1,22.3-31.3,25.2-22s-1.2,22,0,25.9c1.2,3.9,19.6,49.3,15.9,59.4
					c-2.7,7.3-17.3,6.2-19.5,18.1c-0.7,3.9-3.9,6.8-7.6,6.8c-3.7,0-6.8-2.8-7.6-6.8C1781.3,1482.5,1767.5,1405.7,1775.1,1402.6z"/>
				<g>
					
						<linearGradient id="SVGID_25_" gradientUnits="userSpaceOnUse" x1="-564.4236" y1="2188.155" x2="-1172.6989" y2="3464.2102" gradientTransform="matrix(0.8234 -0.5674 0.5674 0.8234 870.3583 -1445.3647)">
						<stop  offset="0" style="stop-color:#E1473D"/>
						<stop  offset="1" style="stop-color:#E9605A"/>
					</linearGradient>
					<path class="st31" d="M1517.3,1366.6c1.7,107.5,74,197.4,172.1,226.1l0.4,23.4l0,0l0.9,54.5l24.1-0.4l0.6,38.8l-24.1,0.4
						l0.3,19.4l24.1-0.4l0.4,22.4l-24.1,0.4l0.5,31.3l11.4-0.2l0.6,40.3l-11.4,0.2l0.3,17.9l22.2-0.4l0.8,48.1l-22.2,0.4l0.6,37
						l24.1-0.4l0.6,39.6l-24.1,0.4l0.7,46c0.1,5.4,2.2,10.7,5.8,14.7l59.3,65c5.6,6.2,14,8.5,21.7,6.7c0,0,0,0,0,0
						c0.7-0.2,1.4-0.4,2.1-0.6c0.2-0.1,0.4-0.1,0.6-0.2c0.6-0.2,1.1-0.4,1.6-0.7c0.2-0.1,0.4-0.2,0.6-0.3c0.7-0.4,1.4-0.7,2.1-1.2
						l39-25.7c6.4-4.2,10.2-11.4,10.1-19l-7.4-459.7c97.1-31.9,166.5-124,164.7-231.5c-2.1-132.3-111.1-237.8-243.4-235.7
						C1620.7,1125.4,1515.2,1234.3,1517.3,1366.6z M1754.4,1206.8c26.8-0.4,48.9,20.9,49.3,47.7c0.4,26.8-20.9,48.9-47.7,49.3
						c-26.8,0.4-48.9-20.9-49.3-47.7C1706.2,1229.3,1727.6,1207.2,1754.4,1206.8z"/>
					
						<linearGradient id="SVGID_26_" gradientUnits="userSpaceOnUse" x1="4166.353" y1="1040.2781" x2="3832.8105" y2="1703.9237" gradientTransform="matrix(-0.6569 0.754 0.754 0.6569 3152.9751 -2180.3218)">
						<stop  offset="0" style="stop-color:#FF928E"/>
						<stop  offset="1" style="stop-color:#FE7062"/>
					</linearGradient>
					<path class="st32" d="M1672.9,1454l3.5,217.9l24.1-0.4l0.6,38.8l-24.1,0.4l0.3,19.4l24.1-0.4l0.4,22.4l-24.1,0.4l0.5,31.3
						l11.4-0.2l0.6,40.3l-11.4,0.2l0.3,17.9l22.2-0.4l0.8,48.1l-22.2,0.4l0.6,37l24.1-0.4l0.6,39.6l-24.1,0.4l0.7,46
						c0.1,5.4,2.2,10.7,5.8,14.7l59.3,65c7.4,8.1,19.6,9.6,28.7,3.6l39-25.7c6.4-4.2,10.2-11.4,10.1-19l-8.9-554.9L1672.9,1454z"/>
					
						<linearGradient id="SVGID_27_" gradientUnits="userSpaceOnUse" x1="-985.3486" y1="2551.7361" x2="-492.8235" y2="3706.9312" gradientTransform="matrix(0.8234 -0.5674 0.5674 0.8234 870.3583 -1445.3647)">
						<stop  offset="0" style="stop-color:#FF9085"/>
						<stop  offset="1" style="stop-color:#FB6FBB"/>
					</linearGradient>
					<path class="st33" d="M1738.7,1124.5c-132.3,2.1-237.8,111.1-235.7,243.4s111.1,237.8,243.4,235.7
						c132.3-2.1,237.8-111.1,235.7-243.4C1980,1227.9,1871,1122.4,1738.7,1124.5z M1741.6,1305.1c-26.8,0.4-48.9-20.9-49.3-47.7
						c-0.4-26.8,20.9-48.9,47.7-49.3c26.8-0.4,48.9,20.9,49.3,47.7C1789.8,1282.6,1768.4,1304.7,1741.6,1305.1z"/>
					
						<linearGradient id="SVGID_28_" gradientUnits="userSpaceOnUse" x1="-1064.9453" y1="2709.5808" x2="-859.4302" y2="3463.1367" gradientTransform="matrix(0.8234 -0.5674 0.5674 0.8234 870.3583 -1445.3647)">
						<stop  offset="0" style="stop-color:#FEBBBA"/>
						<stop  offset="1" style="stop-color:#FF928E"/>
					</linearGradient>
					<path class="st34" d="M1982.1,1360.2c-2.1-132.3-111.1-237.8-243.4-235.7c-132.3,2.1-237.8,111.1-235.7,243.4
						c1.7,107.5,74,197.4,172.1,226.1l0.4,23.4c30.2-1.1,45.3,7.2,53.5,16.4c22.9,25.9,7.3,413.4,27.4,464.8
						c6.3,2.1,13.4,1.4,19.3-2.5l39-25.7c6.4-4.2,10.2-11.4,10.1-19l-7.4-459.7C1914.4,1559.8,1983.8,1467.7,1982.1,1360.2z
						 M1740.1,1208.1c26.8-0.4,48.9,20.9,49.3,47.7c0.4,26.8-20.9,48.9-47.7,49.3c-26.8,0.4-48.9-20.9-49.3-47.7
						C1691.9,1230.6,1713.3,1208.5,1740.1,1208.1z"/>
					<linearGradient id="SVGID_29_" gradientUnits="userSpaceOnUse" x1="1787.7588" y1="1072.6447" x2="1531.422" y2="2725.3506">
						<stop  offset="0" style="stop-color:#FF928E"/>
						<stop  offset="1" style="stop-color:#FE7062"/>
					</linearGradient>
					<path class="st35" d="M1739.5,1171.5c-106.3,1.7-191.1,89.3-189.4,195.6c1.7,106.3,89.3,191.1,195.6,189.4
						c106.3-1.7,191.1-89.3,189.4-195.6S1845.8,1169.8,1739.5,1171.5z M1741.6,1305.1c-26.8,0.4-48.9-20.9-49.3-47.7
						c-0.4-26.8,20.9-48.9,47.7-49.3c26.8-0.4,48.9,20.9,49.3,47.7C1789.8,1282.6,1768.4,1304.7,1741.6,1305.1z"/>
				</g>
				<linearGradient id="SVGID_30_" gradientUnits="userSpaceOnUse" x1="2639.8203" y1="1140.8279" x2="2336.2776" y2="1378.6033">
					<stop  offset="0" style="stop-color:#A22B25"/>
					<stop  offset="1" style="stop-color:#C0423C"/>
				</linearGradient>
				<path class="st36" d="M2207.5,1706.6c0,0-225.6,75.5-351.8-20.6c-7.8-6-17.7-8.6-27.4-7l-48.2,7.9c-20.2,3.3-39.5-9.8-43.9-29.8
					c-2.5-11.4-3.7-23.9-1.2-34.7l91-5.5l-2.6-11.8c0,0,40.2,9.8,41,41.3c0,0,94.4,61.8,266.5-34.1
					C2131,1612.3,2198,1664.7,2207.5,1706.6z"/>
			</g>
			<g>
				<linearGradient id="SVGID_31_" gradientUnits="userSpaceOnUse" x1="2391.2822" y1="1357.6467" x2="3044.2671" y2="2071.7168">
					<stop  offset="0" style="stop-color:#09005D"/>
					<stop  offset="1" style="stop-color:#1A0F91"/>
				</linearGradient>
				<path class="st37" d="M2409.1,1578.4c9.3-19.5,25.4-32.3,35.2-51.3c12.3-24,12.7-55.9,4.7-82.6c-6.7-22.2-18.6-41.4-25.4-63.6
					c-9.2-29.8-9.3-42.6-5.2-72.6c3.7-26.4,11.7-54.4,31.6-69.6c24.6-18.7,54.7-22.3,82.9-15.5c29.2,7,57.6,22.8,79,49.1
					c21.4,26.3,35.3,63.2,35,101.1c-0.2,25.6-6.7,52-0.3,76.3c5,18.9,18.1,33.9,33.3,38.4c16.9,5,34.6-2.3,52-2
					c17.3,0.3,34.4,8.4,47.5,22.6c11.7,12.6,20.3,30.2,22.3,49.4c2,19.3-3.3,40-15,52.6c-8,8.6-19.2,14.4-22.1,27.2
					c-3.3,14.3,6.4,28.6,17.1,34.4c10.8,5.8,22.9,6.3,33.8,11.5c24.5,11.6,39.4,46.7,37.5,79.9c-1.9,33.2-18.4,63.2-40.1,81.9
					c-21.6,18.7-47.9,27.1-74,29.8c-26.1,2.7-52.3,0.1-78.4-1.5c-29.9-1.8-60.4-2.3-88.7-14.5c-28.7-12.3-53.4-35.9-76.5-60.8
					c-10.9-11.8-22-24.7-26.9-41.8c-3.6-12.4-3.6-26.2-7.7-38.4c-8.8-26.1-33.2-37.2-47.3-59.2
					C2399.3,1636.9,2397.4,1603,2409.1,1578.4z"/>
				<path class="st1" d="M2733.4,1625.3c0.1,0,0.1,0,0.2,0c12.4-2.9,23.3-14.4,27.8-29.3c4.5-14.9,2.5-32.7-5.2-45.4
					c-11.4-18.8-31.4-23.7-51-27l-35.5-6.1c-20-3.4-40.5-8.4-52-27.2c-12.3-20.1-9.8-47.5-7.5-74c0.3-3,0.5-6,0.8-9
					c3.1-37.9,0-70.8-9.3-97.8c-11.3-33-32.3-57.3-56.3-64.9c-0.5-0.2-1,0.2-1.1,0.8c-0.1,0.6,0.2,1.2,0.7,1.4
					c23.4,7.5,44,31.3,55,63.6c9.1,26.7,12.2,59.2,9.1,96.7c-0.2,3-0.5,6-0.8,9c-2.4,27-4.9,54.8,7.8,75.6
					c11.9,19.5,32.8,24.6,53.2,28.1l35.5,6.1c19.2,3.3,38.9,8.1,49.8,26.2c7.3,12,9.2,29,5,43.2c-4.3,14.2-14.6,25.1-26.4,27.9
					c-0.5,0.1-0.8,0.7-0.7,1.3C2732.6,1624.9,2733,1625.3,2733.4,1625.3z"/>
				<path class="st1" d="M2722.2,1611.4c0.4,0,0.9-0.2,1.2-0.6c4.3-5.2,9.2-11,12.2-18.4c2.6-6.7,4-16.7-0.3-24.6
					c-2.8-5.1-7.3-8.1-11.7-10.5c-10.8-5.9-22.2-10.1-33.8-12.5c-7.6-1.6-15.3-2.4-22.8-3.2c-9.7-1-19.7-2.1-29.2-4.8
					c-11.4-3.2-31.9-12-40.9-34.8c-7.2-18.5-4.5-39-1.7-60.8c2.3-17.7,4.7-35.9,1.4-53.3c-0.2-1.2-1.2-2-2.2-1.7
					c-1,0.3-1.6,1.5-1.3,2.8c3.1,16.5,0.8,34.3-1.5,51.5c-2.8,21.5-5.7,43.8,2,63.6c9.6,24.5,31.3,33.9,43.3,37.3
					c9.8,2.8,19.9,3.8,29.7,4.9c7.4,0.8,15.1,1.6,22.5,3.1c11.3,2.4,22.4,6.4,33,12.2c3.7,2,7.8,4.5,10.2,8.8c2.8,5.1,2.8,13,0,20
					c-2.6,6.7-7.1,12-11.4,17.1c-0.7,0.9-0.8,2.3-0.1,3.2C2721.3,1611.2,2721.8,1611.4,2722.2,1611.4z"/>
				<linearGradient id="SVGID_32_" gradientUnits="userSpaceOnUse" x1="3364.7183" y1="1018.6857" x2="2858.8135" y2="1438.5869">
					<stop  offset="0" style="stop-color:#FF928E"/>
					<stop  offset="1" style="stop-color:#FE7062"/>
				</linearGradient>
				<path class="st38" d="M2443.4,1539.7c21.1-6.7,82.7-19.4,142.3,33.8c10.1,9,14.4,22.9,11.1,36.1c-14.8,58.3-53.7,230.6-16,304.3
					c0,0-63.2,72-134.3,15.9c0,0-33.7-136.7-75.9-196.3c-29.1-41.1,42.9-156.9,61.1-184.9
					C2434.4,1544.4,2438.5,1541.2,2443.4,1539.7z"/>
				
					<linearGradient id="SVGID_33_" gradientUnits="userSpaceOnUse" x1="-7047.8125" y1="2796.7981" x2="-7030.8325" y2="2676.2395" gradientTransform="matrix(0.9646 0.2639 -0.2639 0.9646 9989.3213 758.1492)">
					<stop  offset="0" style="stop-color:#FEBBBA"/>
					<stop  offset="1" style="stop-color:#FF928E"/>
				</linearGradient>
				<path class="st39" d="M2500.1,1423.4c0,0,32.8,88.2,35.8,127.3c0,0-34.4,16.3-67.5-9.8c0,0-4.9-88.6-10.1-104.4L2500.1,1423.4z"
					/>
				
					<linearGradient id="SVGID_34_" gradientUnits="userSpaceOnUse" x1="-7125.6587" y1="2538.4749" x2="-6966.8906" y2="2721.0154" gradientTransform="matrix(0.9646 0.2639 -0.2639 0.9646 9989.3213 758.1492)">
					<stop  offset="0" style="stop-color:#FEBBBA"/>
					<stop  offset="1" style="stop-color:#FF928E"/>
				</linearGradient>
				<path class="st40" d="M2454.5,1303.1c0,0-80.2,116.2-30.6,148.7c49.6,32.6,106.7-50,106.7-50s18-63.2-2.2-84.2
					C2508.1,1296.6,2454.5,1303.1,2454.5,1303.1z"/>
				<linearGradient id="SVGID_35_" gradientUnits="userSpaceOnUse" x1="2491.8545" y1="1291.2153" x2="3197.8699" y2="2063.2771">
					<stop  offset="0" style="stop-color:#09005D"/>
					<stop  offset="1" style="stop-color:#1A0F91"/>
				</linearGradient>
				<path class="st41" d="M2492.1,1275c0,0-37.6,9.5-42.6,26.7c-5,17.1,54,32,70.5,32.5l14.4,68.6c0,0,38.2-65.4,22-102.5
					C2540.2,1263.2,2492.1,1275,2492.1,1275z"/>
				
					<linearGradient id="SVGID_36_" gradientUnits="userSpaceOnUse" x1="-7085.9922" y1="2503.9705" x2="-6927.2251" y2="2686.5098" gradientTransform="matrix(0.9646 0.2639 -0.2639 0.9646 9989.3213 758.1492)">
					<stop  offset="0" style="stop-color:#FEBBBA"/>
					<stop  offset="1" style="stop-color:#FF928E"/>
				</linearGradient>
				<path class="st42" d="M2514.6,1393.6c0,0,31.3-37.5,44.4-13.6c13.1,23.9-28.1,42.7-42.6,31.1L2514.6,1393.6z"/>
				
					<linearGradient id="SVGID_37_" gradientUnits="userSpaceOnUse" x1="5657.4121" y1="2995.2908" x2="6036.2153" y2="2326.6223" gradientTransform="matrix(-1 6.600000e-03 6.600000e-03 1 8393.3115 -58.7609)">
					<stop  offset="0" style="stop-color:#FEBBBA"/>
					<stop  offset="1" style="stop-color:#FF928E"/>
				</linearGradient>
				<path class="st43" d="M2369.1,2219.3c0.3,6.2-9.8,55.8-15.3,82.3c-2.2,10.6-0.4,21.7,5.2,31.1l211.8,343.7
					c2.6,4.2,4.5,8.7,5.6,13.4c4,16.2,12.5,56,9,92.4l-10.3,22.3l46-11.2l8-124l-13.2-7.8c-11.4-6.7-20.3-16.8-25.6-29
					c-19.4-45-67.5-159.5-80.4-215.5c-14.6-63.6-86.3-114.3-86.3-114.3l12-29.6L2369.1,2219.3z"/>
				
					<linearGradient id="SVGID_38_" gradientUnits="userSpaceOnUse" x1="5739.9873" y1="2758.8777" x2="5850.7119" y2="2758.8777" gradientTransform="matrix(-1 6.600000e-03 6.600000e-03 1 8393.3115 -58.7609)">
					<stop  offset="0" style="stop-color:#09005D"/>
					<stop  offset="1" style="stop-color:#1A0F91"/>
				</linearGradient>
				<path class="st44" d="M2671.6,2749.8c0,0-25.5-39.1-28.7-54.4c-3.2-15.3-11.8-42.3-27-33.9c0,0-6,74.8-3.1,103.9
					c3,29.1-32.5,28.8-32.5,28.8s-9.8,1.5-16.8,8.8c-4.9,5-1.2,13.5,5.8,13.9c11.6,0.6,30.1,0.5,49.4-3.6c6.7-1.4,11.7-7.3,12-14.1
					l3.7-86l32.1,39.2L2671.6,2749.8z"/>
				
					<linearGradient id="SVGID_39_" gradientUnits="userSpaceOnUse" x1="6086.6909" y1="2500.6262" x2="5520.1719" y2="2681.7808" gradientTransform="matrix(-1 6.600000e-03 6.600000e-03 1 8393.3115 -58.7609)">
					<stop  offset="0" style="stop-color:#FEBBBA"/>
					<stop  offset="1" style="stop-color:#FF928E"/>
				</linearGradient>
				<path class="st45" d="M2493.2,2272.6c0,0,12.3,310.3,14,354.3c1.7,44.1-4.7,141.9-48.4,171.8l19.5,13.9c0,0,23.7-20.8,46.5-60.5
					c25.7-44.6,33.5-52.8,33.5-52.8l-9-17.8c-4-7.8-5.2-16.6-3.6-25.2c8.8-46.4,38.2-200.6,46.3-233.9c9.6-39.2,9.5-91.4-26.9-134.6
					C2528.7,2244.9,2493.2,2272.6,2493.2,2272.6z"/>
				
					<linearGradient id="SVGID_40_" gradientUnits="userSpaceOnUse" x1="5842.6445" y1="2778.876" x2="5974.6382" y2="2778.876" gradientTransform="matrix(-1 6.600000e-03 6.600000e-03 1 8393.3115 -58.7609)">
					<stop  offset="0" style="stop-color:#09005D"/>
					<stop  offset="1" style="stop-color:#1A0F91"/>
				</linearGradient>
				<path class="st46" d="M2542.9,2825.6c1.4,0,2.5-1,2.7-2.4c1.3-10.4,6.8-52,11.6-62.8c5.5-12.4,23.5-64.5-1.1-68.5
					c0,0-59.5,89.9-71,102.1c-11.5,12.2-26.4,4.6-26.4,4.6s-11.3,3.5-19.7,14.7c-4,5.3-0.1,12.9,6.6,12.9l41-0.3
					c11.9-0.1,22.5-7.5,26.8-18.6c6.9-18.1,18.9-44.8,33.2-56.8l-6.4,72C2540,2824.2,2541.3,2825.6,2542.9,2825.6L2542.9,2825.6z"/>
				<linearGradient id="SVGID_41_" gradientUnits="userSpaceOnUse" x1="2481.7336" y1="2162.7065" x2="2668.9182" y2="1854.1047">
					<stop  offset="0" style="stop-color:#E1473D"/>
					<stop  offset="1" style="stop-color:#E9605A"/>
				</linearGradient>
				<path class="st47" d="M2436.2,1896.6c0,0,9.7,29.3-3.7,78.1l-83.1,309c-1.3,4.9,1.4,9.9,6.1,11.5c26.5,9,113.5,34.4,231.6,24.3
					c5.9-0.5,10.9-4.8,12.1-10.6c7.2-35.2,31.9-155.3,37-179.9c19.3-94,41-195.4-62.4-254.8C2526.9,1895,2483,1907.6,2436.2,1896.6z
					"/>
				
					<linearGradient id="SVGID_42_" gradientUnits="userSpaceOnUse" x1="5725.6763" y1="2025.2559" x2="6354.0371" y2="1306.5038" gradientTransform="matrix(-0.9941 -0.1087 -0.1087 0.9941 8615.2451 546.5079)">
					<stop  offset="0" style="stop-color:#FEBBBA"/>
					<stop  offset="1" style="stop-color:#FF928E"/>
				</linearGradient>
				<path class="st48" d="M2594.3,1585c0,0,101.6,81.7,128.3,195.1c26.7,113.4-144.4,128.3-144.4,128.3s-23.7-25.6-51.1-15.9
					c-27.5,9.7-2.9-45.3,29.4-45.7c32.3-0.4,17.8,25.4,63.1,4c44.2-20.9,70.7-83.7-44.4-176.4c-6.7-5.4-12-12.3-15.3-20.2
					C2536.8,1599,2553.7,1562.3,2594.3,1585z"/>
			</g>
			<g>
				
					<linearGradient id="SVGID_43_" gradientUnits="userSpaceOnUse" x1="3919.7551" y1="3271.7385" x2="4013.7222" y2="3485.5342" gradientTransform="matrix(0.9776 -0.2106 0.2106 0.9776 -2649.1887 -208.3751)">
					<stop  offset="0" style="stop-color:#FEBBBA"/>
					<stop  offset="1" style="stop-color:#FF928E"/>
				</linearGradient>
				<path class="st49" d="M1832.1,2095.9c0,0,57.6,155.1,145.1,136.1c0,0,9,52.8-5.7,59c0,0-131.4,3.8-144.4-176.6L1832.1,2095.9z"
					/>
				<g>
					
						<linearGradient id="SVGID_44_" gradientUnits="userSpaceOnUse" x1="3922.229" y1="3287.9485" x2="4024.5403" y2="3520.7295" gradientTransform="matrix(0.9776 -0.2106 0.2106 0.9776 -2649.1887 -208.3751)">
						<stop  offset="0" style="stop-color:#FEBBBA"/>
						<stop  offset="1" style="stop-color:#FF928E"/>
					</linearGradient>
					<path class="st50" d="M1834.5,2132.3c-0.2,2.7,9.8,4.5,12.9-6.9c-0.9-5-2.4-26.8-6.2-30.2c-20.3-18-56.6-38.3-56.6-38.3
						c-4.1,6.2,1.3,10.3,1.3,10.3l18.1,12.2c-1.9,6.3-4.6,11.8-5,18.9c-0.2,5.4,1.8,10.7,5.3,14.8c3.6,4.1,8.4,9.4,12.8,13.5
						C1825.5,2134.1,1834.5,2132.3,1834.5,2132.3z"/>
					<linearGradient id="SVGID_45_" gradientUnits="userSpaceOnUse" x1="1808.749" y1="2104.6936" x2="1836.6516" y2="2104.6936">
						<stop  offset="0" style="stop-color:#FF928E"/>
						<stop  offset="1" style="stop-color:#FE7062"/>
					</linearGradient>
					<path class="st51" d="M1824.5,2123.5c-2.4-5.9-9.5-22.1-12.6-25.4c-2.3-2.4-3.3-4.5-3.2-6.6c0.1-1.8,1-3.3,2.8-4.8l0.9-0.7
						l17.3,9.3l6.9,10.8l-2.8,1.8l-6.4-10.1l-14.5-7.7c-0.5,0.6-0.7,1.1-0.8,1.6c-0.1,1.1,0.7,2.5,2.2,4.1
						c4.2,4.3,12.4,24.2,13.3,26.4L1824.5,2123.5z"/>
				</g>
				
					<linearGradient id="SVGID_46_" gradientUnits="userSpaceOnUse" x1="-6350.6758" y1="1974.3156" x2="-6458.3164" y2="2069.293" gradientTransform="matrix(-1 0 0 1 -4454.9819 0)">
					<stop  offset="0" style="stop-color:#09005D"/>
					<stop  offset="1" style="stop-color:#1A0F91"/>
				</linearGradient>
				<path class="st52" d="M1976.4,2031.1c0,0,27.8-25.1-7.9-52.3c-33.6-25.6-58.1,8.7-47,30.8c0.8,1.6-0.1,3.5-1.8,3.8
					c-2.9,0.6-5.5,3.6-0.8,13.9c0.4,0.9,0.3,1.9-0.3,2.7c-4.1,5.5-17.9,27.6,23.6,31c0.7,0.1,1.5-0.2,2-0.7L1976.4,2031.1z"/>
				
					<linearGradient id="SVGID_47_" gradientUnits="userSpaceOnUse" x1="-7298.9619" y1="833.6989" x2="-7211.5942" y2="833.6989" gradientTransform="matrix(-0.9842 -0.1769 -0.1769 0.9842 -4827.3643 -31.8453)">
					<stop  offset="0" style="stop-color:#09005D"/>
					<stop  offset="1" style="stop-color:#1A0F91"/>
				</linearGradient>
				<path class="st53" d="M2122.4,2067.9c0,0,2.7-32,19.8-42.5c17.2-10.4,50.4-19.3,64.4,15.5c6.7,16.6,4.4,24.5,0.3,28.3
					c-3.8,3.4-4.2,8.7-1.7,13.1c2.8,5,3.2,11.3-5.3,16.9c-2.5,1.7-4.2,4.1-4.7,6.9c-2.2,11.6-14.1,39.5-77.7,9L2122.4,2067.9z"/>
				
					<linearGradient id="SVGID_48_" gradientUnits="userSpaceOnUse" x1="-2610.7551" y1="-2277.0481" x2="-3082.5686" y2="-1947.8158" gradientTransform="matrix(-0.9842 -0.1769 -0.1769 0.9842 -4827.3643 -31.8453)">
					<stop  offset="0" style="stop-color:#09005D"/>
					<stop  offset="1" style="stop-color:#1A0F91"/>
				</linearGradient>
				<path class="st54" d="M2049,2010.3c12.5-5.4,39-10.8,59.6,25.2c1.4,2.5,3.5,4.6,6.1,6c12.3,6.8,47.8,31.4,15.5,75.8
					c-1.5,2-2.5,4.4-2.8,6.9c-1.1,7.5-4.7,24.2-15.4,28.3c-3.2,1.2-5.9,3.5-7.7,6.4c-7.2,11.9-27.9,36.9-62.5,10.8
					c-1.8-1.3-3.8-2.3-6-2.8l-47.9-10.6c-2.5-0.6-5.2-0.5-7.7,0.3c-5.9,1.7-17.7,3.2-22.1-10.6c-0.9-2.8-2.6-5.3-4.8-7.2
					c-8-6.8-25.1-25.3-12.2-51.3c1.4-2.9,2-6.2,1.5-9.4c-1.5-9.7-2.3-31.3,17.9-40.6c3-1.4,5.6-3.7,7.1-6.6
					c6.7-13,28.7-46.1,67.3-21.8C2039,2011.8,2044.3,2012.3,2049,2010.3z"/>
				
					<linearGradient id="SVGID_49_" gradientUnits="userSpaceOnUse" x1="-6445.8452" y1="2791.1077" x2="-6362.1753" y2="2791.1077" gradientTransform="matrix(-1 0 0 1 -4454.9819 0)">
					<stop  offset="0" style="stop-color:#E1473D"/>
					<stop  offset="1" style="stop-color:#E9605A"/>
				</linearGradient>
				<path class="st55" d="M1983.9,2771.7l7,8.1l-4.8,17.5c-1.3,4.6-5,8-9.7,8.9c-15.6,2.9-50.9,8-69,0.2c0,0-5.7-37.9,56.9-26.6
					L1983.9,2771.7z"/>
				
					<linearGradient id="SVGID_50_" gradientUnits="userSpaceOnUse" x1="-6551.7505" y1="2818.2366" x2="-6505.2119" y2="2818.2366" gradientTransform="matrix(-1 0 0 1 -4454.9819 0)">
					<stop  offset="0" style="stop-color:#E1473D"/>
					<stop  offset="1" style="stop-color:#E9605A"/>
				</linearGradient>
				<path class="st56" d="M2093.1,2791.8l3.7,9.1l-1.5,32.8c-0.2,4.6-3.9,8.5-8.9,9.3c-6.8,1.1-16.8,2.1-26.2,1.4
					c-7.3-0.6-11.9-7.5-9.1-13.6l11-23.7c1.7-3.5,4.7-6.3,8.4-7.5L2093.1,2791.8z"/>
				
					<linearGradient id="SVGID_51_" gradientUnits="userSpaceOnUse" x1="-6498.2637" y1="2290.0603" x2="-6491.5332" y2="2221.6313" gradientTransform="matrix(-1 0 0 1 -4454.9819 0)">
					<stop  offset="0" style="stop-color:#FEBBBA"/>
					<stop  offset="1" style="stop-color:#FF928E"/>
				</linearGradient>
				<path class="st57" d="M2061.3,2152.2l7.1,70.6c0,0-38.4,13-63.6-1.7l6.8-70.9L2061.3,2152.2z"/>
				
					<linearGradient id="SVGID_52_" gradientUnits="userSpaceOnUse" x1="-6196.7637" y1="1584.0779" x2="-5914.9136" y2="720.91" gradientTransform="matrix(-1 0 0 1 -4454.9819 0)">
					<stop  offset="0" style="stop-color:#FEBBBA"/>
					<stop  offset="1" style="stop-color:#FF928E"/>
				</linearGradient>
				<path class="st58" d="M2122.8,2538.7c0,0-18.2,203.1-30.2,265.2c0,0-9,6.6-22.5-1.9l-16.3-271L2122.8,2538.7z"/>
				
					<linearGradient id="SVGID_53_" gradientUnits="userSpaceOnUse" x1="-6112.4771" y1="1611.5986" x2="-5830.627" y2="748.4305" gradientTransform="matrix(-1 0 0 1 -4454.9819 0)">
					<stop  offset="0" style="stop-color:#FEBBBA"/>
					<stop  offset="1" style="stop-color:#FF928E"/>
				</linearGradient>
				<path class="st59" d="M2041.9,2550.9l-49.9,227.4c0,0-13.6,14.1-31.2,0l8.6-239.1L2041.9,2550.9z"/>
				
					<linearGradient id="SVGID_54_" gradientUnits="userSpaceOnUse" x1="-6757.6943" y1="2566.9746" x2="-6531.7656" y2="2256.5525" gradientTransform="matrix(-1 0 0 1 -4454.9819 0)">
					<stop  offset="0" style="stop-color:#FEBBBA"/>
					<stop  offset="1" style="stop-color:#FF928E"/>
				</linearGradient>
				<path class="st60" d="M2105,2228.1l12.5,1.4c24.2,25.9,68.5,204,84.5,241.9l65.1-10.6c2.6-0.5,4.6,2,3.6,4.4
					c-2.9,7.1-13.7,27.4-56,27.4c-19.7,0,11.1,15.3-0.7,20.6c0,0-25.9-9.3-26-25.8c0,0-74.4-169.4-89.6-187.2
					C2083.1,2282.4,2105,2228.1,2105,2228.1z"/>
				<linearGradient id="SVGID_55_" gradientUnits="userSpaceOnUse" x1="3442.8174" y1="1112.7845" x2="2936.9131" y2="1532.6854">
					<stop  offset="0" style="stop-color:#FF928E"/>
					<stop  offset="1" style="stop-color:#FE7062"/>
				</linearGradient>
				<path class="st61" d="M2117.5,2229.5c0,0-66.1-24.5-148.7,0.9c0,0-9.3,62.5-4.5,92.3l142.3,5.2L2117.5,2229.5z"/>
				<linearGradient id="SVGID_56_" gradientUnits="userSpaceOnUse" x1="3546.9148" y1="1238.2002" x2="3041.0103" y2="1658.1014">
					<stop  offset="0" style="stop-color:#FF928E"/>
					<stop  offset="1" style="stop-color:#FE7062"/>
				</linearGradient>
				<path class="st62" d="M1966.2,2342.1c0,0-45.5,146-52.2,243.2c-0.3,5,3.4,9.3,8.4,9.7c9.5,0.7,26.1,3,48.8,10.6
					c36.8,12.2,67.2,8.2,94.7,0.3c21.6-6.2,75.5-11.6,97.7-13.7c5.3-0.5,9-5.4,8.1-10.6c-6.5-36-31-163.7-68.2-250.5L1966.2,2342.1z
					"/>
				<linearGradient id="SVGID_57_" gradientUnits="userSpaceOnUse" x1="3466.4382" y1="1141.2511" x2="2960.5337" y2="1561.1522">
					<stop  offset="0" style="stop-color:#E1473D"/>
					<stop  offset="1" style="stop-color:#E9605A"/>
				</linearGradient>
				<path class="st63" d="M1963.8,2319.2l2.4,22.9c0,0,43.8,0.2,140.4-3.1l0.5-16.6C2107.2,2322.5,2000.1,2324.6,1963.8,2319.2z"/>
				
					<linearGradient id="SVGID_58_" gradientUnits="userSpaceOnUse" x1="-7137.6602" y1="858.731" x2="-7128.6963" y2="725.393" gradientTransform="matrix(-0.9852 -0.1732 -0.1896 1.0333 -4854.8672 73.4947)">
					<stop  offset="0" style="stop-color:#FEBBBA"/>
					<stop  offset="1" style="stop-color:#FF928E"/>
				</linearGradient>
				<path class="st64" d="M1964.2,2083.7c-11,42.4-7.8,91.2,42.2,102.2c34.6,7.6,70.9-27.6,81.8-70.1c11-42.4-7.8-74.8-42.1-83.6
					C2011.9,2023.3,1975.1,2041.3,1964.2,2083.7z"/>
				
					<linearGradient id="SVGID_59_" gradientUnits="userSpaceOnUse" x1="-7062.9272" y1="979.9899" x2="-7053.9526" y2="846.4945" gradientTransform="matrix(-0.9842 -0.1769 -0.1769 0.9842 -4827.3643 -31.8453)">
					<stop  offset="0" style="stop-color:#FEBBBA"/>
					<stop  offset="1" style="stop-color:#FF928E"/>
				</linearGradient>
				<path class="st65" d="M1967.9,2096.8c0,0-1.6-25.7-14.4-17.7c-12.8,7.9,4.9,38.7,12.9,40.5
					C1974.2,2121.4,1967.9,2096.8,1967.9,2096.8z"/>
				
					<linearGradient id="SVGID_60_" gradientUnits="userSpaceOnUse" x1="-7188.8569" y1="971.524" x2="-7179.8823" y2="838.0261" gradientTransform="matrix(-0.9842 -0.1769 -0.1769 0.9842 -4827.3643 -31.8453)">
					<stop  offset="0" style="stop-color:#FEBBBA"/>
					<stop  offset="1" style="stop-color:#FF928E"/>
				</linearGradient>
				<path class="st66" d="M2077.4,2126.4c0,0,3.8-19.6,17.7-10.5c13.9,9-12.6,41-28.9,33.9L2077.4,2126.4z"/>
				
					<linearGradient id="SVGID_61_" gradientUnits="userSpaceOnUse" x1="-2619.6218" y1="-2289.7434" x2="-3091.4351" y2="-1960.5115" gradientTransform="matrix(-0.9842 -0.1769 -0.1769 0.9842 -4827.3643 -31.8453)">
					<stop  offset="0" style="stop-color:#09005D"/>
					<stop  offset="1" style="stop-color:#1A0F91"/>
				</linearGradient>
				<path class="st67" d="M2098,2110.9c0,0-39.7,43-60.3-46.2c0,0-20.6,26.6-30,3.1c0,0-41,14-45.5-3.2
					c-4.5-17.2,55.4-64,103.6-30.4C2113.9,2067.6,2098,2110.9,2098,2110.9z"/>
			</g>
		</g>
		<g>
			
				<linearGradient id="SVGID_62_" gradientUnits="userSpaceOnUse" x1="1190.5221" y1="3926.084" x2="1230.6729" y2="3152.2612" gradientTransform="matrix(-1 0 0 1 2047.495 0)">
				<stop  offset="0" style="stop-color:#09005D"/>
				<stop  offset="1" style="stop-color:#1A0F91"/>
			</linearGradient>
			<path class="st68" d="M746.3,2823.5c0-0.8,0-1.6,0.2-2.4c12.2-48.2,61.9-72.9,61.9-72.9l23.9,1.9c13.8,42.5,22.6,63.2,20.4,74.9
				c-0.1,0.3-0.2,0.6-0.2,0.9C832.8,2827.5,792.2,2828.7,746.3,2823.5z"/>
			<path class="st3" d="M852.5,2825.8c-1.1,3.9-3.9,6.9-7.6,7.7c-28.1,5.9-72.7,1.2-91.4-1.3c-4.1-0.5-7.2-4.4-7.2-8.7
				C792.2,2828.7,832.8,2827.5,852.5,2825.8z"/>
			
				<linearGradient id="SVGID_63_" gradientUnits="userSpaceOnUse" x1="2629.8689" y1="2662.3269" x2="2608.5447" y2="2848.429" gradientTransform="matrix(1 0 0 1 -1811.8352 0)">
				<stop  offset="0" style="stop-color:#FEBBBA"/>
				<stop  offset="1" style="stop-color:#FF928E"/>
			</linearGradient>
			<path class="st69" d="M788.7,2710.9l10.5,50.4c0.8,3.7,3.6,6.5,7,6.8c4.2,0.4,10.2,0.6,16.2-0.3c5.4-0.8,9.2-6.3,8.2-12.2
				l-7.3-44.8H788.7z"/>
			<path class="st3" d="M1055.7,2825.3c-25.5-0.7-38.8-3.7-45.6-6.5c0,2.5,0,5.1,0.1,7.8c0.1,2.9,2.2,5.1,4.8,5.1l140.3-0.9
				c4.5,0,7.1-5.2,5.2-9.3C1142.1,2823,1095.2,2826.4,1055.7,2825.3z"/>
			
				<linearGradient id="SVGID_64_" gradientUnits="userSpaceOnUse" x1="2879.6001" y1="3156.3564" x2="2919.7505" y2="2382.5369" gradientTransform="matrix(1 0 0 1 -1811.8352 0)">
				<stop  offset="0" style="stop-color:#09005D"/>
				<stop  offset="1" style="stop-color:#1A0F91"/>
			</linearGradient>
			<path class="st70" d="M1160.5,2821.5c-0.2-0.4-0.3-0.7-0.6-1.1c-12.4-17.3-43.9-51.8-106.3-66.7l-29.9-0.9c0,0-13.3,23.1-13.6,66
				c6.8,2.8,20,5.8,45.6,6.5C1095.2,2826.4,1142.1,2823,1160.5,2821.5z"/>
			
				<linearGradient id="SVGID_65_" gradientUnits="userSpaceOnUse" x1="2854.5027" y1="2686.136" x2="2834.5554" y2="2860.2236" gradientTransform="matrix(1 0 0 1 -1811.8352 0)">
				<stop  offset="0" style="stop-color:#FEBBBA"/>
				<stop  offset="1" style="stop-color:#FF928E"/>
			</linearGradient>
			<path class="st71" d="M1018.2,2707.5c0.3,2.2,4.4,36.1,6,49.3c0.4,3.1,2.6,5.5,5.5,5.9c5.1,0.6,13.3,1.2,20.5-0.3
				c3.9-0.8,6.7-4.5,6.7-8.9v-53.2L1018.2,2707.5z"/>
			<linearGradient id="SVGID_66_" gradientUnits="userSpaceOnUse" x1="1258.1888" y1="1447.099" x2="809.1815" y2="2761.2659">
				<stop  offset="0" style="stop-color:#E1473D"/>
				<stop  offset="1" style="stop-color:#E9605A"/>
			</linearGradient>
			<path class="st72" d="M808.7,2048.8c0,0-47.9,425.4-21.3,691.3c0,0,31.9,0,47.9-5.3c0,0,49.7-416,65.8-535c0.6-4.5,7-4.7,7.9-0.2
				c19.9,100.1,97.8,492.8,107.1,529.9c0,0,26.6,10.6,47.9,0c0,0-42.5-569-74.4-670L808.7,2048.8z"/>
			<linearGradient id="SVGID_67_" gradientUnits="userSpaceOnUse" x1="966.2789" y1="1750.6206" x2="453.4421" y2="2001.1669">
				<stop  offset="0" style="stop-color:#09005D"/>
				<stop  offset="1" style="stop-color:#1A0F91"/>
			</linearGradient>
			<path class="st73" d="M713,1554.2c0,0,202.1-31.9,361.6,10.6l-10.6,164.9c0,0-42.5,228.7-74.4,329.7c0,0-122.3,21.3-180.8-10.6
				c0,0-47.9-287.2-74.4-329.7C734.3,1719.1,707.7,1607.4,713,1554.2z"/>
			<linearGradient id="SVGID_68_" gradientUnits="userSpaceOnUse" x1="833.2311" y1="1482.5631" x2="928.8553" y2="1482.5631">
				<stop  offset="0" style="stop-color:#FEBBBA"/>
				<stop  offset="1" style="stop-color:#FF928E"/>
			</linearGradient>
			<path class="st74" d="M853.4,1408.9l-20.1,136.1c0,0,56.2,25.8,95.6-1.1l-8.5-96.1L853.4,1408.9z"/>
			<g>
				
					<linearGradient id="SVGID_69_" gradientUnits="userSpaceOnUse" x1="10765.7959" y1="-1770.991" x2="10933.3135" y2="-1811.7623" gradientTransform="matrix(0.8757 -0.4828 0.4828 0.8757 279.6142 848.0033)">
					<stop  offset="0" style="stop-color:#FEBBBA"/>
					<stop  offset="1" style="stop-color:#FF928E"/>
				</linearGradient>
				<path class="st75" d="M940,1320.3c0.6,1.2,12.8,69.8,20.2,112.3c3.1,17.6-9.8,33.9-27.6,34.9l-16.3,1
					c-29.9,1.8-56.3-19.5-60.8-49.2l-11.8-77C843.7,1342.3,924.6,1292.3,940,1320.3z"/>
				
					<linearGradient id="SVGID_70_" gradientUnits="userSpaceOnUse" x1="211.6806" y1="719.4575" x2="384.2233" y2="719.4575" gradientTransform="matrix(0.8757 -0.4828 0.4828 0.8757 279.6142 848.0033)">
					<stop  offset="0" style="stop-color:#09005D"/>
					<stop  offset="1" style="stop-color:#1A0F91"/>
				</linearGradient>
				<path class="st76" d="M826.2,1342.5c-6.2-7.8-11.7-20.3,1.6-33.5c13.5-13.4,28.8-10,38.4-5.6c4.3,2,9.6,1.1,12.6-2.5
					c1.4-1.6,3.4-2.7,6.4-2.4c5.6,0.6,10.7-3.1,11.3-8.7c1.1-9.7,6.3-21,23.4-24.3c31.3-6.1,46.9,25.3,46.4,47.3
					c-0.6,22-34.9,26.7-54.3,23c-14.3-2.7-26.7,9.9-32.2,16.7c-2,2.5-2.8,5.8-2,8.9l4.9,21.3c-3.4,6.6-6.8,13.4-11.6,19
					c-3.5,4.1-7.3,6.3-11.3,7.3c-5.8-10.9-22.2-12.7-29.7-13c-2.9-0.1-5.6-1.4-7.5-3.6c-5.7-6.6-14.7-21.2,2.5-35.6
					C829.2,1353.2,829.7,1346.8,826.2,1342.5z"/>
				
					<linearGradient id="SVGID_71_" gradientUnits="userSpaceOnUse" x1="10759.9102" y1="-1795.2614" x2="10927.4287" y2="-1836.0328" gradientTransform="matrix(0.8757 -0.4828 0.4828 0.8757 279.6142 848.0033)">
					<stop  offset="0" style="stop-color:#FEBBBA"/>
					<stop  offset="1" style="stop-color:#FF928E"/>
				</linearGradient>
				<path class="st77" d="M865.3,1431.7c0,0-0.7-38.4-16.2-42c-15.5-3.6-32.3,7.6-19,30.6C846.6,1448.9,865.3,1431.7,865.3,1431.7z"
					/>
			</g>
			<linearGradient id="SVGID_72_" gradientUnits="userSpaceOnUse" x1="938.1998" y1="1693.146" x2="425.3637" y2="1943.6919">
				<stop  offset="0" style="stop-color:#09005D"/>
				<stop  offset="1" style="stop-color:#1A0F91"/>
			</linearGradient>
			<path class="st78" d="M713,1554.2c0,0-313.8,340.3,55.8,470.6v-26.6c0,0-138.3-117-31.9-276.5
				C736.9,1721.7,723.6,1570.2,713,1554.2z"/>
			<linearGradient id="SVGID_73_" gradientUnits="userSpaceOnUse" x1="856.5036" y1="1970.5239" x2="686.3322" y2="2115.8784">
				<stop  offset="0" style="stop-color:#FEBBBA"/>
				<stop  offset="1" style="stop-color:#FF928E"/>
			</linearGradient>
			<path class="st79" d="M771.5,2000.9c0,0,47.9-31.9,69.1-21.3c21.3,10.6,21.3,26.6,21.3,26.6s-10.6,21.3-26.6,16
				c-16-5.3-53.2,5.3-69.1,0C766.2,2022.2,760.8,2000.9,771.5,2000.9z"/>
			<g>
				<linearGradient id="SVGID_74_" gradientUnits="userSpaceOnUse" x1="963.4986" y1="1744.9296" x2="450.6615" y2="1995.476">
					<stop  offset="0" style="stop-color:#09005D"/>
					<stop  offset="1" style="stop-color:#1A0F91"/>
				</linearGradient>
				<path class="st80" d="M1319.3,1674.4c-101.3,15.2-158.2-54-207.4-92.7c-65-51.2-124.6-21-124.6-21l63.9,149.2
					c103.4,97.5,214.9,58.9,281.7,27.3C1333.9,1711.6,1327.1,1690.2,1319.3,1674.4z"/>
				<linearGradient id="SVGID_75_" gradientUnits="userSpaceOnUse" x1="1234.1483" y1="1731.4493" x2="1598.418" y2="1606.6532">
					<stop  offset="0" style="stop-color:#FEBBBA"/>
					<stop  offset="1" style="stop-color:#FF928E"/>
				</linearGradient>
				<path class="st81" d="M1461.6,1614l-33.6,18.1c-40.3,24.5-76.3,37.5-108.8,42.4c7.8,15.8,14.7,37.2,13.6,62.7
					c42.6-20.1,69.3-44.3,69.3-44.3C1478.2,1647.5,1461.6,1614,1461.6,1614z"/>
			</g>
			<linearGradient id="SVGID_76_" gradientUnits="userSpaceOnUse" x1="1233.653" y1="1730.0027" x2="1597.9218" y2="1605.2067">
				<stop  offset="0" style="stop-color:#FEBBBA"/>
				<stop  offset="1" style="stop-color:#FF928E"/>
			</linearGradient>
			<path class="st82" d="M1560.6,1661.3c-2.2-7.2-7.5-13-14.5-15.9l-68.2-27.4c0,0-1-8.7,14.4-14.7c15.4-5.9,11.8-23.2,11.8-23.2
				s-21.1,9.6-52,24.9c-17.7,8.7-27.6,24.1-32.8,35.7l17.6,23.1c42,12.6,84.5,15,127.4,10L1560.6,1661.3z"/>
		</g>
	</g>
</g>
</svg>
