<?xml version="1.0" encoding="utf-8"?>
<!-- Generator: Adobe Illustrator 24.2.0, SVG Export Plug-In . SVG Version: 6.00 Build 0)  -->
<svg version="1.1" id="Layer_1" xmlns="http://www.w3.org/2000/svg" xmlns:xlink="http://www.w3.org/1999/xlink" x="0px" y="0px"
	 viewBox="0 0 366 433" style="enable-background:new 0 0 366 433;" xml:space="preserve">
<style type="text/css">
	.st0{opacity:0.1;}
	.st1{opacity:0.7;fill-rule:evenodd;clip-rule:evenodd;fill:#69A1AC;enable-background:new    ;}
	.st2{opacity:0.7;fill-rule:evenodd;clip-rule:evenodd;fill:#89C5CC;enable-background:new    ;}
	.st3{opacity:4.000000e-02;}
	.st4{fill-rule:evenodd;clip-rule:evenodd;fill:#F2F2F2;}
	.st5{fill-rule:evenodd;clip-rule:evenodd;fill:#FFA800;}
	.st6{fill:#E49963;}
	.st7{fill:#163560;}
	.st8{fill:#ED7D2B;}
	.st9{fill:#599DAD;}
	.st10{fill:#6BB7BF;}
	.st11{fill:#5AA9AD;}
	.st12{fill:#F99746;}
	.st13{fill:#D68D5D;}
	.st14{fill:#4A75CB;}
	.st15{fill:#2B478B;}
</style>
<g class="st0">
	<path class="st1" d="M347.6,252.1c-7.4,21.8-26.8,54.9-54.4,48.6c6.3-10.8,13.2-22.3,19.4-32.8c1.3-2.3,2.8-5,4.1-7.6
		c1-2,5.9-12.7,0.6-7.4c-2.8,2.8-4.9,10.1-7,13.9c-1.3,2.4-3.2,6.1-4.1,7.6c-16.5,29.8-41.7,53-46.9,88.1
		c-1.3,9.1-0.3,16.9,0.8,25.9c0.1,1.4,1.7,5.8-1.6,5.2c-2.9-0.6-3.3-8.2-3.6-10.3c-2.5-16.7,1.9-34.5,8.5-49.8
		c4.6-10.5,11.2-19.6,18.4-28.5c3.7-4.5,4.7-4.1,2.8-9.5c-1.5-4.4-2.1-10.8-1-15.3c1.7-7.1,8.4-12.7,11.6-19.4
		c3.4-6.9,5.8-14.2,7-21.8c1.5-9.5,1.2-19,2.1-28.5c1.3-13.1,16.2-20.1,28.3-19.5C361,192.5,353.7,234.4,347.6,252.1z"/>
	<path class="st2" d="M129.2,215.2c3,20.9,12.3,49.2,34.1,56.6c8,2.8,15.3,3.8,22.1,9.3c4.1,3.3,7.3,7.5,10.5,11.7
		c0,0.1,0,0.1,0,0.1c10.5,15.2,25.8,28.3,45.5,21.8c-0.4-0.7-0.8-1.5-1.2-2.3c-0.8-1.6-1.9-3.7-2.6-4.1c-5.5-9-12.2-18.4-17.9-25.8
		c-2.6-3.3-9-9.3-9.6-12.4c-1.3-6.5,7.4,5.3,7.3,5.2c7.9,10.2,15.7,20.6,22.5,31.7l0,0c0,0.9,1.1,2.5,2.1,3.8c0.3,0.6,0.6,1,1,1.4
		c0.1,0.2,0.2,0.4,0.3,0.5l0.1-0.1c0.1,0,0.1,0.1,0.2,0.1c1.2,2.5,2.5,5.1,3.6,7.7c11,24.8,10.3,49,9.4,75.6
		c-0.2,5.5-2.1,13.7-0.6,18.9c1.7,5.7,2.8,0.1,3-3.3c0.7-12.7,1.4-25.4,1.7-38.1c0.5-21-4.5-42.1-13.5-61.3c2.4-1.7,4.8-5.2,5.7-7
		c3.5-6.6,2.6-14.6-0.4-21.2c-2.3-5.2-5.5-9.4-9.2-13.2c-1.8-3.8-4.5-7.3-8-10.7c-11.4-11-17.3-22.8-20-38.3
		c-1.8-10.3-2.1-20.6-5.4-30.6c-6-18.6-19-31.9-39.2-33.5C142.3,155.4,126,191.6,129.2,215.2z"/>
	<path class="st2" d="M208.1,89c-0.1,1.4-1.1,2.3-1.2,4c-0.1,0.8,0.8,2.3,1,3.2c0.6,3.3,0.7,6.8,0.9,10.1c0.8,10.6,2.1,21,4,31.4
		c2.5,14.2,5.7,28.6,11,42.1c4.6,11.8,10.5,29.8,22.1,36.8c2.9,1.8,6.4,1.6,9.2,3c2.9,1.4,1.8-0.2,2.7,3.5c0.9,3.5,1.1,7.2,1.5,10.7
		c2.4,23.5,1.7,47.1,1.8,70.7c0.1,14.4-0.3,28.7-2.1,43c-0.3,2.6-4.6,17.8-3.1,20c2.6,3.9,5.3-12.9,5.4-13.5
		c1.2-7.5,2-15.1,2.4-22.7c1.2-21.4,0.6-43,0.5-64.4c-0.2-32.7-6-64.5-14.9-95.9c-7.9-28.1-18-58-38.7-79.5
		C209.7,90.7,208.9,89.9,208.1,89z"/>
	<path class="st2" d="M194.4,378.5c0,35.6,28.9,64.5,64.6,64.5s64.6-28.9,64.6-64.5"/>
	<path class="st1" d="M253.1,373.5c-1.9-16.3-9.1-42-27.7-46.1c-1.7-0.4-7.7,0.3-12.7,0.8c-1.9,0.6-3.5,1.4-3.9,2.4
		c-1.3,3.3,8-0.9,8.9-1.1c5.4-1.2,9-0.1,8.4,6.2c-0.4,4.5-4,7.3-7.3,10.1c-2.1,1.7-4.3,3.3-6.4,5.1c-8.9,7.7-10.3,17.5-10.6,28.7
		c-0.2,8.5-0.8,22.9-12.5,22.8c-9.3-0.2-14.9-11.1-17.5-18.8c-3.9-11.5-4.9-25.7,1.3-36.5c7.7-13.4,25.6-26.3,41.6-25.1
		c1.7,0.1,3.3,0.6,4.8,1.4c3.1-0.2,5.6-0.2,6.3-0.1c18.8,2.7,27.4,26.4,30.1,42.6c0.8,4.3,1.1,8.5,1.3,12.8h-3.4
		C253.7,376.9,253.5,375.2,253.1,373.5z"/>
</g>
<g class="st3">
	<path class="st4" d="M39,155.6c-0.6,0.7-2.1,5.7-2.6,5.7c4.8,0.1,13.3,0,15.6-5.4c2.1-5.1-3-7.3-6.9-5.4
		C42.7,151.7,40.4,153.3,39,155.6z M0.6,247.5C0.5,247.6-0.4,248.3,0.6,247.5L0.6,247.5z M39.2,175.5c-1.1,0.5-3.8,2-5.8,3.7
		c0.3-1.2,0.5-2.4,0.7-3.6c0.8-5,1.4-10,1.7-15c0.1-1.7-0.1-3.7-0.2-5.7c0.1-0.1,0.2-0.3,0.2-0.5c0,0.4,0,0.4,0.2,0.1
		c2.1-3,3.8-6.5,4-10.2c0.2-3.2-2.4-9.2-6.1-5c-1.6,1.8-1.2,14.9,1.3,15.7c-0.6,4.3-1.5,8.6-2.5,12.9c-0.2,0-0.3,0-0.5,0
		c0-1,0-2.2,0-2.6c-0.4-3.4-3.2-10.3-7.8-9c-3.5,1.1-1.4,5.3-0.2,7.2c1.9,3,4,4.3,6.8,5.9c0.1,0.6,0.5,1,1,1.1
		c-1.8,6.8-4.2,13.6-7.4,19.9c-0.5-2-1-4.5-1.3-5c-1.6-2.4-5-5.5-8.2-4c-6.7,3.1,0.5,11.9,6.2,12.9c0.3,0.3,0.5,0.6,0.8,0.7
		c-1.1,1.9-2.2,3.8-3.5,5.6c-1.8,2.7-3.9,5.5-6,8.2c0-2.1-0.9-6.9-1.1-7.4c-1.4-3.1-5.6-6.3-9-4.1c-3.8,2.5-0.4,7.2,1.8,9.3
		c0.9,0.9,5.3,4.1,6.9,4.1C6,217.1,0.4,223.4-5.4,229.5c0.4-2.8,1.1-10.3,1-11.1c-0.4-4.3-3.2-11.2-8.8-9.5c-5.4,1.7-3,8.8-1.2,12.2
		c1.1,2.1,2.6,4.2,4.5,5.6c0.7,0.5,2,0.9,2.6,1.5s0.3,1.4,1,2c-3.2,3.3-6.3,6.5-9.4,9.6c-1.4,1.4-2.9,2.9-4.4,4.3
		c-0.8-0.3-2,0.1-1.9,1.3c0,0.1,0,0.3,0.1,0.4c-1.1,1-2.2,2.1-3.4,3.1c0.1-0.3,0.1-0.7,0-1.3c1.1,1.6,0.7-2.1,0.8-2.9
		c0.4-2.6,1.1-5.2,1.1-7.9c0-3.9-2.5-10.4-7.7-8.1c-4.7,2.1-3,7.9-1.2,11.5c1.1,2.3,2.7,4.3,4.3,6.3c0.7,0.8,1.6,2.5,2.2,2.9
		c-6.4,5.8-13.1,11.3-19.6,16.9c-0.1-0.4-0.1-0.7-0.2-1.1c0.1,0.1,0.3,0.2,0.5,0.2c0.8-3.8,6.2-24.4-5-20.8
		c-7.6,2.5-2.2,17.6,3.4,22.9c-3.4,2.9-6.8,5.9-10.1,9c-2.4,2.2-4.8,4.5-7,6.9c1.1-3.1,2.2-7.1,1.5-10.3c-1.1-4.7-5.9-9-10.7-6.4
		c-9,5,6,12.7,7.8,18.1c-7.1,7.8-13.1,16.5-17.2,26.4c-4.4,10.7-8.5,25.2-6.2,37.2c-0.5-6,1.9-13.8,3.1-18.4
		c1.9-7.3,4.6-14.3,8.1-20.9c5.7-10.5,13.2-19.5,21.8-27.6c3.2,1.1,6.8,3.7,8.6,4.5c3.3,1.4,9.6,3.5,11.7-1c2-4.4-3.2-6.9-6.5-7.9
		c-3.2-1-6.1-0.9-9-0.1c5.4-4.7,11-9.4,16.5-14c4.9,4.1,12,15.7,18.2,9.7c7.1-6.9-6.4-14-12.2-13.4c-0.7,0-1.4,0.2-2.1,0.4
		c5.9-5,11.6-10.1,17.1-15.5c3.2,0.6,12.5,14.5,18.8,8.4c3.1-3,2.1-7.8-1-10.5c-3.1-2.7-7.5-2.7-11.3-1.8c-1.6,0.4-3.1,1.2-4.5,2.1
		c-0.1,0-0.1,0-0.2,0c5.4-5.4,10.8-11,16-16.7c0.1,0,0.2,0.1,0.3,0.1c0.3,0.3,0.8,0.5,1.3,0.4c4.3,1.4,10,3.5,14.4,2.7
		c3-0.6,5.8-3.1,3.2-6.1c-2.1-2.4-7.7-2.1-10.5-1.5c-1.9,0.4-4,1.9-6.1,2.9c-0.2-0.3-0.5-0.5-0.8-0.6c5.1-5.7,10-11.7,14.5-17.9
		c4.6,0.7,10.9,5.9,14.9,1.1c4.2-5-3.7-8-7.5-7.5c-1.2,0.2-2.5,0.5-3.7,1c3.3-5.1,5.8-10.6,7.5-16.3c0,0.1,0.1,0.1,0.1,0.1L32,184
		c0.2-0.5,0.3-1.1,0.5-1.7c0.3-0.1,0.6-0.2,0.7-0.3c-1.7,1.2,5.5,1.8,6.9,1.9c3,0.3,7,0.4,9.2-2.1c1.9-2,1.8-5.1-0.5-6.8
		C46.1,172.9,41.8,174.2,39.2,175.5z M-88.1,353.2c-0.6-1.4-0.9-3-1-4.7C-88.8,350.1-88.5,351.7-88.1,353.2z"/>
	<path class="st4" d="M-26.4,108.7c-9.8,15.8-16.6,31.9-18.4,50.7c-0.2,2.3-1.3,9.8,2.4,5.9c2-2.2,1.6-13.2,2.2-16.2
		c1.9-10.1,6.2-19.6,11.2-28.6c1.9-3.4,3.9-6.8,6-10.2c0.6-0.1,1.2-0.3,1.8-0.7c3-1.9,6-10.6,7.8-13.7c1.2-2,2.5-4.1,3.9-6.1
		c3.4-4.8,6.8-9.5,10.2-14.1l0,0c3.3-4.5,6.7-9,10.4-13.2c0,0,7.1-9.8,8.7-7.2c1.4,2.4-5.6,7.7-6.8,9.1
		c-12.7,13.9-23.1,30.5-32.1,47c9.5,1.3,17.3-2.1,23.5-9.9c4.2-5.2,6.1-12.4,9.4-18.1C17.9,76.2,23,72.1,30.6,69
		c13.5-5.5,20.5-14.8,21.9-29.8C53.6,27.1,50.7,13.6,39.6,7c-7.2-3.5-16.4,0.7-21.8,5.6C10.4,19.4,8,29.3,5.7,38.7
		c-4,16-10,22.7-21.1,33.6C-21.2,77.9-26.7,84-29,91.8C-30,95-29.5,105-26.4,108.7z"/>
	<path class="st4" d="M87.8,117.5c-7.5,2.8-11.4-1.2-18.2-3.2c-2.6-0.8-5.2-1-7.9-0.6c-3.9,0.6-7.8,2.9-11.7,3.8
		c-4.5,1.1-8.9-0.9-10.7-5.1c6.5-4.1,13.6-6.8,21.2-8.1c4-0.7,8.2-1.1,12.3-1.1c1,0,6.7,0.8,6.6-0.7c0-1.5-3.5-0.8-4.5-0.8
		c-8.1,0-16.3,1-24.1,3.6c-7.5,2.6-13.7,7.1-20.5,10.9c-3.1,1.7-17.4,12.1-18.7,10.6c-1.3-1.5,13.2-10.3,14.4-11
		c9.8-6.1,20.6-12.4,31.7-15.8c6.7-2.1,14-3.8,21.1-4.2c5.7-0.3,15.1,0.5,19,5.1C103.4,107.5,93.6,115.5,87.8,117.5z"/>
	<path class="st4" d="M93.4,57.5c0.1-1,0.1-2,0.3-2.8c1-8.7,4.9-22.5,15-24.7c0.9-0.2,4.2,0.1,6.9,0.4c1,0.3,1.9,0.8,2.1,1.3
		c0.7,1.7-4.3-0.5-4.8-0.6c-3-0.7-4.9-0.1-4.6,3.3c0.3,2.4,2.2,3.9,4,5.4c1.2,0.9,2.4,1.7,3.5,2.7c4.8,4.1,5.5,9.4,5.7,15.4
		c0.1,4.5,0.5,12.3,6.8,12.2c5.1-0.1,8.1-6,9.5-10.1c2.1-6.2,2.7-13.8-0.7-19.6c-4.2-7.2-13.8-14.1-22.5-13.5
		c-0.9,0.1-1.8,0.4-2.6,0.8c-1.6-0.1-3-0.1-3.4,0c-10.2,1.4-14.8,14.1-16.3,22.8c-0.4,2.3-0.6,4.7-0.7,7H93.4L93.4,57.5z"/>
</g>
<path class="st5" d="M-18.5,329v92c0,8.8,7.2,16,16,16h115c8.8,0,16-7.2,16-16v-92c0-8.8-7.2-16-16-16h-115
	C-11.3,313-18.5,320.2-18.5,329z M96.5,341c2.2,0,4,1.8,4,4v60c0,2.2-1.8,4-4,4h-83c-2.2,0-4-1.8-4-4v-60c0-2.2,1.8-4,4-4H96.5z"/>
<g>
	<path class="st6" d="M131.3,201.2c0,0,18,1.4,21.4,2.7c2.5,0.9,7.8,0,10.3-0.6c0.8-0.2,1.7,0,2.4,0.5c4.8,3.5,15.2,5.3,13.1,1.2
		c-1.1-2.3-7.2-9.2-10.6-10.9s-15.4,0.6-18.5,0.6s-14.1-6.2-14.1-6.2L131.3,201.2z"/>
	<path class="st7" d="M165.4,411.4c4.1,8.9,15.5,13.7,22.3,14.9c6.7,1.2,6.9,6.8,6.9,6.8l-23.3,0.1c0,0-18.2,0-18.7,0
		c-3.7-0.2-4.9-19.3-4.9-19.3S161,402,165.4,411.4z"/>
	<path class="st8" d="M91.9,103c11.5,12-3.3,51.5,5.8,64.3c6.1,8.6,49.2,24.4,49.2,24.4c0.7,9.9-2.3,12.3-2.3,12.3
		c-12.2-0.8-53.3-8.9-62.6-12.5c-18.8-7.2-30.2-88.1-30.2-88.1C61.2,85.9,80.4,91.1,91.9,103z"/>
	<path class="st9" d="M42.9,230.6c5.2-12.5,55.8,6.7,55.8,6.7s10,25,22.7,56.5c1.7,4.1,3.4,8.3,5.1,12.6c0.7,1.9,1.5,3.7,2.2,5.6
		c5.6,13.9,11.4,28.4,16.9,42c13.5,33.5,23.6,60.9,24.5,63.2l-23.1,1c0,0-12.6-16.5-26-36.4c-7.7-11.5-15.5-24.1-20.7-35.4
		c-1.3-3-2.5-5.9-3.5-8.7c-1-2.7-1.7-5.3-2.2-7.7c-2.4-12-15.7-24.8-27.9-40.2c-3.9-5-7.8-10.3-11.1-15.9
		C42,250.8,38.5,240.8,42.9,230.6z"/>
	<path class="st7" d="M105,373.6c-5.9,8-4.5,20.3-2.2,26.8s-2.5,9.4-2.5,9.4l-11.5-20.2c0,0-8.9-16-9.1-16.4
		c-1.6-3.4,14.5-13.7,14.5-13.7S111.1,365.2,105,373.6z"/>
	<path class="st10" d="M186.6,294.2c-7.1-26.6-69.7-65.6-69.7-65.6l-75.2,2.2c0,0-1.7,6.5,0.5,15.8c1.1,4.4,3,9.4,6.4,14.7
		c9.8,15.3,85.1,30.9,91.9,38.5c0.5,0.6,0.6,1.2,0.2,1.7c-9,11.1-50.4,60.7-50.4,60.7c1.8,6.5,11.8,15.4,11.8,15.4
		S193.6,320.9,186.6,294.2z"/>
	<path class="st11" d="M110,270.5c-26.8-10.4-35.9-38.3-35.9-38.3l-32,5v9.5c1.1,4.4,3,9.4,6.4,14.7c9.8,15.3,85.1,30.9,91.9,38.5
		C139.9,297.7,135.1,280.3,110,270.5z"/>
	<path class="st6" d="M86.5,89.6c0.4-1.5,0.6-2.9,0.9-4.2c1.4-7.5,1.7-11.8,1.7-11.8L77.5,63.2c-3.2,0.7-6.2,1.4-7.8,1.7
		c-0.2,0.7-0.3,1.5-0.5,2.2c-3.6,14.4-13.4,21-13.4,21S81,102.2,96.2,98.3C96.2,98.3,92.8,93.4,86.5,89.6z"/>
	<path class="st12" d="M60.9,82.2c1.1-0.8,3.1,1.3,9.1,4.1c5.5,2.6,11.6,3.3,16.8,2.2l4.6,4c6.4,5.7,13.4,13.6,16.6,25.6
		c1.9,7.4,3.4,19.1,4.5,32.2c0.4,5.1,0.8,10.4,1.1,15.8c0.5,8.5,0.9,17.1,1.1,25.3c0,0.2,0,0.3,0,0.5v0.3c0.1,0.9,0.1,1.8,0.1,2.6
		c0.2,7.4,0.2,14.2,0.4,20c0.2,5.2,2.1,7.5,2.6,9.6c0.1,0.5,0.1,1.1,0,1.7c0,0.2,0,0.3-0.1,0.5c-1.5,4.1-15.2,9.6-27.7,13.5
		c-4.5,1.4-8.8,2.6-12.4,3.4c-9.7,2.2-34,6.2-36.1-0.5c-2.5-7.7,0.4-52.3-1.8-81.6C37.1,125.6,47.1,93,60.9,82.2z"/>
	<path class="st8" d="M64.1,126.9l50.7,64.5c0,0.2,0,0.3,0,0.5v0.3c0.1,0.9,0.1,1.8,0.1,2.6c0.2,7.4,0.2,14.2,0.4,20
		c0.2,5.2,2.1,7.5,2.6,9.6c0,0.6,0,1.1,0,1.7c0,0.2,0,0.3-0.1,0.5c-1.5,4.1-15.2,9.6-27.7,13.5C30,197.9,64,127,64.1,126.9z"/>
	<path class="st13" d="M77.6,63.3c-3.2,0.7-6.2,1.4-7.8,1.7c-0.2,0.7-0.3,1.5-0.5,2.2c1.7,4.4,6.9,14.6,18.2,18.3
		c1.4-7.5,1.7-11.8,1.7-11.8L77.6,63.3z"/>
	<path class="st6" d="M104.4,50.2c-0.3-5.4-2.3-11.8-18.2-13.8s-14.6,8.9-17.4,24.3C66,76.1,90.7,80.2,90.7,80.2
		C97.2,80.9,104.7,55.6,104.4,50.2z"/>
	<g>
		
			<rect x="168.4" y="182.4" transform="matrix(0.309 -0.9511 0.9511 0.309 -37.4496 315.565)" class="st14" width="60.1" height="2.3"/>
		
			<rect x="156.9" y="178.4" transform="matrix(2.135506e-02 -0.9998 0.9998 2.135506e-02 -54.4522 364.1839)" class="st14" width="3.8" height="63"/>
	</g>
	<path class="st6" d="M130.3,202.6c0,0,15.6,6.9,16.9,7c1.4,0.2,3.1-3.2,4.9-4.1c1.8-0.9,6.7,0.4,8.4,0.5c1.6,0.1,0.3,2,0.3,2
		s-4.4-0.1-4.2,0.9s7.2-0.1,12.4-0.7c5.2-0.6,3.2,2.7,2.2,4.6c-1,1.9-7.3,5.5-14.9,6.1c-7.5,0.5-27.8-4.8-27.8-4.8L130.3,202.6z"/>
	<path class="st12" d="M96.7,110.9c10,13.2-9,50.8-1.4,64.5c5.1,9.2,46.2,29.7,46.2,29.7c-0.4,9.8-3.6,11.9-3.6,11.9
		c-12-2.1-52-14.7-60.8-19.3c-17.9-9.2-20.3-90.9-20.3-90.9C68.1,90.4,86.6,97.7,96.7,110.9z"/>
	<path class="st15" d="M64.1,44c-0.8-6.3,1.3-13.6,16.6-17.6s26.3,10.1,27.9,12.2c1.6,2.1,5.1,4.9,5.1,4.9c-1.2,2.7-7.4,5.9-9.4,5
		c-1.9-0.9-18.7-6.8-20.5-1.9c-1.9,4.9-6.1,8.2-7.1,8.9c-1,0.7-1.4-3.8-3.5-2.9s-1,6.2-1,6.2c-3.3,3-3,8.3-3,8.3
		C63,65,65.1,50.4,64.1,44z"/>
</g>
</svg>
