<?xml version="1.0" encoding="utf-8"?>
<!-- Generator: Adobe Illustrator 25.4.1, SVG Export Plug-In . SVG Version: 6.00 Build 0)  -->
<svg version="1.1" id="Layer_1" xmlns="http://www.w3.org/2000/svg" xmlns:xlink="http://www.w3.org/1999/xlink" x="0px" y="0px"
	 viewBox="0 0 2895.8 2115" style="enable-background:new 0 0 2895.8 2115;" xml:space="preserve">
<style type="text/css">
	.st0{fill:#F1A6A5;}
	.st1{fill:#95303B;}
	.st2{fill:#E14B4F;}
	.st3{opacity:0.5;fill:#CC4547;}
	.st4{opacity:0.5;}
	.st5{fill:#96192E;}
	.st6{fill:#ED7C70;}
	.st7{fill:#8BE0EE;}
</style>
<g id="Background">
</g>
<g>
	<g>
		<path class="st0" d="M1244.3,1149.7c-5-92.4,11.3-179.4,36.4-266c5.8-34.1,12.1-68.6,18.1-104.2c10.9-65.3,12.1-124.3-27.8-178.1
			c-70.5-95-318.4,9-386.4,52.8c-0.1,0.3-0.4,0.7-0.7,0.8c-186.1,82.9-321.2,204-417.6,393c-100.9,197.5-151.1,427-155.8,649.1
			c-4.7,225.1,94.4,285.2,297.3,237.7c163.7-38.2,382.1-100.8,507.4-221.2c51.6-49.4,86.1-100,108.8-153
			C1247.1,1421.7,1251.7,1292.1,1244.3,1149.7z"/>
		<g>
			<g>
				<path class="st1" d="M1241.8,1070.9c-4.1-80.2,9.5-155.7,30.4-230.9c4.9-29.6,10.1-59.6,15.1-90.4
					c9.1-56.7,10.1-107.9-23.2-154.6c-58.8-82.5-265.9,7.8-322.7,45.8c-0.1,0.2-0.3,0.6-0.6,0.7c-155.4,72-268.2,177.1-348.7,341.1
					C507.7,1154,465.8,1353.1,461.9,1546c-3.9,195.4,78.8,247.6,248.3,206.3c136.7-33.2,319.1-87.5,423.7-192
					c43.1-42.9,71.9-86.8,90.8-132.8C1244.1,1307.1,1248,1194.6,1241.8,1070.9z"/>
				<path class="st2" d="M855.7,1693.7c-61.6,20.6-128.1,39.6-190.7,55c-144,35-190.8-66.3-189.7-205.7
					c1.2-134.3,23.8-269.2,66-395.8c53-159,118.4-305.4,249.9-405.5c36.6-27.9,132.8-89,230.4-128.3c83-31.3,193.9-70.8,240.4,1.8
					c38.5,60.2,4.2,169.6-20,255.4c-9.1,47.5-16,95.4-19.9,143.6c14.4,140.1,31.1,306.9-26.9,434.1
					C1134.8,1580.9,995.7,1646.4,855.7,1693.7z"/>
				<path class="st3" d="M1262.1,615.2c-40.6-63.5-130.7-41.2-208.3-13.6c42.6-11,87.6-14.5,123.5,8.4
					c76.6,48.6-3.9,176.7-16.5,234.1c-30.8,139.9-7.5,291.3-53.4,427.9c-35,104.3-103,174.7-204.4,217.5
					c-74.3,31.4-255.7,116.9-335.1,53.2c-70.9-56.7-62.8-171.6-53.3-252.1c7.5-63.4,23.2-125,41.7-185.8
					c-5.1,14-10.1,28.1-14.9,42.3c-42.2,126.6-64.8,261.4-66,395.8c-1.1,139.5,45.7,240.8,189.7,205.7c62.6-15.3,129-34.3,190.7-55
					c139.9-47.3,279-112.9,339.6-245.5c58-127.2,41.2-293.9,26.9-434.1c3.9-48.2,10.8-96.1,19.9-143.6
					C1266.3,784.7,1300.6,675.4,1262.1,615.2z"/>
			</g>
			<g class="st4">
				<g>
					<path class="st2" d="M641.4,1646.9c-1,1-2,2.3-3.2,3.3C639.4,1649.1,640.4,1648,641.4,1646.9z"/>
					<path class="st2" d="M857.7,1104c-42.3,30.4-82.1,60.3-118.4,91.2c-1.9-0.6-4.6,0.2-6.3,2.6c-1.6,2.2-2.8,4.5-4.1,6.7
						c-5.8,4.9-11.2,10.1-16.7,15.3c-42.3,12.9-83.4,29.1-119.6,55.2c-40.9,29.3-61.9,68.6-80.7,113c-0.4,0.9,0.9,0.7,1,0.3
						c29.3-47.8,55.1-89.7,106.9-116.9c22.6-11.7,46.4-21,69.9-30.6c-87.1,85.6-147.7,184.5-166.1,327.8c-0.2,0.7,1,0.3,1.2-0.3
						c10-48.9,24.7-92.1,43.5-131.6c-0.4,7.2-0.4,14.6-0.4,22.2c0,41.6,2.7,92.3-8.4,132.8c-0.1,0.9,1,0.6,1.2,0
						c22.9-56,12.9-120.5,20-179.9c33.7-63.1,77.2-116.6,128.2-167.1c-12.8,36-14.7,74.9-15.5,115.1c-1.2,65.1,6,226.7-52,287.3
						c39.4-37.1,54-96.3,60.7-161.2c6.8,21.8,15.6,42.6,22.1,65.7c11.4,40.5,15.4,82.7,11.2,124.5c0,1,1,0.5,1.2-0.1
						c13.8-73.4-2.3-147.4-32.1-214.9c6.3-84.6,3-175.4,25.5-237c1.1-1.2,2.4-2.2,3.6-3.4c2.7-1.3,5.4-2.6,8.2-4.1
						c1.6-0.9,2.9-3.9,1.9-5.1c36.6-33.8,75.2-67.4,116.1-102.5C862.8,1106.3,861.4,1101.3,857.7,1104z"/>
					<path class="st2" d="M609.7,1669.7c4.9-2.5,8.8-5.6,13.2-8.5c-4.3,2.3-8.5,4.8-13.2,6.1C608,1667.7,608,1670.6,609.7,1669.7z"
						/>
					<path class="st2" d="M629.3,1657.1c-1.9,1.5-4.2,2.7-6.4,4C625.2,1660,627.1,1658.6,629.3,1657.1z"/>
					<path class="st2" d="M638.2,1650.2c-2.7,2.5-5.8,4.7-8.9,6.9C632.4,1654.8,635.5,1652.7,638.2,1650.2z"/>
				</g>
				<path class="st2" d="M883.1,1084.6c-51.7,12.9-104.9,3.3-156.3,22.2c-57.6,21.3-107.8,49.8-148.6,95.9c-0.5,0.4,0,0.7,0.4,0.5
					c54-48.4,120.4-80.6,191.4-94.7c37.9-7.5,77.2-1.7,113.1-18.6C885.1,1088.9,886.7,1083.7,883.1,1084.6z"/>
				<path class="st2" d="M1212.1,857.8c-15.2,6.2-31.4,9.7-47.8,11.9c-65.8-9.4-105.9-70.2-165.2-98.3
					c-51.8-24.3-97.6-28.7-153-21.9c-0.6,0-1.2,1.2-0.4,1.1c52.7-2.9,106.4,7.5,153.3,31.5c-5.7,0.6-11,1.6-15.2,2.2
					c-35,6.3-67.1,12.3-102.8,3.6c-0.6,0-1.3,1-0.7,1.2c22.2,8.4,44.9,11.2,68.4,10.3c12-0.4,22.5-5.2,34.1-7.2
					c11.9-1.9,22.5-1,34.2-0.4c14.7,9.1,28.8,19.5,41.6,31.6c21.3,20.3,45.2,38.7,72,48.1c-83.4-0.4-173.6-33.9-254.4-25.5
					c-89.7,9.4-182.5,46.8-230.5,127.3c-0.1,0.6,0.4,0.8,0.8,0.4c46.9-63.5,110.3-91.4,179-102.4c-8.5,6.1-16.4,13-24.8,20.7
					C784,908,765.4,921,746.2,933.7c-15.5,10.1-33.2,25.6-52.2,28.1c-0.5,0.1-0.9,0.9-0.5,0.9c23.1,0,46.7-17.6,65.3-29.3
					c17-10.5,33.3-22.2,48-35.6c13.1-11.9,26.9-20.4,41.4-29.1c70.9-7.3,146.2,1.3,215.1,8.2c34.4,3.3,72,8,106.9,1.4
					c6.6-0.4,13.4-1.2,20.1-2.9c1.5-0.3,2.5-2.1,2.5-3.3c6.9-2.7,14.1-5.8,20.7-10C1215.9,860.6,1215.4,856.4,1212.1,857.8z"/>
				<path class="st2" d="M1257.6,806.2c-39.4-9.7-49.5-50-65.4-82c-12.5-24.9-31.9-43.9-54-60.2c-37.6-27.7-95-27.5-136.7-10.3
					c-1.5,0.6-2.3,4.1,0,3.5c76.7-18.8,139,7.8,181.4,73.7c6.3,9.8,11.4,19.8,16.4,29.4c-14.3-10.6-29.4-11.3-56.3-9.3
					c-67.1,5.1-132.2-1.6-179.8-54.6c-0.6-0.6-1.3,0.4-1.2,0.8c20.5,30.5,50.6,56,87.9,62.3c25,4.2,50.7,7.2,76.1,4.6
					c37.7-3.9,56.3-4.4,85.1,15.9c10,14.1,22.8,24.7,45.7,27.6C1257.6,807.9,1258.6,806.5,1257.6,806.2z"/>
				<path class="st2" d="M1194.7,1218.8c0,0.4,0.4,0,0.4-0.1c-4.3-24.9-24.8-47.3-43.5-63c-12.2-10-25.5-18.4-37.3-28.9
					c-5.2-4.8-9.4-11.1-13-18c2.7-43.6,15.3-88,45.4-137.7c0.7-1.1-0.6-1.4-1.2-0.5c-35.6,48.8-71.4,110.9-68.1,174.3
					c1.7,27.5,5,51.5,10.6,76.2c-25.9,45.4-14.5,100.5,0.2,147.4c0.1,0.5,1.1-0.2,1-0.7c-9.1-45.4-11.8-89.8,2.1-133.6
					c1.6,5.8,3.2,11.8,5.1,18.1c29.9,99.1,39.4,166.1,7.5,267.1c-0.8,2.9,2.9,2.4,3.6,0.3c32.3-72.7,37.8-136.6,21.5-214.3
					c-3.6-18.1-7.5-35.4-11.3-52.2c5.7,8.2,11.3,16.3,17.1,24.8c32.2,46.8,50.5,100,45,157.3c0,0.5,0.6,0.1,0.9-0.2
					c9.2-47.3,3.4-86.8-18.4-129.9c-14-27.7-34.3-50.3-49.6-76.4c-7.2-35.5-12-68.7-11.8-102
					C1127.7,1159.5,1182.2,1174.9,1194.7,1218.8z"/>
				<path class="st2" d="M925.6,1327.3c23.6-40.1,46.1-81.1,58.1-126.6c1-3.9-3.7-4.1-5.1-1.2c-68.7,135.2-201.1,281.7-111.9,436.4
					c0.4,0.7,1.3-0.3,1.2-0.9c-56.5-116.1-5.2-201.7,47.5-290.7c-2.1,29.3,5.1,58.1,10.7,88c9.5,50.5,15.1,99.7,5.5,150.8
					c-0.5,0.7,0.8,0.5,0.9-0.1c9-34.4,11.3-68.1,9.5-103.6C939.4,1428.7,919.8,1378.2,925.6,1327.3z"/>
			</g>
			<g>
				<path class="st2" d="M1127.6,616.9c-155.5,56.8-272.7,111.3-392.3,230.1c-141.3,140.8-196.8,336.5-192.7,529.7
					c0.1,4.5,6.2,0.5,6.7-2.2c35-190.8,106.8-395.7,244.5-534.4c96.6-97,215.2-157.6,333.9-221.7
					C1128.6,617.9,1128.7,616.5,1127.6,616.9z"/>
				<path class="st2" d="M1113.6,1474.7c-94.3,128.2-479.1,290.2-603.4,168.3c-0.9-0.8-2.8,1-1.9,1.8
					c123.9,195,518.2-23.1,608.8-168.8C1119.1,1473.3,1115.3,1472.6,1113.6,1474.7z"/>
			</g>
		</g>
		<g>
			<g>
				<path class="st1" d="M1550.8,1582.2c25.3,61.2,63.5,119.7,120.6,176.8c139.5,139.1,382.2,211.4,564.2,255.6
					c225.8,54.9,336.1-14.6,331.1-274.7c-5.2-256.7-61.2-521.9-173.2-750.2c-107.3-218.4-257.6-358.3-464.4-454.1
					c-0.5-0.1-0.5-0.6-0.8-0.9c-75.4-50.6-351.6-170.7-429.7-61c-44.4,62.3-43.1,130.4-30.9,205.8c6.5,41.1,13.6,81,20.1,120.4
					c27.5,100.1,46,200.6,40.5,307.4C1519.9,1272,1524.8,1421.8,1550.8,1582.2z"/>
				<path class="st2" d="M1590,1609.7c-77.2-169.4-55.2-391.3-36.1-577.9c-5.2-64.1-14.4-127.9-26.5-191.2
					c-31.9-114.3-77.5-259.8-26.2-340c61.5-96.7,209.3-44.1,320-2.5c129.7,52.4,257.8,133.8,306.8,170.9
					c175,133.2,261.8,328.1,332.5,539.9c56.2,168.6,86.3,348.1,87.7,527c1.9,185.7-60.5,320.5-252.2,273.9
					c-83.2-20.4-171.9-45.7-254.2-73.2C1855.8,1873.6,1670.8,1786.3,1590,1609.7z"/>
				<path class="st3" d="M1501.1,500.6c53.9-84.5,174-54.9,277.3-18.1c-56.7-14.6-116.7-19.3-164.5,11.2
					c-102,64.7,5.2,235.3,22,311.7c40.7,186.3,10.1,387.9,71.1,569.7c46.6,138.9,137.1,232.6,272.1,289.6
					c98.8,41.8,340.4,155.6,446.2,70.9c94.4-75.4,83.8-228.4,70.9-335.6c-10.4-84.4-30.9-166.4-55.4-247.4
					c6.6,18.6,13.3,37.4,19.6,56.4c56.2,168.6,86.3,348.1,87.7,527c1.9,185.7-60.5,320.5-252.2,273.9
					c-83.2-20.4-171.9-45.7-254.2-73.2c-186-63-371-150.2-451.8-326.9c-77.2-169.4-55.2-391.3-36.1-577.9
					c-5.2-64.1-14.4-127.9-26.5-191.2C1495.5,726.3,1449.8,580.7,1501.1,500.6z"/>
			</g>
			<g class="st4">
				<g>
					<path class="st2" d="M2327.4,1874.2c1.6,1.3,2.9,3.1,4.2,4.4C2330.3,1877.1,2328.7,1875.7,2327.4,1874.2z"/>
					<path class="st2" d="M2039.6,1151.4c56.5,40.5,109.3,80.3,157.7,121.4c2.4-0.8,6,0.3,8.3,3.4c2.1,3,3.8,6,5.6,8.9
						c7.8,6.5,14.7,13.4,22.2,20.4c56.2,17.2,110.9,38.7,159.3,73.5c54.1,39,82.2,91.3,107.2,150.4c0.5,1.1-0.8,1-1.3,0.3
						c-38.7-63.6-72.9-119.5-142-155.6c-30.1-15.5-61.8-28-93.2-40.8c115.9,114,196.6,245.6,221.3,436.5c0,1-1.4,0.3-1.4-0.5
						c-13.5-65.1-33.4-122.6-58-175.2c0.2,9.6,0.2,19.4,0.2,29.5c0.3,55.4-3.4,122.9,11.2,176.8c0.5,1.2-1.1,0.8-1.3,0
						c-30.8-74.5-17.3-160.5-26.9-239.6c-44.8-84-103.1-155.3-170.7-222.5c16.8,48,19.6,99.7,20.6,153.3
						c1.6,86.6-8.1,301.8,69.1,382.5c-52.3-49.4-71.9-128.2-81-214.7c-8.9,29-20.5,56.7-29.3,87.4c-15.1,53.9-20.4,110.1-14.7,165.7
						c0,1.3-1.6,0.7-1.6-0.2c-18.5-97.8,2.9-196.2,42.9-286.1c-8.6-112.7-4.4-233.6-34-315.5c-1.6-1.6-3.4-2.9-5-4.5
						c-3.6-1.8-7.4-3.4-11-5.5c-1.8-1.1-3.9-5.2-2.2-6.8c-48.7-45.1-100.4-89.7-154.9-136.5
						C2032.8,1154.5,2034.4,1147.8,2039.6,1151.4z"/>
					<path class="st2" d="M2369.6,1904.5c-6.5-3.3-11.8-7.5-17.5-11.3c5.4,3.1,11,6.3,17.5,8.1
						C2372.1,1901.9,2372.1,1905.8,2369.6,1904.5z"/>
					<path class="st2" d="M2343.4,1887.8c2.7,2,5.8,3.6,8.7,5.4C2349.1,1891.7,2346.2,1889.8,2343.4,1887.8z"/>
					<path class="st2" d="M2331.6,1878.6c3.7,3.4,7.6,6.3,11.8,9.2C2339.2,1884.8,2335.3,1881.9,2331.6,1878.6z"/>
				</g>
				<path class="st2" d="M2005.7,1125.5c68.8,17.2,139.5,4.4,208,29.6c76.6,28.3,143.3,66.3,198,127.7c0.5,0.5,0,1-0.5,0.7
					c-72.2-64.4-160.5-107.3-255-126.1c-50.5-10-102.8-2.3-150.5-24.8C2003,1131.3,2000.9,1124.4,2005.7,1125.5z"/>
				<path class="st2" d="M1567.3,823.6c20.5,8.2,42.1,12.9,63.9,15.9c87.6-12.5,141-93.4,219.8-130.8
					c69.1-32.4,129.8-38.2,203.8-29.1c0.8,0,1.3,1.6,0.7,1.4c-70.4-3.9-141.8,10-204.2,41.9c7.1,0.8,14.6,2.1,19.8,3
					c46.9,8.4,89.5,16.3,137.1,4.8c0.8,0,1.8,1.3,0.8,1.6c-29.3,11.2-59.7,14.9-91.3,13.7c-15.7-0.5-29.6-7-45-9.5
					c-15.7-2.6-30.1-1.3-45.3-0.5c-19.9,12.2-38.5,25.9-55.7,42.1c-28.2,27-60.4,51.5-95.7,64.1c110.9-0.5,231.2-45.1,338.3-34
					c120,12.5,243.2,62.3,307.1,169.5c0.5,0.8-0.6,1.1-0.8,0.5c-62.6-84.5-147-121.7-238.4-136.3c11.2,8.1,21.7,17.3,33,27.5
					c22.3,21.1,46.9,38.4,72.7,55.2c20.4,13.4,44.4,34.2,69.6,37.4c0.5,0.2,0.7,1.1,0.2,1.1c-30.6,0-61.8-23.5-86.6-39
					c-22.7-13.9-44.2-29.6-63.8-47.4c-17.8-15.9-36.1-27.2-55.2-38.7c-94.4-9.7-194.6,1.8-286.4,10.8c-45.8,4.4-96.2,10.7-142.3,1.9
					c-8.8-0.5-17.6-1.6-26.7-3.9c-2.1-0.5-3.4-2.8-3.4-4.4c-9.6-3.6-18.8-7.8-27.9-13.3C1562.5,827.3,1562.9,821.8,1567.3,823.6z"/>
				<path class="st2" d="M1507.1,754.9c52.5-12.9,65.9-66.5,87.1-109.1c16.5-33.2,42.3-58.4,71.6-80.1
					c50.3-36.8,126.9-36.7,182.3-13.7c1.8,0.8,3.1,5.5,0,4.7c-102-25.1-185,10.4-241.5,98.1c-8.4,13.1-15.2,26.4-22.2,39.2
					c19.5-14.1,39.5-15.1,75.3-12.3c89.5,6.8,176.1-2.1,239.4-72.7c0.5-0.8,1.8,0.5,1.3,1.1c-27.4,40.6-67.2,74.5-117,82.9
					c-32.9,5.6-67.5,9.5-101.2,6.1c-50-5.2-75.1-5.8-113.2,21.2c-13.4,18.8-30.7,32.9-60.9,36.7
					C1507.1,757.2,1505.8,755.3,1507.1,754.9z"/>
				<path class="st2" d="M1590.8,1304.2c0,0.5-0.5,0-0.5-0.2c5.7-33.2,33-63,58-83.8c16.3-13.3,34-24.5,49.7-38.5
					c6.9-6.3,12.5-14.8,17.2-24c-3.7-58.1-20.2-117.2-60.4-183.4c-0.8-1.5,1-1.8,1.8-0.7c47.4,64.9,95.2,147.6,90.5,232
					c-2.1,36.6-6.5,68.6-14.2,101.5c34.8,60.4,19.6,133.7,0,196.2c-0.2,0.6-1.5-0.3-1.5-1c12.3-60.4,16-119.5-2.6-177.9
					c-2.3,7.8-4.2,15.7-6.6,24.1c-40.3,131.9-53,221.2-10.4,355.7c1.3,3.9-3.5,3.2-4.8,0.3c-42.9-96.8-50.3-181.8-28.5-285.3
					c5-24.1,10.2-47.1,14.8-69.5c-7.1,10.9-14.9,21.7-22.6,33c-42.8,62.4-67.1,133.1-59.8,209.5c0,0.6-1.1,0.2-1.1-0.3
					c-12.3-63-4.6-115.6,24.6-172.9c18.5-36.9,45.5-67,65.7-101.7c9.5-47.3,15.8-91.5,15.8-135.8
					C1679.7,1225.2,1607.7,1245.8,1590.8,1304.2z"/>
				<path class="st2" d="M1949.1,1448.6c-31.4-53.4-61.5-108-77.6-168.6c-1.3-5.1,4.9-5.5,7-1.6c91.5,180,267.8,375.1,148.9,581.1
					c-0.5,0.9-1.8-0.3-1.6-1.2c75.1-154.6,6.8-268.6-63.6-387.1c2.9,39-6.5,77.4-13.9,117.2c-12.7,67.2-20.2,132.8-7.1,200.7
					c0.2,1-1.3,0.6-1.6-0.2c-11.5-45.8-14.7-90.7-12.3-137.9C1930.5,1583.6,1956.5,1516.5,1949.1,1448.6z"/>
			</g>
			<g>
				<path class="st2" d="M1680.3,502.8c206.6,75.7,362.8,148.2,522.1,306.3c188.1,187.5,261.8,448,256.4,705.2c0,6-8.3,0.7-8.7-2.9
					c-46.6-254-142-526.8-325.7-711.5C1996,670.8,1837.7,590.2,1680,504.8C1679,504.2,1678.7,502.3,1680.3,502.8z"/>
				<path class="st2" d="M1698.6,1645c125.8,170.6,638,386.4,803.6,224.1c1-1.1,3.2,1.3,2.5,2.4
					c-164.8,259.7-689.8-30.7-810.4-224.7C1691.7,1643,1696.5,1642.1,1698.6,1645z"/>
			</g>
		</g>
		<g>
			<g>
				<path class="st5" d="M2462,1603.6c-3.9-45.4-13.1-90.2-26.6-135c-75.9-164.8-230.7-293.8-397.6-390.9
					c-13.9-11.7-28.3-23.3-42.9-34.3c-39.2-42.1-80.1-82.6-123.7-121.6c-0.5-0.6-1.3-1.2-2-1.9c50.2,9.1,102.8,8.6,153.8,14.1
					c29.3,3.2,59.1,7.3,88.4,12.5c11.3,25.6,38.4,45.2,59.1,62.7c34.5,29.6,72,53.7,108.5,80.6c0.5,0.3,0.5-0.2,0.2-0.4
					c-51.9-44.2-116.7-85.6-158.2-141.2c61.5,11.6,121.9,30.2,175,64.1c1.3,1,2.6,2.1,3.9,3.2c-17.3-16.8-35.8-32.5-54.9-47.8
					c-141.8-77.2-325.9-80.3-485.3-138.4c-101.8-81.6-204.5-168-242.8-293.7c-43.1-140.2-36.6-296.1-33.2-446.1l0.1-0.2
					c0-1.8-0.1-3.1-0.1-4.4c-3.4-11-7.4-22-12.1-32.5c-2.6-2.7-5.5-5.3-9.2-7.7c-17.2-11.2-34.8-12.2-54.2-7.2
					c-10.5,2.8-22.3,9.6-28.5,19.3c0-1.3-0.3-2.6-0.3-3.9c-3.1,6.8-5.5,13.8-7.4,21.1c0,3.1,0,6,0,9.2c0,0.8,0.2,1.8,0.2,2.6
					c0,4,0,8.1,0,12c-2.3,12.5-2.8,24.6,1.1,34.9c3.1,136.3,4.6,276-34.3,402.9c-38.7,125.6-141.2,212.1-243,293.7
					c-159.3,58.1-343.4,61.2-485,138.4c-19.1,15.2-37.7,30.9-55.1,47.8c1.3-1.1,2.6-2.3,3.9-3.2c52.9-33.9,113.2-52.5,175-64.1
					c-41.5,55.6-106.2,97-158.5,141.2c0,0.2,0,0.7,0.3,0.4c36.6-26.9,74-51,108.8-80.6c20.2-17.5,47.6-37.1,58.8-62.7
					c29.6-5.2,59.2-9.2,88.5-12.5c51-5.5,103.5-5,154-14.1c-0.8,0.7-1.6,1.3-2.4,1.9c-43.2,39-84.2,79.5-123.4,121.6
					c-14.7,11-29,22.7-43,34.3c-166.8,97.1-321.7,226.1-397.5,390.9c-13.6,44.9-22.6,89.7-26.9,135
					c46.1-206.9,205.3-357.3,384.3-486.4c-4.9,5.5-10.4,10.5-14.7,16.7c-22.7,32.1-37.9,61.7-46.6,93.3
					c-25.8,40.4-49.2,82.2-68.8,125.8c-19.6,53.9-36.3,112.2-45.6,171c4.7-12.3,9.1-24.4,14.2-36.4c23.5-78.8,53.9-152.5,93.1-222.9
					c-1.3,12.3-1.8,25.1-1.6,38.7c-1.8,21.4-2.8,43.4-3.4,65.4c-2.4,79.2-9.2,155.9-19.3,233.1c8.7-25.6,16.5-51.6,23-77.9
					c3.2-22.7,6.2-45.3,7.6-68.3c1.3-22.5,1.6-45.2,1.9-67.8c2.3-23.8,4.1-47.6,6.1-71.4c1.8-20.9,6.5-39.8,11.5-59.3
					c51.2-132.9,206.7-243.4,340.8-312.9c-11.4,8.4-22.3,16.8-32.4,25.3c-40.8,34-71.2,77.8-97.4,123.7
					c-101.5,157.2-118.8,352.1-45.7,528.6c8.3,14.3,17.5,27.5,28,40.1c-21.5-123.2-20.7-238.5,6-346.6c-0.5,30.1,3.9,61.1,12.6,99.4
					c14.2,61.8,48.3,124.5,66.2,188.4c-1.5-25.9-5.8-52.2-13.5-79.9c-4.5-16.5-9.2-33.1-14-49.4c-29.5-63.8-57.3-141-39.7-208.1
					c7.9-30.1,21-56.8,36.6-82.1c31.9-66.2,75.3-129.5,131.6-190c84.8-91,205.4-151.8,267.1-255.8c1.8-4.4,3.1-8.8,4.5-13.1
					c15.5-21,27.8-44.3,37.9-68.5c4.7,11.9,9.9,23.3,15.5,34.8c18,35,41.9,65.1,68.8,93.3c65.7,77.2,162.2,132.9,233,209.3
					c56.5,60.6,99.7,123.8,131.8,190c15.4,25.2,28.6,52,36.6,82.1c17.8,67-10,144.3-39.7,208.1c-4.7,16.3-9.5,32.9-13.9,49.4
					c-7.8,27.7-11.8,54-13.8,79.9c18.1-63.9,52.5-126.6,66.6-188.4c8.6-38.3,13.1-69.3,12.4-99.4c27,108.2,27.5,223.4,6.1,346.6
					c10.5-12.6,19.8-25.9,27.8-40.1c73.2-176.4,55.9-371.4-45.3-528.6c-26.4-45.8-56.8-89.7-97.4-123.7
					c-10.4-8.4-21.4-16.9-32.6-25.3c134.1,69.6,289.8,180,340.4,312.9c5.5,19.4,10.1,38.4,11.8,59.3c2.1,23.8,3.7,47.6,6,71.4
					c0.3,22.7,0.5,45.3,2.1,67.8c1.5,23,4.4,45.6,7.4,68.3c6.6,26.2,14.1,52.3,23.1,77.9c-10-77.2-16.6-153.9-19.2-233.1
					c-0.8-22-1.6-44-3.4-65.4c0.3-13.6-0.2-26.4-1.8-38.7c39.5,70.4,69.8,144.1,93.3,222.9c5.2,12,9.6,24.1,13.9,36.4
					c-9.2-58.8-25.7-117.1-45.3-171c-19.6-43.6-43-85.3-68.8-125.8c-8.7-31.6-23.9-61.2-46.9-93.3c-4.4-6.1-9.5-11.2-14.4-16.7
					C2257.1,1246.3,2416.1,1396.7,2462,1603.6z"/>
				<path class="st6" d="M1383.9,74.3c3.7-18.9,20.6-21.9,36.2-24.6c13-2.3,31.5,7.6,40.5,15.5c6.6,6.1,9.1,14.1,13.5,21
					c-1.3,17.6-2.5,35.1-3.4,52.6c-5.2,1.8-9.7,5.7-15.4,6.8c-16,2.6-32.5,1.9-48.6,0.2c-11-0.9-17.8-5.8-22.3-12.3
					c-0.8-16.5-1.8-33-3.1-49.4C1382.6,80.4,1383.3,76.9,1383.9,74.3z"/>
				<path class="st6" d="M1410.9,311c20.6,3.4,40.5,1.1,56.7-10.2c0.4,13.3,1,26.6,1.8,39.5c-14.7,9.7-26.7,15.8-46.6,15.2
					c-14.9-0.6-28.6-5.2-36.6-18.4c0.8-13.3,1.5-26.7,1.8-40.3C1392.6,303.8,1399.8,309,1410.9,311z"/>
				<path class="st6" d="M1388.3,227.8c11.8,9.3,25.9,12.3,40.6,14.2c6.2,0.8,25.6-1,38.2-7.2c-0.3,18-0.3,36,0,53.6
					c0,0.3-0.5,0.5-0.8,0.7c-8.7,9.9-26.9,8.6-38.4,9.5c-17.5,1.8-32.1-6.1-39.5-20.5C1388.4,261.3,1388.4,244.6,1388.3,227.8z"/>
				<path class="st6" d="M1467.3,220.3c-15.9,11.2-38.8,9.4-56.2,3.1c-14.9-5-19.7-14.6-23.7-25.7c-0.8-16.2-1.3-32.4-2.1-48.4
					c3.1,2.1,6.8,4.4,11.2,6.2c7.1,2.9,54.1,7.3,73.3-1.5C1468.6,176,1468,198.1,1467.3,220.3z"/>
				<path class="st6" d="M1385.4,352.4c4.9,9.2,17,13.9,28.6,15.6c21.4,3.4,41.4-0.8,56.2-14.4c1,13.9,2.1,27.4,3.5,41
					c-14,12.6-27.8,19.6-48.4,18.9c-16.2-0.6-34.5-6-43.6-20.3C1383.3,379.6,1384.4,366.2,1385.4,352.4z"/>
				<path class="st6" d="M1379.7,407.8c13.5,27.8,72.7,25.3,96.2,0.8c2.2,17.3,5.2,34.5,8.4,51.1c-0.5,0.5-1,1.2-1.3,1.6
					c-15,40.6-99.7,39.6-111.5-3.4C1374.5,441.3,1377.6,424.6,1379.7,407.8z"/>
				<path class="st6" d="M1369.2,469.8c7,24.3,35.3,30.8,61,31.3c17.5,0.4,48.3-10.8,56.2-29.8c4.7,21.8,10.8,43.4,17.5,64.7
					c-1.3,0.5-2.3,1.5-3.1,2.1c-13.6,16.3-48.1,19.4-67.7,20.4c-25.1,1.6-65.6-0.3-81-24.3C1358.7,513,1364.8,491.6,1369.2,469.8z"
					/>
				<path class="st6" d="M1349.3,542.5c13.1,28.8,57.8,30.9,87.9,29.8c14.4-0.5,59.1-7.8,70.4-25.4c4,11.8,9.2,23.3,14.1,35.3
					c-26.7,29.3-56.4,42.9-96.7,43.7c-0.2-0.2-0.5-0.5-0.5-0.7c-0.1,0.2-0.5,0.7-0.5,0.8c-0.8,0-1.6,0.2-2.3,0.2
					c-30.7,0.3-70.4-19.9-85.6-48.4C1340.8,566,1345.2,554.4,1349.3,542.5z"/>
				<path class="st6" d="M1411.7,647.1c-7.6,17.3-15.2,34.6-24.1,51.5c-106,195.1-356.6,287.7-442.8,507.2
					c-41.4,106.2-61.3,230.5-49.2,348.1c-33.7-156.2-23.6-311.7,54.4-450c43.9-56.7,84.4-109.6,140.1-158c3.2-3,7-5.7,10.5-8.6
					c0.8-1.8,1.8-3.7,3.4-5.9c5.4-6.8,11.3-13.1,17.2-19.7c-0.6,0.3-1.4,1-2.2,1.6c-78.3,27.2-156.4,90.7-220.8,137.1
					c-69.1,49.7-147.5,122.2-169.8,208.2c-1.1,1.9-1.9,3.7-2.6,5.5c2.8-15.9,3.2-40.7,8.4-55.9c30.1-86.3,63.5-87,103.4-135.2
					c3.7-2.4,92.9-87.1,155.1-138.3c7.4-9.5,15.2-19.6,24.3-27.8c0.9-1.1,2.7-2.1,4-3.3c-7.7,0.2-15.4-0.1-23.5-1.1
					c-109.8,14.4-226.8,15.9-330.6,51.8c49.9-20.1,104.3-34.6,161.2-48.7c58.8-14.4,118.8-20.2,176.6-33.2c1.9-0.8,3.9-1.4,5.8-1.6
					c17-3.9,34.3-8.2,50.8-13.9c-0.9,0.8-2.1,1.8-3.4,2.7c14.7-4.5,29.1-10.2,43.4-17c69.8-55,141.1-108.7,192.8-181.1
					c15.4-24.4,28-50,38.8-76.1c4.9,33.8,49.5,51.6,82.4,55.2c-1,1.8-1.8,3.5-2.8,5.3C1412.4,646.3,1412.3,646.6,1411.7,647.1z"/>
				<path class="st6" d="M2121.3,1208.2c5,15.2,5.8,40,8.7,55.9c-1.1-1.8-1.8-3.6-2.6-5.5c-22.7-86-100.9-158.5-169.8-208.2
					c-64.8-46.4-142.6-109.9-221.1-137.1c-0.8-0.6-1.3-1.3-2.1-1.6c6,6.6,11.6,12.9,17.3,19.7c1.4,2.1,2.6,4.1,3.2,5.9
					c3.4,2.9,7.3,5.6,10.7,8.6c55.5,48.4,96,101.3,139.5,158c78.2,138.4,88.2,293.8,54.4,450c12.5-117.5-7.4-241.9-49.2-348.1
					c-85.8-219.5-336.4-312.1-442.8-507.2c-12.9-18.3-24.3-37.5-34.5-57.4c32.7-1.5,77.7-18,92-50.7c10.3,24.1,21.9,48.1,36.3,71.1
					c51.6,72.4,122.9,126.1,192.6,181.1c14.1,6.8,28.7,12.5,43.5,17c-1.3-0.9-2.3-1.9-3.4-2.7c16.5,5.7,33.5,10,50.8,13.9
					c1.7,0.2,3.9,0.8,5.7,1.6c58,13,118,18.8,176.5,33.2c57.3,14.1,111.4,28.7,161.7,48.7c-104.2-35.9-220.9-37.4-330.7-51.8
					c-8,1-15.7,1.3-23.5,1.1c1.3,1.1,2.9,2.1,4.2,3.3c8.9,8.2,16.5,18.3,24.1,27.8c61.9,51.2,151.1,135.9,155.3,138.3
					C2058,1121.3,2091.4,1121.9,2121.3,1208.2z"/>
			</g>
			<path class="st6" d="M1819.7,1028.5C1704,902.3,1567,811.4,1476.4,661.4c-0.2-0.2-0.8,0.2-0.8,0.5
				c61.7,118.7,141,209.6,245.4,293.8c137.9,111.1,207.7,251.4,245.9,422.7c0.8,2.8,4.7,0.4,4.4-1.9
				C1950.7,1247.4,1909.1,1126.2,1819.7,1028.5z"/>
			<path class="st6" d="M1365,558.9c-62.8,144.4-159.8,235.1-300.8,301.9c-1,0.5-1.1,2.3,0.3,1.8
				c151.4-52.6,249.3-151.9,301.6-303.6C1366.1,558.2,1365.3,558.4,1365,558.9z"/>
			<path class="st6" d="M961.7,980.1c-33,22.2-65.6,40.6-96.2,66.2c-29.6,24.9-54.4,55.8-80.1,84.8c-1,0.9,0,2.7,1.3,1.8
				c28.8-23.5,52-58.6,82.7-78.4c14.9-9.6,26.7-24.4,40.1-35.3c16.8-13.4,35.6-24.8,52.6-38.4C962.7,980.5,962.5,979.6,961.7,980.1z
				"/>
			<path class="st6" d="M970.8,1085c-68.6,112.2-98.6,223.9-82.1,355.7c0.3,2.3,3.1,0.2,3.1-1.3c-3.5-126.1,21.5-242,80.8-353.7
				C973.4,1084.4,971.4,1083.9,970.8,1085z"/>
			<path class="st6" d="M1404,116.1c-0.3-1.3-2.1,0-2.1,0.6c-7.3,130.3-9.6,260.6-16.7,390.6c-0.3,2.4,2.4,1,3.1-0.6
				C1410.9,372.2,1413.5,252.4,1404,116.1z"/>
			<path class="st6" d="M1881.9,979.8c-0.8-0.5-2.1,0.8-1.3,1.3c66.2,55.5,130.1,110.1,189.4,173.7c1.3,1.4,4.5-1.6,3.6-3.4
				C2023.1,1077.7,1953.8,1029.8,1881.9,979.8z"/>
			<path class="st6" d="M1484.6,569.9c62.7,146.4,168,253.7,319.6,274.4c-15.7-4.7-31.4-9.4-46.6-15.1
				c-101.8-81.6-204.3-168-242.8-293.7c-43.1-140.2-36.8-296.1-33.2-446.1l0.3-0.2c0-1.8-0.3-3.1-0.3-4.4c-3.1-11-7.4-22-12.1-32.5
				c-2.6-2.7-5.3-5.3-9.1-7.7c-7-4.4-13.6-6.8-20.6-8.3C1430.7,213.7,1413.2,402.3,1484.6,569.9z"/>
			<path class="st6" d="M1424.6,577.5c-75.8,170.5-244.8,257.7-359.1,405.2c-127.7,165.4-196.8,371.2-152.2,567.4
				c-5.2-81.7,0.5-160,19.3-234.9c-0.8,30.1,3.6,61.1,12.3,99.4c14.2,61.8,48.3,124.5,66.4,188.4c-1.6-25.9-5.7-52.2-13.4-79.9
				c-4.7-16.5-9.4-33.1-14.3-49.4c-29.3-63.8-57.1-141-39.3-208.1c7.9-30.1,20.9-56.8,36.2-82.1c31.9-66.2,75.6-129.5,131.8-190
				c84.5-91,205.3-151.8,267.3-255.8c1.5-4.4,2.8-8.8,4-13.1c14.2-19.1,25.3-40.1,34.8-61.8C1423.6,634.7,1426.8,605.7,1424.6,577.5
				z"/>
		</g>
		<g>
			<circle class="st7" cx="497.6" cy="1157.6" r="16.7"/>
			<circle class="st7" cx="586.8" cy="1846.5" r="16.7"/>
			<circle class="st7" cx="343.4" cy="1616.9" r="16.7"/>
			<circle class="st7" cx="957.4" cy="1712.9" r="16.7"/>
			<circle class="st7" cx="1111.2" cy="1637.5" r="16.7"/>
			<circle class="st7" cx="851.1" cy="1764.3" r="16.7"/>
			<circle class="st7" cx="377.7" cy="1853" r="16.7"/>
			<circle class="st7" cx="405.1" cy="1404.4" r="16.7"/>
			<circle class="st7" cx="531.9" cy="1887.7" r="16.7"/>
			<circle class="st7" cx="449.7" cy="1325.5" r="16.7"/>
			<path class="st7" d="M361.1,1726.6c0,5.8-4.7,10.4-10.4,10.4c-5.8,0-10.4-4.7-10.4-10.4c0-5.8,4.7-10.4,10.4-10.4
				C356.4,1716.1,361.1,1720.8,361.1,1726.6z"/>
			<path class="st7" d="M792.6,1771.3c0,5.8-4.7,10.4-10.4,10.4c-5.8,0-10.4-4.7-10.4-10.4c0-5.8,4.7-10.4,10.4-10.4
				C787.9,1760.9,792.6,1765.5,792.6,1771.3z"/>
			<path class="st7" d="M665.8,1870.4c0,5.8-4.7,10.4-10.4,10.4c-5.8,0-10.4-4.7-10.4-10.4c0-5.8,4.7-10.4,10.4-10.4
				C661.1,1859.9,665.8,1864.6,665.8,1870.4z"/>
			<circle class="st7" cx="415.4" cy="1730" r="16.7"/>
			<path class="st7" d="M424.5,1284.4c0,6.9-5.6,12.5-12.5,12.5c-6.9,0-12.5-5.6-12.5-12.5c0-6.9,5.6-12.5,12.5-12.5
				C418.9,1271.9,424.5,1277.5,424.5,1284.4z"/>
			<path class="st7" d="M585.6,941.6c0,6.9-5.6,12.5-12.5,12.5c-6.9,0-12.5-5.6-12.5-12.5c0-6.9,5.6-12.5,12.5-12.5
				C580,929.1,585.6,934.7,585.6,941.6z"/>
			<path class="st7" d="M767.3,1824.8c0,6.9-5.6,12.5-12.5,12.5c-6.9,0-12.5-5.6-12.5-12.5c0-6.9,5.6-12.5,12.5-12.5
				C761.6,1812.3,767.3,1817.9,767.3,1824.8z"/>
			<path class="st7" d="M371.8,1510.6c0,4.3-3.5,7.8-7.8,7.8c-4.3,0-7.8-3.5-7.8-7.8c0-4.3,3.5-7.8,7.8-7.8
				C368.3,1502.8,371.8,1506.3,371.8,1510.6z"/>
			<path class="st7" d="M529.5,1092.5c0,4.3-3.5,7.8-7.8,7.8s-7.8-3.5-7.8-7.8c0-4.3,3.5-7.8,7.8-7.8S529.5,1088.1,529.5,1092.5z"/>
			<path class="st7" d="M440.4,1178.1c0,4.3-3.5,7.8-7.8,7.8s-7.8-3.5-7.8-7.8c0-4.3,3.5-7.8,7.8-7.8S440.4,1173.8,440.4,1178.1z"/>
			<path class="st7" d="M1033.3,1644.3c0,4.3-3.5,7.8-7.8,7.8c-4.3,0-7.8-3.5-7.8-7.8c0-4.3,3.5-7.8,7.8-7.8
				C1029.8,1636.5,1033.3,1640,1033.3,1644.3z"/>
			<path class="st7" d="M700.9,1805.4c0,4.3-3.5,7.8-7.8,7.8s-7.8-3.5-7.8-7.8c0-4.3,3.5-7.8,7.8-7.8S700.9,1801.1,700.9,1805.4z"/>
			<circle class="st7" cx="395.8" cy="1616.9" r="7.8"/>
			<path class="st7" d="M1050.5,1717.3c0,4.3-3.5,7.8-7.8,7.8s-7.8-3.5-7.8-7.8c0-4.3,3.5-7.8,7.8-7.8S1050.5,1712.9,1050.5,1717.3z
				"/>
			<path class="st7" d="M886,1805.4c0,4.3-3.5,7.8-7.8,7.8c-4.3,0-7.8-3.5-7.8-7.8c0-4.3,3.5-7.8,7.8-7.8
				C882.4,1797.6,886,1801.1,886,1805.4z"/>
			<path class="st7" d="M467.8,1668.3c0,4.3-3.5,7.8-7.8,7.8s-7.8-3.5-7.8-7.8c0-4.3,3.5-7.8,7.8-7.8S467.8,1664,467.8,1668.3z"/>
			<path class="st7" d="M451.9,1599.8c0,6.9-5.6,12.5-12.5,12.5c-6.9,0-12.5-5.6-12.5-12.5c0-6.9,5.6-12.5,12.5-12.5
				C446.3,1587.2,451.9,1592.8,451.9,1599.8z"/>
			<path class="st7" d="M518.2,1795.1c0,6.9-5.6,12.5-12.5,12.5c-6.9,0-12.5-5.6-12.5-12.5c0-6.9,5.6-12.5,12.5-12.5
				C512.6,1782.6,518.2,1788.2,518.2,1795.1z"/>
			<path class="st7" d="M465.6,1848.8c0,6.9-5.6,12.5-12.5,12.5c-6.9,0-12.5-5.6-12.5-12.5c0-6.9,5.6-12.5,12.5-12.5
				C460,1836.3,465.6,1841.9,465.6,1848.8z"/>
			<path class="st7" d="M510.2,1057c0,6.9-5.6,12.5-12.5,12.5c-6.9,0-12.5-5.6-12.5-12.5c0-6.9,5.6-12.5,12.5-12.5
				C504.6,1044.5,510.2,1050.1,510.2,1057z"/>
		</g>
	</g>
</g>
</svg>
