<?xml version="1.0" encoding="utf-8"?>
<!-- Generator: Adobe Illustrator 24.2.0, SVG Export Plug-In . SVG Version: 6.00 Build 0)  -->
<svg version="1.1" id="Layer_1" xmlns="http://www.w3.org/2000/svg" xmlns:xlink="http://www.w3.org/1999/xlink" x="0px" y="0px"
	 viewBox="0 0 127 177" style="enable-background:new 0 0 127 177;" xml:space="preserve">
<style type="text/css">
	.st0{fill:#323657;}
	.st1{fill:#FFCA55;}
	.st2{fill:#EEA886;}
	.st3{fill:#292C47;}
	.st4{fill:#CF8C6C;}
	.st5{fill:#DB9C7C;}
	.st6{fill:#FF556F;}
	.st7{fill:#DBDFF0;}
	.st8{fill:#754836;}
	.st9{fill:#A77860;}
	.st10{fill:#C4C7D6;}
	.st11{fill:#1B1C2E;}
</style>
<g>
	<path class="st0" d="M77.9,44.3l16.6,38.9l12.2,31.8c0,0,22.4,0.4,17.8-15.3c-2.2-7.4-5.3-14.9-8.7-21.8
		c-8.8-17.7-19.8-32.2-24.2-35.4C85.5,38,77.9,44.3,77.9,44.3z"/>
	<path class="st1" d="M94.5,83.1l12.2,31.8c0,0,23.2,0.3,18.6-15.4c-2.2-7.4-6-14.8-9.5-21.6L94.5,83.1z"/>
	<polygon class="st2" points="12.5,251.9 10,255.5 1.4,248.8 3.7,245.3 	"/>
	<polygon class="st2" points="189.3,216.9 192.9,219.2 186.5,227.9 183,225.7 	"/>
	<g>
		<path class="st3" d="M81.2,155.7c0,0,1.1,1.7,3.2,4.5c1.1,1.5,2.6,3.4,4.2,5.5h0c0.5,0.6,0.9,1.2,1.4,1.8c1.1,1.4,2.4,2.9,3.7,4.4
			c0.7,0.8,1.4,1.7,2.2,2.5c0,0,0,0,0,0c0.3,0,20-2.7,30.1-8.7c0,0-1.1-6.1-2.9-13.8c0,0,0,0,0,0c-2.5-11-6.4-25.1-10.3-29.2
			C109.5,119.3,81.2,155.7,81.2,155.7z"/>
	</g>
	<g>
		<path class="st2" d="M22.8,89.7c0,0-1.6-4.7-1.9-5.4c-0.3-0.7-2-1.9-4.1-3.1c-2.1-1.2-5.5-1.9-5.9-1.7c-0.4,0.2-0.8,0.2-1.4,1.1
			c-0.5,0.9-0.4,2-0.4,2s-1.2,0.9-1,2.2c0,0-1.1,0.9-0.6,2.3c0,0-1,0.9-0.6,1.9c0,0,1.7,1.2,2.2,1.9c0.5,0.6,4.3,2.9,8.2,4.6
			C17.4,95.5,21.7,97.4,22.8,89.7z"/>
	</g>
	<g>
		<path class="st4" d="M16.4,86.9c0,0-0.2,2.5,0.1,3.2c0.3,0.7-5.1,2-5.1,2S13.4,86.8,16.4,86.9z"/>
	</g>
	<g>
		<path class="st2" d="M24.5,91.5c0,0-1.9-1.8-2.7-3.3c-0.8-1.5-4.6,6.6-4.6,6.6s4.7,0.2,6.8,1.6C26,97.9,24.5,91.5,24.5,91.5z"/>
	</g>
	<g>
		<path class="st5" d="M11.5,79.7c0,0,5.3,3.2,4.8,4.1c-0.4,0.9-1.1,1-1.1,1l1.6,2.3c0,0,0.2,2.1-2.2,1.7c0,0,0.4,2-1.9,1.3
			c0,0-0.3,1.4-1.4,1.3C10.3,91.2,7,89,7,89s-0.5-0.8,0.6-1.9c0,0-0.5-1.4,0.6-2.3c0,0-0.3-1.2,1-2.2c0,0-0.4-2.7,1.8-3.2
			C11,79.4,11.3,79.6,11.5,79.7z"/>
	</g>
	<g>
		<path class="st2" d="M20.8,84.2c0,0-4.2-0.3-6.6,0.5c-0.5,0.2-1,0.5-1.1,1c0,0.6,0.8,1.3,2.6,1.6c1.8,0.2,4.1,1.4,4.1,1.4
			S21.7,88.4,20.8,84.2z"/>
	</g>
	<g>
		<path class="st3" d="M95.9,174.4c0,0,25.8,29.9,33.9,32.4c15.9,4.9,53,22.2,53,22.2l7.8-12.6c0,0-25.4-14.6-34.7-19.9
			c-11.5-6.6-18.7-7-23-16.4c-2.9-6.3-9.7-28.2-9.7-28.2L95.9,174.4z"/>
	</g>
	<g>
		<path class="st6" d="M72.8,59.2L59.2,93.6c0,0-0.7,4.8-10.6,1.5c-10.1-3.3-26.4-7.6-26.4-7.6s-4.9,9.7-3.7,10.4
			c3.5,2,31.9,12.5,43.6,15.7c9.3,2.5,27-44.8,27-44.8L72.8,59.2z"/>
	</g>
	<g>
		<path class="st3" d="M57.2,151.6c0,0-24.4,25.9-24.8,34.4c-0.4,8.4-30.8,59.5-30.8,59.5l10.8,8.2c0,0,30.1-41,35.5-50.3
			c6.1-10.3,4.5-12.6,13.9-18.3c5.9-3.6,19.5-11.2,19.5-11.2L57.2,151.6z"/>
	</g>
	<g>
		<path class="st3" d="M74.5,131c0,0-11.7,13.8-23.2,27c0,0,19.1,10.2,29.4,16c0,0,38.4-25.9,41.1-35.2
			C123.1,134.3,74.5,131,74.5,131z"/>
	</g>
	<g>
		<path class="st6" d="M63.7,110c3.7,9.1,9,19.9,6.7,25.6c0,0,14,4.2,54.7,6.4c0,0-10.1-15.4-18.9-32.5c-0.5-0.9-0.9-1.8-1.4-2.7
			c-4.9-9.8-9.2-19.8-10.7-27.6c-0.3-1.7,0.3-3.4,0.3-5c0-2.1-0.2-4.3-0.5-6.3c-1.2-7.8-4.7-14.8-9.4-20.1c-0.7-0.8-1.4-1.5-2.1-2.2
			c-2.1-2-4.4-3.7-6.9-5c0,0-0.6,0.9-11.6,9.9C63.1,51.1,55,63.3,54,76.9C52.8,93.6,58.5,97.1,63.7,110z"/>
	</g>
	<path class="st7" d="M10.4,254.9c0,0-4.8-3.6-6.7-5.1c-1.9-1.5-1.7-3.6-3-2.5c-1.3,1.1-7,4.1-9.6,3.9c-2.6-0.1-19.3-2-20.6,1.6
		c-1.3,3.6,5.9,6.8,16.3,10.2c10.4,3.4,9.9,6.2,17.4,6.2C6.6,269.2,10.4,254.9,10.4,254.9z"/>
	<path class="st7" d="M192.9,219.2c0,0-3.5,4.6-5,6.5c-1.5,1.9-3.5,1.7-2.5,2.9c1.1,1.3,3.9,6.8,3.8,9.3c-0.1,2.5-2,18.8,1.4,20
		c3.4,1.3,6.7-5.7,10-15.8c3.3-10.1,6-9.6,6.2-16.9C206.9,223,192.9,219.2,192.9,219.2z"/>
	<g>
		<path class="st2" d="M45.8,18.3c0,0-1.9,7.2,0,7.8c1.6,0.5,0,7.5-0.1,8.6c-0.2,1.1,3,1.2,3.8,1.7c0.8,0.5,4.6,8.2,7.1,7.9
			c2.5-0.3,12.6-6.8,14.8-10.7c2.3-3.8,1.3-18.5-2.1-24C66,4.2,49.2,5.6,45.8,18.3z"/>
	</g>
	<g>
		<path class="st2" d="M62,39.7c0,0,0.2,0.7,0.4,1.7c0.2,0.8,0.4,1.8,0.6,2.8c0.5,2.9,1.1,6.3,0.9,8c-0.3,3.1,11.6-11.6,11.6-11.6
			s-2.4-9-3.1-20.1C71.8,9.4,62,39.7,62,39.7z"/>
	</g>
	<g>
		<path class="st8" d="M45.4,19.7c0,0-5.1-6,0-12.7C50.6,0.4,64.6,6.6,66,6.6c1.4,0,9-1.3,8.5,12.9c-0.5,14.2-0.9,12-0.9,12
			s-3.1-6-5.6-5.9c-2.8,0-7.2,0.5-7.2,0.5s0.8-6.5-2.9-6.6C54.1,19.5,48.7,17.6,45.4,19.7z"/>
	</g>
	<g>
		<path class="st2" d="M63.7,21.7c0.1-0.9,0-3.7,3.6-2.4c3.5,1.4,0.5,8.3,0,8.5C66.7,28,62.7,29.3,63.7,21.7z"/>
	</g>
	<g>
		<path class="st9" d="M62.4,41.4c0.2,0.8,0.4,1.8,0.6,2.8c3.9-3.7,6.9-8.1,7.8-9.4C69,37.1,62.4,41.4,62.4,41.4z"/>
	</g>
	<path class="st7" d="M59.7,23c0,2.7,2.2,5,5,5c2.7,0,5-2.2,5-5c0-2.7-2.2-5-5-5C61.9,18.1,59.7,20.3,59.7,23z"/>
	<path class="st7" d="M63.7,22.6c0,0,2.2-13,0.9-16.4c0,0,1.6-0.5,3.4,0.4c0,0,0.5,11.2-1.4,16.4C64.6,28.3,63.7,22.6,63.7,22.6z"/>
	<path class="st10" d="M60.9,23c0,2.1,1.7,3.7,3.7,3.7c2.1,0,3.7-1.7,3.7-3.7c0-2.1-1.7-3.7-3.7-3.7C62.6,19.3,60.9,21,60.9,23z"/>
	<g>
		<path class="st0" d="M64.9,96.3c4.2,8.8,10.1,14.3,17.8,16.3c2.3,0.6,4.6,0.9,6.9,0.9c6.1,0,12-1.9,16.6-3.8
			c-0.5-0.9-0.9-1.8-1.4-2.7c-4.3,1.8-9.7,3.5-15.3,3.5c-2,0-4.1-0.2-6.1-0.8c-6.7-1.8-12.1-6.8-15.8-14.7
			c-5.8-12.4-4.8-24.1,3.1-34.7C76.2,53,83.3,48.7,84.5,48c0.1-0.1,0.2-0.1,0.2-0.1l-1.4-2.6c-0.1,0-0.4,0.2-0.9,0.5
			c-2.3,1.4-8.7,5.7-14,12.7C62.4,66.5,57,79.5,64.9,96.3z"/>
	</g>
	<path class="st6" d="M76.3,66.2c0,0-9.7-10.5-2.8-16.9c11.3-10.5,12.5,1,39.5,23.5c0,0,12.7,11.2,7.3,19.7
		c-5.4,8.5-43.4,5.7-45,8.4l-2.4-11.6c0,0,10.6-1.6,19.7-3c8.1-1.3,10.3-2.8,10.3-2.8L76.3,66.2z"/>
	<g>
		<g>
			<g>
				<g>
					<g>
						<path class="st2" d="M64.3,103.7c0,0,1.3,0.2,1.9,0c0,0,1.1-0.4,1.9-0.7c0.3-0.1,0.5-0.1,0.6-0.2c0.6-0.1,2-0.2,3.4-0.8
							c1.4-0.7,6.7-5.1,6.7-5.1l-1.6-3.5l-1-3.5c0,0-9.4-0.9-10.8-0.5c-0.1,0-0.3,0.1-0.4,0.2c-1.1,0.5-1.7,1.4-2.3,1.7
							c-0.2,0.1-2.2,1.5-2.2,2.2c-0.1,1,0.3,1.7,0.8,2.1c0,0-0.1,1.9,0.7,3c0,0-0.1,1.8,1.2,2.8C63.3,101.4,63.3,103.2,64.3,103.7z"
							/>
					</g>
				</g>
			</g>
		</g>
	</g>
	<path class="st11" d="M90.1,167.5c1.1,1.4,2.4,2.9,3.7,4.4c6.4-6.3,14.3-18.2,14.3-18.2C103.2,157.9,90.1,167.5,90.1,167.5z"/>
</g>
</svg>
