<?xml version="1.0" encoding="utf-8"?>
<!-- Generator: Adobe Illustrator 24.2.0, SVG Export Plug-In . SVG Version: 6.00 Build 0)  -->
<svg version="1.1" id="Layer_1" xmlns="http://www.w3.org/2000/svg" xmlns:xlink="http://www.w3.org/1999/xlink" x="0px" y="0px"
	 viewBox="0 0 276 197" style="enable-background:new 0 0 276 197;" xml:space="preserve">
<style type="text/css">
	.st0{opacity:0.5045;}
	.st1{opacity:0.5045;fill-rule:evenodd;clip-rule:evenodd;fill:#F2F2F2;enable-background:new    ;}
	.st2{fill-rule:evenodd;clip-rule:evenodd;fill:#E1E9D9;}
	.st3{opacity:0.2;fill-rule:evenodd;clip-rule:evenodd;fill:#C1DEE2;enable-background:new    ;}
	.st4{opacity:0.7;}
	.st5{opacity:0.7;fill-rule:evenodd;clip-rule:evenodd;fill:#69A1AC;enable-background:new    ;}
	.st6{opacity:0.7;fill-rule:evenodd;clip-rule:evenodd;fill:#89C5CC;enable-background:new    ;}
	.st7{opacity:0.5;}
	.st8{opacity:0.5;fill-rule:evenodd;clip-rule:evenodd;fill:#69A1AC;enable-background:new    ;}
	.st9{opacity:0.5;fill-rule:evenodd;clip-rule:evenodd;fill:#C1DEE2;enable-background:new    ;}
	.st10{opacity:0.5;fill-rule:evenodd;clip-rule:evenodd;fill:#89C5CC;enable-background:new    ;}
	.st11{fill-rule:evenodd;clip-rule:evenodd;fill:#F2F2F2;}
	.st12{fill-rule:evenodd;clip-rule:evenodd;fill:#D9DFD1;}
	.st13{fill:#C5CFD6;}
	.st14{fill:#F4A269;}
	.st15{fill:#FFB27D;}
	.st16{fill:#C65447;}
	.st17{fill:#163560;}
	.st18{fill:#1C468A;}
	.st19{fill:#B5453C;}
	.st20{fill:#9E332E;}
</style>
<g class="st0">
	<path class="st1" d="M297.2,151.9c4,29.8-92.7,49.3-175.9,35.7C38.1,174-0.1,121,39.6,92.8C79.3,64.5,293.2,122.1,297.2,151.9z"/>
</g>
<path class="st2" d="M179.7,14.1c-2.1-1.1-5,0.2-3.8,3c1.3,3,6,3,8.6,3c-0.3,0-1.1-2.8-1.4-3.2C182.2,15.7,181,14.8,179.7,14.1z
	 M204.2,67.8C204.8,68.2,204.3,67.8,204.2,67.8L204.2,67.8z M177.6,27.7c-1.2,1-1.3,2.6-0.3,3.8c1.2,1.4,3.4,1.3,5.1,1.2
	c0.7-0.1,4.7-0.4,3.8-1c0.1,0,0.2,0.1,0.4,0.2c0.1,0.3,0.2,0.6,0.3,1c0,0,0,0-0.1,0c0,0,0,0,0.1,0c1,3.2,2.3,6.2,4.1,9
	c-0.7-0.3-1.4-0.5-2.1-0.6c-2.1-0.3-6.5,1.4-4.1,4.1c2.2,2.7,5.7-0.2,8.3-0.6c2.5,3.4,5.2,6.7,8,9.9c-0.2,0.1-0.3,0.2-0.4,0.3
	c-1.1-0.6-2.3-1.4-3.4-1.6c-1.5-0.3-4.6-0.5-5.8,0.8c-1.4,1.7,0.1,3,1.8,3.4c2.4,0.5,5.6-0.7,7.9-1.5c0.3,0,0.6,0,0.7-0.2
	c0.1,0,0.1,0,0.2,0c2.9,3.2,5.9,6.2,8.8,9.2c0,0-0.1,0-0.1,0c-0.8-0.5-1.6-0.9-2.5-1.1c-2.1-0.5-4.5-0.5-6.2,1
	c-1.7,1.5-2.3,4.1-0.5,5.8c3.5,3.4,8.6-4.3,10.4-4.6c3,3,6.2,5.8,9.5,8.6c-0.4-0.1-0.7-0.2-1.1-0.2c-3.2-0.3-10.6,3.6-6.7,7.4
	c3.4,3.3,7.3-3.1,10.1-5.3c3.1,2.6,6.1,5.1,9.1,7.8c-1.6-0.4-3.2-0.5-4.9,0c-1.8,0.5-4.7,1.9-3.6,4.4c1.2,2.5,4.7,1.4,6.5,0.6
	c1-0.4,3-1.9,4.7-2.5c4.8,4.5,8.9,9.5,12,15.3c2,3.6,3.4,7.5,4.5,11.5c0.7,2.6,2,6.8,1.7,10.2c1.3-6.7-1-14.7-3.4-20.6
	c-2.2-5.5-5.6-10.3-9.5-14.6c1-3,9.3-7.2,4.3-10c-2.6-1.5-5.3,1-5.9,3.5c-0.4,1.8,0.2,4,0.8,5.7c-1.2-1.3-2.5-2.6-3.8-3.8
	c-1.8-1.7-3.7-3.4-5.6-5c3.1-2.9,6.1-11.3,1.9-12.7c-6.2-2-3.2,9.4-2.8,11.5c0.1,0,0.2,0,0.3-0.1c0,0.2-0.1,0.4-0.1,0.6
	c-3.6-3.1-7.3-6.2-10.8-9.3c0.3-0.2,0.8-1.1,1.2-1.6c0.9-1.1,1.8-2.2,2.4-3.5c1-2,2-5.2-0.7-6.4c-2.9-1.3-4.2,2.3-4.3,4.5
	c0,1.5,0.4,2.9,0.6,4.4c0.1,0.5-0.2,2.5,0.4,1.6c0,0.3,0,0.6,0,0.7c-0.6-0.6-1.3-1.2-1.9-1.7c0-0.1,0.1-0.2,0.1-0.2
	c0-0.6-0.6-0.9-1.1-0.7c-0.8-0.8-1.7-1.6-2.5-2.4c-1.7-1.7-3.4-3.5-5.2-5.3c0.4-0.3,0.2-0.8,0.6-1.1c0.3-0.3,1-0.5,1.4-0.8
	c1-0.8,1.9-2,2.5-3.1c1-1.9,2.3-5.8-0.6-6.7c-3.1-0.9-4.6,2.9-4.8,5.3c0,0.5,0.3,4.6,0.6,6.1c-3.2-3.4-6.3-6.9-9.2-10.4
	c0.9,0,3.3-1.8,3.8-2.3c1.2-1.2,3.1-3.8,1-5.1c-1.9-1.2-4.2,0.5-5,2.3c-0.1,0.3-0.6,2.9-0.6,4.1c-1.2-1.5-2.3-3-3.3-4.5
	c-0.7-1-1.3-2-2-3.1c0.1-0.1,0.3-0.2,0.4-0.4c3.1-0.5,7.1-5.4,3.4-7.1c-1.8-0.8-3.7,0.9-4.5,2.2c-0.2,0.3-0.5,1.7-0.7,2.8
	c-1.8-3.5-3.1-7.2-4.1-11c0.3-0.1,0.5-0.3,0.5-0.6c1.5-0.9,2.7-1.6,3.8-3.3c0.7-1,1.8-3.4-0.1-4c-2.5-0.7-4.1,3.1-4.3,5
	c0,0.2,0,0.9,0,1.4c-0.1,0-0.2,0-0.3,0c-0.6-2.4-1-4.8-1.4-7.1c1.4-0.4,1.6-7.7,0.7-8.7c-2-2.3-3.5,1-3.4,2.8c0.1,2.1,1.1,4,2.2,5.6
	c0.1,0.2,0.1,0.2,0.1-0.1c0,0.1,0.1,0.2,0.1,0.3c-0.1,1.1-0.2,2.2-0.1,3.2c0.2,2.8,0.5,5.5,0.9,8.3c0.1,0.7,0.2,1.3,0.4,2
	c-1.1-0.9-2.6-1.8-3.2-2C181.5,27.2,179.1,26.5,177.6,27.7z M253.8,123.7c-0.1,1-0.2,1.8-0.6,2.6
	C253.5,125.4,253.6,124.6,253.8,123.7z"/>
<path class="st3" d="M100.7-43.9c1.5-0.8,3.6,0.1,2.7,2.1c-0.9,2.1-4.3,2.2-6.2,2.1c0.2,0,0.8-2,1-2.3
	C98.9-42.8,99.8-43.4,100.7-43.9z M83.2-4.9C82.7-4.5,83.2-4.9,83.2-4.9L83.2-4.9z M102.5-34c0.9,0.7,1,1.9,0.2,2.7
	c-0.9,1-2.5,0.9-3.7,0.9c-0.5,0-3.5-0.3-2.8-0.7c-0.1,0-0.2,0.1-0.3,0.1c-0.1,0.2-0.1,0.5-0.2,0.7c0,0,0,0,0.1,0c0,0,0,0-0.1,0
	c-0.7,2.3-1.7,4.5-3,6.5c0.5-0.2,1-0.3,1.5-0.4c1.5-0.2,4.7,1,3,3c-1.6,1.9-4.2-0.1-6-0.4c-1.8,2.5-3.8,4.9-5.9,7.2
	c0.1,0,0.2,0.1,0.3,0.2c0.8-0.4,1.7-1,2.5-1.2c1.1-0.2,3.4-0.4,4.2,0.6c1,1.2-0.1,2.2-1.3,2.4c-1.8,0.3-4.1-0.5-5.8-1.1
	c-0.2,0-0.4,0-0.5-0.2c0,0-0.1,0-0.1,0c-2.1,2.3-4.3,4.5-6.5,6.7c0,0,0,0,0.1,0c0.6-0.4,1.2-0.7,1.8-0.8c1.5-0.4,3.3-0.4,4.5,0.7
	c1.2,1.1,1.7,3,0.4,4.2c-2.5,2.4-6.3-3.1-7.6-3.4C75.2-4,72.9-2,70.5,0c0.3-0.1,0.5-0.1,0.8-0.2c2.3-0.2,7.8,2.6,4.9,5.4
	c-2.5,2.4-5.4-2.2-7.4-3.9C66.7,3.2,64.4,5,62.3,7c1.2-0.3,2.3-0.4,3.6,0c1.3,0.4,3.4,1.4,2.6,3.1c-0.8,1.8-3.4,1-4.7,0.4
	c-0.7-0.3-2.2-1.4-3.5-1.8c-3.5,3.3-6.5,6.8-8.8,11.1c-1.4,2.6-2.5,5.5-3.3,8.3c-0.5,1.8-1.4,5-1.3,7.4c-0.9-4.8,0.7-10.6,2.5-14.9
	c1.6-4,4.1-7.4,7-10.6c-0.7-2.1-6.8-5.2-3.2-7.2c1.9-1.1,3.9,0.7,4.3,2.5c0.3,1.3-0.2,2.9-0.6,4.1c0.9-1,1.8-1.9,2.8-2.8
	c1.3-1.2,2.7-2.4,4.1-3.6c-2.3-2.1-4.4-8.2-1.4-9.2c4.5-1.5,2.3,6.8,2,8.3c-0.1,0-0.2,0-0.2-0.1c0,0.1,0.1,0.3,0.1,0.4
	c2.6-2.3,5.3-4.5,7.9-6.8c-0.2-0.2-0.6-0.8-0.9-1.2c-0.7-0.8-1.3-1.6-1.7-2.5c-0.7-1.4-1.4-3.8,0.5-4.6c2.1-0.9,3.1,1.7,3.1,3.2
	c0,1.1-0.3,2.1-0.4,3.2c0,0.3,0.1,1.8-0.3,1.2c0,0.2,0,0.4,0,0.5c0.5-0.4,0.9-0.8,1.4-1.3c0-0.1,0-0.1,0-0.2c0-0.5,0.4-0.6,0.8-0.5
	c0.6-0.6,1.2-1.1,1.8-1.7c1.2-1.2,2.5-2.5,3.8-3.8c-0.3-0.2-0.2-0.6-0.4-0.8c-0.3-0.2-0.8-0.4-1.1-0.6c-0.8-0.6-1.4-1.4-1.8-2.2
	c-0.7-1.4-1.7-4.2,0.5-4.9c2.2-0.7,3.4,2.1,3.5,3.8c0,0.3-0.2,3.3-0.4,4.4c2.3-2.4,4.6-5,6.7-7.5c-0.6,0-2.4-1.3-2.8-1.6
	c-0.9-0.8-2.3-2.7-0.7-3.7c1.4-0.9,3.1,0.4,3.6,1.6c0.1,0.2,0.4,2.1,0.5,3c0.9-1.1,1.7-2.2,2.4-3.3c0.5-0.7,1-1.5,1.4-2.2
	c-0.1-0.1-0.2-0.2-0.3-0.3c-2.3-0.4-5.2-3.9-2.5-5.1c1.3-0.6,2.7,0.6,3.3,1.6c0.1,0.2,0.3,1.2,0.5,2c1.3-2.5,2.3-5.2,3-8
	c-0.2,0-0.4-0.2-0.4-0.5c-1.1-0.6-2-1.1-2.8-2.4c-0.5-0.7-1.3-2.5,0.1-2.9c1.8-0.5,3,2.2,3.1,3.6c0,0.2,0,0.6,0,1c0.1,0,0.1,0,0.2,0
	c0.4-1.7,0.8-3.4,1-5.2c-1-0.3-1.2-5.5-0.5-6.3c1.5-1.7,2.5,0.7,2.5,2c-0.1,1.5-0.8,2.9-1.6,4.1c-0.1,0.1-0.1,0.1-0.1-0.1
	c0,0.1,0,0.2-0.1,0.2c0,0.8,0.1,1.6,0.1,2.3c-0.1,2-0.4,4-0.7,6c-0.1,0.5-0.2,1-0.3,1.4c0.8-0.7,1.9-1.3,2.3-1.5
	C99.7-34.3,101.4-34.8,102.5-34z M46.8,35.3c0.1,0.6,0.2,1.2,0.5,1.7C47.1,36.5,46.9,35.9,46.8,35.3z"/>
<g class="st4">
	<path class="st5" d="M221.2,79.5c5.9-0.3,13.2,3.1,13.9,9.6c0.5,4.7,0.3,9.3,1,14c0.6,3.7,1.8,7.3,3.4,10.7
		c1.6,3.3,4.8,6.1,5.7,9.5c0.5,2.2,0.2,5.4-0.5,7.5c-0.9,2.6-0.4,2.4,1.4,4.7c3.5,4.4,6.7,8.8,9,14c3.3,7.5,5.4,16.2,4.2,24.4
		c-0.2,1-0.3,4.8-1.8,5c-1.6,0.3-0.9-1.8-0.8-2.5c0.5-4.4,1-8.3,0.4-12.7c-2.5-17.3-14.9-28.6-23-43.3c-0.4-0.8-1.4-2.6-2-3.7
		c-1-1.9-2.1-5.4-3.4-6.8c-2.6-2.6-0.2,2.6,0.3,3.6c0.6,1.3,1.4,2.6,2,3.7c3,5.2,6.4,10.8,9.5,16.1c-13.5,3.1-23-13.2-26.6-23.8
		C210.8,100.8,207.2,80.2,221.2,79.5z"/>
	<path class="st6" d="M300.5,63.1c-9.9,0.8-16.3,7.3-19.2,16.5c-1.6,4.9-1.8,10-2.7,15c-1.3,7.6-4.2,13.4-9.8,18.8
		c-1.7,1.7-3,3.4-3.9,5.3c-1.8,1.8-3.4,3.9-4.5,6.5c-1.5,3.3-1.9,7.2-0.2,10.4c0.5,0.9,1.6,2.6,2.8,3.4c-4.4,9.4-6.9,19.8-6.6,30.1
		c0.2,6.2,0.5,12.5,0.8,18.7c0.1,1.7,0.6,4.4,1.5,1.6c0.7-2.6-0.2-6.6-0.3-9.3c-0.4-13-0.8-24.9,4.6-37.1c0.6-1.3,1.2-2.5,1.8-3.8
		c0,0,0.1,0,0.1-0.1c0,0,0,0,0.1,0.1c0-0.1,0.1-0.2,0.2-0.2c0.2-0.2,0.3-0.4,0.5-0.7c0.5-0.7,1-1.4,1-1.9c0,0,0,0,0,0
		c3.3-5.4,7.1-10.6,11-15.6c0,0,4.2-5.7,3.6-2.5c-0.3,1.5-3.4,4.5-4.7,6.1c-2.8,3.6-6.1,8.2-8.8,12.7c-0.4,0.2-0.9,1.2-1.3,2
		c-0.2,0.4-0.4,0.8-0.6,1.1c9.7,3.2,17.2-3.2,22.3-10.7c0,0,0,0,0,0c1.6-2.1,3.2-4.1,5.1-5.7c3.3-2.7,6.9-3.2,10.8-4.5
		c10.7-3.7,15.2-17.5,16.7-27.8C322.4,79.8,314.4,62,300.5,63.1z"/>
	<path class="st6" d="M281,30.6c-10.2,10.6-15.1,25.2-19,39c-4.3,15.4-7.2,31-7.3,47.1c-0.1,10.5-0.4,21.1,0.3,31.6
		c0.2,3.7,0.6,7.5,1.2,11.2c0,0.3,1.4,8.5,2.6,6.6c0.7-1.1-1.4-8.6-1.5-9.8c-0.9-7-1.1-14-1-21.1c0.1-11.6-0.3-23.2,0.9-34.7
		c0.2-1.7,0.3-3.5,0.7-5.2c0.4-1.8-0.1-1,1.3-1.7c1.4-0.7,3.1-0.6,4.5-1.5c5.7-3.4,8.6-12.3,10.8-18.1c2.6-6.6,4.2-13.7,5.4-20.7
		c0.9-5.1,1.6-10.2,2-15.4c0.1-1.6,0.1-3.3,0.4-5c0.1-0.4,0.5-1.2,0.5-1.6c0-0.8-0.5-1.3-0.6-2C281.8,29.8,281.4,30.2,281,30.6z"/>
	<path class="st6" d="M225.6,171.5c0,17.5,14.2,31.7,31.7,31.7c17.5,0,31.7-14.2,31.7-31.7"/>
	<path class="st5" d="M259.8,171.6h-1.7c0.1-2.1,0.3-4.2,0.6-6.3c1.3-7.9,5.5-19.6,14.7-20.9c0.3,0,1.6-0.1,3.1,0
		c0.7-0.4,1.5-0.6,2.4-0.7c7.8-0.6,16.6,5.7,20.4,12.3c3,5.3,2.5,12.3,0.7,17.9c-1.3,3.8-4,9.2-8.6,9.2c-5.7,0.1-6-7-6.1-11.2
		c-0.1-5.5-0.8-10.3-5.2-14.1c-1-0.9-2.1-1.6-3.1-2.5c-1.6-1.4-3.4-2.7-3.6-5c-0.3-3.1,1.5-3.6,4.1-3.1c0.5,0.1,5,2.1,4.3,0.5
		c-0.2-0.5-1-0.9-1.9-1.2c-2.5-0.3-5.4-0.6-6.2-0.4c-9.1,2-12.7,14.6-13.6,22.6C259.9,169.9,259.8,170.8,259.8,171.6z"/>
</g>
<g class="st7">
	<path class="st8" d="M86.9,21.6c1.8-2.6,5.2-9.2,7.8-10.1c1.7-0.6,1.2,5.6,1.2,6.8c0.1,4.6-0.4,9.1-0.9,13.6
		c-1,8.2-4.2,15.4-8.7,22.4c-2.3,3.6-5,7.2-8.7,9.4c-1.7,1-3.8,1.2-5.4,2.1c-2,1-0.9,0.2-1.8,2.2c-1.2,2.8-1.6,6.5-2.2,9.5
		c-2.6,13.9-8.9,87.4-7.8,101.6c0.1,1.3-1.7,1.6-1.7,0c-0.5-8.1,3.6-64.3,5.6-82.7c2-18.4,4.1-34.6,6.1-41c2.5-7.7,7-17,10.7-24.2
		C82.8,27.9,84.7,24.7,86.9,21.6z"/>
	<path class="st9" d="M100.4,111.8c4.7-3.5,9.9,3.1,5.6,6.6c-2.4,1.9-4.9,1.2-6.3-0.4c-0.9,1.1-1.8,2.3-2.6,3.2
		c-2.5,3-4.8,6-7.1,9.1c-4.7,6.5-8.7,13.3-12.8,20c-4.1,6.6-8.2,13.3-11.9,20.1c-3.2,5.8-7.4,12.5-8.5,18.8
		c1.6-13.4,7.9-26.3,15.3-38c7.4-11.7,15.8-24.5,27.2-33.7C98.2,115.8,98.2,113.4,100.4,111.8z"/>
	<path class="st8" d="M10.4,79.1c2.7,0.5,7,6.5,9.2,8.8c2.6,2.7,5,5.6,7.2,8.7c4.8,6.5,9.1,13.5,12.7,20.7
		c5.9,11.8,10.7,23.9,14.1,36.8c2.1,7.9,3.5,16,4.3,24.1c0.2,1.5,1.8,13.3-0.6,13.6c-2.1,0.3-1.4-8.9-1.5-10.2
		c-1.1-14.2-4.5-28-9.2-41.3c-1-2.9-2-6.5-3.6-9.1c-1.2-1.9,0-1.2-2.1-1.9c-1.8-0.6-3.8-0.5-5.7-1.2c-4-1.6-7.2-4.8-9.9-8
		c-5.4-6.2-9.7-12.9-12-20.8c-1.2-4.4-2.4-8.8-3-13.3C10.1,84.9,8.7,78.8,10.4,79.1z"/>
	<path class="st10" d="M20.8-20.8c10,17.3,18.2,36.4,23.5,55.7c3.2,11.7,5.5,23.7,7.7,35.6c3.5,18.4,6.7,36.9,7.7,55.6
		c0.9,18.9,2.8,40.6-3.4,58.8c3.1-18.5,0.1-38.1-0.4-56.7c-0.2-8.9-1-17.6-1.9-26.5c-0.9-8.6-2.4-17.1-3.8-25.5
		c-0.7-4.1-1.4-8.3-2.1-12.4c-0.2-1.2-0.3-4.9-1.1-5.7c-0.8-0.8-4.8-1.2-6-1.8c-2.5-1.3-4.9-3-7-4.9c-4-3.6-7.6-8.3-10.3-12.9
		c-6.4-10.7-9-23.8-8.9-36.2c0-2.4,3.9-28.4,2.3-28.7c0.1-0.1,0.2-0.2,0.3-0.3C18.5-24.8,19.7-22.8,20.8-20.8z"/>
	<path class="st10" d="M128.8,41.8c0.2-0.2,1.2-1.8,0.7-1.7c1-0.2-1.4,1.7,1.1,0.5c-1.2,1.2-0.5,2.6-0.5,4.2c0,2.5-0.4,5-0.9,7.5
		c-0.7,3.9-1.9,7.7-3.5,11.3c-3.5,7.9-9.5,15.5-16.6,20.4c-3.5,2.4-6.9,3.3-10.9,4.4c-2.5,0.7-2.7,2-4.1,4.5
		c-2.8,5.1-5.5,10.2-8,15.5c-2.9,6.3-5.8,12.6-8.5,19c-9.1,21.6-16.5,44-20.3,67.2c-0.1-13.7,3.1-27.7,7-40.7
		c2.9-9.5,6.7-18.6,10.7-27.7c1-2.2,2.5-5,2.9-7.4c0.3-1.7-0.6-3.3-1-5.1c-1.6-7-1.5-14.8-0.1-21.7c1.5-7.7,6-11.3,13.5-12.4
		C93,79,96.5,79.2,99,78c2.7-1.3,3.9-5.5,5.4-8.2c4.2-7.2,9.2-14.2,14.9-20.2c1.6-1.7,3.3-3.2,5.1-4.7C125.6,44,128,42.9,128.8,41.8
		z"/>
	<path class="st9" d="M44.6,179.8h26.6c1.2,0,2.2,1,2.2,2.2c0,0.1,0,0.2,0,0.3l-2.1,14c-0.6,4.3-4.3,7.4-8.6,7.4h-9.6
		c-4.3,0-8-3.2-8.6-7.4l-2.1-14c-0.2-1.2,0.6-2.3,1.8-2.5C44.4,179.8,44.5,179.8,44.6,179.8z"/>
</g>
<path class="st11" d="M20.6,186.9c0,9.2,0.7,16.7,10.5,16.7c9.8,0,10.5-7.5,10.5-16.7"/>
<path class="st11" d="M34,181.1c-0.4,0.6-0.7,1.3-1,1.9c0-1.3,0.1-2.7,0.3-4c0.3-2.3,0.9-4.6,1.4-6.9c0.4-1.7,0.3-4.6,1.7-5.9
	c0.4-0.3,0.5,0.3,0.5,0.5c0,0.1,0-1-0.4-0.8c-2.1,1.1-2.8,4.5-3.5,6.2c-1,2.5-1.8,5.1-2.2,7.7c-0.1,0.7-0.1,1.3-0.1,2
	c-0.1-0.2-0.1-0.4-0.2-0.5c-1.2-2.9-2.9-5.7-4.9-8.2c-0.5-0.6-6.9-6.9-7.4-5.9c0,0.1,0.2,0.3,0.3,0.3c0,0,0,0,0,0
	c0.4,0.6,1.4,1.5,1.8,2.1c0.8,1.3,1.5,2.7,2.1,4.1c1.4,2.9,2.7,5.9,3.9,8.8c0.3,0.7,0.6,1.4,0.9,2.1c-3.2-4.6-7.4-8.8-13.3-11.2
	c2,1,3.3,2.9,4.7,4.4c1.6,1.8,3.3,3.5,5,5.2c1.9,2.1,4.2,4.3,6,6.6c1.8,3.8,3.5,7.5,4.6,11.5c-0.4-1.4,0-3.3-0.1-4.7
	c-0.1-1.1-0.2-2.3-0.4-3.4c0.2,0.5,0.4,1,0.5,1.5c-0.1-0.8-0.2-1.6-0.3-2.4c0.3-0.7,0.5-1.4,0.7-2c0.9-2.9,1.9-5.8,3.3-8.5
	c1.3-2.6,2.8-5.1,4.4-7.6c0.8-1.1,1.5-2.3,2.3-3.4c0.5-0.8,1-1.9,1.7-2.7C41.8,172,36.9,176.2,34,181.1z"/>
<path class="st2" d="M307.8-7.3c-1.3-4.3-4.3-7.7-7.5-10.8c-6.1-6-9.4-9.8-11.6-18.6c-1.3-5.2-2.6-10.7-6.7-14.4
	c-3-2.7-8.1-5-12.1-3.1c-6.1,3.7-7.8,11.1-7.1,17.8c0.8,8.3,4.6,13.4,12.1,16.5c4.2,1.7,7,4,9.3,8c1.8,3.2,2.9,7.1,5.2,10
	c3.4,4.3,7.7,6.2,13,5.5c-5-9.1-10.7-18.3-17.7-26c-0.7-0.8-4.5-3.7-3.7-5c0.9-1.4,4.8,4,4.8,4c2,2.3,3.9,4.8,5.7,7.3c0,0,0,0,0,0
	c1.9,2.6,3.8,5.2,5.6,7.8c0.7,1.1,1.5,2.2,2.2,3.4c1,1.7,2.6,6.5,4.3,7.6c0.4,0.2,0.7,0.3,1,0.4c1.1,1.9,2.3,3.7,3.3,5.7
	c2.8,5,5.1,10.2,6.2,15.8c0.3,1.6,0.1,7.8,1.2,9c2,2.2,1.4-2,1.3-3.3c-1-10.4-4.8-19.3-10.2-28.1C308.1,0,308.4-5.5,307.8-7.3z"/>
<path class="st12" d="M237.8-2.2c2.2-2.5,7.3-3,10.5-2.8c3.9,0.2,8,1.2,11.7,2.3c6.1,1.9,12.1,5.4,17.5,8.7c0.7,0.4,8.7,5.2,8,6.1
	c-0.7,0.8-8.6-4.9-10.4-5.9c-3.8-2.1-7.2-4.6-11.3-6c-4.3-1.4-8.8-2-13.3-2c-0.6,0-2.5-0.4-2.5,0.5c0,0.8,3.1,0.4,3.6,0.4
	c2.3,0,4.6,0.2,6.8,0.6c4.2,0.7,8.1,2.2,11.7,4.5c-1,2.3-3.4,3.4-5.9,2.8c-2.2-0.5-4.3-1.7-6.4-2.1c-1.5-0.2-2.9-0.1-4.4,0.3
	c-3.8,1.1-5.9,3.3-10.1,1.8C240.1,5.8,234.7,1.4,237.8-2.2z"/>
<path class="st13" d="M179.5,215.3c-24.7,0-44.8-19.2-44.8-42.8s20.1-42.8,44.8-42.8s44.8,19.2,44.8,42.8S204.2,215.3,179.5,215.3z"
	/>
<g>
	<g>
		<path class="st14" d="M170.5,59.4c0,0-3.9,5.7-6.1,17.8c-1.9,10.5-3.6,14.4-6.4,16.6c-2.8,2.2-18.3,8.5-18.3,8.5l1.2,2.7
			c0,0,22.8-3.1,25.4-6.9c2.6-3.8,12.3-26.3,11.6-31.5C177,61.4,170.5,59.4,170.5,59.4z"/>
		<g>
			<path class="st15" d="M114.7,185.1c0.2,2.2-2.9,2.8-6.5,2.9c-3.6,0.2-2.5,0.9-7.4,1.8c-4.9,0.9-6.9-0.5-7.2-1.1
				c-0.3-0.6,2-1.5,4.4-2.6c0.3-0.1,0.6-0.3,0.9-0.4c2.7-1.2,4.3-3.7,6.4-5.9c2-2.2,3.9-9.1,3.9-9.1l6.7-1.4c0,0-1.9,6.2-2.5,8.9
				c-0.4,1.6,0.2,3.3,0.7,4.6C114.4,183.6,114.6,184.3,114.7,185.1z"/>
			<path class="st16" d="M108.2,188.1c-3.6,0.2-2.5,0.9-7.4,1.8c-4.9,0.9-6.9-0.5-7.2-1.1c-0.3-0.6,2-1.5,4.4-2.6l0,0
				c0,0,3.5,1.2,7.4,0.1c3.2-0.9,6.4-2.8,8.6-3.5c0.3,0.7,0.5,1.5,0.6,2.2C114.9,187.3,111.8,187.9,108.2,188.1z"/>
		</g>
		<path class="st17" d="M181.2,106c0,0-44.4-3.3-52.7,1.9c-8.4,5.3-21.7,66.7-21.7,66.7s0.8,0.7,2.7,0.9c1.7,0.2,5.5-0.8,5.5-0.8
			s19.2-27.5,20.6-34.4c1.4-6.9,1-13.1,4.1-13.3c3.1-0.2,41.6,4.7,47.4-5.6c5.8-10.3,1-20.4,1-20.4L181.2,106z"/>
		<g>
			<path class="st15" d="M131.7,192.2c0.2,2.2-2.9,2.8-6.5,2.9c-3.6,0.2-2.5,0.9-7.4,1.8c-4.9,0.9-6.9-0.5-7.2-1.1
				c-0.3-0.6,2-1.5,4.4-2.6c0.3-0.1,0.6-0.3,0.9-0.4c2.7-1.2,4.3-3.7,6.4-5.9c2-2.2,3.9-9.1,3.9-9.1l6.7-1.4c0,0-1.9,6.2-2.5,8.9
				c-0.4,1.6,0.2,3.3,0.7,4.6C131.3,190.7,131.6,191.5,131.7,192.2z"/>
			<path class="st16" d="M125.2,195.2c-3.6,0.2-2.5,0.9-7.4,1.8c-4.9,0.9-6.9-0.5-7.2-1.1c-0.3-0.6,2-1.5,4.4-2.6l0,0
				c0,0,3.5,1.2,7.4,0.1c3.2-0.9,6.4-2.8,8.6-3.5c0.3,0.7,0.5,1.5,0.6,2.2C131.9,194.5,128.8,195,125.2,195.2z"/>
		</g>
		<path class="st18" d="M189.9,108.7c0,0-39.4,1.9-47.5,7.5c-8.1,5.6-19.1,67.5-19.1,67.5s0.9,0.6,2.7,0.8c1.7,0.1,5.5-1,5.5-1
			s18.2-28.2,19.3-35.2c1.1-7,0.5-13.1,3.6-13.4c3.1-0.3,41.7,3.1,47.1-7.4C206.8,116.9,189.9,108.7,189.9,108.7z"/>
		<path class="st19" d="M176.4,56.2c-0.8-1.3-1.7-3.8-2.3-8.1c0.1,0.4,1.2,5.9,3.5,8.9c9.1,5.2,23.5,24.5,23.5,28.2
			c0,0,8.9-11.7,9-11.8c0,0,10-14.6-3.5-21.6c-6.8-3.6-7.1-8.8-7.2-13.3c0-4.5-3.4-23.7-16.2-17.8c0,0-2.2-0.8-3.1-0.6
			c0,0,0.8,0.1,1.2,0.5c-1.5,0-3.7,0.3-5.4,1.4C171.2,25,168.5,49.9,176.4,56.2z"/>
		<path class="st15" d="M191.5,52.8c0,0-3.7-0.3-7.3,0c-2.5,0.2-5,1-6.4,1.6c-3.5,1.5-3.1,7.6,4.2,6.5
			C189.3,59.7,192,54.6,191.5,52.8z"/>
		<path class="st15" d="M178.1,57.3c0,0-1,5.3,3.7,5.1c3.1-0.1,9.9-3.9,9.3-6.6c-0.3-1.3-2.7-4.6-3.1-12.1l-0.6,0.2l-9.6,2.6
			c0,0,0.4,3,0.6,5.9C178.7,54.7,178.7,57,178.1,57.3z"/>
		<path class="st14" d="M177.9,46.3c0,0,0.4,3,0.6,5.9c5.4-0.5,8-5.7,9-8.5L177.9,46.3z"/>
		<path class="st19" d="M188.4,42.6c0,0,2.5-4.7,3-8.6c0.3-2.8-1.8-12.9-11.9-10.7c0,0-3,0.5-5.6,2.6c-2.1,1.6-5.1,5.1-0.9,13.8
			l1.1,2.9L188.4,42.6z"/>
		<path class="st15" d="M176.2,49.2c0,0,12.9-0.6,12.4-8.7c-0.5-8,0.8-13.5-7.5-13.4c-8.2,0.1-9.6,3.2-10.1,6
			C170.5,35.8,172.9,49.1,176.2,49.2z"/>
		<path class="st19" d="M175.3,27.3c0,0,4.1,9.2,9.6,10.2c5.5,1,7.7-0.6,7.7-0.6s-4.4-3-5.6-8.7C187,28.2,177.6,22.6,175.3,27.3z"/>
		<path class="st19" d="M176.2,28c0,0-2.5,2.3-3,4.4c-0.5,2.1-0.5,6.3-1.7,6.2c0,0-3.1-6.2-0.3-10C174,24.5,176.2,28,176.2,28z"/>
		<path class="st18" d="M163.4,106.6c1,1.2,4.3,1.6,7.8,2.2c2.7,0.5,5.6,1,7.7,2.2c4.6,2.7,19.8,11.9,24.3,11.5
			c1.7-0.2,1.4-3.5,0.4-7.8c-1.6-6.9-5.1-16.5-5.1-20.6c0-2.3-0.8-7.6-1.8-13.8c-0.1-0.5-0.2-1-0.2-1.5c-2-12-4.8-26-4.8-26
			s-3.1,6.7-9.1,6.7c-6,0-4.6-5.1-4.6-5.1s-5.5,0.6-6.8,2c-1.3,1.4-4.6,7.4-5.2,9.1c0,0-0.1,2.1,5.1,3.1c0,0-1.3,5.7-1.4,9.5
			c-0.1,2.8,1.9,11.6,2.5,17c0.2,1.9,0.2,3.4-0.1,4.1c-0.4,0.9-1.7,1.8-3.2,2.6C165.8,103.5,162.1,105.1,163.4,106.6z"/>
		<path class="st17" d="M168.7,101.8c-3.3,5.7,9,7.4,11.1,8.6c4.6,2.7,18.8,12.6,23.3,12.2c1.7-0.2,1.4-3.5,0.4-7.8
			c-1.6-6.9-5.1-16.5-5.1-20.6c0-2.3-0.8-7.6-1.8-13.8l-5.4-5.1c0,0-5.7,14.8-11.2,17.2c-2.9,1.3-5.9,2.1-8.1,2.6
			c0.2,1.9,0.2,3.4-0.1,4.1C171.5,100.1,170.2,100.9,168.7,101.8z"/>
		<g>
			
				<rect x="149.6" y="106" transform="matrix(-1 -4.514401e-11 4.514401e-11 -1 311.54 213.4742)" class="st20" width="12.4" height="1.5"/>
			<path class="st20" d="M152.2,107.3c-0.1-0.5-11.4-18.2-11.4-18.2h-25.1l12.6,17.7L152.2,107.3z"/>
			<path class="st19" d="M151.1,107.5c-0.1-0.5-11.4-18.4-11.4-18.4h-24l12,18.4H151.1z"/>
			<path class="st20" d="M130,98.3c0.2,0.7,1,1.3,1.7,1.3c0.7,0,1.1-0.6,0.9-1.3c-0.2-0.7-1-1.3-1.7-1.3
				C130.1,97,129.7,97.6,130,98.3z"/>
		</g>
		<path class="st15" d="M158.3,99.7c0.7-0.3,6.1,0.7,7.7,1c4.9-1,21.1-4.2,21.9-5.2c0.9-1.2,3-37.6,5.3-38.3c0,0,4.6-2.8,9,2.5
			c4.4,5.3-3.1,42.9-9.7,44.9c-7.3,2.1-28.3-0.3-28.3-0.3v0c-1.7,0.6-4.7,0.9-6.4,1.5c-2.1,0.7-4,0.1-4.5-0.7
			C152.9,104.2,157.5,100.1,158.3,99.7z"/>
		<path class="st18" d="M191.5,52.8c0,0,9.4,0.8,12.1,3.9c2.7,3.1,3.5,11.5,3.5,11.5s-8.3,6.7-18.2,4.1L191.5,52.8z"/>
	</g>
</g>
</svg>
