<?xml version="1.0" encoding="utf-8"?>
<!-- Generator: Adobe Illustrator 24.2.1, SVG Export Plug-In . SVG Version: 6.00 Build 0)  -->
<svg version="1.1" id="Layer_1" xmlns="http://www.w3.org/2000/svg" xmlns:xlink="http://www.w3.org/1999/xlink" x="0px" y="0px"
	 viewBox="0 0 433.9 173.3" style="enable-background:new 0 0 433.9 173.3;" xml:space="preserve">
<style type="text/css">
	.st0{fill:#EBF3FA;}
	.st1{fill:#ED985F;}
	.st2{fill:#233862;}
	.st3{fill:#FFB27D;}
	.st4{fill:#B5453C;}
	.st5{fill:#DD6D22;}
	.st6{fill:#9E332E;}
	.st7{fill:#ED7D2B;}
	.st8{fill:#F99746;}
	.st9{fill:#FFFFFF;}
	.st10{fill:#ADCBF9;}
	.st11{fill:#FCECDB;}
	.st12{fill:#F4D2B8;}
	.st13{fill:#86D1CD;}
	.st14{fill:#D86713;}
	.st15{fill:#EE9849;}
	.st16{fill:#F1A34F;}
	.st17{fill:#E78B37;}
	.st18{fill:#699DEE;}
	.st19{fill:#E9F3FE;}
	.st20{fill:#AFCDFB;}
	.st21{opacity:0.6;fill:#AFCDFB;}
	.st22{fill:#9E3732;}
	.st23{fill:#E49963;}
	.st24{fill:#163560;}
	.st25{fill:#599DAD;}
	.st26{fill:#6BB7BF;}
	.st27{fill:#5AA9AD;}
	.st28{fill:#D68D5D;}
	.st29{fill:#4A75CB;}
	.st30{fill:#2B478B;}
	.st31{fill:#F4A269;}
	.st32{fill:#C65447;}
	.st33{fill:#1C468A;}
	.st34{fill:#2E3552;}
	.st35{clip-path:url(#SVGID_2_);}
	.st36{fill:#2C3A64;}
	.st37{fill:#BC3F3F;}
	.st38{fill:#A02E2E;}
	.st39{fill:#E8945B;}
	.st40{fill:#D35C2B;}
	.st41{fill:#E58638;}
</style>
<g>
	<path class="st0" d="M417.1,172.8c0,0,43.5-45.5,7.4-94.8c-32.1-43.7-69.5-40.7-96.9-23c-11.7,7.6-54,41.9-82.7-2.6
		C205.7-8.2,78.7-12.4,103.4,81c12,45.2-47.9,46.8-23.2,92L417.1,172.8z"/>
	<g id="girl_2_3_">
		<path class="st1" d="M127.5,111.6c0,0-12.2,5.3-14.4,5.2c-2.2-0.1-15.9-4.2-15.9-4.2l0.3,2.4c0,0,10.5,6.1,14.2,6.4
			c3.6,0.3,16-3.3,17.2-4C130.2,116.6,131,112.4,127.5,111.6z"/>
		<path class="st2" d="M129.4,92c0,0,4.5-0.9,6.7,0.8c4.1,3,4.3,13.2,5.8,14.7c1.5,1.5,5.2,0.9,5.5,8.8c0.3,7.9-1.5,8.5,0.7,12.1
			c2.1,3.5-0.9,7-0.9,7s1.2-1.9,0.7-3.3c0,0-0.5,3.1-2.5,3.8c-2,0.7-2.3,1.3-2.6,2.3c0,0-16.8-8.6-16.8-14.7
			c0-6.1-3.3-12.1-1.7-14.8c0,0-0.7,1.1-0.8,2.4c0,0-1-1.9,0.7-3.6c1.7-1.7-2-5.3-1.4-9.4C123.2,95.2,125.2,92.1,129.4,92z"/>
		<path class="st3" d="M126,117.4c1.1,0.7,2.4,1.4,4.1,1.7c6.3,1.5,8.8-3.9,9.7-7.6c-0.9-0.5-1.7-0.6-2.1-0.7
			c-0.5-0.1-0.9-0.1-1.3-0.1c-0.7-0.5-1.8-2.8-2-6.2l-0.3,0.1l-5,1.4c0,0,0.2,1.6,0.3,3.1c0.1,1.2,0.1,2.3-0.1,2.6
			c-0.4,0.1-0.6,0.1-0.6,0.1s0,0,0,0C128.6,111.9,127.1,114.3,126,117.4z"/>
		<path class="st1" d="M129,106c0,0,0.2,1.6,0.3,3.1c2.8-0.3,4.1-3,4.6-4.4L129,106z"/>
		<path class="st3" d="M128.2,107.5c0,0,6.7-0.4,6.4-4.5c-0.3-4.2,0.4-7-3.9-7c-4.3,0.1-5,1.7-5.3,3.1
			C125.2,100.5,126.5,107.5,128.2,107.5z"/>
		<path class="st2" d="M125.5,96.8c0.9-1.3,1.7-1.1,2.2-0.8c3.5-2.3,6.1,0.5,6.1,0.5c0.7,3,2.9,4.5,2.9,4.5s-1.2,0.8-4,0.3
			c-0.9-0.2-1.7-0.7-2.4-1.4c1.3,1.8,2.9,3.1,2.9,3.1c-3.5-1.3-5.2-5.9-5.3-6.4c-0.4,0.4-1.1,1.3-1.3,2.1c-0.3,1.1-1.4,2.8-2,2.8
			C124.6,101.5,124.1,98.8,125.5,96.8z"/>
		<path class="st4" d="M141.7,131c0.6-3.1,2.6-15.5,0.6-19.4c-0.7-1.4-3.5-1.6-6.5-1.4c-1,0.6-4.6,2.9-6.1,2.6c0,0,0,0-0.1,0
			c-0.7-0.2-1-0.7-0.4-1.1c0,0-1.5-0.1-3.4,0.2c-1.1,0.2-3.9,1.7-3.9,1.7s1.4,2.6,3.6,3.5c-0.4,3.2,0.2,4.7,3.5,12.1
			c2.8,6.3-0.4,12-0.4,12s16.7,13.4,16.8,6.6C145.5,142.6,141,135,141.7,131z"/>
		<path class="st5" d="M127.8,155.8c-0.9-0.1-1.7-0.6-2.2-1.4c-0.1-0.1-0.2-0.2-0.3-0.4c-1.9-2.9-2.6-11.7-6.9-21.1
			c-1-2.3-4.8-2.7-5.8-5.3c0,0-2.5-8.4,4.8-8.6c7.3-0.2,19.6,23.3,19.7,25.7C137.4,147.2,142,157.4,127.8,155.8z"/>
		<path class="st6" d="M98.8,155.6h10.4c0,0,0.4-1.7-0.3-2.8c-0.6-1-0.4-1.6,0.1-2.4c-0.5,0.2-1.1,0.4-1.8,0.3
			c-0.5,0-1.1-0.3-1.5-0.5c-0.4,0.5-2.4,2.7-3,3.1C102.1,153.8,99,153.6,98.8,155.6z"/>
		<path class="st6" d="M140.6,114.8c0,0,1.4,12.3-7.4,14.9c-8.8,2.6-11.3-11.3-4.2-12.3C136.1,116.4,140.6,114.8,140.6,114.8z"/>
		<path class="st7" d="M112.4,121.5c-0.6,4.7-3.1,19.5-7.4,26.7c-1.4,2.3,3.5,3.6,3.5,3.6c0.7-0.2,1.7-1.2,2.3-1.7
			c3.5-3.2,10.6-12.1,10.6-19.2c0-3.5,0.1-10.2-2.5-11.9C117.4,118,112.7,119.6,112.4,121.5z"/>
		<path class="st8" d="M134,155.6c0,0-0.4-0.5-1.1-1.6c-0.8-1.2-1.7-3.6-2.8-6.6c-1.1-3.2-2.5-7.1-4.1-11.3
			c-0.5-1.3-1.1-2.5-1.6-3.8c-1-2.3-3.9-2-4.9-4.5c0,0-4-8.9,3.3-9.2c7.3-0.2,21.2,23.9,22,26.3C145.7,147.4,150,158,134,155.6z"/>
		<path class="st4" d="M106.4,155.6h10.4c0,0,0.4-1.7-0.3-2.8c-0.6-1-0.4-1.6,0.1-2.4c-0.5,0.2-1.1,0.4-1.8,0.3
			c-0.5,0-1.1-0.3-1.5-0.5c-0.4,0.5-2.4,2.7-3,3.1C109.7,153.8,106.7,153.6,106.4,155.6z"/>
		<path class="st7" d="M130.2,147.4c-1.1-3.2-2.5-7.1-4.1-11.3c0.4-3.1,1.4-5.8,3-6.9C129,129.2,132.9,141.1,130.2,147.4z"/>
		<path class="st8" d="M118.5,121.2c-0.6,4.7-1.5,19.8-5.8,27.1c-1.4,2.3,3.5,3.6,3.5,3.6c0.7-0.2,1.7-1.2,2.3-1.7
			c3.5-3.2,10.6-12.1,10.6-19.2c0-3.5-4.1-9.9-6.6-11.6C120.8,118.3,118.7,119.3,118.5,121.2z"/>
		<g>
			<path class="st6" d="M96,106.6l10.6-1.1c0.3,0,0.6,0.1,0.7,0.4l3.8,10c0.2,0.4-0.1,0.9-0.6,0.9l-10.6,0.4c-0.3,0-0.6-0.2-0.7-0.4
				l-3.9-9.3C95.2,107.1,95.5,106.6,96,106.6z"/>
			<path class="st4" d="M95.1,106.7l10.6-1.1c0.3,0,0.6,0.1,0.7,0.4l3.8,10c0.2,0.4-0.1,0.9-0.6,0.9l-10.6,0.4
				c-0.3,0-0.6-0.2-0.7-0.4l-3.9-9.3C94.3,107.2,94.6,106.7,95.1,106.7z"/>
			<path class="st6" d="M101,111.4c-0.1-0.4,0.1-0.6,0.4-0.6c0.4,0,0.8,0.3,0.9,0.6c0.1,0.4-0.1,0.6-0.4,0.6
				C101.5,112,101.1,111.7,101,111.4z"/>
			<path class="st6" d="M95.4,107.6c-0.1-0.2,0-0.3,0.2-0.3c0.2,0,0.4,0.1,0.4,0.3c0.1,0.2,0,0.3-0.2,0.3
				C95.6,108,95.4,107.8,95.4,107.6z"/>
		</g>
		<path class="st3" d="M139.8,111.6c0,0-14.8,5.4-17,5.3c-1.4-0.1-13.3-4.3-13.3-4.3s-0.9-1.4-1.8-1.6c0,0-1.7-0.8-2.2-0.9
			c-0.5-0.1-0.4,0-0.2,0.5c0.1,0.2,0.3,0.5,0.6,0.7c-0.8,0.2-1.6,0.5-2,0.6c-0.6,0.1-2.4,0.7-1.9,1.6c0.5,0.9,3,1.1,4.1,0.9
			c1.1-0.2,2.4,0.4,2.4,0.4s11.6,7.4,14.8,7.4c6.3-0.1,16.9-3.9,18.1-4.7C142.5,116.6,143.3,112.4,139.8,111.6z"/>
		<path class="st3" d="M96.2,111.8c0,0,1.1-1.7,1.4-1.8c1.1-0.2,1.1,1.2,0.8,2.1c-0.2,1-1.1,1.9-1.3,1.8
			C96.9,113.8,95.9,112.7,96.2,111.8z"/>
		<path class="st3" d="M96.1,112.1c0,0-0.3,1.9,1.5,2.9L96.1,112.1z"/>
		<path class="st9" d="M126.9,105.1c0,0,0.6-0.3,2.4-0.1c0,0-0.1,0.7-1.4,0.8C127.2,105.8,126.9,105.1,126.9,105.1z"/>
		<path class="st4" d="M132.2,114.3c0,0,1.3,4.2,5.9,5.1c0,0,7.5-2.3,3.8-7.4C141.8,112,138.1,109.3,132.2,114.3z"/>
	</g>
	<g>
		<g>
			<g>
				<path class="st10" d="M128.6,60.1c0-0.4,0-0.9,0-1.3c0.1-3.2,0.7-6.2,1.6-9.2c-0.8,0-1.5,0.1-2.3,0.1c-0.8,2.5-1.2,5.1-1.4,7.8
					c-0.1,0.8-0.1,1.6-0.1,2.4v0.2c0,0.8,0,1.6,0.1,2.4c0.7,0.3,1.5,0.7,2.2,1c-0.1-0.8-0.1-1.5-0.2-2.3
					C128.7,60.9,128.6,60.5,128.6,60.1z M197.5,45.8c-1.9-4.4-4.5-8.4-7.9-11.7c-3.4-3.4-7.3-6.1-11.7-7.9
					c-4.6-1.9-9.4-2.9-14.4-2.9c-5,0-9.8,1-14.4,2.9c-0.5,0.2-1.1,0.5-1.6,0.7c-0.9,0.4-1.7,0.9-2.6,1.4c-2.8,1.6-5.3,3.5-7.6,5.8
					c-0.5,0.5-0.9,1-1.4,1.5c-0.6,0.6-1.1,1.3-1.6,1.9c-0.8,1.1-1.6,2.1-2.3,3.3c-0.4,0.6-0.8,1.3-1.1,1.9c-0.6,1-1.1,2.1-1.5,3.2
					c-0.3,0.8-0.7,1.6-0.9,2.5c-0.2,0.5-0.3,1-0.5,1.5c-0.8,2.5-1.2,5.1-1.4,7.8c-0.1,0.8-0.1,1.6-0.1,2.4v0.2c0,0.8,0,1.6,0.1,2.4
					c0,0.6,0.1,1.3,0.2,1.9c0.4,3.5,1.3,6.8,2.7,10.1c1.9,4.4,4.5,8.4,7.9,11.8c3.4,3.4,7.3,6,11.7,7.9c4.6,1.9,9.4,2.9,14.4,2.9
					c5,0,9.8-1,14.4-2.9c4.4-1.9,8.3-4.5,11.7-7.9c3.3-3.3,5.9-7.1,7.8-11.4c0-0.1,0.1-0.2,0.2-0.3c0.2-0.5,0.4-1,0.6-1.5
					c1.5-4.1,2.3-8.5,2.3-12.9C200.4,55.2,199.4,50.3,197.5,45.8z M195.5,73.6C195.5,73.7,195.5,73.7,195.5,73.6
					c-0.3,0.6-0.5,1.1-0.8,1.7c-1.7,3.5-3.9,6.7-6.7,9.4c-3.2,3.2-6.9,5.7-11.1,7.5c-4.3,1.8-8.8,2.7-13.5,2.7
					c-4.7,0-9.3-0.9-13.6-2.7c-4.1-1.8-7.9-4.3-11.1-7.5c-3.2-3.2-5.7-6.9-7.5-11.1c-1.1-2.7-1.9-5.4-2.3-8.3
					c-0.1-0.6-0.2-1.3-0.2-1.9c-0.1-0.8-0.1-1.5-0.2-2.3c0-0.4,0-0.7,0-1.1c0-0.4,0-0.9,0-1.3c0.1-3.2,0.7-6.2,1.6-9.2
					c0.2-0.5,0.3-1,0.5-1.5c0.2-0.5,0.4-1,0.6-1.5c0.3-0.7,0.6-1.4,1-2.1c0.3-0.7,0.7-1.3,1-1.9c1-1.7,2.2-3.4,3.5-4.9
					c0.5-0.6,1.1-1.3,1.7-1.9c0.1-0.1,0.2-0.2,0.2-0.2c2.6-2.6,5.7-4.8,9-6.5c0.7-0.3,1.4-0.7,2.1-1c0.2-0.1,0.4-0.2,0.6-0.2
					c4.1-1.7,8.5-2.5,13-2.5c4.7,0,9.2,0.9,13.5,2.7c4.1,1.8,7.9,4.3,11.1,7.5c3.2,3.2,5.7,6.9,7.5,11.1c1.8,4.3,2.7,8.8,2.7,13.5
					C198.2,64.8,197.3,69.4,195.5,73.6z"/>
			</g>
			<g>
				<path class="st10" d="M204.4,67.6l-2.9-0.1c0.9,1.2,1.1,2.3,0.6,3.2c-0.6,0.9-1.9,1.7-4,2.3c-0.8,0.2-1.6,0.4-2.5,0.6
					c-2.5,0.5-5.6,0.7-9.3,0.8c-9.2,0.1-20.7-1.1-32.3-3.5c-7.8-1.6-15-3.6-21-5.8c-0.9-0.3-1.8-0.7-2.7-1c-0.5-0.2-1-0.4-1.5-0.6
					c-0.8-0.3-1.5-0.6-2.2-1c-0.5-0.2-1-0.5-1.5-0.7c-6.6-3.2-9.7-6.4-8.3-8.6c1.1-1.8,5.1-3,11.2-3.5c0.7,0,1.5-0.1,2.3-0.1
					c0.2-0.5,0.3-1,0.5-1.5c-0.8,0-1.6,0.1-2.3,0.1c-7.7,0.5-11.8,1.8-13.3,4.3c-1.7,2.9,0.6,6.7,8.3,10.4c1.1,0.5,2.2,1,3.4,1.5
					c0.7,0.3,1.5,0.6,2.3,0.9c0.4,0.1,0.7,0.3,1.1,0.4c0.9,0.3,1.8,0.7,2.8,1c5.9,2.1,12.8,3.9,20.2,5.4c10.4,2.1,20.7,3.4,29.5,3.6
					c1.3,0,2.6,0,3.8,0c3.2,0,6-0.2,8.4-0.6c0.9-0.1,1.8-0.3,2.6-0.4c3.8-0.8,6.2-2,7.2-3.6C205.2,70.1,205.2,68.9,204.4,67.6z"/>
			</g>
			<g>
				<path class="st10" d="M188.6,66.7c0,0.1-0.1,0.1-0.1,0.2c-1.1,1.8-3.7,2.7-7.2,2.7c-1.7,0-3.6-0.2-5.8-0.6
					c-7-1.4-15.2-5-23.2-10c-7.9-5-14.5-10.8-18.8-16.4c-0.1-0.1-0.1-0.2-0.2-0.3c-0.4-0.5-0.8-1.1-1.1-1.6c-3.1-4.7-4.1-8.6-2.6-11
					c1.1-1.8,3.7-2.7,7.2-2.7c1.7,0,3.6,0.2,5.8,0.6c0.8,0.2,1.6,0.4,2.5,0.6c1,0.2,1.9,0.5,2.9,0.9c0.7-0.3,1.4-0.7,2.1-1
					c0.2-0.1,0.4-0.2,0.6-0.2c-1-0.4-2-0.7-3-1c-1.6-0.5-3.1-0.9-4.6-1.2c-7.5-1.5-12.9-0.5-15.1,3c-2.1,3.3-0.9,8.2,3.2,14
					c0.2,0.3,0.4,0.6,0.7,0.9c0.3,0.3,0.5,0.7,0.8,1c4.4,5.6,11.1,11.3,18.8,16.1c8.2,5.2,16.7,8.8,23.9,10.3
					c2.3,0.5,4.3,0.7,6.1,0.7c4.3,0,7.4-1.2,8.9-3.7c0.3-0.4,0.5-0.8,0.6-1.3H188.6z"/>
			</g>
			<g>
				<path class="st10" d="M150.4,94c-0.4,0-0.9-0.1-1.3-0.2c-6.3-2.3-3.4-21,2.6-37.5c5.5-15.2,14.5-30.7,20.8-30.7
					c0.4,0,0.9,0.1,1.3,0.2c3.6,1.3,3.8,7.8,3.4,13c-0.6,6.9-2.7,15.7-5.9,24.6C165.7,78.6,156.8,94,150.4,94z M172.5,27.6
					c-4,0-12.4,11.2-19,29.4c-3.2,8.8-5.2,17.3-5.8,24.1c-0.6,7.3,0.7,10.4,2.1,10.9c0.2,0.1,0.4,0.1,0.6,0.1c4,0,12.4-11.2,19-29.4
					c3.2-8.8,5.2-17.3,5.8-24.1c0.6-7.3-0.7-10.4-2.1-10.9C172.9,27.6,172.8,27.6,172.5,27.6z"/>
			</g>
			<g>
				<path class="st10" d="M188.2,53.4c-7.1,0-13.5-0.7-19.3-2c-6.9-1.6-12.8-4.2-17.6-7.6c-8.2-5.9-10.3-12.3-10.4-12.6l1.9-0.6
					c0,0.1,2,6.2,9.8,11.7c7.2,5.1,21.1,10.8,46.1,8.7l0.2,1.9C195.2,53.3,191.6,53.4,188.2,53.4z"/>
			</g>
			<g>
				<path class="st10" d="M181.3,91.9c-13.7-10.2-27.2-14.8-36.1-16.8c-9.7-2.2-16.1-2-16.2-2l-0.1-2c0.3,0,6.8-0.2,16.7,2
					c9.1,2.1,22.9,6.7,36.9,17.1L181.3,91.9z"/>
			</g>
		</g>
	</g>
	<g>
		<path class="st8" d="M441.2,164.5c0,2.1-0.9,4.1-2.3,5.5c-1.4,1.4-3.3,2.3-5.5,2.3h-62.9v-15H434c0.4,0,0.8,0,1.2,0.1
			C438.6,157.9,441.2,160.9,441.2,164.5z"/>
		<path class="st11" d="M382.3,164.7c0,2.1-0.8,4-2.2,5.3c0,0,0,0,0,0c-1.4,1.4-3.3,2.2-5.4,2.2h-71.5v-15h71.7c2.1,0,4,0.9,5.3,2.2
			C381.5,160.9,382.3,162.7,382.3,164.7z"/>
		<path class="st7" d="M388.2,171.1c0,0.3-0.1,0.6-0.3,0.8c-0.2,0.2-0.5,0.3-0.8,0.3h-86.4c-0.6,0-1.1-0.5-1.1-1.1
			c0-0.3,0.1-0.6,0.3-0.8c0.2-0.2,0.5-0.3,0.8-0.3h86.4C387.7,170,388.2,170.5,388.2,171.1z"/>
		<path class="st7" d="M388.2,158.4c0,0.3-0.1,0.6-0.3,0.8c-0.2,0.2-0.5,0.3-0.8,0.3h-86.4c-0.6,0-1.1-0.5-1.1-1.1
			c0-0.3,0.1-0.6,0.3-0.8c0.2-0.2,0.5-0.3,0.8-0.3h86.4C387.7,157.3,388.2,157.8,388.2,158.4z"/>
		<polygon class="st12" points="303.2,164.8 312.8,165 303.2,165.2 		"/>
		<polygon class="st12" points="303.2,167.1 326,167.4 303.2,167.5 		"/>
		<path class="st7" d="M435.2,157.4l-20.7,14.9h-43.9v-15H434C434.4,157.3,434.8,157.3,435.2,157.4z"/>
	</g>
	<g>
		<g>
			<path class="st13" d="M187.7,172.3h-43.3v-17.6h43.7c4,0,7.2,3.2,7.2,7.2v2.6C195.4,168.8,192,172.3,187.7,172.3z"/>
			<path class="st11" d="M145.6,172.3H95.8v-17.6h50c3.9,0,7,3.2,7,7v3.4C152.8,169,149.6,172.3,145.6,172.3z"/>
			<path class="st13" d="M156,172.3H94.2c-0.6,0-1.1-0.5-1.1-1.1v-0.4c0-0.6,0.5-1.1,1.1-1.1H156c0.6,0,1.1,0.5,1.1,1.1v0.4
				C157.1,171.8,156.6,172.3,156,172.3z"/>
			<path class="st13" d="M156,157.3H94.2c-0.6,0-1.1-0.5-1.1-1.1v-0.4c0-0.6,0.5-1.1,1.1-1.1H156c0.6,0,1.1,0.5,1.1,1.1v0.4
				C157.1,156.8,156.6,157.3,156,157.3z"/>
		</g>
		<polygon class="st12" points="95.8,163.5 102.7,163.8 95.8,163.9 		"/>
		<polygon class="st12" points="95.8,166.2 112.2,166.5 95.8,166.7 		"/>
	</g>
	<g>
		<g>
			<path class="st14" d="M212.1,91.2l-6.4,76.4c0,0-0.7,4.6,2.8,4.6c5.7,0,28.2,0,28.2,0s-4.3-1-4.2-3.1c0.1-2.6,7.5-78.6,7.5-78.6
				L212.1,91.2z"/>
			<path class="st15" d="M238.4,170.9c-1.1,0-22.6,0.1-28.1,0c-2.4,0-2.8-2.1-2.8-3.5c0-0.7,0.1-1.1,0.1-1.1l0.2-2l0.4-5.1l0.4-4.5
				l0.5-5.7l0.4-4.8l4.6-54.3l27.8-0.7c0,0-3.1,31.8-5.4,55c-0.2,2.6-0.5,5.1-0.7,7.4c-0.1,0.7-0.1,1.5-0.2,2.2
				c-0.2,2.2-0.4,4.2-0.6,6c-0.1,0.9-0.2,1.8-0.2,2.6c-0.3,3.1-0.4,5.1-0.5,5.5c0,0.2,0,0.4,0.1,0.6
				C234.8,170.8,238,170.9,238.4,170.9z"/>
			<polygon class="st16" points="144.5,49.7 160.1,112.5 162.3,121.1 169.6,150.4 305,150.4 278.1,49.7 			"/>
			<polygon class="st15" points="144.5,49.7 142.3,50.4 166.7,152.6 169.6,150.4 			"/>
			<polygon class="st14" points="166.7,152.6 301.3,152.6 305,150.4 169.6,150.4 			"/>
			
				<rect x="213.9" y="170.9" transform="matrix(-1 -1.224647e-16 1.224647e-16 -1 457.0269 343.1881)" class="st16" width="29.1" height="1.4"/>
			<polygon class="st16" points="298.4,131.8 276.4,51 144.3,51 144.3,49.7 278.1,49.7 300,131.7 			"/>
			<polygon class="st14" points="235.7,152.6 235.5,153.7 208.1,159.2 208.5,154.7 208.7,152.6 			"/>
			<path class="st17" d="M238.4,170.9c-1.1,0-22.6,0.1-28.1,0c-2.4,0-2.8-2.1-2.8-3.5l27.3-5.1c-0.3,3.1-0.4,5.1-0.5,5.5
				c0,0.2,0,0.4,0.1,0.6C234.8,170.8,238,170.9,238.4,170.9z"/>
			<polygon class="st17" points="229.1,130 169.6,150.4 162.3,121.1 			"/>
			<polygon class="st18" points="144.5,49.7 278.1,49.7 299.8,130.6 164,130.6 			"/>
		</g>
		<path class="st14" d="M240.9,140.9c-0.4-2-2.3-3.6-4.3-3.6s-3.3,1.6-2.9,3.6c0.4,2,2.3,3.6,4.3,3.6
			C240,144.5,241.2,142.8,240.9,140.9z"/>
		<polygon class="st19" points="293.5,127.1 168.4,127.1 154.2,70.7 153.1,66.3 152.2,62.7 150,54 273.3,54 275.7,62.7 276.7,66.3 
			277.9,70.7 		"/>
		<polygon class="st20" points="275.7,62.7 152.2,62.7 150,54 273.3,54 		"/>
		<g>
			<path class="st19" d="M155.1,57.9c-0.1-0.6,0.2-1.1,0.8-1.1c0.6,0,1.2,0.5,1.4,1.1c0.1,0.6-0.2,1.1-0.8,1.1
				C155.9,59,155.3,58.5,155.1,57.9z"/>
			<path class="st19" d="M158.7,57.9c-0.1-0.6,0.2-1.1,0.8-1.1c0.6,0,1.2,0.5,1.4,1.1c0.1,0.6-0.2,1.1-0.8,1.1
				C159.5,59,158.9,58.5,158.7,57.9z"/>
			<path class="st19" d="M162.6,57.9c-0.1-0.6,0.2-1.1,0.8-1.1c0.6,0,1.2,0.5,1.4,1.1c0.1,0.6-0.2,1.1-0.8,1.1
				C163.3,59,162.7,58.5,162.6,57.9z"/>
		</g>
	</g>
	<g>
		<path class="st18" d="M171.1,118.5c0-2.5,2.1-4.5,4.7-4.5s4.7,2,4.7,4.5c0,2.5-2.1,4.5-4.7,4.5S171.1,121,171.1,118.5z"/>
		<path class="st19" d="M175.4,115.8l2.7,2.3c0.2,0.2,0.2,0.6,0,0.8l-2.6,2.2c-0.3,0.3-0.9,0.1-0.9-0.4l0-4.5
			C174.5,115.8,175,115.5,175.4,115.8z"/>
		<path class="st20" d="M281,119c0,0.2-0.1,0.4-0.3,0.6c-0.2,0.2-0.4,0.3-0.6,0.3h-95.3c-0.5,0-0.9-0.4-0.9-0.9
			c0-0.2,0.1-0.4,0.3-0.6c0.2-0.2,0.4-0.3,0.6-0.3h95.3C280.7,118.2,281,118.6,281,119z"/>
		<path class="st18" d="M195.5,118.2v1.7h-10.6c-0.5,0-0.9-0.4-0.9-0.9c0-0.2,0.1-0.4,0.3-0.6c0.2-0.2,0.4-0.3,0.6-0.3H195.5z"/>
	</g>
	<polygon class="st20" points="269.3,111.2 186.4,111.2 177,77.2 176.3,74.7 175.7,72.4 174.3,67.2 255.9,67.2 257.5,72.4 
		258.2,74.7 259,77.2 	"/>
	<g>
		<polygon class="st19" points="256.6,86 229.4,86 226.3,74.9 226,74 225.8,73.3 225.4,71.6 252.2,71.6 252.7,73.3 252.9,74 
			253.2,74.9 		"/>
		<g>
			<polygon class="st21" points="240.6,83.3 231.1,83.3 230,79.4 230,79.1 229.9,78.9 229.7,78.3 239,78.3 239.2,78.9 239.3,79.1 
				239.4,79.4 			"/>
			<polygon class="st21" points="252.6,83.3 243.1,83.3 242.1,79.4 242,79.1 241.9,78.9 241.8,78.3 251.1,78.3 251.2,78.9 
				251.3,79.1 251.4,79.4 			"/>
			<path class="st20" d="M245.8,73.7h-17.3c-0.1,0-0.2-0.1-0.2-0.2l0,0c0-0.1,0.1-0.2,0.2-0.2h17.3c0.1,0,0.2,0.1,0.2,0.2l0,0
				C246.1,73.6,246,73.7,245.8,73.7z"/>
			<path class="st20" d="M246.5,75.1h-17.3c-0.1,0-0.2-0.1-0.2-0.2l0,0c0-0.1,0.1-0.2,0.2-0.2h17.3c0.1,0,0.2,0.1,0.2,0.2l0,0
				C246.7,74.9,246.6,75.1,246.5,75.1z"/>
		</g>
	</g>
	<path class="st20" d="M249.4,77H230c-0.2,0-0.3-0.1-0.3-0.3l0,0c0-0.2,0.1-0.3,0.3-0.3h19.4c0.2,0,0.3,0.1,0.3,0.3l0,0
		C249.7,76.9,249.6,77,249.4,77z"/>
	<g>
		<polygon class="st19" points="261.7,103.5 234.4,103.5 231.4,92.3 231.1,91.5 230.9,90.7 230.4,89 257.3,89 257.8,90.7 258,91.5 
			258.3,92.3 		"/>
		<g>
			<polygon class="st21" points="245.7,100.7 236.2,100.7 235.1,96.9 235.1,96.6 235,96.3 234.8,95.7 244.1,95.7 244.3,96.3 
				244.4,96.6 244.5,96.9 			"/>
			<polygon class="st21" points="257.7,100.7 248.2,100.7 247.2,96.9 247.1,96.6 247,96.3 246.8,95.7 256.2,95.7 256.3,96.3 
				256.4,96.6 256.5,96.9 			"/>
			<path class="st20" d="M250.9,91.2h-17.3c-0.1,0-0.2-0.1-0.2-0.2l0,0c0-0.1,0.1-0.2,0.2-0.2h17.3c0.1,0,0.2,0.1,0.2,0.2l0,0
				C251.2,91.1,251,91.2,250.9,91.2z"/>
			<path class="st20" d="M251.6,92.5h-17.3c-0.1,0-0.2-0.1-0.2-0.2l0,0c0-0.1,0.1-0.2,0.2-0.2h17.3c0.1,0,0.2,0.1,0.2,0.2l0,0
				C251.8,92.4,251.7,92.5,251.6,92.5z"/>
			<path class="st20" d="M252,93.8h-17.3c-0.1,0-0.2-0.1-0.2-0.2l0,0c0-0.1,0.1-0.2,0.2-0.2H252c0.1,0,0.2,0.1,0.2,0.2l0,0
				C252.3,93.7,252.2,93.8,252,93.8z"/>
		</g>
	</g>
	<g>
		<path class="st8" d="M117.5,162.8c0,0-1.5,0.7-2,1.9c-0.1,0.2-0.1,0.4-0.2,0.7c-0.1,1.6,0,5.1,0,5.1l-4.4-1.8l-4.4,1.8v-4.8
			c0-0.9,0.4-1.8,1.1-2.4c0.3-0.3,0.8-0.5,1.2-0.5H117.5z"/>
		<path class="st7" d="M117.5,162.8c0,0-1.5,0.7-2,1.9l-8.9,0.1c0,0,0.3-1.7,2.2-2H117.5z"/>
	</g>
	<g>
		<g>
			<g>
				<path class="st4" d="M334.3,157.4h53.3v-22.8h-53.8c-5.1,0-9.2,4.1-9.2,9.2v3.9C324.5,153,328.9,157.4,334.3,157.4z"/>
				<path class="st11" d="M386.2,157.4h61.4v-22.8H386c-4.9,0-8.9,4-8.9,8.9v4.8C377.1,153.3,381.2,157.4,386.2,157.4z"/>
				<path class="st4" d="M373.2,157.4h76.3c0.8,0,1.4-0.6,1.4-1.4v-0.6c0-0.8-0.6-1.4-1.4-1.4h-76.3c-0.8,0-1.4,0.6-1.4,1.4v0.6
					C371.8,156.8,372.4,157.4,373.2,157.4z"/>
				<path class="st4" d="M373.2,138h76.3c0.8,0,1.4-0.6,1.4-1.4V136c0-0.8-0.6-1.4-1.4-1.4h-76.3c-0.8,0-1.4,0.6-1.4,1.4v0.6
					C371.8,137.4,372.4,138,373.2,138z"/>
			</g>
			<polygon class="st12" points="447.6,146 439.1,146.4 447.6,146.6 			"/>
			<polygon class="st12" points="447.6,140.8 427.3,141.2 447.6,141.4 			"/>
		</g>
		<g>
			<path class="st4" d="M427.5,141.1c0,0,1.3,0.7,1.8,1.9c0.1,0.2,0.1,0.4,0.1,0.7c0.1,1.6,0,5.1,0,5.1l4-1.8l4,1.8V144
				c0-0.9-0.3-1.8-1-2.4c-0.3-0.3-0.7-0.5-1.1-0.5H427.5z"/>
			<path class="st22" d="M427.5,141.1c0,0,1.3,0.7,1.8,1.9l7.9,0.1c0,0-0.3-1.7-2-2H427.5z"/>
		</g>
	</g>
	<g>
		<path class="st23" d="M317.8,109.2c0,0-2.8,1.6-3.6,1.6c-0.8,0-3.9-0.6-4.8-0.2c-0.9,0.4-2.4,2.2-2.7,2.8c-0.5,1,2.1,0.6,3.4-0.3
			c0.2-0.1,0.4-0.2,0.6-0.1c0.7,0.1,2,0.4,2.7,0.1c0.9-0.3,5.5-0.7,5.5-0.7L317.8,109.2z"/>
		<path class="st24" d="M314.6,167.3c0,0-0.3,4.9-1.3,5c-0.1,0-4.8,0-4.8,0l-6,0c0,0,0-1.4,1.8-1.8c1.8-0.3,4.7-1.5,5.7-3.9
			C311.2,164.2,314.6,167.3,314.6,167.3z"/>
		<path class="st7" d="M339.4,87.2c0,0-2.9,20.9-7.8,22.7c-2.4,0.9-13,3-16.1,3.2c0,0-0.8-0.6-0.6-3.2c0,0,11.1-4.1,12.7-6.3
			c2.3-3.3-1.5-13.5,1.5-16.6C332,84.1,336.9,82.7,339.4,87.2z"/>
		<path class="st25" d="M338.4,131.2c-0.9,1.5-1.8,2.8-2.9,4.1c-3.2,4-6.6,7.3-7.2,10.4c-0.1,0.6-0.3,1.3-0.6,2
			c-0.2,0.7-0.6,1.5-0.9,2.2c-1.3,2.9-3.3,6.2-5.3,9.1c-3.5,5.1-6.7,9.4-6.7,9.4l-6-0.3c0.2-0.6,2.8-7.7,6.3-16.3
			c1.4-3.5,2.9-7.2,4.4-10.8c0.2-0.5,0.4-1,0.6-1.4c0.4-1.1,0.9-2.2,1.3-3.2c3.3-8.1,5.9-14.6,5.9-14.6s13-4.9,14.4-1.7
			C342.8,122.7,341.9,125.2,338.4,131.2z"/>
		<path class="st24" d="M328.4,153.2c0,0,4.1,2.7,3.7,3.5c-0.1,0.1-2.3,4.2-2.3,4.2l-3,5.2c0,0-1.2-0.7-0.7-2.4
			c0.6-1.7,0.9-4.8-0.6-6.9C324.1,154.7,328.4,153.2,328.4,153.2z"/>
		<path class="st26" d="M326.4,157.9c0,0,2.6-2.3,3-4c0,0-10.7-12.8-13-15.6c-0.1-0.1-0.1-0.3,0.1-0.4c1.7-2,21.2-6,23.7-9.9
			c0.9-1.4,1.4-2.7,1.6-3.8c0.6-2.4,0.1-4.1,0.1-4.1l-19.4-0.6c0,0-16.1,10.1-18,16.9C302.8,143.3,326.4,157.9,326.4,157.9z"/>
		<path class="st27" d="M316.5,137.9c1.7-2,21.2-6,23.7-9.9c0.9-1.4,1.4-2.7,1.6-3.8v-2.5l-8.2-1.3c0,0-2.3,7.2-9.3,9.9
			C317.9,132.8,316.6,137.3,316.5,137.9z"/>
		<path class="st23" d="M327.9,85.9c3.9,1,10.4-2.6,10.4-2.6s-2.5-1.7-3.5-5.4c0-0.2-0.1-0.4-0.1-0.6c-0.4-0.1-1.2-0.3-2-0.4l-3,2.7
			c0,0,0.1,1.1,0.4,3c0.1,0.3,0.1,0.7,0.2,1.1C328.8,84.7,327.9,85.9,327.9,85.9z"/>
		<path class="st8" d="M342.5,102.2c-0.6,7.6,0.2,19-0.5,21c-0.6,1.7-6.8,0.7-9.3,0.1c-0.9-0.2-2-0.5-3.2-0.9
			c-3.2-1-6.8-2.4-7.1-3.5c0,0,0-0.1,0-0.1c0-0.2,0-0.3,0-0.4c0.1-0.5,0.6-1.1,0.7-2.5c0.1-1.5,0.1-3.3,0.1-5.1c0-0.2,0-0.4,0-0.7
			l0-0.1c0,0,0-0.1,0-0.1c0.1-2.1,0.2-4.3,0.3-6.5c0.1-1.4,0.2-2.8,0.3-4.1c0.3-3.4,0.7-6.4,1.2-8.3c0.8-3.1,2.6-5.1,4.3-6.6l1.2-1
			c1.3,0.3,2.9,0.1,4.3-0.6c1.5-0.7,2.1-1.3,2.3-1.1C340.6,84.5,343.1,92.9,342.5,102.2z"/>
		<path class="st7" d="M329.5,122.5c-3.2-1-6.8-2.4-7.1-3.5c0,0,0-0.1,0-0.1c0-0.1,0-0.3,0-0.4c0.1-0.5,0.6-1.1,0.7-2.5
			c0.1-1.5,0.1-3.3,0.1-5.1c0-0.2,0-0.4,0-0.7l0-0.1c0,0,0-0.1,0-0.1l13.1-16.6C336.2,93.3,345,111.6,329.5,122.5z"/>
		<path class="st28" d="M329.7,79.6c0,0,0.1,1.1,0.4,3c2.9-0.9,4.3-3.6,4.7-4.7c0-0.2-0.1-0.4-0.1-0.6c-0.4-0.1-1.2-0.3-2-0.4
			L329.7,79.6z"/>
		<path class="st23" d="M329.3,81.2c0,0,6.4-1.1,5.7-5c-0.7-4-0.4-6.8-4.5-6.3c-4.1,0.5-4.6,2.2-4.7,3.6
			C325.7,74.9,327.6,81.4,329.3,81.2z"/>
		<g>
			
				<rect x="301.2" y="100.1" transform="matrix(0.9511 -0.309 0.309 0.9511 -18.5795 98.4614)" class="st29" width="0.6" height="15.5"/>
			
				<rect x="303.6" y="114.2" transform="matrix(0.9998 -2.135566e-02 2.135566e-02 0.9998 -2.3779 6.6839)" class="st29" width="16.3" height="1"/>
		</g>
		<path class="st23" d="M319.6,115.8c0,0-5.2,1.4-7.2,1.2c-2-0.1-3.6-1.1-3.8-1.6c-0.2-0.5-0.8-1.3,0.6-1.2c1.3,0.2,3.2,0.4,3.2,0.2
			c0.1-0.3-1.1-0.2-1.1-0.2s-0.3-0.5,0.1-0.5c0.4,0,1.7-0.4,2.2-0.1c0.5,0.2,0.9,1.1,1.3,1.1c0.3,0,4.4-1.8,4.4-1.8L319.6,115.8z"/>
		<path class="st8" d="M338.1,88.1c0,0-0.6,21.1-5.2,23.4c-2.3,1.2-12.6,4.4-15.7,5c0,0-0.8-0.5-0.9-3.1c0,0,10.6-5.3,11.9-7.7
			c2-3.5-2.9-13.2-0.3-16.6C330.4,85.8,335.1,83.9,338.1,88.1z"/>
		<path class="st30" d="M334.8,77.9c0,0,0.1-1.4-0.8-2.1c0,0,0.3-1.4-0.2-1.6c-0.5-0.2-0.7,0.9-0.9,0.7c-0.2-0.2-1.3-1-1.8-2.3
			c-0.5-1.3-4.8,0.3-5.3,0.5c-0.5,0.2-2.1-0.6-2.4-1.3c0,0,0.9-0.7,1.3-1.3c0.4-0.5,3.2-4.2,7.2-3.1c4,1,4.5,2.9,4.3,4.5
			C335.9,73.6,336.5,77.3,334.8,77.9z"/>
	</g>
	<g>
		<g>
			<path class="st31" d="M377.7,95.4c0,0,2,3,3.2,9.3c1,5.5,1.9,7.6,3.4,8.7c1.5,1.1,9.6,4.5,9.6,4.5l-0.6,1.4
				c0,0-11.9-1.6-13.3-3.6c-1.3-2-6.4-13.8-6.1-16.5C374.3,96.4,377.7,95.4,377.7,95.4z"/>
			<g>
				<path class="st3" d="M406.9,161.2c-0.1,1.2,1.5,1.4,3.4,1.5c1.9,0.1,1.3,0.5,3.9,0.9c2.6,0.5,3.6-0.2,3.8-0.6
					c0.2-0.3-1-0.8-2.3-1.3c-0.2-0.1-0.3-0.1-0.5-0.2c-1.4-0.6-2.2-1.9-3.4-3.1c-1.1-1.1-2.1-4.7-2.1-4.7l-3.5-0.7
					c0,0,1,3.3,1.3,4.6c0.2,0.8-0.1,1.7-0.4,2.4C407.1,160.4,407,160.8,406.9,161.2z"/>
				<path class="st32" d="M410.3,162.7c1.9,0.1,1.3,0.5,3.9,0.9c2.6,0.5,3.6-0.2,3.8-0.6c0.2-0.3-1-0.8-2.3-1.3l0,0
					c0,0-1.8,0.6-3.9,0c-1.7-0.5-3.3-1.5-4.5-1.8c-0.1,0.4-0.3,0.8-0.3,1.2C406.8,162.3,408.4,162.6,410.3,162.7z"/>
			</g>
			<path class="st24" d="M372.1,119.7c0,0,23.2-1.7,27.6,1c4.4,2.8,11.4,34.9,11.4,34.9s-0.4,0.3-1.4,0.5c-0.9,0.1-2.9-0.4-2.9-0.4
				s-10.1-14.4-10.8-18c-0.7-3.6-0.5-6.9-2.2-6.9c-1.6-0.1-21.8,2.4-24.8-2.9s-0.5-10.7-0.5-10.7L372.1,119.7z"/>
			<g>
				<path class="st3" d="M398.1,164.9c-0.1,1.2,1.5,1.4,3.4,1.5c1.9,0.1,1.3,0.5,3.9,0.9s3.6-0.2,3.8-0.6c0.2-0.3-1-0.8-2.3-1.3
					c-0.2-0.1-0.3-0.1-0.5-0.2c-1.4-0.6-2.2-1.9-3.4-3.1c-1.1-1.1-2.1-4.7-2.1-4.7l-3.5-0.7c0,0,1,3.3,1.3,4.6
					c0.2,0.8-0.1,1.7-0.4,2.4C398.2,164.1,398.1,164.5,398.1,164.9z"/>
				<path class="st32" d="M401.4,166.4c1.9,0.1,1.3,0.5,3.9,0.9s3.6-0.2,3.8-0.6c0.2-0.3-1-0.8-2.3-1.3l0,0c0,0-1.8,0.6-3.9,0
					c-1.7-0.5-3.3-1.5-4.5-1.8c-0.1,0.4-0.3,0.8-0.3,1.2C397.9,166.1,399.6,166.3,401.4,166.4z"/>
			</g>
			<path class="st33" d="M367.6,121.2c0,0,20.6,1,24.9,3.9c4.3,2.9,10,35.3,10,35.3s-0.4,0.3-1.4,0.4c-0.9,0.1-2.9-0.5-2.9-0.5
				s-9.5-14.8-10.1-18.4c-0.6-3.6-0.3-6.9-1.9-7c-1.6-0.1-21.8,1.6-24.7-3.9C358.8,125.4,367.6,121.2,367.6,121.2z"/>
			<path class="st4" d="M374.9,75.8c-0.9-0.6-2.1-0.7-2.9-0.7c0.2-0.2,0.6-0.2,0.6-0.2c-0.5-0.1-1.6,0.3-1.6,0.3
				c-6.7-3.1-8.5,6.9-8.5,9.3c0,2.4-0.2,5.1-3.8,7c-7,3.7-1.8,11.3-1.8,11.3c0.1,0,4.7,6.2,4.7,6.2c0-1.9,7.5-12.1,12.3-14.8
				c1.2-1.6,1.8-4.4,1.9-4.7c-0.3,2.3-0.8,3.5-1.2,4.2C378.8,90.4,377.4,77.4,374.9,75.8z"/>
			<path class="st3" d="M366.7,91.9c0,0,1.9-0.2,3.8,0c1.3,0.1,2.6,0.5,3.3,0.8c1.8,0.8,1.6,4-2.2,3.4
				C367.9,95.5,366.5,92.9,366.7,91.9z"/>
			<path class="st3" d="M373.7,94.2c0,0,0.5,2.8-2,2.7c-1.6-0.1-5.2-2.1-4.9-3.5c0.1-0.7,1.4-2.4,1.6-6.3l0.3,0.1l5,1.3
				c0,0-0.2,1.6-0.3,3.1C373.5,92.9,373.5,94.1,373.7,94.2z"/>
			<path class="st31" d="M373.9,88.5c0,0-0.2,1.6-0.3,3.1c-2.8-0.3-4.2-3-4.7-4.4L373.9,88.5z"/>
			<path class="st4" d="M368.4,86.6c0,0-1.3-2.5-1.6-4.5c-0.2-1.5,0.9-6.7,6.2-5.6c0,0,1.5,0.3,2.9,1.3c1.1,0.9,2.7,2.7,0.5,7.2
				l-0.6,1.5L368.4,86.6z"/>
			<path class="st3" d="M374.7,90c0,0-6.7-0.3-6.5-4.5c0.3-4.2-0.4-7.1,3.9-7c4.3,0,5,1.7,5.3,3.1C377.7,83,376.5,90,374.7,90z"/>
			<path class="st4" d="M375.3,78.6c0,0-2.2,4.8-5,5.3c-2.9,0.5-4.1-0.3-4.1-0.3s2.3-1.6,2.9-4.6C369.1,79,374,76.1,375.3,78.6z"/>
			<path class="st4" d="M374.8,78.9c0,0,1.3,1.2,1.6,2.3c0.3,1.1,0.3,3.3,0.9,3.3c0,0,1.6-3.3,0.2-5.2
				C375.9,77.1,374.8,78.9,374.8,78.9z"/>
			<path class="st33" d="M381.5,120.1c-0.5,0.7-2.2,0.9-4.1,1.2c-1.4,0.2-2.9,0.5-4,1.2c-2.4,1.4-10.4,6.2-12.7,6
				c-0.9-0.1-0.7-1.8-0.2-4.1c0.9-3.6,2.7-8.6,2.7-10.8c0-1.2,0.4-4,0.9-7.2c0-0.3,0.1-0.5,0.1-0.8c1-6.3,2.5-13.6,2.5-13.6
				s1.6,3.5,4.8,3.5c3.1,0,2.4-2.7,2.4-2.7s2.9,0.3,3.5,1.1c0.7,0.7,2.4,3.9,2.7,4.7c0,0,0.1,1.1-2.6,1.6c0,0,0.7,3,0.7,5
				c0.1,1.5-1,6-1.3,8.9c-0.1,1-0.1,1.8,0,2.2c0.2,0.5,0.9,0.9,1.7,1.4C380.2,118.4,382.1,119.3,381.5,120.1z"/>
			<path class="st24" d="M378.7,117.6c1.7,3-4.7,3.9-5.8,4.5c-2.4,1.4-9.9,6.6-12.2,6.4c-0.9-0.1-0.7-1.8-0.2-4.1
				c0.9-3.6,2.7-8.6,2.7-10.8c0-1.2,0.4-4,0.9-7.2l2.8-2.7c0,0,3,7.8,5.9,9c1.5,0.7,3.1,1.1,4.2,1.4c-0.1,1-0.1,1.8,0,2.2
				C377.2,116.6,377.9,117.1,378.7,117.6z"/>
			<g>
				<rect x="382.2" y="119.8" class="st6" width="6.5" height="0.8"/>
				<path class="st6" d="M387.3,120.4c0.1-0.3,6-9.5,6-9.5h13.1l-6.6,9.3L387.3,120.4z"/>
				<path class="st4" d="M387.9,120.5c0.1-0.3,6-9.6,6-9.6h12.6l-6.3,9.6H387.9z"/>
				<path class="st6" d="M399,115.7c-0.1,0.4-0.5,0.7-0.9,0.7c-0.4,0-0.6-0.3-0.4-0.7c0.1-0.4,0.5-0.7,0.9-0.7
					C398.9,115.1,399.1,115.4,399,115.7z"/>
			</g>
			<path class="st3" d="M384.1,116.5c-0.4-0.2-3.2,0.4-4,0.5c-2.6-0.5-11.1-2.2-11.5-2.7c-0.5-0.6-1.5-19.7-2.8-20
				c0,0-2.4-1.5-4.7,1.3c-2.3,2.8,1.6,22.5,5.1,23.5c3.8,1.1,14.8-0.2,14.8-0.2v0c0.9,0.3,2.5,0.5,3.3,0.8c1.1,0.4,2.1,0.1,2.3-0.4
				C387,118.8,384.6,116.6,384.1,116.5z"/>
			<path class="st33" d="M366.7,91.9c0,0-4.9,0.4-6.3,2.1c-1.4,1.6-1.8,6-1.8,6s4.3,3.5,9.5,2.1L366.7,91.9z"/>
		</g>
	</g>
	<path class="st34" d="M473.5,173.3H55.7c-0.3,0-0.5-0.2-0.5-0.5v-0.2c0-0.3,0.2-0.5,0.5-0.5h417.8c0.3,0,0.5,0.2,0.5,0.5v0.2
		C474,173.1,473.8,173.3,473.5,173.3z"/>
	<g>
		<defs>
			<polygon id="SVGID_1_" points="269.3,111.2 186.4,111.2 177,77.2 176.3,74.7 175.7,72.4 174.3,67.2 255.9,67.2 257.5,72.4 
				258.2,74.7 259,77.2 			"/>
		</defs>
		<clipPath id="SVGID_2_">
			<use xlink:href="#SVGID_1_"  style="overflow:visible;"/>
		</clipPath>
		<g class="st35">
			<path class="st3" d="M225.5,83.4c0,0,0.5-1.8,1.2-1.9c0.8-0.1,1.9-0.6,2.2,0c0.2,0.6-1.8,3.8-2.7,3
				C225.4,83.7,225.5,83.4,225.5,83.4z"/>
			<path class="st24" d="M217.3,144.2c0,0,0.9,1,1.2,2.1c0.1,0.3-0.1,0.5-0.3,0.5h-3.8c-0.4,0-0.7-0.3-0.7-0.7
				c0-0.7,0.1-1.7,0.7-2.4C215.3,142.7,217.3,144.2,217.3,144.2z"/>
			<path class="st24" d="M223,143.2c0,0,1.1,3.5,1.8,3.5c0.1,0,3.4,0,3.4,0l4.3,0c0,0-0.4-1-1.7-1.3c-1.3-0.2-3.6-1.1-4.8-2.7
				C224.8,141,223,143.2,223,143.2z"/>
			<g>
				<path class="st36" d="M215.4,121.7c0.7,1.9,1.1,3.5,1.1,4.2c0,3.2,6.4,17.9,6.4,17.9c2.1,0.9,4.4,0,4.4,0
					c-0.7-2-4.6-20.2-6.7-31.2c-0.9-4.6-1.5-7.9-1.5-7.9l-11.3-1.3C207.9,103.3,213.1,115,215.4,121.7z"/>
				<path class="st36" d="M207.9,103.3c0,0,5.2,11.6,7.5,18.4l5.2-9.2c-0.9-4.6-1.5-7.9-1.5-7.9L207.9,103.3z"/>
			</g>
			<path class="st36" d="M213.9,105.8c0,0,3.1,32.3,3.8,38.6c0,0-1.9,0.6-4.3-0.3c0,0-4.3-15-4.8-19.5c-0.5-4.5-5.3-18.5-4.5-19.8
				C205,103.4,213.9,105.8,213.9,105.8z"/>
			<path class="st3" d="M206,78.2c0,0,1.2,2.9,1.2,3.7c0,0.9-2.7,1.3-4.1,0.6c-1.4-0.7-1.2-1.3-1.2-1.3s-0.6-2.9-0.5-3.2
				C201.6,77.9,206,78.2,206,78.2z"/>
			<path class="st37" d="M225.2,83.1c0,0-4.9,6.1-5.1,6.9c-2.8-3.3-7.1-7.4-7.3-7.5c-0.6-0.4-1.5-0.7-2.5-0.9
				c-1.4-0.2-2.8-0.3-3.1-0.3c0,0-0.1,0-0.1,0c0.1,0.5-0.4,1.4-1.6,1.5c-1.4,0.1-3.3-0.7-3.5-1.5c0,0-3.2,0.2-2.7,6.2
				c0,0.1,0,0.2,0,0.3c0.2,2,0.8,4.6,2.1,8.1c0.5,1.2,2,10.5,2.4,10.5c0,0,0.4,0.2,1.3,0.5c0.5,0.1,1.1,0.3,1.8,0.4
				c1.6,0.3,3.7,0.5,6.7,0.5c5.4,0,6.8-1.5,6.8-1.5c0.3,0-3-7.4-4.7-13.8c1.8,1,3.7,2,3.9,2.2c0.9,0.5,1.5,0.8,2,0.8c0,0,0,0,0,0
				s0,0,0.1,0c0.3,0,0.4-0.1,0.6-0.2c0.4-0.2,1-0.7,1.5-1.7c0.7-1.4,1.6-4.1,2.4-6c0.4-1,0.7-2.1,1.2-3.1
				C227.3,84.4,226.3,83.3,225.2,83.1z"/>
			<path class="st38" d="M207.7,98c1.1,4.5-1,7.3-2.4,8.7c-0.9-0.3-1.3-0.5-1.3-0.5c-0.5,0-2-9.2-2.4-10.5c-1.3-3.5-1.9-6.1-2.1-8.1
				c0.1-0.1,0.2-0.2,0.2-0.2S206.1,91.4,207.7,98z"/>
			<path class="st39" d="M206.1,78.6c0,0-0.7,1.6-1.9,1.6c-1.2,0-2.8-1.5-2.8-1.5L206.1,78.6z"/>
			<path class="st3" d="M206.2,78.5c-0.2,0.2-0.8,0.6-1.3,0.8c-0.4,0.2-0.8,0.2-1.3,0c-0.7-0.2-1.8-0.6-2.1-0.7
				c-0.7-0.4-0.8-1.1-1.1-2.1c-0.4-1.2-0.7-2.1-0.8-2.8c-0.1-0.8,0.3-1.3,1.7-1.4c2.6-0.2,3.9,0.4,4.2,1.3c0.1,0.2,0.1,0.5,0.2,0.7
				C206.5,77.1,206.6,78.1,206.2,78.5z"/>
			<path class="st36" d="M205.6,74c0,0-0.6-0.6-1.4-0.4c-0.8,0.3-0.6,1-2.1,0.8c-1.4-0.1-1.9-0.8-2.1-0.4c-0.2,0.3,0.2,2.3,0.2,2.3
				s-4.5-6.4,1.2-6.4c0,0,5.8-0.4,4.7,6.2L205.6,74z"/>
			<path class="st3" d="M217.6,80L217.6,80C217.6,80.1,217.6,80,217.6,80z"/>
			<path class="st40" d="M218.2,70.9c0-0.1,0-0.2,0-0.2C218.2,70.8,218.2,70.8,218.2,70.9z"/>
			<g>
				<polygon class="st36" points="227.3,90.5 226.3,90.3 228.9,75.5 228.9,75.5 				"/>
			</g>
			<path class="st3" d="M226,82.9c0,0,0.9,0.9,1,0.4c0.1-0.5,1.2-1,1.3-1.2c0.1-0.2-1.3-0.3-1.5-0.3C226.6,81.7,225.8,82.6,226,82.9
				z"/>
			<path class="st33" d="M203.9,82.5c0.1,0,1.1-0.3,2.5-0.1c0,0,0.1,1.2-0.3,1.3c-0.4,0.1-1.1,0-1.3,0
				C204.7,83.8,203.9,82.5,203.9,82.5z"/>
			<path class="st33" d="M204.9,83.8c0,0,4.2,17.5,5.3,18.6c1.1,1.1,2,1.5,2,1.5s0.9-1.1,0.9-1.6c0-0.5-6.8-18.5-6.8-18.5H204.9z"/>
			<path class="st3" d="M210.7,100.8c0,0,2.8,0.9,3.7,0.9c0.9,0,1.8-1.4,1.5-1.8c-0.1-0.1-1.3,0.4-1.7,0.3c-0.5-0.3-1.2-0.1-1.6,0
				c-0.4,0.1-2.1-0.9-2.1-0.9L210.7,100.8z"/>
			<path class="st37" d="M211.7,99.3c-4.6-3.2-7.8-4.9-8.8-5.4c0.3-2.4,0.2-6.2-0.9-12.7c0,0-4.5,0.5-4.9,2.1
				c-0.7,2.2,0.9,8.5,2.3,13.5c0,0,0,0,0.1,0c0.1,0.2,0.2,0.3,0.4,0.5c1.9,1.5,11.9,4.4,11.9,4.4C212.5,100.7,211.7,99.3,211.7,99.3
				z"/>
			<g>
				<polygon class="st11" points="213.8,99.7 206.2,97.5 206,98.6 214,100.8 				"/>
				<polygon class="st12" points="217.6,96.8 213.8,99.7 214,100.8 218.4,97.8 				"/>
				<g>
					<polygon class="st36" points="214.1,101.1 205.5,98.5 205.6,98.3 214,100.8 					"/>
				</g>
				<g>
					<polygon class="st36" points="214.1,101.1 219,97.8 218.8,97.6 214,100.8 					"/>
				</g>
			</g>
			<path class="st33" d="M203.9,82.5c0,0-2-2-2.1-1.9c-0.2,0.1-0.4,0.6-0.3,0.7c0.1,0.1,2.6,1.6,2.6,1.6L203.9,82.5z"/>
			<path class="st33" d="M206.4,82.4c0,0,0.4-2,0.5-2c0.1,0.1,0.7,0.6,0.7,0.8c0,0.1-0.8,1.3-1.2,1.4
				C206,82.7,206.4,82.4,206.4,82.4z"/>
		</g>
		<g class="st35">
			<path class="st3" d="M633.2,86.1c0,0,1.1-2.1,2-2.2c0.9-0.1,2.4-0.7,2.5,0c0.1,0.7-3.3,4.3-4,3.4C633,86.5,633.2,86.1,633.2,86.1
				z"/>
			<path class="st37" d="M612.6,83.6c0,0,1.5,5.9,3.6,10.3c0.6,1.2,6.4,4.7,6.8,5c3.7,2.7,3.6-1.2,3.6-1.2
				c0.2-2.6-7.5-12.4-7.8-12.7c-0.5-0.5-1.6-0.8-2.7-1C614.5,83.6,612.6,83.6,612.6,83.6z"/>
			<path class="st24" d="M605,156.2c0,0,0.7,1.1,0.7,2.4c0,0.3-0.2,0.5-0.5,0.5h-4.3c-0.4,0-0.7-0.4-0.6-0.8c0.2-0.8,0.6-2,1.5-2.7
				C603.1,154.5,605,156.2,605,156.2z"/>
			<path class="st24" d="M611.9,155.1c0,0,0.2,4,1,4.1c0.1,0,3.9,0,3.9,0l4.9,0c0,0-0.1-1.2-1.5-1.5c-1.4-0.2-3.8-1.3-4.7-3.1
				C614.7,152.5,611.9,155.1,611.9,155.1z"/>
			<g>
				<path class="st41" d="M609.8,130.2c0.2,2.2,0.2,4,0,4.8c-1,3.7,1.8,20.6,1.8,20.6c2.1,1,5.1,0,5.1,0c-0.2-2.3,0.9-23.2,2-36
					c0.4-5.4,0.8-9.1,0.8-9.1l-12.6-1.5C606.8,109.1,609.2,122.5,609.8,130.2z"/>
				<path class="st41" d="M606.8,109.1c0,0,2.4,13.4,3,21.2l8.9-10.6c0.4-5.4,0.8-9.1,0.8-9.1L606.8,109.1z"/>
			</g>
			<path class="st15" d="M613,111.9c0,0-6.4,37.3-7.5,44.5c0,0-2.4,0.7-4.8-0.4c0,0-0.3-17.3,0.5-22.5c0.8-5.2-0.4-21.3,0.9-22.8
				C603.4,109.2,613,111.9,613,111.9z"/>
			<path class="st3" d="M612.3,80.2c0,0,0.5,3.3,0.3,4.3s-3.5,1.5-4.9,0.7c-1.4-0.8-0.9-1.5-0.9-1.5s0.2-3.4,0.4-3.6
				C607.3,79.7,612.3,80.2,612.3,80.2z"/>
			<path class="st37" d="M620.4,112.3c0,0-2,1.8-8.3,1.8c-3.4,0-5.8-0.3-7.6-0.6c-0.8-0.2-1.4-0.3-1.9-0.5c-0.9-0.3-1.3-0.5-1.3-0.5
				c-0.5,0,0.6-10.7,0.4-12.1c-0.4-4-0.3-7,0-9.3c0-0.1,0-0.2,0-0.3c1.2-6.9,5-7.1,5-7.1c0,0.9,2,1.8,3.6,1.7
				c1.4-0.1,2.2-1.1,2.2-1.7c0,0,0.5,0.1,1.1,0.2c3.4,0.6,5.4,5.7,5.4,12.5C619.2,103.7,620.7,112.3,620.4,112.3z"/>
			<path class="st38" d="M608.1,103c-0.1,5.1-3.4,8.4-5.5,10c-0.9-0.3-1.3-0.5-1.3-0.5c-0.5,0,0.6-10.7,0.4-12.1c-0.4-4-0.3-7,0-9.3
				c0.2-0.2,0.3-0.2,0.3-0.2S608.3,95.3,608.1,103z"/>
			<path class="st39" d="M612.4,80.5c0,0-1.3,1.8-2.6,1.8c-1.3,0-2.7-1.8-2.7-1.8L612.4,80.5z"/>
			<path class="st3" d="M612.5,80.5c-0.4,0.3-1.1,0.7-1.8,0.9c-0.5,0.2-1,0.2-1.5,0c-0.7-0.3-1.9-0.7-2.2-0.8
				c-0.7-0.4-0.6-1.2-0.7-2.4c0-1.4-0.2-2.4,0-3.2c0.2-0.9,0.8-1.5,2.4-1.6c3.1-0.3,4.3,0.5,4.4,1.5c0,0.3,0,0.5,0,0.8
				C613.3,78.9,613.1,80,612.5,80.5z"/>
			<path class="st36" d="M613.2,75.2c0,0-0.5-0.7-1.4-0.4c-0.9,0.3-1,1.1-2.7,1c-1.6-0.1-2-0.9-2.3-0.5c-0.3,0.4-0.5,2.6-0.5,2.6
				s-3.2-7.4,3.3-7.4c0,0,6.8-0.4,3.5,7.1V75.2z"/>
			<path class="st37" d="M606.8,83.6c0,0-5.3,0.6-6.3,2.4c-1.5,2.6-1.6,9.8-1.6,15.6c0,0,2.2,1.7,3.8-0.8
				C604.2,98.3,605.7,93.9,606.8,83.6z"/>
			<path class="st3" d="M625.1,82.2L625.1,82.2C625.1,82.3,625.1,82.2,625.1,82.2z"/>
			<path class="st40" d="M628.7,71.7c0.1-0.1,0.1-0.2,0.1-0.2C628.7,71.5,628.7,71.6,628.7,71.7z"/>
			<g>
				<polygon class="st36" points="634.9,92.9 634,92.7 637.1,75.6 637.5,75.6 				"/>
			</g>
			<path class="st3" d="M633.8,86.2c0,0,1.2,0.4,1.3-0.2c0-0.6,1.1-1.7,1.2-2c0-0.3-1.5,0.4-1.8,0.5C634.2,84.7,633.6,86,633.8,86.2
				z"/>
			<path class="st37" d="M635,87.3c0,0-0.9-1.3-2-1.5c0,0-2.6,2.8-5.7,5.2c-2.2,1.7-2.9,3.8-3.1,5.1c-0.6,3,0.9,3.9,0.9,3.9
				s1.2,0.1,3.1-2.2c1.3-1.6,3.1-4.8,4.6-6.9C633.5,89.6,634.2,88.3,635,87.3z"/>
			<path class="st33" d="M608.7,85.1c0.1,0,1.3-0.3,2.9-0.1c0,0-0.3,1.4-0.7,1.5c-0.4,0.1-1.3,0-1.4,0
				C609.2,86.5,608.7,85.1,608.7,85.1z"/>
			<path class="st33" d="M609.4,86.6c0,0-0.6,20.1,0.3,21.4c0.9,1.3,1.8,1.7,1.8,1.7s1.3-1.2,1.5-1.8c0.1-0.6-2.2-21.3-2.2-21.3
				H609.4z"/>
			<path class="st3" d="M610.8,106.2c0,0,3,1.1,3.9,1.1c1,0,2.6-1.6,2.3-2.1c-0.1-0.1-1.7,0.5-2,0.3c-0.5-0.3-1.4-0.1-1.9,0
				c-0.5,0.1-2.1-1-2.1-1L610.8,106.2z"/>
			<path class="st37" d="M603.6,98c0,0,3.6,1.8,8.9,6.4c0,0,0.4,1.7-0.7,2.9c0,0-10.7-3.4-12.4-5.1C597.6,100.4,602,97.7,603.6,98z"
				/>
			<g>
				<polygon class="st11" points="614.6,104.9 606.7,102.3 606,103.6 614.6,106.2 				"/>
				<polygon class="st12" points="619.9,101.6 614.6,104.9 614.6,106.2 620.6,102.8 				"/>
				<g>
					<polygon class="st36" points="614.6,106.6 605.5,103.5 605.6,103.3 614.6,106.2 					"/>
				</g>
				<g>
					<polygon class="st36" points="614.6,106.6 621.3,102.7 621.1,102.4 614.6,106.2 					"/>
				</g>
			</g>
			<path class="st33" d="M608.7,85.1c0,0-1.6-2.4-1.9-2.2c-0.2,0.2-0.6,0.7-0.5,0.8c0.1,0.1,2.6,1.8,2.6,1.8L608.7,85.1z"/>
			<path class="st33" d="M611.5,85c0,0,1.1-2.3,1.1-2.3c0.1,0.1,0.6,0.7,0.6,0.9c0,0.2-1.3,1.5-1.8,1.6C611,85.3,611.5,85,611.5,85z
				"/>
		</g>
	</g>
</g>
</svg>
