<?xml version="1.0" encoding="utf-8"?>
<!-- Generator: Adobe Illustrator 24.2.1, SVG Export Plug-In . SVG Version: 6.00 Build 0)  -->
<svg version="1.1" id="Layer_1" xmlns="http://www.w3.org/2000/svg" xmlns:xlink="http://www.w3.org/1999/xlink" x="0px" y="0px"
	 viewBox="0 0 210.2 285.8" style="enable-background:new 0 0 210.2 285.8;" xml:space="preserve">
<style type="text/css">
	.st0{fill:#FAB17E;}
	.st1{fill:#243962;}
	.st2{fill:#132744;}
	.st3{fill:#EFCBAC;}
	.st4{fill:#D8AA88;}
	.st5{fill:#EF9F68;}
	.st6{fill:#A63E39;}
	.st7{fill:#C55546;}
	.st8{fill:#923030;}
	.st9{fill:#1C478A;}
	.st10{fill:#BE4040;}
	.st11{fill:#9C2624;}
	.st12{fill:#FFFFFF;}
</style>
<g>
	<path class="st0" d="M156.7,172.4l-3,13.8c0,0-2.5-5.3-2.7-6.9c-0.2-1.7,2.7-7.7,2.7-7.7L156.7,172.4z"/>
	<polygon class="st0" points="164.7,148.7 156.7,172.3 153.7,171.6 155.9,145.6 	"/>
	<polygon class="st1" points="198.8,75.5 170.3,58.9 190.9,44.4 220.8,62.1 	"/>
	<path class="st2" d="M180.4,62.5c0,0-4.6,5.5-7,10.9c-2.4,5.4,4.3,9.4-0.8,15.6c-5,6.1-7.2,14.2-4.2,18.1c3,3.9,30.5,2,42.6,4.6
		c12,2.6,12.1-6.1,11.2-10.9c-0.9-4.8-5.8-6.5-5-13.7s-2.8-7.9-6.9-10.1c-4.2-2.3-5-6.6-5-6.6C200.1,58.6,180.4,62.5,180.4,62.5z"/>
	<polygon class="st0" points="189.4,269.5 189.6,286.6 195.7,286.7 199.8,269.5 	"/>
	<polygon class="st0" points="139.5,268 132.6,280.8 137.1,286.7 148.6,270.3 	"/>
	<path class="st0" d="M184.6,91.6c0-3.3-0.2-6.8-0.2-6.8l11.2-2.2l0.6-0.2c0,8.7,0.4,10.7,1.9,11c0.1,0.1-0.5,8.6-3.9,9.5
		c-0.6,0.2-5.7,13.5-6.4,13.5c-3.3,0-4.1-19-4-19C184.4,97.1,184.6,94.4,184.6,91.6z"/>
	<g>
		<g>
			<path class="st3" d="M219.9,62c0-0.2,0.3-0.4,0.6-0.3l0,0c0.2,0.1,0.4,0.4,0.4,0.6c0,2.1,0.5,11.3,8.7,15.2l-0.4,0.8
				C220.6,74.2,220,64.5,219.9,62z"/>
		</g>
		<polygon class="st4" points="229.1,78.3 230,79 230.6,77.6 229.4,77.5 		"/>
		<path class="st3" d="M229.9,79c0.6,0.4,1.8,0.6,1.8,0.6c0.6-0.2,0.8-1.6,0.8-1.6c-0.4,0.4-1.9-0.3-1.9-0.3L229.9,79z"/>
	</g>
	<path class="st5" d="M195.5,82.5c-1.3,3.1-4.6,8.9-10.9,9c0-3.3-0.2-6.8-0.2-6.8L195.5,82.5z"/>
	<path class="st2" d="M182,78.6l-0.4-3.6c-2-10.9,2.4-13.8,5.2-15c3.5-1.5,7-1.2,7-1.2c11.9,0.6,11.2,12.5,10,15.5
		c-1.7,4.2-5.9,8.7-5.9,8.7L182,78.6z"/>
	<path class="st6" d="M168.1,155.3l30-7.6c-1,9-2,17.4-5.7,30.1c-0.2,0.7-0.4,1.3-0.6,2c-0.6,2.2-1.3,4.4-2.1,6.8
		c-5,15.2-14.5,31.9-19,45.2c-0.2,0.6-0.5,1.3-0.6,1.9c-8.3,26.6-23.2,43.1-23.2,43.1h-0.1c-0.2,0.1-0.6,0.2-1.3,0.3h-0.1
		c-1.4,0.3-3.5,0.8-4.7,0.8c-0.5,0-0.9,0-1.5-0.1c-2.4-0.2-5.4-0.7-5.4-0.7C155.5,209.9,168.1,155.4,168.1,155.3z"/>
	<path class="st0" d="M181.4,67c1.3-2.8,3.9-6,13.1-3.5c9.2,2.4,6.1,8.1,4.2,17.1c-1.9,9-16.4,5.9-16.4,5.9
		C178.6,85.4,180.1,69.9,181.4,67z"/>
	<path class="st2" d="M200.7,66.5c-0.3,6.8,3.6,11.4,3.6,11.4s-3,1.1-8.8-1.7c-5.8-2.8-7.6-14.2-7.6-14.2
		C191.9,57.4,200.7,66.5,200.7,66.5z"/>
	<path class="st2" d="M182.8,62c-4.2,3.4-2.7,11.2-2.7,11.2c0.2-3.5,2.7-4.2,3.9-6.4c1.2-2.1,4.6-3.9,4.6-3.9S187.3,58.4,182.8,62z"
		/>
	<path class="st0" d="M189.7,286.6c0,0-1,4.8-1.5,7.6c-0.6,2.8,0.6,3.2,5,3.1s3.5-4.6,3.5-4.6c-1.3-3.6-0.8-7-0.8-7L189.7,286.6z"/>
	<path class="st7" d="M188.5,292.5c-0.8,2-0.7,6.7-0.7,6.7s1.6,1,4.6,1c3.2,0,4.6-1,4.6-1c0.6-2.3-0.3-6.5-0.3-6.5
		C191.7,297.3,188.4,292.6,188.5,292.5z"/>
	<path class="st0" d="M121.8,296.4l3.2,0.4l13.7-12.8l-6.1-3.1c-2.5,4.6-10.8,13.8-10.8,13.8V296.4z"/>
	<path class="st7" d="M121.8,294.7C121.8,294.6,121.9,294.6,121.8,294.7c2.3,0,4.5-0.8,6.5-3.1c6.1-6.8,9.3-7.6,10.5-7.6
		c1,2.1,2.4,4.6,0.9,7.2l-2.2,8h-2.4v-7.6c-1.5,0.5-3,1.2-3.7,2.5c-1.7,3.3-2.9,5.5-4.4,5.7c-1.6,0.2-10.4,0.2-10.4,0.2
		S116.7,297,121.8,294.7z"/>
	<path class="st8" d="M166.2,223.8c5-24.2,20.8-50,20.8-50l5.3,4c-0.2,0.7-0.4,1.3-0.6,2c-0.6,2.2-1.3,4.4-2.1,6.8
		c-5,15.2-14.5,31.9-19,45.2c-0.2,0.6-0.5,1.3-0.6,1.9c-8.3,26.6-23.2,43.1-23.2,43.1h-0.1l-1.3,0.3h-0.1c-1.4,0.3-3.5,0.8-4.7,0.8
		c-0.5,0-0.9,0-1.5-0.1C144.5,270,162.2,243.9,166.2,223.8z"/>
	<path class="st6" d="M183,167l23.5,2.3c0,0,6.3,20.2,5.3,27.7c-1.2,8.4-2.6,18.3-4.2,29.7c-2,13.9-4.7,30.1-8.6,49.6
		c0,0-1.7,1.3-5.3,1.3c-3.5-0.1-5-1.3-5-1.3c-1.6-11.2-2.1-38.3-2-50.1C186.5,219.2,183.4,187.6,183,167z"/>
	<path class="st8" d="M207.1,204.1c2.8-19.4-8.5-29.7-8.5-29.7l7.9-5.1c0,0,6.3,20.2,5.3,27.7c-1.2,8.4-2.6,18.3-4.2,29.7
		c-2,13.9-4.7,30.1-8.6,49.6c0,0-2.2,1.5-5.3,1.3C197.5,274.8,204.2,223.6,207.1,204.1z"/>
	<path class="st9" d="M151.8,145.6c1.3-9.7,16.4-40,20.4-46.2c3.9-6.1,12.4-6.2,12.4-6.2s-11.6,64.3-16.4,62.1
		c-1.6-0.7-4.2-0.9-6.8-1.3c-1.7-0.2-3.3-0.6-4.8-1C153.4,151.9,151.2,149.9,151.8,145.6z"/>
	<path class="st9" d="M175,99.7c0.6-2.4,2.4-4.3,4.8-5.1l4.8-1.6l2,23.2l10.6-23.6l4.4,0.7c0,0,8.9,54.4,11.6,73.6
		c4.8,34.6,4.8,92.6,4.8,92.6s-3.3,0.9-9,1.6c-2.6,0.3-5.6,0.6-9,0.8c-5,0.2-10.9,0.2-17.5-0.4c-3.2-0.2-6.6-0.7-10.1-1.3
		c-0.6-0.1-1.3-0.2-1.9-0.3c-11.7-2.2-19.3-6.8-24.1-11c-1.8-1.6-3.1-3.1-4.2-4.5c-2.1-2.7-2.9-4.6-2.9-4.6L175,99.7z"/>
	<g>
		<polygon class="st10" points="169.3,114.8 193.9,112.3 197.9,148 173.3,150.4 		"/>
		<polygon class="st11" points="197.9,148 199.2,147.8 195.5,112.2 193.9,112.3 		"/>
	</g>
	<path class="st0" d="M216.4,144c-4.9,4.7-38-2.5-38.6-2.7c-2.5-0.6,2.9-3,2.9-3c16.5-2.4,33.8-7.6,33.8-7.6L216.4,144z"/>
	<path class="st9" d="M200.6,134c3.1,9,13.1,24.3,19.5,14.6c5.4-8.1-0.9-43.3-7.7-51.6c-2.2-2.6-15.1-4.2-15.1-4.2
		C196.4,101.2,199,129.4,200.6,134z"/>
	<path class="st0" d="M182.8,142.3c0,0-7.2-0.6-9.3-2.4c-2.5-2.1-2.8-2.6-2.8-5.6c0.1-1.3,2.6,1.7,3.3,2c0.7,0.4,1.8,0.3,1.8,0.3
		c-0.5-0.5-1.5-1.7-1.3-1.9c0.2-0.2,1.3,0.9,2.4,1s2.2,0.2,3,1.4c0.4,0.7,2.4,0.9,2.4,0.9L182.8,142.3z"/>
	<path class="st1" d="M204.9,117.1c0,0,2.8,14.1-4.3,16.9c-1.1,0.4-2,0.7-2.8,0.9l-0.5-5C200.3,127.1,203.8,122.7,204.9,117.1z"/>
	<path class="st9" d="M181.1,61.2c2.1-3,5.8-4.6,9.4-4c5.3,0.8,8.9,2.6,11.1,4.2c2,1.5,3.2,3.7,3.5,6.1l0.3,2.8
		c-14.6-12-25-7.9-25-7.9L181.1,61.2z"/>
	<path class="st1" d="M168.1,124l-6.8,30.1c-1.7-0.2-3.3-0.6-4.8-1C156.6,147,168.1,124,168.1,124z"/>
	<path class="st12" d="M181.6,80.7c0,0,0.5,1.3,0.6,1.6c0.2,0.2,2.8,0.5,3.7,0.5c0.9,0,1.7-1.3,1.7-1.3
		C185.7,80.7,181.6,80.7,181.6,80.7z"/>
</g>
</svg>
