<?xml version="1.0" encoding="utf-8"?>
<!-- Generator: Adobe Illustrator 24.2.1, SVG Export Plug-In . SVG Version: 6.00 Build 0)  -->
<svg version="1.1" id="Layer_1" xmlns="http://www.w3.org/2000/svg" xmlns:xlink="http://www.w3.org/1999/xlink" x="0px" y="0px"
	 viewBox="0 0 210.2 285.8" style="enable-background:new 0 0 210.2 285.8;" xml:space="preserve">
<style type="text/css">
	.st0{fill:#FAB17E;}
	.st1{fill:#243962;}
	.st2{fill:#CA4D44;}
	.st3{fill:#EE985E;}
	.st4{fill:#FFFFFF;}
	.st5{fill:#1C478A;}
	.st6{fill:#F89748;}
	.st7{fill:#EFCBAC;}
	.st8{fill:#D8AA88;}
	.st9{fill:#DDB18F;}
</style>
<g>
	<path class="st0" d="M108.6,113.4c0,0-1.3-1.8-2.7-2.9c-1.4-1.1-2.9-3.2-2.5-3.8c0.4-0.7,4.7-3.8,4.7-3.8l2.3,5.7L108.6,113.4z"/>
	<polygon class="st1" points="145.7,47.3 183.1,32.5 204,52.7 168.4,66.6 	"/>
	<path class="st0" d="M125.2,127.3l-14.9-19.1l-1.8,5.3c0,0,15.3,34.7,22.2,31.5C134.1,143.4,125.2,127.3,125.2,127.3z"/>
	<path class="st2" d="M171.8,64.9c0,0-7.3,4.3-2.8,12.6c0,0-6.4-1.2-7.7-3.1c0,0,0.2,0.8,0.4,1.2c0,0-7.5-0.9-8.8-3.7
		c-2.8-5.7,4-5.4,7-11.3c3.9-7.8,10-13.9,18.6-9.6c0,0,12-0.7,6.6,14.8c-5.4,15.4-0.3,16.8-0.3,16.8s-1.6,0.3-2.3,0.1
		c0,0-0.9-0.7-1-1.3c0,0,0,0.9,0.2,1.3c0,0-5.7-0.9-7.9-3.8C171.5,76.1,170.2,67.9,171.8,64.9z"/>
	<path class="st0" d="M161.3,89.7C161.3,89.7,161.3,89.8,161.3,89.7C161.3,89.7,161.3,89.7,161.3,89.7z"/>
	<path class="st0" d="M179,84.7c0.2,1.9,0.5,3.6,0.6,4.4c0.1,0.6,1.4,11-1,11.1c-2.4,0.1-8.4,12.5-11.1,12.4
		c-3-0.1-5.7-22.9-6.1-22.9c0.8-0.3,3.1-7.8,3.9-10.7c0.9-3.5,1.6-7.2,1.6-7.2l12.3,0.8l0.7,0c-0.5,1.7-0.8,3.3-1,4.7
		c0,0.2-0.1,0.4-0.1,0.6C178.5,79.6,178.7,82.3,179,84.7z"/>
	<path class="st2" d="M165.1,70.6c0,0-2-6.3-1.6-11.2c0.3-3.5,5.8-13.3,17.6-8.2c0,0,2.9-0.7,5.6,2.5c2.2,2.5,5,7.4-2.1,17l-2.1,3.3
		L165.1,70.6z"/>
	<path class="st3" d="M179,84.7c-8.6-2.5-12.2-12.4-12.2-12.4c3.6,0.1,8.4,2.6,12.1,5.2c0,0.2-0.1,0.4-0.1,0.6
		C178.5,79.6,178.7,82.3,179,84.7z"/>
	<path class="st0" d="M179.6,81.2c0,0-15.5-3.8-13-13.5c2.5-9.6,2.2-16.6,12.3-14.6c10,2,11,6.2,10.9,9.6
		C189.7,66.2,183.7,81.9,179.6,81.2z"/>
	<path class="st2" d="M186,54.8c0,0-7.2,10.2-14.2,10.1c-6.9,0-9.3-2.5-9.3-2.5s6-2.6,8.9-9.3C171.4,53.1,184.2,48.5,186,54.8z"/>
	<path class="st2" d="M184.7,55.4c0,0,2.5,3.4,2.6,6c0.1,2.7-0.9,7.8,0.6,8c0,0,5.2-6.8,2.8-12.1C188.2,51.7,184.7,55.4,184.7,55.4z
		"/>
	<path class="st2" d="M185.2,55.9c0,0-6.1,11-15.3,12.6c0,0,10.1-5.1,12.9-12.7C185.5,48.2,185.2,55.9,185.2,55.9z"/>
	<path class="st4" d="M177.2,75c0,0,0.2,1.5,1.1,1.8c0.9,0.3,3.4,1,3.7,0.8c0.3-0.2,1.2-1.3,1.2-1.3S179.2,74.8,177.2,75z"/>
	<path class="st0" d="M171.4,222.3c-0.2,0.8-0.4,1.6-0.6,2.4c-1.2,4.9-2.3,9.4-2.9,13.1c-0.9,4.9-1.1,8.6,0.1,10.1
		c3,4,2.3,25.2,1.3,40.4c-0.6,9.1-1.3,16.1-1.3,16.1l-5.5,5.7c0,0-1.7-9-3.9-20c-2.9-14.7-6.7-32.9-8.2-37.3
		c-1.2-3.5-2.9-18.6-4.4-34c-0.1-0.8-0.2-1.5-0.2-2.3c-0.3-2.7-0.5-5.4-0.8-8c-1.4-14.6,0.6-28.3,0.6-28.3s7.1-5.9,16.3-6.7
		c5.4-0.5,10.5,1.3,13,7.9C178.5,191.3,174.8,208,171.4,222.3z"/>
	<path class="st3" d="M171.4,222.3c-7.5-5.4-18.1-15.1-21.9-30.9c-0.7-7.9,5.5-15.4,12.4-17.7c5.4-0.5,10.5,1.3,13,7.9
		C178.5,191.3,174.8,208,171.4,222.3z"/>
	<path class="st0" d="M198.8,126.7l36.9,9.5v4.3c0,0-36.8-0.4-39.1-4.5C194.2,131.9,198.8,126.7,198.8,126.7z"/>
	<path class="st0" d="M235.7,268.9L234,276c0,0-7.6-3.9-17.3-9c-15.1-8-35.2-18.7-39.1-21.7c-2.6-2-6-12.8-9.2-25
		c-4.7-18.2-8.9-39.6-8.9-39.6s7-26.9,25.8-10.5c11.2,9.9,9.5,28.9,8.2,43.7c-0.8,9.9-1.4,17.9,2.3,20c5.3,3,18.3,13.9,27.4,24.5
		c3.3,3.8,6.1,7.6,7.9,11L235.7,268.9z"/>
	<path class="st0" d="M235.7,136.2c0,0,6.8-3.3,9.5-3.7c2.7-0.3,7.2-0.4,7.2,0c0,0.4-4.9,3.4-6.1,3.7c-1.3,0.2-3.8,2.1-3,2.3
		c0.8,0.2,4.7-0.7,4.8,0c0.1,0.7-2.4,1.1-2.9,1.7c-0.4,0.5-1.9,1.2-4.4,0.9c-2.4-0.3-5.1-0.5-5.1-0.5V136.2z"/>
	<path class="st5" d="M235.7,237.8c-23.9,34.4-85.4,38.2-85.4,38.2c-10-36.5-5.9-128.7-3.6-163c-0.1-6,0.1-11,1.1-13
		c1.5-3,9.9-8.3,12.8-10.9c0,0,0.7-0.3,1.3-0.3c0.4,1.6,6,20.4,6.5,20c0.5-0.4,9.9-18.3,10.9-20.4c1,0,1.7,0.1,1.9,0.1
		c1.6,0.1,10.6,1.9,11.3,3.3c0.3,0.5,2.8,7.3,6,16.2c0,0,0,0,0,0c6,16.8,14.8,13.7,18.4,18.6c2.2,3.1,1.3,9-2.8,14
		c-0.3,0.4-0.7,0.9-1.1,1.3c-3.1,3.3-7.3,5.2-14.2,4.2c-1.7-0.3-5.2-1.9-8-4.3C197.6,167.2,235.7,237.8,235.7,237.8z"/>
	<path class="st6" d="M162.3,87.9l-3.2,1.8c0,0,8.8,24.9,9.3,24.8c0.4-0.1,13.7-26,13.7-26l-2.7-1.1l-10.9,21.4L162.3,87.9z"/>
	<path class="st5" d="M189.8,55.7c0,0-11.3-6.3-30,4.8l0.8-3.1c0.7-2.7,2.5-5.1,5-6.4c2.8-1.5,7.2-3,13.4-2.9
		c4.3,0,8.2,2.4,10.1,6.2L189.8,55.7z"/>
	<g>
		<g>
			<path class="st7" d="M133.5,63.9l-0.3-0.9c10-3,12.2-13.4,12.5-15.8c0-0.3,0.3-0.6,0.6-0.6l0,0c0.3-0.1,0.6,0.2,0.5,0.5
				C146.4,49.8,143.9,60.8,133.5,63.9z"/>
		</g>
		<polygon class="st8" points="133.2,62.9 131.9,62.9 132.4,64.5 133.5,63.9 		"/>
		<path class="st7" d="M131.9,62.9c0,0-1.8,0.5-2.2,0c0,0,0,1.6,0.6,2c0,0,1.5,0.1,2.1-0.3L131.9,62.9z"/>
	</g>
	<path class="st4" d="M163,90.1c0,0,3,5.4,14.7,0.5l-9.2,18.1L163,90.1z"/>
	<path class="st5" d="M159.1,89.7c0,0-1.5,51.6-14.3,61.6c-0.9,0.7-1.9,1.2-2.9,1.5c-6.4,1.6-11.1-2.2-14.3-7.5
		c-4.4-7.4-5.9-17.6-5.1-20c1.4-4.5,4.7,3.4,11.6,1.3c6.9-2.2,8.7-29.9,13.5-33.9C148.9,91.7,159.1,89.7,159.1,89.7z"/>
	<g>
		<path class="st7" d="M96.9,126.5c0,0-1.9-1-3.7-2.4c-0.8-0.6-1.7-1.3-2.3-2c-0.3-0.4-0.6-0.8-0.8-1.1c0,0,15.6-18.7,16.8-20.9
			c1.2-2.2,13-20.4,13-20.4s1.4,0.7,3.2,1.8c0.6,0.4,1.3,0.9,2,1.4c1.2,1,2.4,2.1,3.1,3.4c0,0-17.1,17.3-18.3,19.8
			C108.6,108.6,96.9,126.5,96.9,126.5z"/>
		<path class="st9" d="M93.2,124.1c-0.8-0.6-1.7-1.3-2.3-2c-0.3-0.4-0.6-0.8-0.8-1.1c0,0,15.6-18.7,16.8-20.9
			c1.2-2.2,13-20.4,13-20.4s1.4,0.7,3.2,1.8c0.6,0.4,1.3,0.9,2,1.4c-4.8,4.9-17.7,18.2-18.8,20.5C105.1,105.7,96.7,118.8,93.2,124.1
			z"/>
		<path class="st2" d="M109.2,96.5c0,0-4.6,4.4-5.1,7.5l4.8,3.8c0,0,4.2-4.1,5.5-7.2L109.2,96.5z"/>
	</g>
	<path class="st0" d="M110.4,108.2c0,0,0.3-3-0.4-4.1c-0.7-1.1-0.8-4-1.4-3.7c-0.6,0.3-0.2,2.7-0.6,3.9c-0.4,1.2-1,6.6,0.6,7.6
		C110.2,112.9,110.4,108.2,110.4,108.2z"/>
	<path class="st0" d="M105.7,100.6c0,0-1.9-0.3-2.6,1c-0.7,1.3-1.6,3.3-0.2,4.1C104.2,106.5,105.7,100.6,105.7,100.6z"/>
	<path class="st4" d="M169.2,288.4c-0.6,9.1-1.3,16.1-1.3,16.1l-5.5,5.7c0,0-1.7-9-3.9-20C158.5,290.2,164.6,292.3,169.2,288.4z"/>
	<path class="st1" d="M173.4,312.7l-3,1.6c-1.1,0.4-2,0.5-3.1,0.9c-1.7,0.6-2.8,1.9-2.9,2.1c-0.8,3.4-2,3.2-2,3.2l-11.9,0.1
		c-0.6-0.3,0.4-2.7,0.8-3.1c1.1-1.1,4.5-0.6,5.7-4c0.7-2,4.1-8,4.1-8l0,0c0.1-0.1,0.7-0.2,4.2,0.5c1.8,0.4,2.5-3.2,2.5-3.2
		s0.6,0.1,1.2,0.6c0.5,0.3,1,0.9,1.3,1.8c0.4,1.2,2.2,3,3.4,4.2c0.8,0.7,1.3,1.2,1.3,1.2S175.8,311,173.4,312.7z"/>
	<path class="st4" d="M235.7,268.9L234,276c0,0-7.6-3.9-17.3-9c3.8-2.4,5.6-5.9,6.5-8.6c3.3,3.8,6.1,7.6,7.9,11L235.7,268.9z"/>
	<path class="st1" d="M245.6,271.6C245.6,271.6,245.6,271.6,245.6,271.6c-0.3-0.1-1.3-0.4-2-2c-0.4-1.1-0.6-2-1-3l-1.7-2.9
		c-1.8-2.3-2.4-1.8-2.4-1.8s-0.5,0.6-1.1,1.4c-1.1,1.3-2.9,3.1-4.1,3.5c-0.9,0.3-1.4,0.9-1.7,1.4c-0.4,0.6-0.5,1.2-0.5,1.2
		s3.6,0.6,3.3,2.4c-0.6,3.5-0.5,4.1-0.4,4.2l0,0c0,0,6.2,3.2,8.2,3.9c3.5,1.1,5.4,3.5,6.5,4.6c0.5,0.4,1.1,0.6,1.7,0.5
		c0.9-0.1,2.1-0.4,2.4-1L245.6,271.6z"/>
	<path class="st1" d="M166,124.7c0-1,0.8-1.8,1.8-1.8s1.8,0.8,1.8,1.8c0,1-0.8,1.8-1.8,1.8S166,125.7,166,124.7z"/>
	<path class="st1" d="M166,138c0-1,0.8-1.8,1.8-1.8s1.8,0.8,1.8,1.8c0,1-0.8,1.8-1.8,1.8S166,138.9,166,138z"/>
	<path class="st1" d="M214.1,140.7c-0.3,0.4-0.7,0.9-1.1,1.3c-3.1,3.3-7.3,5.2-14.2,4.2c-1.7-0.3-5.2-1.9-8-4.3
		c0,0-5.7-15.5-4.9-17.7c0.8-2.2,11.7,14.8,20.7,15.6C210.2,140.1,212.6,140.3,214.1,140.7z"/>
	<path class="st1" d="M147.5,128.6l-2.7,22.7c-0.9,0.7-1.9,1.2-2.9,1.5c-6.4,1.6-11.1-2.2-14.3-7.5c3.3,0.5,11.3,1.2,13-2.3
		C142.9,138.6,147.5,128.6,147.5,128.6z"/>
</g>
</svg>
