<svg xmlns="http://www.w3.org/2000/svg" viewBox="0 0 500 500"><path d="M448.31 449c0 11.28-88.78 20.42-198.31 20.42S51.69 460.31 51.69 449s88.78-20.39 198.31-20.39 198.31 9.14 198.31 20.39z" fill="#ebebeb"/><path d="M334.52 52.69H165.46a17.26 17.26 0 00-17.1 17.42v348a17.27 17.27 0 0017.1 17.42h169.06a17.29 17.29 0 0017.12-17.42v-348a17.28 17.28 0 00-17.12-17.42zm6.42 354.67c0 9.16-6.86 16.57-15.32 16.57H174.38c-8.48 0-15.34-7.41-15.34-16.57V83.3c0-18.66 6.86-19.57 15.34-19.57h30.3c1.76 0 3.2 2 3.2 4.48v1.07c0 5.81 3.18 5.83 7.08 5.83H285c3.94 0 7.1 0 7.1-5.83v-1.07c0-2.48 1.42-4.48 3.21-4.48h30.29c8.46 0 15.32 2.48 15.32 19.57z" fill="#263238"/><path d="M340.94 83.3v324.06c0 9.16-6.86 16.57-15.32 16.57H174.38c-8.48 0-15.34-7.41-15.34-16.57V83.3c0-18.66 6.86-19.57 15.34-19.57h30.3c1.76 0 3.2 2 3.2 4.48v1.07c0 5.81 3.18 5.83 7.08 5.83H285c3.94 0 7.1 0 7.1-5.83v-1.07c0-2.48 1.42-4.48 3.21-4.48h30.29c8.48 0 15.34 2.48 15.34 19.57z" fill="#fff"/><path d="M340.94 83.3v324.06c0 9.16-6.86 16.57-15.32 16.57H174.38c-8.48 0-15.34-7.41-15.34-16.57V83.3c0-18.66 6.86-19.57 15.34-19.57h30.3c1.76 0 3.2 2 3.2 4.48v1.07c0 5.81 3.18 5.83 7.08 5.83H285c3.94 0 7.1 0 7.1-5.83v-1.07c0-2.48 1.42-4.48 3.21-4.48h30.29c8.48 0 15.34 2.48 15.34 19.57z" fill="#fff"/><path d="M340.94 83.3v28.85H159V83.3c0-18.66 6.86-19.57 15.34-19.57h30.3c1.76 0 3.2 2 3.2 4.48v1.07c0 5.81 3.18 5.83 7.08 5.83H285c3.94 0 7.1 0 7.1-5.83v-1.07c0-2.48 1.42-4.48 3.21-4.48h30.29c8.48 0 15.34 2.48 15.34 19.57z" fill="#a6d453"/><g fill="#fff"><path d="M199.45 71l-.29.29c-.06 0-.11.11-.17.17a4 4 0 00-5.64 0l-.16-.17-.29-.29.37-.32a4.06 4.06 0 01.86-.55 4.18 4.18 0 011.13-.38c.19 0 .38 0 .57-.08s.48 0 .5 0h.38a4.51 4.51 0 011 .25 4.58 4.58 0 01.71.33 5.35 5.35 0 01.67.47l.31.28z"/><path d="M194.27 72.39c-.15-.16-.3-.31-.46-.46a3.32 3.32 0 014.71 0l-.46.46a2.61 2.61 0 00-1.89-.78 2.66 2.66 0 00-1.9.78z"/><path d="M197.6 72.85l-.46.46a1.38 1.38 0 00-1.94 0l-.46-.46a2 2 0 012.86 0z"/><path d="M196.58 73.73a.41.41 0 01-.41.41.42.42 0 110-.83.41.41 0 01.41.42z"/></g><path d="M170.9 71.89a1.21 1.21 0 111.21 1.21 1.21 1.21 0 01-1.21-1.21zm3.8 0a1.21 1.21 0 111.21 1.21 1.21 1.21 0 01-1.21-1.21zm3.8 0a1.21 1.21 0 111.2 1.21 1.2 1.2 0 01-1.2-1.21zm3.8 0a1.21 1.21 0 111.2 1.21 1.2 1.2 0 01-1.2-1.21zm3.79 0a1.21 1.21 0 111.21 1.21 1.21 1.21 0 01-1.21-1.21zm141.21 2.63h-9.82V70h9.82zM318 74h8.82v-3.52H318z" fill="#fff"/><path fill="#fff" d="M318.3 70.75h6.33v3h-6.33zm9 .29h.87v2.43h-.87zm-151.68 30.43l-5.37-5.03 5.37-5.03.84.88-4.43 4.15 4.43 4.15-.84.88zm148.76-10.06l5.37 5.03-5.37 5.03-.84-.88 4.43-4.15-4.43-4.15.84-.88zm-100.92 4.83a3.3 3.3 0 013.3-3.24 3.39 3.39 0 012.08.7.54.54 0 01.09.72.53.53 0 01-.72.1 2.28 2.28 0 00-1.45-.5 2.41 2.41 0 00-1.62.65 2.23 2.23 0 00-.66 1.57 2.19 2.19 0 00.66 1.57 2.4 2.4 0 001.62.64 2.29 2.29 0 001.45-.49.55.55 0 01.72.1.54.54 0 01-.09.72 3.39 3.39 0 01-2.08.7 3.28 3.28 0 01-3.3-3.24zM233.75 98h-2.19l-.44 1.18a.51.51 0 01-.46.31.52.52 0 01-.18 0 .51.51 0 01-.29-.65l2-5.3a.52.52 0 01.95 0l2 5.3a.51.51 0 01-.3.65.43.43 0 01-.17 0 .5.5 0 01-.46-.31zm-.37-1l-.73-1.93-.73 1.93zm5.93-2.82h-1.44V99a.49.49 0 01-.49.5.5.5 0 01-.5-.5v-4.8h-1.42a.5.5 0 01-.49-.51.48.48 0 01.49-.49h3.85a.48.48 0 01.49.49.51.51 0 01-.49.49zm4.33 3.82h-2.18l-.46 1.17a.51.51 0 01-.46.31.43.43 0 01-.17 0 .5.5 0 01-.3-.65l2-5.3a.52.52 0 011 0l2 5.3a.5.5 0 01-.3.65.4.4 0 01-.17 0 .51.51 0 01-.46-.31zm-.37-1l-.73-1.93-.72 1.93zm2.97 2v-5.33a.5.5 0 011 0v4.81h2.44a.51.51 0 01.5.5.51.51 0 01-.5.5h-2.94a.5.5 0 01-.5-.48zm9.68-5a3.31 3.31 0 010 4.56 3 3 0 01-2.15 1 3.06 3.06 0 01-2.21-1 3.37 3.37 0 010-4.56 3 3 0 012.21-1 2.92 2.92 0 012.15 1zm-.12 2.28a2.35 2.35 0 00-.61-1.58 2 2 0 00-1.42-.64 2 2 0 00-1.46.64 2.3 2.3 0 00-.61 1.58 2.26 2.26 0 00.61 1.57 2 2 0 001.46.64 2 2 0 001.42-.64 2.3 2.3 0 00.61-1.61zm2.52-.03a3.28 3.28 0 013.32-3.25 3.35 3.35 0 012.06.7.52.52 0 11-.64.81 2.3 2.3 0 00-1.42-.49 2.26 2.26 0 00-1.62.66 2.15 2.15 0 000 3.12 2.25 2.25 0 001.62.65 2.48 2.48 0 001.24-.34v-1.23h-1.29a.52.52 0 01-.51-.51.51.51 0 01.51-.51h1.79a.51.51 0 01.52.51v2.16a.44.44 0 01-.17.22 3.34 3.34 0 01-2.05.7 3.27 3.27 0 01-3.36-3.2zm10.22 3.23a2.6 2.6 0 01-2.61-2.6v-3.21a.49.49 0 01.5-.49.49.49 0 01.5.49v3.21a1.61 1.61 0 003.21 0v-3.21a.5.5 0 011 0v3.21a2.6 2.6 0 01-2.6 2.6zm4.26-.48v-5.33a.49.49 0 01.5-.49h2.94a.5.5 0 01.5.49.52.52 0 01-.5.51h-2.44v1.64h2.1a.51.51 0 01.49.5.49.49 0 01-.49.5h-2.1v1.66h2.44a.51.51 0 01.5.5.51.51 0 01-.5.5h-2.92a.5.5 0 01-.52-.48zm-13.25-31.15h-19.11a1.18 1.18 0 01-1.18-1.18 1.18 1.18 0 011.18-1.18h19.11a1.18 1.18 0 011.18 1.18 1.18 1.18 0 01-1.18 1.18z"/><path fill="#a6d453" d="M175.46 369.28h67.47v54.65h-67.47z"/><path fill="#ebebeb" d="M257.07 369.28h67.47v54.65h-67.47zm-81.61-101.09h67.47v67.47h-67.47z"/><path fill="#a6d453" d="M257.07 268.19h67.47v67.47h-67.47z"/><path fill="#ebebeb" d="M257.07 167.1h67.47v67.47h-67.47z"/><path fill="#a6d453" d="M175.46 167.1h67.47v67.47h-67.47zm.01 73.98h7.38v7.38h-7.38z"/><path fill="#455a64" d="M185.77 241.08h7.38v7.38h-7.38z"/><path fill="#dbdbdb" d="M196.08 241.08h7.38v7.38h-7.38z"/><path fill="#263238" d="M206.39 241.08h7.38v7.38h-7.38z"/><path fill="#a6d453" d="M257.07 241.08h7.38v7.38h-7.38z"/><path fill="#455a64" d="M267.38 241.08h7.38v7.38h-7.38z"/><path fill="#dbdbdb" d="M277.69 241.08h7.38v7.38h-7.38z"/><path fill="#263238" d="M287.99 241.08h7.38v7.38h-7.38zm-109.5 12.56a.38.38 0 01.39.38v.2a3.31 3.31 0 011.4.5.48.48 0 01.27.43.5.5 0 01-.51.49.47.47 0 01-.27-.08 3.08 3.08 0 00-.93-.39v1.72c1.37.35 2 .9 2 1.86s-.78 1.65-1.92 1.75v.5a.38.38 0 01-.39.39.39.39 0 01-.39-.39v-.55a4 4 0 01-1.85-.7.51.51 0 01-.24-.44.48.48 0 01.49-.49.45.45 0 01.3.1 3.26 3.26 0 001.33.6v-1.77c-1.31-.35-1.92-.84-1.92-1.86a1.81 1.81 0 011.89-1.72V254a.39.39 0 01.35-.36zm-.36 3.07v-1.6c-.57.06-.86.36-.86.76s.17.61.86.84zm.71 1.25v1.64c.58-.07.9-.36.9-.79s-.2-.64-.9-.81zm6.3-1.28a2.16 2.16 0 01.66 1.57 2.21 2.21 0 01-.66 1.59 2.23 2.23 0 01-1.58.66 2.27 2.27 0 01-1.58-.66.53.53 0 010-.72.51.51 0 01.72 0 1.23 1.23 0 001.72 0 1.18 1.18 0 00.36-.87 1.14 1.14 0 00-.36-.85 1.21 1.21 0 00-.85-.36.46.46 0 01-.37-.16.51.51 0 010-.72l.92-.94h-1.46a.5.5 0 01-.5-.51.5.5 0 01.5-.51h2.66a.51.51 0 01.51.51.61.61 0 01-.06.24l-.09.13-1.14 1.17a2 2 0 01.6.43zm2.05-.3a2.18 2.18 0 014.35-.22v.52a5.35 5.35 0 01-.31 1.84 3.16 3.16 0 01-1.17 1.54 2.49 2.49 0 01-1.35.43.51.51 0 01-.52-.48.52.52 0 01.49-.52 1.58 1.58 0 00.84-.26 1.75 1.75 0 00.57-.63 1.67 1.67 0 00.12-.23 2.08 2.08 0 01-.87.18 2.18 2.18 0 01-2.15-2.17zm1 0a1.18 1.18 0 102.36 0 1.18 1.18 0 00-2.36 0zm5.49 2.85a.67.67 0 110 1.34.67.67 0 010-1.34zm1.26-2.85a2.19 2.19 0 014.36-.22v.52a5.13 5.13 0 01-.32 1.84 3.08 3.08 0 01-1.16 1.54 2.54 2.54 0 01-1.35.43.51.51 0 01-.47-.49.52.52 0 01.49-.52 1.58 1.58 0 00.84-.26 1.75 1.75 0 00.57-.63l.12-.23a2.12 2.12 0 01-.87.18 2.19 2.19 0 01-2.21-2.16zm1 0a1.19 1.19 0 102.37 0 1.19 1.19 0 00-2.37 0zm4.78 0a2.19 2.19 0 014.36-.22v.52a5.13 5.13 0 01-.32 1.84 3.08 3.08 0 01-1.16 1.54 2.54 2.54 0 01-1.35.43.5.5 0 01-.52-.48.51.51 0 01.48-.52 1.58 1.58 0 00.85-.26 1.94 1.94 0 00.57-.63 1.63 1.63 0 00.11-.23 2 2 0 01-.86.18 2.18 2.18 0 01-2.16-2.17zm1 0a1.19 1.19 0 102.37 0 1.19 1.19 0 00-2.37 0zm58.38-2.74a.38.38 0 01.39.38v.2a3.22 3.22 0 011.39.5.46.46 0 01.27.43.49.49 0 01-.5.49.47.47 0 01-.27-.08 3.08 3.08 0 00-.93-.39v1.72c1.37.35 2 .9 2 1.86s-.78 1.65-1.92 1.75v.5a.38.38 0 01-.39.39.39.39 0 01-.39-.39v-.55a4 4 0 01-1.85-.7.51.51 0 01-.24-.44.48.48 0 01.49-.49.45.45 0 01.3.1 3.26 3.26 0 001.33.6v-1.77c-1.31-.35-1.92-.84-1.92-1.86a1.81 1.81 0 011.89-1.72V254a.39.39 0 01.35-.36zm-.36 3.07v-1.6c-.57.06-.86.36-.86.76s.17.61.86.84zm.71 1.25v1.64c.58-.07.89-.36.89-.79s-.19-.64-.89-.81zm7.71.87a.5.5 0 01-.51.5h-.09v.67a.48.48 0 01-.49.49.49.49 0 01-.5-.49v-.68h-2.83a.45.45 0 01-.31-.11.49.49 0 01-.08-.7l3.33-4.14h.05c.05 0 0 0 0 0h.39v3.81h.09a.51.51 0 01.95.65zm-1.59-2.72l-1.79 2.22h1.79zm2.67.27a2.18 2.18 0 014.35-.22v.52a5.35 5.35 0 01-.31 1.84 3.16 3.16 0 01-1.17 1.54 2.49 2.49 0 01-1.35.43.5.5 0 110-1 1.58 1.58 0 00.84-.26 1.75 1.75 0 00.57-.63 1.67 1.67 0 00.12-.23 2.08 2.08 0 01-.87.18 2.18 2.18 0 01-2.18-2.17zm1 0a1.18 1.18 0 102.36 0 1.18 1.18 0 10-2.36 0zm5.49 2.85a.67.67 0 110 1.34.67.67 0 010-1.34zm1.27-2.85a2.19 2.19 0 014.36-.22v.52a5.13 5.13 0 01-.32 1.84 3.08 3.08 0 01-1.16 1.54 2.52 2.52 0 01-1.35.43.51.51 0 01-.53-.49.52.52 0 01.49-.52 1.58 1.58 0 00.84-.26 1.75 1.75 0 00.57-.63l.12-.23a2.08 2.08 0 01-.87.18 2.19 2.19 0 01-2.15-2.16zm1 0a1.2 1.2 0 001.19 1.19 1.18 1.18 0 001.18-1.19 1.17 1.17 0 00-1.18-1.18 1.18 1.18 0 00-1.19 1.18zm4.77 0a2.19 2.19 0 014.36-.22v.52a5.13 5.13 0 01-.32 1.84 3.08 3.08 0 01-1.16 1.54 2.54 2.54 0 01-1.35.43.5.5 0 110-1 1.58 1.58 0 00.85-.26 1.84 1.84 0 00.57-.63 1.63 1.63 0 00.11-.23 2 2 0 01-.86.18 2.18 2.18 0 01-2.2-2.17zm1 0a1.19 1.19 0 102.37 0 1.19 1.19 0 00-2.37 0z"/><path d="M314.61 313.42c-1 .31-46.59-.17-47.23-.59s-.93-7.21-1.06-14.83v-.32a2 2 0 000-.25l28.41.05v.52s16.75 7.75 18.45 9.13 2.97 5.8 1.43 6.29z" fill="#455a64"/><path d="M314.13 311.71c-7.42-.28-37.37-.7-44.72-.41-.06 0-.06 0 0 0 7.35.44 37.31.62 44.73.49.15.04.15-.07-.01-.08zm-16.25-14.11c-2.91-.58-6.49-.18-8.75 1.87-.08.08 0 .21.13.18a41.25 41.25 0 018.61-1.68.19.19 0 00.01-.37zm2.12 1.3c-2.92-.58-6.5-.18-8.75 1.87-.09.08 0 .2.12.17a41.23 41.23 0 018.61-1.67.19.19 0 00.02-.37zm2.07 1.3c-2.92-.59-6.49-.18-8.75 1.87-.09.08 0 .2.12.17a40.6 40.6 0 018.61-1.67.19.19 0 00.02-.37z" fill="#263238"/><path d="M301.77 291.28c-1.13-1.59-3.28-.91-4.51.1a15.66 15.66 0 00-4.31 5.88l-.09.22a.5.5 0 01-.05.13v.06c0 .1-.07.2-.1.3a.08.08 0 00.07.11.49.49 0 00.19.35.31.31 0 00.27 0c.5-.18 1-.35 1.52-.51l1.69-.58a14 14 0 004-2c1.17-.84 2.38-2.55 1.32-4.06zm-.59 1.8c-.31 1.77-3.17 2.81-4.58 3.35-.93.36-1.88.67-2.8 1l-.52.21-.19.08.12-.18.06-.08a42.13 42.13 0 012.56-3.52 16.46 16.46 0 011.57-1.66c.87-.76 4.33-2.39 3.78.8z" fill="#263238"/><path d="M293.38 297.89l-.13-.2a.61.61 0 00-.07-.1l-.06-.09c-.05-.07-.1-.15-.16-.22a15.63 15.63 0 00-5.56-4.77c-1.43-.7-3.68-.87-4.41.94s.88 3.1 2.28 3.72a8.11 8.11 0 00.82.31 19.78 19.78 0 004.86.82c.67.06 1.34.11 2 .19h.05a.36.36 0 00.36-.46.08.08 0 00.02-.14zm-.61-.18h-.15c-.54-.09-1.07-.15-1.61-.22l-1.82-.22c-1.49-.2-4.52-.55-5.22-2.2-1.28-3 2.47-2.19 3.5-1.63a16.08 16.08 0 011.91 1.25 39.84 39.84 0 013.28 2.81l.15.13.11.1z" fill="#263238"/><path fill="#a6d453" d="M175.47 342.17h7.38v7.38h-7.38z"/><path fill="#455a64" d="M185.77 342.17h7.38v7.38h-7.38z"/><path fill="#dbdbdb" d="M196.08 342.17h7.38v7.38h-7.38z"/><path fill="#263238" d="M206.39 342.17h7.38v7.38h-7.38z"/><path fill="#a6a6a6" d="M257.07 342.17h7.38v7.38h-7.38z"/><path fill="#455a64" d="M267.38 342.17h7.38v7.38h-7.38z"/><path fill="#dbdbdb" d="M277.69 342.17h7.38v7.38h-7.38z"/><path fill="#263238" d="M287.99 342.17h7.38v7.38h-7.38zm-109.5 12.56a.38.38 0 01.39.39v.19a3.45 3.45 0 011.4.5.48.48 0 01.27.43.5.5 0 01-.51.5.48.48 0 01-.27-.09 3.08 3.08 0 00-.93-.39V358c1.37.34 2 .89 2 1.85s-.78 1.65-1.92 1.76v.54a.38.38 0 01-.39.38.39.39 0 01-.39-.38v-.56a4 4 0 01-1.85-.7.51.51 0 01-.24-.44.48.48 0 01.49-.49.51.51 0 01.3.1 3.26 3.26 0 001.33.6v-1.77c-1.31-.34-1.92-.84-1.92-1.86a1.81 1.81 0 011.89-1.72v-.18a.39.39 0 01.35-.4zm-.36 3.07v-1.6c-.57.06-.86.36-.86.76s.17.61.86.84zm.71 1.25v1.64c.58-.07.9-.35.9-.79s-.2-.64-.9-.85zm6.3-1.28a2.17 2.17 0 01.66 1.58 2.2 2.2 0 01-.66 1.58 2.23 2.23 0 01-1.58.66 2.27 2.27 0 01-1.58-.66.53.53 0 010-.72.51.51 0 01.72 0 1.23 1.23 0 001.72 0 1.17 1.17 0 00.36-.86 1.14 1.14 0 00-.36-.86 1.21 1.21 0 00-.85-.36.43.43 0 01-.37-.16.51.51 0 010-.72l.92-.94h-1.46a.51.51 0 010-1h2.66a.5.5 0 01.51.5.61.61 0 01-.06.24l-.09.13-1.14 1.17a2 2 0 01.6.42zm2.05-.3a2.18 2.18 0 014.35-.22v.51a5.45 5.45 0 01-.31 1.85 3.14 3.14 0 01-1.17 1.53 2.49 2.49 0 01-1.35.43.5.5 0 01-.52-.48.52.52 0 01.49-.52 1.67 1.67 0 00.84-.25 1.83 1.83 0 00.57-.63c0-.08.08-.16.12-.24a2.08 2.08 0 01-.87.18 2.18 2.18 0 01-2.15-2.16zm1 0a1.18 1.18 0 102.36 0 1.18 1.18 0 00-2.36 0zm5.49 2.85a.67.67 0 110 1.34.67.67 0 010-1.34zm1.26-2.85a2.19 2.19 0 014.36-.22v.51a5.23 5.23 0 01-.32 1.85 3.06 3.06 0 01-1.16 1.53 2.54 2.54 0 01-1.35.43.5.5 0 01-.52-.48.52.52 0 01.49-.52 1.67 1.67 0 00.84-.25 1.83 1.83 0 00.57-.63l.12-.24a2.12 2.12 0 01-.87.18 2.19 2.19 0 01-2.16-2.16zm1 0a1.19 1.19 0 102.37 0 1.19 1.19 0 00-2.37 0zm4.78 0a2.19 2.19 0 014.36-.22v.51a5.23 5.23 0 01-.32 1.85 3.06 3.06 0 01-1.16 1.53 2.54 2.54 0 01-1.35.43.5.5 0 01-.52-.48.51.51 0 01.48-.52 1.67 1.67 0 00.85-.25 2.05 2.05 0 00.57-.63 2.56 2.56 0 00.11-.24 2 2 0 01-.86.18 2.18 2.18 0 01-2.16-2.16zm1 0a1.19 1.19 0 102.37 0 1.19 1.19 0 00-2.37 0zm58.38-2.74a.38.38 0 01.39.39v.19a3.35 3.35 0 011.39.5.46.46 0 01.27.43.5.5 0 01-.5.5.48.48 0 01-.27-.09 3.08 3.08 0 00-.93-.39V358c1.37.34 2 .89 2 1.85s-.78 1.65-1.92 1.76v.54a.38.38 0 01-.39.38.39.39 0 01-.39-.38v-.56a4 4 0 01-1.85-.7.51.51 0 01-.24-.44.48.48 0 01.49-.49.51.51 0 01.3.1 3.26 3.26 0 001.33.6v-1.77c-1.31-.34-1.92-.84-1.92-1.86a1.81 1.81 0 011.89-1.72v-.18a.39.39 0 01.35-.4zm-.36 3.07v-1.6c-.57.06-.86.36-.86.76s.17.61.86.84zm.71 1.25v1.64c.58-.07.89-.35.89-.79s-.19-.64-.89-.85zm6.3-1.28a2.17 2.17 0 01.66 1.58 2.2 2.2 0 01-.66 1.58 2.23 2.23 0 01-1.58.66 2.27 2.27 0 01-1.58-.66.53.53 0 010-.72.51.51 0 01.72 0 1.23 1.23 0 00.86.35 1.24 1.24 0 00.86-.35 1.17 1.17 0 00.36-.86 1.14 1.14 0 00-.36-.86 1.21 1.21 0 00-.85-.36.43.43 0 01-.37-.16.51.51 0 010-.72l.92-.94h-1.46a.51.51 0 010-1h2.66a.5.5 0 01.51.5.61.61 0 01-.06.24l-.09.13-1.14 1.17a2 2 0 01.6.42zm2.04-.3a2.19 2.19 0 014.36-.22v.51a5.45 5.45 0 01-.31 1.85 3.14 3.14 0 01-1.17 1.53 2.49 2.49 0 01-1.35.43.5.5 0 01-.52-.48.52.52 0 01.49-.52 1.67 1.67 0 00.84-.25 1.83 1.83 0 00.57-.63c0-.08.08-.16.12-.24a2.08 2.08 0 01-.87.18 2.19 2.19 0 01-2.16-2.16zm1 0a1.2 1.2 0 001.19 1.19 1.19 1.19 0 10-1.19-1.19zm5.5 2.85a.67.67 0 110 1.34.67.67 0 010-1.34zm1.26-2.85a2.19 2.19 0 014.36-.22v.51a5.23 5.23 0 01-.32 1.85 3.06 3.06 0 01-1.16 1.53 2.54 2.54 0 01-1.35.43.5.5 0 01-.52-.48.51.51 0 01.48-.52 1.67 1.67 0 00.85-.25 1.94 1.94 0 00.57-.63l.12-.24a2.12 2.12 0 01-.87.18 2.19 2.19 0 01-2.16-2.16zm1 0a1.19 1.19 0 102.37 0 1.19 1.19 0 00-2.37 0zm4.78 0a2.19 2.19 0 014.36-.22v.51a5.21 5.21 0 01-.31 1.85 3.06 3.06 0 01-1.16 1.53 2.54 2.54 0 01-1.35.43.5.5 0 01-.52-.48.51.51 0 01.48-.52 1.74 1.74 0 00.85-.25 2.05 2.05 0 00.57-.63 2.56 2.56 0 00.11-.24 2.07 2.07 0 01-.86.18 2.18 2.18 0 01-2.17-2.16zm1 0a1.19 1.19 0 102.37 0 1.19 1.19 0 00-2.37 0z"/><path fill="#c7c7c7" d="M159.04 112.15h181.9v37.25h-181.9z"/><path d="M225.31 133.13a.79.79 0 011.1-.11 4.93 4.93 0 002.86 1.16 3.32 3.32 0 001.88-.55 1.37 1.37 0 00.64-1.09.86.86 0 00-.13-.48 1.59 1.59 0 00-.45-.45 6 6 0 00-2.06-.7 8.91 8.91 0 01-1.93-.58 3.23 3.23 0 01-1.4-1.18 2.31 2.31 0 01-.34-1.22 2.76 2.76 0 011.2-2.19 4.42 4.42 0 012.59-.8 5.9 5.9 0 013.27 1.2.78.78 0 01.21 1.07.76.76 0 01-1.06.22 4.37 4.37 0 00-2.42-1 2.89 2.89 0 00-1.68.51 1.21 1.21 0 00-.57 1 .71.71 0 00.11.42 1.47 1.47 0 00.4.38 5.18 5.18 0 001.88.67 8.67 8.67 0 012.07.62 3.61 3.61 0 011.5 1.25 2.47 2.47 0 01.36 1.27 2.91 2.91 0 01-1.29 2.33 4.7 4.7 0 01-2.78.85 6.42 6.42 0 01-3.84-1.5.8.8 0 01-.12-1.1zm10.34 1.78v-8.85a.81.81 0 01.82-.82.82.82 0 01.84.82v3.6h3.89v-3.6a.81.81 0 01.82-.82.82.82 0 01.84.82v8.85a.82.82 0 01-.84.83.81.81 0 01-.82-.83v-3.6h-3.89v3.6a.82.82 0 01-.84.83.81.81 0 01-.82-.83zm18.46-8.37a5.53 5.53 0 011.52 3.8 5.47 5.47 0 01-1.52 3.79 4.92 4.92 0 01-3.59 1.61 5 5 0 01-3.67-1.61 5.45 5.45 0 01-1.49-3.79 5.51 5.51 0 011.49-3.8 5 5 0 013.67-1.6 4.91 4.91 0 013.59 1.6zm-.19 3.8a3.9 3.9 0 00-1-2.63 3.25 3.25 0 00-4.8 0 3.85 3.85 0 00-1 2.63 3.76 3.76 0 001 2.61 3.21 3.21 0 004.8 0 3.81 3.81 0 001-2.61zm4.66 4.57v-8.85a.81.81 0 01.82-.82h4.91a.83.83 0 01.82.82.85.85 0 01-.82.85h-4.07v2.74h3.5a.84.84 0 01.82.83.83.83 0 01-.82.83h-3.5v2.76h4.07a.84.84 0 010 1.67h-4.86a.83.83 0 01-.87-.83zm8.56-1.78a.79.79 0 011.1-.11 4.93 4.93 0 002.86 1.16 3.32 3.32 0 001.88-.55 1.37 1.37 0 00.64-1.09.86.86 0 00-.13-.48 1.59 1.59 0 00-.45-.45 6 6 0 00-2.06-.7 8.91 8.91 0 01-1.93-.58 3.23 3.23 0 01-1.4-1.18 2.31 2.31 0 01-.34-1.22 2.76 2.76 0 011.2-2.19 4.42 4.42 0 012.59-.8 5.9 5.9 0 013.27 1.2.77.77 0 01.21 1.07.76.76 0 01-1.06.22 4.37 4.37 0 00-2.42-1 2.89 2.89 0 00-1.68.51 1.21 1.21 0 00-.57 1 .71.71 0 00.11.42 1.47 1.47 0 00.4.38 5.18 5.18 0 001.88.67 8.67 8.67 0 012.07.62 3.61 3.61 0 011.5 1.25 2.47 2.47 0 01.36 1.27 2.91 2.91 0 01-1.29 2.33 4.7 4.7 0 01-2.78.85 6.42 6.42 0 01-3.84-1.5.8.8 0 01-.12-1.1z" fill="#fff"/><path d="M233.23 212.28c-1.56.51-46.19.65-47.89-.44-.64-.41-1.24-7.74-.58-15.35l28.76.24s16.47 7.77 18.2 9.16 3.07 5.88 1.51 6.39z" fill="#455a64"/><path d="M233.89 211.3a1.1 1.1 0 01-.66 1c-1.56.51-46.19.64-47.89-.45a2.8 2.8 0 01-.43-1.38h37.73a7.77 7.77 0 012.1-4.4 6.71 6.71 0 014.18-1.78 24.62 24.62 0 012.8 1.61 7.67 7.67 0 012.18 4.57 3.34 3.34 0 01-.01.83z" fill="#fff"/><path d="M232.6 210.49c-7.47-.23-37.66-.48-45.06-.15-.06 0-.06 0 0 0 7.4.39 37.58.4 45.06.23.16.04.16-.07 0-.08zm-3.73-6.23a6 6 0 00-4.49 1.8 5.81 5.81 0 00-1.7 4h.09a6.94 6.94 0 016.1-5.68.05.05 0 000-.12zm-13.01-6.76c-3-.06-6.47 1-8.34 3.4-.08.1.06.2.15.15a41.56 41.56 0 018.24-3.18.19.19 0 00-.05-.37zm2.31.92c-3-.07-6.47 1-8.35 3.4-.07.09.06.2.15.15a41.27 41.27 0 018.25-3.18.19.19 0 00-.05-.37zm2.3.91c-3-.06-6.47 1-8.35 3.41-.07.09.07.19.16.15a41 41 0 018.24-3.19.19.19 0 00-.05-.37zm2.31.92c-3-.06-6.47 1-8.35 3.41-.07.09.06.19.15.15a41.3 41.3 0 018.25-3.19.19.19 0 00-.05-.37z" fill="#263238"/><path d="M189.49 202c-3.36 0-3.39 5.2 0 5.22s3.37-5.22 0-5.22z" fill="#fff"/><path d="M219.16 189.54c-1.51-1.27-3.43-.06-4.37 1.24a15.66 15.66 0 00-2.54 5.94c-.07.3-.12.6-.16.9 0 .13 0 .26-.05.38a.31.31 0 010 .1v.3c0 .1.05.09.1.09a.37.37 0 00.3.29.28.28 0 00.23 0c.59-.4 1.21-.8 1.83-1.2l.33-.21a16.3 16.3 0 004.09-3.42c.92-1.24 1.66-3.22.24-4.41zm-3.72 6.33c-.5.36-1 .7-1.51 1s-.87.61-1.29.93l-.15.11-.16.12.06-.17.42-1.17a26.06 26.06 0 011.23-3.06 17 17 0 011.1-2c.66-1 3.62-3.47 3.89-.21.16 1.82-2.36 3.58-3.59 4.45z" fill="#263238"/><path d="M212.66 198.24a.08.08 0 000-.12l-.18-.16-.07-.06a2.61 2.61 0 00-.31-.27 12.21 12.21 0 00-1.23-.91 15.23 15.23 0 00-5.41-2.32c-1.57-.32-3.8.09-4 2a1.41 1.41 0 000 .2c-.09 1.72 1.72 2.61 3.18 2.84a14.71 14.71 0 004.63-.14c1.08-.17 2.16-.38 3.21-.54a.37.37 0 00.18-.52zm-4.23.33c-1.51.18-4.55.61-5.66-.82a2.41 2.41 0 01-.55-1.11c-.23-1.52 2.59-1.6 3.55-1.37a16.9 16.9 0 012.23.73c.53.21 1.05.44 1.56.7.85.41 1.69.86 2.53 1.3l.16.08h-.61c-1.1.19-2.15.36-3.21.49z" fill="#263238"/><path d="M233.23 313.38c-1.56.51-46.19.64-47.89-.45-.64-.41-1.24-7.74-.58-15.34l28.76.24s16.47 7.76 18.2 9.15 3.07 5.89 1.51 6.4z" fill="#a6d453"/><path d="M232.6 311.59c-7.47-.24-37.66-.49-45.06-.16-.06 0-.06.05 0 .05 7.4.4 37.58.4 45.06.23.16 0 .16-.12 0-.12zm-3.73-6.23a6 6 0 00-4.49 1.79 5.81 5.81 0 00-1.7 4c0 .05.08.05.09 0a7 7 0 016.1-5.68v-.11zm-13.01-6.77c-3-.06-6.47 1-8.34 3.41-.08.09.06.19.15.15a41 41 0 018.24-3.19.19.19 0 00-.05-.37zm2.31.92c-3-.06-6.47 1-8.35 3.4-.07.1.06.2.15.16a41.3 41.3 0 018.25-3.19.19.19 0 00-.05-.37zm2.3.92c-3-.07-6.47 1-8.35 3.4-.07.1.07.2.16.15a41.56 41.56 0 018.24-3.18.19.19 0 00-.05-.37zm2.31.91c-3-.06-6.47 1-8.35 3.41-.07.09.06.19.15.15a41.3 41.3 0 018.25-3.19.19.19 0 00-.05-.37zm-33.29 3c-3.36 0-3.39 5.21 0 5.22s3.37-5.2 0-5.22z" fill="#263238"/><path d="M219.16 290.63c-1.51-1.27-3.43-.05-4.37 1.24a15.77 15.77 0 00-2.54 5.95c-.07.3-.12.6-.16.89 0 .13 0 .26-.05.38v.41a.08.08 0 00.1.08.37.37 0 00.3.29.28.28 0 00.23 0c.59-.4 1.21-.8 1.83-1.2l.32-.2a16.18 16.18 0 004.1-3.43c.92-1.24 1.66-3.21.24-4.41zm-3.72 6.37l-1.51 1-1.27.91-.17.13-.16.12.06-.18c.14-.39.28-.77.41-1.16a29 29 0 011.24-3.07 17 17 0 011.1-2c.66-1 3.62-3.46 3.89-.2.16 1.78-2.36 3.53-3.59 4.45z" fill="#263238"/><path d="M212.66 299.34a.08.08 0 000-.13 1.19 1.19 0 00-.18-.15.15.15 0 00-.07-.07 1.93 1.93 0 00-.31-.27 10.54 10.54 0 00-1.21-.9 15.63 15.63 0 00-5.43-2.33c-1.57-.32-3.8.09-4 2a1.48 1.48 0 000 .21c-.08 1.71 1.72 2.6 3.18 2.84a15.15 15.15 0 004.65-.15c1.07-.17 2.14-.38 3.19-.54a.36.36 0 00.18-.51zm-4.23.32c-1.51.19-4.55.61-5.66-.81a2.41 2.41 0 01-.55-1.11c-.23-1.52 2.59-1.6 3.55-1.37a16.85 16.85 0 012.18.72c.54.21 1.06.45 1.58.71.85.41 1.67.86 2.51 1.29l.16.08h-.61c-1.05.19-2.1.36-3.16.49z" fill="#263238"/><path d="M314.84 212.28c-1.56.51-46.19.65-47.89-.44-.64-.41-1.25-15.36-.58-23l28.76.24s.2 7.71.55 7.87c2.86 1.36 16.11 7.66 17.65 8.9 1.72 1.43 3.07 5.92 1.51 6.43z" fill="#a6d453"/><path d="M314.21 210.49c-7.48-.23-37.66-.48-45.07-.15-.06 0-.06 0 0 0 7.41.4 37.59.4 45.07.23.16.04.16-.07 0-.08zm-3.73-6.23a6 6 0 00-4.49 1.8 5.81 5.81 0 00-1.7 4s.08.05.09 0a6.94 6.94 0 016.1-5.68.05.05 0 000-.12zm-13.01-6.76c-3-.06-6.47 1-8.35 3.4-.07.1.07.2.16.16a41 41 0 018.24-3.19.19.19 0 00-.05-.37zm2.31.92c-3-.07-6.47 1-8.35 3.4-.07.1.06.2.15.15a41.88 41.88 0 018.25-3.18.19.19 0 00-.05-.37zm2.3.92c-3-.07-6.47 1-8.35 3.4-.07.09.07.2.15.15a41.3 41.3 0 018.25-3.19.18.18 0 00-.05-.36zm2.31.91c-3-.06-6.47 1-8.35 3.41-.08.09.06.19.15.15a41 41 0 018.24-3.19.19.19 0 00-.04-.37zm-33.29-8.57c-3.36 0-3.39 5.21 0 5.22s3.36-5.2 0-5.22z" fill="#263238"/><path d="M300.76 189.54c-1.5-1.27-3.42-.06-4.36 1.24a13.36 13.36 0 00-1.15 1.92 16.07 16.07 0 00-1.54 4.92 2.58 2.58 0 000 .39.12.12 0 000 .1v.31a.08.08 0 00.1.08.39.39 0 00.3.29.28.28 0 00.23 0c.59-.4 1.21-.8 1.83-1.2l.33-.21a16.43 16.43 0 004.08-3.42c.87-1.25 1.61-3.23.18-4.42zm-3.71 6.33l-1.44 1c-.46.32-.92.64-1.36 1l-.15.11-.16.12.06-.17c.43-1.18.82-2.38 1.34-3.53.09-.23.2-.46.31-.69a17 17 0 011.1-2c.66-1 3.62-3.47 3.89-.21.16 1.74-2.36 3.5-3.59 4.37z" fill="#263238"/><path d="M294.27 198.25a.09.09 0 000-.13l-.18-.16-.06-.06-.3-.26a15.82 15.82 0 00-6.65-3.23c-1.57-.32-3.8.09-4.05 2s1.65 2.8 3.17 3a14.71 14.71 0 004.63-.14c1.08-.17 2.16-.38 3.21-.54a.37.37 0 00.23-.48zm-4.24.32c-1.5.19-4.54.61-5.65-.81-2-2.59 1.85-2.77 3-2.49a16.9 16.9 0 012.18.73 42 42 0 014.1 2l.15.08h-.61c-1.05.19-2.1.36-3.2.49z" fill="#263238"/><path d="M233.23 414.53c-1.56.51-46.19.64-47.89-.45-.64-.41-1.24-15.35-.58-22.95l28.76.24s.2 7.7.55 7.87c2.86 1.35 16.11 7.65 17.65 8.89 1.72 1.4 3.07 5.87 1.51 6.4z" fill="#455a64"/><path d="M232.6 412.74c-7.47-.24-37.66-.49-45.06-.15-.06 0-.06 0 0 0 7.4.4 37.58.41 45.06.23.16.04.16-.08 0-.08zm-3.73-6.23a6 6 0 00-4.49 1.79 5.81 5.81 0 00-1.7 4c0 .05.08.05.09 0a7 7 0 016.1-5.68v-.11zm-14.3-12.34c-2.75-1.18-6.37-1.52-9 0-.1.07 0 .21.09.2a41.48 41.48 0 018.84.12.19.19 0 00.07-.32zm.29 2.38c-2.75-1.18-6.36-1.51-9 .05-.11.06 0 .2.08.19a41.48 41.48 0 018.84.12.19.19 0 00.08-.36zm.29 2.38c-2.75-1.18-6.36-1.51-9 .05-.11.06 0 .2.08.19a41.48 41.48 0 018.84.12.19.19 0 00.08-.36zm-24.44-7.44c.15 1.58.23 3.17.29 4.75s.07 3.18.08 4.76 0 3.17-.08 4.76-.14 3.17-.29 4.76c-.16-1.59-.23-3.17-.29-4.76s-.08-3.17-.09-4.76 0-3.17.09-4.76.13-3.17.29-4.75z" fill="#263238"/><path d="M314.84 414.53c-1.56.51-46.19.64-47.89-.45-.64-.41-1.25-26-.58-33.65l28.76.24s.2 18.4.55 18.57c2.86 1.35 16.11 7.65 17.65 8.89 1.72 1.4 3.07 5.87 1.51 6.4z" fill="#a6d453"/><path d="M314.21 412.74c-7.48-.24-37.66-.49-45.07-.15-.06 0-.06 0 0 0 7.41.4 37.59.41 45.07.23.16.04.16-.08 0-.08zm-3.73-6.23a6 6 0 00-4.48 1.79 5.81 5.81 0 00-1.7 4c0 .05.08.05.09 0a7 7 0 016.1-5.68s.05-.11-.01-.11zm-14.37-12.21c-2.72-1.25-6.32-1.69-9-.21-.11.06 0 .2.08.2a41.43 41.43 0 018.83.37.19.19 0 00.09-.36zm.22 2.39c-2.71-1.25-6.32-1.69-9-.21-.1.06 0 .2.08.2a40.78 40.78 0 018.83.37.19.19 0 00.09-.36zm-.42-4.78c-2.72-1.25-6.32-1.69-9-.21-.1.06 0 .21.08.2a41.52 41.52 0 018.84.37.19.19 0 00.08-.36zm-.22-2.39c-2.71-1.25-6.32-1.69-9-.21-.1.06 0 .21.08.2a42.09 42.09 0 018.83.37.19.19 0 00.09-.36zm-.21-2.38c-2.72-1.26-6.32-1.7-9-.22-.11.06 0 .21.08.2a42.09 42.09 0 018.83.37.18.18 0 00.09-.35zm-.21-2.39c-2.72-1.25-6.32-1.7-9-.21-.1 0 0 .2.08.2a40.87 40.87 0 018.84.37.19.19 0 00.08-.36zm1.29 14.33c-2.72-1.25-6.32-1.7-9-.21-.1.05 0 .2.08.2a40.78 40.78 0 018.83.37.19.19 0 00.09-.36zm-24.24-18.6c.15 2.51.23 5 .29 7.51s.05 5 .08 7.51 0 5-.08 7.51-.14 5-.29 7.51c-.16-2.51-.23-5-.29-7.51s-.06-5-.09-7.51 0-5 .09-7.51.13-4.99.29-7.51zm67.99-251.05l-.4.1a.24.24 0 01.07-.12z" fill="#263238"/><path d="M351.82 418.33h-.18v-.13z" fill="#f7a9a0"/><path fill="#dbdbdb" d="M348 349.74l-2.37 14.23-16.07 86.81h-2.6l11.69-86.81 1.73-14.23H348z"/><path fill="#a6a6a6" d="M340.38 349.74H348l-2.37 14.23h-6.98l1.73-14.23z"/><path fill="#dbdbdb" d="M398.49 450.78h-2.59l-16.08-86.81-2.37-14.23h7.62l1.73 14.23 11.69 86.81z"/><path fill="#a6a6a6" d="M385.07 349.74l1.73 14.23h-6.98l-2.37-14.23h7.62z"/><path fill="#dbdbdb" d="M446.71 450.78h-2.59l-16.08-86.81-2.37-14.23h7.62l1.73 14.23 11.69 86.81z"/><path fill="#a6a6a6" d="M435.02 363.97h-6.98l-2.37-14.23h7.62l1.73 14.23z"/><path fill="#dbdbdb" d="M442.6 356.42H324.8v-12.41h44.1l14.82-64.65h54.39l4.49 77.06z"/><path fill="#a6a6a6" d="M442.6 356.42h-6.42l-4.19-77.06h6.12l4.49 77.06z"/><path d="M323.41 460.88c2.22.28 62.88-13.87 64.85-15.78.24-.21-1.9-11.94-1.9-11.94-.95-4.79-17.48-43.83-17.48-43.83l-39.65 9.79L346 435.37s-7.56 5.12-14 10a88.19 88.19 0 00-8.22 6.57c-1.96 2.33-2.59 8.68-.37 8.94z" fill="#f7a9a0"/><path d="M388.26 445.1c-2 1.91-62.63 16.06-64.85 15.78s-1.59-6.61.33-8.92a88.19 88.19 0 018.22-6.57c6.49-4.88 14-10 14-10l-3.74-8.08 38.42-9.36c2.91 7.25 5.3 13.49 5.65 15.23.07-.02 2.21 11.71 1.97 11.92z" fill="#ebebeb"/><path d="M323.24 461.06c2.3.24 63.44-13.47 65.43-15.47.77-.74-.71-9.76-2.81-20.6 0-.11-.05-.22-.07-.33l-39.54 8.4.16.66s-21.05 15.7-23 18.13-2.47 8.98-.17 9.21z" fill="#a6d453"/><path d="M323.4 458.53c10.25-2.56 51.83-11.93 62.16-13.69.08 0 .1.05 0 .07-10.1 2.76-51.76 11.79-62.13 13.79-.21.04-.25-.11-.03-.17zm18.48-24.38c3.89-1.66 9-2.15 12.73 0 .15.08 0 .29-.11.28a58 58 0 00-12.49.19.27.27 0 01-.13-.47zm-2.53 2.42c3.89-1.66 9-2.15 12.73 0 .15.08 0 .29-.12.27a58.52 58.52 0 00-12.48.2.27.27 0 01-.13-.47zm-2.53 2.43c3.88-1.67 9-2.16 12.73 0 .15.08 0 .28-.12.27a58.52 58.52 0 00-12.48.2.27.27 0 01-.13-.47z" fill="#263238"/><path d="M337.74 431.86c3.36 1.59 7.3 1.66 10.93 2.15a.51.51 0 00.52-.65.12.12 0 00.07-.17 22.3 22.3 0 00-8.34-7.88c-2-1-5.2-1.36-6.3 1.19s1.15 4.44 3.12 5.36zm-1.77-3c-1.71-4.28 3.59-3 5-2.19a23.41 23.41 0 012.67 1.84 64.11 64.11 0 015 4.49c-1.77-.35-3.55-.54-5.33-.83-2.11-.36-6.39-.97-7.31-3.34z" fill="#263238"/><path d="M361.41 424c-1.55-2.31-4.63-1.41-6.42 0a22.19 22.19 0 00-6.75 9.26.11.11 0 00.09.15c0 .32.28.66.64.55 3.47-1.15 7.33-1.93 10.36-4.11 1.76-1.29 3.54-3.68 2.08-5.85zm-7.53 7.13c-1.69.6-3.41 1.12-5.08 1.78 1.32-1.8 2.56-3.65 4.06-5.32a23.57 23.57 0 012.29-2.29c1.28-1.08 6.26-3.29 5.36 1.24-.51 2.46-4.6 3.86-6.63 4.58z" fill="#263238"/><path d="M341.07 457.54c-9.61 2.1-17.06 3.6-17.83 3.52-2.3-.23-1.79-6.79.16-9.21a87.51 87.51 0 018-6.7z" opacity=".2"/><path d="M343.39 434l42.09-9.92s-35.13-80.51-32-84.6c1.54-2.05 40.73-2.65 53.19-13.21 16.19-13.71 5.33-34.67 5.33-34.67l-43.77-1.3s.53 9.14-1.18 10.52c-1.12.92-53.27 5.3-59 22.87C301 345.27 343.39 434 343.39 434z" fill="#37474f"/><path d="M343.4 427.52c1.1-.52 12-3.71 14.45-4.34 4.92-1.26 9.86-2.49 14.82-3.62 2.58-.59 8.12-1.88 8.46-1.82.16 0 .19.31 0 .35-4.8 1.59-9.67 2.93-14.54 4.28s-21.64 5.4-23.11 5.49c-.1.01-.24-.26-.08-.34zm2.6-91.63a6.55 6.55 0 013.3-1l18.95-3.18c5.92-1 11.86-1.87 17.74-3 4.87-.93 9.83-2.2 14-4.84a20.37 20.37 0 008.61-11.26 36.17 36.17 0 001.11-14.42c-.11-1.18-.33-2.35-.55-3.51 0-.09.13-.12.15 0 1.6 9 1.74 19.37-5 26.51-3.31 3.41-7.77 5.46-12.31 6.81a140.73 140.73 0 01-15.92 3.1l-18.95 3.16c-3 .5-6.13.9-9.14 1.53a3.07 3.07 0 00-1.65.73 2.36 2.36 0 00-.27 2.19c.31 1.48.71 2.95 1.13 4.41 3.45 11.77 28.91 71.81 29.59 73.1.08.13-.14.24-.21.11-5.8-10.33-24.85-57.58-28.68-68.71a72.47 72.47 0 01-2.48-8.66c-.27-1.09-.42-2.28.58-3.07z" fill="#263238"/><path d="M260.81 463.53c2.12.72 62.83-.14 65.14-1.62 2.53-2.4 3.6-59.67 3.6-59.67l-39.05-.33-2.44 41.09s-8.43 3.51-15.77 7a87.72 87.72 0 00-9.37 4.81c-2.36 1.93-4.23 8.03-2.11 8.72z" fill="#f7a9a0"/><path d="M328.49 436.11c-.58 12.87-1.41 24.74-2.54 25.8-2.31 1.48-63 2.34-65.14 1.62s-.25-6.79 2.1-8.67a87.72 87.72 0 019.37-4.81c7.34-3.49 15.77-7 15.77-7l.41-6.92z" fill="#ebebeb"/><path d="M259.56 463.58c2.2.72 64.86.42 67.24-1.1.91-.57 1.4-9.69 1.67-20.73v-.34l-40.43-.26v.69s-23.94 10.83-26.38 12.78-4.29 8.24-2.1 8.96z" fill="#a6d453"/><path d="M260.26 461.15c10.56-.31 53.19-.57 63.66-.07.08 0 .08.06 0 .06-10.47.54-53.09.45-63.66.18-.26-.01-.26-.17 0-.17zm23.29-19.86c4.15-.8 9.24-.18 12.43 2.76.12.11 0 .29-.18.24a58.59 58.59 0 00-12.23-2.48.26.26 0 01-.02-.52zm-2.99 1.82c4.15-.8 9.24-.18 12.43 2.76.12.11 0 .29-.18.24a58.56 58.56 0 00-12.24-2.48.26.26 0 01-.01-.52zm-3 1.82c4.16-.8 9.24-.18 12.43 2.76.13.11 0 .29-.17.24a58.56 58.56 0 00-12.24-2.48.26.26 0 01-.02-.52z" fill="#263238"/><path d="M280 438.16c2.95 2.27 6.78 3.19 10.22 4.44a.52.52 0 00.65-.52.11.11 0 00.1-.15 22.17 22.17 0 00-6.45-9.48c-1.74-1.45-4.79-2.44-6.41-.19s.16 4.58 1.89 5.9zm-1.07-3.33c-.76-4.55 4.15-2.18 5.39-1.07a23.58 23.58 0 012.21 2.37 66.65 66.65 0 013.89 5.45c-1.65-.72-3.35-1.29-5-1.94-2.03-.79-6.09-2.3-6.5-4.81z" fill="#263238"/><path d="M304.8 435.54c-1-2.59-4.21-2.37-6.26-1.39a22.15 22.15 0 00-8.58 7.6.11.11 0 00.06.17.51.51 0 00.5.66c3.64-.37 7.58-.31 11-1.79 1.99-.86 4.25-2.79 3.28-5.25zm-8.88 5.35c-1.78.23-3.57.37-5.35.66 1.68-1.48 3.29-3 5.11-4.33a23 23 0 012.73-1.75c1.48-.78 6.82-1.87 5 2.35-1.05 2.33-5.36 2.81-7.49 3.07z" fill="#263238"/><path d="M285.89 441.62h44.05s-.56-79.47 2.89-83.88c4.6-5.88 69-5.74 82.81-24.91 12.4-17.21 1.93-41.58 1.93-41.58l-48.76-1.44a100.06 100.06 0 004.52 15.33S314.58 316 298.12 334c-11.12 12.13-12.23 107.62-12.23 107.62z" fill="#37474f"/><path d="M364.75 301.83a22.31 22.31 0 014.13 1.32c1.4.53 2.78 1.14 4.13 1.79a83.4 83.4 0 017.71 4.36c.08.05 0 .16-.07.12-2.64-1.37-5.37-2.6-8.1-3.78l-3.94-1.64a42.91 42.91 0 01-4-1.76c-.15-.14-.05-.45.14-.41z" fill="#263238"/><path d="M367.67 289.8c.56 2.23 1.05 4.47 1.69 6.67.29 1 .58 2 1 3 .32.83.81 1.77 1.77 2 1.11.21 1.42-.73 1.33-1.65s-.36-2-.56-3c-.23-1.16-.47-2.31-.68-3.47-.1-.58-.21-1.16-.31-1.74 0-.14-.13-1.25-.21-1.57 0 0 0 .05-.06.05a.07.07 0 01-.07-.06.13.13 0 01.06-.16.08.08 0 01.1 0c.21.11.22.4.29.62.18.56.37 1.12.53 1.69.31 1.06.61 2.12.88 3.19s.53 2.15.8 3.22a5.06 5.06 0 01.21 2.47 1.89 1.89 0 01-1.75 1.42 1.55 1.55 0 01.12.22c.1.22.17.45.25.67s.16.46.23.7a2 2 0 01.06.34v.39c0 .13-.25.32-.35.12s-.14-.2-.21-.31-.11-.25-.16-.37-.14-.45-.19-.68-.13-.45-.17-.67 0-.28 0-.41a2.56 2.56 0 01-1.28-.49 4.2 4.2 0 01-1.33-2c-.34-.93-.6-1.89-.86-2.83a41.73 41.73 0 01-1.42-7.17c-.13-.35.23-.45.29-.19zm29 5.45c.21 1.1.33 2.21.59 3.31s.54 2.14.89 3.18a11.21 11.21 0 001.36 2.86 10.48 10.48 0 002.16 2.2 18.63 18.63 0 005.23 2.91 24.65 24.65 0 002.9.85c.51.11 1 .2 1.55.27a3.27 3.27 0 011.25.29.25.25 0 010 .43 4.4 4.4 0 01-2.31.07 16 16 0 01-2.47-.43 17.93 17.93 0 01-4.67-2 14.83 14.83 0 01-3.9-3.19 11.08 11.08 0 01-2.09-4.57 22.42 22.42 0 01-.68-6.21.11.11 0 01.19.03z" fill="#263238"/><path d="M323.6 386.5q.64-10.37 1.72-20.71c.18-1.7.35-3.4.56-5.1a15.49 15.49 0 01.86-3.87c1-2.59 3.17-3.9 5.78-4.56 3.08-.78 6.27-1.24 9.4-1.75s6.42-1 9.64-1.43c6.51-.91 13-1.74 19.51-2.83a156.36 156.36 0 0019.15-4.31c5.76-1.74 11.67-3.89 16.28-7.88 9.93-8.59 10.29-23 9.08-35-.17-1.7-.38-3.4-.59-5.1 0-.09.13-.12.14 0 .79 6.79 1.7 13.61 1 20.45a33.39 33.39 0 01-5.42 15.83c-3.36 4.81-8.34 7.92-13.71 10.09a108.1 108.1 0 01-18.27 5.26c-12.87 2.69-26 3.83-38.95 6.05-1.6.27-3.19.56-4.78.87a19.54 19.54 0 00-4.32 1.15c-2.94 1.32-3.75 4.18-4.11 7.13-.85 6.86-1.42 13.77-1.92 20.66-1 13.9-1.53 27.86-1.51 41.8v9.22c0 .15-.23.14-.23 0-.37-14.03-.19-32.04.69-45.97zM288 434.72c10.05-.69 38.66-.41 39-.27a.2.2 0 010 .36c-5.05.36-37.46.53-38.91.26-.25-.07-.31-.34-.09-.35zm85-129.43a164.3 164.3 0 00-26.6 5.45 185.41 185.41 0 00-25.65 9.26c-4.67 2.1-9.18 4.44-13.66 6.9-.09.05 0 .18.08.13a209.39 209.39 0 0125-10.89 200.68 200.68 0 0126-7.53c5-1.08 10-1.92 15-2.76.28-.03.19-.6-.17-.56z" fill="#263238"/><path d="M330.12 375.53c.31-4.79.81-9.57 1.59-14.3.32-1.92.41-4.39 2.41-5.34.93-.44 19.6-3.68 22.27-3.63a.12.12 0 01.06.23c-.24.11-18 3.47-20.23 4a3.57 3.57 0 00-2.5 1.29 9.22 9.22 0 00-.75 3.07 197.41 197.41 0 00-2.48 28.1c-.07 2.6-.11 5.21-.13 7.81s.09 5.38-.11 8.05a.22.22 0 01-.44 0c-.2-2.43-.13-4.89-.14-7.33s0-4.88 0-7.32c.01-4.89.13-9.77.45-14.63z" fill="#263238"/><path d="M331.27 214.39l10.85 26.69a1 1 0 01-.7 1.6l-14.28 2a2.33 2.33 0 01-2.18-1.19L314.1 216.8a1 1 0 01.71-1.6l14.27-2a2.34 2.34 0 012.19 1.19z" fill="#37474f"/><path d="M329.57 214.62l10.85 26.68c.41.77.1 1.49-.7 1.6l-14.27 2a2.32 2.32 0 01-2.19-1.19L312.41 217c-.41-.77-.1-1.49.7-1.6l14.27-2a2.35 2.35 0 012.19 1.22z" fill="#455a64"/><path d="M325.83 216.43a1.23 1.23 0 101-1.41 1.24 1.24 0 00-1 1.41z" fill="#263238"/><path d="M383.16 249.82c-5.5 18.38-20.28 43.4-27.76 44.62-3.56.58-9.8 2.38-15.09-1-11.54-7.42-22.63-23.24-25.84-32.77-1.14-3.39 14.68-13.46 17.6-11 6.85 5.76 15.6 17.77 16.63 17.54 3.79-.87 16.92-15.6 26.08-26 11.11-12.54 10.57 1.28 8.38 8.61zm-71.79-7.09c.73-7.33 2.05-9.1-.62-15.63-1.75-4.28.23-7.23 3.91-4.14 6 5.06 7.06 14.73 6.46 18.18z" fill="#f7a9a0"/><path d="M315.75 263.57s-4.62-9.38-4.61-17.27c0-5.46 1.35-17.34 15.39-25.6 3.34-2 9.47-2.39 5.19 2.79-3 3.67-6.07 5.09-7.45 7.55 0 0 7.87.38 9.7 3.79a70.89 70.89 0 014.15 9.27 15.47 15.47 0 01-1.66.93s1.62 3.25-.19 8.47z" fill="#f7a9a0"/><path d="M312 241.09c1.88-2.16 5.95-6.65 10.56-9.17 5.12-2.8 15.74-6.81 17.77-3 1.49 2.78-2.43 4.67-2.43 4.67s4.73-.73 5.53 2.08c.72 2.56-2.4 3.84-2.4 3.84s2.95.05 3.17 2.65c.26 3.13-6 2.51-8.43 5.92-.58.75-23.77-6.99-23.77-6.99z" fill="#f7a9a0"/><path d="M324.6 237.82a23.2 23.2 0 0113.17-4.3c.12 0 .19.09.08.11a56.91 56.91 0 00-13.22 4.24l-.03-.05zm2.97 5.09A26.11 26.11 0 01341 239.4c.12 0 .18.1.07.12A60.66 60.66 0 00327.6 243s-.05-.08-.03-.09z" fill="#263238"/><path d="M315.38 267.86s18 25.32 26.54 27.28 13.27.53 16.2-.37a8.05 8.05 0 002.94-2c7.27-7 18.74-29.74 22.92-42.17 3.14-9.34 1.46-17.12-4.88-13.58a22.84 22.84 0 00-5.61 4.89c-10.8 12.21-23.67 24.23-24.4 24s-9.54-10.44-9.54-10.44z" fill="#a6d453"/><path d="M315.38 267.86s18 25.32 26.54 27.28 13.27.53 16.2-.37a8.05 8.05 0 002.94-2c7.27-7 18.74-29.74 22.92-42.17 3.14-9.34 1.46-17.12-4.88-13.58a22.84 22.84 0 00-5.61 4.89c-10.8 12.21-23.67 24.23-24.4 24s-9.54-10.44-9.54-10.44z" opacity=".2"/><path d="M319.57 272.33c.84-.65 9-5.34 10.84-6.32s9.13-5.06 11.07-5.92a.07.07 0 11.07.13c-1.74 1.2-9.12 5.34-10.94 6.37s-10 5.5-11 5.87c-.07.03-.1-.08-.04-.13z" fill="#263238"/><path d="M363.34 301.48c1.29 1.43 59.78 11.71 60.1 11.34.86-1-6.26-57.09-28.52-77.8-3.92-3.65-11-2.73-14.24-.93-1.64.9-7.3 8.86-9 15.84s-9.14 50.64-8.34 51.55z" fill="#a6d453"/><path d="M412.58 264.67L369.29 262c.19-1.06.37-2.07.55-3l41.53 2.59a60 60 0 011.21 3.08zm2.21 6.33l-46.58-2.92c.19-1 .36-2.05.54-3l45 2.82c.35.97.7 2.02 1.04 3.1z" fill="#37474f"/><path d="M398.84 236.38c19.84 10.07 42.61 32.81 41.28 40.37-1.49 8.43-30-5.81-29.71-7.07.25-1.08-5.74-10.13-14.3-23.1-8.71-13.19-2.18-12.69 2.73-10.2z" fill="#a6d453"/><path d="M398.84 236.38c19.84 10.07 42.61 32.81 41.28 40.37-1.49 8.43-30-5.81-29.71-7.07.25-1.08-5.74-10.13-14.3-23.1-8.71-13.19-2.18-12.69 2.73-10.2z" opacity=".2"/><path d="M440.12 276.75c-1.74 5.89-10.52 9.83-31.68 21.84-2.93 1.66-20.22-15.86-17.18-17.79 3.83-2.44 19.2-11.07 20.4-11.56 10.15-4.12 29.64 3.52 28.46 7.51z" fill="#f7a9a0"/><path d="M395.45 278.25s-9.11 4.66-13.14 8.58a36.21 36.21 0 00-8.77 14.92c-1.82 6.05-2.05 21.93 2.52 22.79 4.12.79 3.54-15.46 3.54-15.46s-2.14 16.66 3 16.69S386 307 386 307s-1.81 17.17 3.5 16.35c4-.61 3.39-17.74 3.39-17.74s-1.45 14.76 2.7 14.31c4.59-.5 5-16.35 5-16.35 10.37-2.93 14.11-8.57 16.29-12.89.53-1.07-21.43-12.43-21.43-12.43z" fill="#f7a9a0"/><path d="M380 303.27c-.32 2-.66 3.92-.81 5.89s-.23 3.95-.19 5.92a34 34 0 00.87 7.67c-.7-4.54-.29-11.6-.14-13.57s.2-3.94.34-5.91c-.02-.05-.07-.05-.07 0zm7.09.4c-.3 2.51-.69 5-.89 7.5s-.15 4.91-.17 7.42c0 .19.1.13.11-.06.12-2.51.43-4.83.57-7.34s.2-5 .44-7.51l-.06-.01zm6.18-.75a56 56 0 00-.48 11.57c0 .19.13.1.13-.1.09-3.85.13-6.87.48-11.45 0-.07-.12-.1-.13-.02z" fill="#263238"/><path d="M390.9 278.75s24.38 18.57 24.64 18.47 24.2-14.15 24.58-20.47-19.44-11-28.44-7.55-20.78 9.55-20.78 9.55z" fill="#a6d453"/><path d="M390.9 278.75s24.38 18.57 24.64 18.47 24.2-14.15 24.58-20.47-19.44-11-28.44-7.55-20.78 9.55-20.78 9.55z" opacity=".2"/><path d="M399.16 276.06c.95.58 8.65 6.78 10.29 8.16s8.42 7 10 8.54a.08.08 0 01-.1.12c-1.83-1.24-8.68-6.86-10.38-8.24s-9.18-7.67-9.9-8.47c-.07-.07.03-.17.09-.11zm23.36-7.8c-2.09-.33-7.85-.81-12.52 1.53-.05 0 0 .09 0 .07a38.59 38.59 0 0112.47-1.53c.08.01.1-.06.05-.07z" fill="#263238"/><path d="M378.53 234.94c-2.48 2.21-3.39 9.56 1.38 11s11.36-6.31 12.13-10.53-8.04-5.41-13.51-.47z" fill="#37474f"/><path d="M379.92 244c3.41.75 9.14-4.53 11.37-8.76.16-.29-1.23-11.78-1.27-14.09 0-.47-14.42 3.76-14.42 3.76a37.05 37.05 0 011.55 8.82c0 .38-.52 9.59 2.77 10.27z" fill="#f7a9a0"/><path d="M389.57 221.19c-.67 3.73-3.16 13.43-11 13.75a9.16 9.16 0 01-1.41-.06v-1.11a37.05 37.05 0 00-1.56-8.77l.24-.07c.1 0 .24-.07.4-.12l.16-.05.32-.09.4-.12.67-.19.25-.07.52-.15 2-.58.78-.22 1-.28 1-.27h.13l1.68-.46.56-.15 1.07-.28.72-.18 1.41-.33.31-.06z" fill="#263238"/><path d="M389.67 203.44c2.25 4.87 1.58 19.91-1.59 23.68-4.59 5.46-13.11 7.09-18 1.35-4.75-5.56-3.54-25.15.09-28.68 5.34-5.2 16.17-3.54 19.5 3.65z" fill="#f7a9a0"/><path d="M376.3 214.33s.08 0 .07.09c-.07 1 0 2.18.92 2.56v.05c-1.12-.2-1.22-1.76-.99-2.7z" fill="#263238"/><path d="M377.25 213.31c1.63-.06 1.63 3.21.11 3.26s-1.49-3.21-.11-3.26zm-6.56 1.17s-.08.05-.08.09c0 1-.1 2.18-1 2.52 0 0 0 .06 0 0 1.11-.09 1.27-1.66 1.08-2.61z" fill="#263238"/><path d="M369.78 213.42c-1.63-.12-1.76 3.15-.25 3.26s1.62-3.16.25-3.26zm8.76-1.61a11.26 11.26 0 01-1.27-.45 2.22 2.22 0 01-1.21-.7.7.7 0 01.11-.84 1.77 1.77 0 011.74-.18 2.54 2.54 0 011.45 1.1.74.74 0 01-.82 1.07zm-10.02 1.06c.45-.08.86-.22 1.3-.34a2.11 2.11 0 001.26-.6.68.68 0 000-.84 1.7 1.7 0 00-1.71-.32 2.5 2.5 0 00-1.54 1 .74.74 0 00.69 1.1zm8.98 10.86c-.24.23-.48.56-.85.59a2.75 2.75 0 01-1.09-.25l-.05.05a1.38 1.38 0 001.29.55 1.08 1.08 0 00.8-.9c.02-.06-.06-.08-.1-.04z" fill="#263238"/><path d="M376.44 220.69a3.5 3.5 0 01-2.31 1.54 4.34 4.34 0 01-1.25.05h-.46a.26.26 0 01-.2-.23.41.41 0 010-.11v-.09c0-.78.06-2 .06-2-.29.14-1.74.8-1.72.39a52.11 52.11 0 011.34-10.45c0-.11.2-.09.19 0-.07 3.26-.71 6.48-.83 9.74a6.3 6.3 0 011.64-.49c.11 0-.19 2.29-.15 2.64a4.78 4.78 0 003.58-1.11c.09-.03.17.04.11.12z" fill="#263238"/><path d="M373.35 221.89a4.11 4.11 0 001.64 1.27 1.93 1.93 0 001.12.07c.81-.21.83-1 .68-1.59a4.42 4.42 0 00-.36-1 5.34 5.34 0 01-3.08 1.25z" fill="#263238"/><path d="M375 223.16a1.93 1.93 0 001.12.07c.81-.21.83-1 .68-1.59a1.9 1.9 0 00-1.8 1.52z" fill="#ff99ba"/><path d="M368.33 205.88c5.31 3.33 12.15-2.31 12.15-2.31a5.63 5.63 0 005.84 3.32s1.37 8.68 3.67 8.57c3.51-.17 4.11-12.11 2.91-14.4s-4.21-2.77-4.21-2.77a5.69 5.69 0 00-2.53-3.37c-2.47-1.74-10.64 1.07-10.64 1.07a7.65 7.65 0 00-2.23-2.77 2.19 2.19 0 00-3.12.41 5.15 5.15 0 01.93 2.12c.52 2.54-1.57 2.62-1.64.3a3.62 3.62 0 01.71-2.42c-1.09-1.47-2.79-1.89-3.78-1-1.8 1.51-2.47 10.49 1.94 13.25z" fill="#263238"/><path d="M388.17 215.83s2.78-5.15 5.08-4.21.6 8.12-1.83 9.36a2.6 2.6 0 01-3.62-1z" fill="#f7a9a0"/><path d="M392.71 213.66v.07c-1.7.93-2.44 2.69-2.9 4.47a1.45 1.45 0 012.09-.64.05.05 0 010 .1 1.61 1.61 0 00-1.68.76 7.31 7.31 0 00-.67 1.51c-.06.17-.36.12-.32-.07v-.05c-.32-2.26 1.07-5.63 3.48-6.15z" fill="#263238"/><path d="M101.37 375.86c6.35-13.05 17.46-19.75 30-16.05s14.46 21.16 5.11 25.57-18.69-8.46-23.63-11.11-11.48 1.59-11.48 1.59z" fill="#a6d453"/><path d="M95.23 410.6c0-1.58.09-3.15.15-4.72.11-3.14.21-6.28.33-9.42.21-5.75.83-11.39 3.21-16.69a25.93 25.93 0 0110.08-11.6 21.21 21.21 0 015.3-2.29 12.43 12.43 0 016.18-3.39 25.07 25.07 0 018.81-.22c.1 0 .1.18 0 .16a21.1 21.1 0 00-8.33.6 15.09 15.09 0 00-5.3 2.53 17.2 17.2 0 0110.31.95 7.73 7.73 0 012.08-.17 12.47 12.47 0 012.72.38 20.71 20.71 0 015.13 2.28.08.08 0 01-.09.14 19.58 19.58 0 00-5-1.89 17.26 17.26 0 00-2.58-.38 13.83 13.83 0 00-1.44 0 16.64 16.64 0 018.1 8.07c0 .1-.1.18-.15.08a15.23 15.23 0 00-10.32-8.27c-.27-.07-.55-.11-.83-.16a11 11 0 01.13 1.26c.08.64.19 1.27.32 1.89a31.14 31.14 0 001 3.82 27.78 27.78 0 001.52 3.71 17.56 17.56 0 002.11 3.57c.08.09-.07.2-.13.1-.75-1.18-1.63-2.26-2.31-3.49a25.63 25.63 0 01-1.7-3.64 24.52 24.52 0 01-1.12-3.91q-.21-1.06-.33-2.13a5.06 5.06 0 01-.08-1.29 16.92 16.92 0 00-4.44-.09c.55 3.11 1.15 6.35 2.89 9.06.06.09-.09.17-.14.08a35.71 35.71 0 01-2.15-4.45 16.85 16.85 0 01-1.08-4.64 20.48 20.48 0 00-7.35 2.46 24.39 24.39 0 00-9.79 10.71 40.28 40.28 0 00-3.62 15.35c-.42 6.67-.51 13.38-1.17 20 0 .44-.74.58-.82.09a23.73 23.73 0 01-.1-4.45zm14.67-43.48a7.3 7.3 0 011.44-1.33c.52-.43 1.06-.85 1.62-1.23a12.05 12.05 0 013.6-1.67.08.08 0 110 .16 9.64 9.64 0 00-3.56 1.75c-.53.39-1 .81-1.53 1.24a9.58 9.58 0 01-1.46 1.24.12.12 0 01-.11-.16z" fill="#263238"/><path d="M130.17 371.85a38.86 38.86 0 012.91 3.85 23.08 23.08 0 012.16 4.3s-.05.07-.07 0a51.58 51.58 0 00-5.12-8.06c-.05-.06.05-.17.12-.09zm-13.66-1.29a9.31 9.31 0 00.71 2.36 16 16 0 001.21 2.09c0 .05 0 .09-.07.06a8.46 8.46 0 01-2-4.47c-.03-.1.13-.15.15-.04z" fill="#263238"/><path d="M96.11 376.18s-9-11.3-26.34-7.29c-16.49 3.8-24.1 34-7.44 37.66s13.73-24.37 19.8-29.11c4.46-3.44 10.87-2.74 13.98-1.26z" fill="#a6d453"/><path d="M56.37 385.4a33.79 33.79 0 013.57-2.74 15.49 15.49 0 013.82-1.9 22 22 0 017.5-7.09h-.52a25.23 25.23 0 00-2.75 0 15.26 15.26 0 00-5.36 1.33c-.1 0-.17-.11-.07-.15a24.44 24.44 0 015.35-1.61 15 15 0 014.17-.15h.27a23.87 23.87 0 015-1.84l-.49-.13a25 25 0 00-2.57-.42 20 20 0 00-5.19.08c-.11 0-.14-.15 0-.16a32.85 32.85 0 015.25-.22 22.37 22.37 0 014.36.57 22.29 22.29 0 013.17-.36c6-.26 12.64 2 16.37 7s4.45 11.61 5.11 17.62a132.88 132.88 0 01.66 25.22c0 .5-.73.41-.75-.06-.23-7.14-.48-14.27-1.16-21.37-.32-3.29-.67-6.6-1.21-9.86a28.94 28.94 0 00-2.4-8.11 14.83 14.83 0 00-5.85-6.3 19.76 19.76 0 00-8.3-2.55 22.15 22.15 0 00-7.78.73 4.9 4.9 0 010 1.53 8.21 8.21 0 01-.38 1.9 9.55 9.55 0 01-.72 1.68c-.33.6-.73 1.13-1.09 1.7-.05.09-.2 0-.13-.1a7.78 7.78 0 001.34-3.42 13 13 0 00.21-1.77v-1.34a23.07 23.07 0 00-7.57 4c-.42.34-.83.7-1.23 1.06a8.34 8.34 0 011.49 1.83 17.76 17.76 0 011.51 2.73 23.73 23.73 0 011.6 6c0 .1-.15.13-.16 0a17.37 17.37 0 00-2-5.72 24.23 24.23 0 00-1.44-2.48c-.3-.41-.6-.83-.92-1.23-.17-.21-.35-.43-.51-.66a23.83 23.83 0 00-4.92 6.93 11.71 11.71 0 012 2.93 26.11 26.11 0 011.66 3.5 59.64 59.64 0 012.07 7.07.09.09 0 01-.17 0 29.28 29.28 0 00-2.46-7c-.51-1.09-1.06-2.16-1.64-3.22a29.45 29.45 0 01-1.63-3 22.36 22.36 0 00-2 8 .08.08 0 11-.16 0 28 28 0 013.89-12.33c-1.06.45-2.13.88-3.15 1.43a17.47 17.47 0 00-3.6 2.54c-.06.11-.17-.02-.09-.09z" fill="#263238"/><path d="M69.09 386c.53 1.72 1.18 3.38 1.65 5.11a20 20 0 01.77 5.1c0 .05-.08.05-.09 0a49.42 49.42 0 00-2.48-10.16.08.08 0 11.15-.05zm-10.99-4.21a9.83 9.83 0 012.3-1.64 16.81 16.81 0 012.66-.94c.1 0 .14.14 0 .16a10.19 10.19 0 00-2.56 1.06 20.38 20.38 0 00-2.36 1.44c-.02.05-.09-.03-.04-.08z" fill="#263238"/><path d="M87.57 361.09s-1.66-20.3-16.75-26.88c-12.6-5.49-19.82 8.67-10.91 17.33 7.21 7.02 18.76 3.85 27.66 9.55z" fill="#a6d453"/><path d="M62.7 338.14a63.29 63.29 0 016.71 3.18 47.54 47.54 0 015.21 3.46c-.25-.52-.46-1-.72-1.55a24.53 24.53 0 00-1.28-2.3 21.84 21.84 0 00-3.32-4.21c-.08-.07 0-.19.12-.11a34.78 34.78 0 013.5 4.07 25.93 25.93 0 011.43 2.3 9 9 0 011 2.34l.17.12a49 49 0 017.21 7.05c0-.2-.09-.4-.14-.58-.28-1-.59-2-.91-3A25.06 25.06 0 0079 343c-.06-.09.09-.17.15-.08a48.13 48.13 0 013.16 5.77 22.63 22.63 0 011 3 13.83 13.83 0 01.49 2c.66.83 1.3 1.68 1.91 2.54 6.48 9.23 9.73 20.38 10.51 31.54a95.34 95.34 0 01.17 10 62.44 62.44 0 01-.88 10c0 .21-.37.15-.37-.06.08-2.93.38-5.85.44-8.79s0-5.88-.29-8.81A81.81 81.81 0 0092 373a61.79 61.79 0 00-7.67-16.24c-.64-.13-1.27-.3-1.89-.46s-1.51-.39-2.26-.6a22.59 22.59 0 01-4.18-1.58c-.09-.05 0-.2.09-.14a13.7 13.7 0 004.27 1.47c1.18.23 2.4.39 3.59.66a58.31 58.31 0 00-3.51-4.61 26.42 26.42 0 01-8.59-.64 35.42 35.42 0 01-4.39-1.37c-1.51-.58-2.94-1.33-4.44-2-.11 0 0-.21.07-.15a24.94 24.94 0 008.71 2.85 54.18 54.18 0 008.14.68c-1.08-1.23-2.18-2.43-3.36-3.56-4-3.77-8.68-7.24-13.9-9.05-.13 0-.08-.16.02-.12z" fill="#263238"/><path d="M75 338.2a22.36 22.36 0 011.85 2.71 14.32 14.32 0 011.33 3.15h-.06c-.5-1-.93-2-1.44-3a14.56 14.56 0 00-1.8-2.74c-.09-.08.04-.2.12-.12zM61 345a15.18 15.18 0 003 1.25 26.8 26.8 0 003.16.85v.09a15.2 15.2 0 01-3.26-.72 27 27 0 01-3.06-1.37c-.07-.04.02-.19.16-.1z" fill="#263238"/><path d="M99.3 357.43c.09.88 2.28-7.36 15-14.69 11.59-6.65 25.42-23.94 14.06-34.86-9.13-8.82-33.29 10.4-29.06 49.55z" fill="#a6d453"/><path d="M90.52 404.71a226.91 226.91 0 012-25.65 116 116 0 015.39-23c.95-2.68 2-5.32 3.21-7.92a18.1 18.1 0 01.06-3c.06-1.29.18-2.59.3-3.89s.25-2.59.4-3.88.43-2.58.48-3.87c0-.12.19-.09.17 0a25.6 25.6 0 00-.46 4.1c-.1 1.26-.17 2.51-.21 3.76s0 2.51 0 3.77v1.42c1.2-2.54 2.48-5 3.88-7.46-.87-5.3.25-10.83 1.33-16a.08.08 0 01.16.05 45.08 45.08 0 00-.84 8.2c0 2.17 0 4.34.06 6.52.31-.52.61-1.05.93-1.56 1.65-2.7 3.42-5.35 5.3-7.92a12.54 12.54 0 01.12-3.77 29.2 29.2 0 01.93-4.12 40 40 0 011.41-4c.55-1.34 1.29-2.61 1.82-4a.08.08 0 11.15.07 19.54 19.54 0 00-1.6 4 38.59 38.59 0 00-1 4c-.27 1.34-.49 2.69-.68 4.05-.12.89-.2 1.83-.36 2.73A99.6 99.6 0 01122.4 317c.07-.07.18.05.11.12a117.83 117.83 0 00-13 17.65c-.14.24-.27.48-.41.71.7-.44 1.51-.79 2.17-1.15 1.24-.69 2.47-1.38 3.72-2.05s2.41-1.31 3.61-2c.62-.34 1.23-.7 1.86-1a13.91 13.91 0 002.17-1.2c.09-.07.2.08.09.14-1.22.67-2.31 1.67-3.5 2.43s-2.4 1.49-3.64 2.19c-2.27 1.26-4.73 2.17-7 3.48q-2.33 4.06-4.3 8.33 2-1.31 4.15-2.48c.9-.51 1.81-1 2.72-1.49a13.15 13.15 0 002.57-1.56c.08-.06.2.05.12.12a24.47 24.47 0 01-4.9 3.42c-1.64 1-3.3 1.88-5 2.71q-2.06 4.49-3.7 9.14C94.94 369.7 93 385.85 92 401.88c-.29 4.78-.43 9.56-.49 14.35s.19 9.55.18 14.33c0 .14-.23.17-.25 0-.57-4.24-.67-8.55-.86-12.82s-.16-8.68-.06-13.03z" fill="#263238"/><path d="M113.7 335.87a60.42 60.42 0 006.78-3.51 68.6 68.6 0 006.44-4.09s.08 0 0 .06a55.23 55.23 0 01-6.18 4.33 61.57 61.57 0 01-7 3.35c-.06.05-.14-.1-.04-.14zm-3.7-17.19c.19-.75.43-1.47.68-2.2a.06.06 0 010-.08c.16-.41.33-.82.5-1.23l.06-.15c0-.07.07-.15.1-.23s-.08.28-.13.42a1.68 1.68 0 01-.06.24 61.08 61.08 0 00-1.9 8.66c0 .09-.15.1-.15 0a30.28 30.28 0 01.9-5.43z" fill="#263238"/><path fill="#455a64" d="M77.03 407.8l.91 10.79 2.79 32.92h29.86l2.79-32.92.91-10.79H77.03z"/><path fill="#263238" d="M77.03 407.8l.91 10.79h35.44l.91-10.79H77.03z"/><path fill="#455a64" d="M117.21 413.82H74.1v-10.35h43.11z"/></svg>