<?xml version="1.0" encoding="utf-8"?>
<!-- Generator: Adobe Illustrator 24.1.0, SVG Export Plug-In . SVG Version: 6.00 Build 0)  -->
<svg version="1.1" id="Capa_1" xmlns="http://www.w3.org/2000/svg" xmlns:xlink="http://www.w3.org/1999/xlink" x="0px" y="0px"
	 viewBox="0 0 512 512" style="enable-background:new 0 0 512 512;" xml:space="preserve">
<style type="text/css">
	.st0{opacity:0.5;}
	.st1{fill:#FFFFFF;}
</style>
<g class="st0">
	<g>
		<path class="st1" d="M486.4,76.8H25.6C12.8,76.8,0,89.6,0,102.4V128h512v-25.6C512,89.6,499.2,76.8,486.4,76.8z"/>
	</g>
</g>
<g>
	<g>
		<path class="st1" d="M0,179.2v230.4c0,12.8,12.8,25.6,25.6,25.6h460.8c12.8,0,25.6-12.8,25.6-25.6V179.2H0z M153.6,384H76.8
			c-12.8,0-25.6-12.8-25.6-25.6c0-12.8,12.8-25.6,25.6-25.6h76.8c12.8,0,25.6,12.8,25.6,25.6C179.2,371.2,166.4,384,153.6,384z
			 M332.8,384H256c-12.8,0-25.6-12.8-25.6-25.6c0-12.8,12.8-25.6,25.6-25.6h76.8c12.8,0,25.6,12.8,25.6,25.6S345.6,384,332.8,384z"
			/>
	</g>
</g>
</svg>
