<?xml version="1.0" encoding="utf-8"?>
<!-- Generator: Adobe Illustrator 24.1.0, SVG Export Plug-In . SVG Version: 6.00 Build 0)  -->
<svg version="1.1" id="Capa_1" xmlns="http://www.w3.org/2000/svg" xmlns:xlink="http://www.w3.org/1999/xlink" x="0px" y="0px"
	 viewBox="0 0 424.6 424.6" style="enable-background:new 0 0 424.6 424.6;" xml:space="preserve">
<style type="text/css">
	.st0{opacity:0.5;}
	.st1{fill:#FFFFFF;}
</style>
<g class="st0">
	<g>
		<path class="st1" d="M383.1,83.4l-71.9,72.2c4.9,8.9,8.8,18.4,11.4,28.3h101.7C419.5,147.4,405.4,112.8,383.1,83.4z"/>
	</g>
</g>
<g>
	<g>
		<path class="st1" d="M240.4,0v101.5c10.1,2.6,19.8,6.5,28.9,11.6L341,41.2C311.5,19,277,4.8,240.4,0z"/>
	</g>
</g>
<g>
	<g>
		<path class="st1" d="M60.7,61.9C28.2,95.1,7.2,137.9,0.8,184h101.6c5.1-19.2,14.9-36.9,28.6-51.3c13.4-14.4,30.6-24.9,49.5-30.4
			V0.7C134.9,7.4,92.8,28.9,60.7,61.9z"/>
	</g>
</g>
<g>
	<g>
		<path class="st1" d="M102.2,241.5L0.3,241.7c13.4,94.1,87.2,168.2,181.3,181.9c0.3-37.2,0.6-85.1,0.7-101.8
			C143.1,311.1,112.7,280.6,102.2,241.5z"/>
	</g>
</g>
<g class="st0">
	<g>
		<g>
			<path class="st1" d="M248.1,321.1l74.8,74.8c7-4.2,13.7-8.8,20.2-13.8l-71.7-71.7C264,314.8,256.3,318.4,248.1,321.1z"/>
			<path class="st1" d="M292.9,293.8c-2.7,2.6-5.4,5-8.2,7.3l70.8,70.8c6-5.4,11.6-11,17-17l-70.9-70.8
				C298.9,287.5,296,290.7,292.9,293.8z"/>
			<path class="st1" d="M241.6,424.6c8.7-1.2,17.2-2.9,25.7-5.1l-25.6-25.6L241.6,424.6z"/>
			<path class="st1" d="M241.8,371.5l42.8,42.7c8.2-2.9,16.1-6.3,23.8-10.2l-66.4-66.4L241.8,371.5z"/>
			<path class="st1" d="M397.1,243.9l22.5,22.5c1.9-7.4,3.4-14.9,4.4-22.5H397.1z"/>
			<path class="st1" d="M310.9,270.7l71.8,71.8c4.9-6.4,9.5-13.2,13.7-20.2l-75-75C318.8,255.4,315.3,263.3,310.9,270.7z"/>
			<path class="st1" d="M340.6,243.9l63.6,63.7c3.9-7.8,7.2-15.7,10.1-23.9l-39.8-39.8L340.6,243.9L340.6,243.9z"/>
		</g>
	</g>
</g>
</svg>
