<?xml version="1.0" encoding="utf-8"?>
<!-- Generator: Adobe Illustrator 24.1.0, SVG Export Plug-In . SVG Version: 6.00 Build 0)  -->
<svg version="1.1" id="Capa_1" xmlns="http://www.w3.org/2000/svg" xmlns:xlink="http://www.w3.org/1999/xlink" x="0px" y="0px"
	 viewBox="0 0 404.4 404.4" style="enable-background:new 0 0 404.4 404.4;" xml:space="preserve">
<style type="text/css">
	.st0{opacity:0.7;}
	.st1{fill:#FFFFFF;}
	.st2{opacity:0.5;}
</style>
<g class="st0">
	<g>
		<path class="st1" d="M366.8,110L366.8,110l-27.1-29.7c-6-7.1-14.7-11.6-24-12.4c-8.5,0.5-16.6,4.2-22.5,10.3l-22.3,20l-35.8,77.2
			l31,34.2c2.4,2.9,2.1,7.2-0.8,9.6c-2.7,2.3-6.7,2.1-9.2-0.4L228.8,189l-25.3,54.8l11.5,12.6c2.4,2.9,2.1,7.2-0.8,9.6
			c-2.7,2.3-6.7,2.1-9.2-0.4l-8-8l-41.9,90.9l209.6-192C386.1,137.4,375.1,119.1,366.8,110z M317,172.5c-2.8,2.5-7.1,2.4-9.6-0.4
			l-34.7-38c-2.4-2.9-2.1-7.2,0.8-9.6c2.7-2.3,6.7-2.1,9.2,0.4l34.7,38C319.9,165.6,319.7,169.9,317,172.5z"/>
	</g>
</g>
<g class="st2">
	<g>
		<path class="st1" d="M253.8,24.1L217.3,7.2c-5.3-2.6-11.1-3.9-17-4c-11.8,0-20.9,6.8-27,20.2l-26.2,56.6v53.3
			c1.8-0.9,3.9-0.9,5.7,0l46.7,21.6c3.6,1.2,5.5,5,4.3,8.6s-5,5.5-8.6,4.3c-0.4-0.1-0.8-0.3-1.2-0.5l-46.6-21.6V207l22.6,10.8
			c3.5,1.3,5.3,5.3,4,8.8c-1.3,3.5-5.3,5.3-8.8,4c-0.3-0.1-0.6-0.2-0.9-0.4l-17.5-8v111.3l123-265.3C282.1,42.2,265,29.3,253.8,24.1
			z M231.9,101c-1.1,2.4-3.5,3.9-6.2,3.9c-1,0-2-0.2-2.9-0.6l-46.7-21.6c-3.5-1.3-5.3-5.3-4-8.8c1.3-3.5,5.3-5.3,8.8-4
			c0.3,0.1,0.6,0.2,0.9,0.4l46.7,21.6C232,93.5,233.4,97.6,231.9,101L231.9,101z"/>
	</g>
</g>
<g>
	<g>
		<path class="st1" d="M100.4,0h-40C48,0,27.3,4.3,27.3,33.1v338.2c0,28.8,20.7,33.1,33.1,33.1h40c28.8,0,33.1-20.7,33.1-33.1V33.2
			C133.5,4.3,112.8,0,100.4,0z M80.3,383.4L80.3,383.4c-14.7,0-26.6-11.9-26.6-26.6s11.9-26.6,26.6-26.6S107,342,107,356.7
			C107,371.4,95,383.4,80.3,383.4z M106.1,293.7H54.6c-3.8,0-6.8-3-6.8-6.8c0-3.8,3-6.8,6.8-6.8h51.5c3.8,0,6.8,3,6.8,6.8
			C112.9,290.6,109.8,293.7,106.1,293.7z M106.1,224.4H54.6c-3.8,0-6.8-3-6.8-6.8s3-6.8,6.8-6.8h51.5c3.8,0,6.8,3,6.8,6.8
			S109.8,224.4,106.1,224.4z M106.1,155.1H54.6c-3.8,0-6.8-3-6.8-6.8s3-6.8,6.8-6.8h51.5c3.8,0,6.8,3,6.8,6.8
			C112.9,152.1,109.8,155.1,106.1,155.1z M106.1,85.8C106.1,85.8,106.1,85.8,106.1,85.8H54.6c-3.8,0-6.8-3-6.8-6.8
			c0-3.8,3-6.8,6.8-6.8c0,0,0,0,0,0h51.5c3.8,0,6.8,3,6.8,6.8C112.9,82.8,109.8,85.8,106.1,85.8z"/>
	</g>
</g>
<g>
	<g>
		<circle class="st1" cx="80.3" cy="356.8" r="13"/>
	</g>
</g>
</svg>
