<?xml version="1.0" encoding="utf-8"?>
<!-- Generator: Adobe Illustrator 24.1.0, SVG Export Plug-In . SVG Version: 6.00 Build 0)  -->
<svg version="1.1" id="Layer_1" xmlns="http://www.w3.org/2000/svg" xmlns:xlink="http://www.w3.org/1999/xlink" x="0px" y="0px"
	 viewBox="0 0 512 512" style="enable-background:new 0 0 512 512;" xml:space="preserve">
<style type="text/css">
	.st0{fill:#FFFFFF;}
	.st1{opacity:0.5;}
</style>
<path class="st0" d="M512,302.9c0,56.2-17.9,109.5-51.7,154.2c-6.7,8.8-19.2,10.5-28,3.9c-8.8-6.7-10.5-19.2-3.9-28
	c28.5-37.7,43.6-82.7,43.6-130.1C472,183.5,375.3,87,256,87C136.6,87,40,183.6,40,302.9c0,47.4,15.1,92.4,43.6,130.1
	c6.7,8.8,4.9,21.4-3.9,28c-8.8,6.7-21.4,4.9-28-3.9C17.9,412.4,0,359,0,302.9C0,161.4,114.6,47,256,47C397.5,47,512,161.5,512,302.9
	z"/>
<g class="st1">
	<path class="st0" d="M382.7,182.4c-7.8-7.8-20.5-7.8-28.3,0l-65.2,65.2c-9.9-5.4-21.2-8.4-33.2-8.4c-38.6,0-70,31.4-70,70
		c0,38.6,31.4,70,70,70c38.6,0,70-31.4,70-70c0-12-3.1-23.4-8.4-33.2l65.2-65.2C390.5,202.9,390.5,190.2,382.7,182.4z M256,339.1
		c-16.5,0-30-13.4-30-30s13.4-30,30-30s30,13.4,30,30S272.5,339.1,256,339.1z"/>
</g>
</svg>
