<?xml version="1.0" encoding="utf-8"?>
<!-- Generator: Adobe Illustrator 24.1.0, SVG Export Plug-In . SVG Version: 6.00 Build 0)  -->
<svg version="1.1" id="Capa_1" xmlns="http://www.w3.org/2000/svg" xmlns:xlink="http://www.w3.org/1999/xlink" x="0px" y="0px"
	 viewBox="0 0 209.2 209.2" style="enable-background:new 0 0 209.2 209.2;" xml:space="preserve">
<style type="text/css">
	.st0{fill:#FFFFFF;}
	.st1{opacity:0.5;fill:#FFFFFF;}
</style>
<path class="st0" d="M62.5,171.4H77V157H62.5V171.4z M62.5,84.7H77V70.3H62.5V84.7z M176.9,46.6v142.6c0,11-9,20-20,20H52.3
	c-11,0-20-9-20-20V46.6c0-11,9-20,20-20h11.1c0.2,7,6,12.7,13.1,12.7h56.3c7.1,0,12.9-5.7,13.1-12.7h11.1
	C167.9,26.6,176.9,35.5,176.9,46.6z M94.9,77.4c0,2.8,2.2,5,5,5H145c2.8,0,5-2.2,5-5s-2.2-5-5-5H99.9C97.1,72.4,94.9,74.6,94.9,77.4
	z M94.9,121.3c0,2.8,2.2,5,5,5H140c2.8,0,5-2.2,5-5s-2.2-5-5-5H99.9C97.1,116.3,94.9,118.5,94.9,121.3z M87,152c0-2.8-2.2-5-5-5
	H57.5c-2.8,0-5,2.2-5,5v24.4c0,2.8,2.2,5,5,5H82c2.8,0,5-2.2,5-5V152z M87,108.6c0-2.8-2.2-5-5-5H57.5c-2.8,0-5,2.2-5,5V133
	c0,2.8,2.2,5,5,5H82c2.8,0,5-2.2,5-5V108.6z M87,65.3c0-2.8-2.2-5-5-5H57.5c-2.8,0-5,2.2-5,5v24.4c0,2.8,2.2,5,5,5H82
	c2.8,0,5-2.2,5-5V65.3z M152.5,165.1c0-2.8-2.2-5-5-5H99.9c-2.8,0-5,2.2-5,5s2.2,5,5,5h47.6C150.3,170.1,152.5,167.9,152.5,165.1z
	 M62.5,128H77v-14.4H62.5V128z"/>
<path class="st1" d="M73.3,26.2v-7.8c0-1.7,1.4-3.1,3.1-3.1h4.9c5.2,0,9.9-3.2,12.1-8C95.4,2.9,99.7,0,104.6,0s9.2,2.9,11.2,7.3
	c2.1,4.9,6.9,8,12.1,8h4.9c1.7,0,3.1,1.4,3.1,3.1v7.8c0,1.7-1.4,3.1-3.1,3.1H76.4C74.7,29.3,73.3,27.9,73.3,26.2z"/>
</svg>
