<?xml version="1.0" encoding="utf-8"?>
<!-- Generator: Adobe Illustrator 24.1.0, SVG Export Plug-In . SVG Version: 6.00 Build 0)  -->
<svg version="1.1" id="Layer_1" xmlns="http://www.w3.org/2000/svg" xmlns:xlink="http://www.w3.org/1999/xlink" x="0px" y="0px"
	 viewBox="0 0 511 511" style="enable-background:new 0 0 511 511;" xml:space="preserve">
<style type="text/css">
	.st0{fill:#FFFFFF;}
	.st1{opacity:0.5;fill:#FFFFFF;}
</style>
<path class="st0" d="M165.7,15v123.7c14.6-5.2,28.4-3.1,39.9,4.6l61.2,45.9c11.2,7.4,18.6,21.4,18.6,36.4c0,15-7.5,29-20,37.4
	l-58.5,43.9c-14,9.5-27.5,10.5-41.2,5.6c0,4.7,0,96.9,0,93.7c0,8.3,6.7,15,15,15h134.7V104.8c0-15,7.7-29.2,20.1-37.5L425.3,0H180.6
	C172.4,0,165.7,6.7,165.7,15z"/>
<path class="st1" d="M495,15c0-5.4-2.9-10.4-7.6-13c-4.7-2.7-10.5-2.6-15.1,0.2L352.6,92c-4.5,2.7-7.3,7.6-7.3,12.8V496
	c0,5.4,2.9,10.4,7.6,13c4.7,2.7,10.4,2.6,15.1-0.2L487.8,419c4.5-2.7,7.3-7.6,7.3-12.8V15z M390.3,300.4c-8.3,0-15-6.7-15-15
	s6.7-15,15-15s15,6.7,15,15S398.5,300.4,390.3,300.4z"/>
<path class="st0" d="M30.9,255.5h134.7v15c0,5.5,3,10.6,7.9,13.2c4.8,2.6,10.7,2.3,15.4-0.7l59.9-44.9c4.2-2.8,6.7-7.5,6.7-12.5
	c0-5-2.5-9.7-6.7-12.5L189,168.2c-4.6-3.1-10.5-3.3-15.4-0.7c-4.9,2.6-7.9,7.7-7.9,13.2v15H30.9c-8.3,0-15,6.7-15,15v29.9
	C16,248.8,22.7,255.5,30.9,255.5z"/>
</svg>
