<?xml version="1.0" encoding="utf-8"?>
<!-- Generator: Adobe Illustrator 24.1.0, SVG Export Plug-In . SVG Version: 6.00 Build 0)  -->
<svg version="1.1" id="Layer_1" xmlns="http://www.w3.org/2000/svg" xmlns:xlink="http://www.w3.org/1999/xlink" x="0px" y="0px"
	 viewBox="0 0 512 512" style="enable-background:new 0 0 512 512;" xml:space="preserve">
<style type="text/css">
	.st0{opacity:0.5;fill:#FFFFFF;}
	.st1{fill:#FFFFFF;}
</style>
<path class="st0" d="M10.7,95.2C81,154.7,204.3,259.4,240.5,292c4.9,4.4,10.1,6.6,15.5,6.6c5.4,0,10.6-2.2,15.5-6.6
	C307.7,259.4,431,154.7,501.3,95.2c4.4-3.7,5-10.2,1.5-14.7C494.6,70,482.4,64,469.3,64H42.7c-13.1,0-25.3,6-33.5,16.4
	C5.6,85,6.3,91.5,10.7,95.2z"/>
<path class="st1" d="M505.8,127.4c-3.8-1.8-8.2-1.1-11.4,1.5C416.5,195,317.1,279.7,285.8,307.9c-17.6,15.9-41.9,15.9-59.5,0
	c-33.4-30.1-145-125-208.7-178.9c-3.2-2.7-7.6-3.3-11.4-1.5c-3.8,1.8-6.2,5.5-6.2,9.7v268.3C0,428.9,19.1,448,42.7,448h426.7
	c23.5,0,42.7-19.1,42.7-42.7V137.1C512,132.9,509.6,129.1,505.8,127.4z"/>
</svg>
