<?xml version="1.0" encoding="utf-8"?>
<!-- Generator: Adobe Illustrator 24.1.0, SVG Export Plug-In . SVG Version: 6.00 Build 0)  -->
<svg version="1.1" id="Layer_1" xmlns="http://www.w3.org/2000/svg" xmlns:xlink="http://www.w3.org/1999/xlink" x="0px" y="0px"
	 viewBox="0 0 335 335" style="enable-background:new 0 0 335 335;" xml:space="preserve">
<style type="text/css">
	.st0{fill:#FFFFFF;}
	.st1{opacity:0.5;fill:#FFFFFF;}
</style>
<path class="st0" d="M328,254.2H7c-3.9,0-7,3.1-7,7c0,3.9,3.1,7,7,7h321c3.9,0,7-3.1,7-7C335,257.3,331.9,254.2,328,254.2z"/>
<path class="st1" d="M328,160.3H7c-3.9,0-7,3.1-7,7c0,3.9,3.1,7,7,7h321c3.9,0,7-3.1,7-7C335,163.5,331.9,160.3,328,160.3z"/>
<path class="st0" d="M328,66.5H7c-3.9,0-7,3.1-7,7c0,3.9,3.1,7,7,7h321c3.9,0,7-3.1,7-7C335,69.6,331.9,66.5,328,66.5z"/>
</svg>
