<?xml version="1.0" encoding="utf-8"?>
<!-- Generator: Adobe Illustrator 24.1.0, SVG Export Plug-In . SVG Version: 6.00 Build 0)  -->
<svg version="1.1" id="Layer_1" xmlns="http://www.w3.org/2000/svg" xmlns:xlink="http://www.w3.org/1999/xlink" x="0px" y="0px"
	 viewBox="0 0 512 512" style="enable-background:new 0 0 512 512;" xml:space="preserve">
<style type="text/css">
	.st0{opacity:0.5;fill:#FFFFFF;}
	.st1{fill:#FFFFFF;}
</style>
<path class="st0" d="M76,240c12.1,0,23.1-4.9,31.1-12.7l44.4,22.2c-0.2,1.8-0.6,3.6-0.6,5.5c0,24.8,20.2,45,45,45s45-20.2,45-45
	c0-6.9-1.7-13.4-4.5-19.3l60.2-60.2c5.9,2.8,12.4,4.5,19.3,4.5c24.8,0,45-20.2,45-45c0-4.7-0.9-9.1-2.2-13.3l52.3-39.2
	c7.1,4.8,15.7,7.6,24.9,7.6c24.8,0,45-20.2,45-45S460.8,0,436,0s-45,20.2-45,45c0,4.7,0.9,9.1,2.2,13.3l-52.3,39.2
	c-7.1-4.8-15.7-7.6-24.9-7.6c-24.8,0-45,20.2-45,45c0,6.9,1.7,13.4,4.5,19.3l-60.2,60.2c-5.9-2.8-12.4-4.5-19.3-4.5
	c-12.1,0-23.1,4.9-31.1,12.7l-44.4-22.2c0.2-1.8,0.6-3.6,0.6-5.5c0-24.8-20.2-45-45-45s-45,20.2-45,45S51.2,240,76,240z"/>
<path class="st1" d="M497,482h-16V165c0-8.3-6.7-15-15-15h-60c-8.3,0-15,6.7-15,15v317h-30V255c0-8.3-6.7-15-15-15h-60
	c-8.3,0-15,6.7-15,15v227h-30V375c0-8.3-6.7-15-15-15h-60c-8.3,0-15,6.7-15,15v107h-30V315c0-8.3-6.7-15-15-15H46
	c-8.3,0-15,6.7-15,15v167H15c-8.3,0-15,6.7-15,15s6.7,15,15,15h482c8.3,0,15-6.7,15-15S505.3,482,497,482z"/>
</svg>
