<?xml version="1.0" encoding="utf-8"?>
<!-- Generator: Adobe Illustrator 24.1.0, SVG Export Plug-In . SVG Version: 6.00 Build 0)  -->
<svg version="1.1" id="Layer_1" xmlns="http://www.w3.org/2000/svg" xmlns:xlink="http://www.w3.org/1999/xlink" x="0px" y="0px"
	 viewBox="0 0 448 448" style="enable-background:new 0 0 448 448;" xml:space="preserve">
<style type="text/css">
	.st0{opacity:0.5;fill:#FFFFFF;}
	.st1{fill:#FFFFFF;}
</style>
<path class="st0" d="M104,89h32V73h-10.4c60.2-43.7,142.1-42.5,201,3l9.8-12.7C270.3,12.3,178.2,12.2,112,63V49H96v32
	C96,85.4,99.6,89,104,89z"/>
<path class="st0" d="M346.2,93.7l11.6-11c-3.7-3.9-7.5-7.6-11.5-11.2l-10.6,12C339.3,86.7,342.8,90.2,346.2,93.7z"/>
<path class="st0" d="M352,359.4h-32v16h10.4c-60.2,43.7-142.1,42.5-201-2.9l-9.8,12.7c66.1,51,158.2,51.1,224.4,0.3v14h16v-32
	C360,363,356.4,359.4,352,359.4z"/>
<path class="st0" d="M109.8,354.7l-11.6,11c3.7,3.9,7.5,7.6,11.5,11.2l10.6-12C116.7,361.7,113.2,358.3,109.8,354.7z"/>
<path class="st1" d="M96,128.2c-53,0-96,43-96,96s43,96,96,96s96-43,96-96C191.9,171.2,149,128.3,96,128.2z M40,232.2H24v-16h16
	V232.2z M112,271.8v8.4H96v-8H80v8H64v-8H48v-16h8v-64h-8v-16h16v-8h16v8h16v-8h16V179c7.5,3.5,13.1,10.2,15.1,18.2
	c2.1,8,0.4,16.6-4.4,23.3c10,6.1,15.1,17.9,12.7,29.4S123.6,270.2,112,271.8z M168,232.2h-16v-16h16V232.2z"/>
<path class="st0" d="M112,204.2c0-6.6-5.4-12-12-12H72v24h28C106.6,216.2,112,210.8,112,204.2z"/>
<path class="st0" d="M108,232.2H72v24h36c6.6,0,12-5.4,12-12S114.6,232.2,108,232.2z"/>
<path class="st1" d="M352,128.2c-53,0-96,43-96,96s43,96,96,96s96-43,96-96C447.9,171.2,405,128.3,352,128.2z M304,232.2h-16v-16h16
	V232.2z M384,208.2h-16v-5.4c0-5.9-4.7-10.6-10.6-10.6h-10.8c-5.2,0-9.6,3.8-10.5,8.9c-0.8,5.1,2.2,10.1,7.1,11.8l22.6,7.5
	c11.9,3.9,19.4,15.7,18,28.1c-1.4,12.5-11.4,22.2-23.8,23.4v8.3h-16v-8.3c-13.6-1.3-24-12.7-24-26.3v-5.4h16v5.4
	c0,5.9,4.7,10.6,10.6,10.6h10.8c5.2,0,9.6-3.8,10.5-8.9c0.8-5.1-2.2-10.1-7.1-11.8l-22.6-7.5c-11.9-3.9-19.4-15.7-18-28.1
	s11.4-22.2,23.8-23.4v-8.3h16v8.3c13.6,1.3,24,12.7,24,26.3V208.2z M416,232.2h-16v-16h16V232.2z"/>
</svg>
