<?xml version="1.0" encoding="utf-8"?>
<!-- Generator: Adobe Illustrator 24.1.0, SVG Export Plug-In . SVG Version: 6.00 Build 0)  -->
<svg version="1.1" id="Bold" xmlns="http://www.w3.org/2000/svg" xmlns:xlink="http://www.w3.org/1999/xlink" x="0px" y="0px"
	 viewBox="0 0 512 512" style="enable-background:new 0 0 512 512;" xml:space="preserve">
<style type="text/css">
	.st0{fill:#FFFFFF;}
	.st1{opacity:0.5;fill:#FFFFFF;}
</style>
<path class="st0" d="M474.7,192H37.3C16.7,192,0,208.7,0,229.3v53.3C0,303.3,16.7,320,37.3,320h437.3c20.6,0,37.3-16.7,37.3-37.3
	v-53.3C512,208.7,495.3,192,474.7,192z"/>
<path class="st1" d="M474.7,0H357.3C336.7,0,320,16.7,320,37.3v53.3c0,20.6,16.7,37.3,37.3,37.3h117.3c20.6,0,37.3-16.7,37.3-37.3
	V37.3C512,16.7,495.3,0,474.7,0z"/>
<path class="st1" d="M474.7,384H357.3c-20.6,0-37.3,16.7-37.3,37.3v53.3c0,20.6,16.7,37.3,37.3,37.3h117.3
	c20.6,0,37.3-16.7,37.3-37.3v-53.3C512,400.7,495.3,384,474.7,384z"/>
<path class="st0" d="M16,42.7h245.3c8.8,0,16-7.2,16-16s-7.2-16-16-16H16c-8.8,0-16,7.2-16,16S7.2,42.7,16,42.7z"/>
<path class="st0" d="M16,106.7h245.3c8.8,0,16-7.2,16-16s-7.2-16-16-16H16c-8.8,0-16,7.2-16,16S7.2,106.7,16,106.7z"/>
<path class="st0" d="M16,426.7h245.3c8.8,0,16-7.2,16-16c0-8.8-7.2-16-16-16H16c-8.8,0-16,7.2-16,16C0,419.5,7.2,426.7,16,426.7z"/>
<path class="st0" d="M16,490.7h245.3c8.8,0,16-7.2,16-16c0-8.8-7.2-16-16-16H16c-8.8,0-16,7.2-16,16C0,483.5,7.2,490.7,16,490.7z"/>
</svg>
