<?xml version="1.0" encoding="utf-8"?>
<!-- Generator: Adobe Illustrator 25.2.3, SVG Export Plug-In . SVG Version: 6.00 Build 0)  -->
<svg version="1.1" id="Layer_1" xmlns="http://www.w3.org/2000/svg" xmlns:xlink="http://www.w3.org/1999/xlink" x="0px" y="0px"
	 viewBox="0 0 300 300" style="enable-background:new 0 0 300 300;" xml:space="preserve">
<style type="text/css">
	.st0{fill:#FCC659;}
	.st1{fill:#BDDBE0;}
	.st2{fill:#FFFFFF;}
	.st3{fill:#073856;}
	.st4{fill:#00ACB5;}
	.st5{fill:#008E8E;}
	.st6{fill:#EAA936;}
	.st7{fill:#FD6220;}
	.st8{fill:#1A5370;}
	.st9{fill:#3F7A91;}
</style>
<g>
	<g>
		<polygon class="st0" points="184.7,146 190.9,143.6 192.3,147.5 190.5,154.6 191.6,161.4 186.5,161.9 182.6,154.7 		"/>
		<polygon class="st1" points="189.4,56.2 194,79.7 193.7,112.5 193.6,151 183.7,149 186.5,111.5 		"/>
		<rect x="189.3" y="111.9" class="st2" width="20.5" height="14.4"/>
		<polygon class="st3" points="204.2,289.5 207.2,297.9 172.5,297.9 197.6,289.5 		"/>
		<polygon class="st4" points="190.8,128.7 189.4,144.8 191.3,290.2 206.9,291.1 211.2,139.9 		"/>
		<polygon class="st3" points="238.3,289.5 235.2,297.9 252.1,297.9 244.8,289.5 		"/>
		<polygon class="st5" points="226.3,126.6 230.3,142.9 249.3,291.7 235.9,290.5 203,152.9 190.8,126.9 		"/>
		<g>
			<rect x="188.9" y="125.4" class="st3" width="26.6" height="3.6"/>
			<rect x="194.2" y="124.6" class="st0" width="7" height="5.6"/>
			<g>
				<polygon class="st2" points="238.6,59.4 231.1,113.9 240.6,217 211.7,225.8 200.7,189.8 190.1,225.8 187.1,224.1 188.2,127.1 
					189.4,56.2 216.5,44.4 				"/>
			</g>
			<polygon class="st1" points="229.6,81.4 225,82 227.4,111.9 224.8,116.4 229,116.4 230.9,129 226.2,154.5 233,168.1 236.2,213.2 
				228.8,220.6 240.6,217 231.1,113.9 232.8,80.6 			"/>
			<g>
				<g>
					<polygon class="st4" points="213.8,159.7 208.9,163.3 208.9,192.8 213.5,195.9 248.6,195.9 253.4,192.4 253.4,162.9 
						248.8,159.7 					"/>
					<polygon class="st5" points="219,159.7 214.2,163.3 214.2,192.8 218.8,195.9 253.8,195.9 258.7,192.4 258.7,162.9 254.1,159.7 
											"/>
					<g>
						<path class="st5" d="M240.4,164.9h-12.9l-1.7-1.4V154l1.8-1.5h12.9l1.7,1.4v9.4L240.4,164.9z M228.1,163.1h11.7l0.7-0.6v-7.8
							l-0.6-0.5h-11.7l-0.7,0.6v7.8L228.1,163.1z"/>
					</g>
					<path class="st2" d="M247.8,177.8c0,6.3-5.1,11.4-11.4,11.4c-6.3,0-11.4-5.1-11.4-11.4c0-6.3,5.1-11.4,11.4-11.4
						C242.7,166.5,247.8,171.5,247.8,177.8z"/>
				</g>
				<g>
					<rect x="227.1" y="174.9" class="st4" width="18.6" height="5.8"/>
					<rect x="233.5" y="168.5" class="st4" width="5.8" height="18.6"/>
				</g>
			</g>
			<polygon class="st0" points="239.5,145.7 238.1,140.7 231.8,143.8 229.7,154.6 231.8,157.6 237.2,156.9 238.9,154.3 237.7,154.4 
							"/>
			<polygon class="st2" points="238.6,59.4 225,82 234.6,109.8 229,149 240.9,151 250.7,107.5 			"/>
		</g>
		<polygon class="st1" points="223.4,48.4 225,50 214.8,64 210.7,64 213,69.3 200.1,97.1 195.5,66.7 199.7,63.1 196.6,62.2 
			203.1,51.4 		"/>
		<polygon class="st6" points="205.8,37.3 205.3,49.2 208.5,52 219.8,49.6 221.2,36.8 		"/>
		<polygon class="st2" points="212.4,57 199.8,79.2 202.6,57.6 206.5,52.8 210.2,58.4 		"/>
		<g>
			<polygon class="st2" points="223.4,48.4 221.2,44.4 208.2,50.1 205.4,47.4 203.1,51.4 202.6,57.1 206.7,52.3 210.3,58 			"/>
		</g>
		<polygon class="st7" points="208.2,55.3 206.5,57.6 204.7,57.6 203.9,56 206.5,52.8 		"/>
		<polygon class="st7" points="206.5,57.7 205.5,69.2 199.8,79.2 201.2,68.5 204.7,57.7 		"/>
		<g>
			<polygon class="st0" points="225.2,25.2 227.1,22.9 228.3,23.5 227.7,29.2 224.2,33.2 			"/>
			<polygon class="st0" points="200.7,25.2 198.9,22.9 197.6,23.5 198.2,29.2 201.7,33.2 			"/>
			<polygon class="st0" points="198.5,18.2 201.4,36.5 208.3,46.4 217.7,46.4 224.7,36.5 227.9,18.2 223.1,5.5 203.8,5.5 			"/>
			<g>
				<polygon class="st8" points="220.1,10.6 208.6,18.5 200.3,20.8 200.3,28.1 198.5,21.2 198.5,9.1 207,1.3 219.4,1.3 227.9,9.1 
					227.9,21.8 226.2,28.1 225.7,20.8 221.9,15.4 				"/>
			</g>
		</g>
		<polygon class="st2" points="209.3,39.7 217.2,39.7 213.3,41.6 		"/>
		<polygon class="st6" points="210.5,35 216,35 213.3,36.3 		"/>
		<polygon class="st9" points="207.1,1.3 198.5,9.2 198.5,21.3 198.7,22.2 200.3,11.3 208.5,2.9 211.8,5 203,12.4 213.3,6.1 
			215.6,7.8 205.9,14.8 216.8,8.6 218.7,9.8 218.7,8 222.3,8.2 225.2,14.2 223.7,7.9 217.4,6.9 221.3,5.2 216.6,6.3 214.4,5.1 
			218.2,3.7 213.4,4.2 211.8,2.9 219.1,2.1 227.9,9.2 219.6,1.3 		"/>
	</g>
	<g>
		<polygon class="st8" points="110,38 111.1,54.6 116.6,59.8 114,62.3 111.1,60 112.1,64.1 107.7,66.8 105,61.3 106,68.1 
			101.4,70.4 80.7,69.3 77.8,67 80.1,62.4 76.4,66.3 73.2,63.1 76.9,58.2 71.6,61.5 69.3,57.7 72.2,54.6 73.6,37 78.7,23.9 
			92.5,16.7 104.3,23.9 		"/>
		<g>
			<g>
				<g>
					<g>
						<g>
							<polygon class="st3" points="121.2,283.2 120.8,291.1 122.7,297.9 123.9,297.9 124.1,291.9 125.9,291.9 136.8,297.9 
								153.3,297.9 141.2,291.7 129.9,283.2 							"/>
							<polygon class="st0" points="115.4,147.6 129.9,283.2 141.2,291.7 145.8,294.1 138.4,294.1 124.3,287.4 121.2,283.2 
								120.2,274.7 110.9,242.5 109.7,217.2 84.6,142.7 							"/>
							<polygon class="st3" points="83.5,283.2 85.7,289.1 84.6,297.9 82.7,297.9 83.2,293.4 79.9,297.9 66.9,297.9 72.2,293.3 
								75.8,283.2 							"/>
							<polygon class="st0" points="72.2,154.2 95.8,155.7 86,217.2 87.1,243.4 83.1,274.9 83.5,283.2 84.4,287.4 76.5,294.1 
								73.3,294.1 73.8,288.7 75.8,283.2 76.1,274.7 70.2,216.5 							"/>
						</g>
					</g>
				</g>
			</g>
		</g>
		<rect x="73.6" y="197.8" class="st1" width="44.6" height="34.9"/>
		<g>
			<g>
				<g>
					<g>
						<polygon class="st2" points="82.5,65.2 100.6,65.1 112.7,71.1 122.9,75.8 114.4,109.1 113.9,134.9 127.1,234 100.5,238.1 
							94.2,211.4 89.7,238.1 61.9,234 72.4,137.6 72.3,106.3 62.7,76.8 73.3,71 						"/>
					</g>
					<polygon class="st1" points="67.8,178 72.4,137.6 72.3,115.7 71,97.3 76.3,106.2 108.2,106 114.7,98.5 114.4,111.6 
						113.9,134.9 120.8,186.1 120.8,186.1 109.7,118.6 105.8,116.8 80.8,116.7 75.6,118.1 					"/>
					<g>
						<polygon class="st5" points="79.8,177.9 84.4,181.2 84.4,209.3 80,212.3 46.8,212.3 42.1,208.9 42.1,180.9 46.5,177.9 						
							"/>
						<g>
							<path class="st5" d="M55.5,181.3v-9l1.6-1.3h12.3l1.7,1.4v9l-1.6,1.3H57.2L55.5,181.3z M69.4,180.6v-7.4l-0.6-0.5H57.7
								l-0.6,0.4v7.4l0.6,0.5h11.1L69.4,180.6z"/>
						</g>
						<path class="st2" d="M52.5,195.1c0,6,4.8,10.8,10.8,10.8s10.8-4.8,10.8-10.8c0-6-4.8-10.8-10.8-10.8S52.5,189.1,52.5,195.1z"
							/>
						<g>
							<rect x="54.5" y="192.3" class="st4" width="17.7" height="5.5"/>
							<rect x="60.5" y="186.2" class="st4" width="5.5" height="17.7"/>
						</g>
						<polygon class="st0" points="58.6,164.5 59.9,159.8 65.9,162.8 68,173 66,175.9 60.8,175.1 59.2,172.7 60.4,172.8 						"/>
					</g>
					<g>
						<g>
							<g>
								<g>
									<g>
										<polygon class="st2" points="57.9,167 67.6,165 70,113.8 72.9,97.2 62.7,76.8 57.9,125.9 										"/>
									</g>
								</g>
							</g>
						</g>
					</g>
					<polygon class="st0" points="116.8,163.2 119.6,160.9 122.1,163.4 122.4,169.5 122,176.7 118.1,183.3 115.3,172.1 114.3,173 
						114.2,168.6 					"/>
				</g>
			</g>
			<polygon class="st2" points="126,126 122.9,75.8 113,93.9 113.6,113.8 114.6,164.7 125,167.1 			"/>
			<polygon class="st6" points="97.8,52.1 98.8,66.5 93.3,69.8 85.6,66.4 87.3,50.8 			"/>
			<g>
				<polygon class="st0" points="79,31.2 82.4,22.5 92.3,19.2 102.1,22.5 105.5,31.2 105.8,41 103.8,52.5 99.7,58.1 94,62.7 
					92.3,62.7 90.5,62.7 84.8,58.1 80.7,52.5 78.7,41 				"/>
				<polygon class="st6" points="94.5,50.8 89.2,50.8 91.9,52.2 				"/>
				<polygon class="st2" points="95.7,54.2 88,54.2 91.9,56.4 				"/>
			</g>
			<polygon class="st2" points="101.3,63.3 93,69.3 84,63.3 80.8,66.9 89.9,74.5 93,70.7 96.6,74.5 104.3,67 			"/>
			<polygon class="st2" points="85.6,72 89.7,75.1 93.1,71.6 96.6,75.2 101,70.7 93.5,101 			"/>
		</g>
		<polygon class="st8" points="84.8,15.9 100,15.9 110.2,24.5 110.2,41 110.2,55.8 103.1,41 88.4,36.3 79.7,27.3 77.6,32.5 
			77.6,46.8 73.6,55.7 73.6,24.5 		"/>
		<polygon class="st9" points="73.6,24.5 75.8,22.8 80.3,21.6 84.8,23.9 90.9,20.7 84.8,20.7 92,17.9 84.8,17.9 80.7,19 84.8,15.9 
			100,15.9 110.2,24.5 110.2,41 110.2,48.1 108.2,43.6 108.2,27.4 97.9,19.2 99,24.6 105.2,28.9 97.9,26.7 92.9,22.3 88,25.3 
			94.1,31 103.4,33.5 92.3,33.5 84.8,27.1 80.3,24.6 76.9,31 76.9,35.8 74.7,30 77.5,23.9 73.6,26.1 		"/>
		<g>
			<polygon class="st9" points="113.2,61.6 114.2,60.3 112.4,55.8 112.4,55.8 116.6,59.8 114,62.3 			"/>
			<polygon class="st9" points="107.2,65.7 110.6,62.7 111.1,60 112.1,64.1 107.7,66.8 			"/>
		</g>
	</g>
</g>
</svg>
