<?xml version="1.0" encoding="utf-8"?>
<!-- Generator: Adobe Illustrator 25.2.3, SVG Export Plug-In . SVG Version: 6.00 Build 0)  -->
<svg version="1.1" id="Layer_1" xmlns="http://www.w3.org/2000/svg" xmlns:xlink="http://www.w3.org/1999/xlink" x="0px" y="0px"
	 viewBox="0 0 300 300" style="enable-background:new 0 0 300 300;" xml:space="preserve">
<style type="text/css">
	.st0{fill:#FCC659;}
	.st1{fill:#EAA936;}
	.st2{fill:#5A3736;}
	.st3{fill:#073856;}
	.st4{fill:#FD6220;}
	.st5{fill:#00ACB5;}
	.st6{fill:#008E8E;}
	.st7{fill:#9B1A00;}
	.st8{fill:#FDC00F;}
	.st9{fill:#876766;}
	.st10{fill:#B25C0F;}
	.st11{fill:#C0CECE;}
	.st12{fill:#54545B;}
	.st13{fill:#38383D;}
	.st14{fill:#FF9F1E;}
	.st15{fill:#FFBD6E;}
	.st16{fill:#1A5370;}
	.st17{fill:#FFFFFF;}
	.st18{fill:#BDDBE0;}
</style>
<g>
	<g>
		<g>
			<g>
				<polygon class="st0" points="119.7,106.1 116.6,98.8 102.4,98.8 101.4,92.8 106.8,89.7 101.4,89.7 101.4,86.1 96.3,82.7 
					102.8,75.2 103,66.9 111.8,58.1 132.6,59.1 140.5,64.7 140.5,80.2 130,89.1 129.6,99.7 				"/>
				<polygon class="st1" points="121.5,85.8 124.1,85.8 133.9,85.8 130,89.1 129.6,99.7 119.7,106.1 116.6,98.8 107.3,98.8 
					116.7,91.9 				"/>
				<polygon class="st2" points="119.7,80.5 119.5,71.1 116.9,66.9 103,66.9 96.3,66.9 106.1,58.1 133,58.1 141.5,64.6 141.5,80.5 
					130.2,89.8 124.1,85.8 127.5,81.3 127.5,75.9 122.7,75.9 				"/>
				<polygon class="st3" points="52.3,263.1 52.3,271.4 22,260.5 46.6,261.1 				"/>
				<polygon class="st4" points="134.4,98.6 118.2,108.1 110.6,130.3 103.5,177.6 143.4,186.6 140.7,147.5 144.6,111.1 				"/>
				<g>
					<polygon class="st5" points="134.8,198.4 141.3,183.4 105.3,173.4 103.8,177.7 56.5,180.5 44.1,260.9 52,263.1 74.1,198.4 
											"/>
					<g>
						<polygon class="st6" points="104.5,176.4 123.9,176.3 141.7,182.6 134.8,198.4 82.6,198.4 133.9,192 						"/>
						<polygon class="st6" points="83.9,198.2 70.2,195.2 49.4,261.8 52,263.1 74.1,198.4 						"/>
					</g>
				</g>
				<polygon class="st7" points="144.6,111.1 123.5,121 113,142.6 107.9,151.6 103.5,177.6 143.4,186.6 142.2,147.5 				"/>
				<g>
					<polygon class="st0" points="94.5,163.4 85.2,169.4 75.5,166.7 66.2,172.8 66.7,175.6 76.3,171 86.1,175.6 95.5,169.8 					"/>
					<polygon class="st4" points="144.6,111.1 123.4,156.5 91.4,174.3 87.3,166.9 116,144.4 123.1,110.5 					"/>
				</g>
				<polygon class="st8" points="130.8,93.5 134.4,98.6 118.2,113.6 115.8,106.1 				"/>
				<polygon class="st1" points="101.4,86.1 101.4,83.7 96.3,82.7 				"/>
				<polygon class="st9" points="106.1,53.9 131.6,53.9 141.5,64.6 141.5,80.5 137.9,66.7 131.8,61.4 105.9,61.4 96.3,66.9 				"/>
			</g>
		</g>
	</g>
	<g>
		<path class="st10" d="M75.2,201.4c0,1.5,1.2,2.8,2.8,2.8h66.5c1.5,0,2.8-1.2,2.8-2.8l0,0c0-1.5-1.2-2.8-2.8-2.8H77.9
			C76.4,198.6,75.2,199.9,75.2,201.4L75.2,201.4z"/>
		<path class="st10" d="M147.7,199.9c1.5,0,2.8-1.2,2.8-2.8v-86.5c0-1.5-1.2-2.8-2.8-2.8l0,0c-1.5,0-2.8,1.2-2.8,2.8v86.5
			C145,198.6,146.2,199.9,147.7,199.9L147.7,199.9z"/>
		<g>
			<g>
				<g>
					<rect x="150.5" y="115.2" class="st11" width="3.9" height="127.3"/>
				</g>
			</g>
			<g>
				<g>
					<polygon class="st11" points="71.4,263.1 75.8,264.8 92,208.1 152.5,208.1 152.5,204.2 88.1,204.2 					"/>
				</g>
			</g>
			<rect x="82.7" y="240" class="st11" width="69.8" height="3.9"/>
			<rect x="76.2" y="204.2" class="st11" width="62.4" height="3.9"/>
			
				<rect x="28.5" y="241.8" transform="matrix(0.3381 -0.9411 0.9411 0.3381 -229.7863 204.4277)" class="st11" width="3.9" height="47.5"/>
			<polygon class="st11" points="76.2,204.2 50.7,274.8 54.2,276.5 79.8,205.9 			"/>
			<polygon class="st11" points="63.6,175.6 152.5,175.6 152.5,179.5 92,179.5 92,205.6 88.1,205.6 88.1,179.5 63.6,179.5 			"/>
			<g>
				<path class="st12" d="M98.9,241.3c0-29.1,23.7-52.8,52.8-52.8c29.1,0,52.8,23.7,52.8,52.8c0,29.1-23.7,52.8-52.8,52.8
					C122.6,294.1,98.9,270.5,98.9,241.3z M105.9,241.3c0,25.3,20.6,45.8,45.8,45.8c25.3,0,45.8-20.6,45.8-45.8
					c0-25.3-20.6-45.8-45.8-45.8C126.5,195.5,105.9,216.1,105.9,241.3z"/>
			</g>
			<path class="st12" d="M71.4,294.8c9.8,0,17.7-8,17.7-17.7c0-9.8-7.9-17.7-17.7-17.7c-9.8,0-17.7,7.9-17.7,17.7
				C53.7,286.9,61.6,294.8,71.4,294.8z"/>
			<path class="st11" d="M71.4,266.4c5.9,0,10.7,4.8,10.7,10.7c0,5.9-4.8,10.7-10.7,10.7c-5.9,0-10.7-4.8-10.7-10.7
				C60.6,271.2,65.5,266.4,71.4,266.4z"/>
			<path class="st13" d="M143,241.3c0,4.8,3.9,8.7,8.7,8.7c4.8,0,8.7-3.9,8.7-8.7c0-4.8-3.9-8.7-8.7-8.7
				C146.9,232.6,143,236.5,143,241.3z"/>
			<g>
				<path class="st11" d="M150.5,148.9h3.9c0-2.6,2.1-4.8,4.7-4.8h13.1v-3.9h-13.1C154.3,140.3,150.5,144.2,150.5,148.9z"/>
			</g>
		</g>
	</g>
	<g>
		<polygon class="st0" points="214.9,59.7 209.2,49.5 193.7,51.1 192.6,44.5 198.4,41.1 192.6,41.2 192.6,37.3 187,33.5 194.1,25.4 
			194.4,14.8 203.9,5.3 225,6.4 235.1,14 235.1,29.3 223.7,39 226.3,47.8 		"/>
		<polygon class="st1" points="214.4,35.4 217.3,35.4 227.9,35.4 223.7,39 226.3,47.8 214.9,59.7 209.2,49.5 199,49.5 209.2,42 		
			"/>
		<polygon class="st14" points="223.6,39.8 236.3,29.5 236.3,14.2 224.9,5.7 202.9,4.4 190.6,16 200.2,23.5 211.3,29.1 213.2,23.8 
			218.4,23.8 218,30.7 213.2,33.7 214.1,35.8 		"/>
		<polygon class="st15" points="236.3,14.2 224.9,5.7 202.9,4.4 190.6,16 190.7,16.1 202.6,9.3 208.2,16.4 206.6,9.3 218.6,9.3 
			220.7,17.5 222.4,10.1 236.3,14.9 		"/>
		<polygon class="st0" points="181.1,130.1 177.5,134.9 165.2,135.9 160.7,146.6 171.8,147.5 175.2,141.7 180.4,135.8 		"/>
		<polygon class="st3" points="256.7,120.1 264.8,155.5 242.1,216.6 219.4,286.4 208.8,286.4 235.4,131.6 225.6,118.6 		"/>
		<polygon class="st16" points="256.7,120.1 264.8,155.5 269,219.4 292,286.4 281.4,286.4 253.6,224.2 229.2,131.6 225.6,118.6 		
			"/>
		<g>
			<polygon class="st3" points="228.9,130.2 228.8,130 260.9,128 264.8,155.5 269,219.4 256.2,144 			"/>
			<polygon class="st3" points="260.2,215.1 269,219.4 291.8,285.8 290.4,286.4 			"/>
		</g>
		<polygon class="st3" points="290.4,286.4 293.4,294.8 258.5,294.8 283.8,286.4 		"/>
		<polygon class="st3" points="217.4,286.4 220.4,294.8 185.4,294.8 210.8,286.4 		"/>
		<polygon class="st17" points="230.9,50 216.1,68.3 220.2,121.6 223.9,146.5 219.4,219.4 274.6,219.4 270.7,162.7 250.8,98 		"/>
		<polygon class="st18" points="233.4,71.3 220.2,121.6 215.6,72.8 		"/>
		<polygon class="st17" points="233.4,71.3 213.8,125.8 175.5,142.3 177.6,133.8 202.7,110.8 216.1,68.3 		"/>
		<polygon class="st5" points="226.2,44.9 230.9,50 216.2,69.2 214,60.5 		"/>
		<polygon class="st1" points="192.6,37.3 192.6,34.6 187,33.5 		"/>
	</g>
	<polygon class="st18" points="223.9,146.5 219.4,219.4 239.6,219.4 	"/>
</g>
</svg>
