<svg viewBox="0 0 400 300" xmlns="http://www.w3.org/2000/svg"><path d="m115.6 205.93h168.8a0 0 0 0 1 0 0v5.87a7.93 7.93 0 0 1 -7.93 7.93h-152.94a7.93 7.93 0 0 1 -7.93-7.93v-5.87a0 0 0 0 1 0 0z" fill="#68e1fd"/><path d="m276.47 220.73h-152.94a8.94 8.94 0 0 1 -8.93-8.92v-5.88a1 1 0 0 1 1-1h168.8a1 1 0 0 1 1 1v5.88a8.94 8.94 0 0 1 -8.93 8.92zm-159.87-13.8v4.88a6.93 6.93 0 0 0 6.93 6.92h152.94a6.93 6.93 0 0 0 6.93-6.92v-4.88z" fill="#093f68"/><path d="m134 110.27h132a7 7 0 0 1 7 7v88.62a0 0 0 0 1 0 0h-146a0 0 0 0 1 0 0v-88.58a7 7 0 0 1 7-7.04z" fill="#68e1fd"/><path d="m273 206.93h-146a1 1 0 0 1 -1-1v-88.62a8 8 0 0 1 8-8h132a8 8 0 0 1 8 8v88.62a1 1 0 0 1 -1 1zm-145-2h144v-87.62a6 6 0 0 0 -6-6h-132a6 6 0 0 0 -6 6z" fill="#093f68"/><path d="m137.9 121.54h124.21v73.71h-124.21z" fill="#fff"/><path d="m262.1 196.24h-124.2a1 1 0 0 1 -1-1v-73.7a1 1 0 0 1 1-1h124.2a1 1 0 0 1 1 1v73.7a1 1 0 0 1 -1 1zm-123.2-2h122.2v-71.7h-122.2z" fill="#093f68"/><path d="m187.15 205.93h25.71a0 0 0 0 1 0 0v1.46a4.69 4.69 0 0 1 -4.69 4.69h-16.34a4.69 4.69 0 0 1 -4.69-4.69v-1.46a0 0 0 0 1 .01 0z" fill="#093f68"/><path d="m208.17 213.08h-16.34a5.7 5.7 0 0 1 -5.68-5.69v-1.46a1 1 0 0 1 1-1h25.7a1 1 0 0 1 1 1v1.46a5.7 5.7 0 0 1 -5.68 5.69zm-20-6.15v.46a3.69 3.69 0 0 0 3.68 3.69h16.34a3.69 3.69 0 0 0 3.68-3.69v-.46z" fill="#093f68"/><circle cx="200" cy="115.18" fill="#68e1fd" r=".98"/><path d="m200 117.16a2 2 0 1 1 2-2 2 2 0 0 1 -2 2zm0-2s0 0 0 0h1z" fill="#093f68"/><path d="m151.57 87.95h96.86v107.29h-96.86z" fill="#fff"/><path d="m248.43 196.24h-96.86a1 1 0 0 1 -1-1v-107.24a1 1 0 0 1 1-1h96.86a1 1 0 0 1 1 1v107.24a1 1 0 0 1 -1 1zm-95.86-2h94.86v-105.24h-94.86z" fill="#093f68"/><path d="m229.26 128.17a29.06 29.06 0 0 1 -1.1 8 28.15 28.15 0 0 1 -2.42 6 29.31 29.31 0 0 1 -25.74 15.27c-.69 0-1.37 0-2-.08a29.25 29.25 0 1 1 29.25-39.86 28.93 28.93 0 0 1 2.01 10.67z" fill="#70cc40"/><path d="m200 158.44c-.82 0-1.49 0-2.13-.08a30.25 30.25 0 1 1 30.28-41.22 29.94 29.94 0 0 1 2.08 11 30.24 30.24 0 0 1 -1.13 8.24 29.08 29.08 0 0 1 -2.5 6.19 30.32 30.32 0 0 1 -26.6 15.87zm0-58.51a28.25 28.25 0 0 0 -2 56.43 19.65 19.65 0 0 0 2 .08 28.35 28.35 0 0 0 24.85-14.79 27.5 27.5 0 0 0 2.32-5.78 28.25 28.25 0 0 0 -27.17-35.94z" fill="#093f68"/><path d="m229.26 128.17a29.06 29.06 0 0 1 -1.1 8 28.15 28.15 0 0 1 -2.42 6l-25.72-14v-29.24a29.28 29.28 0 0 1 29.24 29.24z" fill="#ffbc0e"/><path d="m225.75 143.13a1 1 0 0 1 -.48-.12l-25.73-14a1 1 0 0 1 -.52-.88v-29.2a1 1 0 0 1 1-1 30.28 30.28 0 0 1 29.1 38.48 29.08 29.08 0 0 1 -2.5 6.19 1 1 0 0 1 -.59.49.9.9 0 0 1 -.28.04zm-24.75-15.56 24.31 13.19a28.28 28.28 0 0 0 -24.31-40.76z" fill="#093f68"/><path d="m229.26 128.17a29.06 29.06 0 0 1 -1.1 8 28.15 28.15 0 0 1 -2.42 6l-25.72-14 27.21-10.67a28.93 28.93 0 0 1 2.03 10.67z" fill="#f56132"/><path d="m225.75 143.13a1 1 0 0 1 -.48-.12l-25.73-14a1 1 0 0 1 .11-1.81l27.22-10.67a1 1 0 0 1 1.29.56 29.83 29.83 0 0 1 2.09 11 30.24 30.24 0 0 1 -1.13 8.24 29.08 29.08 0 0 1 -2.5 6.19 1 1 0 0 1 -.59.49.9.9 0 0 1 -.28.12zm-23.37-14.81 23 12.44a28.52 28.52 0 0 0 1.33-22z" fill="#093f68"/><path d="m232.1 166h-64.2a1 1 0 0 1 0-2h64.2a1 1 0 0 1 0 2z" fill="#dfeaef"/><path d="m232.1 175.78h-64.2a1 1 0 0 1 0-2h64.2a1 1 0 0 1 0 2z" fill="#dfeaef"/><path d="m212.85 185.54h-44.95a1 1 0 0 1 0-2h44.95a1 1 0 0 1 0 2z" fill="#dfeaef"/><rect fill="#fff" height="35.29" rx="2.47" width="44.64" x="239.76" y="149.25"/><path d="m281.93 185.54h-39.7a3.47 3.47 0 0 1 -3.47-3.47v-30.35a3.47 3.47 0 0 1 3.47-3.47h39.7a3.48 3.48 0 0 1 3.47 3.47v30.35a3.48 3.48 0 0 1 -3.47 3.47zm-39.7-35.29a1.47 1.47 0 0 0 -1.47 1.47v30.35a1.47 1.47 0 0 0 1.47 1.47h39.7a1.47 1.47 0 0 0 1.47-1.47v-30.35a1.47 1.47 0 0 0 -1.47-1.47z" fill="#093f68"/><path d="m151.57 80.27h96.86v7.69h-96.86z" fill="#fff"/><path d="m248.43 89h-96.86a1 1 0 0 1 -1-1v-7.73a1 1 0 0 1 1-1h96.86a1 1 0 0 1 1 1v7.73a1 1 0 0 1 -1 1zm-95.86-2h94.86v-5.73h-94.86z" fill="#093f68"/><circle cx="157.35" cy="83.83" fill="#093f68" r="1.31"/><g fill="#dfeaef"><circle cx="161.69" cy="83.83" r="1.31"/><circle cx="166.04" cy="83.83" r="1.31"/><path d="m279.55 178.18h-32.47a1 1 0 0 1 -1-1v-20.57a1 1 0 0 1 2 0v19.57h31.47a1 1 0 0 1 0 2z"/><path d="m247.08 178.18a1 1 0 0 1 -.66-.24 1 1 0 0 1 -.1-1.41l10.48-12.17a1 1 0 0 1 1.37-.13l7.08 5.62 9.12-10.08a1 1 0 0 1 1.42-.07 1 1 0 0 1 .07 1.41l-9.76 10.77a1 1 0 0 1 -1.36.11l-7.06-5.59-9.85 11.43a1 1 0 0 1 -.75.35z"/></g><path d="m138.99 175.87h4.95v10.37h-4.95z" fill="#fff" transform="matrix(.54843918 .83619045 -.83619045 .54843918 215.26 -36.54)"/><path d="m138.49 187a1 1 0 0 1 -.84-.45l-2.71-4.14a1 1 0 0 1 -.15-.75 1 1 0 0 1 .43-.63l8.68-5.69a1 1 0 0 1 1.38.29l2.71 4.14a1 1 0 0 1 -.29 1.38l-8.7 5.65a1 1 0 0 1 -.51.2zm-1.33-4.85 1.61 2.47 7-4.59-1.61-2.47z" fill="#093f68"/><path d="m144.45 171.41h7.59v10.37h-7.59z" fill="#fff" transform="matrix(.54843918 .83619045 -.83619045 .54843918 214.6 -44.22)"/><path d="m146 183.62a1 1 0 0 1 -.84-.45l-4.16-6.35a1 1 0 0 1 .28-1.39l8.67-5.68a1 1 0 0 1 1.39.28l4.16 6.35a1 1 0 0 1 .15.75 1.06 1.06 0 0 1 -.43.64l-8.68 5.68a1 1 0 0 1 -.54.17zm-2.78-7.06 3.06 4.67 7-4.59-3.07-4.64z" fill="#093f68"/><rect fill="#fff" height="23.76" rx="1.74" transform="matrix(.54843918 .83619045 -.83619045 .54843918 216.53 -21.76)" width="7.59" x="124.62" y="177.73"/><path d="m121.07 199.63a2.6 2.6 0 0 1 -.56-.06 2.66 2.66 0 0 1 -1.74-1.18l-2.25-3.39a2.73 2.73 0 0 1 .79-3.79l16.95-11.21a2.73 2.73 0 0 1 3.79.79l2.26 3.44a2.74 2.74 0 0 1 -.79 3.79l-17 11.12a2.72 2.72 0 0 1 -1.45.49zm14.69-18a.72.72 0 0 0 -.4.12l-17 11.12a.77.77 0 0 0 -.32.47.75.75 0 0 0 .11.56l2.26 3.44a.73.73 0 0 0 .46.32.74.74 0 0 0 .56-.11l16.95-11.12a.74.74 0 0 0 .22-1l-2.26-3.44a.75.75 0 0 0 -.58-.4z" fill="#093f68"/><path d="m177.66 157.31a17.85 17.85 0 1 0 -5.14 24.69 17.86 17.86 0 0 0 5.14-24.69zm-19.38 21.09a12.15 12.15 0 1 1 15.72-6.85 12.15 12.15 0 0 1 -15.72 6.85z" fill="#fff" stroke="#093f68" stroke-linecap="round" stroke-linejoin="round" stroke-width="2"/></svg>