<svg height="73" viewBox="0 0 73 73" width="73" xmlns="http://www.w3.org/2000/svg"><g fill="none" fill-rule="evenodd"><rect fill="#fff" fill-rule="nonzero" height="71" rx="14" stroke="#013247" stroke-width="2" width="71" x="1" y="1"/><g fill="#00618a"><path d="m40.8827605 33.7385756c-2.4212689-.0656386-4.2708067.1594958-5.8519622.826311-.4493487.1895546-1.1658529.1944621-1.2391596.757605.2469117.2588739.2852521.6453445.4815546.9637227.3775756.6109916 1.0149454 1.4296344 1.5836092 1.8590462.6214202.468979 1.2618572.9707773 1.9280588 1.3768782 1.1848698.7226386 2.5077648 1.1351806 3.6487732 1.8590462.6723361.4266512 1.3403781.9640294 1.9964579 1.445584.3242059.2380168.5422858.6082311.9637227.7572983 0-.0226975 0-.0457017 0-.0687059-.2214538-.2818781-.2785042-.6695756-.4818613-.9640294-.2981345-.2981344-.5965756-.5965756-.8950168-.8950168-.8750799-1.1615588-1.9860294-2.1817185-3.1669118-3.0291933-.9416386-.6760168-3.049437-1.5891302-3.4423487-2.6850504-.0230042-.0230042-.0457017-.0460084-.0690126-.0690126.6677353-.075147 1.4495714-.3168445 2.0657773-.4818613 1.0351891-.2775841 1.9602647-.2058109 3.0291933-.4818614.4818613-.1377185.9637226-.2757437 1.4458907-.4131554 0-.0920168 0-.1834202 0-.275437-.5404454-.5545546-.9256891-1.2882353-1.5149034-1.7900336-1.5415882-1.3127731-3.2242689-2.6243193-4.9569453-3.7179698-.9609622-.6065748-2.1485925-1.0007441-3.1669118-1.51475-.3426092-.1728382-.9443992-.2627079-1.1707605-.5508432-.5349244-.6820593-.8263109-1.5464958-1.2388529-2.3408769-.8643446-1.6641853-1.7130463-3.4817626-2.4786261-5.2325357-.5223487-1.1939488-.8634244-2.3714265-1.5145966-3.4425635-3.1261177-5.1396907-6.4911723-8.24197604-11.7039244-11.29122898-1.1091092-.64847311-2.4445798-.90458656-3.8558109-1.23915967-.7569916-.04582437-1.51459666-.09195546-2.27189498-.13777983-.46223109-.19320462-.94317227-.75873991-1.37687815-1.03279664-1.72684874-1.09091138-6.15623109-3.46381933-7.43526471-.34417353-.80760084 1.96912899 1.20695378 3.89065462 1.92744538 4.88839286.50578571.70000252 1.15327731 1.48478319 1.51459664 2.2719563.23771008.51731849.27881092 1.03610925.48216807 1.58363989.50057142 1.3485063.93581092 2.8156223 1.58330252 4.0619899.32727311.6305299.68797899 1.2948912 1.1017479 1.8588929.25365966.3459832.68828571.4984244.75699159 1.0327966-.42511764.5948887-.44934874 1.5183387-.68828571 2.271987-1.07598319 3.392813-.67018908 7.6099433.89501681 10.1209593.48032773.7707941 1.611521 2.4240294 3.16691174 1.7900336 1.3606219-.5542479 1.0566597-2.2715883 1.4458908-3.786737.0880294-.3435908.0340462-.5960849.2064243-.8261269v.0688899c.4131555.8261269.826311 1.6522231 1.2394664 2.4781967.9171009 1.4771764 2.5448782 3.0209117 3.9242101 4.062542.7152773.5401386 1.2784202 1.4741092 2.2031891 1.7900336 0-.0230042 0-.0457017 0-.0690126-.0233109 0-.0460084 0-.0690126 0-.1791261-.2794244-.4594706-.3950588-.6882857-.6195798-.5389118-.5281765-1.1379412-1.1848698-1.5836093-1.7900337-1.2544958-1.7032311-2.3632983-3.5674916-3.3733361-5.5079726-.4824748-.9264559-.9017647-1.9487627-1.308479-2.8917202-.1567353-.3636198-.154895-.9132668-.4815546-1.1016559-.4453614.6910155-1.1014412 1.2496496-1.4458908 2.0655626-.5508739 1.3041849-.6220336 2.8946954-.8260042 4.5440046-.1208487.0432479-.0671722.0134958-.1380252.0687059-.95881511-.2312689-1.29590335-1.2183945-1.65200839-2.0651639-.90145798-2.1416605-1.06892857-5.590205-.2757437-8.0553659.20519748-.6377072 1.13272689-2.6466794.75729832-3.235863-.17912605-.5879874-.77048739-.9279589-1.10144117-1.3772463-.40947479-.5553521-.81833614-1.2865176-1.1017479-1.9278134-.73766807-1.6698903-1.08211765-3.54439539-1.8587395-5.23225967-.37113445-.80695673-.9989958-1.6234832-1.51459664-2.34084622-.57081092-.79465715-1.21002101-1.37997605-1.65231512-2.34115294-.15734874-.34147437-.37113446-.88814622-.13771849-1.23919034.07422689-.23694328.17881933-.33576933.41315546-.41306345.39935294-.30791584 1.51152941.10244538 1.92744538.27528362 1.10420168.45858109 2.02559664.89529286 2.96079412 1.51475.44904201.29773571.90299159.87342353 1.44558403 1.03279664h.61957983c.9692437.22283403 2.05504197.06919664 2.96048737.34414285 1.600479.48646219 3.0347143 1.24308572 4.3373656 2.06559328 3.9683781 2.50561765 7.2128907 6.07246513 9.4323361 10.32732223.3570252.6850345.5116135 1.3389366.8260042 2.0655933.6346093 1.465337 1.4339286 2.9731857 2.0651639 4.4061328.6300084 1.4296958 1.2440672 2.87255 2.1344832 4.0622966.4683655.6254076 2.2764958.9609009 3.0982059 1.3080496.5760252.2435378 1.5198109.4971975 2.0654705.8260042 1.0422437.6287815 2.0519748 1.3771849 3.0295 2.0657773.4886093.3441429 1.9903236 1.0989874 2.0651639 1.721021z" fill-rule="nonzero" transform="translate(14.786008 16.109629)"/><path d="m1.23946639.0092937c-.50486555-.0092937-.86189076.05511806-1.23946639.13750378v.06888992h.06901261c.24077731.49480504.66589495.81321386.96372268 1.23946638.22942858.48195336.45885715.96390672.68859244 1.44555336.02269748-.02278949.0460084-.04582437.06870588-.06861386.42634454-.30043488.62172689-.78116135.61957984-1.51471933-.17084454-.1797395-.1959958-.40527269-.34414286-.61976387-.19691597-.28574285-.57786555-.44809117-.8260042-.68831638z" transform="translate(23.654588 23.607551)"/></g></g></svg>