<svg viewBox="0 0 512 512" xmlns="http://www.w3.org/2000/svg"><text x="729.64001" y="231.35997"><tspan x="729.64001" y="231.35997"/></text><text transform="scale(4.0128 .2492)" x="378.90805" y="579.25812"/><text x="1310.91" y="151.35997"><tspan x="1310.91" y="151.35997"/></text><text transform="scale(4.0128 .2492)" x="523.75732" y="258.21997"/><text x="239.33" y="-29.900009"><tspan x="239.33" y="-29.900009"/></text><text transform="scale(4.0128 .2492)" x="256.71869" y="-469.1264"/><text x="1337.38" y="-246.37001"><tspan x="1337.38" y="-246.37001"/></text><text transform="scale(4.0128 .2492)" x="530.3573" y="-1337.802"/><text x="1918.65" y="-326.37"><tspan x="1918.65" y="-326.37"/></text><text transform="scale(4.0128 .2492)" x="675.20654" y="-1658.8303"/><text x="1529.53" y="-798.77002"><tspan x="1529.53" y="-798.77002"/></text><text transform="scale(4.0128 .2492)" x="578.237" y="-3554.4807"/><text x="2110.79" y="-878.78003"><tspan x="2110.79" y="-878.78003"/></text><text transform="scale(4.0128 .2492)" x="723.0863" y="-3875.519"/><text x="277.98999" y="535.94006"><tspan x="277.98999" y="535.94006"/></text><text x="729.64001" y="231.35997"><tspan x="729.64001" y="231.35997"/></text><text transform="scale(4.0128 .2492)" x="378.90805" y="579.25812"/><text x="1310.91" y="151.35997"><tspan x="1310.91" y="151.35997"/></text><text transform="scale(4.0128 .2492)" x="523.75732" y="258.21997"/><text x="239.33" y="-29.900009"><tspan x="239.33" y="-29.900009"/></text><text transform="scale(4.0128 .2492)" x="256.71869" y="-469.1264"/><text x="1337.38" y="-246.37001"><tspan x="1337.38" y="-246.37001"/></text><text transform="scale(4.0128 .2492)" x="530.3573" y="-1337.802"/><text x="1918.65" y="-326.37"><tspan x="1918.65" y="-326.37"/></text><text transform="scale(4.0128 .2492)" x="675.20654" y="-1658.8303"/><text x="1529.53" y="-798.77002"><tspan x="1529.53" y="-798.77002"/></text><text transform="scale(4.0128 .2492)" x="578.237" y="-3554.4807"/><text x="2110.79" y="-878.78003"><tspan x="2110.79" y="-878.78003"/></text><text transform="scale(4.0128 .2492)" x="723.0863" y="-3875.519"/><text x="277.98999" y="535.94006"><tspan x="277.98999" y="535.94006"/></text><text x="729.64001" y="231.35997"><tspan x="729.64001" y="231.35997"/></text><text transform="scale(4.0128 .2492)" x="378.90805" y="579.25812"/><text x="1310.91" y="151.35997"><tspan x="1310.91" y="151.35997"/></text><text transform="scale(4.0128 .2492)" x="523.75732" y="258.21997"/><text x="239.33" y="-29.900009"><tspan x="239.33" y="-29.900009"/></text><text transform="scale(4.0128 .2492)" x="256.71869" y="-469.1264"/><text x="1337.38" y="-246.37001"><tspan x="1337.38" y="-246.37001"/></text><text transform="scale(4.0128 .2492)" x="530.3573" y="-1337.802"/><text x="1918.65" y="-326.37"><tspan x="1918.65" y="-326.37"/></text><text transform="scale(4.0128 .2492)" x="675.20654" y="-1658.8303"/><text x="1529.53" y="-798.77002"><tspan x="1529.53" y="-798.77002"/></text><text transform="scale(4.0128 .2492)" x="578.237" y="-3554.4807"/><text x="2110.79" y="-878.78003"><tspan x="2110.79" y="-878.78003"/></text><text transform="scale(4.0128 .2492)" x="723.0863" y="-3875.519"/><text x="277.98999" y="535.94006"><tspan x="277.98999" y="535.94006"/></text><text x="729.64001" y="231.35997"><tspan x="729.64001" y="231.35997"/></text><text transform="scale(4.0128 .2492)" x="378.90805" y="579.25812"/><text x="1310.91" y="151.35997"><tspan x="1310.91" y="151.35997"/></text><text transform="scale(4.0128 .2492)" x="523.75732" y="258.21997"/><text x="239.33" y="-29.900009"><tspan x="239.33" y="-29.900009"/></text><text transform="scale(4.0128 .2492)" x="256.71869" y="-469.1264"/><text x="1337.38" y="-246.37001"><tspan x="1337.38" y="-246.37001"/></text><text transform="scale(4.0128 .2492)" x="530.3573" y="-1337.802"/><text x="1918.65" y="-326.37"><tspan x="1918.65" y="-326.37"/></text><text transform="scale(4.0128 .2492)" x="675.20654" y="-1658.8303"/><text x="1529.53" y="-798.77002"><tspan x="1529.53" y="-798.77002"/></text><text transform="scale(4.0128 .2492)" x="578.237" y="-3554.4807"/><text x="2110.79" y="-878.78003"><tspan x="2110.79" y="-878.78003"/></text><text transform="scale(4.0128 .2492)" x="723.0863" y="-3875.519"/><text x="277.98999" y="535.94006"><tspan x="277.98999" y="535.94006"/></text><text x="729.64001" y="231.35997"><tspan x="729.64001" y="231.35997"/></text><text transform="scale(4.0128 .2492)" x="378.90805" y="579.25812"/><text x="1310.91" y="151.35997"><tspan x="1310.91" y="151.35997"/></text><text transform="scale(4.0128 .2492)" x="523.75732" y="258.21997"/><text x="239.33" y="-29.900009"><tspan x="239.33" y="-29.900009"/></text><text transform="scale(4.0128 .2492)" x="256.71869" y="-469.1264"/><text x="1337.38" y="-246.37001"><tspan x="1337.38" y="-246.37001"/></text><text transform="scale(4.0128 .2492)" x="530.3573" y="-1337.802"/><text x="1918.65" y="-326.37"><tspan x="1918.65" y="-326.37"/></text><text transform="scale(4.0128 .2492)" x="675.20654" y="-1658.8303"/><text x="1529.53" y="-798.77002"><tspan x="1529.53" y="-798.77002"/></text><text transform="scale(4.0128 .2492)" x="578.237" y="-3554.4807"/><text x="2110.79" y="-878.78003"><tspan x="2110.79" y="-878.78003"/></text><text transform="scale(4.0128 .2492)" x="723.0863" y="-3875.519"/><text x="277.98999" y="535.94006"><tspan x="277.98999" y="535.94006"/></text><text x="729.64001" y="231.35997"><tspan x="729.64001" y="231.35997"/></text><text transform="scale(4.0128 .2492)" x="378.90805" y="579.25812"/><text x="1310.91" y="151.35997"><tspan x="1310.91" y="151.35997"/></text><text transform="scale(4.0128 .2492)" x="523.75732" y="258.21997"/><text x="239.33" y="-29.900009"><tspan x="239.33" y="-29.900009"/></text><text transform="scale(4.0128 .2492)" x="256.71869" y="-469.1264"/><text x="1337.38" y="-246.37001"><tspan x="1337.38" y="-246.37001"/></text><text transform="scale(4.0128 .2492)" x="530.3573" y="-1337.802"/><text x="1918.65" y="-326.37"><tspan x="1918.65" y="-326.37"/></text><text transform="scale(4.0128 .2492)" x="675.20654" y="-1658.8303"/><text x="1529.53" y="-798.77002"><tspan x="1529.53" y="-798.77002"/></text><text transform="scale(4.0128 .2492)" x="578.237" y="-3554.4807"/><text x="2110.79" y="-878.78003"><tspan x="2110.79" y="-878.78003"/></text><text transform="scale(4.0128 .2492)" x="723.0863" y="-3875.519"/><text x="277.98999" y="535.94006"><tspan x="277.98999" y="535.94006"/></text><text x="729.64001" y="231.35997"><tspan x="729.64001" y="231.35997"/></text><text transform="scale(4.0128 .2492)" x="378.90805" y="579.25812"/><text x="1310.91" y="151.35997"><tspan x="1310.91" y="151.35997"/></text><text transform="scale(4.0128 .2492)" x="523.75732" y="258.21997"/><text x="239.33" y="-29.900009"><tspan x="239.33" y="-29.900009"/></text><text transform="scale(4.0128 .2492)" x="256.71869" y="-469.1264"/><text x="1337.38" y="-246.37001"><tspan x="1337.38" y="-246.37001"/></text><text transform="scale(4.0128 .2492)" x="530.3573" y="-1337.802"/><text x="1918.65" y="-326.37"><tspan x="1918.65" y="-326.37"/></text><text transform="scale(4.0128 .2492)" x="675.20654" y="-1658.8303"/><text x="1529.53" y="-798.77002"><tspan x="1529.53" y="-798.77002"/></text><text transform="scale(4.0128 .2492)" x="578.237" y="-3554.4807"/><text x="2110.79" y="-878.78003"><tspan x="2110.79" y="-878.78003"/></text><text transform="scale(4.0128 .2492)" x="723.0863" y="-3875.519"/><text x="277.98999" y="535.94006"><tspan x="277.98999" y="535.94006"/></text><text x="729.64001" y="231.36"><tspan x="729.64001" y="231.36"/></text><text transform="scale(4.0128 .2492)" x="378.90805" y="579.24701"/><text x="1310.91" y="151.36"><tspan x="1310.91" y="151.36"/></text><text transform="scale(4.0128 .2492)" x="523.75732" y="258.21869"/><text x="239.33" y="-29.900999"><tspan x="239.33" y="-29.900999"/></text><text transform="scale(4.0128 .2492)" x="256.71869" y="-469.1376"/><text x="1337.38" y="-246.37"><tspan x="1337.38" y="-246.37"/></text><text transform="scale(4.0128 .2492)" x="530.3573" y="-1337.8032"/><text x="1918.65" y="-326.38"><tspan x="1918.65" y="-326.38"/></text><text transform="scale(4.0128 .2492)" x="675.20654" y="-1658.8414"/><text x="1529.53" y="-798.78003"><tspan x="1529.53" y="-798.78003"/></text><text transform="scale(4.0128 .2492)" x="578.237" y="-3554.4917"/><text x="2110.79" y="-878.78003"><tspan x="2110.79" y="-878.78003"/></text><text transform="scale(4.0128 .2492)" x="723.0863" y="-3875.5203"/><text x="277.98999" y="535.94"><tspan x="277.98999" y="535.94"/></text><g fill-rule="evenodd"><path d="m471.95 253.05c0 120.9-98.006 218.91-218.91 218.91s-218.91-98.006-218.91-218.91 98.006-218.91 218.91-218.91 218.91 98.006 218.91 218.91" fill="#5b85b6"/><path d="m228.62 177.59-11.09 54.29c-14.85-16.29-35.2-23.6-57.06-21.04-14.85 0-30.09-.96-44.94-.96l-25.499 124.53c168.14 133.04 141.01 111.98 174.28 137.28.01 0 .03-.01.03 0 110.46-5.62 199.28-93.12 207.04-203-22.2-18.15-44.47-36.2-66.91-54-25.24-6.33-52.95-1.42-79.59-4.81-1.09 25.66 11.95 27.39-16.94 9.46-23.57-19.3.13.58-49.22-41.62-5.49 1.21-4.23.02-7.03-.13h-23.07z" opacity=".25"/><path d="m256 1c-140.83 0-255 114.17-255 255s114.17 255 255 255 255-114.17 255-255-114.17-255-255-255m8.827 44.931c120.9 0 218.9 98 218.9 218.9s-98 218.9-218.9 218.9-218.93-98-218.93-218.9 98.03-218.9 218.93-218.9" fill-opacity=".067"/><path d="m256 4.43c-138.94 0-251.57 112.63-251.57 251.57s112.63 251.57 251.57 251.57 251.57-112.63 251.57-251.57-112.63-251.57-251.57-251.57m5.885 38.556c120.9 0 218.9 98 218.9 218.9s-98 218.9-218.9 218.9-218.93-98-218.93-218.9 98.03-218.9 218.93-218.9" fill-opacity=".129"/><path d="m256 8.36c-136.77 0-247.64 110.87-247.64 247.64s110.87 247.64 247.64 247.64 247.64-110.87 247.64-247.64-110.87-247.64-247.64-247.64m2.942 31.691c120.9 0 218.9 98 218.9 218.9s-98 218.9-218.9 218.9-218.93-98-218.93-218.9 98.03-218.9 218.93-218.9" fill-opacity=".129"/><path d="m253.04 7.86c-135.42 0-245.19 109.78-245.19 245.19 0 135.42 109.78 245.19 245.19 245.19 135.42 0 245.19-109.78 245.19-245.19 0-135.42-109.78-245.19-245.19-245.19zm0 26.297c120.9 0 218.9 98 218.9 218.9s-98 218.9-218.9 218.9-218.93-98-218.93-218.9 98.03-218.9 218.93-218.9z" fill="#fff" stroke="#000" stroke-opacity=".31" stroke-width="4.904"/></g><text x="729.64001" y="231.35997"><tspan x="729.64001" y="231.35997"/></text><text transform="scale(4.0128 .2492)" x="378.90805" y="579.25812"/><text x="1310.91" y="151.35997"><tspan x="1310.91" y="151.35997"/></text><text transform="scale(4.0128 .2492)" x="523.75732" y="258.21997"/><text x="239.33" y="-29.900009"><tspan x="239.33" y="-29.900009"/></text><text transform="scale(4.0128 .2492)" x="256.71869" y="-469.1264"/><text x="1337.38" y="-246.37001"><tspan x="1337.38" y="-246.37001"/></text><text transform="scale(4.0128 .2492)" x="530.3573" y="-1337.802"/><text x="1918.65" y="-326.37"><tspan x="1918.65" y="-326.37"/></text><text transform="scale(4.0128 .2492)" x="675.20654" y="-1658.8303"/><text x="1529.53" y="-798.77002"><tspan x="1529.53" y="-798.77002"/></text><text transform="scale(4.0128 .2492)" x="578.237" y="-3554.4807"/><text x="2110.79" y="-878.78003"><tspan x="2110.79" y="-878.78003"/></text><text transform="scale(4.0128 .2492)" x="723.0863" y="-3875.519"/><text x="277.98999" y="535.94006"><tspan x="277.98999" y="535.94006"/></text><path d="m228.62 177.59-25.46 124.41h30.25l14.344-69.125h23.844c11.187 0 11.175 4.6468 9.5938 12.312l-11.19 56.87h31.906l11.125-63c3.1979-15.378-6.3644-27.637-31.844-29.219h-28.656l6.3438-32.25h-30.25zm-113.09 32.281-25.5 124.53h30.219l6.4062-32.281h28.688c27.061 1.4316 57.312-19.989 57.312-56.875 0-21.519-12.708-33.793-38.188-35.375h-58.938zm209.34 0-25.531 124.53h30.25l6.375-32.281h28.688c27.11 1.44 57.35-19.98 57.35-56.87 0-21.519-12.708-33.793-38.188-35.375h-58.938zm-183.87 23.13h20.688c11.187 0 19.125 4.5651 19.125 13.812-1.6278 26.114-14.349 30.715-28.688 32.25h-19.094l7.96-46.06zm209.34 0h20.688c11.141 0 19.094 4.5651 19.094 13.812-1.5816 26.114-14.303 30.715-28.688 32.25h-19.062l7.96-46.06z" fill="#fff" fill-rule="evenodd"/></svg>