<svg viewBox="0 0 512 512" xmlns="http://www.w3.org/2000/svg" xmlns:xlink="http://www.w3.org/1999/xlink"><rect fill="#777bb3" height="512" rx="15%" width="512"/><g stroke="#fff" stroke-width="6"><path id="a" d="m155 202h-58a3 3 0 0 0 -3 2l-27 141c0 3 3 3 3 3h30c3 0 3-2 3-2l7-35h27c42 0 63-28 68-53s1-56-50-56zm13 54c-4 19-17 27-35 27h-18l11-53h18c27 0 26 10 24 26z"/><path d="m275 311c-4 0-3-4-3-4l12-61c0-8 6-16-18-15h-18l-15 78s0 3-4 3h-29c-3 0-3-3-3-3l28-141s0-2 4-2h30c3 0 2 3 2 3l-7 34h26c36 0 45 17 42 37l-13 69s0 3-5 3z"/><use x="239" xlink:href="#a"/></g></svg>